<svg id="Layer_1" data-name="Layer 1" xmlns="http://www.w3.org/2000/svg" viewBox="0 0 499.56 600.89"><defs><style>.cls-1,.cls-2{fill:#f3bef1;}.cls-2{opacity:0.53;}</style></defs><ellipse class="cls-1" cx="269.02" cy="129.82" rx="35.14" ry="28.67" transform="translate(111.71 383.75) rotate(-83.98)"/><path class="cls-1" d="M273.08,11.8S224,90.41,221.56,96.19s6,61.28,6.59,64.17S300.64,176,306,181.17s29.36,64.16,37.74,72.25,92.86,69.37,86.87,72.26-85.87-44.16-134.19-96.09c-2.83-3,12,48.69,14.37,61.4s1.2,93.65-.59,111,21.56,122,21.56,122c-1.2,20.81-34.74,79.19-37.14,76.88s10.18-83.81,9-93.06-30-134.69-33.25-134.69-47.63,100-55.42,111S202.39,592.15,198.2,595,185,481.75,191,458.62s39.54-142.77,43.13-169.94S189.21,117.58,197.6,96.77,273.08,11.8,273.08,11.8Z"/><path class="cls-2" d="M203.59,71.34C206,76,232.35,88.1,232.35,88.1s-3.33,68.4,0,71.68,66,17.57,69.83,19.48,36.2,55.66,47.58,69.54,47.93,40.46,47.93,40.46-21,12.14-29.36,11S321,255.15,319.81,264.4s26.36,84.4,28.16,91.33,9.58,31.22-26.36,26-63.5-1.16-94.66,5.2S195.2,363.83,170,352.27,141.89,335.5,165.25,313s57.51-44.22,57.51-58.09S189.21,99.08,192.21,91.57,203.59,71.34,203.59,71.34Z"/><path class="cls-1" d="M230.74,306.34c-10.19,15-62.79,126-66.39,149.68s-6.89,73.13.3,89.31,45.53,35.84,54.52,18.5,41.33-156.65,44.93-163,12.58,71.68,14.37,75.72-6.59,78.62,0,83.82,63.21,16.18,65.6-4.62.16-163.88-32.2-249.4C304.61,287.16,230.74,306.34,230.74,306.34Z"/></svg>