<svg id="Layer_1" data-name="Layer 1" xmlns="http://www.w3.org/2000/svg" viewBox="0 0 285.33 1410.05"><defs><style>.cls-1{fill:#eae6d6;stroke:#ccc08f;stroke-miterlimit:10;}.cls-2{fill:#c9c097;}.cls-3{fill:#eddfa6;}.cls-4{fill:#af9ca1;}.cls-5{fill:#c2df97;}.cls-6{fill:#f67c87;}.cls-7{font-size:22px;fill:#4c4c4c;font-family:AbrilFatface-Regular, Abril Fatface;}.cls-8{letter-spacing:-0.02em;}.cls-9{letter-spacing:-0.03em;}.cls-10{letter-spacing:-0.01em;}.cls-11{letter-spacing:0em;}.cls-12{fill:#f3df8c;}.cls-13{fill:#c65c7f;}.cls-14{fill:#f3bef1;}.cls-15{letter-spacing:-0.05em;}.cls-16{letter-spacing:-0.01em;}.cls-17{fill:#f7b289;}.cls-18{fill:#bdc1ae;}.cls-19{fill:#d08c87;}.cls-20{letter-spacing:-0.01em;}.cls-21{letter-spacing:-0.03em;}.cls-22{letter-spacing:-0.02em;}.cls-23{letter-spacing:-0.04em;}.cls-24{fill:#867888;}.cls-25{fill:#99ad77;}.cls-26{fill:#c0aaaf;}.cls-27{fill:#79a5ae;}.cls-28{fill:#55774d;}.cls-29{fill:#d1bb80;}.cls-30{letter-spacing:-0.01em;}.cls-31{fill:#a8dcc6;}.cls-32{fill:#373e7a;}.cls-33{fill:#a9aedb;}.cls-34{letter-spacing:0em;}</style></defs><path class="cls-1" d="M274.08,24.84s-12.77,359.83-12.77,592.08,9.12,777.78,9.12,777.78H17.14V692.54c0-280.86-5.88-667.7-5.88-667.7Z"/><path class="cls-2" d="M270.44,43.5s-106.66-14.66-136-14.66S8.62,41.28,8.62,41.28V6.17S83.78,16,134.44,16s136-9.78,136-9.78Z"/><path class="cls-3" d="M272,6.17c7.33,0,13.33,8.22,13.33,18.67,0,12.22-4.88,18.66-11.55,18.66-9.11,0-12.45-11.11-12.45-19.78S266.86,6.17,272,6.17Z"/><path class="cls-3" d="M10.67,6.17C18,6.17,24,14.39,24,24.84,24,37.06,19.11,43.5,12.44,43.5,3.33,43.5,0,32.39,0,23.72S5.53,6.17,10.67,6.17Z"/><path class="cls-2" d="M268.38,13.39c.62,4,1,7.94,1.67,11.76a37.12,37.12,0,0,0,1.25,5.47c.13.43.31.78.45,1.18a8.71,8.71,0,0,0,.59,1.05,3.34,3.34,0,0,0,1.26,1.32,1,1,0,0,0,1,0,3.26,3.26,0,0,0,1.24-1.34,7.2,7.2,0,0,0,.79-2.24,17.74,17.74,0,0,0,.34-2.66,18.94,18.94,0,0,0-.07-2.72,8.08,8.08,0,0,0-.21-1.26c-.08-.37-.32-.71-.24-.7s.28-.09.13-.06a1.64,1.64,0,0,0-.44.22,3.6,3.6,0,0,0-.83,1A12,12,0,0,0,274.1,27a8.59,8.59,0,0,1,.18-3.1,4.18,4.18,0,0,1,.71-1.58,3.37,3.37,0,0,1,.71-.7,1.66,1.66,0,0,1,1.54-.21,2.48,2.48,0,0,1,1,.79,5.88,5.88,0,0,1,.53.81,10,10,0,0,1,.66,1.58,16.59,16.59,0,0,1,.66,6.47,10.38,10.38,0,0,1-.28,1.7,10.12,10.12,0,0,1-.61,1.75,7,7,0,0,1-2.66,3.05,5,5,0,0,1-4.72.21A7,7,0,0,1,269,34.91a13,13,0,0,1-.78-1.59,14.64,14.64,0,0,1-.52-1.63,27.36,27.36,0,0,1-.75-6.26A45.54,45.54,0,0,1,268.38,13.39Z"/><path class="cls-2" d="M17,13.39a45.54,45.54,0,0,1,1.46,12,27.36,27.36,0,0,1-.75,6.26,14.64,14.64,0,0,1-.52,1.63,13,13,0,0,1-.78,1.59,7,7,0,0,1-2.87,2.86,5,5,0,0,1-4.72-.21,7,7,0,0,1-2.66-3.05,10.12,10.12,0,0,1-.61-1.75,10.38,10.38,0,0,1-.28-1.7,17,17,0,0,1,0-3.27,15.54,15.54,0,0,1,.65-3.2A10,10,0,0,1,6.59,23a5.88,5.88,0,0,1,.53-.81,2.48,2.48,0,0,1,1-.79,1.66,1.66,0,0,1,1.54.21,3.37,3.37,0,0,1,.71.7,4.18,4.18,0,0,1,.71,1.58,8.59,8.59,0,0,1,.18,3.1,12,12,0,0,0-1.2-2.67,3.6,3.6,0,0,0-.83-1,1.64,1.64,0,0,0-.44-.22c-.15,0,.06.08.13.06s-.16.33-.24.7a8.08,8.08,0,0,0-.21,1.26,17.6,17.6,0,0,0-.06,2.72,16.53,16.53,0,0,0,.33,2.66,7.75,7.75,0,0,0,.79,2.24,3.26,3.26,0,0,0,1.24,1.34,1,1,0,0,0,1,0A3.34,3.34,0,0,0,13,32.85a8.71,8.71,0,0,0,.59-1.05c.14-.4.32-.75.46-1.18a39.86,39.86,0,0,0,1.25-5.47C16,21.33,16.38,17.39,17,13.39Z"/><path class="cls-2" d="M270.44,1372.72s-106.66,14.67-136,14.67S8.62,1374.94,8.62,1374.94v35.11s75.16-9.77,125.82-9.77,136,9.77,136,9.77Z"/><path class="cls-3" d="M272,1410.05c7.33,0,13.33-8.22,13.33-18.66,0-12.22-4.88-18.67-11.55-18.67-9.11,0-12.45,11.11-12.45,19.78S266.86,1410.05,272,1410.05Z"/><path class="cls-3" d="M10.67,1410.05c7.33,0,13.33-8.22,13.33-18.66,0-12.22-4.89-18.67-11.56-18.67C3.33,1372.72,0,1383.83,0,1392.5S5.53,1410.05,10.67,1410.05Z"/><path class="cls-2" d="M268.38,1402.83a45.44,45.44,0,0,1-1.46-12,27.36,27.36,0,0,1,.75-6.26,15.34,15.34,0,0,1,.52-1.63,14.57,14.57,0,0,1,.78-1.59,7.08,7.08,0,0,1,2.87-2.85,5.08,5.08,0,0,1,2.42-.49,5,5,0,0,1,2.3.7,6.94,6.94,0,0,1,2.66,3,9.84,9.84,0,0,1,.61,1.75,10.1,10.1,0,0,1,.28,1.69,15.63,15.63,0,0,1,0,3.28,15.45,15.45,0,0,1-.65,3.19,9.64,9.64,0,0,1-.66,1.58,6,6,0,0,1-.53.82,2.47,2.47,0,0,1-1,.78,1.63,1.63,0,0,1-1.54-.21,3.15,3.15,0,0,1-.71-.7,4.08,4.08,0,0,1-.71-1.57,8.65,8.65,0,0,1-.18-3.11,12,12,0,0,0,1.2,2.67,3.6,3.6,0,0,0,.83,1,1.44,1.44,0,0,0,.44.23c.15,0-.06-.09-.13-.06s.16-.33.24-.71a7.88,7.88,0,0,0,.21-1.26,18.76,18.76,0,0,0,.07-2.71,17.58,17.58,0,0,0-.34-2.66,7.17,7.17,0,0,0-.79-2.25,3.33,3.33,0,0,0-1.24-1.34,1,1,0,0,0-1,0,3.34,3.34,0,0,0-1.26,1.32,9.55,9.55,0,0,0-.59,1.05c-.14.4-.32.75-.45,1.19a36.69,36.69,0,0,0-1.25,5.46C269.4,1394.89,269,1398.83,268.38,1402.83Z"/><path class="cls-2" d="M17,1402.83c-.62-4-1-7.94-1.66-11.76a39.38,39.38,0,0,0-1.25-5.46c-.14-.44-.32-.79-.46-1.19a9.55,9.55,0,0,0-.59-1.05,3.34,3.34,0,0,0-1.26-1.32,1,1,0,0,0-1,0,3.33,3.33,0,0,0-1.24,1.34,7.71,7.71,0,0,0-.79,2.25,16.39,16.39,0,0,0-.33,2.66,17.44,17.44,0,0,0,.06,2.71,7.88,7.88,0,0,0,.21,1.26c.08.38.32.72.24.71s-.28.09-.13.06a1.44,1.44,0,0,0,.44-.23,3.6,3.6,0,0,0,.83-1,12,12,0,0,0,1.2-2.67,8.65,8.65,0,0,1-.18,3.11,4.08,4.08,0,0,1-.71,1.57,3.15,3.15,0,0,1-.71.7,1.63,1.63,0,0,1-1.54.21,2.47,2.47,0,0,1-1-.78,6,6,0,0,1-.53-.82,9.64,9.64,0,0,1-.66-1.58,15.45,15.45,0,0,1-.65-3.19,17.11,17.11,0,0,1,0-3.28,10.1,10.1,0,0,1,.28-1.69,9.84,9.84,0,0,1,.61-1.75,6.94,6.94,0,0,1,2.66-3,5,5,0,0,1,2.3-.7,5.08,5.08,0,0,1,2.42.49,7.08,7.08,0,0,1,2.87,2.85,14.57,14.57,0,0,1,.78,1.59,15.34,15.34,0,0,1,.52,1.63,27.36,27.36,0,0,1,.75,6.26A45.44,45.44,0,0,1,17,1402.83Z"/><polygon class="cls-4" points="81.89 116.31 64.39 115.56 53.84 129.55 49.15 112.67 32.59 106.96 47.19 97.28 47.5 79.77 61.22 90.67 77.97 85.55 71.84 101.96 81.89 116.31"/><polygon class="cls-5" points="69.31 195.11 52.57 189.93 38.81 200.78 38.57 183.26 24 173.53 40.59 167.89 45.34 151.02 55.83 165.05 73.34 164.36 63.24 178.68 69.31 195.11"/><polygon class="cls-6" points="58.34 271.44 49.65 256.22 32.19 254.75 43.98 241.79 39.98 224.73 55.95 231.93 70.94 222.86 69.03 240.27 82.29 251.72 65.13 255.28 58.34 271.44"/><text class="cls-7" transform="translate(97.05 106.29)">Bol<tspan class="cls-8" x="33.4" y="0">l</tspan><tspan x="40.02" y="0">y</tspan><tspan class="cls-9" x="51.72" y="0">w</tspan><tspan x="69.3" y="0">ood </tspan><tspan x="0" y="21">dance</tspan></text><text class="cls-7" transform="translate(97.05 186.63)">Classical dance</text><text class="cls-7" transform="translate(97.05 247.56)"><tspan class="cls-10">C</tspan><tspan x="14.96" y="0">o</tspan><tspan class="cls-11" x="26.91" y="0">n</tspan><tspan x="40.35" y="0">tempo</tspan><tspan class="cls-8" x="104.78" y="0">r</tspan><tspan x="115.34" y="0">a</tspan><tspan class="cls-8" x="127.42" y="0">r</tspan><tspan x="137.98" y="0">y </tspan><tspan x="0" y="21">dance</tspan></text><polygon class="cls-12" points="77.62 472.53 60.11 471.78 49.57 485.77 44.88 468.89 28.31 463.18 42.91 453.5 43.22 435.98 56.94 446.88 73.69 441.76 67.57 458.18 77.62 472.53"/><polygon class="cls-13" points="68.99 622.57 52.25 617.39 38.49 628.24 38.25 610.72 23.68 600.99 40.27 595.35 45.02 578.48 55.51 592.51 73.02 591.82 62.92 606.14 68.99 622.57"/><polygon class="cls-14" points="61.9 698.9 53.21 683.68 35.75 682.21 47.53 669.25 43.53 652.19 59.51 659.39 74.49 650.32 72.58 667.73 85.84 679.18 68.69 682.75 61.9 698.9"/><text class="cls-7" transform="translate(97.05 532.62)"><tspan class="cls-8">E</tspan><tspan x="13.4" y="0">xperime</tspan><tspan class="cls-11" x="99.53" y="0">n</tspan><tspan x="112.97" y="0">tal </tspan><tspan x="0" y="21">dance</tspan></text><text class="cls-7" transform="translate(97.05 613)"><tspan class="cls-15">F</tspan><tspan x="11.92" y="0">emini</tspan><tspan class="cls-16" x="70.31" y="0">s</tspan><tspan x="79.64" y="0">t </tspan><tspan x="0" y="21">the</tspan><tspan class="cls-8" x="33.57" y="21">a</tspan><tspan x="45.32" y="21">t</tspan><tspan class="cls-11" x="53.99" y="21">r</tspan><tspan x="64.77" y="21">e</tspan></text><text class="cls-7" transform="translate(97.05 683.78)">Film</text><polygon class="cls-17" points="73 757.5 55.5 756.75 44.95 770.74 40.26 753.86 23.7 748.15 38.3 738.48 38.61 720.96 52.33 731.86 69.08 726.74 62.96 743.15 73 757.5"/><polygon class="cls-18" points="83.8 836.3 67.07 831.12 53.31 841.97 53.07 824.45 38.49 814.72 55.08 809.08 59.83 792.21 70.33 806.24 87.83 805.55 77.74 819.87 83.8 836.3"/><polygon class="cls-19" points="54.06 912.63 45.38 897.41 27.92 895.94 39.7 882.98 35.7 865.92 51.67 873.12 66.66 864.05 64.75 881.46 78.01 892.91 60.85 896.48 54.06 912.63"/><text class="cls-7" transform="translate(97.05 756.58)"><tspan class="cls-15">F</tspan><tspan x="11.92" y="0">olk dance</tspan></text><text class="cls-7" transform="translate(97.05 821.37)">Imme<tspan class="cls-20" x="58.23" y="0">r</tspan><tspan x="68.86" y="0">s</tspan><tspan class="cls-21" x="78.41" y="0">i</tspan><tspan class="cls-22" x="84.72" y="0">v</tspan><tspan x="95.87" y="0">e </tspan><tspan x="0" y="21">the</tspan><tspan class="cls-8" x="33.57" y="21">a</tspan><tspan x="45.32" y="21">t</tspan><tspan class="cls-11" x="53.99" y="21">r</tspan><tspan x="64.77" y="21">e</tspan></text><text class="cls-7" transform="translate(97.05 898.03)">M<tspan class="cls-10" x="18.48" y="0">i</tspan><tspan class="cls-23" x="25.23" y="0">x</tspan><tspan x="37.55" y="0">ed media</tspan></text><polygon class="cls-24" points="87.82 971.24 70.31 970.48 59.77 984.47 55.08 967.59 38.51 961.88 53.12 952.21 53.42 934.69 67.14 945.59 83.9 940.47 77.77 956.88 87.82 971.24"/><polygon class="cls-25" points="64.36 1050.04 47.62 1044.85 33.86 1055.7 33.62 1038.18 19.05 1028.45 35.63 1022.81 40.38 1005.94 50.88 1019.97 68.39 1019.28 58.29 1033.6 64.36 1050.04"/><polygon class="cls-26" points="53.71 1126.36 45.02 1111.14 27.56 1109.67 39.34 1096.71 35.35 1079.65 51.32 1086.85 66.31 1077.78 64.39 1095.19 77.65 1106.64 60.5 1110.21 53.71 1126.36"/><text class="cls-7" transform="translate(97.05 967.29)"><tspan class="cls-10">M</tspan><tspan x="18.26" y="0">ultimedia</tspan></text><text class="cls-7" transform="translate(97.05 1041.55)"><tspan class="cls-10">M</tspan><tspan x="18.26" y="0">usic</tspan></text><text class="cls-7" transform="translate(97.05 1109.05)"><tspan class="cls-8">N</tspan><tspan class="cls-10" x="14.41" y="0">a</tspan><tspan x="26.27" y="0">utanki</tspan></text><polygon class="cls-27" points="77.62 1184.97 60.11 1184.21 49.57 1198.2 44.88 1181.32 28.31 1175.62 42.91 1165.94 43.22 1148.42 56.94 1159.32 73.69 1154.2 67.57 1170.61 77.62 1184.97"/><polygon class="cls-28" points="83.8 1263.77 67.07 1258.58 53.31 1269.43 53.07 1251.91 38.49 1242.18 55.08 1236.54 59.83 1219.67 70.33 1233.7 87.83 1233.01 77.74 1247.33 83.8 1263.77"/><polygon class="cls-29" points="58.34 1340.09 49.65 1324.87 32.19 1323.4 43.98 1310.44 39.98 1293.38 55.95 1300.58 70.94 1291.51 69.03 1308.92 82.29 1320.38 65.13 1323.94 58.34 1340.09"/><text class="cls-7" transform="translate(97.05 1167.35)"><tspan class="cls-21">P</tspan><tspan x="13.29" y="0">oet</tspan><tspan class="cls-30" x="45.25" y="0">r</tspan><tspan class="cls-21" x="55.81" y="0">y</tspan><tspan x="66.86" y="0">/R</tspan><tspan class="cls-10" x="90.33" y="0">a</tspan><tspan x="102.19" y="0">p/</tspan><tspan x="0" y="21">Spo</tspan><tspan class="cls-22" x="38.08" y="21">k</tspan><tspan x="51.17" y="21">en </tspan><tspan class="cls-23" x="80.03" y="21">w</tspan><tspan x="97.61" y="21">ord</tspan></text><text class="cls-7" transform="translate(97.05 1254.33)">Sto<tspan class="cls-8" x="33.81" y="0">r</tspan><tspan x="44.37" y="0">ytelling</tspan></text><text class="cls-7" transform="translate(97.05 1320.89)">The<tspan class="cls-8" x="39.93" y="0">a</tspan><tspan x="51.68" y="0">t</tspan><tspan class="cls-11" x="60.35" y="0">r</tspan><tspan x="71.13" y="0">e</tspan></text><polygon class="cls-31" points="81.89 330.04 64.39 329.29 53.84 343.28 49.15 326.4 32.59 320.69 47.19 311.02 47.5 293.5 61.22 304.4 77.97 299.28 71.84 315.69 81.89 330.04"/><polygon class="cls-32" points="65.03 408.84 48.3 403.66 34.54 414.51 34.29 396.99 19.72 387.26 36.31 381.62 41.06 364.75 51.56 378.78 69.06 378.09 58.96 392.41 65.03 408.84"/><polygon class="cls-33" points="64.27 556.41 55.58 541.19 38.12 539.73 49.9 526.76 45.91 509.7 61.88 516.9 76.86 507.83 74.95 525.25 88.21 536.7 71.06 540.26 64.27 556.41"/><text class="cls-7" transform="translate(97.05 311.19)"><tspan class="cls-11">D</tspan><tspan x="16.5" y="0">ance as </tspan><tspan x="0" y="21">political </tspan><tspan x="0" y="42">discou</tspan><tspan class="cls-20" x="65.34" y="42">r</tspan><tspan x="75.97" y="42">se</tspan></text><text class="cls-7" transform="translate(97.05 405.68)"><tspan class="cls-11">D</tspan><tspan x="16.5" y="0">ance the</tspan><tspan class="cls-8" x="101.64" y="0">a</tspan><tspan x="113.39" y="0">t</tspan><tspan class="cls-34" x="122.05" y="0">r</tspan><tspan x="132.83" y="0">e</tspan></text><text class="cls-7" transform="translate(97.05 469.53)">D<tspan class="cls-8" x="16.61" y="0">r</tspan><tspan class="cls-11" x="27.17" y="0">a</tspan><tspan x="39.14" y="0">g</tspan></text></svg>