<svg id="Layer_1" data-name="Layer 1" xmlns="http://www.w3.org/2000/svg" viewBox="0 0 2463.62 288.74"><defs><style>.cls-1{fill:#eae6d6;stroke:#ccc08f;stroke-miterlimit:10;opacity:0.87;}.cls-2{fill:#c9c097;}.cls-3{fill:#eddfa6;}.cls-4{fill:#af9ca1;}.cls-5{fill:#c2df97;}.cls-6{fill:#f67c87;}.cls-7{fill:#4c4c4c;}.cls-8{fill:#f7b289;}.cls-9{fill:#bdc1ae;}.cls-10{fill:#d08c87;}.cls-11{fill:#867888;}.cls-12{fill:#99ad77;}.cls-13{fill:#c0aaaf;}.cls-14{fill:#79a5ae;}.cls-15{fill:#55774d;}.cls-16{fill:#d1bb80;}.cls-17{fill:#c65c7f;}.cls-18{fill:#f3bef1;}.cls-19{fill:#a9aedb;}.cls-20{fill:#f3df8c;}.cls-21{fill:#a8dcc6;}.cls-22{fill:#373e7a;}</style></defs><path class="cls-1" d="M20,13s756.78.75,1171.07.75,1272.51,2.9,1272.51,2.9V269.9H1211.1C710.09,269.9,20,275.78,20,275.78Z"/><path class="cls-2" d="M29.37,16.59s-9,106.67-9,136S28,278.42,28,278.42H6.37s6-75.16,6-125.83-6-136-6-136Z"/><path class="cls-3" d="M6.37,15c0-7.33,5.07-13.33,11.5-13.33,7.53,0,11.5,4.88,11.5,11.55,0,9.11-6.85,12.45-12.18,12.45S6.37,20.17,6.37,15Z"/><path class="cls-3" d="M6.37,276.37C6.37,269,11.44,263,17.87,263c7.53,0,11.5,4.88,11.5,11.55,0,9.12-6.85,12.45-12.18,12.45S6.37,281.51,6.37,276.37Z"/><path class="cls-2" d="M10.82,18.66c2.46-.62,4.89-1,7.25-1.67a15.7,15.7,0,0,0,3.36-1.25c.27-.13.49-.31.73-.45a5.24,5.24,0,0,0,.65-.59,3,3,0,0,0,.81-1.26,1.6,1.6,0,0,0,0-1,3,3,0,0,0-.83-1.24,3.49,3.49,0,0,0-1.38-.79,7,7,0,0,0-1.64-.34,7.15,7.15,0,0,0-1.67.07,3.32,3.32,0,0,0-.78.21c-.23.07-.44.32-.43.23s-.06-.27,0-.12a1.6,1.6,0,0,0,.14.44,3.08,3.08,0,0,0,.59.83,6.59,6.59,0,0,0,1.64,1.2,3.34,3.34,0,0,1-1.91-.18,2.5,2.5,0,0,1-1-.71,3.33,3.33,0,0,1-.43-.71,2.51,2.51,0,0,1-.13-1.54,2.6,2.6,0,0,1,.49-1,3.22,3.22,0,0,1,.5-.53,5.05,5.05,0,0,1,1-.66,6.51,6.51,0,0,1,2-.65,6,6,0,0,1,2,0,4.56,4.56,0,0,1,1,.27,5.43,5.43,0,0,1,1.08.62,5.78,5.78,0,0,1,1.88,2.66,7.6,7.6,0,0,1,.42,2.3,7.82,7.82,0,0,1-.29,2.41,6.53,6.53,0,0,1-1.76,2.88,8.36,8.36,0,0,1-1,.78,7.37,7.37,0,0,1-1,.52,10.83,10.83,0,0,1-3.86.75A18,18,0,0,1,10.82,18.66Z"/><path class="cls-2" d="M10.82,270a17.87,17.87,0,0,1,7.42-1.46,10.62,10.62,0,0,1,3.86.75,7.37,7.37,0,0,1,1,.52,7.43,7.43,0,0,1,1,.78,6.55,6.55,0,0,1,1.76,2.87,7.88,7.88,0,0,1,.29,2.42,7.66,7.66,0,0,1-.42,2.3,5.89,5.89,0,0,1-1.88,2.66,4.92,4.92,0,0,1-1.08.61,4.6,4.6,0,0,1-1,.28,6.55,6.55,0,0,1-4-.66,5.56,5.56,0,0,1-1-.66,3.68,3.68,0,0,1-.5-.53,2.6,2.6,0,0,1-.49-1,2.5,2.5,0,0,1,.13-1.54,3.33,3.33,0,0,1,.43-.71,2.44,2.44,0,0,1,1-.72,3.33,3.33,0,0,1,1.91-.17,6.59,6.59,0,0,0-1.64,1.2,2.8,2.8,0,0,0-.59.83,1.6,1.6,0,0,0-.14.44c0,.15.05-.06,0-.13s.2.16.43.23a2.91,2.91,0,0,0,.78.22,6.65,6.65,0,0,0,1.67.06,6.54,6.54,0,0,0,1.64-.33,3.75,3.75,0,0,0,1.38-.79,3,3,0,0,0,.83-1.24,1.6,1.6,0,0,0,0-1,3,3,0,0,0-.81-1.27,6.09,6.09,0,0,0-.65-.58c-.24-.14-.46-.33-.73-.46a16.25,16.25,0,0,0-3.36-1.25C15.71,271.05,13.28,270.66,10.82,270Z"/><polygon class="cls-4" points="126.98 27.8 126.08 48.81 142.87 61.46 122.61 67.09 115.76 86.97 104.15 69.44 83.13 69.07 96.2 52.61 90.06 32.51 109.76 39.86 126.98 27.8"/><polygon class="cls-5" points="121.96 122.74 115.74 142.82 128.76 159.33 107.74 159.63 96.06 177.11 89.29 157.21 69.05 151.5 85.89 138.91 85.05 117.9 102.23 130.02 121.96 122.74"/><polygon class="cls-6" points="142.14 233.11 123.88 243.54 122.12 264.49 106.56 250.35 86.09 255.15 94.74 235.98 83.85 217.99 104.75 220.29 118.49 204.38 122.76 224.96 142.14 233.11"/><path class="cls-7" d="M167.12,38.34h8.37a12.71,12.71,0,0,1,5.84,1,3.7,3.7,0,0,1,1.94,3.54q0,3.84-4.62,4.59v.06c3.74.46,5.6,2.09,5.6,4.87A4.42,4.42,0,0,1,182,56.72a14.44,14.44,0,0,1-6.61,1.22h-8.23V57.4h1.82V38.87h-1.82Zm7.28.53v8.62h.72a2.23,2.23,0,0,0,2-.88,5,5,0,0,0,.58-2.7V42.59a5.94,5.94,0,0,0-.51-2.9,2.07,2.07,0,0,0-1.93-.82Zm0,9.15V57.4h1.31a2.28,2.28,0,0,0,2.16-1.06,6.39,6.39,0,0,0,.61-3.14V51.72a4.32,4.32,0,0,0-.75-2.77A3.31,3.31,0,0,0,175,48Z"/><path class="cls-7" d="M187.28,56.42a6.91,6.91,0,0,1-1.8-5.13,6.72,6.72,0,0,1,1.92-5.15,7.54,7.54,0,0,1,5.39-1.81A7.15,7.15,0,0,1,198,46a6.84,6.84,0,0,1,1.71,5.09q0,7.14-7.11,7.14A7.13,7.13,0,0,1,187.28,56.42Zm7-4V50a18.8,18.8,0,0,0-.29-4c-.2-.83-.65-1.25-1.36-1.25a1.41,1.41,0,0,0-1,.35,2.17,2.17,0,0,0-.55,1.17,21.06,21.06,0,0,0-.25,3.83v2.18A20.11,20.11,0,0,0,191,56a6.2,6.2,0,0,0,.38,1,1.19,1.19,0,0,0,1.2.67,1.43,1.43,0,0,0,1.43-1.26A19.18,19.18,0,0,0,194.3,52.42Z"/><path class="cls-7" d="M200.35,36.94h6.86V57.43h1.57v.51h-8.32v-.51H202v-20h-1.65Z"/><path class="cls-7" d="M209.2,36.94h6.86V57.43h1.57v.51h-8.32v-.51h1.54v-20H209.2Z"/><path class="cls-7" d="M217.6,45.11v-.5h8.12v.5h-1.51l3,9.3,3.25-9.3h-1.88v-.5h4v.5h-1.4L225.94,60.2a9,9,0,0,1-2.07,3.69,4.51,4.51,0,0,1-5.4.29,2.34,2.34,0,0,1-.95-1.93,2.41,2.41,0,0,1,.61-1.79,2.2,2.2,0,0,1,1.63-.62c1.55,0,2.32.64,2.32,1.93a3.86,3.86,0,0,1-.17,1h-1a1.49,1.49,0,0,0-.05,1.07.73.73,0,0,0,.75.42,2.58,2.58,0,0,0,2.05-1.14,12.45,12.45,0,0,0,1.7-3.46l.62-1.73h-2.46l-4.79-12.83Z"/><path class="cls-7" d="M242.21,45.11v-.5h7.23v.5h-1.15l2.52,9.44,2.49-9.44h-1.93v-.5h3.78v.5H254l-3.36,12.83h-3.83l-2.44-8.6-2.63,8.6H238l-4.15-12.83h-1.26v-.5H241v.5h-1.68l2.57,9.52,2-6.55-.7-3Z"/><path class="cls-7" d="M257,56.42a7,7,0,0,1-1.79-5.13,6.72,6.72,0,0,1,1.92-5.15,7.54,7.54,0,0,1,5.39-1.81A7.15,7.15,0,0,1,267.72,46a6.84,6.84,0,0,1,1.71,5.09q0,7.14-7.11,7.14A7.18,7.18,0,0,1,257,56.42Zm7-4V50a19.52,19.52,0,0,0-.29-4c-.2-.83-.65-1.25-1.36-1.25a1.41,1.41,0,0,0-1,.35,2.1,2.1,0,0,0-.55,1.17,21.06,21.06,0,0,0-.25,3.83v2.18a20.11,20.11,0,0,0,.18,3.67,6.2,6.2,0,0,0,.38,1,1.18,1.18,0,0,0,1.2.67,1.43,1.43,0,0,0,1.43-1.26A19.18,19.18,0,0,0,264.05,52.42Z"/><path class="cls-7" d="M272.23,56.42a6.91,6.91,0,0,1-1.79-5.13,6.75,6.75,0,0,1,1.91-5.15,7.54,7.54,0,0,1,5.39-1.81q3.48,0,5.18,1.66a6.84,6.84,0,0,1,1.71,5.09q0,7.14-7.11,7.14A7.15,7.15,0,0,1,272.23,56.42Zm7-4V50a18.64,18.64,0,0,0-.3-4c-.19-.83-.65-1.25-1.36-1.25a1.41,1.41,0,0,0-1,.35,2.24,2.24,0,0,0-.55,1.17,22,22,0,0,0-.25,3.83v2.18A20.11,20.11,0,0,0,276,56a7.29,7.29,0,0,0,.38,1,1.2,1.2,0,0,0,1.21.67A1.43,1.43,0,0,0,279,56.45,18.92,18.92,0,0,0,279.26,52.42Z"/><path class="cls-7" d="M294.94,57.94l-.31-2a3.78,3.78,0,0,1-3.87,2.24A4.42,4.42,0,0,1,287,56.48a8.42,8.42,0,0,1-1.33-5.18q0-7,5.54-7c1.64,0,2.73.46,3.25,1.37V37.44h-1.71v-.5h7V57.43h1.37v.51Zm-3.53-1.89a1.16,1.16,0,0,0,1.13,1,1.79,1.79,0,0,0,1.43-.73,3.3,3.3,0,0,0,.6-2.15V48a4.16,4.16,0,0,0-.47-2,1.53,1.53,0,0,0-1.4-.84q-.93,0-1.26,1.23a18.38,18.38,0,0,0-.34,4.32v1.45A15.46,15.46,0,0,0,291.41,56.05Z"/><path class="cls-7" d="M176.33,85.94,176,84a3.76,3.76,0,0,1-3.86,2.24,4.42,4.42,0,0,1-3.74-1.74,8.42,8.42,0,0,1-1.33-5.18q0-7,5.54-7c1.64,0,2.73.46,3.25,1.37V65.44h-1.71v-.5h7V85.43h1.37v.51Zm-3.53-1.89c.21.64.58,1,1.13,1a1.79,1.79,0,0,0,1.43-.73,3.3,3.3,0,0,0,.6-2.15V76a4.05,4.05,0,0,0-.47-2,1.53,1.53,0,0,0-1.4-.84q-.93,0-1.26,1.23a18.38,18.38,0,0,0-.34,4.32v1.45A15.46,15.46,0,0,0,172.8,84.05Z"/><path class="cls-7" d="M190,79.36h.81V77.2a13.81,13.81,0,0,0-.29-3.57,1.13,1.13,0,0,0-1.13-.91,1.6,1.6,0,0,0-.91.27.82.82,0,0,0-.41.72,2.83,2.83,0,0,0,.17.94h.7a4,4,0,0,1,.22,1.42,1.8,1.8,0,0,1-.7,1.42,2.55,2.55,0,0,1-1.76.61,2.1,2.1,0,0,1-2.41-2.33q0-3.43,5.85-3.44c2.22,0,3.76.38,4.61,1.13S196,75.6,196,77.62v5.69c0,1,.27,1.45.81,1.45s1-1,1.12-2.88l.42,0a5.61,5.61,0,0,1-.92,3.39,3.37,3.37,0,0,1-2.66.93c-2.24,0-3.53-.69-3.86-2.08a3,3,0,0,1-1.1,1.57,3.67,3.67,0,0,1-2.12.51q-4.15,0-4.15-3.39a2.74,2.74,0,0,1,1.58-2.73A12,12,0,0,1,190,79.36Zm-1,5.32a.57.57,0,0,0,.58.42c.29,0,.56-.24.82-.72a4.27,4.27,0,0,0,.37-2v-2.6h-.19c-1.16,0-1.74.84-1.74,2.54v.45A6.58,6.58,0,0,0,189,84.68Z"/><path class="cls-7" d="M198.7,72.61h6.75v2.58a4.69,4.69,0,0,1,1.37-2.08,4.27,4.27,0,0,1,2.8-.78Q214,72.33,214,77v8.43h1.57v.51H207.6v-.51h1.15v-9.1a6.49,6.49,0,0,0-.22-2.17.82.82,0,0,0-.81-.49c-.6,0-1.13.39-1.59,1.18a5.62,5.62,0,0,0-.68,2.85v7.73h1.2v.51h-8v-.51h1.54V73.11H198.7Z"/><path class="cls-7" d="M223.73,72.83A1.82,1.82,0,0,0,222,74.18a13.09,13.09,0,0,0-.53,4.45v1.45a9.37,9.37,0,0,0,.61,4,2.33,2.33,0,0,0,2.27,1.21A3.31,3.31,0,0,0,227,84.14a5.22,5.22,0,0,0,1.26-2.54l.51.05a5.64,5.64,0,0,1-2,3.47,6.54,6.54,0,0,1-4,1.1,6.74,6.74,0,0,1-5-1.75A7,7,0,0,1,216,79.34a6.69,6.69,0,0,1,2-5.19,7.82,7.82,0,0,1,5.5-1.82,6.42,6.42,0,0,1,3.81,1,2.94,2.94,0,0,1,1.31,2.43,3,3,0,0,1-.63,2.13,2.29,2.29,0,0,1-1.73.67,2.62,2.62,0,0,1-1.78-.59,2.18,2.18,0,0,1-.67-1.74,3.45,3.45,0,0,1,.14-1h.92a3.16,3.16,0,0,0,.2-1A1.19,1.19,0,0,0,223.73,72.83Z"/><path class="cls-7" d="M231.36,84.35a7.13,7.13,0,0,1-1.8-5.18,6.35,6.35,0,0,1,2-5.08,7.6,7.6,0,0,1,5.16-1.76q6.36,0,6.11,6.38H235v1.1a9.53,9.53,0,0,0,.7,4.14,2.51,2.51,0,0,0,2.44,1.4q3.24,0,4.25-3.47l.51.08a5.85,5.85,0,0,1-1.92,3.14,6.58,6.58,0,0,1-4.16,1.12A7.2,7.2,0,0,1,231.36,84.35Zm3.63-6.2h2.88V76.78a12.21,12.21,0,0,0-.26-3.09,1.06,1.06,0,0,0-1.07-.83,1.23,1.23,0,0,0-1.17.88,8.34,8.34,0,0,0-.38,3Z"/><path class="cls-7" d="M173.93,124.5q-4.35,0-4.34,8.37v2.22a14,14,0,0,0,1.14,6.23,3.65,3.65,0,0,0,3.39,2.25c2.06,0,3.94-2,5.66-6h.5l-.19,6.24h-.31a1.71,1.71,0,0,0-.31-.43.61.61,0,0,0-.41-.13,17.75,17.75,0,0,0-2,.44,14.86,14.86,0,0,1-3.58.43,9.67,9.67,0,0,1-7.07-2.46c-1.67-1.65-2.51-4.11-2.51-7.41s.88-5.84,2.62-7.63a9.4,9.4,0,0,1,7-2.69,13,13,0,0,1,3.35.44,13,13,0,0,0,1.92.43.64.64,0,0,0,.42-.12,2.12,2.12,0,0,0,.31-.44h.3l.23,6.08h-.5A17.15,17.15,0,0,0,177,126,4,4,0,0,0,173.93,124.5Z"/><path class="cls-7" d="M182.21,122.85h6.86v20.5h1.57v.5h-8.31v-.5h1.54v-20h-1.66Z"/><path class="cls-7" d="M197.89,137.27h.82v-2.16a13.67,13.67,0,0,0-.3-3.57,1.12,1.12,0,0,0-1.13-.9,1.59,1.59,0,0,0-.91.26.84.84,0,0,0-.41.73,2.88,2.88,0,0,0,.17.94h.7a3.94,3.94,0,0,1,.22,1.41,1.82,1.82,0,0,1-.7,1.43,2.59,2.59,0,0,1-1.76.6c-1.61,0-2.41-.77-2.41-2.32q0-3.45,5.85-3.45c2.23,0,3.76.38,4.61,1.14s1.27,2.14,1.27,4.15v5.69c0,1,.28,1.46.82,1.46s1-1,1.12-2.89l.42,0a5.72,5.72,0,0,1-.93,3.39,3.4,3.4,0,0,1-2.66.92c-2.24,0-3.53-.69-3.86-2.07a3,3,0,0,1-1.09,1.57,3.81,3.81,0,0,1-2.13.5c-2.76,0-4.15-1.13-4.15-3.39A2.75,2.75,0,0,1,193,138,12.07,12.07,0,0,1,197.89,137.27Zm-1,5.32a.58.58,0,0,0,.59.42c.29,0,.56-.24.81-.71a4.33,4.33,0,0,0,.38-2v-2.6h-.2q-1.74,0-1.74,2.55v.44A6.94,6.94,0,0,0,196.93,142.59Z"/><path class="cls-7" d="M207.19,144.13v-5h.34a6.6,6.6,0,0,0,2,3.41,4.74,4.74,0,0,0,3.08,1q2.85,0,2.85-1.83a1.25,1.25,0,0,0-.7-1.17,9.35,9.35,0,0,0-2.8-1,11.06,11.06,0,0,1-3.19-1.35,3.52,3.52,0,0,1-1.54-3.19,4.66,4.66,0,0,1,1.34-3.49,5,5,0,0,1,3.59-1.3,7,7,0,0,1,2.83.65,2.24,2.24,0,0,0,.81.22.61.61,0,0,0,.47-.2,3.35,3.35,0,0,0,.48-.72H217v4.28h-.34q-1.43-3.65-4.42-3.64a3.36,3.36,0,0,0-2,.46,1.4,1.4,0,0,0-.65,1.16,1,1,0,0,0,.2.66,3.2,3.2,0,0,0,.31.35,1.11,1.11,0,0,0,.36.24l.42.2.52.18.52.14a22.46,22.46,0,0,1,2.74.82,9.86,9.86,0,0,1,1.6.86,3.86,3.86,0,0,1,1.54,3.43,4.49,4.49,0,0,1-1.4,3.58,5.62,5.62,0,0,1-3.84,1.22,7.46,7.46,0,0,1-3.36-.81,1,1,0,0,0-.53-.22c-.41,0-.81.34-1.2,1Z"/><path class="cls-7" d="M219.34,144.13v-5h.34a6.67,6.67,0,0,0,2,3.41,4.76,4.76,0,0,0,3.08,1q2.85,0,2.85-1.83a1.25,1.25,0,0,0-.7-1.17,9.25,9.25,0,0,0-2.8-1,11.06,11.06,0,0,1-3.19-1.35,3.54,3.54,0,0,1-1.54-3.19,4.62,4.62,0,0,1,1.35-3.49,5,5,0,0,1,3.58-1.3,7,7,0,0,1,2.83.65,2.24,2.24,0,0,0,.81.22.62.62,0,0,0,.48-.2,3.05,3.05,0,0,0,.47-.72h.31v4.28h-.34q-1.43-3.65-4.42-3.64a3.36,3.36,0,0,0-2,.46,1.39,1.39,0,0,0-.64,1.16,1,1,0,0,0,.19.66c.13.16.24.28.31.35a1.24,1.24,0,0,0,.36.24l.42.2.52.18.52.14a22.46,22.46,0,0,1,2.74.82,9.46,9.46,0,0,1,1.6.86,3.86,3.86,0,0,1,1.54,3.43,4.49,4.49,0,0,1-1.4,3.58,5.6,5.6,0,0,1-3.84,1.22,7.49,7.49,0,0,1-3.36-.81,1,1,0,0,0-.53-.22c-.41,0-.81.34-1.2,1Z"/><path class="cls-7" d="M230.74,130.52h6.86v12.83h1.57v.5h-8.32v-.5h1.54V131h-1.65Zm4.23-1.93a2.61,2.61,0,0,1-2.12-.76,2.8,2.8,0,0,1-.63-1.87,2.59,2.59,0,0,1,.69-1.85,2.75,2.75,0,0,1,2.08-.73,3.05,3.05,0,0,1,2.13.66,2.38,2.38,0,0,1,.73,1.88,2.66,2.66,0,0,1-.7,1.94A2.88,2.88,0,0,1,235,128.59Z"/><path class="cls-7" d="M247.57,130.75a1.82,1.82,0,0,0-1.77,1.34,13.39,13.39,0,0,0-.53,4.45V138a9.37,9.37,0,0,0,.62,4,2.3,2.3,0,0,0,2.26,1.2,3.34,3.34,0,0,0,2.64-1.12,5.48,5.48,0,0,0,1.26-2.55l.5.06a5.7,5.7,0,0,1-2,3.47,6.53,6.53,0,0,1-4,1.09,6.71,6.71,0,0,1-5-1.75,7,7,0,0,1-1.73-5.12,6.72,6.72,0,0,1,2-5.2,7.83,7.83,0,0,1,5.5-1.82,6.34,6.34,0,0,1,3.81,1,2.89,2.89,0,0,1,1.32,2.42,3,3,0,0,1-.63,2.13,2.26,2.26,0,0,1-1.74.67,2.62,2.62,0,0,1-1.78-.59,2.17,2.17,0,0,1-.67-1.73,3.9,3.9,0,0,1,.14-1h.92a3.11,3.11,0,0,0,.2-1A1.18,1.18,0,0,0,247.57,130.75Z"/><path class="cls-7" d="M260,137.27h.81v-2.16a14.29,14.29,0,0,0-.29-3.57,1.14,1.14,0,0,0-1.14-.9,1.61,1.61,0,0,0-.91.26.83.83,0,0,0-.4.73,2.86,2.86,0,0,0,.16.94h.7a3.93,3.93,0,0,1,.23,1.41,1.82,1.82,0,0,1-.7,1.43,2.64,2.64,0,0,1-1.77.6,2.09,2.09,0,0,1-2.4-2.32q0-3.45,5.85-3.45c2.22,0,3.76.38,4.61,1.14s1.27,2.14,1.27,4.15v5.69c0,1,.27,1.46.81,1.46s1-1,1.12-2.89l.42,0a5.66,5.66,0,0,1-.92,3.39,3.4,3.4,0,0,1-2.66.92q-3.36,0-3.87-2.07a3,3,0,0,1-1.09,1.57,3.79,3.79,0,0,1-2.13.5q-4.14,0-4.14-3.39a2.76,2.76,0,0,1,1.58-2.73A12.13,12.13,0,0,1,260,137.27Zm-1,5.32a.59.59,0,0,0,.59.42c.29,0,.56-.24.81-.71a4.33,4.33,0,0,0,.38-2v-2.6h-.19q-1.74,0-1.74,2.55v.44A7.09,7.09,0,0,0,259,142.59Z"/><path class="cls-7" d="M268.51,122.85h6.86v20.5h1.57v.5h-8.32v-.5h1.54v-20h-1.65Z"/><path class="cls-7" d="M172.53,171.85l-.31-2a3.77,3.77,0,0,1-3.86,2.24,4.42,4.42,0,0,1-3.74-1.74,8.4,8.4,0,0,1-1.33-5.18q0-7,5.54-7c1.64,0,2.73.46,3.25,1.37v-8.26h-1.71v-.5h7v20.5h1.37v.5ZM169,170a1.17,1.17,0,0,0,1.13,1,1.82,1.82,0,0,0,1.43-.73,3.35,3.35,0,0,0,.6-2.16v-6.1a4.2,4.2,0,0,0-.47-2.05,1.52,1.52,0,0,0-1.4-.83q-.93,0-1.26,1.23a18.34,18.34,0,0,0-.34,4.31v1.46A15.31,15.31,0,0,0,169,170Z"/><path class="cls-7" d="M186.19,165.27H187v-2.16a14.29,14.29,0,0,0-.29-3.57,1.14,1.14,0,0,0-1.14-.9,1.63,1.63,0,0,0-.91.26.83.83,0,0,0-.4.73,2.64,2.64,0,0,0,.17.94h.7a3.94,3.94,0,0,1,.22,1.41,1.82,1.82,0,0,1-.7,1.43,2.61,2.61,0,0,1-1.76.6c-1.61,0-2.41-.77-2.41-2.32q0-3.45,5.85-3.45c2.22,0,3.76.38,4.61,1.14s1.27,2.14,1.27,4.15v5.69c0,1,.27,1.46.81,1.46s1-1,1.12-2.89l.42,0a5.66,5.66,0,0,1-.92,3.39,3.4,3.4,0,0,1-2.66.92q-3.36,0-3.87-2.07a3,3,0,0,1-1.09,1.57,3.75,3.75,0,0,1-2.12.5q-4.16,0-4.15-3.39a2.76,2.76,0,0,1,1.58-2.73A12.16,12.16,0,0,1,186.19,165.27Zm-1,5.32a.57.57,0,0,0,.58.42c.29,0,.56-.24.81-.71a4.2,4.2,0,0,0,.38-2v-2.6h-.19q-1.74,0-1.74,2.55v.44A6.53,6.53,0,0,0,185.23,170.59Z"/><path class="cls-7" d="M194.9,158.52h6.75v2.58A4.52,4.52,0,0,1,203,159a4.2,4.2,0,0,1,2.8-.79q4.34,0,4.34,4.68v8.43h1.57v.5H203.8v-.5H205v-9.1a6.45,6.45,0,0,0-.22-2.17.82.82,0,0,0-.82-.49,1.93,1.93,0,0,0-1.58,1.17,5.68,5.68,0,0,0-.68,2.86v7.73h1.2v.5H194.9v-.5h1.54V159H194.9Z"/><path class="cls-7" d="M219.93,158.75a1.81,1.81,0,0,0-1.76,1.34,13.13,13.13,0,0,0-.53,4.45V166a9.4,9.4,0,0,0,.61,4,2.32,2.32,0,0,0,2.27,1.2,3.3,3.3,0,0,0,2.63-1.12,5.48,5.48,0,0,0,1.26-2.55l.5.06a5.61,5.61,0,0,1-2,3.47,6.51,6.51,0,0,1-4,1.09,6.69,6.69,0,0,1-5-1.75,7,7,0,0,1-1.74-5.12,6.75,6.75,0,0,1,2-5.2,7.86,7.86,0,0,1,5.51-1.82,6.34,6.34,0,0,1,3.81,1,2.91,2.91,0,0,1,1.31,2.42,3,3,0,0,1-.63,2.13,2.26,2.26,0,0,1-1.74.67,2.61,2.61,0,0,1-1.77-.59,2.17,2.17,0,0,1-.67-1.73,3.89,3.89,0,0,1,.13-1h.93a3.07,3.07,0,0,0,.19-1A1.18,1.18,0,0,0,219.93,158.75Z"/><path class="cls-7" d="M227.56,170.27a7.15,7.15,0,0,1-1.81-5.18,6.37,6.37,0,0,1,2-5.08,7.6,7.6,0,0,1,5.17-1.77q6.36,0,6.1,6.39h-7.89v1.09a9.5,9.5,0,0,0,.7,4.14,2.48,2.48,0,0,0,2.43,1.4c2.17,0,3.59-1.15,4.26-3.47l.5.08a5.78,5.78,0,0,1-1.91,3.14,6.51,6.51,0,0,1-4.16,1.12A7.22,7.22,0,0,1,227.56,170.27Zm3.63-6.2h2.88v-1.38a11.62,11.62,0,0,0-.27-3.09,1,1,0,0,0-1.06-.83,1.26,1.26,0,0,0-1.18.89,8.56,8.56,0,0,0-.37,3Z"/><path class="cls-7" d="M173.93,214.67q-4.35,0-4.34,8.37v2.21a14,14,0,0,0,1.14,6.23,3.66,3.66,0,0,0,3.39,2.26q3.07,0,5.66-6h.5l-.19,6.25h-.31a1.8,1.8,0,0,0-.31-.44.61.61,0,0,0-.41-.12,16.54,16.54,0,0,0-2,.43,14.87,14.87,0,0,1-3.58.44q-4.56,0-7.07-2.47t-2.51-7.4c0-3.3.88-5.84,2.62-7.63a9.35,9.35,0,0,1,7-2.69,13,13,0,0,1,3.35.43,13.82,13.82,0,0,0,1.92.44.66.66,0,0,0,.42-.13,1.72,1.72,0,0,0,.3-.43h.31l.23,6.07h-.51a17,17,0,0,0-2.59-4.32A4,4,0,0,0,173.93,214.67Z"/><path class="cls-7" d="M184.06,232.5a7,7,0,0,1-1.79-5.13,6.76,6.76,0,0,1,1.92-5.16,7.57,7.57,0,0,1,5.39-1.8,7.17,7.17,0,0,1,5.18,1.66,6.84,6.84,0,0,1,1.71,5.09q0,7.14-7.12,7.14A7.17,7.17,0,0,1,184.06,232.5Zm7-4v-2.38a19.52,19.52,0,0,0-.29-4c-.2-.83-.65-1.25-1.36-1.25a1.45,1.45,0,0,0-1,.35,2.17,2.17,0,0,0-.54,1.16,21.19,21.19,0,0,0-.25,3.84v2.18a20.11,20.11,0,0,0,.18,3.67,5.39,5.39,0,0,0,.38,1,1.18,1.18,0,0,0,1.2.67c.73,0,1.2-.42,1.43-1.26A19.18,19.18,0,0,0,191.09,228.5Z"/><path class="cls-7" d="M197.31,220.69h6.74v2.57a4.67,4.67,0,0,1,1.38-2.07,4.25,4.25,0,0,1,2.8-.78q4.34,0,4.34,4.67v8.43h1.56V234h-7.92v-.51h1.15v-9.1a6.4,6.4,0,0,0-.23-2.17.82.82,0,0,0-.81-.49c-.6,0-1.12.39-1.58,1.18a5.52,5.52,0,0,0-.69,2.85v7.73h1.21V234h-7.95v-.51h1.54V221.19h-1.54Z"/><path class="cls-7" d="M215.76,230v-8.82h-1.54v-.5h1.54v-3.61l5.21-1.29v4.9h3.64v.5H221v9.44a5.14,5.14,0,0,0,.26,1.93,1.09,1.09,0,0,0,1.11.62,1.82,1.82,0,0,0,1.47-.84,4.88,4.88,0,0,0,.82-2.3l.48.06a5.43,5.43,0,0,1-1.23,3.06,4.24,4.24,0,0,1-3.33,1.14,5.83,5.83,0,0,1-3.56-.93Q215.76,232.46,215.76,230Z"/><path class="cls-7" d="M227.34,232.43a7.09,7.09,0,0,1-1.81-5.18,6.38,6.38,0,0,1,2-5.08,7.62,7.62,0,0,1,5.17-1.76q6.35,0,6.1,6.38h-7.9v1.09a9.73,9.73,0,0,0,.7,4.15,2.51,2.51,0,0,0,2.44,1.4q3.24,0,4.26-3.47l.5.08a5.77,5.77,0,0,1-1.92,3.14,6.56,6.56,0,0,1-4.16,1.12A7.18,7.18,0,0,1,227.34,232.43Zm3.62-6.2h2.89v-1.37a11.62,11.62,0,0,0-.27-3.09,1.05,1.05,0,0,0-1.06-.83,1.24,1.24,0,0,0-1.18.88,8.57,8.57,0,0,0-.38,3Z"/><path class="cls-7" d="M239.84,220.69h6.75v2.57a3.86,3.86,0,0,1,4.07-2.85,3.53,3.53,0,0,1,3.82,3,4,4,0,0,1,4.12-3q4.11,0,4.11,4.67v8.43h1.57V234h-7.76v-.51h1v-9.1a4.65,4.65,0,0,0-.37-2.49.61.61,0,0,0-.45-.17c-.54,0-1,.37-1.42,1.09a5.63,5.63,0,0,0-.62,2.78v7.89h1V234h-7.2v-.51h1v-9.1a4.69,4.69,0,0,0-.36-2.49.61.61,0,0,0-.45-.17c-.52,0-1,.4-1.41,1.19a6,6,0,0,0-.63,2.84v7.73h1V234h-7.75v-.51h1.54V221.19h-1.54Z"/><path class="cls-7" d="M271.39,220.69v2.21a3.9,3.9,0,0,1,3.87-2.49,4.47,4.47,0,0,1,3.74,1.73,8.69,8.69,0,0,1,1.32,5.27q0,3.53-1.44,5.21a5.38,5.38,0,0,1-4.32,1.68,4.75,4.75,0,0,1-2-.34,2.59,2.59,0,0,1-1.09-1v7.26h3.61v.5H264.7v-.5h1.54v-19h-1.48v-.5Zm3.25,1.92c-.19-.67-.55-1-1.09-1a1.8,1.8,0,0,0-1.46,1,5.35,5.35,0,0,0-.64,2.82v5.12a4.05,4.05,0,0,0,.48,2,1.5,1.5,0,0,0,1.39.84c.62,0,1-.41,1.27-1.23a19.07,19.07,0,0,0,.33-4.31v-1.46A16.92,16.92,0,0,0,274.64,222.61Z"/><path class="cls-7" d="M283.18,232.5a7,7,0,0,1-1.79-5.13,6.76,6.76,0,0,1,1.92-5.16,7.57,7.57,0,0,1,5.39-1.8,7.17,7.17,0,0,1,5.18,1.66,6.84,6.84,0,0,1,1.71,5.09q0,7.14-7.12,7.14A7.17,7.17,0,0,1,283.18,232.5Zm7-4v-2.38a18.64,18.64,0,0,0-.3-4c-.19-.83-.64-1.25-1.35-1.25a1.43,1.43,0,0,0-1,.35,2.17,2.17,0,0,0-.54,1.16,21.19,21.19,0,0,0-.25,3.84v2.18a20.11,20.11,0,0,0,.18,3.67,6.28,6.28,0,0,0,.37,1,1.2,1.2,0,0,0,1.21.67c.73,0,1.2-.42,1.43-1.26A19.18,19.18,0,0,0,290.21,228.5Z"/><path class="cls-7" d="M305.72,221.47a2.2,2.2,0,0,0-1.82,1.35,6.23,6.23,0,0,0-.78,3.19v7.5h2V234h-8.74v-.51h1.54V221.19h-1.54v-.5h6.75v2.69a3.76,3.76,0,0,1,1.4-2.2,3.85,3.85,0,0,1,2.35-.77,3.09,3.09,0,0,1,2.14.74,2.67,2.67,0,0,1,.83,2.1,3.16,3.16,0,0,1-.62,2.09,2.35,2.35,0,0,1-1.89.72,2.14,2.14,0,0,1-1.87-.84,2.55,2.55,0,0,1-.16-2.32h1C306.78,222,306.58,221.47,305.72,221.47Z"/><path class="cls-7" d="M316.53,227.44h.81v-2.16a14.29,14.29,0,0,0-.29-3.57,1.14,1.14,0,0,0-1.14-.91,1.62,1.62,0,0,0-.91.27.81.81,0,0,0-.4.72,2.6,2.6,0,0,0,.17.94h.7a4.24,4.24,0,0,1,.22,1.42,1.8,1.8,0,0,1-.7,1.42,2.58,2.58,0,0,1-1.76.61,2.1,2.1,0,0,1-2.41-2.33q0-3.43,5.85-3.44c2.22,0,3.76.38,4.6,1.13s1.28,2.14,1.28,4.16v5.68c0,1,.27,1.46.81,1.46s1-1,1.12-2.88l.42,0a5.61,5.61,0,0,1-.92,3.39,3.37,3.37,0,0,1-2.66.93c-2.24,0-3.53-.69-3.87-2.08a3,3,0,0,1-1.09,1.57,3.68,3.68,0,0,1-2.13.51q-4.14,0-4.14-3.39a2.74,2.74,0,0,1,1.58-2.73A12,12,0,0,1,316.53,227.44Zm-1,5.32a.59.59,0,0,0,.59.42q.44,0,.81-.72a4.13,4.13,0,0,0,.38-2v-2.61h-.19q-1.74,0-1.74,2.55v.45A7.14,7.14,0,0,0,315.56,232.76Z"/><path class="cls-7" d="M334.53,221.47c-.69,0-1.29.45-1.82,1.35a6.23,6.23,0,0,0-.78,3.19v7.5h2V234h-8.74v-.51h1.54V221.19h-1.54v-.5h6.75v2.69a3.76,3.76,0,0,1,1.4-2.2,3.85,3.85,0,0,1,2.35-.77,3.09,3.09,0,0,1,2.14.74,2.67,2.67,0,0,1,.83,2.1,3.16,3.16,0,0,1-.62,2.09,2.35,2.35,0,0,1-1.89.72,2.14,2.14,0,0,1-1.87-.84,2.58,2.58,0,0,1-.16-2.32h1C335.59,222,335.39,221.47,334.53,221.47Z"/><path class="cls-7" d="M338.48,221.19v-.5h8.12v.5h-1.51l3.05,9.3,3.25-9.3h-1.88v-.5h3.95v.5h-1.4l-5.24,15.09a9,9,0,0,1-2.07,3.69A4,4,0,0,1,342,241a4.08,4.08,0,0,1-2.6-.76,2.34,2.34,0,0,1-1-1.93,2.41,2.41,0,0,1,.61-1.79,2.22,2.22,0,0,1,1.63-.62c1.55,0,2.32.64,2.32,1.93a3.86,3.86,0,0,1-.17,1h-1a1.51,1.51,0,0,0-.05,1.06.71.71,0,0,0,.75.42,2.57,2.57,0,0,0,2.05-1.13,12.71,12.71,0,0,0,1.71-3.46l.61-1.73h-2.46l-4.79-12.83Z"/><path class="cls-7" d="M172.52,262l-.3-2a3.79,3.79,0,0,1-3.87,2.24,4.42,4.42,0,0,1-3.73-1.74,8.42,8.42,0,0,1-1.33-5.18q0-7,5.54-7c1.64,0,2.72.46,3.25,1.37v-8.26h-1.71V241h7v20.49h1.37V262ZM169,260.13a1.16,1.16,0,0,0,1.13,1,1.79,1.79,0,0,0,1.43-.73,3.3,3.3,0,0,0,.6-2.15V252.1a4.16,4.16,0,0,0-.47-2,1.53,1.53,0,0,0-1.4-.84c-.62,0-1,.41-1.27,1.23a19.07,19.07,0,0,0-.33,4.31v1.46A15.46,15.46,0,0,0,169,260.13Z"/><path class="cls-7" d="M186.19,255.44H187v-2.16a14.29,14.29,0,0,0-.29-3.57,1.14,1.14,0,0,0-1.14-.91,1.62,1.62,0,0,0-.91.27.81.81,0,0,0-.4.72,2.6,2.6,0,0,0,.17.94h.7a4.24,4.24,0,0,1,.22,1.42,1.8,1.8,0,0,1-.7,1.42,2.58,2.58,0,0,1-1.76.61,2.1,2.1,0,0,1-2.41-2.33q0-3.43,5.85-3.44c2.22,0,3.76.38,4.61,1.13s1.27,2.14,1.27,4.16v5.68c0,1,.27,1.46.81,1.46s1-1,1.12-2.88l.42,0a5.61,5.61,0,0,1-.92,3.39,3.37,3.37,0,0,1-2.66.93c-2.24,0-3.53-.69-3.87-2.08a3,3,0,0,1-1.09,1.57,3.68,3.68,0,0,1-2.13.51q-4.14,0-4.14-3.39a2.74,2.74,0,0,1,1.58-2.73A12,12,0,0,1,186.19,255.44Zm-1,5.32a.59.59,0,0,0,.59.42q.44,0,.81-.72a4.13,4.13,0,0,0,.38-2v-2.61h-.19q-1.74,0-1.74,2.55v.45A7.14,7.14,0,0,0,185.22,260.76Z"/><path class="cls-7" d="M194.9,248.69h6.75v2.57a4.57,4.57,0,0,1,1.37-2.07,4.25,4.25,0,0,1,2.8-.78q4.34,0,4.34,4.67v8.43h1.57V262H203.8v-.51H205v-9.1a6.78,6.78,0,0,0-.22-2.17.83.83,0,0,0-.82-.49c-.59,0-1.12.39-1.58,1.18a5.52,5.52,0,0,0-.68,2.85v7.73h1.2V262H194.9v-.51h1.54V249.19H194.9Z"/><path class="cls-7" d="M219.93,248.91a1.82,1.82,0,0,0-1.76,1.35,13,13,0,0,0-.54,4.45v1.45a9.34,9.34,0,0,0,.62,4,2.32,2.32,0,0,0,2.27,1.2,3.3,3.3,0,0,0,2.63-1.12,5.4,5.4,0,0,0,1.26-2.54l.5.05a5.55,5.55,0,0,1-2,3.47,6.51,6.51,0,0,1-4,1.1,6.71,6.71,0,0,1-5-1.75,7,7,0,0,1-1.74-5.13,6.72,6.72,0,0,1,2-5.19,7.84,7.84,0,0,1,5.51-1.82,6.36,6.36,0,0,1,3.8,1,2.92,2.92,0,0,1,1.32,2.43,3,3,0,0,1-.63,2.12,2.27,2.27,0,0,1-1.74.68,2.59,2.59,0,0,1-1.77-.59,2.18,2.18,0,0,1-.68-1.74,4,4,0,0,1,.14-1h.93a3.07,3.07,0,0,0,.19-1A1.19,1.19,0,0,0,219.93,248.91Z"/><path class="cls-7" d="M227.56,260.43a7.13,7.13,0,0,1-1.81-5.18,6.38,6.38,0,0,1,2-5.08,7.64,7.64,0,0,1,5.17-1.76q6.36,0,6.1,6.38h-7.89v1.09a9.58,9.58,0,0,0,.7,4.15,2.49,2.49,0,0,0,2.43,1.4q3.26,0,4.26-3.47l.5.08a5.77,5.77,0,0,1-1.92,3.14A6.54,6.54,0,0,1,233,262.3,7.19,7.19,0,0,1,227.56,260.43Zm3.63-6.2h2.88v-1.37a11.62,11.62,0,0,0-.27-3.09,1,1,0,0,0-1.06-.83,1.24,1.24,0,0,0-1.18.88,8.63,8.63,0,0,0-.37,3Z"/><polygon class="cls-8" points="1350.93 27.8 1350.02 48.81 1366.81 61.46 1346.55 67.09 1339.71 86.97 1328.09 69.44 1307.07 69.07 1320.15 52.61 1314.01 32.51 1333.7 39.86 1350.93 27.8"/><polygon class="cls-9" points="1351.53 119.61 1345.32 139.69 1358.34 156.2 1337.31 156.49 1325.64 173.98 1318.86 154.07 1298.62 148.37 1315.46 135.78 1314.63 114.77 1331.81 126.89 1351.53 119.61"/><polygon class="cls-10" points="1366.09 221.91 1347.83 232.34 1346.07 253.29 1330.51 239.15 1310.04 243.94 1318.68 224.78 1307.8 206.79 1328.69 209.09 1342.43 193.18 1346.71 213.76 1366.09 221.91"/><path class="cls-7" d="M1379.31,38.34h14.56l.28,5.82h-.5a9,9,0,0,0-2.4-4.12,6.38,6.38,0,0,0-4-1.09h-.79v9.1h1.26a2.87,2.87,0,0,0,2.24-1,5.48,5.48,0,0,0,1.24-2.68h.42v8.28h-.48a6.51,6.51,0,0,0-1.25-3,2.74,2.74,0,0,0-2.17-.9h-1.26v8.54h3.48v.62h-10.59v-.62H1381V39h-1.65Z"/><path class="cls-7" d="M1396.2,56.42a6.91,6.91,0,0,1-1.8-5.13,6.72,6.72,0,0,1,1.92-5.15,7.54,7.54,0,0,1,5.39-1.81,7.15,7.15,0,0,1,5.18,1.66,6.84,6.84,0,0,1,1.71,5.09q0,7.14-7.11,7.14A7.13,7.13,0,0,1,1396.2,56.42Zm7-4V50a18.8,18.8,0,0,0-.29-4c-.2-.83-.65-1.25-1.36-1.25a1.41,1.41,0,0,0-1,.35,2.17,2.17,0,0,0-.55,1.17,21.06,21.06,0,0,0-.25,3.83v2.18A20.11,20.11,0,0,0,1400,56a6.2,6.2,0,0,0,.38,1,1.19,1.19,0,0,0,1.2.67,1.43,1.43,0,0,0,1.43-1.26A19.18,19.18,0,0,0,1403.22,52.42Z"/><path class="cls-7" d="M1409.27,36.94h6.86V57.43h1.57v.51h-8.32v-.51h1.54v-20h-1.65Z"/><path class="cls-7" d="M1427.39,57.94v-.51h1.29l-3.17-6.49-.53.14v6.35h1.29v.51h-8v-.51h1.54v-20h-1.65v-.5H1425V50.52l.45-.17,6.3-5.24h-2.63v-.5h5.51v.5h-2l-3.33,2.83,4.84,9.49h1v.51Z"/><path class="cls-7" d="M1450.15,57.94l-.31-2a3.76,3.76,0,0,1-3.86,2.24,4.44,4.44,0,0,1-3.74-1.74,8.48,8.48,0,0,1-1.33-5.18q0-7,5.55-7c1.64,0,2.72.46,3.24,1.37V37.44H1448v-.5h7V57.43h1.37v.51Zm-3.53-1.89a1.17,1.17,0,0,0,1.14,1,1.81,1.81,0,0,0,1.43-.73,3.3,3.3,0,0,0,.6-2.15V48a4.05,4.05,0,0,0-.48-2,1.52,1.52,0,0,0-1.4-.84q-.92,0-1.26,1.23a19.11,19.11,0,0,0-.33,4.32v1.45A16.13,16.13,0,0,0,1446.62,56.05Z"/><path class="cls-7" d="M1463.82,51.36h.81V49.2a13.67,13.67,0,0,0-.3-3.57,1.12,1.12,0,0,0-1.13-.91,1.6,1.6,0,0,0-.91.27.82.82,0,0,0-.41.72,2.83,2.83,0,0,0,.17.94h.7a4,4,0,0,1,.23,1.42,1.83,1.83,0,0,1-.7,1.42,2.59,2.59,0,0,1-1.77.61,2.1,2.1,0,0,1-2.41-2.33q0-3.44,5.86-3.44c2.22,0,3.75.38,4.6,1.13s1.28,2.14,1.28,4.16v5.69c0,1,.27,1.45.81,1.45s1-1,1.12-2.88l.42,0a5.67,5.67,0,0,1-.93,3.39,3.35,3.35,0,0,1-2.66.93c-2.24,0-3.52-.69-3.86-2.08a3,3,0,0,1-1.09,1.57,3.72,3.72,0,0,1-2.13.51q-4.14,0-4.14-3.39A2.72,2.72,0,0,1,1459,52.1,11.92,11.92,0,0,1,1463.82,51.36Zm-1,5.32a.58.58,0,0,0,.59.42q.43,0,.81-.72a4.25,4.25,0,0,0,.38-2v-2.6h-.2c-1.16,0-1.73.84-1.73,2.54v.45A7.14,7.14,0,0,0,1462.85,56.68Z"/><path class="cls-7" d="M1472.52,44.61h6.75v2.58a4.77,4.77,0,0,1,1.37-2.08,4.27,4.27,0,0,1,2.8-.78c2.9,0,4.34,1.56,4.34,4.67v8.43h1.57v.51h-7.92v-.51h1.15v-9.1a6.4,6.4,0,0,0-.23-2.17.82.82,0,0,0-.81-.49,1.9,1.9,0,0,0-1.58,1.18,5.52,5.52,0,0,0-.69,2.85v7.73h1.21v.51h-8v-.51h1.54V45.11h-1.54Z"/><path class="cls-7" d="M1497.56,44.83a1.83,1.83,0,0,0-1.77,1.35,13.35,13.35,0,0,0-.53,4.45v1.45a9.19,9.19,0,0,0,.62,4,2.31,2.31,0,0,0,2.26,1.21,3.35,3.35,0,0,0,2.64-1.13A5.4,5.4,0,0,0,1502,53.6l.5,0a5.64,5.64,0,0,1-2,3.47,6.53,6.53,0,0,1-4,1.1,6.75,6.75,0,0,1-5-1.75,7,7,0,0,1-1.73-5.13,6.68,6.68,0,0,1,2-5.19,7.83,7.83,0,0,1,5.5-1.82,6.42,6.42,0,0,1,3.81,1,2.92,2.92,0,0,1,1.32,2.43,3,3,0,0,1-.63,2.13,2.3,2.3,0,0,1-1.74.67,2.62,2.62,0,0,1-1.78-.59,2.18,2.18,0,0,1-.67-1.74,3.83,3.83,0,0,1,.14-1h.92a3.16,3.16,0,0,0,.2-1A1.19,1.19,0,0,0,1497.56,44.83Z"/><path class="cls-7" d="M1505.19,56.35a7.09,7.09,0,0,1-1.81-5.18,6.38,6.38,0,0,1,2-5.08,7.61,7.61,0,0,1,5.17-1.76q6.35,0,6.1,6.38h-7.9v1.1a9.68,9.68,0,0,0,.7,4.14,2.51,2.51,0,0,0,2.44,1.4q3.24,0,4.25-3.47l.51.08a5.79,5.79,0,0,1-1.92,3.14,6.56,6.56,0,0,1-4.16,1.12A7.16,7.16,0,0,1,1505.19,56.35Zm3.62-6.2h2.88V48.78a11.75,11.75,0,0,0-.26-3.09,1.06,1.06,0,0,0-1.07-.83,1.23,1.23,0,0,0-1.17.88,8.57,8.57,0,0,0-.38,3Z"/><path class="cls-7" d="M1379.42,124.25H1388v.53h-1.54v18.54H1388v.53h-8.54v-.53H1381V124.78h-1.54Z"/><path class="cls-7" d="M1388.94,130.52h6.75v2.58a3.89,3.89,0,0,1,4.08-2.86,3.53,3.53,0,0,1,3.82,3,4,4,0,0,1,4.11-3q4.13,0,4.12,4.68v8.43h1.57v.5h-7.76v-.5h1v-9.1a4.77,4.77,0,0,0-.36-2.5.61.61,0,0,0-.45-.16c-.54,0-1,.36-1.43,1.09a5.6,5.6,0,0,0-.61,2.77v7.9h1v.5h-7.19v-.5h1v-9.1a4.62,4.62,0,0,0-.37-2.5.6.6,0,0,0-.44-.16c-.53,0-1,.39-1.42,1.19a6,6,0,0,0-.63,2.84v7.73h1v.5h-7.76v-.5h1.54V131h-1.54Z"/><path class="cls-7" d="M1413.81,130.52h6.75v2.58a3.87,3.87,0,0,1,4.07-2.86,3.53,3.53,0,0,1,3.82,3,4,4,0,0,1,4.12-3q4.11,0,4.11,4.68v8.43h1.57v.5h-7.75v-.5h1v-9.1a4.73,4.73,0,0,0-.37-2.5.61.61,0,0,0-.45-.16c-.54,0-1,.36-1.42,1.09a5.49,5.49,0,0,0-.62,2.77v7.9h1v.5h-7.2v-.5h1v-9.1a4.77,4.77,0,0,0-.36-2.5.61.61,0,0,0-.45-.16c-.52,0-1,.39-1.41,1.19a6,6,0,0,0-.63,2.84v7.73h1v.5h-7.75v-.5h1.54V131h-1.54Z"/><path class="cls-7" d="M1440.62,142.27a7.11,7.11,0,0,1-1.81-5.18,6.37,6.37,0,0,1,2-5.08,7.58,7.58,0,0,1,5.17-1.77q6.35,0,6.1,6.39h-7.89v1.09a9.5,9.5,0,0,0,.7,4.14,2.47,2.47,0,0,0,2.43,1.4c2.17,0,3.59-1.15,4.26-3.47l.5.08a5.73,5.73,0,0,1-1.92,3.14,6.48,6.48,0,0,1-4.15,1.12A7.22,7.22,0,0,1,1440.62,142.27Zm3.62-6.2h2.89V134.7a11.66,11.66,0,0,0-.27-3.1,1.05,1.05,0,0,0-1.06-.83,1.25,1.25,0,0,0-1.18.89,8.57,8.57,0,0,0-.38,3Z"/><path class="cls-7" d="M1462.47,131.31a2.19,2.19,0,0,0-1.82,1.34,6.26,6.26,0,0,0-.78,3.19v7.51h2v.5h-8.74v-.5h1.54V131h-1.54v-.51h6.75v2.69a3.77,3.77,0,0,1,3.75-3,3.09,3.09,0,0,1,2.14.74,2.7,2.7,0,0,1,.83,2.1,3.14,3.14,0,0,1-.62,2.09,2.32,2.32,0,0,1-1.89.73,2.14,2.14,0,0,1-1.87-.84,2.57,2.57,0,0,1-.16-2.33h1C1463.53,131.78,1463.33,131.31,1462.47,131.31Z"/><path class="cls-7" d="M1467.29,144.13v-5h.33a6.82,6.82,0,0,0,2,3.42,4.81,4.81,0,0,0,3.08,1c1.91,0,2.86-.61,2.86-1.82a1.26,1.26,0,0,0-.7-1.18,9.35,9.35,0,0,0-2.8-1,11.06,11.06,0,0,1-3.19-1.35,3.52,3.52,0,0,1-1.54-3.19,4.63,4.63,0,0,1,1.34-3.49,5,5,0,0,1,3.58-1.3,7,7,0,0,1,2.83.65,2.33,2.33,0,0,0,.82.22.64.64,0,0,0,.47-.19,3.79,3.79,0,0,0,.48-.73h.3v4.28h-.33c-1-2.43-2.43-3.64-4.42-3.64a3.33,3.33,0,0,0-2,.46,1.4,1.4,0,0,0-.65,1.17,1,1,0,0,0,.2.65c.13.16.23.28.3.35a1.31,1.31,0,0,0,.37.24l.42.2.52.18c.23.07.4.12.51.14a22.76,22.76,0,0,1,2.75.82,9.37,9.37,0,0,1,1.59.86,3.86,3.86,0,0,1,1.54,3.43,4.46,4.46,0,0,1-1.4,3.58,5.59,5.59,0,0,1-3.83,1.22,7.42,7.42,0,0,1-3.36-.81,1.07,1.07,0,0,0-.53-.22c-.41,0-.82.34-1.21,1Z"/><path class="cls-7" d="M1478.68,130.52h6.86v12.83h1.57v.5h-8.32v-.5h1.54V131h-1.65Zm4.23-1.93a2.58,2.58,0,0,1-2.11-.76,2.8,2.8,0,0,1-.63-1.87,2.62,2.62,0,0,1,.68-1.85,2.76,2.76,0,0,1,2.09-.73,3.09,3.09,0,0,1,2.13.66,2.41,2.41,0,0,1,.72,1.88,2.66,2.66,0,0,1-.7,1.94A2.87,2.87,0,0,1,1482.91,128.59Z"/><path class="cls-7" d="M1486.55,131v-.51h8.37V131h-1.76l3.36,9.29,3-9.29h-1.87v-.51h3.78V131h-1.24l-4.14,12.82h-3.19L1487.7,131Z"/><path class="cls-7" d="M1503,142.27a7.14,7.14,0,0,1-1.8-5.18,6.34,6.34,0,0,1,2-5.08,7.56,7.56,0,0,1,5.16-1.77q6.36,0,6.11,6.39h-7.9v1.09a9.5,9.5,0,0,0,.7,4.14,2.49,2.49,0,0,0,2.44,1.4c2.16,0,3.58-1.15,4.25-3.47l.51.08a5.85,5.85,0,0,1-1.92,3.14,6.51,6.51,0,0,1-4.16,1.12A7.24,7.24,0,0,1,1503,142.27Zm3.63-6.2h2.88V134.7a12.25,12.25,0,0,0-.26-3.1,1.06,1.06,0,0,0-1.07-.83,1.24,1.24,0,0,0-1.17.89,8.34,8.34,0,0,0-.38,3Z"/><path class="cls-7" d="M1380.4,167.85V159h-1.54v-.51h1.54v-3.61l5.21-1.29v4.9h3.64V159h-3.64v9.43a5.1,5.1,0,0,0,.27,1.93,1.05,1.05,0,0,0,1.1.62,1.82,1.82,0,0,0,1.47-.84,4.84,4.84,0,0,0,.83-2.3l.48.06a5.4,5.4,0,0,1-1.24,3.07,4.28,4.28,0,0,1-3.33,1.13,5.87,5.87,0,0,1-3.55-.92C1380.81,170.59,1380.4,169.47,1380.4,167.85Z"/><path class="cls-7" d="M1390,150.85h6.74V161.1a4.62,4.62,0,0,1,1.38-2.07,4.18,4.18,0,0,1,2.8-.79q4.33,0,4.34,4.68v8.43h1.56v.5h-7.92v-.5h1.15v-9.1a6.36,6.36,0,0,0-.23-2.17.81.81,0,0,0-.81-.49c-.6,0-1.12.39-1.58,1.17a5.58,5.58,0,0,0-.69,2.86v7.73H1398v.5h-8v-.5h1.54v-20H1390Z"/><path class="cls-7" d="M1409.23,170.27a7.15,7.15,0,0,1-1.81-5.18,6.37,6.37,0,0,1,2-5.08,7.6,7.6,0,0,1,5.17-1.77q6.36,0,6.1,6.39h-7.89v1.09a9.5,9.5,0,0,0,.7,4.14,2.48,2.48,0,0,0,2.43,1.4c2.17,0,3.59-1.15,4.26-3.47l.5.08a5.78,5.78,0,0,1-1.91,3.14,6.51,6.51,0,0,1-4.16,1.12A7.22,7.22,0,0,1,1409.23,170.27Zm3.63-6.2h2.88V162.7a11.66,11.66,0,0,0-.27-3.1,1,1,0,0,0-1.06-.83,1.26,1.26,0,0,0-1.18.89,8.63,8.63,0,0,0-.37,3Z"/><path class="cls-7" d="M1428.45,165.27h.81v-2.15a13.85,13.85,0,0,0-.29-3.58,1.13,1.13,0,0,0-1.13-.9,1.59,1.59,0,0,0-.91.26.82.82,0,0,0-.41.73,2.88,2.88,0,0,0,.17.94h.7a3.94,3.94,0,0,1,.22,1.41,1.82,1.82,0,0,1-.7,1.43,2.61,2.61,0,0,1-1.76.6c-1.61,0-2.41-.77-2.41-2.32q0-3.45,5.85-3.45c2.22,0,3.76.38,4.61,1.14s1.27,2.14,1.27,4.16v5.68c0,1,.27,1.46.81,1.46s1-1,1.12-2.89l.42,0a5.66,5.66,0,0,1-.92,3.39,3.4,3.4,0,0,1-2.66.92c-2.24,0-3.53-.69-3.86-2.07a3.06,3.06,0,0,1-1.1,1.57,3.75,3.75,0,0,1-2.12.5q-4.15,0-4.15-3.39a2.76,2.76,0,0,1,1.58-2.73A12.16,12.16,0,0,1,1428.45,165.27Zm-1,5.32a.57.57,0,0,0,.58.42c.29,0,.56-.24.82-.71a4.34,4.34,0,0,0,.37-2v-2.6h-.19q-1.74,0-1.74,2.55v.44A6.53,6.53,0,0,0,1427.49,170.59Z"/><path class="cls-7" d="M1438.08,167.85V159h-1.54v-.51h1.54v-3.61l5.21-1.29v4.9h3.64V159h-3.64v9.43a5.1,5.1,0,0,0,.27,1.93,1.05,1.05,0,0,0,1.1.62,1.82,1.82,0,0,0,1.47-.84,4.84,4.84,0,0,0,.83-2.3l.48.06a5.4,5.4,0,0,1-1.24,3.07,4.28,4.28,0,0,1-3.33,1.13,5.87,5.87,0,0,1-3.55-.92C1438.49,170.59,1438.08,169.47,1438.08,167.85Z"/><path class="cls-7" d="M1457.07,159.31a2.19,2.19,0,0,0-1.82,1.34,6.16,6.16,0,0,0-.79,3.19v7.51h2v.5h-8.74v-.5h1.54V159h-1.54v-.51h6.75v2.69a3.77,3.77,0,0,1,3.75-3,3.12,3.12,0,0,1,2.15.74,2.69,2.69,0,0,1,.82,2.1,3.14,3.14,0,0,1-.61,2.09,2.32,2.32,0,0,1-1.89.73,2.16,2.16,0,0,1-1.88-.84,2.6,2.6,0,0,1-.15-2.33h1C1458.12,159.78,1457.93,159.31,1457.07,159.31Z"/><path class="cls-7" d="M1463.38,170.27a7.14,7.14,0,0,1-1.8-5.18,6.34,6.34,0,0,1,2-5.08,7.56,7.56,0,0,1,5.16-1.77q6.36,0,6.11,6.39H1467v1.09a9.5,9.5,0,0,0,.7,4.14,2.49,2.49,0,0,0,2.44,1.4c2.16,0,3.58-1.15,4.25-3.47l.51.08A5.85,5.85,0,0,1,1473,171a6.51,6.51,0,0,1-4.16,1.12A7.24,7.24,0,0,1,1463.38,170.27Zm3.63-6.2h2.88V162.7a12.25,12.25,0,0,0-.26-3.1,1.06,1.06,0,0,0-1.07-.83,1.24,1.24,0,0,0-1.17.89,8.34,8.34,0,0,0-.38,3Z"/><path class="cls-7" d="M1394.07,214.42h7.47V215H1400v18.53h1.54V234H1393v-.54h1.54V216h-.11l-4.2,18h-3.5l-4.93-18.12h-.11v17.58h1.54V234h-3.81v-.54H1381V215h-1.54v-.53H1387l3.73,14.42Z"/><path class="cls-7" d="M1402.41,220.69h6.86v12.82h1.57V234h-8.32v-.51h1.54V221.19h-1.65Zm4.23-1.93a2.62,2.62,0,0,1-2.11-.76,2.83,2.83,0,0,1-.63-1.88,2.55,2.55,0,0,1,.68-1.84,2.72,2.72,0,0,1,2.09-.73,3.09,3.09,0,0,1,2.13.66,2.39,2.39,0,0,1,.72,1.87,2.7,2.7,0,0,1-.7,1.95A2.91,2.91,0,0,1,1406.64,218.76Z"/><path class="cls-7" d="M1421.12,225.76l3.3-4.57h-2v-.5h4.18v.5h-1.46l-3.64,5.15,4.56,7.17h1.46V234h-9.35v-.51h2l-3.08-5-3.2,5h1.85V234h-4.39v-.51h1.84l3.56-5.6-4.26-6.72h-1.62v-.5h9.46v.5h-2Z"/><path class="cls-7" d="M1428.75,232.43a7.09,7.09,0,0,1-1.81-5.18,6.38,6.38,0,0,1,2-5.08,7.61,7.61,0,0,1,5.17-1.76q6.34,0,6.1,6.38h-7.9v1.09a9.73,9.73,0,0,0,.7,4.15,2.51,2.51,0,0,0,2.44,1.4q3.24,0,4.26-3.47l.5.08a5.83,5.83,0,0,1-1.92,3.14,6.56,6.56,0,0,1-4.16,1.12A7.18,7.18,0,0,1,1428.75,232.43Zm3.62-6.2h2.89v-1.37a11.62,11.62,0,0,0-.27-3.09,1.05,1.05,0,0,0-1.06-.83,1.24,1.24,0,0,0-1.18.88,8.57,8.57,0,0,0-.38,3Z"/><path class="cls-7" d="M1450.77,234l-.31-2a3.78,3.78,0,0,1-3.87,2.24,4.42,4.42,0,0,1-3.73-1.74,8.42,8.42,0,0,1-1.33-5.18q0-7,5.54-7c1.64,0,2.73.46,3.25,1.37v-8.26h-1.71V213h7v20.49H1457V234Zm-3.53-1.89a1.16,1.16,0,0,0,1.13,1,1.79,1.79,0,0,0,1.43-.73,3.3,3.3,0,0,0,.6-2.15V224.1a4.16,4.16,0,0,0-.47-2,1.53,1.53,0,0,0-1.4-.84q-.93,0-1.26,1.23a18.34,18.34,0,0,0-.34,4.31v1.46A15.46,15.46,0,0,0,1447.24,232.13Z"/><path class="cls-7" d="M1462.75,220.69h6.75v2.57a3.86,3.86,0,0,1,4.07-2.85,3.52,3.52,0,0,1,3.82,3,4,4,0,0,1,4.12-3c2.74,0,4.12,1.56,4.12,4.67v8.43h1.56V234h-7.75v-.51h1v-9.1c0-1.42-.12-2.25-.37-2.49a.6.6,0,0,0-.44-.17c-.55,0-1,.37-1.43,1.09a5.63,5.63,0,0,0-.62,2.78v7.89h1V234h-7.2v-.51h1v-9.1a4.69,4.69,0,0,0-.36-2.49.61.61,0,0,0-.45-.17c-.52,0-1,.4-1.41,1.19a6,6,0,0,0-.63,2.84v7.73h1V234h-7.76v-.51h1.54V221.19h-1.54Z"/><path class="cls-7" d="M1489.56,232.43a7.13,7.13,0,0,1-1.81-5.18,6.36,6.36,0,0,1,2-5.08,7.6,7.6,0,0,1,5.16-1.76q6.36,0,6.11,6.38h-7.9v1.09a9.58,9.58,0,0,0,.7,4.15,2.5,2.5,0,0,0,2.43,1.4q3.26,0,4.26-3.47l.51.08a5.89,5.89,0,0,1-1.92,3.14,6.58,6.58,0,0,1-4.16,1.12A7.2,7.2,0,0,1,1489.56,232.43Zm3.63-6.2h2.88v-1.37a12.21,12.21,0,0,0-.26-3.09,1.06,1.06,0,0,0-1.07-.83,1.25,1.25,0,0,0-1.18.88,8.63,8.63,0,0,0-.37,3Z"/><path class="cls-7" d="M1511.58,234l-.31-2a3.76,3.76,0,0,1-3.86,2.24,4.44,4.44,0,0,1-3.74-1.74,8.48,8.48,0,0,1-1.33-5.18q0-7,5.55-7c1.64,0,2.72.46,3.24,1.37v-8.26h-1.7V213h7v20.49h1.37V234Zm-3.53-1.89a1.17,1.17,0,0,0,1.14,1,1.81,1.81,0,0,0,1.43-.73,3.3,3.3,0,0,0,.6-2.15V224.1a4.05,4.05,0,0,0-.48-2,1.52,1.52,0,0,0-1.4-.84q-.91,0-1.26,1.23a19.07,19.07,0,0,0-.33,4.31v1.46A16.13,16.13,0,0,0,1508.05,232.13Z"/><path class="cls-7" d="M1518.41,220.69h6.86v12.82h1.57V234h-8.31v-.51h1.54V221.19h-1.66Zm4.23-1.93a2.62,2.62,0,0,1-2.11-.76,2.83,2.83,0,0,1-.63-1.88,2.6,2.6,0,0,1,.68-1.84,2.74,2.74,0,0,1,2.09-.73,3.09,3.09,0,0,1,2.13.66,2.4,2.4,0,0,1,.73,1.87,2.74,2.74,0,0,1-.7,1.95A3,3,0,0,1,1522.64,218.76Z"/><path class="cls-7" d="M1534.12,227.44h.81v-2.16a13.81,13.81,0,0,0-.29-3.57,1.13,1.13,0,0,0-1.13-.91,1.6,1.6,0,0,0-.91.27.82.82,0,0,0-.41.72,2.83,2.83,0,0,0,.17.94h.7a4,4,0,0,1,.22,1.42,1.8,1.8,0,0,1-.7,1.42,2.55,2.55,0,0,1-1.76.61,2.1,2.1,0,0,1-2.41-2.33q0-3.43,5.85-3.44c2.22,0,3.76.38,4.61,1.13s1.27,2.14,1.27,4.16v5.68c0,1,.27,1.46.81,1.46s1-1,1.12-2.88l.42,0a5.61,5.61,0,0,1-.92,3.39,3.37,3.37,0,0,1-2.66.93c-2.24,0-3.53-.69-3.86-2.08a3,3,0,0,1-1.1,1.57,3.67,3.67,0,0,1-2.12.51q-4.15,0-4.15-3.39a2.74,2.74,0,0,1,1.58-2.73A12,12,0,0,1,1534.12,227.44Zm-1,5.32a.57.57,0,0,0,.58.42c.29,0,.56-.24.82-.72a4.27,4.27,0,0,0,.37-2v-2.61h-.19q-1.74,0-1.74,2.55v.45A6.58,6.58,0,0,0,1533.16,232.76Z"/><polygon class="cls-11" points="1781.47 26.29 1780.57 47.29 1797.36 59.95 1777.1 65.57 1770.25 85.45 1758.64 67.93 1737.62 67.56 1750.7 51.1 1744.55 30.99 1764.25 38.34 1781.47 26.29"/><polygon class="cls-12" points="1761.39 110.79 1755.17 130.87 1768.19 147.38 1747.17 147.67 1735.49 165.16 1728.72 145.25 1708.48 139.55 1725.32 126.96 1724.49 105.95 1741.67 118.07 1761.39 110.79"/><polygon class="cls-13" points="1797.34 225.6 1779.08 236.03 1777.32 256.98 1761.76 242.84 1741.29 247.63 1749.94 228.47 1739.05 210.48 1759.95 212.78 1773.69 196.87 1777.96 217.45 1797.34 225.6"/><path class="cls-7" d="M1817.06,38.34h7.47v.53H1823V57.4h1.54v.54H1816V57.4h1.54V39.9h-.11l-4.2,18h-3.5l-4.93-18.12h-.11V57.4h1.54v.54h-3.81V57.4H1804V38.87h-1.54v-.53H1810l3.73,14.42Z"/><path class="cls-7" d="M1841.61,57.94h-6.38l-.31-2a3.71,3.71,0,0,1-1.33,1.73,4.68,4.68,0,0,1-2.62.6q-4.34,0-4.34-4.68V45.11h-1.57v-.5h6.78v9.6a6.42,6.42,0,0,0,.24,2.21.94.94,0,0,0,1,.54,1.57,1.57,0,0,0,1.28-.87,4.45,4.45,0,0,0,.56-2.41V45.11h-1.29v-.5h6.49V57.43h1.54Z"/><path class="cls-7" d="M1842.06,36.94h6.86V57.43h1.57v.51h-8.32v-.51h1.54v-20h-1.65Z"/><path class="cls-7" d="M1852.42,53.93V45.11h-1.54v-.5h1.54V41l5.21-1.29v4.9h3.64v.5h-3.64v9.44a5.35,5.35,0,0,0,.26,1.93,1.09,1.09,0,0,0,1.11.62,1.82,1.82,0,0,0,1.47-.84,4.88,4.88,0,0,0,.83-2.3l.47.06a5.4,5.4,0,0,1-1.23,3.06,4.24,4.24,0,0,1-3.33,1.14,5.83,5.83,0,0,1-3.56-.93Q1852.42,56.38,1852.42,53.93Z"/><path class="cls-7" d="M1861.94,44.61h6.86V57.43h1.57v.51h-8.32v-.51h1.54V45.11h-1.65Zm4.23-1.93a2.64,2.64,0,0,1-2.12-.76,2.83,2.83,0,0,1-.63-1.88,2.56,2.56,0,0,1,.69-1.84,2.72,2.72,0,0,1,2.09-.73,3,3,0,0,1,2.12.66,2.38,2.38,0,0,1,.73,1.87,2.7,2.7,0,0,1-.7,2A2.91,2.91,0,0,1,1866.17,42.68Z"/><path class="cls-7" d="M1870.93,44.61h6.75v2.58a3.86,3.86,0,0,1,4.07-2.86,3.53,3.53,0,0,1,3.82,3,4,4,0,0,1,4.12-3q4.11,0,4.11,4.67v8.43h1.57v.51h-7.75v-.51h1v-9.1a4.65,4.65,0,0,0-.37-2.49.61.61,0,0,0-.45-.17c-.54,0-1,.37-1.42,1.1a5.57,5.57,0,0,0-.62,2.77v7.89h1v.51h-7.2v-.51h1v-9.1a4.69,4.69,0,0,0-.36-2.49.61.61,0,0,0-.45-.17c-.52,0-1,.4-1.41,1.19a6,6,0,0,0-.63,2.85v7.72h1v.51h-7.75v-.51h1.54V45.11h-1.54Z"/><path class="cls-7" d="M1897.74,56.35a7.09,7.09,0,0,1-1.81-5.18,6.38,6.38,0,0,1,2-5.08,7.62,7.62,0,0,1,5.17-1.76q6.34,0,6.1,6.38h-7.89v1.1A9.53,9.53,0,0,0,1902,56a2.48,2.48,0,0,0,2.43,1.4q3.26,0,4.26-3.47l.5.08a5.73,5.73,0,0,1-1.92,3.14,6.54,6.54,0,0,1-4.15,1.12A7.19,7.19,0,0,1,1897.74,56.35Zm3.62-6.2h2.89V48.78a11.62,11.62,0,0,0-.27-3.09,1.05,1.05,0,0,0-1.06-.83,1.24,1.24,0,0,0-1.18.88,8.57,8.57,0,0,0-.38,3Z"/><path class="cls-7" d="M1919.76,57.94l-.31-2a3.76,3.76,0,0,1-3.86,2.24,4.44,4.44,0,0,1-3.74-1.74,8.42,8.42,0,0,1-1.33-5.18q0-7,5.54-7c1.65,0,2.73.46,3.25,1.37V37.44h-1.71v-.5h7V57.43H1926v.51Zm-3.53-1.89a1.17,1.17,0,0,0,1.14,1,1.79,1.79,0,0,0,1.42-.72,3.35,3.35,0,0,0,.61-2.16V48a4.05,4.05,0,0,0-.48-2,1.52,1.52,0,0,0-1.4-.84q-.93,0-1.26,1.23a19,19,0,0,0-.34,4.32v1.45A16,16,0,0,0,1916.23,56.05Z"/><path class="cls-7" d="M1926.59,44.61h6.86V57.43H1935v.51h-8.32v-.51h1.54V45.11h-1.65Zm4.23-1.93a2.62,2.62,0,0,1-2.11-.76,2.83,2.83,0,0,1-.63-1.88,2.55,2.55,0,0,1,.68-1.84,2.72,2.72,0,0,1,2.09-.73,3.09,3.09,0,0,1,2.13.66,2.4,2.4,0,0,1,.72,1.87,2.7,2.7,0,0,1-.7,2A2.91,2.91,0,0,1,1930.82,42.68Z"/><path class="cls-7" d="M1942.3,51.36h.81V49.2a14.29,14.29,0,0,0-.29-3.57,1.14,1.14,0,0,0-1.14-.91,1.62,1.62,0,0,0-.91.27.81.81,0,0,0-.4.72,2.81,2.81,0,0,0,.16.94h.7a4,4,0,0,1,.23,1.42,1.84,1.84,0,0,1-.7,1.43,2.64,2.64,0,0,1-1.77.6,2.09,2.09,0,0,1-2.4-2.33q0-3.44,5.85-3.44c2.22,0,3.76.38,4.6,1.13s1.28,2.14,1.28,4.16v5.69c0,1,.27,1.45.81,1.45s1-1,1.12-2.88l.42,0a5.61,5.61,0,0,1-.92,3.39,3.37,3.37,0,0,1-2.66.93c-2.24,0-3.53-.69-3.87-2.08a3,3,0,0,1-1.09,1.57,3.68,3.68,0,0,1-2.13.51q-4.14,0-4.14-3.39a2.74,2.74,0,0,1,1.58-2.73A12,12,0,0,1,1942.3,51.36Zm-1,5.32a.59.59,0,0,0,.59.42q.43,0,.81-.72a4.25,4.25,0,0,0,.38-2v-2.6h-.19c-1.16,0-1.74.84-1.74,2.54v.45A7.14,7.14,0,0,0,1941.33,56.68Z"/><path class="cls-7" d="M1814.55,124.25H1822v.53h-1.54v18.54H1822v.53h-8.54v-.53H1815v-17.5h-.11l-4.2,18h-3.5l-4.93-18.12h-.11v17.59h1.54v.53h-3.81v-.53h1.54V124.78h-1.54v-.53h7.56l3.73,14.42Z"/><path class="cls-7" d="M1839.1,143.85h-6.38l-.31-2a3.68,3.68,0,0,1-1.33,1.72,4.68,4.68,0,0,1-2.62.6q-4.34,0-4.34-4.67V131h-1.57v-.51h6.78v9.61a6.46,6.46,0,0,0,.24,2.21.94.94,0,0,0,1,.53,1.55,1.55,0,0,0,1.27-.87,4.35,4.35,0,0,0,.56-2.4V131h-1.28v-.51h6.49v12.83h1.54Z"/><path class="cls-7" d="M1840.31,144.13v-5h.33a6.82,6.82,0,0,0,2,3.42,4.81,4.81,0,0,0,3.08,1c1.91,0,2.86-.61,2.86-1.82a1.28,1.28,0,0,0-.7-1.18,9.35,9.35,0,0,0-2.8-1,10.94,10.94,0,0,1-3.19-1.35,3.52,3.52,0,0,1-1.54-3.19,4.63,4.63,0,0,1,1.34-3.49,5,5,0,0,1,3.58-1.3,7,7,0,0,1,2.83.65,2.34,2.34,0,0,0,.81.22.65.65,0,0,0,.48-.19,3.79,3.79,0,0,0,.48-.73h.3v4.28h-.33q-1.42-3.65-4.43-3.64a3.38,3.38,0,0,0-2,.46,1.39,1.39,0,0,0-.64,1.17,1,1,0,0,0,.2.65c.13.16.23.28.3.35a1.31,1.31,0,0,0,.37.24l.42.2.52.18c.23.07.4.12.51.14a22.76,22.76,0,0,1,2.75.82,9.37,9.37,0,0,1,1.59.86,3.86,3.86,0,0,1,1.54,3.43,4.46,4.46,0,0,1-1.4,3.58,5.59,5.59,0,0,1-3.83,1.22,7.42,7.42,0,0,1-3.36-.81,1.07,1.07,0,0,0-.53-.22c-.42,0-.82.34-1.21,1Z"/><path class="cls-7" d="M1851.7,130.52h6.86v12.83h1.57v.5h-8.32v-.5h1.54V131h-1.65Zm4.23-1.93a2.58,2.58,0,0,1-2.11-.76,2.8,2.8,0,0,1-.63-1.87,2.58,2.58,0,0,1,.68-1.85,2.76,2.76,0,0,1,2.09-.73,3.09,3.09,0,0,1,2.13.66,2.41,2.41,0,0,1,.72,1.88,2.66,2.66,0,0,1-.7,1.94A2.87,2.87,0,0,1,1855.93,128.59Z"/><path class="cls-7" d="M1868.53,130.75a1.84,1.84,0,0,0-1.77,1.34,13.39,13.39,0,0,0-.53,4.45V138a9.37,9.37,0,0,0,.62,4,2.32,2.32,0,0,0,2.27,1.2,3.3,3.3,0,0,0,2.63-1.12,5.48,5.48,0,0,0,1.26-2.55l.5.06a5.65,5.65,0,0,1-2,3.47,6.51,6.51,0,0,1-4,1.09,6.71,6.71,0,0,1-5-1.75,7,7,0,0,1-1.73-5.12,6.75,6.75,0,0,1,2-5.2,7.83,7.83,0,0,1,5.5-1.82,6.32,6.32,0,0,1,3.81,1,2.89,2.89,0,0,1,1.32,2.42,3,3,0,0,1-.63,2.13,2.26,2.26,0,0,1-1.74.67,2.64,2.64,0,0,1-1.78-.59,2.2,2.2,0,0,1-.67-1.73,3.9,3.9,0,0,1,.14-1h.93a3.07,3.07,0,0,0,.19-1A1.19,1.19,0,0,0,1868.53,130.75Z"/><path class="cls-7" d="M1818.23,215V234h-3.92l-9.6-18.12v17.58h1.54V234h-3.84v-.54H1804V215h-1.54v-.53h7.73l7.34,14.05V215h-1.54v-.53h3.83V215Z"/><path class="cls-7" d="M1827.05,227.44h.81v-2.16a13.81,13.81,0,0,0-.29-3.57,1.13,1.13,0,0,0-1.13-.91,1.6,1.6,0,0,0-.91.27.82.82,0,0,0-.41.72,2.83,2.83,0,0,0,.17.94h.7a4,4,0,0,1,.22,1.42,1.8,1.8,0,0,1-.7,1.42,2.55,2.55,0,0,1-1.76.61,2.1,2.1,0,0,1-2.41-2.33q0-3.43,5.85-3.44c2.22,0,3.76.38,4.61,1.13s1.27,2.14,1.27,4.16v5.68c0,1,.27,1.46.81,1.46s1-1,1.12-2.88l.42,0a5.61,5.61,0,0,1-.92,3.39,3.37,3.37,0,0,1-2.66.93c-2.24,0-3.53-.69-3.86-2.08a3,3,0,0,1-1.1,1.57,3.67,3.67,0,0,1-2.12.51q-4.15,0-4.15-3.39a2.74,2.74,0,0,1,1.58-2.73A12,12,0,0,1,1827.05,227.44Zm-1,5.32a.58.58,0,0,0,.58.42c.29,0,.56-.24.82-.72a4.27,4.27,0,0,0,.37-2v-2.61h-.19q-1.74,0-1.74,2.55v.45A6.58,6.58,0,0,0,1826.09,232.76Z"/><path class="cls-7" d="M1851.81,234h-6.39l-.31-2.05a3.63,3.63,0,0,1-1.33,1.72,4.58,4.58,0,0,1-2.61.61c-2.9,0-4.34-1.56-4.34-4.68v-8.43h-1.57v-.5H1842v9.6a6.42,6.42,0,0,0,.24,2.21.94.94,0,0,0,1,.54,1.57,1.57,0,0,0,1.28-.87,4.45,4.45,0,0,0,.56-2.41v-8.57h-1.29v-.5h6.5v12.82h1.54Z"/><path class="cls-7" d="M1853.77,230v-8.82h-1.54v-.5h1.54v-3.61l5.2-1.29v4.9h3.64v.5H1859v9.44a5.1,5.1,0,0,0,.27,1.93,1.08,1.08,0,0,0,1.1.62,1.8,1.8,0,0,0,1.47-.84,4.88,4.88,0,0,0,.83-2.3l.48.06a5.37,5.37,0,0,1-1.24,3.06,4.24,4.24,0,0,1-3.33,1.14,5.8,5.8,0,0,1-3.55-.93Q1853.77,232.46,1853.77,230Z"/><path class="cls-7" d="M1870.12,227.44h.81v-2.16a13.67,13.67,0,0,0-.3-3.57,1.12,1.12,0,0,0-1.13-.91,1.6,1.6,0,0,0-.91.27.82.82,0,0,0-.41.72,2.83,2.83,0,0,0,.17.94h.7a4,4,0,0,1,.23,1.42,1.83,1.83,0,0,1-.7,1.42,2.59,2.59,0,0,1-1.77.61,2.1,2.1,0,0,1-2.41-2.33c0-2.29,2-3.44,5.86-3.44,2.22,0,3.75.38,4.6,1.13s1.28,2.14,1.28,4.16v5.68c0,1,.27,1.46.81,1.46s1-1,1.12-2.88l.42,0a5.6,5.6,0,0,1-.93,3.39,3.35,3.35,0,0,1-2.66.93c-2.24,0-3.52-.69-3.86-2.08a3,3,0,0,1-1.09,1.57,3.72,3.72,0,0,1-2.13.51q-4.14,0-4.14-3.39a2.72,2.72,0,0,1,1.58-2.73A11.92,11.92,0,0,1,1870.12,227.44Zm-1,5.32a.58.58,0,0,0,.59.42q.43,0,.81-.72a4.25,4.25,0,0,0,.38-2v-2.61h-.2c-1.15,0-1.73.85-1.73,2.55v.45A7.14,7.14,0,0,0,1869.15,232.76Z"/><path class="cls-7" d="M1878.82,220.69h6.75v2.57a4.74,4.74,0,0,1,1.37-2.07,4.27,4.27,0,0,1,2.8-.78q4.35,0,4.35,4.67v8.43h1.56V234h-7.92v-.51h1.15v-9.1a6.4,6.4,0,0,0-.23-2.17.82.82,0,0,0-.81-.49c-.6,0-1.12.39-1.58,1.18a5.52,5.52,0,0,0-.69,2.85v7.73h1.21V234h-8v-.51h1.54V221.19h-1.54Z"/><path class="cls-7" d="M1905.17,234v-.51h1.29L1903.3,227l-.54.14v6.35h1.29V234h-8v-.51h1.54v-20h-1.66V213h6.86V226.6l.45-.17,6.3-5.24h-2.63v-.5h5.52v.5h-2l-3.33,2.83,4.84,9.49h1V234Z"/><path class="cls-7" d="M1913.26,220.69h6.86v12.82h1.57V234h-8.31v-.51h1.54V221.19h-1.66Zm4.23-1.93a2.62,2.62,0,0,1-2.11-.76,2.83,2.83,0,0,1-.63-1.88,2.6,2.6,0,0,1,.68-1.84,2.74,2.74,0,0,1,2.09-.73,3.09,3.09,0,0,1,2.13.66,2.4,2.4,0,0,1,.73,1.87,2.74,2.74,0,0,1-.7,1.95A3,3,0,0,1,1917.49,218.76Z"/><polygon class="cls-14" points="2162.2 26.43 2161.29 47.44 2178.08 60.09 2157.82 65.72 2150.98 85.6 2139.36 68.07 2118.34 67.7 2131.42 51.24 2125.28 31.14 2144.97 38.49 2162.2 26.43"/><polygon class="cls-15" points="2176.61 119.61 2170.39 139.69 2183.41 156.2 2162.39 156.49 2150.71 173.98 2143.94 154.07 2123.7 148.37 2140.54 135.78 2139.7 114.77 2156.89 126.89 2176.61 119.61"/><polygon class="cls-16" points="2206.51 224.23 2188.25 234.66 2186.49 255.61 2170.93 241.47 2150.46 246.27 2159.1 227.1 2148.21 209.11 2169.11 211.41 2182.85 195.5 2187.12 216.08 2206.51 224.23"/><path class="cls-7" d="M2212.31,37h8.23a12.73,12.73,0,0,1,6.31,1.22q2.07,1.22,2.07,4.35,0,3.47-2.52,4.79a14.72,14.72,0,0,1-6.58,1.2h-.23V56h3.5v.53h-10.78V56h1.82V37.5h-1.82Zm7.28.53V48h.59a2.41,2.41,0,0,0,2.32-1.15,8,8,0,0,0,.65-3.72V41.78a6.68,6.68,0,0,0-.6-3.33,2.41,2.41,0,0,0-2.2-1Z"/><path class="cls-7" d="M2231.1,55.06a7,7,0,0,1-1.79-5.14,6.72,6.72,0,0,1,1.92-5.15,7.51,7.51,0,0,1,5.39-1.81,7.17,7.17,0,0,1,5.18,1.67,6.79,6.79,0,0,1,1.7,5.08q0,7.14-7.11,7.14A7.19,7.19,0,0,1,2231.1,55.06Zm7-4V48.67a18.64,18.64,0,0,0-.3-4c-.19-.83-.64-1.25-1.35-1.25a1.43,1.43,0,0,0-1,.35,2.17,2.17,0,0,0-.54,1.17,20.86,20.86,0,0,0-.26,3.83V51a19.62,19.62,0,0,0,.19,3.66,6.28,6.28,0,0,0,.37,1,1.2,1.2,0,0,0,1.21.67c.73,0,1.2-.42,1.43-1.26A19.93,19.93,0,0,0,2238.13,51.05Z"/><path class="cls-7" d="M2246.23,55a7.16,7.16,0,0,1-1.8-5.18,6.39,6.39,0,0,1,2-5.09,7.61,7.61,0,0,1,5.17-1.76q6.35,0,6.1,6.38h-7.9v1.1a9.65,9.65,0,0,0,.7,4.14A2.51,2.51,0,0,0,2253,56q3.24,0,4.25-3.47l.51.08a5.85,5.85,0,0,1-1.92,3.14,6.56,6.56,0,0,1-4.16,1.12A7.24,7.24,0,0,1,2246.23,55Zm3.63-6.21h2.88V47.41a11.75,11.75,0,0,0-.26-3.09,1.06,1.06,0,0,0-1.07-.83,1.25,1.25,0,0,0-1.17.88,8.57,8.57,0,0,0-.38,3Z"/><path class="cls-7" d="M2260.14,52.56V43.74h-1.54v-.5h1.54V39.63l5.2-1.29v4.9H2269v.5h-3.64v9.44a5.1,5.1,0,0,0,.27,1.93,1.09,1.09,0,0,0,1.11.62,1.82,1.82,0,0,0,1.47-.84,4.88,4.88,0,0,0,.82-2.3l.48.06a5.4,5.4,0,0,1-1.23,3.06,4.28,4.28,0,0,1-3.34,1.14,5.82,5.82,0,0,1-3.55-.93Q2260.14,55,2260.14,52.56Z"/><path class="cls-7" d="M2279.12,44a2.2,2.2,0,0,0-1.82,1.35,6.23,6.23,0,0,0-.78,3.19v7.5h2v.51h-8.73v-.51h1.54V43.74h-1.54v-.5h6.75v2.69a3.79,3.79,0,0,1,1.4-2.2,3.85,3.85,0,0,1,2.35-.77,3.09,3.09,0,0,1,2.14.74,2.7,2.7,0,0,1,.83,2.1,3.16,3.16,0,0,1-.62,2.09,2.35,2.35,0,0,1-1.89.73,2.17,2.17,0,0,1-1.88-.84,2.6,2.6,0,0,1-.15-2.33h1C2280.17,44.5,2280,44,2279.12,44Z"/><path class="cls-7" d="M2283.07,43.74v-.5h8.12v.5h-1.51l3.05,9.3,3.25-9.3h-1.88v-.5h4v.5h-1.4l-5.24,15.1a9,9,0,0,1-2.07,3.68,4.51,4.51,0,0,1-5.4.29,2.35,2.35,0,0,1-1-1.93,2.43,2.43,0,0,1,.62-1.79,2.19,2.19,0,0,1,1.62-.62c1.55,0,2.33.65,2.33,1.93a3.86,3.86,0,0,1-.17,1h-1a1.55,1.55,0,0,0-.06,1.07.74.74,0,0,0,.76.42,2.55,2.55,0,0,0,2-1.14,12,12,0,0,0,1.71-3.46l.62-1.73H2289l-4.78-12.83Z"/><path class="cls-7" d="M2297.21,59.28l8.26-25h1.12l-8.23,25Z"/><path class="cls-7" d="M2316,46.66h-1.49V56h1.82v.53h-9.1V56h1.82V37.5h-1.82V37h8.46a23.67,23.67,0,0,1,5.16.38,5.28,5.28,0,0,1,2.15.91,4.21,4.21,0,0,1,1.34,3.47,4.28,4.28,0,0,1-1.18,3.4,6.11,6.11,0,0,1-3.58,1.22v.08a5,5,0,0,1,3.16,1.35,5.27,5.27,0,0,1,.9,3.47v1.48a8.2,8.2,0,0,0,.15,2,.65.65,0,0,0,.66.51.91.91,0,0,0,.8-.47,5.92,5.92,0,0,0,.55-1.94l.47.05a5.88,5.88,0,0,1-1.08,3.2q-.77.81-3.06.81a4.19,4.19,0,0,1-3.26-1.08c-.65-.72-1-2.07-1-4.05v-2a4.94,4.94,0,0,0-.41-2.3A1.56,1.56,0,0,0,2316,46.66Zm-1.49-9.16v8.62h.9a2.79,2.79,0,0,0,2.36-1,5.14,5.14,0,0,0,.77-3.19v-.81a4.15,4.15,0,0,0-.74-2.93,3.33,3.33,0,0,0-2.36-.71Z"/><path class="cls-7" d="M2333.86,50h.81V47.83a14.29,14.29,0,0,0-.29-3.57,1.15,1.15,0,0,0-1.14-.91,1.62,1.62,0,0,0-.91.27.83.83,0,0,0-.4.73,2.58,2.58,0,0,0,.17.93h.7a4.28,4.28,0,0,1,.22,1.42,1.84,1.84,0,0,1-.7,1.43,2.61,2.61,0,0,1-1.76.6,2.1,2.1,0,0,1-2.41-2.33q0-3.43,5.85-3.44c2.22,0,3.76.38,4.61,1.13s1.27,2.15,1.27,4.16v5.69c0,1,.27,1.45.81,1.45s1-1,1.12-2.88l.42,0a5.6,5.6,0,0,1-.92,3.38,3.37,3.37,0,0,1-2.66.93q-3.36,0-3.87-2.07a2.92,2.92,0,0,1-1.09,1.56,3.68,3.68,0,0,1-2.13.51q-4.14,0-4.14-3.39a2.74,2.74,0,0,1,1.58-2.73A12.16,12.16,0,0,1,2333.86,50Zm-1,5.32a.59.59,0,0,0,.59.42q.43,0,.81-.72a4.13,4.13,0,0,0,.38-2v-2.6h-.19c-1.16,0-1.74.85-1.74,2.54v.45A7.14,7.14,0,0,0,2332.89,55.31Z"/><path class="cls-7" d="M2348.92,43.24v2.21a3.9,3.9,0,0,1,3.87-2.49,4.45,4.45,0,0,1,3.74,1.74,8.63,8.63,0,0,1,1.33,5.26q0,3.52-1.45,5.21a5.38,5.38,0,0,1-4.32,1.68,4.6,4.6,0,0,1-2-.34,2.63,2.63,0,0,1-1.09-1v7.25h3.61v.5h-10.36v-.5h1.54v-19h-1.48v-.5Zm3.25,1.92c-.18-.66-.55-1-1.09-1a1.8,1.8,0,0,0-1.46,1.05A5.35,5.35,0,0,0,2349,48v5.12a4.09,4.09,0,0,0,.48,2.05,1.51,1.51,0,0,0,1.4.84c.61,0,1-.41,1.26-1.24a19,19,0,0,0,.33-4.31V49A17,17,0,0,0,2352.17,45.16Z"/><path class="cls-7" d="M2358.64,59.28l8.26-25H2368l-8.23,25Z"/><path class="cls-7" d="M2221,84.26a4.16,4.16,0,0,0,2.48-.76,2.59,2.59,0,0,0,1.08-2.28,2.7,2.7,0,0,0-1.16-2.34,11.18,11.18,0,0,0-3.31-1.41,22.28,22.28,0,0,1-3.1-1,8.09,8.09,0,0,1-1.84-1.18,5.53,5.53,0,0,1-1.73-4.5,5.89,5.89,0,0,1,1.77-4.29,6.57,6.57,0,0,1,4.86-1.79,11.92,11.92,0,0,1,3.1.43,11.58,11.58,0,0,0,2,.44c.26,0,.49-.19.7-.56h.31l.19,5.65h-.45a17.22,17.22,0,0,0-2.81-3.9,4.45,4.45,0,0,0-3.19-1.47,4,4,0,0,0-2.68.8,2.64,2.64,0,0,0-.95,2.12,2.29,2.29,0,0,0,1.14,2,10.38,10.38,0,0,0,2.78,1.16c1.1.3,1.83.5,2.17.62s.78.26,1.29.46a6.75,6.75,0,0,1,1.26.61,9.47,9.47,0,0,1,1,.82,3.89,3.89,0,0,1,.85,1.07,7.2,7.2,0,0,1-1.13,8.05,6.81,6.81,0,0,1-5,1.84,18.51,18.51,0,0,1-3.66-.42Q2215,84,2214.75,84c-.26,0-.51.28-.76.84h-.39l-.28-6.67h.48a15.22,15.22,0,0,0,3.15,4.26A5.84,5.84,0,0,0,2221,84.26Z"/><path class="cls-7" d="M2235.67,71.24v2.21a3.88,3.88,0,0,1,3.86-2.49,4.45,4.45,0,0,1,3.74,1.74A8.63,8.63,0,0,1,2244.6,78q0,3.53-1.45,5.21a5.38,5.38,0,0,1-4.32,1.68,4.6,4.6,0,0,1-2-.34,2.63,2.63,0,0,1-1.09-1v7.25h3.61v.5H2229v-.5h1.54v-19H2229v-.5Zm3.24,1.92c-.18-.66-.55-1-1.09-1a1.8,1.8,0,0,0-1.46,1,5.45,5.45,0,0,0-.64,2.82v5.12a4.09,4.09,0,0,0,.48,2,1.51,1.51,0,0,0,1.4.84c.61,0,1-.41,1.26-1.24a19,19,0,0,0,.33-4.31V77A17,17,0,0,0,2238.91,73.16Z"/><path class="cls-7" d="M2247.45,83.06a7,7,0,0,1-1.79-5.14,6.72,6.72,0,0,1,1.92-5.15A7.53,7.53,0,0,1,2253,71a7.17,7.17,0,0,1,5.18,1.67,6.79,6.79,0,0,1,1.71,5.08q0,7.14-7.12,7.14A7.2,7.2,0,0,1,2247.45,83.06Zm7-4V76.67a19.52,19.52,0,0,0-.29-4c-.2-.83-.65-1.25-1.36-1.25a1.41,1.41,0,0,0-1,.35,2.1,2.1,0,0,0-.55,1.17,21.06,21.06,0,0,0-.25,3.83V79a20,20,0,0,0,.18,3.66,6.2,6.2,0,0,0,.38,1,1.18,1.18,0,0,0,1.2.67c.73,0,1.2-.42,1.43-1.26A19.18,19.18,0,0,0,2254.48,79.05Z"/><path class="cls-7" d="M2269.8,84.57v-.51h1.29l-3.17-6.49-.53.14v6.35h1.29v.51h-8v-.51h1.54v-20h-1.65v-.5h6.86V77.15l.45-.17,6.3-5.24h-2.64v-.5H2277v.5h-2l-3.33,2.83,4.84,9.49h1v.51Z"/><path class="cls-7" d="M2279.25,83a7.12,7.12,0,0,1-1.81-5.18,6.39,6.39,0,0,1,2-5.09,7.62,7.62,0,0,1,5.17-1.76q6.34,0,6.1,6.38h-7.89v1.1a9.67,9.67,0,0,0,.69,4.14A2.51,2.51,0,0,0,2286,84c2.17,0,3.58-1.16,4.26-3.47l.5.08a5.73,5.73,0,0,1-1.92,3.14,6.54,6.54,0,0,1-4.15,1.12A7.22,7.22,0,0,1,2279.25,83Zm3.62-6.21h2.89V75.41a11.62,11.62,0,0,0-.27-3.09,1.05,1.05,0,0,0-1.06-.83,1.26,1.26,0,0,0-1.18.88,8.57,8.57,0,0,0-.38,3Z"/><path class="cls-7" d="M2291.8,71.24h6.75v2.58a4.77,4.77,0,0,1,1.37-2.08,4.27,4.27,0,0,1,2.8-.78c2.9,0,4.34,1.56,4.34,4.68v8.42h1.57v.51h-7.92v-.51h1.15V75a6.4,6.4,0,0,0-.23-2.17.82.82,0,0,0-.81-.49c-.6,0-1.12.4-1.58,1.18a5.56,5.56,0,0,0-.69,2.86v7.72h1.21v.51h-8v-.51h1.54V71.74h-1.54Z"/><path class="cls-7" d="M2323.61,71.74v-.5h7.23v.5h-1.15l2.52,9.44,2.49-9.44h-1.93v-.5h3.78v.5h-1.18L2332,84.57h-3.83l-2.44-8.6-2.63,8.6h-3.75l-4.15-12.83H2314v-.5h8.49v.5h-1.68l2.57,9.52,2-6.55-.7-3Z"/><path class="cls-7" d="M2338.42,83.06a7,7,0,0,1-1.79-5.14,6.72,6.72,0,0,1,1.92-5.15,7.54,7.54,0,0,1,5.39-1.81,7.15,7.15,0,0,1,5.18,1.67,6.79,6.79,0,0,1,1.71,5.08q0,7.14-7.11,7.14A7.21,7.21,0,0,1,2338.42,83.06Zm7-4V76.67a18.8,18.8,0,0,0-.29-4c-.2-.83-.65-1.25-1.36-1.25a1.41,1.41,0,0,0-1,.35,2.1,2.1,0,0,0-.55,1.17,21.06,21.06,0,0,0-.25,3.83V79a20,20,0,0,0,.18,3.66,6.2,6.2,0,0,0,.38,1,1.19,1.19,0,0,0,1.2.67,1.43,1.43,0,0,0,1.43-1.26A19.18,19.18,0,0,0,2345.45,79.05Z"/><path class="cls-7" d="M2361,72c-.69,0-1.29.45-1.81,1.35a6.14,6.14,0,0,0-.79,3.19v7.5h2v.51h-8.74v-.51h1.54V71.74h-1.54v-.5h6.75v2.69a3.79,3.79,0,0,1,1.4-2.2,3.87,3.87,0,0,1,2.35-.77,3.09,3.09,0,0,1,2.14.74,2.66,2.66,0,0,1,.83,2.1,3.11,3.11,0,0,1-.62,2.09,2.35,2.35,0,0,1-1.88.73,2.16,2.16,0,0,1-1.88-.84,2.63,2.63,0,0,1-.16-2.33h1C2362,72.5,2361.82,72,2361,72Z"/><path class="cls-7" d="M2375,84.57l-.3-2a3.79,3.79,0,0,1-3.87,2.24,4.45,4.45,0,0,1-3.74-1.74,8.48,8.48,0,0,1-1.33-5.18q0-7,5.55-7c1.64,0,2.72.46,3.24,1.37V64.07h-1.7v-.5h7V84.06h1.37v.51Zm-3.53-1.89a1.17,1.17,0,0,0,1.14,1,1.81,1.81,0,0,0,1.43-.72,3.35,3.35,0,0,0,.6-2.16v-6.1a4.06,4.06,0,0,0-.48-2,1.51,1.51,0,0,0-1.4-.84q-.91,0-1.26,1.23a19.18,19.18,0,0,0-.33,4.32v1.45A16.13,16.13,0,0,0,2371.46,82.68Z"/><path class="cls-7" d="M2221,143.54a4.23,4.23,0,0,0,2.48-.75,2.62,2.62,0,0,0,1.08-2.29,2.68,2.68,0,0,0-1.16-2.33,11.16,11.16,0,0,0-3.31-1.42,22.28,22.28,0,0,1-3.1-1.05,8.4,8.4,0,0,1-1.84-1.17,5.55,5.55,0,0,1-1.73-4.51,5.91,5.91,0,0,1,1.77-4.29,6.57,6.57,0,0,1,4.86-1.79,12,12,0,0,1,3.1.44,11.14,11.14,0,0,0,2,.43c.26,0,.49-.19.7-.56h.31l.19,5.66h-.45a17.07,17.07,0,0,0-2.81-3.91,4.45,4.45,0,0,0-3.19-1.47,4.08,4.08,0,0,0-2.68.8,2.65,2.65,0,0,0-.95,2.13,2.28,2.28,0,0,0,1.14,2,10.07,10.07,0,0,0,2.78,1.16c1.1.3,1.83.51,2.17.62s.78.26,1.29.46a6.72,6.72,0,0,1,1.26.62,8.25,8.25,0,0,1,1,.81,3.94,3.94,0,0,1,.85,1.08,7.15,7.15,0,0,1-1.13,8.05,6.85,6.85,0,0,1-5,1.83,18.51,18.51,0,0,1-3.66-.42q-2.06-.42-2.28-.42c-.26,0-.51.28-.76.84h-.39l-.28-6.66h.48a15.31,15.31,0,0,0,3.15,4.25A5.81,5.81,0,0,0,2221,143.54Z"/><path class="cls-7" d="M2230.37,139.85V131h-1.54v-.51h1.54v-3.61l5.21-1.29v4.9h3.64V131h-3.64v9.43a5.1,5.1,0,0,0,.27,1.93,1.05,1.05,0,0,0,1.1.62,1.82,1.82,0,0,0,1.47-.84,4.84,4.84,0,0,0,.83-2.3l.48.06a5.4,5.4,0,0,1-1.24,3.07,4.28,4.28,0,0,1-3.33,1.13,5.87,5.87,0,0,1-3.55-.92C2230.78,142.59,2230.37,141.47,2230.37,139.85Z"/><path class="cls-7" d="M2242,142.34a7,7,0,0,1-1.79-5.14,6.72,6.72,0,0,1,1.92-5.15,7.57,7.57,0,0,1,5.39-1.81,7.17,7.17,0,0,1,5.18,1.67,6.79,6.79,0,0,1,1.71,5.08q0,7.14-7.12,7.14A7.2,7.2,0,0,1,2242,142.34Zm7-4V136a19.56,19.56,0,0,0-.29-4c-.2-.83-.65-1.24-1.36-1.24a1.4,1.4,0,0,0-1,.35,2.13,2.13,0,0,0-.54,1.16,21.19,21.19,0,0,0-.25,3.84v2.18a20.19,20.19,0,0,0,.18,3.67,5.68,5.68,0,0,0,.38,1,1.19,1.19,0,0,0,1.2.67c.73,0,1.2-.42,1.43-1.26A19.3,19.3,0,0,0,2249.05,138.33Z"/><path class="cls-7" d="M2264.56,131.31a2.19,2.19,0,0,0-1.82,1.34,6.26,6.26,0,0,0-.78,3.19v7.51h2v.5h-8.74v-.5h1.54V131h-1.54v-.51H2262v2.69a3.77,3.77,0,0,1,3.75-3,3.09,3.09,0,0,1,2.14.74,2.7,2.7,0,0,1,.83,2.1,3.14,3.14,0,0,1-.62,2.09,2.32,2.32,0,0,1-1.89.73,2.14,2.14,0,0,1-1.87-.84,2.57,2.57,0,0,1-.16-2.33h1C2265.62,131.78,2265.42,131.31,2264.56,131.31Z"/><path class="cls-7" d="M2268.51,131v-.51h8.12V131h-1.51l3.05,9.29,3.25-9.29h-1.88v-.51h3.95V131h-1.4l-5.24,15.09a9,9,0,0,1-2.07,3.68,4,4,0,0,1-2.8,1,4.08,4.08,0,0,1-2.6-.75,2.36,2.36,0,0,1-1-1.94,2.43,2.43,0,0,1,.61-1.79,2.2,2.2,0,0,1,1.63-.62c1.54,0,2.32.65,2.32,1.94a3.93,3.93,0,0,1-.17,1h-1a1.46,1.46,0,0,0-.05,1.06.71.71,0,0,0,.75.42,2.58,2.58,0,0,0,2.05-1.14,12.22,12.22,0,0,0,1.7-3.45l.62-1.74h-2.46L2269.66,131Z"/><path class="cls-7" d="M2285,139.85V131h-1.54v-.51H2285v-3.61l5.2-1.29v4.9h3.64V131h-3.64v9.43a5.1,5.1,0,0,0,.27,1.93,1.08,1.08,0,0,0,1.11.62,1.82,1.82,0,0,0,1.47-.84,4.84,4.84,0,0,0,.82-2.3l.48.06a5.47,5.47,0,0,1-1.23,3.07,4.32,4.32,0,0,1-3.34,1.13,5.87,5.87,0,0,1-3.55-.92A4,4,0,0,1,2285,139.85Z"/><path class="cls-7" d="M2296.52,142.27a7.14,7.14,0,0,1-1.8-5.18,6.34,6.34,0,0,1,2-5.08,7.56,7.56,0,0,1,5.16-1.77q6.36,0,6.11,6.39h-7.9v1.09a9.5,9.5,0,0,0,.7,4.14,2.49,2.49,0,0,0,2.44,1.4c2.16,0,3.58-1.15,4.25-3.47l.51.08a5.85,5.85,0,0,1-1.92,3.14,6.5,6.5,0,0,1-4.16,1.12A7.24,7.24,0,0,1,2296.52,142.27Zm3.63-6.2H2303V134.7a12.25,12.25,0,0,0-.26-3.1,1.06,1.06,0,0,0-1.07-.83,1.24,1.24,0,0,0-1.17.89,8.57,8.57,0,0,0-.38,3Z"/><path class="cls-7" d="M2308.91,122.85h6.86v20.5h1.57v.5H2309v-.5h1.54v-20h-1.65Z"/><path class="cls-7" d="M2317.76,122.85h6.86v20.5h1.57v.5h-8.32v-.5h1.54v-20h-1.65Z"/><path class="cls-7" d="M2326.61,130.52h6.86v12.83H2335v.5h-8.32v-.5h1.54V131h-1.65Zm4.23-1.93a2.61,2.61,0,0,1-2.12-.76,2.8,2.8,0,0,1-.63-1.87,2.59,2.59,0,0,1,.69-1.85,2.75,2.75,0,0,1,2.08-.73,3.05,3.05,0,0,1,2.13.66,2.38,2.38,0,0,1,.73,1.88,2.66,2.66,0,0,1-.7,1.94A2.88,2.88,0,0,1,2330.84,128.59Z"/><path class="cls-7" d="M2335.65,130.52h6.75v2.58a4.68,4.68,0,0,1,1.37-2.07,4.21,4.21,0,0,1,2.8-.79c2.9,0,4.34,1.56,4.34,4.68v8.43h1.57v.5h-7.92v-.5h1.14v-9.1a6.45,6.45,0,0,0-.22-2.17.81.81,0,0,0-.81-.49,1.91,1.91,0,0,0-1.58,1.17,5.58,5.58,0,0,0-.69,2.86v7.73h1.2v.5h-7.95v-.5h1.54V131h-1.54Z"/><path class="cls-7" d="M2364.07,129.07l.79-.48c.11-.58-.12-.87-.68-.87-.8,0-1.2.62-1.2,1.85a7.78,7.78,0,0,0,.2,1.68,4.27,4.27,0,0,1,2.12,3.66,4.16,4.16,0,0,1-1.54,3.45,6.48,6.48,0,0,1-4.17,1.24,12.14,12.14,0,0,1-2.27-.23c-.82.52-1.23.92-1.23,1.18s.6.39,1.79.39h2.86q6.36,0,6.36,4.56a4.62,4.62,0,0,1-1.92,3.91q-1.92,1.44-6,1.44-6.91,0-6.92-3c0-1.08.72-1.82,2.16-2.23l1.68.75a5.78,5.78,0,0,0-.22,1.54c0,1.61,1.19,2.41,3.58,2.41a5.87,5.87,0,0,0,3.36-.81,2.41,2.41,0,0,0,1.18-2,1.69,1.69,0,0,0-.72-1.61,6.56,6.56,0,0,0-2.84-.4h-2.72a5.4,5.4,0,0,1-3.24-.76,2.27,2.27,0,0,1-1-1.86,2.57,2.57,0,0,1,.7-1.85,11.87,11.87,0,0,1,2.49-1.83,4.06,4.06,0,0,1-3.25-4.26,4.23,4.23,0,0,1,1.51-3.39,6.85,6.85,0,0,1,4.54-1.29,6.52,6.52,0,0,1,3.11.7,5.88,5.88,0,0,1-.17-1.37,2.81,2.81,0,0,1,.84-2.27,2.88,2.88,0,0,1,1.87-.7,2.49,2.49,0,0,1,1.67.55,1.87,1.87,0,0,1,.63,1.5,1.85,1.85,0,0,1-.5,1.41,1.93,1.93,0,0,1-2.4.08A1.38,1.38,0,0,1,2364.07,129.07Zm-5.93,5.23v1.51a6.58,6.58,0,0,0,.32,2.55,1,1,0,0,0,1,.68,1,1,0,0,0,.95-.66,7.83,7.83,0,0,0,.29-2.7V134.3a9.16,9.16,0,0,0-.28-2.87,1,1,0,0,0-.93-.68,1.07,1.07,0,0,0-1,.71A7.93,7.93,0,0,0,2358.14,134.3Z"/><path class="cls-7" d="M2229.7,213.05l.28,7h-.53a22,22,0,0,0-2.18-5.08,3.17,3.17,0,0,0-2.75-1.36h-.33v18.43h2.38v.59h-10.22v-.59h2.38V213.63h-.37a3.19,3.19,0,0,0-2.77,1.42,21.47,21.47,0,0,0-2.16,5h-.53l.28-7Z"/><path class="cls-7" d="M2231.3,211.65h6.75v10.24a4.63,4.63,0,0,1,1.37-2.07,4.25,4.25,0,0,1,2.8-.78q4.34,0,4.34,4.67v8.43h1.57v.51h-7.93v-.51h1.15V223a6.49,6.49,0,0,0-.22-2.17.83.83,0,0,0-.82-.49c-.59,0-1.12.39-1.58,1.18a5.52,5.52,0,0,0-.68,2.85v7.73h1.2v.51h-7.95v-.51h1.54v-20h-1.54Z"/><path class="cls-7" d="M2250.49,231.06a7.13,7.13,0,0,1-1.8-5.18,6.35,6.35,0,0,1,2-5.08,7.6,7.6,0,0,1,5.16-1.76q6.36,0,6.11,6.38h-7.9v1.1a9.53,9.53,0,0,0,.7,4.14,2.51,2.51,0,0,0,2.44,1.4q3.24,0,4.25-3.47l.51.08a5.85,5.85,0,0,1-1.92,3.14,6.58,6.58,0,0,1-4.16,1.12A7.2,7.2,0,0,1,2250.49,231.06Zm3.63-6.2H2257v-1.37a12.21,12.21,0,0,0-.26-3.09,1.06,1.06,0,0,0-1.07-.83,1.23,1.23,0,0,0-1.17.88,8.34,8.34,0,0,0-.38,3Z"/><path class="cls-7" d="M2269.71,226.07h.82v-2.16a13.67,13.67,0,0,0-.3-3.57,1.12,1.12,0,0,0-1.13-.91,1.6,1.6,0,0,0-.91.27.82.82,0,0,0-.41.72,2.83,2.83,0,0,0,.17.94h.7a4,4,0,0,1,.22,1.42,1.8,1.8,0,0,1-.7,1.42,2.55,2.55,0,0,1-1.76.61,2.1,2.1,0,0,1-2.41-2.33q0-3.43,5.85-3.44c2.23,0,3.76.38,4.61,1.13s1.27,2.14,1.27,4.16V230c0,1,.27,1.45.82,1.45s1-1,1.12-2.88l.42,0a5.67,5.67,0,0,1-.93,3.39,3.37,3.37,0,0,1-2.66.93c-2.24,0-3.53-.69-3.86-2.08a3,3,0,0,1-1.09,1.57,3.72,3.72,0,0,1-2.13.51c-2.76,0-4.15-1.13-4.15-3.39a2.73,2.73,0,0,1,1.59-2.73A11.9,11.9,0,0,1,2269.71,226.07Zm-1,5.32a.58.58,0,0,0,.59.42q.43,0,.81-.72a4.25,4.25,0,0,0,.38-2v-2.6h-.2c-1.16,0-1.74.84-1.74,2.54v.45A7,7,0,0,0,2268.75,231.39Z"/><path class="cls-7" d="M2279.35,228.64v-8.82h-1.54v-.5h1.54v-3.61l5.2-1.29v4.9h3.64v.5h-3.64v9.44a5.1,5.1,0,0,0,.27,1.93,1.09,1.09,0,0,0,1.11.62,1.82,1.82,0,0,0,1.47-.84,4.88,4.88,0,0,0,.82-2.3l.48.06a5.4,5.4,0,0,1-1.23,3.06,4.28,4.28,0,0,1-3.34,1.14,5.8,5.8,0,0,1-3.55-.93Q2279.35,231.08,2279.35,228.64Z"/><path class="cls-7" d="M2298.33,220.1a2.2,2.2,0,0,0-1.82,1.35,6.23,6.23,0,0,0-.78,3.19v7.5h2v.51H2289v-.51h1.54V219.82H2289v-.5h6.75V222a3.79,3.79,0,0,1,1.4-2.2,3.85,3.85,0,0,1,2.35-.77,3.09,3.09,0,0,1,2.14.74,2.7,2.7,0,0,1,.83,2.1,3.16,3.16,0,0,1-.62,2.09,2.35,2.35,0,0,1-1.89.72,2.16,2.16,0,0,1-1.88-.84,2.58,2.58,0,0,1-.15-2.32h1C2299.38,220.58,2299.19,220.1,2298.33,220.1Z"/><path class="cls-7" d="M2304.64,231.06a7.13,7.13,0,0,1-1.8-5.18,6.35,6.35,0,0,1,2-5.08A7.6,7.6,0,0,1,2310,219q6.36,0,6.11,6.38h-7.9v1.1a9.68,9.68,0,0,0,.7,4.14,2.51,2.51,0,0,0,2.44,1.4q3.24,0,4.25-3.47l.51.08a5.85,5.85,0,0,1-1.92,3.14,6.56,6.56,0,0,1-4.16,1.12A7.2,7.2,0,0,1,2304.64,231.06Zm3.63-6.2h2.88v-1.37a12.21,12.21,0,0,0-.26-3.09,1.06,1.06,0,0,0-1.07-.83,1.23,1.23,0,0,0-1.17.88,8.57,8.57,0,0,0-.38,3Z"/><polygon class="cls-17" points="941.67 119.61 935.46 139.69 948.48 156.2 927.46 156.49 915.78 173.98 909 154.07 888.77 148.37 905.6 135.78 904.77 114.77 921.95 126.89 941.67 119.61"/><polygon class="cls-18" points="947.77 221.91 929.51 232.34 927.75 253.29 912.19 239.15 891.72 243.94 900.36 224.78 889.48 206.79 910.37 209.09 924.11 193.18 928.39 213.76 947.77 221.91"/><path class="cls-7" d="M971.76,38.34h14.56l.29,5.54h-.51A10,10,0,0,0,983.64,40a5.87,5.87,0,0,0-3.78-1h-1V47.6h1a2.86,2.86,0,0,0,2.21-1,5.64,5.64,0,0,0,1.26-2.67h.42v8.29h-.48a6.56,6.56,0,0,0-1.35-3,3.07,3.07,0,0,0-2.34-.9h-.67v9h1.06a6.49,6.49,0,0,0,4.38-1.54,7.79,7.79,0,0,0,2.48-4h.56l-.22,6.11H971.76v-.62h1.66V39h-1.66Z"/><path class="cls-7" d="M998.5,49.68l3.31-4.57h-2v-.5H1004v.5h-1.45l-3.64,5.16,4.56,7.16h1.46v.51h-9.35v-.51h2l-3.08-5-3.19,5h1.85v.51h-4.4v-.51h1.85l3.56-5.6-4.26-6.72h-1.62v-.5h9.46v.5h-2Z"/><path class="cls-7" d="M1011.86,44.61v2.21a3.9,3.9,0,0,1,3.86-2.49,4.44,4.44,0,0,1,3.74,1.73,8.61,8.61,0,0,1,1.33,5.27q0,3.53-1.44,5.21a5.39,5.39,0,0,1-4.33,1.68,4.73,4.73,0,0,1-2-.34,2.63,2.63,0,0,1-1.09-1V64.1h3.61v.5h-10.36v-.5h1.54v-19h-1.49v-.5Zm3.25,1.92c-.19-.67-.55-1-1.09-1a1.78,1.78,0,0,0-1.46,1,5.35,5.35,0,0,0-.64,2.82v5.12a4.05,4.05,0,0,0,.47,2,1.53,1.53,0,0,0,1.4.84q.93,0,1.26-1.23a18.34,18.34,0,0,0,.34-4.31V50.4A17.54,17.54,0,0,0,1015.11,46.53Z"/><path class="cls-7" d="M1023.58,56.35a7.09,7.09,0,0,1-1.81-5.18,6.38,6.38,0,0,1,2-5.08,7.64,7.64,0,0,1,5.17-1.76q6.36,0,6.1,6.38h-7.89v1.1a9.53,9.53,0,0,0,.7,4.14,2.48,2.48,0,0,0,2.43,1.4q3.26,0,4.26-3.47l.5.08a5.73,5.73,0,0,1-1.92,3.14,6.54,6.54,0,0,1-4.15,1.12A7.19,7.19,0,0,1,1023.58,56.35Zm3.62-6.2h2.89V48.78a11.62,11.62,0,0,0-.27-3.09,1.05,1.05,0,0,0-1.06-.83,1.24,1.24,0,0,0-1.18.88,8.57,8.57,0,0,0-.38,3Z"/><path class="cls-7" d="M1045.43,45.39a2.2,2.2,0,0,0-1.82,1.35,6.23,6.23,0,0,0-.78,3.19v7.5h2v.51h-8.74v-.51h1.54V45.11h-1.54v-.5h6.75V47.3a3.79,3.79,0,0,1,1.4-2.2,3.85,3.85,0,0,1,2.35-.77,3.09,3.09,0,0,1,2.14.74,2.7,2.7,0,0,1,.83,2.1,3.16,3.16,0,0,1-.62,2.09A2.35,2.35,0,0,1,1047,50a2.11,2.11,0,0,1-1.87-.84,2.55,2.55,0,0,1-.16-2.32h1C1046.49,45.87,1046.29,45.39,1045.43,45.39Z"/><path class="cls-7" d="M1049.83,44.61h6.86V57.43h1.57v.51h-8.32v-.51h1.54V45.11h-1.65Zm4.23-1.93a2.64,2.64,0,0,1-2.12-.76,2.83,2.83,0,0,1-.63-1.88,2.56,2.56,0,0,1,.69-1.84,2.71,2.71,0,0,1,2.08-.73,3.05,3.05,0,0,1,2.13.66,2.38,2.38,0,0,1,.73,1.87,2.7,2.7,0,0,1-.7,2A2.94,2.94,0,0,1,1054.06,42.68Z"/><path class="cls-7" d="M1058.81,44.61h6.75v2.58a3.88,3.88,0,0,1,4.08-2.86,3.53,3.53,0,0,1,3.82,3,4,4,0,0,1,4.12-3q4.11,0,4.11,4.67v8.43h1.57v.51h-7.76v-.51h1v-9.1a4.69,4.69,0,0,0-.36-2.49.61.61,0,0,0-.45-.17c-.54,0-1,.37-1.43,1.1a5.57,5.57,0,0,0-.61,2.77v7.89h1v.51h-7.2v-.51h1v-9.1a4.69,4.69,0,0,0-.36-2.49.64.64,0,0,0-.45-.17c-.53,0-1,.4-1.42,1.19a6,6,0,0,0-.63,2.85v7.72h1v.51h-7.76v-.51h1.55V45.11h-1.55Z"/><path class="cls-7" d="M1085.63,56.35a7.09,7.09,0,0,1-1.81-5.18,6.38,6.38,0,0,1,2-5.08,7.61,7.61,0,0,1,5.17-1.76q6.35,0,6.1,6.38h-7.9v1.1a9.68,9.68,0,0,0,.7,4.14,2.51,2.51,0,0,0,2.44,1.4q3.24,0,4.25-3.47l.51.08a5.79,5.79,0,0,1-1.92,3.14,6.56,6.56,0,0,1-4.16,1.12A7.16,7.16,0,0,1,1085.63,56.35Zm3.62-6.2h2.88V48.78a11.75,11.75,0,0,0-.26-3.09,1.06,1.06,0,0,0-1.07-.83,1.23,1.23,0,0,0-1.17.88,8.57,8.57,0,0,0-.38,3Z"/><path class="cls-7" d="M1098.18,44.61h6.75v2.58a4.77,4.77,0,0,1,1.37-2.08,4.27,4.27,0,0,1,2.8-.78c2.9,0,4.34,1.56,4.34,4.67v8.43H1115v.51h-7.92v-.51h1.14v-9.1a6.49,6.49,0,0,0-.22-2.17.82.82,0,0,0-.81-.49,1.9,1.9,0,0,0-1.58,1.18,5.53,5.53,0,0,0-.69,2.86v7.72h1.2v.51h-8v-.51h1.54V45.11h-1.54Z"/><path class="cls-7" d="M1116.64,53.93V45.11h-1.54v-.5h1.54V41l5.2-1.29v4.9h3.64v.5h-3.64v9.44a5.1,5.1,0,0,0,.27,1.93,1.08,1.08,0,0,0,1.1.62,1.83,1.83,0,0,0,1.48-.84,4.88,4.88,0,0,0,.82-2.3l.48.06a5.34,5.34,0,0,1-1.24,3.06,4.24,4.24,0,0,1-3.33,1.14,5.8,5.8,0,0,1-3.55-.93Q1116.64,56.38,1116.64,53.93Z"/><path class="cls-7" d="M1133,51.36h.81V49.2a13.67,13.67,0,0,0-.3-3.57,1.12,1.12,0,0,0-1.13-.91,1.6,1.6,0,0,0-.91.27.82.82,0,0,0-.41.72,2.83,2.83,0,0,0,.17.94h.7a4,4,0,0,1,.23,1.42,1.87,1.87,0,0,1-.7,1.43,2.64,2.64,0,0,1-1.77.6,2.1,2.1,0,0,1-2.41-2.33c0-2.29,2-3.44,5.86-3.44,2.22,0,3.75.38,4.6,1.13s1.28,2.14,1.28,4.16v5.69c0,1,.27,1.45.81,1.45s1-1,1.12-2.88l.42,0a5.68,5.68,0,0,1-.92,3.39,3.39,3.39,0,0,1-2.67.93c-2.24,0-3.52-.69-3.86-2.08a3,3,0,0,1-1.09,1.57,3.72,3.72,0,0,1-2.13.51q-4.14,0-4.14-3.39a2.72,2.72,0,0,1,1.58-2.73A11.92,11.92,0,0,1,1133,51.36Zm-1,5.32a.58.58,0,0,0,.59.42q.44,0,.81-.72a4.25,4.25,0,0,0,.38-2v-2.6h-.2c-1.15,0-1.73.84-1.73,2.54v.45A7.14,7.14,0,0,0,1132,56.68Z"/><path class="cls-7" d="M1141.53,36.94h6.86V57.43H1150v.51h-8.32v-.51h1.54v-20h-1.65Z"/><path class="cls-7" d="M981,85.94l-.31-2a3.78,3.78,0,0,1-3.87,2.24,4.42,4.42,0,0,1-3.73-1.74,8.42,8.42,0,0,1-1.33-5.18q0-7,5.54-7c1.64,0,2.73.46,3.25,1.37V65.44h-1.71v-.5h7V85.43h1.37v.51Zm-3.53-1.89a1.16,1.16,0,0,0,1.13,1,1.81,1.81,0,0,0,1.43-.72,3.35,3.35,0,0,0,.6-2.16V76a4.16,4.16,0,0,0-.47-2,1.53,1.53,0,0,0-1.4-.84q-.93,0-1.26,1.23a18.38,18.38,0,0,0-.34,4.32v1.45A15.46,15.46,0,0,0,977.45,84.05Z"/><path class="cls-7" d="M994.64,79.36h.81V77.2a14.29,14.29,0,0,0-.29-3.57,1.14,1.14,0,0,0-1.14-.91,1.62,1.62,0,0,0-.91.27.81.81,0,0,0-.4.72,2.6,2.6,0,0,0,.17.94h.7a4,4,0,0,1,.22,1.42,1.84,1.84,0,0,1-.7,1.43,2.61,2.61,0,0,1-1.76.6,2.1,2.1,0,0,1-2.41-2.33q0-3.43,5.85-3.44c2.22,0,3.76.38,4.61,1.13s1.27,2.14,1.27,4.16v5.69c0,1,.27,1.45.81,1.45s1-1,1.12-2.88l.42,0a5.61,5.61,0,0,1-.92,3.39,3.37,3.37,0,0,1-2.66.93c-2.24,0-3.53-.69-3.87-2.08a3,3,0,0,1-1.09,1.57,3.68,3.68,0,0,1-2.13.51q-4.14,0-4.14-3.39a2.74,2.74,0,0,1,1.58-2.73A12,12,0,0,1,994.64,79.36Zm-1,5.32a.59.59,0,0,0,.59.42q.43,0,.81-.72a4.13,4.13,0,0,0,.38-2v-2.6h-.19c-1.16,0-1.74.84-1.74,2.54v.45A7.14,7.14,0,0,0,993.67,84.68Z"/><path class="cls-7" d="M1003.35,72.61h6.75v2.58a4.69,4.69,0,0,1,1.37-2.08,4.25,4.25,0,0,1,2.8-.78q4.34,0,4.34,4.67v8.43h1.57v.51h-7.93v-.51h1.15v-9.1a6.49,6.49,0,0,0-.22-2.17.83.83,0,0,0-.82-.49c-.59,0-1.12.39-1.58,1.18a5.63,5.63,0,0,0-.68,2.86v7.72h1.2v.51h-7.95v-.51h1.54V73.11h-1.54Z"/><path class="cls-7" d="M1028.38,72.83a1.82,1.82,0,0,0-1.76,1.35,13.09,13.09,0,0,0-.53,4.45v1.45a9.37,9.37,0,0,0,.61,4,2.33,2.33,0,0,0,2.27,1.21,3.31,3.31,0,0,0,2.63-1.13,5.4,5.4,0,0,0,1.26-2.54l.5.05a5.55,5.55,0,0,1-2,3.47,6.51,6.51,0,0,1-4,1.1,6.73,6.73,0,0,1-5-1.75,7,7,0,0,1-1.74-5.13,6.72,6.72,0,0,1,2-5.19,7.84,7.84,0,0,1,5.51-1.82,6.36,6.36,0,0,1,3.8,1,2.92,2.92,0,0,1,1.32,2.43,3,3,0,0,1-.63,2.13,2.3,2.3,0,0,1-1.74.67,2.61,2.61,0,0,1-1.77-.59,2.18,2.18,0,0,1-.68-1.74,3.46,3.46,0,0,1,.15-1h.92a3.12,3.12,0,0,0,.19-1A1.19,1.19,0,0,0,1028.38,72.83Z"/><path class="cls-7" d="M1036,84.35a7.13,7.13,0,0,1-1.81-5.18,6.38,6.38,0,0,1,2-5.08,7.64,7.64,0,0,1,5.17-1.76q6.36,0,6.1,6.38h-7.89v1.1a9.53,9.53,0,0,0,.7,4.14,2.49,2.49,0,0,0,2.43,1.4q3.26,0,4.26-3.47l.5.08a5.78,5.78,0,0,1-1.91,3.14,6.58,6.58,0,0,1-4.16,1.12A7.19,7.19,0,0,1,1036,84.35Zm3.63-6.2h2.88V76.78a11.62,11.62,0,0,0-.27-3.09,1,1,0,0,0-1.06-.83,1.25,1.25,0,0,0-1.18.88,8.63,8.63,0,0,0-.37,3Z"/><path class="cls-7" d="M971.77,124.25h14.56l.28,5.82h-.51a9.07,9.07,0,0,0-2.39-4.11,6.37,6.37,0,0,0-4.05-1.09h-.78V134h1.26a2.93,2.93,0,0,0,2.24-1,5.43,5.43,0,0,0,1.23-2.69H984v8.29h-.48a6.73,6.73,0,0,0-1.24-3,2.76,2.76,0,0,0-2.17-.9h-1.26v8.54h3.47v.62H971.77v-.62h1.65V124.87h-1.65Z"/><path class="cls-7" d="M988.58,142.27a7.15,7.15,0,0,1-1.81-5.18,6.37,6.37,0,0,1,2-5.08,7.6,7.6,0,0,1,5.17-1.77q6.36,0,6.1,6.39h-7.89v1.09a9.5,9.5,0,0,0,.7,4.14,2.48,2.48,0,0,0,2.43,1.4c2.17,0,3.59-1.15,4.26-3.47l.5.08a5.78,5.78,0,0,1-1.91,3.14,6.51,6.51,0,0,1-4.16,1.12A7.22,7.22,0,0,1,988.58,142.27Zm3.63-6.2h2.88v-1.38a11.62,11.62,0,0,0-.27-3.09,1,1,0,0,0-1.06-.83,1.26,1.26,0,0,0-1.18.89,8.56,8.56,0,0,0-.37,3Z"/><path class="cls-7" d="M1001.08,130.52h6.75v2.58a3.87,3.87,0,0,1,4.07-2.86,3.54,3.54,0,0,1,3.83,3,4,4,0,0,1,4.11-3q4.13,0,4.12,4.68v8.43h1.57v.5h-7.76v-.5h1v-9.1a4.77,4.77,0,0,0-.36-2.5.64.64,0,0,0-.45-.16c-.54,0-1,.36-1.43,1.09a5.59,5.59,0,0,0-.62,2.77v7.9h1v.5h-7.19v-.5h1v-9.1a4.73,4.73,0,0,0-.37-2.5.61.61,0,0,0-.45-.16c-.52,0-1,.39-1.41,1.19a6,6,0,0,0-.63,2.84v7.73h1v.5h-7.76v-.5h1.54V131h-1.54Z"/><path class="cls-7" d="M1025.83,130.52h6.86v12.83h1.57v.5H1026v-.5h1.54V131h-1.66Zm4.23-1.93a2.58,2.58,0,0,1-2.11-.76,2.8,2.8,0,0,1-.63-1.87,2.62,2.62,0,0,1,.68-1.85,2.78,2.78,0,0,1,2.09-.73,3.09,3.09,0,0,1,2.13.66,2.42,2.42,0,0,1,.73,1.88,2.7,2.7,0,0,1-.7,1.94A2.91,2.91,0,0,1,1030.06,128.59Z"/><path class="cls-7" d="M1034.88,130.52h6.74v2.58A4.62,4.62,0,0,1,1043,131a4.2,4.2,0,0,1,2.8-.79q4.34,0,4.34,4.68v8.43h1.56v.5h-7.92v-.5h1.15v-9.1a6.36,6.36,0,0,0-.23-2.17.81.81,0,0,0-.81-.49c-.6,0-1.12.39-1.58,1.17a5.58,5.58,0,0,0-.69,2.86v7.73h1.21v.5h-7.95v-.5h1.54V131h-1.54Z"/><path class="cls-7" d="M1052,130.52h6.86v12.83h1.56v.5h-8.31v-.5h1.54V131H1052Zm4.22-1.93a2.58,2.58,0,0,1-2.11-.76,2.8,2.8,0,0,1-.63-1.87,2.59,2.59,0,0,1,.69-1.85,2.74,2.74,0,0,1,2.08-.73,3.05,3.05,0,0,1,2.13.66,2.38,2.38,0,0,1,.73,1.88,2.66,2.66,0,0,1-.7,1.94A2.91,2.91,0,0,1,1056.18,128.59Z"/><path class="cls-7" d="M1061.59,144.13v-5h.33a6.74,6.74,0,0,0,2,3.41,4.78,4.78,0,0,0,3.08,1c1.91,0,2.86-.61,2.86-1.83a1.25,1.25,0,0,0-.7-1.17,9.35,9.35,0,0,0-2.8-1,11.06,11.06,0,0,1-3.19-1.35,3.52,3.52,0,0,1-1.54-3.19,4.66,4.66,0,0,1,1.34-3.49,5,5,0,0,1,3.59-1.3,7,7,0,0,1,2.82.65,2.33,2.33,0,0,0,.82.22.61.61,0,0,0,.47-.2,3.35,3.35,0,0,0,.48-.72h.31v4.28h-.34c-.95-2.43-2.43-3.64-4.42-3.64a3.36,3.36,0,0,0-2,.46,1.4,1.4,0,0,0-.65,1.16,1,1,0,0,0,.2.66,3.2,3.2,0,0,0,.31.35,1.11,1.11,0,0,0,.36.24l.42.2.52.18a4.78,4.78,0,0,0,.52.14,22.46,22.46,0,0,1,2.74.82,9.86,9.86,0,0,1,1.6.86,3.89,3.89,0,0,1,1.54,3.43,4.49,4.49,0,0,1-1.4,3.58,5.64,5.64,0,0,1-3.84,1.22,7.42,7.42,0,0,1-3.36-.81,1,1,0,0,0-.53-.22c-.41,0-.81.34-1.21,1Z"/><path class="cls-7" d="M1074.22,139.85V131h-1.54v-.51h1.54v-3.61l5.2-1.29v4.9h3.64V131h-3.64v9.43a5.1,5.1,0,0,0,.27,1.93,1.08,1.08,0,0,0,1.11.62,1.82,1.82,0,0,0,1.47-.84,4.84,4.84,0,0,0,.82-2.3l.48.06a5.47,5.47,0,0,1-1.23,3.07,4.32,4.32,0,0,1-3.34,1.13,5.87,5.87,0,0,1-3.55-.92A4,4,0,0,1,1074.22,139.85Z"/><path class="cls-7" d="M972.86,167.85V159h-1.54v-.51h1.54v-3.61l5.21-1.29v4.9h3.64V159h-3.64v9.43a5.14,5.14,0,0,0,.26,1.93,1.08,1.08,0,0,0,1.11.62,1.82,1.82,0,0,0,1.47-.84,4.84,4.84,0,0,0,.82-2.3l.48.06A5.47,5.47,0,0,1,981,171a4.29,4.29,0,0,1-3.33,1.13,5.9,5.9,0,0,1-3.56-.92A4,4,0,0,1,972.86,167.85Z"/><path class="cls-7" d="M982.49,150.85h6.75V161.1a4.6,4.6,0,0,1,1.37-2.07,4.21,4.21,0,0,1,2.8-.79q4.33,0,4.34,4.68v8.43h1.57v.5h-7.93v-.5h1.15v-9.1a6.45,6.45,0,0,0-.22-2.17.81.81,0,0,0-.81-.49,1.93,1.93,0,0,0-1.59,1.17,5.68,5.68,0,0,0-.68,2.86v7.73h1.2v.5h-8v-.5H984v-20h-1.54Z"/><path class="cls-7" d="M1001.68,170.27a7.14,7.14,0,0,1-1.8-5.18,6.34,6.34,0,0,1,2-5.08,7.56,7.56,0,0,1,5.16-1.77q6.36,0,6.11,6.39h-7.9v1.09a9.5,9.5,0,0,0,.7,4.14,2.49,2.49,0,0,0,2.44,1.4c2.16,0,3.58-1.15,4.25-3.47l.51.08a5.85,5.85,0,0,1-1.92,3.14,6.5,6.5,0,0,1-4.16,1.12A7.24,7.24,0,0,1,1001.68,170.27Zm3.63-6.2h2.88v-1.38a12.21,12.21,0,0,0-.26-3.09,1.06,1.06,0,0,0-1.07-.83,1.24,1.24,0,0,0-1.17.89,8.51,8.51,0,0,0-.38,3Z"/><path class="cls-7" d="M1020.91,165.27h.81v-2.16a13.67,13.67,0,0,0-.3-3.57,1.12,1.12,0,0,0-1.13-.9,1.59,1.59,0,0,0-.91.26.84.84,0,0,0-.41.73,2.88,2.88,0,0,0,.17.94h.7a3.93,3.93,0,0,1,.23,1.41,1.85,1.85,0,0,1-.7,1.43,2.64,2.64,0,0,1-1.77.6c-1.6,0-2.41-.77-2.41-2.32q0-3.45,5.86-3.45c2.22,0,3.75.38,4.6,1.14s1.28,2.14,1.28,4.15v5.69c0,1,.27,1.46.81,1.46s1-1,1.12-2.89l.42,0a5.72,5.72,0,0,1-.93,3.39,3.38,3.38,0,0,1-2.66.92c-2.24,0-3.52-.69-3.86-2.07a3,3,0,0,1-1.09,1.57,3.81,3.81,0,0,1-2.13.5q-4.14,0-4.14-3.39a2.74,2.74,0,0,1,1.58-2.73A12.09,12.09,0,0,1,1020.91,165.27Zm-1,5.32a.58.58,0,0,0,.59.42c.29,0,.56-.24.81-.71a4.33,4.33,0,0,0,.38-2v-2.6h-.2c-1.16,0-1.73.85-1.73,2.55v.44A7.09,7.09,0,0,0,1019.94,170.59Z"/><path class="cls-7" d="M1030.54,167.85V159H1029v-.51h1.54v-3.61l5.21-1.29v4.9h3.64V159h-3.64v9.43a5.14,5.14,0,0,0,.26,1.93,1.08,1.08,0,0,0,1.11.62,1.82,1.82,0,0,0,1.47-.84,4.84,4.84,0,0,0,.82-2.3l.48.06a5.47,5.47,0,0,1-1.23,3.07,4.29,4.29,0,0,1-3.33,1.13,5.9,5.9,0,0,1-3.56-.92A4,4,0,0,1,1030.54,167.85Z"/><path class="cls-7" d="M1049.52,159.31a2.19,2.19,0,0,0-1.82,1.34,6.26,6.26,0,0,0-.78,3.19v7.51h2v.5h-8.74v-.5h1.54V159h-1.54v-.51h6.75v2.69a3.77,3.77,0,0,1,3.75-3,3.09,3.09,0,0,1,2.14.74,2.7,2.7,0,0,1,.83,2.1,3.14,3.14,0,0,1-.62,2.09,2.32,2.32,0,0,1-1.89.73,2.14,2.14,0,0,1-1.87-.84,2.57,2.57,0,0,1-.16-2.33h1C1050.58,159.78,1050.38,159.31,1049.52,159.31Z"/><path class="cls-7" d="M1055.84,170.27a7.11,7.11,0,0,1-1.81-5.18,6.37,6.37,0,0,1,2-5.08,7.56,7.56,0,0,1,5.17-1.77q6.35,0,6.1,6.39h-7.9v1.09a9.65,9.65,0,0,0,.7,4.14,2.49,2.49,0,0,0,2.44,1.4c2.16,0,3.58-1.15,4.26-3.47l.5.08a5.79,5.79,0,0,1-1.92,3.14,6.5,6.5,0,0,1-4.16,1.12A7.21,7.21,0,0,1,1055.84,170.27Zm3.62-6.2h2.89v-1.38a11.62,11.62,0,0,0-.27-3.09,1.05,1.05,0,0,0-1.06-.83,1.25,1.25,0,0,0-1.18.89,8.51,8.51,0,0,0-.38,3Z"/><path class="cls-7" d="M971.77,214.42h14.56l.28,5.82h-.51a9.06,9.06,0,0,0-2.39-4.12,6.44,6.44,0,0,0-4.05-1.09h-.78v9.1h1.26a2.9,2.9,0,0,0,2.24-1,5.38,5.38,0,0,0,1.23-2.69H984v8.29h-.48a6.63,6.63,0,0,0-1.24-3,2.76,2.76,0,0,0-2.17-.9h-1.26v8.54h3.47V234H971.77v-.62h1.65V215h-1.65Z"/><path class="cls-7" d="M987.92,220.69h6.86v12.82h1.57V234H988v-.51h1.54V221.19h-1.65Zm4.23-1.93A2.62,2.62,0,0,1,990,218a2.83,2.83,0,0,1-.63-1.88,2.55,2.55,0,0,1,.68-1.84,2.72,2.72,0,0,1,2.09-.73,3.09,3.09,0,0,1,2.13.66,2.39,2.39,0,0,1,.72,1.87,2.7,2.7,0,0,1-.7,1.95A2.91,2.91,0,0,1,992.15,218.76Z"/><path class="cls-7" d="M996.8,213h6.86v20.49h1.57V234h-8.32v-.51h1.54v-20H996.8Z"/><path class="cls-7" d="M1005.76,220.69h6.74v2.57a3.88,3.88,0,0,1,4.08-2.85,3.53,3.53,0,0,1,3.82,3,4,4,0,0,1,4.12-3q4.11,0,4.11,4.67v8.43h1.57V234h-7.76v-.51h1v-9.1a4.69,4.69,0,0,0-.36-2.49.61.61,0,0,0-.45-.17c-.54,0-1,.37-1.43,1.09a5.64,5.64,0,0,0-.61,2.78v7.89h1V234h-7.2v-.51h1v-9.1a4.69,4.69,0,0,0-.36-2.49.64.64,0,0,0-.45-.17c-.52,0-1,.4-1.42,1.19a6,6,0,0,0-.63,2.84v7.73h1V234h-7.75v-.51h1.54V221.19h-1.54Z"/><polygon class="cls-19" points="967.38 54.55 949.12 64.97 947.36 85.92 931.8 71.78 911.33 76.58 919.97 57.41 909.09 39.43 929.98 41.73 943.72 25.81 948 46.4 967.38 54.55"/><polygon class="cls-20" points="532.97 204.85 532.06 225.85 548.85 238.51 528.59 244.14 521.75 264.02 510.13 246.49 489.11 246.12 502.19 229.66 496.05 209.55 515.74 216.91 532.97 204.85"/><polygon class="cls-21" points="522.75 32.69 521.84 53.69 538.63 66.35 518.38 71.97 511.53 91.85 499.92 74.33 478.89 73.96 491.97 57.5 485.83 37.39 505.53 44.74 522.75 32.69"/><polygon class="cls-22" points="531.82 122.74 525.6 142.82 538.62 159.33 517.6 159.63 505.92 177.11 499.14 157.21 478.91 151.5 495.74 138.91 494.91 117.9 512.09 130.02 531.82 122.74"/><path class="cls-7" d="M584.2,47.8q0,5.78-3.25,8-3,2.1-8.23,2.1h-7.93V57.4h1.85V38.87h-1.85v-.53h8.66q5.37,0,8.06,2.2T584.2,47.8Zm-12.1,9.6h1.07a4.34,4.34,0,0,0,4-2c.81-1.33,1.22-3.57,1.22-6.7V47.07q0-6.3-2.41-7.59a7,7,0,0,0-3.25-.61h-.67Z"/><path class="cls-7" d="M592.21,51.36H593V49.2a14.29,14.29,0,0,0-.29-3.57,1.14,1.14,0,0,0-1.14-.91,1.6,1.6,0,0,0-.91.27.82.82,0,0,0-.41.72,2.83,2.83,0,0,0,.17.94h.7a4,4,0,0,1,.23,1.42,1.87,1.87,0,0,1-.7,1.43,2.64,2.64,0,0,1-1.77.6,2.09,2.09,0,0,1-2.4-2.33q0-3.44,5.85-3.44c2.22,0,3.75.38,4.6,1.13s1.28,2.14,1.28,4.16v5.69c0,1,.27,1.45.81,1.45s1-1,1.12-2.88l.42,0a5.68,5.68,0,0,1-.92,3.39,3.38,3.38,0,0,1-2.66.93c-2.25,0-3.53-.69-3.87-2.08A3,3,0,0,1,592,57.71a3.72,3.72,0,0,1-2.13.51q-4.14,0-4.14-3.39a2.72,2.72,0,0,1,1.58-2.73A11.92,11.92,0,0,1,592.21,51.36Zm-1,5.32a.58.58,0,0,0,.59.42q.43,0,.81-.72a4.25,4.25,0,0,0,.38-2v-2.6h-.2c-1.15,0-1.73.84-1.73,2.54v.45A7.14,7.14,0,0,0,591.24,56.68Z"/><path class="cls-7" d="M600.92,44.61h6.74v2.58A4.71,4.71,0,0,1,609,45.11a4.23,4.23,0,0,1,2.8-.78q4.33,0,4.34,4.67v8.43h1.56v.51h-7.92v-.51H611v-9.1a6.4,6.4,0,0,0-.23-2.17.82.82,0,0,0-.81-.49c-.6,0-1.12.39-1.58,1.18a5.53,5.53,0,0,0-.69,2.86v7.72h1.21v.51h-8v-.51h1.54V45.11h-1.54Z"/><path class="cls-7" d="M626,44.83a1.84,1.84,0,0,0-1.77,1.35,13.35,13.35,0,0,0-.53,4.45v1.45a9.34,9.34,0,0,0,.62,4,2.32,2.32,0,0,0,2.27,1.21,3.33,3.33,0,0,0,2.63-1.13,5.4,5.4,0,0,0,1.26-2.54l.5,0a5.6,5.6,0,0,1-2,3.47,6.51,6.51,0,0,1-4,1.1,6.75,6.75,0,0,1-5-1.75,7,7,0,0,1-1.73-5.13,6.72,6.72,0,0,1,2-5.19,7.83,7.83,0,0,1,5.5-1.82,6.42,6.42,0,0,1,3.81,1,2.92,2.92,0,0,1,1.32,2.43,3,3,0,0,1-.63,2.13,2.3,2.3,0,0,1-1.74.67,2.62,2.62,0,0,1-1.78-.59,2.21,2.21,0,0,1-.67-1.74,3.83,3.83,0,0,1,.14-1h.93a3.12,3.12,0,0,0,.19-1A1.19,1.19,0,0,0,626,44.83Z"/><path class="cls-7" d="M633.58,56.35a7.09,7.09,0,0,1-1.81-5.18,6.38,6.38,0,0,1,2-5.08A7.62,7.62,0,0,1,639,44.33q6.35,0,6.1,6.38h-7.9v1.1a9.68,9.68,0,0,0,.7,4.14,2.51,2.51,0,0,0,2.44,1.4c2.17,0,3.58-1.16,4.26-3.47l.5.08a5.73,5.73,0,0,1-1.92,3.14A6.56,6.56,0,0,1,639,58.22,7.18,7.18,0,0,1,633.58,56.35Zm3.62-6.2h2.89V48.78a11.62,11.62,0,0,0-.27-3.09,1.05,1.05,0,0,0-1.06-.83,1.24,1.24,0,0,0-1.18.88,8.57,8.57,0,0,0-.38,3Z"/><path class="cls-7" d="M657.84,51.36h.81V49.2a14.29,14.29,0,0,0-.29-3.57,1.14,1.14,0,0,0-1.14-.91,1.62,1.62,0,0,0-.91.27.81.81,0,0,0-.4.72,2.81,2.81,0,0,0,.16.94h.7a4,4,0,0,1,.23,1.42,1.87,1.87,0,0,1-.7,1.43,2.64,2.64,0,0,1-1.77.6,2.09,2.09,0,0,1-2.4-2.33q0-3.44,5.85-3.44c2.22,0,3.75.38,4.6,1.13s1.28,2.14,1.28,4.16v5.69c0,1,.27,1.45.81,1.45s1-1,1.12-2.88l.42,0a5.61,5.61,0,0,1-.92,3.39,3.38,3.38,0,0,1-2.66.93c-2.24,0-3.53-.69-3.87-2.08a3,3,0,0,1-1.09,1.57,3.7,3.7,0,0,1-2.13.51q-4.14,0-4.14-3.39A2.74,2.74,0,0,1,653,52.1,11.92,11.92,0,0,1,657.84,51.36Zm-1,5.32a.58.58,0,0,0,.59.42q.43,0,.81-.72a4.25,4.25,0,0,0,.38-2v-2.6h-.2c-1.15,0-1.73.84-1.73,2.54v.45A7.14,7.14,0,0,0,656.87,56.68Z"/><path class="cls-7" d="M667.13,58.22v-5h.34a6.74,6.74,0,0,0,2,3.41,4.81,4.81,0,0,0,3.08,1c1.9,0,2.86-.61,2.86-1.82a1.3,1.3,0,0,0-.7-1.18,9.74,9.74,0,0,0-2.8-1,10.86,10.86,0,0,1-3.2-1.34,3.55,3.55,0,0,1-1.54-3.19,4.62,4.62,0,0,1,1.35-3.49,4.91,4.91,0,0,1,3.58-1.3,6.94,6.94,0,0,1,2.83.64,2.35,2.35,0,0,0,.81.23.66.66,0,0,0,.48-.2,3,3,0,0,0,.47-.73H677v4.29h-.33c-1-2.43-2.43-3.64-4.43-3.64a3.36,3.36,0,0,0-2,.46,1.37,1.37,0,0,0-.64,1.16,1,1,0,0,0,.19.66c.13.16.24.27.31.35a2,2,0,0,0,.37.24,3.53,3.53,0,0,0,.42.19l.51.19.52.14a21,21,0,0,1,2.75.82,9.32,9.32,0,0,1,1.59.85,3.88,3.88,0,0,1,1.54,3.44A4.47,4.47,0,0,1,676.4,57a5.64,5.64,0,0,1-3.83,1.22,7.31,7.31,0,0,1-3.36-.82,1.21,1.21,0,0,0-.54-.22c-.41,0-.81.35-1.2,1Z"/><path class="cls-7" d="M690.37,44.61v2.21a3.9,3.9,0,0,1,3.87-2.49A4.47,4.47,0,0,1,698,46.06a8.68,8.68,0,0,1,1.33,5.27c0,2.35-.49,4.09-1.45,5.21a5.38,5.38,0,0,1-4.32,1.68,4.75,4.75,0,0,1-2-.34,2.63,2.63,0,0,1-1.09-1V64.1H694v.5H683.68v-.5h1.54v-19h-1.48v-.5Zm3.25,1.92c-.19-.67-.55-1-1.09-1a1.8,1.8,0,0,0-1.46,1,5.35,5.35,0,0,0-.64,2.82v5.12a4.05,4.05,0,0,0,.48,2,1.51,1.51,0,0,0,1.4.84q.91,0,1.26-1.23a19.07,19.07,0,0,0,.33-4.31V50.4A16.92,16.92,0,0,0,693.62,46.53Z"/><path class="cls-7" d="M702.16,56.42a7,7,0,0,1-1.79-5.13,6.72,6.72,0,0,1,1.92-5.15,7.53,7.53,0,0,1,5.39-1.81A7.12,7.12,0,0,1,712.86,46a6.79,6.79,0,0,1,1.71,5.08q0,7.14-7.12,7.14A7.17,7.17,0,0,1,702.16,56.42Zm7-4V50a19.52,19.52,0,0,0-.29-4c-.2-.83-.65-1.25-1.36-1.25a1.45,1.45,0,0,0-1,.35,2.17,2.17,0,0,0-.54,1.17,21.06,21.06,0,0,0-.25,3.83v2.19a20,20,0,0,0,.18,3.66,5.39,5.39,0,0,0,.38,1,1.18,1.18,0,0,0,1.2.67c.73,0,1.2-.42,1.43-1.26A19.18,19.18,0,0,0,709.19,52.42Z"/><path class="cls-7" d="M715.24,36.94h6.86V57.43h1.57v.51h-8.32v-.51h1.54v-20h-1.65Z"/><path class="cls-7" d="M724.09,44.61h6.85V57.43h1.57v.51H724.2v-.51h1.54V45.11h-1.65Zm4.22-1.93a2.62,2.62,0,0,1-2.11-.76,2.83,2.83,0,0,1-.63-1.88,2.6,2.6,0,0,1,.68-1.84,2.74,2.74,0,0,1,2.09-.73,3.09,3.09,0,0,1,2.13.66A2.41,2.41,0,0,1,731.2,40a2.74,2.74,0,0,1-.7,2A3,3,0,0,1,728.31,42.68Z"/><path class="cls-7" d="M734.47,53.93V45.11h-1.54v-.5h1.54V41l5.21-1.29v4.9h3.64v.5h-3.64v9.44a5.1,5.1,0,0,0,.27,1.93,1.07,1.07,0,0,0,1.1.62,1.82,1.82,0,0,0,1.47-.84,4.88,4.88,0,0,0,.83-2.3l.47.06a5.4,5.4,0,0,1-1.23,3.06,4.24,4.24,0,0,1-3.33,1.14,5.85,5.85,0,0,1-3.56-.93Q734.47,56.38,734.47,53.93Z"/><path class="cls-7" d="M744,44.61h6.86V57.43h1.57v.51H744.1v-.51h1.54V45.11H744Zm4.23-1.93a2.62,2.62,0,0,1-2.11-.76,2.83,2.83,0,0,1-.63-1.88,2.55,2.55,0,0,1,.68-1.84,2.72,2.72,0,0,1,2.09-.73,3.09,3.09,0,0,1,2.13.66A2.4,2.4,0,0,1,751.1,40a2.7,2.7,0,0,1-.7,2A2.91,2.91,0,0,1,748.22,42.68Z"/><path class="cls-7" d="M760.82,44.83a1.82,1.82,0,0,0-1.76,1.35,13,13,0,0,0-.54,4.45v1.45a9.34,9.34,0,0,0,.62,4,2.33,2.33,0,0,0,2.27,1.21A3.31,3.31,0,0,0,764,56.14a5.4,5.4,0,0,0,1.26-2.54l.5,0a5.55,5.55,0,0,1-2,3.47,6.51,6.51,0,0,1-4,1.1,6.71,6.71,0,0,1-5-1.75,7,7,0,0,1-1.74-5.13,6.72,6.72,0,0,1,2-5.19,7.84,7.84,0,0,1,5.51-1.82,6.36,6.36,0,0,1,3.8,1,2.92,2.92,0,0,1,1.32,2.43,3,3,0,0,1-.63,2.13,2.3,2.3,0,0,1-1.74.67,2.59,2.59,0,0,1-1.77-.59,2.18,2.18,0,0,1-.68-1.74,3.83,3.83,0,0,1,.14-1H762a3.12,3.12,0,0,0,.19-1A1.19,1.19,0,0,0,760.82,44.83Z"/><path class="cls-7" d="M773.22,51.36H774V49.2a13.67,13.67,0,0,0-.3-3.57,1.13,1.13,0,0,0-1.13-.91,1.6,1.6,0,0,0-.91.27.82.82,0,0,0-.41.72,2.83,2.83,0,0,0,.17.94h.7a4,4,0,0,1,.22,1.42,1.84,1.84,0,0,1-.7,1.43,2.59,2.59,0,0,1-1.76.6,2.1,2.1,0,0,1-2.41-2.33q0-3.44,5.85-3.44c2.22,0,3.76.38,4.61,1.13s1.27,2.14,1.27,4.16v5.69c0,1,.27,1.45.82,1.45s1-1,1.12-2.88l.42,0a5.67,5.67,0,0,1-.93,3.39,3.37,3.37,0,0,1-2.66.93c-2.24,0-3.53-.69-3.86-2.08a3.06,3.06,0,0,1-1.09,1.57,3.72,3.72,0,0,1-2.13.51q-4.15,0-4.15-3.39a2.73,2.73,0,0,1,1.59-2.73A11.9,11.9,0,0,1,773.22,51.36Zm-1,5.32a.58.58,0,0,0,.59.42c.28,0,.56-.24.81-.72a4.25,4.25,0,0,0,.38-2v-2.6h-.2c-1.16,0-1.74.84-1.74,2.54v.45A6.58,6.58,0,0,0,772.26,56.68Z"/><path class="cls-7" d="M781.76,36.94h6.86V57.43h1.57v.51h-8.31v-.51h1.54v-20h-1.66Z"/><path class="cls-7" d="M574,85.94l-.31-2a3.77,3.77,0,0,1-3.86,2.24,4.42,4.42,0,0,1-3.74-1.74,8.42,8.42,0,0,1-1.33-5.18q0-7,5.54-7c1.64,0,2.73.46,3.25,1.37V65.44h-1.71v-.5h7V85.43h1.37v.51Zm-3.53-1.89a1.16,1.16,0,0,0,1.13,1,1.81,1.81,0,0,0,1.43-.72,3.35,3.35,0,0,0,.6-2.16V76a4.16,4.16,0,0,0-.47-2,1.53,1.53,0,0,0-1.4-.84q-.93,0-1.26,1.23a18.38,18.38,0,0,0-.34,4.32v1.45A15.46,15.46,0,0,0,570.48,84.05Z"/><path class="cls-7" d="M580.84,72.61h6.86V85.43h1.57v.51H581v-.51h1.54V73.11h-1.65Zm4.23-1.93a2.64,2.64,0,0,1-2.12-.76,2.83,2.83,0,0,1-.63-1.88A2.56,2.56,0,0,1,583,66.2a2.71,2.71,0,0,1,2.08-.73,3.05,3.05,0,0,1,2.13.66A2.38,2.38,0,0,1,588,68a2.7,2.7,0,0,1-.7,2A2.92,2.92,0,0,1,585.07,70.68Z"/><path class="cls-7" d="M590.47,86.22v-5h.34a6.6,6.6,0,0,0,2,3.41,4.79,4.79,0,0,0,3.08,1c1.9,0,2.85-.61,2.85-1.82a1.28,1.28,0,0,0-.7-1.18,9.63,9.63,0,0,0-2.8-.95A10.79,10.79,0,0,1,592,80.31a3.53,3.53,0,0,1-1.54-3.19,4.66,4.66,0,0,1,1.34-3.49,4.93,4.93,0,0,1,3.59-1.3,7,7,0,0,1,2.83.64,2.3,2.3,0,0,0,.81.23.65.65,0,0,0,.47-.2,3.23,3.23,0,0,0,.48-.73h.31v4.29H600q-1.43-3.65-4.42-3.64a3.36,3.36,0,0,0-2,.46,1.38,1.38,0,0,0-.65,1.16,1,1,0,0,0,.2.66,4.57,4.57,0,0,0,.31.35,1.57,1.57,0,0,0,.36.24l.42.19.52.19.52.14a20.78,20.78,0,0,1,2.74.82,9.81,9.81,0,0,1,1.6.85,3.88,3.88,0,0,1,1.54,3.44,4.5,4.5,0,0,1-1.4,3.58,5.67,5.67,0,0,1-3.84,1.22,7.34,7.34,0,0,1-3.36-.82,1.14,1.14,0,0,0-.53-.22c-.41,0-.81.35-1.2,1Z"/><path class="cls-7" d="M609.82,72.83a1.84,1.84,0,0,0-1.77,1.35,13.35,13.35,0,0,0-.53,4.45v1.45a9.34,9.34,0,0,0,.62,4,2.32,2.32,0,0,0,2.27,1.21A3.33,3.33,0,0,0,613,84.14a5.4,5.4,0,0,0,1.26-2.54l.5.05a5.6,5.6,0,0,1-2,3.47,6.51,6.51,0,0,1-4,1.1,6.75,6.75,0,0,1-5-1.75,7,7,0,0,1-1.73-5.13,6.72,6.72,0,0,1,2-5.19,7.83,7.83,0,0,1,5.5-1.82,6.4,6.4,0,0,1,3.81,1,2.92,2.92,0,0,1,1.32,2.43,3,3,0,0,1-.63,2.13,2.3,2.3,0,0,1-1.74.67,2.62,2.62,0,0,1-1.78-.59,2.21,2.21,0,0,1-.67-1.74,3.83,3.83,0,0,1,.14-1H611a3.12,3.12,0,0,0,.19-1A1.19,1.19,0,0,0,609.82,72.83Z"/><path class="cls-7" d="M617.52,84.42a6.91,6.91,0,0,1-1.79-5.13,6.72,6.72,0,0,1,1.91-5.15A7.54,7.54,0,0,1,623,72.33c2.32,0,4,.55,5.18,1.67a6.79,6.79,0,0,1,1.71,5.08q0,7.14-7.11,7.14A7.15,7.15,0,0,1,617.52,84.42Zm7-4V78a18.64,18.64,0,0,0-.3-4c-.19-.83-.65-1.25-1.36-1.25a1.41,1.41,0,0,0-1,.35,2.24,2.24,0,0,0-.55,1.17,22,22,0,0,0-.25,3.83v2.19a20,20,0,0,0,.18,3.66,6.2,6.2,0,0,0,.38,1,1.2,1.2,0,0,0,1.21.67,1.43,1.43,0,0,0,1.42-1.26A18.92,18.92,0,0,0,624.55,80.42Z"/><path class="cls-7" d="M647.09,85.94H640.7l-.31-2a3.71,3.71,0,0,1-1.33,1.73,4.64,4.64,0,0,1-2.61.6c-2.9,0-4.34-1.56-4.34-4.68V73.11h-1.57v-.5h6.77v9.6a6.42,6.42,0,0,0,.24,2.21.94.94,0,0,0,1,.54,1.57,1.57,0,0,0,1.28-.87,4.45,4.45,0,0,0,.56-2.41V73.11h-1.29v-.5h6.5V85.43h1.54Z"/><path class="cls-7" d="M657,73.39a2.2,2.2,0,0,0-1.82,1.35,6.14,6.14,0,0,0-.79,3.19v7.5h2v.51h-8.73v-.51h1.54V73.11h-1.54v-.5h6.74V75.3a3.84,3.84,0,0,1,1.4-2.2,3.88,3.88,0,0,1,2.36-.77,3.11,3.11,0,0,1,2.14.74,2.69,2.69,0,0,1,.82,2.1,3.16,3.16,0,0,1-.61,2.09,2.35,2.35,0,0,1-1.89.72,2.13,2.13,0,0,1-1.88-.84,2.58,2.58,0,0,1-.15-2.32h1C658.05,73.87,657.86,73.39,657,73.39Z"/><path class="cls-7" d="M661.81,86.22v-5h.34a6.67,6.67,0,0,0,2,3.41,4.81,4.81,0,0,0,3.08,1c1.9,0,2.86-.61,2.86-1.82a1.3,1.3,0,0,0-.7-1.18,9.74,9.74,0,0,0-2.8-.95,10.86,10.86,0,0,1-3.2-1.34,3.55,3.55,0,0,1-1.54-3.19,4.62,4.62,0,0,1,1.35-3.49,4.91,4.91,0,0,1,3.58-1.3,6.94,6.94,0,0,1,2.83.64,2.3,2.3,0,0,0,.81.23.66.66,0,0,0,.48-.2,3,3,0,0,0,.47-.73h.31v4.29h-.33c-1-2.43-2.43-3.64-4.43-3.64a3.36,3.36,0,0,0-2,.46,1.37,1.37,0,0,0-.64,1.16,1,1,0,0,0,.19.66c.13.16.24.27.31.35a2,2,0,0,0,.37.24,3.53,3.53,0,0,0,.42.19l.51.19.52.14a21,21,0,0,1,2.75.82,9.32,9.32,0,0,1,1.59.85,3.88,3.88,0,0,1,1.54,3.44,4.5,4.5,0,0,1-1.4,3.58,5.64,5.64,0,0,1-3.83,1.22,7.31,7.31,0,0,1-3.36-.82,1.21,1.21,0,0,0-.54-.22c-.41,0-.81.35-1.2,1Z"/><path class="cls-7" d="M675.27,84.35a7.09,7.09,0,0,1-1.81-5.18,6.38,6.38,0,0,1,2-5.08,7.62,7.62,0,0,1,5.17-1.76q6.35,0,6.1,6.38h-7.89v1.1a9.53,9.53,0,0,0,.7,4.14,2.48,2.48,0,0,0,2.43,1.4q3.25,0,4.26-3.47l.5.08a5.73,5.73,0,0,1-1.92,3.14,6.54,6.54,0,0,1-4.15,1.12A7.19,7.19,0,0,1,675.27,84.35Zm3.62-6.2h2.89V76.78a11.62,11.62,0,0,0-.27-3.09,1.05,1.05,0,0,0-1.06-.83,1.24,1.24,0,0,0-1.18.88,8.57,8.57,0,0,0-.38,3Z"/><path class="cls-7" d="M584.2,133.71q0,5.78-3.25,8-3,2.1-8.23,2.1H564.8v-.53h1.84V124.78H564.8v-.53h8.65q5.37,0,8.06,2.2C583.3,127.91,584.2,130.34,584.2,133.71Zm-12.1,9.61h1.07a4.36,4.36,0,0,0,4-2c.82-1.34,1.22-3.57,1.22-6.71V133q0-6.3-2.41-7.59a6.93,6.93,0,0,0-3.24-.62h-.68Z"/><path class="cls-7" d="M592.21,137.27H593v-2.15a14.33,14.33,0,0,0-.29-3.58,1.14,1.14,0,0,0-1.14-.9,1.61,1.61,0,0,0-.91.26.83.83,0,0,0-.4.73,2.86,2.86,0,0,0,.16.94h.7a3.93,3.93,0,0,1,.23,1.41,1.85,1.85,0,0,1-.7,1.43,2.64,2.64,0,0,1-1.77.6,2.09,2.09,0,0,1-2.4-2.32q0-3.45,5.85-3.45c2.22,0,3.75.38,4.6,1.14s1.28,2.14,1.28,4.16v5.68c0,1,.27,1.46.81,1.46s1-1,1.12-2.89l.42,0a5.66,5.66,0,0,1-.92,3.39,3.41,3.41,0,0,1-2.66.92q-3.36,0-3.87-2.07a3,3,0,0,1-1.09,1.57,3.79,3.79,0,0,1-2.13.5q-4.14,0-4.14-3.39a2.76,2.76,0,0,1,1.58-2.73A12.09,12.09,0,0,1,592.21,137.27Zm-1,5.32a.58.58,0,0,0,.59.42c.29,0,.56-.24.81-.71a4.33,4.33,0,0,0,.38-2v-2.6h-.2c-1.15,0-1.73.85-1.73,2.55v.44A7.09,7.09,0,0,0,591.24,142.59Z"/><path class="cls-7" d="M600.92,130.52h6.74v2.58A4.62,4.62,0,0,1,609,131a4.2,4.2,0,0,1,2.8-.79q4.33,0,4.34,4.68v8.43h1.56v.5h-7.92v-.5H611v-9.1a6.36,6.36,0,0,0-.23-2.17.81.81,0,0,0-.81-.49c-.6,0-1.12.39-1.58,1.17a5.58,5.58,0,0,0-.69,2.86v7.73h1.21v.5h-8v-.5h1.54V131h-1.54Z"/><path class="cls-7" d="M626,130.75a1.84,1.84,0,0,0-1.77,1.34,13.39,13.39,0,0,0-.53,4.45V138a9.37,9.37,0,0,0,.62,4,2.31,2.31,0,0,0,2.27,1.2,3.32,3.32,0,0,0,2.63-1.12,5.48,5.48,0,0,0,1.26-2.55l.5.06a5.65,5.65,0,0,1-2,3.47,6.51,6.51,0,0,1-4,1.09,6.71,6.71,0,0,1-5-1.75,7,7,0,0,1-1.73-5.12,6.75,6.75,0,0,1,2-5.2,7.83,7.83,0,0,1,5.5-1.82,6.32,6.32,0,0,1,3.81,1,2.89,2.89,0,0,1,1.32,2.42,3,3,0,0,1-.63,2.13,2.26,2.26,0,0,1-1.74.67,2.62,2.62,0,0,1-1.78-.59,2.2,2.2,0,0,1-.67-1.73,3.9,3.9,0,0,1,.14-1h.93a3.07,3.07,0,0,0,.19-1A1.19,1.19,0,0,0,626,130.75Z"/><path class="cls-7" d="M633.58,142.27a7.11,7.11,0,0,1-1.81-5.18,6.37,6.37,0,0,1,2-5.08,7.58,7.58,0,0,1,5.17-1.77q6.35,0,6.1,6.39h-7.89v1.09a9.5,9.5,0,0,0,.7,4.14,2.47,2.47,0,0,0,2.43,1.4c2.17,0,3.59-1.15,4.26-3.47l.5.08a5.73,5.73,0,0,1-1.92,3.14,6.48,6.48,0,0,1-4.15,1.12A7.22,7.22,0,0,1,633.58,142.27Zm3.62-6.2h2.89V134.7a11.66,11.66,0,0,0-.27-3.1,1.05,1.05,0,0,0-1.06-.83,1.25,1.25,0,0,0-1.18.89,8.57,8.57,0,0,0-.38,3Z"/><path class="cls-7" d="M565.89,167.85V159h-1.54v-.51h1.54v-3.61l5.21-1.29v4.9h3.64V159H571.1v9.43a5.14,5.14,0,0,0,.26,1.93,1.08,1.08,0,0,0,1.11.62,1.82,1.82,0,0,0,1.47-.84,4.84,4.84,0,0,0,.82-2.3l.48.06A5.47,5.47,0,0,1,574,171a4.28,4.28,0,0,1-3.33,1.13,5.9,5.9,0,0,1-3.56-.92A4,4,0,0,1,565.89,167.85Z"/><path class="cls-7" d="M575.52,150.85h6.75V161.1a4.6,4.6,0,0,1,1.37-2.07,4.21,4.21,0,0,1,2.8-.79q4.34,0,4.34,4.68v8.43h1.57v.5h-7.93v-.5h1.15v-9.1a6.45,6.45,0,0,0-.22-2.17.81.81,0,0,0-.81-.49,1.93,1.93,0,0,0-1.59,1.17,5.68,5.68,0,0,0-.68,2.86v7.73h1.2v.5h-8v-.5h1.54v-20h-1.54Z"/><path class="cls-7" d="M594.71,170.27a7.14,7.14,0,0,1-1.8-5.18,6.34,6.34,0,0,1,2-5.08,7.56,7.56,0,0,1,5.16-1.77q6.36,0,6.11,6.39h-7.9v1.09a9.5,9.5,0,0,0,.7,4.14,2.49,2.49,0,0,0,2.44,1.4c2.16,0,3.58-1.15,4.25-3.47l.51.08a5.85,5.85,0,0,1-1.92,3.14,6.5,6.5,0,0,1-4.16,1.12A7.24,7.24,0,0,1,594.71,170.27Zm3.63-6.2h2.88V162.7a12.25,12.25,0,0,0-.26-3.1,1.06,1.06,0,0,0-1.07-.83,1.24,1.24,0,0,0-1.17.89,8.57,8.57,0,0,0-.38,3Z"/><path class="cls-7" d="M613.94,165.27h.81v-2.15a13.71,13.71,0,0,0-.3-3.58,1.12,1.12,0,0,0-1.13-.9,1.59,1.59,0,0,0-.91.26.84.84,0,0,0-.41.73,2.88,2.88,0,0,0,.17.94h.7a3.93,3.93,0,0,1,.23,1.41,1.85,1.85,0,0,1-.7,1.43,2.64,2.64,0,0,1-1.77.6c-1.6,0-2.41-.77-2.41-2.32q0-3.45,5.86-3.45c2.22,0,3.75.38,4.6,1.14s1.28,2.14,1.28,4.16v5.68c0,1,.27,1.46.81,1.46s1-1,1.12-2.89l.42,0a5.72,5.72,0,0,1-.93,3.39,3.38,3.38,0,0,1-2.66.92c-2.24,0-3.52-.69-3.86-2.07a3,3,0,0,1-1.09,1.57,3.81,3.81,0,0,1-2.13.5q-4.14,0-4.14-3.39a2.74,2.74,0,0,1,1.58-2.73A12.09,12.09,0,0,1,613.94,165.27Zm-1,5.32a.58.58,0,0,0,.59.42c.29,0,.56-.24.81-.71a4.33,4.33,0,0,0,.38-2v-2.6h-.2c-1.16,0-1.73.85-1.73,2.55v.44A7.09,7.09,0,0,0,613,170.59Z"/><path class="cls-7" d="M623.57,167.85V159H622v-.51h1.54v-3.61l5.21-1.29v4.9h3.64V159h-3.64v9.43a5.14,5.14,0,0,0,.26,1.93,1.08,1.08,0,0,0,1.11.62,1.82,1.82,0,0,0,1.47-.84,4.84,4.84,0,0,0,.82-2.3l.48.06a5.47,5.47,0,0,1-1.23,3.07,4.29,4.29,0,0,1-3.33,1.13,5.9,5.9,0,0,1-3.56-.92A4,4,0,0,1,623.57,167.85Z"/><path class="cls-7" d="M642.55,159.31a2.19,2.19,0,0,0-1.82,1.34,6.26,6.26,0,0,0-.78,3.19v7.51h2v.5H633.2v-.5h1.54V159H633.2v-.51H640v2.69a3.77,3.77,0,0,1,3.75-3,3.09,3.09,0,0,1,2.14.74,2.7,2.7,0,0,1,.83,2.1,3.14,3.14,0,0,1-.62,2.09,2.32,2.32,0,0,1-1.89.73,2.14,2.14,0,0,1-1.87-.84,2.57,2.57,0,0,1-.16-2.33h1C643.61,159.78,643.41,159.31,642.55,159.31Z"/><path class="cls-7" d="M648.87,170.27a7.11,7.11,0,0,1-1.81-5.18,6.37,6.37,0,0,1,2-5.08,7.58,7.58,0,0,1,5.17-1.77q6.35,0,6.1,6.39h-7.9v1.09a9.65,9.65,0,0,0,.7,4.14,2.49,2.49,0,0,0,2.44,1.4c2.16,0,3.58-1.15,4.26-3.47l.5.08a5.79,5.79,0,0,1-1.92,3.14,6.5,6.5,0,0,1-4.16,1.12A7.21,7.21,0,0,1,648.87,170.27Zm3.62-6.2h2.89V162.7a11.66,11.66,0,0,0-.27-3.1,1.05,1.05,0,0,0-1.06-.83,1.25,1.25,0,0,0-1.18.89,8.57,8.57,0,0,0-.38,3Z"/><path class="cls-7" d="M584.2,223.88c0,3.85-1.08,6.52-3.25,8q-3,2.1-8.23,2.1H564.8v-.54h1.84V215H564.8v-.53h8.65q5.37,0,8.06,2.19T584.2,223.88Zm-12.1,9.6h1.07a4.34,4.34,0,0,0,4-2c.82-1.33,1.22-3.57,1.22-6.7v-1.63q0-6.3-2.41-7.59a6.94,6.94,0,0,0-3.24-.61h-.68Z"/><path class="cls-7" d="M595,221.47a2.2,2.2,0,0,0-1.82,1.35,6.23,6.23,0,0,0-.78,3.19v7.5h2V234h-8.73v-.51h1.54V221.19h-1.54v-.5h6.75v2.69a3.71,3.71,0,0,1,1.4-2.2,3.85,3.85,0,0,1,2.35-.77,3.11,3.11,0,0,1,2.14.74,2.67,2.67,0,0,1,.83,2.1,3.16,3.16,0,0,1-.62,2.09,2.35,2.35,0,0,1-1.89.72,2.16,2.16,0,0,1-1.88-.84,2.58,2.58,0,0,1-.15-2.32h1C596,222,595.84,221.47,595,221.47Z"/><path class="cls-7" d="M605.79,227.44h.81v-2.16a14.29,14.29,0,0,0-.29-3.57,1.14,1.14,0,0,0-1.14-.91,1.62,1.62,0,0,0-.91.27.81.81,0,0,0-.4.72,2.81,2.81,0,0,0,.16.94h.7a4,4,0,0,1,.23,1.42,1.83,1.83,0,0,1-.7,1.42,2.59,2.59,0,0,1-1.77.61,2.09,2.09,0,0,1-2.4-2.33q0-3.43,5.85-3.44c2.22,0,3.75.38,4.6,1.13s1.28,2.14,1.28,4.16v5.68c0,1,.27,1.46.81,1.46s1-1,1.12-2.88l.42,0a5.68,5.68,0,0,1-.92,3.39,3.38,3.38,0,0,1-2.66.93c-2.24,0-3.53-.69-3.87-2.08a3,3,0,0,1-1.09,1.57,3.72,3.72,0,0,1-2.13.51q-4.14,0-4.14-3.39a2.72,2.72,0,0,1,1.58-2.73A11.92,11.92,0,0,1,605.79,227.44Zm-1,5.32a.58.58,0,0,0,.59.42q.44,0,.81-.72a4.25,4.25,0,0,0,.38-2v-2.61h-.2c-1.15,0-1.73.85-1.73,2.55v.45A7.14,7.14,0,0,0,604.82,232.76Z"/><path class="cls-7" d="M625.53,219.23l.78-.47c.11-.58-.11-.87-.67-.87-.8,0-1.2.61-1.2,1.85a8.54,8.54,0,0,0,.19,1.68,4.26,4.26,0,0,1,2.13,3.65,4.18,4.18,0,0,1-1.54,3.46,6.51,6.51,0,0,1-4.17,1.23,12,12,0,0,1-2.27-.22q-1.23.78-1.23,1.17c0,.26.59.39,1.79.39h2.86c4.23,0,6.35,1.53,6.35,4.57a4.62,4.62,0,0,1-1.92,3.9q-1.92,1.45-6,1.45c-4.62,0-6.92-1-6.92-3,0-1.08.72-1.83,2.16-2.24l1.68.76a5.75,5.75,0,0,0-.23,1.54c0,1.6,1.2,2.4,3.59,2.4a5.92,5.92,0,0,0,3.36-.81,2.39,2.39,0,0,0,1.17-2,1.69,1.69,0,0,0-.71-1.61,6.58,6.58,0,0,0-2.84-.41H619.2a5.36,5.36,0,0,1-3.25-.76,2.27,2.27,0,0,1-1-1.86,2.6,2.6,0,0,1,.7-1.85,13.29,13.29,0,0,1,2.49-1.83,4,4,0,0,1-3.24-4.26,4.2,4.2,0,0,1,1.51-3.38,6.84,6.84,0,0,1,4.53-1.29,6.38,6.38,0,0,1,3.11.7,6.55,6.55,0,0,1-.17-1.37,2.8,2.8,0,0,1,.84-2.27,2.85,2.85,0,0,1,1.88-.7,2.48,2.48,0,0,1,1.67.54,1.9,1.9,0,0,1,.63,1.5,1.82,1.82,0,0,1-.51,1.42,1.76,1.76,0,0,1-1.22.46,1.81,1.81,0,0,1-1.17-.38A1.38,1.38,0,0,1,625.53,219.23Zm-5.94,5.24V226a6.85,6.85,0,0,0,.32,2.55,1,1,0,0,0,1,.67,1,1,0,0,0,1-.66,8.1,8.1,0,0,0,.29-2.7v-1.37a9.12,9.12,0,0,0-.28-2.87,1,1,0,0,0-.94-.69,1.06,1.06,0,0,0-1,.72A7.6,7.6,0,0,0,619.59,224.47Z"/></svg>