<svg id="Layer_1" data-name="Layer 1" xmlns="http://www.w3.org/2000/svg" viewBox="0 0 2484.6 288.74"><defs><style>.cls-1{fill:#eae6d6;stroke:#ccc08f;stroke-miterlimit:10;opacity:0.87;}.cls-2{fill:#c9c097;}.cls-3{fill:#eddfa6;}.cls-4{fill:#af9ca1;}.cls-5{fill:#c2df97;}.cls-6{fill:#f67c87;}.cls-7{font-size:28px;fill:#4c4c4c;font-family:AbrilFatface-Regular, Abril Fatface;}.cls-8{letter-spacing:-0.01em;}.cls-9{letter-spacing:-0.03em;}.cls-10{letter-spacing:-0.01em;}.cls-11{letter-spacing:0em;}.cls-12{letter-spacing:0em;}.cls-13{fill:#f7b289;}.cls-14{fill:#bdc1ae;}.cls-15{fill:#d08c87;}.cls-16{letter-spacing:-0.05em;}.cls-17{letter-spacing:-0.01em;}.cls-18{letter-spacing:-0.03em;}.cls-19{letter-spacing:-0.02em;}.cls-20{fill:#867888;}.cls-21{fill:#99ad77;}.cls-22{fill:#c0aaaf;}.cls-23{fill:#79a5ae;}.cls-24{fill:#55774d;}.cls-25{fill:#d1bb80;}.cls-26{letter-spacing:-0.03em;}.cls-27{letter-spacing:-0.03em;}.cls-28{fill:#c65c7f;}.cls-29{fill:#f3bef1;}.cls-30{letter-spacing:-0.05em;}.cls-31{letter-spacing:-0.01em;}.cls-32{fill:#a9aedb;}.cls-33{fill:#f3df8c;}.cls-34{fill:#a8dcc6;}.cls-35{fill:#373e7a;}</style></defs><path class="cls-1" d="M20,13s756.78.75,1171.07.75,1272.51,2.9,1272.51,2.9V269.9H1211.1C710.09,269.9,20,275.78,20,275.78Z"/><path class="cls-2" d="M38.7,16.59S24,123.26,24,152.59,36.48,278.42,36.48,278.42H1.37s9.78-75.16,9.78-125.83-9.78-136-9.78-136Z"/><path class="cls-3" d="M1.37,15C1.37,7.71,9.59,1.71,20,1.71c12.22,0,18.66,4.88,18.66,11.55,0,9.11-11.11,12.45-19.77,12.45S1.37,20.17,1.37,15Z"/><path class="cls-3" d="M1.37,276.37C1.37,269,9.59,263,20,263c12.22,0,18.66,4.88,18.66,11.55,0,9.12-11.11,12.45-19.77,12.45S1.37,281.51,1.37,276.37Z"/><path class="cls-2" d="M8.59,18.66c4-.62,8-1,11.77-1.67a37,37,0,0,0,5.46-1.25c.43-.13.78-.31,1.18-.45a9.71,9.71,0,0,0,1.06-.59,3.41,3.41,0,0,0,1.32-1.26,1,1,0,0,0-.05-1A3.26,3.26,0,0,0,28,11.21a7.2,7.2,0,0,0-2.24-.79,17.58,17.58,0,0,0-2.66-.34,18.94,18.94,0,0,0-2.72.07,7.76,7.76,0,0,0-1.25.21c-.38.07-.72.32-.71.23s-.09-.27-.06-.12a1.44,1.44,0,0,0,.23.44,3.75,3.75,0,0,0,1,.83,12,12,0,0,0,2.67,1.2,8.59,8.59,0,0,1-3.1-.18,4.4,4.4,0,0,1-1.57-.71,3.19,3.19,0,0,1-.71-.71,1.66,1.66,0,0,1-.21-1.54,2.48,2.48,0,0,1,.79-1,5.58,5.58,0,0,1,.81-.53,10.12,10.12,0,0,1,1.59-.66A15.31,15.31,0,0,1,23,6.94a15.62,15.62,0,0,1,3.28,0A11.4,11.4,0,0,1,28,7.2a11.1,11.1,0,0,1,1.75.62,7,7,0,0,1,3,2.66,5.12,5.12,0,0,1,.69,2.3A5,5,0,0,1,33,15.19a7,7,0,0,1-2.86,2.88,13.6,13.6,0,0,1-1.58.78,16.11,16.11,0,0,1-1.63.52,27.44,27.44,0,0,1-6.27.75A45.54,45.54,0,0,1,8.59,18.66Z"/><path class="cls-2" d="M8.59,270a45.13,45.13,0,0,1,12-1.46,26.9,26.9,0,0,1,6.27.75,16.11,16.11,0,0,1,1.63.52,12.17,12.17,0,0,1,1.58.78A7,7,0,0,1,33,273.5a5.07,5.07,0,0,1,.48,2.42,5.16,5.16,0,0,1-.69,2.3,7.11,7.11,0,0,1-3,2.66,10.12,10.12,0,0,1-1.75.61,11.45,11.45,0,0,1-1.69.28,17.1,17.1,0,0,1-3.28,0,15.31,15.31,0,0,1-3.19-.65,11.17,11.17,0,0,1-1.59-.66,6.56,6.56,0,0,1-.81-.53,2.48,2.48,0,0,1-.79-1,1.66,1.66,0,0,1,.21-1.54,3.19,3.19,0,0,1,.71-.71,4.26,4.26,0,0,1,1.57-.72,8.59,8.59,0,0,1,3.1-.17,12,12,0,0,0-2.67,1.2,3.4,3.4,0,0,0-1,.83,1.44,1.44,0,0,0-.23.44c0,.15.08-.06.06-.13s.33.16.71.23a6.78,6.78,0,0,0,1.25.22,17.6,17.6,0,0,0,2.72.06,16.39,16.39,0,0,0,2.66-.33,7.75,7.75,0,0,0,2.24-.79,3.33,3.33,0,0,0,1.34-1.24,1,1,0,0,0,.05-1A3.42,3.42,0,0,0,28.06,274a11.72,11.72,0,0,0-1.06-.58c-.4-.14-.75-.33-1.18-.46a38.3,38.3,0,0,0-5.46-1.25C16.54,271.05,12.59,270.66,8.59,270Z"/><path class="cls-2" d="M2445.94,16.59s14.67,106.67,14.67,136-12.45,125.83-12.45,125.83h35.11s-9.77-75.16-9.77-125.83,9.77-136,9.77-136Z"/><path class="cls-3" d="M2483.27,15c0-7.33-8.22-13.33-18.66-13.33-12.23,0-18.67,4.88-18.67,11.55,0,9.11,11.11,12.45,19.78,12.45S2483.27,20.17,2483.27,15Z"/><path class="cls-3" d="M2483.27,276.37c0-7.33-8.22-13.33-18.66-13.33-12.23,0-18.67,4.88-18.67,11.55,0,9.12,11.11,12.45,19.78,12.45S2483.27,281.51,2483.27,276.37Z"/><path class="cls-2" d="M2476.05,18.66a45.49,45.49,0,0,1-12,1.46,27.36,27.36,0,0,1-6.26-.75,14.64,14.64,0,0,1-1.63-.52,14.57,14.57,0,0,1-1.59-.78,7,7,0,0,1-2.85-2.88,4.92,4.92,0,0,1-.49-2.41,5.12,5.12,0,0,1,.69-2.3,7,7,0,0,1,3.06-2.66,10.43,10.43,0,0,1,1.75-.62,11.2,11.2,0,0,1,1.69-.27,16.53,16.53,0,0,1,6.47.66,10,10,0,0,1,1.58.66,4.67,4.67,0,0,1,.81.53,2.4,2.4,0,0,1,.79,1,1.63,1.63,0,0,1-.21,1.54,3.15,3.15,0,0,1-.7.71,4.44,4.44,0,0,1-1.58.71,8.59,8.59,0,0,1-3.1.18,12,12,0,0,0,2.67-1.2,4,4,0,0,0,1-.83,1.44,1.44,0,0,0,.23-.44c0-.15-.09.06-.06.12s-.33-.16-.71-.23a7.88,7.88,0,0,0-1.26-.21,18.76,18.76,0,0,0-2.71-.07,17.88,17.88,0,0,0-2.67.34,7.2,7.2,0,0,0-2.24.79,3.33,3.33,0,0,0-1.34,1.24,1,1,0,0,0,0,1,3.34,3.34,0,0,0,1.32,1.26,8.71,8.71,0,0,0,1,.59c.4.14.75.32,1.18.45a37.12,37.12,0,0,0,5.47,1.25C2468.11,17.64,2472.05,18,2476.05,18.66Z"/><path class="cls-2" d="M2476.05,270c-4,.62-7.94,1-11.76,1.66a38.44,38.44,0,0,0-5.47,1.25c-.43.13-.78.32-1.18.46a10.31,10.31,0,0,0-1,.58,3.35,3.35,0,0,0-1.32,1.27,1,1,0,0,0,0,1,3.4,3.4,0,0,0,1.34,1.24,7.75,7.75,0,0,0,2.24.79,16.66,16.66,0,0,0,2.67.33,17.44,17.44,0,0,0,2.71-.06,6.89,6.89,0,0,0,1.26-.22c.38-.07.72-.31.71-.23s.08.28.06.13a1.44,1.44,0,0,0-.23-.44,3.6,3.6,0,0,0-1-.83,12,12,0,0,0-2.67-1.2,8.59,8.59,0,0,1,3.1.17,4.3,4.3,0,0,1,1.58.72,3.15,3.15,0,0,1,.7.71,1.63,1.63,0,0,1,.21,1.54,2.4,2.4,0,0,1-.79,1,5.34,5.34,0,0,1-.81.53,11.07,11.07,0,0,1-1.58.66,15.58,15.58,0,0,1-3.19.65,17.11,17.11,0,0,1-3.28,0,11.24,11.24,0,0,1-1.69-.28,9.57,9.57,0,0,1-1.75-.61,7.08,7.08,0,0,1-3.06-2.66,5.16,5.16,0,0,1-.69-2.3,5,5,0,0,1,.49-2.42,7.08,7.08,0,0,1,2.85-2.87,13,13,0,0,1,1.59-.78,14.64,14.64,0,0,1,1.63-.52,26.82,26.82,0,0,1,6.26-.75A45.08,45.08,0,0,1,2476.05,270Z"/><polygon class="cls-4" points="126.98 27.8 126.08 48.81 142.87 61.46 122.61 67.09 115.76 86.97 104.15 69.44 83.13 69.07 96.2 52.61 90.06 32.51 109.76 39.86 126.98 27.8"/><polygon class="cls-5" points="121.96 122.74 115.74 142.82 128.76 159.33 107.74 159.63 96.06 177.11 89.29 157.21 69.05 151.5 85.89 138.91 85.05 117.9 102.23 130.02 121.96 122.74"/><polygon class="cls-6" points="142.14 233.11 123.88 243.54 122.12 264.49 106.56 250.35 86.09 255.15 94.74 235.98 83.85 217.99 104.75 220.29 118.49 204.38 122.76 224.96 142.14 233.11"/><text class="cls-7" transform="translate(166.53 57.94)">Bol<tspan class="cls-8" x="42.5" y="0">l</tspan><tspan x="50.93" y="0">y</tspan><tspan class="cls-9" x="65.83" y="0">w</tspan><tspan x="88.2" y="0">ood </tspan><tspan x="0" y="28">dance</tspan></text><text class="cls-7" transform="translate(162.73 145.22)">Classical <tspan x="0" y="28">dance</tspan></text><text class="cls-7" transform="translate(162.73 234.02)"><tspan class="cls-10">C</tspan><tspan x="19.04" y="0">o</tspan><tspan class="cls-11" x="34.24" y="0">n</tspan><tspan x="51.35" y="0">tempo</tspan><tspan class="cls-8" x="133.36" y="0">r</tspan><tspan x="146.8" y="0">a</tspan><tspan class="cls-8" x="162.18" y="0">r</tspan><tspan class="cls-12" x="175.62" y="0">y </tspan><tspan x="0" y="28">dance</tspan></text><polygon class="cls-13" points="1350.93 27.8 1350.02 48.81 1366.81 61.46 1346.55 67.09 1339.71 86.97 1328.09 69.44 1307.07 69.07 1320.15 52.61 1314.01 32.51 1333.7 39.86 1350.93 27.8"/><polygon class="cls-14" points="1351.53 119.61 1345.32 139.69 1358.34 156.2 1337.31 156.49 1325.64 173.98 1318.86 154.07 1298.62 148.37 1315.46 135.78 1314.63 114.77 1331.81 126.89 1351.53 119.61"/><polygon class="cls-15" points="1366.09 221.91 1347.83 232.34 1346.07 253.29 1330.51 239.15 1310.04 243.94 1318.68 224.78 1307.8 206.79 1328.69 209.09 1342.43 193.18 1346.71 213.76 1366.09 221.91"/><text class="cls-7" transform="translate(1378.72 57.94)"><tspan class="cls-16">F</tspan><tspan x="15.18" y="0">olk dance</tspan></text><text class="cls-7" transform="translate(1378.72 145.22)">Imme<tspan class="cls-17" x="74.12" y="0">r</tspan><tspan x="87.64" y="0">s</tspan><tspan class="cls-18" x="99.79" y="0">i</tspan><tspan class="cls-19" x="107.83" y="0">v</tspan><tspan x="122.02" y="0">e </tspan><tspan x="0" y="28">the</tspan><tspan class="cls-8" x="42.73" y="28">a</tspan><tspan x="57.68" y="28">t</tspan><tspan class="cls-11" x="68.71" y="28">r</tspan><tspan x="82.43" y="28">e</tspan></text><text class="cls-7" transform="translate(1378.72 234.02)">M<tspan class="cls-10" x="23.52" y="0">i</tspan><tspan class="cls-9" x="32.12" y="0">x</tspan><tspan class="cls-12" x="47.8" y="0">ed media</tspan></text><polygon class="cls-20" points="1781.47 26.29 1780.57 47.29 1797.36 59.95 1777.1 65.57 1770.25 85.45 1758.64 67.93 1737.62 67.56 1750.7 51.1 1744.55 30.99 1764.25 38.34 1781.47 26.29"/><polygon class="cls-21" points="1761.39 110.79 1755.17 130.87 1768.19 147.38 1747.17 147.67 1735.49 165.16 1728.72 145.25 1708.48 139.55 1725.32 126.96 1724.49 105.95 1741.67 118.07 1761.39 110.79"/><polygon class="cls-22" points="1797.34 225.6 1779.08 236.03 1777.32 256.98 1761.76 242.84 1741.29 247.63 1749.94 228.47 1739.05 210.48 1759.95 212.78 1773.69 196.87 1777.96 217.45 1797.34 225.6"/><text class="cls-7" transform="translate(1801.71 57.94)"><tspan class="cls-10">M</tspan><tspan x="23.24" y="0">ultimedia</tspan></text><text class="cls-7" transform="translate(1799.2 145.22)"><tspan class="cls-10">M</tspan><tspan x="23.24" y="0">usic</tspan></text><text class="cls-7" transform="translate(1801.71 234.02)"><tspan class="cls-8">N</tspan><tspan class="cls-10" x="18.34" y="0">a</tspan><tspan x="33.43" y="0">utanki</tspan></text><polygon class="cls-23" points="2162.2 26.43 2161.29 47.44 2178.08 60.09 2157.82 65.72 2150.98 85.6 2139.36 68.07 2118.34 67.7 2131.42 51.24 2125.28 31.14 2144.97 38.49 2162.2 26.43"/><polygon class="cls-24" points="2176.61 119.61 2170.39 139.69 2183.41 156.2 2162.39 156.49 2150.71 173.98 2143.94 154.07 2123.7 148.37 2140.54 135.78 2139.7 114.77 2156.89 126.89 2176.61 119.61"/><polygon class="cls-25" points="2206.51 224.23 2188.25 234.66 2186.49 255.61 2170.93 241.47 2150.46 246.27 2159.1 227.1 2148.21 209.11 2169.11 211.41 2182.85 195.5 2187.12 216.08 2206.51 224.23"/><text class="cls-7" transform="translate(2211.89 56.57)"><tspan class="cls-18">P</tspan><tspan x="16.91" y="0">oet</tspan><tspan class="cls-8" x="57.6" y="0">r</tspan><tspan class="cls-26" x="71.04" y="0">y</tspan><tspan x="85.09" y="0">/R</tspan><tspan class="cls-10" x="114.97" y="0">a</tspan><tspan x="130.06" y="0">p/</tspan><tspan x="0" y="28">Spo</tspan><tspan class="cls-19" x="48.47" y="28">k</tspan><tspan x="65.13" y="28">en </tspan><tspan class="cls-27" x="101.86" y="28">w</tspan><tspan x="124.24" y="28">ord</tspan></text><text class="cls-7" transform="translate(2211.89 143.85)">Sto<tspan class="cls-8" x="43.04" y="0">r</tspan><tspan x="56.48" y="0">ytelling</tspan></text><text class="cls-7" transform="translate(2211.89 232.65)">The<tspan class="cls-8" x="50.82" y="0">a</tspan><tspan x="65.77" y="0">t</tspan><tspan class="cls-11" x="76.8" y="0">r</tspan><tspan x="90.52" y="0">e</tspan></text><polygon class="cls-28" points="941.67 119.61 935.46 139.69 948.48 156.2 927.46 156.49 915.78 173.98 909 154.07 888.77 148.37 905.6 135.78 904.77 114.77 921.95 126.89 941.67 119.61"/><polygon class="cls-29" points="947.77 221.91 929.51 232.34 927.75 253.29 912.19 239.15 891.72 243.94 900.36 224.78 889.48 206.79 910.37 209.09 924.11 193.18 928.39 213.76 947.77 221.91"/><text class="cls-7" transform="translate(971.18 57.94)"><tspan class="cls-8">E</tspan><tspan x="17.05" y="0">xperime</tspan><tspan class="cls-11" x="126.67" y="0">n</tspan><tspan x="143.78" y="0">tal </tspan><tspan x="0" y="28">dance</tspan></text><text class="cls-7" transform="translate(971.18 145.22)"><tspan class="cls-30">F</tspan><tspan class="cls-12" x="15.18" y="0">emini</tspan><tspan class="cls-31" x="89.49" y="0">s</tspan><tspan x="101.36" y="0">t </tspan><tspan x="0" y="28">the</tspan><tspan class="cls-8" x="42.73" y="28">a</tspan><tspan x="57.68" y="28">t</tspan><tspan class="cls-11" x="68.71" y="28">r</tspan><tspan x="82.43" y="28">e</tspan></text><text class="cls-7" transform="translate(971.18 234.02)">Film</text><polygon class="cls-32" points="967.38 54.55 949.12 64.97 947.36 85.92 931.8 71.78 911.33 76.58 919.97 57.41 909.09 39.43 929.98 41.73 943.72 25.81 948 46.4 967.38 54.55"/><polygon class="cls-33" points="532.97 204.85 532.06 225.85 548.85 238.51 528.59 244.14 521.75 264.02 510.13 246.49 489.11 246.12 502.19 229.66 496.05 209.55 515.74 216.91 532.97 204.85"/><polygon class="cls-34" points="522.75 32.69 521.84 53.69 538.63 66.35 518.38 71.97 511.53 91.85 499.92 74.33 478.89 73.96 491.97 57.5 485.83 37.39 505.53 44.74 522.75 32.69"/><polygon class="cls-35" points="531.82 122.74 525.6 142.82 538.62 159.33 517.6 159.63 505.92 177.11 499.14 157.21 478.91 151.5 495.74 138.91 494.91 117.9 512.09 130.02 531.82 122.74"/><text class="cls-7" transform="translate(564.21 57.94)"><tspan class="cls-11">D</tspan><tspan x="21" y="0">ance as political </tspan><tspan x="0" y="28">discou</tspan><tspan class="cls-17" x="83.16" y="28">r</tspan><tspan x="96.68" y="28">se</tspan></text><text class="cls-7" transform="translate(564.21 145.22)"><tspan class="cls-11">D</tspan><tspan x="21" y="0">ance </tspan><tspan x="0" y="28">the</tspan><tspan class="cls-8" x="42.73" y="28">a</tspan><tspan x="57.68" y="28">t</tspan><tspan class="cls-11" x="68.71" y="28">r</tspan><tspan x="82.43" y="28">e</tspan></text><text class="cls-7" transform="translate(564.21 234.02)">D<tspan class="cls-8" x="21.14" y="0">r</tspan><tspan class="cls-11" x="34.58" y="0">a</tspan><tspan x="49.81" y="0">g</tspan></text></svg>