<svg id="Layer_1" data-name="Layer 1" xmlns="http://www.w3.org/2000/svg" viewBox="0 0 499.56 600.89"><defs><style>.cls-1{fill:#a9aedb;}.cls-2,.cls-3{fill:#777fad;}.cls-3{opacity:0.5;}</style></defs><path class="cls-1" d="M100.83,551.78a1,1,0,0,0,2,.53c14.66-43.45,55-162.18,58.22-163.47,3.95-1.58,59.81-24.78,63.77-23.2s21.82,79.29,25,90.36-1.88,95.6,4.44,97.19,10.89-97.43,13.26-103.75-22.13-96.44-19-102,34-39.52,38.74-56.12,69.56-128.86,67.19-145.46-147-73-145.45-68.26S309.38,149,311,153.79s-36.36,84.58-49,93.28S157.31,314.94,148.61,334.7s-13.93,44.38-25.79,106C114.57,483.66,105.55,528.49,100.83,551.78Z"/><path class="cls-1" d="M273,287.38c8.41,15.78,35.57,125.7,38.73,131.23S365.51,549,361.56,549.83,301.48,466,292.78,451,226,307.15,226,307.15Z"/><path class="cls-2" d="M257.47,238.37c7.38-11.59,43.34-59.79,41.11-76.94s-47-20-50.07-32.68,34.38-37.94,45.38-37.94,78.47,49.54,78.47,60.08-88.76,144.3-90.17,151.3,27,51.23,24.82,72.15S354.5,505.27,354.5,505.27s-23.25,20.85-28.52,23-67.21-152.09-78.28-170c0,0,25.39-42.7,17.78-53.78s-43.9-30.17-43.9-30.17Z"/><path class="cls-3" d="M248.51,287.38c4.75,9.49,21,2.84,21,17.06s-10.53,68-10.53,68,14.59,47.8,17.19,65.19c1.65,11.06-17.79,12.23-32.2,13.2s-11.36-67-22.37-65.42-39.47,19-47.38,20.55-20.12,61.65-31.3,61.66-39.84-19-33.52-26.88,18-112.52,33.52-121.08,88-54.67,88-54.67Z"/><ellipse class="cls-1" cx="142.9" cy="319.66" rx="34.78" ry="47.83" transform="translate(-103.47 70.86) rotate(-20.63)"/></svg>