<svg id="Layer_1" data-name="Layer 1" xmlns="http://www.w3.org/2000/svg" viewBox="0 0 499.56 600.89"><defs><style>.cls-1{fill:#c65c7f;}.cls-2{fill:#db7fa2;opacity:0.58;}</style></defs><ellipse class="cls-1" cx="261.44" cy="125.82" rx="37.26" ry="28.39" transform="translate(109.64 373.08) rotate(-84.15)"/><path class="cls-1" d="M214,582.93s8,18.62,10.65,17.74,6.21-17.74,6.21-17.74Z"/><path class="cls-1" d="M281.46,576.72s3.55,26.67,7.09,24,8-24,8-24Z"/><path class="cls-1" d="M219.18,275.63a23.85,23.85,0,0,0,2.33-24.24c-10.06-21.5-27.42-63.38-28.76-82.71C191,143,179.45-5.18,183.88.14s24,111.77,25.73,121.52,16,46.13,18.62,50.57,70.08,0,82.5,9.75,40.8,106.45,40.8,126S340,367.38,340,367.38s-8.87-77.18-10.64-86.05-20.4-63-23.07-63.86,0,33.7,3.55,46.12,64.76,181,69.19,226.2,8,84.27,8,84.27-199.15,17.74-209.79,7.09-36.81-3.55-36.81-3.55,40.8-226.19,55-259.9A207.61,207.61,0,0,1,219.18,275.63Z"/><path class="cls-2" d="M322.76,281.1c-1.77-8.87-13.8-62.75-16.47-63.63s0,33.7,3.55,46.12,64.76,181,69.19,226.2,8,84.27,8,84.27-173.46-7.7-184.11-18.34-41.31,5.9-41.31,5.9,19.62-210.21,33.81-243.92a207.61,207.61,0,0,1,23.77-42.07,23.85,23.85,0,0,0,2.33-24.24c-10.06-21.5-27.42-63.38-28.76-82.71,0,0-12.95-29.57-12.95-35.48s33.44-13.76,33.44-13.76c1.78,9.76,15,42.78,17.66,47.22s75.51,6.31,87.93,16.07c0,0,18.36,34.43,22.3,43.28s14.75,51.81,14.75,51.81Z"/></svg>