<svg id="Layer_1" data-name="Layer 1" xmlns="http://www.w3.org/2000/svg" viewBox="0 0 499.56 600.89"><defs><style>.cls-1,.cls-2{fill:#c4d88d;}.cls-2{opacity:0.51;}</style></defs><path class="cls-1" d="M187,178.6c9.12-9.12,72.4-7.09,82.78-10.13s81.27-10.13,90.38-14.18S430,82.4,431,88.47s-60.76,82.06-68.86,88.14-92.67,7-92.41,20.21-23,87.09-22,103.29S271,395.3,274,421.63s20.28,168.18,17.21,169.11c-4.22,1.28-42.53-158-46.58-168.1s-30.37-83.21-30.37-83.21,0,120.68-3,133.84-42.53,125.57-46.58,127.59,21.26-112.4,20.25-128.6S157.59,350.74,158.6,338.59s8.1-98.22,13.16-117.46S187,178.6,187,178.6Z"/><path class="cls-1" d="M191.8,210.26c-13.64,21.54-55.74,72.14-61,80.84S85.83,383,81.13,374s26-82.66,31.06-93.3S183.44,184.78,187,178.6,191.8,210.26,191.8,210.26Z"/><ellipse class="cls-1" cx="249.78" cy="114.49" rx="44" ry="32.67" transform="translate(56.35 309.63) rotate(-69.88)"/><path class="cls-2" d="M280.12,200.88c-1,15.18-18.2,73.18-16.38,93.92,1.35,15.4,60.54,144.72,26.5,151.13-15.22,2.87-123.56,31-136.07,18.83s3-197,4.4-200.76c5.32-14.47-20.94,38-26,41s-37.66,4.05-39.69,0,70.75-118.23,77.84-128.39,108.25-18.27,124-16.24S353,137.08,361.13,131s33.41,11.14,35.44,21.27-19.24,31.39-48.61,40.5S280.12,200.88,280.12,200.88Z"/><path class="cls-1" d="M158.57,576.56c8.23,4.24,25.35,4.05,25.35,4.05s40.5-109.36,42.53-117.46,0-86.72,0-86.72,30.38,138.36,34.43,147.47S270,564.41,272,568.46s29.37,2,35.45-3-23.29-163.66-31.39-176-27.35-82.05-27.35-82.05l-85.27,18.06s10,84.37,12.72,101.93S158.57,576.56,158.57,576.56Z"/></svg>