<svg id="Layer_1" data-name="Layer 1" xmlns="http://www.w3.org/2000/svg" viewBox="0 0 105.28 285.33"><defs><style>.cls-1{fill:#eae6d6;stroke:#ccc08f;stroke-miterlimit:10;}.cls-2{fill:#c9c097;}.cls-3{fill:#eddfa6;}.cls-4{font-size:38px;fill:#7c7c7c;font-family:AbrilFatface-Regular, Abril Fatface;}.cls-5{letter-spacing:-0.03em;}</style></defs><path class="cls-1" d="M20.67,11.26S38.86,24,50.61,24s39.32-9.11,39.32-9.11V268.2H54.43c-14.2,0-33.76,5.88-33.76,5.88Z"/><path class="cls-2" d="M39.34,14.89s-14.67,106.67-14.67,136S37.12,276.71,37.12,276.71H2s9.77-75.15,9.77-125.82S2,14.89,2,14.89Z"/><path class="cls-3" d="M2,13.33C2,6,10.23,0,20.67,0,32.89,0,39.34,4.89,39.34,11.56,39.34,20.67,28.23,24,19.56,24S2,18.47,2,13.33Z"/><path class="cls-3" d="M2,274.67c0-7.34,8.22-13.34,18.66-13.34,12.22,0,18.67,4.89,18.67,11.56,0,9.11-11.11,12.44-19.78,12.44S2,279.8,2,274.67Z"/><path class="cls-2" d="M9.23,17c4-.62,7.94-1,11.76-1.66A38,38,0,0,0,26.45,14c.43-.13.79-.32,1.19-.46A9.52,9.52,0,0,0,28.69,13,3.35,3.35,0,0,0,30,11.73a1,1,0,0,0,0-1A3.4,3.4,0,0,0,28.63,9.5a7.71,7.71,0,0,0-2.25-.79,16.39,16.39,0,0,0-2.66-.33A17.44,17.44,0,0,0,21,8.44a6.89,6.89,0,0,0-1.26.22c-.38.07-.72.32-.71.23S19,8.61,19,8.76a1.44,1.44,0,0,0,.23.44,3.64,3.64,0,0,0,1,.84,12,12,0,0,0,2.67,1.19,8.64,8.64,0,0,1-3.11-.17,4.4,4.4,0,0,1-1.57-.71,3.2,3.2,0,0,1-.7-.72,1.63,1.63,0,0,1-.21-1.54,2.36,2.36,0,0,1,.78-1,4.53,4.53,0,0,1,.82-.53,9.71,9.71,0,0,1,1.58-.67,15.45,15.45,0,0,1,3.19-.65,17.11,17.11,0,0,1,3.28,0,12.67,12.67,0,0,1,1.69.28,10.7,10.7,0,0,1,1.75.61,7,7,0,0,1,3.05,2.66,5.08,5.08,0,0,1,.7,2.3,5.2,5.2,0,0,1-.49,2.42,7.08,7.08,0,0,1-2.85,2.87,13,13,0,0,1-1.59.78c-.54.18-1.1.41-1.63.53a27.34,27.34,0,0,1-6.26.74A45,45,0,0,1,9.23,17Z"/><path class="cls-2" d="M9.23,268.33a45,45,0,0,1,12-1.45,27.34,27.34,0,0,1,6.26.74,15.34,15.34,0,0,1,1.63.52,14.57,14.57,0,0,1,1.59.78,7.11,7.11,0,0,1,2.85,2.88,5.16,5.16,0,0,1,.49,2.41,5,5,0,0,1-.7,2.3,6.88,6.88,0,0,1-3.05,2.66,10.75,10.75,0,0,1-1.75.62,11.2,11.2,0,0,1-1.69.27,15.63,15.63,0,0,1-3.28,0,15.45,15.45,0,0,1-3.19-.65,9.64,9.64,0,0,1-1.58-.66,4.53,4.53,0,0,1-.82-.53,2.4,2.4,0,0,1-.78-1,1.64,1.64,0,0,1,.21-1.54,3.15,3.15,0,0,1,.7-.71,4.4,4.4,0,0,1,1.57-.71,8.65,8.65,0,0,1,3.11-.18,12,12,0,0,0-2.67,1.2,3.81,3.81,0,0,0-1,.83,1.44,1.44,0,0,0-.23.44c0,.15.08-.06.06-.12s.33.16.71.23a9.16,9.16,0,0,0,1.26.22,20.32,20.32,0,0,0,2.71.06,17.58,17.58,0,0,0,2.66-.34,7.43,7.43,0,0,0,2.25-.78A3.47,3.47,0,0,0,30,274.55a1.05,1.05,0,0,0,0-1,3.34,3.34,0,0,0-1.32-1.26,11.53,11.53,0,0,0-1.05-.59c-.4-.14-.76-.32-1.19-.45A36.69,36.69,0,0,0,21,270C17.17,269.35,13.23,269,9.23,268.33Z"/><path class="cls-2" d="M68,14.89s14.66,106.67,14.66,136S70.17,276.71,70.17,276.71h35.11S95.5,201.56,95.5,150.89s9.78-136,9.78-136Z"/><path class="cls-3" d="M105.28,13.33C105.28,6,97.06,0,86.61,0,74.39,0,68,4.89,68,11.56,68,20.67,79.06,24,87.72,24S105.28,18.47,105.28,13.33Z"/><path class="cls-3" d="M105.28,274.67c0-7.34-8.22-13.34-18.67-13.34-12.22,0-18.66,4.89-18.66,11.56,0,9.11,11.11,12.44,19.77,12.44S105.28,279.8,105.28,274.67Z"/><path class="cls-2" d="M98.06,17a45.13,45.13,0,0,1-12,1.46,27.34,27.34,0,0,1-6.26-.74c-.54-.12-1.09-.35-1.63-.53a11.68,11.68,0,0,1-1.59-.78,7,7,0,0,1-2.86-2.87,5.07,5.07,0,0,1-.48-2.42,5.2,5.2,0,0,1,.69-2.3,7.11,7.11,0,0,1,3-2.66,11,11,0,0,1,1.75-.61,13.08,13.08,0,0,1,1.7-.28,17,17,0,0,1,3.27,0,15.31,15.31,0,0,1,3.19.65,9.81,9.81,0,0,1,1.59.67,4.48,4.48,0,0,1,.81.53,2.37,2.37,0,0,1,.79,1,1.66,1.66,0,0,1-.21,1.54,3.43,3.43,0,0,1-.7.72,4.52,4.52,0,0,1-1.58.71,8.59,8.59,0,0,1-3.1.17A12,12,0,0,0,87.12,10a3.81,3.81,0,0,0,1-.84,1.64,1.64,0,0,0,.22-.44c0-.15-.08.06-.06.13s-.33-.16-.7-.23a7,7,0,0,0-1.26-.22,17.6,17.6,0,0,0-2.72-.06,16.53,16.53,0,0,0-2.66.33,7.75,7.75,0,0,0-2.24.79,3.33,3.33,0,0,0-1.34,1.24,1,1,0,0,0,0,1A3.35,3.35,0,0,0,78.6,13a8.68,8.68,0,0,0,1.05.58c.4.14.75.33,1.18.46a38.62,38.62,0,0,0,5.46,1.25C90.12,15.94,94.06,16.33,98.06,17Z"/><path class="cls-2" d="M98.06,268.33c-4,.62-7.94,1-11.77,1.67a37.28,37.28,0,0,0-5.46,1.25c-.43.13-.78.31-1.18.45a10.33,10.33,0,0,0-1.05.59,3.34,3.34,0,0,0-1.32,1.26,1.05,1.05,0,0,0,0,1,3.4,3.4,0,0,0,1.34,1.24,7.46,7.46,0,0,0,2.24.78,17.74,17.74,0,0,0,2.66.34,20.51,20.51,0,0,0,2.72-.06,9.43,9.43,0,0,0,1.26-.22c.37-.07.71-.32.7-.23s.09.27.06.12a1.64,1.64,0,0,0-.22-.44,4,4,0,0,0-1-.83,12,12,0,0,0-2.67-1.2,8.59,8.59,0,0,1,3.1.18,4.52,4.52,0,0,1,1.58.71,3.37,3.37,0,0,1,.7.71,1.67,1.67,0,0,1,.21,1.54,2.41,2.41,0,0,1-.79,1,4.48,4.48,0,0,1-.81.53,9.74,9.74,0,0,1-1.59.66,15.31,15.31,0,0,1-3.19.65,15.53,15.53,0,0,1-3.27,0,11.53,11.53,0,0,1-1.7-.27,11.1,11.1,0,0,1-1.75-.62,7,7,0,0,1-3-2.66,5.12,5.12,0,0,1-.69-2.3,5,5,0,0,1,.48-2.41,7.06,7.06,0,0,1,2.86-2.88,13,13,0,0,1,1.59-.78,14.64,14.64,0,0,1,1.63-.52,27.34,27.34,0,0,1,6.26-.74A45.12,45.12,0,0,1,98.06,268.33Z"/><text class="cls-4" transform="translate(43.5 90.35) rotate(90)">Le<tspan class="cls-5" x="42.26" y="0">g</tspan><tspan x="60.95" y="0">end</tspan></text></svg>