<svg id="Layer_1" data-name="Layer 1" xmlns="http://www.w3.org/2000/svg" viewBox="0 0 89.93 285.33"><defs><style>.cls-1{fill:#eae6d6;stroke:#ccc08f;stroke-miterlimit:10;}.cls-2{fill:#c9c097;}.cls-3{fill:#eddfa6;}.cls-4{font-size:38px;fill:#7c7c7c;font-family:AbrilFatface-Regular, Abril Fatface;}.cls-5{letter-spacing:-0.03em;}</style></defs><path class="cls-1" d="M20.67,11.26S38.86,24,50.61,24s39.32-9.11,39.32-9.11V268.2H54.43c-14.2,0-33.76,5.88-33.76,5.88Z"/><path class="cls-2" d="M39.34,14.89s-14.67,106.67-14.67,136S37.12,276.71,37.12,276.71H2s9.77-75.15,9.77-125.82S2,14.89,2,14.89Z"/><path class="cls-3" d="M2,13.33C2,6,10.23,0,20.67,0,32.89,0,39.34,4.89,39.34,11.56,39.34,20.67,28.23,24,19.56,24S2,18.47,2,13.33Z"/><path class="cls-3" d="M2,274.67c0-7.34,8.22-13.34,18.66-13.34,12.22,0,18.67,4.89,18.67,11.56,0,9.11-11.11,12.44-19.78,12.44S2,279.8,2,274.67Z"/><path class="cls-2" d="M9.23,17c4-.62,7.94-1,11.76-1.66A38,38,0,0,0,26.45,14c.43-.13.79-.32,1.19-.46A9.52,9.52,0,0,0,28.69,13,3.35,3.35,0,0,0,30,11.73a1,1,0,0,0,0-1A3.4,3.4,0,0,0,28.63,9.5a7.71,7.71,0,0,0-2.25-.79,16.39,16.39,0,0,0-2.66-.33A17.44,17.44,0,0,0,21,8.44a6.89,6.89,0,0,0-1.26.22c-.38.07-.72.32-.71.23S19,8.61,19,8.76a1.44,1.44,0,0,0,.23.44,3.64,3.64,0,0,0,1,.84,12,12,0,0,0,2.67,1.19,8.64,8.64,0,0,1-3.11-.17,4.4,4.4,0,0,1-1.57-.71,3.2,3.2,0,0,1-.7-.72,1.63,1.63,0,0,1-.21-1.54,2.36,2.36,0,0,1,.78-1,4.53,4.53,0,0,1,.82-.53,9.71,9.71,0,0,1,1.58-.67,15.45,15.45,0,0,1,3.19-.65,17.11,17.11,0,0,1,3.28,0,12.67,12.67,0,0,1,1.69.28,10.7,10.7,0,0,1,1.75.61,7,7,0,0,1,3.05,2.66,5.08,5.08,0,0,1,.7,2.3,5.2,5.2,0,0,1-.49,2.42,7.08,7.08,0,0,1-2.85,2.87,13,13,0,0,1-1.59.78c-.54.18-1.1.41-1.63.53a27.34,27.34,0,0,1-6.26.74A45,45,0,0,1,9.23,17Z"/><path class="cls-2" d="M9.23,268.33a45,45,0,0,1,12-1.45,27.34,27.34,0,0,1,6.26.74,15.34,15.34,0,0,1,1.63.52,14.57,14.57,0,0,1,1.59.78,7.11,7.11,0,0,1,2.85,2.88,5.16,5.16,0,0,1,.49,2.41,5,5,0,0,1-.7,2.3,6.88,6.88,0,0,1-3.05,2.66,10.75,10.75,0,0,1-1.75.62,11.2,11.2,0,0,1-1.69.27,15.63,15.63,0,0,1-3.28,0,15.45,15.45,0,0,1-3.19-.65,9.64,9.64,0,0,1-1.58-.66,4.53,4.53,0,0,1-.82-.53,2.4,2.4,0,0,1-.78-1,1.64,1.64,0,0,1,.21-1.54,3.15,3.15,0,0,1,.7-.71,4.4,4.4,0,0,1,1.57-.71,8.65,8.65,0,0,1,3.11-.18,12,12,0,0,0-2.67,1.2,3.81,3.81,0,0,0-1,.83,1.44,1.44,0,0,0-.23.44c0,.15.08-.06.06-.12s.33.16.71.23a9.16,9.16,0,0,0,1.26.22,20.32,20.32,0,0,0,2.71.06,17.58,17.58,0,0,0,2.66-.34,7.43,7.43,0,0,0,2.25-.78A3.47,3.47,0,0,0,30,274.55a1.05,1.05,0,0,0,0-1,3.34,3.34,0,0,0-1.32-1.26,11.53,11.53,0,0,0-1.05-.59c-.4-.14-.76-.32-1.19-.45A36.69,36.69,0,0,0,21,270C17.17,269.35,13.23,269,9.23,268.33Z"/><text class="cls-4" transform="translate(43.5 90.35) rotate(90)">Le<tspan class="cls-5" x="42.26" y="0">g</tspan><tspan x="60.95" y="0">end</tspan></text></svg>