<svg id="Layer_1" data-name="Layer 1" xmlns="http://www.w3.org/2000/svg" viewBox="0 0 285.33 186.48"><defs><style>.cls-1{fill:#eae6d6;stroke:#ccc08f;stroke-miterlimit:10;}.cls-2{fill:#c9c097;}.cls-3{fill:#eddfa6;}.cls-4{fill:#cc2f46;}</style></defs><path class="cls-1" d="M274.08,20.83s-12.77,39.48-12.77,65,9.11,85.34,9.11,85.34H17.13v-77c0-30.82-5.87-73.26-5.87-73.26Z"/><path class="cls-2" d="M270.44,37.33s-106.66-14.66-136-14.66S8.62,35.11,8.62,35.11V0S83.78,9.78,134.44,9.78,270.44,0,270.44,0Z"/><path class="cls-3" d="M272,0c7.33,0,13.33,8.22,13.33,18.67,0,12.22-4.88,18.66-11.55,18.66-9.11,0-12.45-11.11-12.45-19.77S266.86,0,272,0Z"/><path class="cls-3" d="M10.67,0C18,0,24,8.22,24,18.67c0,12.22-4.89,18.66-11.56,18.66C3.33,37.33,0,26.22,0,17.56S5.53,0,10.67,0Z"/><path class="cls-2" d="M268.38,7.22c.62,4,1,7.94,1.67,11.77a37.28,37.28,0,0,0,1.25,5.46c.13.43.31.78.45,1.18a9.71,9.71,0,0,0,.59,1.06A3.37,3.37,0,0,0,273.6,28a1,1,0,0,0,1,0,3.26,3.26,0,0,0,1.24-1.34,7.2,7.2,0,0,0,.79-2.24,17.74,17.74,0,0,0,.34-2.66,18.94,18.94,0,0,0-.07-2.72,8.08,8.08,0,0,0-.21-1.26c-.08-.37-.32-.71-.24-.7s.28-.09.13-.06a1.64,1.64,0,0,0-.44.22,3.6,3.6,0,0,0-.83,1,12,12,0,0,0-1.2,2.67,8.59,8.59,0,0,1,.18-3.1,4.18,4.18,0,0,1,.71-1.58,3.37,3.37,0,0,1,.71-.7,1.66,1.66,0,0,1,1.54-.21,2.48,2.48,0,0,1,1,.79,5.88,5.88,0,0,1,.53.81,9.74,9.74,0,0,1,.66,1.59,15.31,15.31,0,0,1,.65,3.19,15.53,15.53,0,0,1,0,3.27,10.4,10.4,0,0,1-.89,3.45,7,7,0,0,1-2.66,3.05,5,5,0,0,1-4.72.21A7,7,0,0,1,269,28.74a13,13,0,0,1-.78-1.59,15.18,15.18,0,0,1-.52-1.62,27.51,27.51,0,0,1-.75-6.27A45.54,45.54,0,0,1,268.38,7.22Z"/><path class="cls-2" d="M17,7.22a45.54,45.54,0,0,1,1.46,12,27.51,27.51,0,0,1-.75,6.27,15.18,15.18,0,0,1-.52,1.62,13,13,0,0,1-.78,1.59,7,7,0,0,1-2.87,2.86,5,5,0,0,1-4.72-.21,7,7,0,0,1-2.66-3.05,10.4,10.4,0,0,1-.89-3.45,17,17,0,0,1,0-3.27,15.31,15.31,0,0,1,.65-3.19,9.74,9.74,0,0,1,.66-1.59A5.88,5.88,0,0,1,7.12,16a2.48,2.48,0,0,1,1-.79,1.66,1.66,0,0,1,1.54.21,3.37,3.37,0,0,1,.71.7,4.18,4.18,0,0,1,.71,1.58,8.59,8.59,0,0,1,.18,3.1,12,12,0,0,0-1.2-2.67,3.6,3.6,0,0,0-.83-1A1.64,1.64,0,0,0,8.81,17c-.15,0,.06.08.13.06s-.16.33-.24.7A8.08,8.08,0,0,0,8.49,19a17.6,17.6,0,0,0-.06,2.72,16.53,16.53,0,0,0,.33,2.66,7.75,7.75,0,0,0,.79,2.24A3.26,3.26,0,0,0,10.79,28a1,1,0,0,0,1,0A3.37,3.37,0,0,0,13,26.69a9.71,9.71,0,0,0,.59-1.06c.14-.4.32-.75.46-1.18A40.05,40.05,0,0,0,15.34,19C16,15.16,16.38,11.22,17,7.22Z"/><path class="cls-2" d="M270.44,149.15s-106.66,14.66-136,14.66S8.62,151.37,8.62,151.37v35.11s75.16-9.78,125.82-9.78,136,9.78,136,9.78Z"/><path class="cls-3" d="M272,186.48c7.33,0,13.33-8.22,13.33-18.67,0-12.22-4.88-18.66-11.55-18.66-9.11,0-12.45,11.11-12.45,19.77S266.86,186.48,272,186.48Z"/><path class="cls-3" d="M10.67,186.48C18,186.48,24,178.26,24,167.81c0-12.22-4.89-18.66-11.56-18.66C3.33,149.15,0,160.26,0,168.92S5.53,186.48,10.67,186.48Z"/><path class="cls-2" d="M268.38,179.26a45.54,45.54,0,0,1-1.46-12,27.51,27.51,0,0,1,.75-6.27,15.18,15.18,0,0,1,.52-1.62,13,13,0,0,1,.78-1.59,7,7,0,0,1,2.87-2.86,5,5,0,0,1,4.72.21,7,7,0,0,1,2.66,3,10.12,10.12,0,0,1,.61,1.75,10.27,10.27,0,0,1,.28,1.69,15.62,15.62,0,0,1,0,3.28,15.31,15.31,0,0,1-.65,3.19,9.74,9.74,0,0,1-.66,1.59,6.56,6.56,0,0,1-.53.81,2.48,2.48,0,0,1-1,.79,1.66,1.66,0,0,1-1.54-.21,3.19,3.19,0,0,1-.71-.71,4.08,4.08,0,0,1-.71-1.57,8.59,8.59,0,0,1-.18-3.1,12,12,0,0,0,1.2,2.67,3.6,3.6,0,0,0,.83,1,1.64,1.64,0,0,0,.44.22c.15,0-.06-.08-.13-.06s.16-.33.24-.71a7.76,7.76,0,0,0,.21-1.25,18.94,18.94,0,0,0,.07-2.72,17.74,17.74,0,0,0-.34-2.66,7.2,7.2,0,0,0-.79-2.24,3.26,3.26,0,0,0-1.24-1.34,1,1,0,0,0-1-.05,3.49,3.49,0,0,0-1.26,1.32,9.71,9.71,0,0,0-.59,1.06c-.14.4-.32.75-.45,1.18a37.28,37.28,0,0,0-1.25,5.46C269.4,171.32,269,175.26,268.38,179.26Z"/><path class="cls-2" d="M17,179.26c-.62-4-1-7.94-1.66-11.77A40.05,40.05,0,0,0,14.09,162c-.14-.43-.32-.78-.46-1.18a9.71,9.71,0,0,0-.59-1.06,3.49,3.49,0,0,0-1.26-1.32,1,1,0,0,0-1,.05,3.26,3.26,0,0,0-1.24,1.34,7.75,7.75,0,0,0-.79,2.24,16.53,16.53,0,0,0-.33,2.66,17.6,17.6,0,0,0,.06,2.72,7.76,7.76,0,0,0,.21,1.25c.08.38.32.72.24.71s-.28.09-.13.06a1.64,1.64,0,0,0,.44-.22,3.6,3.6,0,0,0,.83-1,12,12,0,0,0,1.2-2.67,8.59,8.59,0,0,1-.18,3.1,4.08,4.08,0,0,1-.71,1.57,3.19,3.19,0,0,1-.71.71,1.66,1.66,0,0,1-1.54.21,2.48,2.48,0,0,1-1-.79,6.56,6.56,0,0,1-.53-.81,9.74,9.74,0,0,1-.66-1.59,15.31,15.31,0,0,1-.65-3.19,17.1,17.1,0,0,1,0-3.28,10.27,10.27,0,0,1,.28-1.69,10.12,10.12,0,0,1,.61-1.75,7,7,0,0,1,2.66-3,5,5,0,0,1,4.72-.21,7,7,0,0,1,2.87,2.86,13,13,0,0,1,.78,1.59,15.18,15.18,0,0,1,.52,1.62,27.51,27.51,0,0,1,.75,6.27A45.54,45.54,0,0,1,17,179.26Z"/><path class="cls-4" d="M51.89,71.62H70.25v1.12H64.84V106.2h1.84a9.19,9.19,0,0,0,6.91-2.66,31.19,31.19,0,0,0,5.23-8.16h1.07l-1,11.94h-27V106.2h3V72.74h-3Z"/><path class="cls-4" d="M86.85,104.44q-3.28-3.39-3.29-9.44t3.7-9.25a13.78,13.78,0,0,1,9.41-3.22q11.58,0,11.12,11.63H93.4v2a17.46,17.46,0,0,0,1.28,7.55,4.55,4.55,0,0,0,4.44,2.55q5.91,0,7.75-6.33l.92.16a10.56,10.56,0,0,1-3.5,5.71c-1.68,1.36-4.21,2-7.57,2Q90.14,107.83,86.85,104.44Zm6.61-11.3h5.25v-2.5A21.11,21.11,0,0,0,98.22,85a1.9,1.9,0,0,0-1.93-1.51,2.28,2.28,0,0,0-2.15,1.61,15.52,15.52,0,0,0-.68,5.53Z"/><path class="cls-4" d="M131.65,80.39l1.43-.87c.21-1-.2-1.58-1.22-1.58-1.47,0-2.2,1.12-2.2,3.37a15.34,15.34,0,0,0,.36,3.06A7.77,7.77,0,0,1,133.9,91a7.6,7.6,0,0,1-2.81,6.3,11.8,11.8,0,0,1-7.6,2.25,22.31,22.31,0,0,1-4.13-.41c-1.49,1-2.24,1.66-2.24,2.14s1.09.71,3.26.71h5.2q11.58,0,11.58,8.32a8.42,8.42,0,0,1-3.49,7.11q-3.49,2.63-10.89,2.63-12.6,0-12.6-5.46,0-3,3.93-4.08l3.06,1.38a10.6,10.6,0,0,0-.41,2.8q0,4.4,6.53,4.39a10.68,10.68,0,0,0,6.12-1.48,4.35,4.35,0,0,0,2.14-3.67c0-1.46-.43-2.44-1.3-2.93s-2.59-.74-5.18-.74h-4.94q-4.14,0-5.92-1.38a4.14,4.14,0,0,1-1.78-3.39,4.71,4.71,0,0,1,1.27-3.37,23.31,23.31,0,0,1,4.54-3.34q-5.91-1.68-5.92-7.75a7.7,7.7,0,0,1,2.76-6.17c1.83-1.57,4.59-2.35,8.26-2.35A11.69,11.69,0,0,1,129,83.81a11.85,11.85,0,0,1-.3-2.5,5.08,5.08,0,0,1,1.53-4.13,5.19,5.19,0,0,1,3.41-1.28,4.46,4.46,0,0,1,3,1,3.43,3.43,0,0,1,1.14,2.73,3.33,3.33,0,0,1-.91,2.57,3.2,3.2,0,0,1-2.22.84,3.25,3.25,0,0,1-2.14-.69A2.52,2.52,0,0,1,131.65,80.39Zm-10.81,9.54v2.75a12.21,12.21,0,0,0,.59,4.64,1.89,1.89,0,0,0,1.78,1.23,1.81,1.81,0,0,0,1.74-1.2,14.63,14.63,0,0,0,.53-4.92v-2.5A16.83,16.83,0,0,0,125,84.7a1.76,1.76,0,0,0-1.71-1.25,1.94,1.94,0,0,0-1.81,1.3A14.41,14.41,0,0,0,120.84,89.93Z"/><path class="cls-4" d="M141.42,104.44q-3.28-3.39-3.29-9.44t3.7-9.25a13.78,13.78,0,0,1,9.41-3.22q11.58,0,11.12,11.63H148v2a17.46,17.46,0,0,0,1.28,7.55,4.54,4.54,0,0,0,4.43,2.55q5.92,0,7.76-6.33l.92.16a10.62,10.62,0,0,1-3.5,5.71c-1.68,1.36-4.21,2-7.57,2Q144.71,107.83,141.42,104.44Zm6.6-11.3h5.26v-2.5a21.11,21.11,0,0,0-.49-5.63,1.91,1.91,0,0,0-1.94-1.51,2.28,2.28,0,0,0-2.14,1.61,15.46,15.46,0,0,0-.69,5.53Z"/><path class="cls-4" d="M165.87,83h12.29v4.69a8.54,8.54,0,0,1,2.5-3.77,7.78,7.78,0,0,1,5.1-1.43q7.91,0,7.91,8.52V106.4h2.85v.92H182.09v-.92h2.09V89.83a11.61,11.61,0,0,0-.41-4A1.48,1.48,0,0,0,182.3,85c-1.09,0-2.05.71-2.89,2.14a10.19,10.19,0,0,0-1.25,5.2V106.4h2.2v.92H165.87v-.92h2.81V84h-2.81Z"/><path class="cls-4" d="M216.11,107.32l-.56-3.57q-1.74,4.08-7,4.08a8.1,8.1,0,0,1-6.81-3.16q-2.41-3.17-2.42-9.44,0-12.69,10.1-12.7c3,0,5,.84,5.91,2.5V70h-3.11v-.92h12.75V106.4h2.5v.92Zm-6.43-3.44a2.13,2.13,0,0,0,2.07,1.76,3.3,3.3,0,0,0,2.6-1.33,6,6,0,0,0,1.1-3.93V89.26a7.42,7.42,0,0,0-.87-3.72A2.77,2.77,0,0,0,212,84c-1.12,0-1.89.75-2.3,2.25a34.57,34.57,0,0,0-.61,7.85v2.65A28.82,28.82,0,0,0,209.68,103.88Z"/></svg>