<svg id="Layer_1" data-name="Layer 1" xmlns="http://www.w3.org/2000/svg" viewBox="0 0 1920 1083.54"><defs><style>.cls-1{fill:#eae6d6;stroke:#a09877;stroke-miterlimit:10;stroke-width:2px;}.cls-2{fill:#c9c097;}.cls-3{fill:#eddfa6;}.cls-4{fill:#af9ca1;}.cls-5{fill:#c2df97;}.cls-6{fill:#f67c87;}.cls-7{fill:#4c4c4c;}.cls-8{fill:#f7b289;}.cls-9{fill:#bdc1ae;}.cls-10{fill:#d08c87;}.cls-11{fill:#867888;}.cls-12{fill:#99ad77;}.cls-13{fill:#c0aaaf;}.cls-14{fill:#79a5ae;}.cls-15{fill:#55774d;}.cls-16{fill:#d1bb80;}.cls-17{fill:#c65c7f;}.cls-18{fill:#f3bef1;}.cls-19{fill:#a9aedb;}.cls-20{fill:#f3df8c;}.cls-21{fill:#a8dcc6;}.cls-22{fill:#373e7a;}</style></defs><path class="cls-1" d="M57.46,52.79s565.31,2.94,874.79,2.94,950.56,11.4,950.56,11.4V1060.5H947.18c-374.26,0-889.72,23-889.72,23Z"/><path class="cls-2" d="M1878.45,77.65s-750.56-8.81-956.75-8.81S38,74.94,38,74.94V32S566.31,44,922.46,44s956-11.95,956-11.95Z"/><path class="cls-3" d="M1849.62,58.38c0-27.95,14.62-50.82,33.19-50.82,21.73,0,33.19,18.62,33.19,44,0,34.74-19.76,47.44-35.17,47.44S1849.62,78,1849.62,58.38Z"/><path class="cls-3" d="M3.56,60.81c0-30.83,13.57-56,30.8-56,20.16,0,30.79,20.53,30.79,48.57,0,38.31-18.33,52.32-32.63,52.32S3.56,82.4,3.56,60.81Z"/><path class="cls-2" d="M1866.88,69c7.12-2.36,14.13-3.88,20.92-6.35a40.25,40.25,0,0,0,9.72-4.77c.76-.5,1.39-1.2,2.1-1.74a19.09,19.09,0,0,0,1.87-2.22,12.69,12.69,0,0,0,2.35-4.82,8,8,0,0,0-.08-3.79,12,12,0,0,0-2.38-4.73,10.48,10.48,0,0,0-4-3,15.81,15.81,0,0,0-4.73-1.27,15.34,15.34,0,0,0-4.83.23,7.87,7.87,0,0,0-2.23.83c-.67.27-1.28,1.22-1.26.88s-.16-1-.11-.47a9.53,9.53,0,0,0,.41,1.68,12.73,12.73,0,0,0,1.7,3.17,20.41,20.41,0,0,0,4.75,4.56,7.46,7.46,0,0,1-5.52-.67,7.37,7.37,0,0,1-2.8-2.71,12.18,12.18,0,0,1-1.25-2.72,12.38,12.38,0,0,1-.37-5.87,11.21,11.21,0,0,1,1.4-3.88,12.49,12.49,0,0,1,1.44-2,16,16,0,0,1,2.82-2.53,15.8,15.8,0,0,1,5.67-2.47,13.64,13.64,0,0,1,5.83,0,11.27,11.27,0,0,1,3,1.05,14.22,14.22,0,0,1,3.11,2.35,23.11,23.11,0,0,1,5.43,10.13,37.93,37.93,0,0,1,1.23,8.78,39.09,39.09,0,0,1-.86,9.2,26.72,26.72,0,0,1-5.08,11,24.73,24.73,0,0,1-2.82,3,20.32,20.32,0,0,1-2.9,2,24.61,24.61,0,0,1-11.13,2.84A41.21,41.21,0,0,1,1866.88,69Z"/><path class="cls-2" d="M16.42,33.81a33.6,33.6,0,0,1,19.87-6.12,20.07,20.07,0,0,1,10.33,3.13A19.14,19.14,0,0,1,49.31,33a25.25,25.25,0,0,1,2.62,3.28,32.4,32.4,0,0,1,4.71,12.08,51.09,51.09,0,0,1,.8,10.15,48.1,48.1,0,0,1-1.15,9.67c-1.31,5.49-3.16,8.89-5,11.18A13.8,13.8,0,0,1,48.37,82a9.16,9.16,0,0,1-2.79,1.16,10.77,10.77,0,0,1-5.41,0,13.62,13.62,0,0,1-5.26-2.72,15.82,15.82,0,0,1-2.61-2.79A13.07,13.07,0,0,1,31,75.34a14.17,14.17,0,0,1-1.3-4.28A16.24,16.24,0,0,1,30,64.59a15.83,15.83,0,0,1,1.16-3,7.47,7.47,0,0,1,2.6-3,6,6,0,0,1,5.12-.74,21,21,0,0,0-4.41,5,15.65,15.65,0,0,0-1.58,3.5,11.87,11.87,0,0,0-.37,1.85c-.05.63.14-.24.1-.52s.54.67,1.17,1a6.18,6.18,0,0,0,2.07.91,11.86,11.86,0,0,0,4.48.26,12.72,12.72,0,0,0,4.39-1.4,10,10,0,0,0,3.7-3.31,14.4,14.4,0,0,0,2.21-5.21,10.57,10.57,0,0,0,.07-4.18,15.11,15.11,0,0,0-2.18-5.32A20.69,20.69,0,0,0,46.8,48c-.66-.6-1.24-1.37-1.95-1.92a35.54,35.54,0,0,0-9-5.26C29.53,38.09,23,36.42,16.42,33.81Z"/><polygon class="cls-4" points="238.27 109.3 236.67 146.45 266.36 168.83 230.54 178.78 218.43 213.93 197.9 182.94 160.72 182.29 183.85 153.18 172.98 117.62 207.81 130.63 238.27 109.3"/><polygon class="cls-5" points="244.08 289.83 233.09 325.34 256.11 354.54 218.93 355.05 198.29 385.97 186.3 350.78 150.52 340.69 180.29 318.42 178.82 281.27 209.2 302.7 244.08 289.83"/><polygon class="cls-6" points="248.42 482.01 216.13 500.45 213.01 537.5 185.5 512.49 149.31 520.97 164.59 487.08 145.33 455.28 182.29 459.34 206.59 431.2 214.14 467.6 248.42 482.01"/><path class="cls-7" d="M288.55,121h14.8q6.88,0,10.32,1.85t3.45,6.27q0,6.78-8.17,8.12v.1q9.9,1.23,9.9,8.61,0,5.4-4.06,7.55t-11.69,2.16H288.55v-.94h3.22V122h-3.22Zm12.87.94v15.25h1.29a4,4,0,0,0,3.59-1.56,9,9,0,0,0,1-4.78v-2.33c0-2.44-.29-4.15-.89-5.12S304.69,122,303,122Zm0,16.19v16.59h2.33a4,4,0,0,0,3.81-1.89,11.21,11.21,0,0,0,1.09-5.54v-2.62a7.65,7.65,0,0,0-1.34-4.91q-1.33-1.64-4.75-1.63Z"/><path class="cls-7" d="M324.2,153q-3.18-3.17-3.17-9.08t3.39-9.11q3.39-3.19,9.53-3.2t9.16,2.95q3,2.94,3,9,0,12.62-12.58,12.62Q327.37,156.17,324.2,153Zm12.43-7.08v-4.21a33.22,33.22,0,0,0-.53-7c-.34-1.47-1.14-2.21-2.4-2.21a2.48,2.48,0,0,0-1.75.62,3.82,3.82,0,0,0-1,2.06,37.2,37.2,0,0,0-.45,6.78v3.86a34.42,34.42,0,0,0,.33,6.49,10.59,10.59,0,0,0,.66,1.78,2.13,2.13,0,0,0,2.13,1.19c1.29,0,2.13-.74,2.53-2.23A33.81,33.81,0,0,0,336.63,145.92Z"/><path class="cls-7" d="M347.32,118.54h12.13v36.25h2.77v.89h-14.7v-.89h2.72V119.43h-2.92Z"/><path class="cls-7" d="M363,118.54H375.1v36.25h2.77v.89H363.16v-.89h2.73V119.43H363Z"/><path class="cls-7" d="M377.82,133v-.89h14.36V133H389.5l5.4,16.44L400.65,133h-3.32v-.89h7V133h-2.48l-9.26,26.69c-1.08,3.1-2.31,5.27-3.66,6.51a7,7,0,0,1-5,1.86,7.25,7.25,0,0,1-4.61-1.34,4.18,4.18,0,0,1-1.68-3.42,4.28,4.28,0,0,1,1.09-3.17,3.91,3.91,0,0,1,2.87-1.09q4.11,0,4.11,3.42a6.53,6.53,0,0,1-.3,1.78h-1.73a2.73,2.73,0,0,0-.1,1.89,1.29,1.29,0,0,0,1.34.74,4.55,4.55,0,0,0,3.61-2,21.3,21.3,0,0,0,3-6.11l1.09-3.07h-4.35L379.85,133Z"/><path class="cls-7" d="M421.34,133v-.89h12.78V133h-2l4.45,16.68L441,133h-3.42v-.89h6.69V133h-2.08l-5.94,22.68h-6.79l-4.3-15.2-4.66,15.2h-6.63L406.49,133h-2.23v-.89h15V133h-3l4.56,16.83,3.56-11.58L423.17,133Z"/><path class="cls-7" d="M447.54,153q-3.18-3.17-3.17-9.08t3.39-9.11q3.39-3.19,9.53-3.2t9.16,2.95q3,2.94,3,9,0,12.62-12.58,12.62Q450.71,156.17,447.54,153ZM460,145.92v-4.21a33.38,33.38,0,0,0-.52-7c-.34-1.47-1.14-2.21-2.4-2.21a2.48,2.48,0,0,0-1.75.62,3.82,3.82,0,0,0-1,2.06,37.2,37.2,0,0,0-.45,6.78v3.86a34.42,34.42,0,0,0,.33,6.49,10.59,10.59,0,0,0,.66,1.78,2.13,2.13,0,0,0,2.13,1.19c1.29,0,2.13-.74,2.53-2.23A34.07,34.07,0,0,0,460,145.92Z"/><path class="cls-7" d="M474.42,153q-3.17-3.17-3.17-9.08t3.4-9.11q3.39-3.19,9.53-3.2t9.16,2.95q3,2.94,3,9,0,12.62-12.58,12.62Q477.59,156.17,474.42,153Zm12.43-7.08v-4.21a33.38,33.38,0,0,0-.52-7c-.35-1.47-1.15-2.21-2.4-2.21a2.5,2.5,0,0,0-1.76.62,3.81,3.81,0,0,0-1,2.06,37.2,37.2,0,0,0-.45,6.78v3.86a35.81,35.81,0,0,0,.32,6.49,11.45,11.45,0,0,0,.67,1.78,2.11,2.11,0,0,0,2.13,1.19,2.52,2.52,0,0,0,2.52-2.23A33.81,33.81,0,0,0,486.85,145.92Z"/><path class="cls-7" d="M514.58,155.68l-.55-3.47q-1.68,4-6.83,4a7.84,7.84,0,0,1-6.61-3.07c-1.57-2-2.35-5.1-2.35-9.16q0-12.33,9.8-12.33c2.91,0,4.82.81,5.75,2.43V119.43h-3v-.89h12.37v36.25h2.43v.89Zm-6.24-3.35a2.06,2.06,0,0,0,2,1.71,3.21,3.21,0,0,0,2.53-1.28,5.88,5.88,0,0,0,1.07-3.82V138.15a7.26,7.26,0,0,0-.85-3.62,2.67,2.67,0,0,0-2.47-1.48c-1.09,0-1.83.72-2.23,2.18a32.93,32.93,0,0,0-.59,7.62v2.58A27.82,27.82,0,0,0,508.34,152.33Z"/><path class="cls-7" d="M304.84,205.19l-.55-3.46q-1.68,4-6.83,4a7.86,7.86,0,0,1-6.61-3.07q-2.36-3.08-2.35-9.16,0-12.33,9.8-12.33,4.36,0,5.74,2.42V169h-3v-.89H313.4V204.3h2.43v.89Zm-6.24-3.34a2.06,2.06,0,0,0,2,1.71,3.19,3.19,0,0,0,2.53-1.29,5.87,5.87,0,0,0,1.06-3.81v-10.8a7.22,7.22,0,0,0-.84-3.61,2.69,2.69,0,0,0-2.47-1.49c-1.09,0-1.84.73-2.23,2.18a32.94,32.94,0,0,0-.6,7.63v2.57A27.26,27.26,0,0,0,298.6,201.85Z"/><path class="cls-7" d="M329,193.56h1.43v-3.82a25,25,0,0,0-.51-6.31,2,2,0,0,0-2-1.61,2.92,2.92,0,0,0-1.61.47,1.47,1.47,0,0,0-.72,1.29,4.94,4.94,0,0,0,.3,1.66h1.24a7.1,7.1,0,0,1,.39,2.5,3.24,3.24,0,0,1-1.23,2.52,4.63,4.63,0,0,1-3.12,1.07q-4.26,0-4.26-4.11,0-6.09,10.35-6.09c3.92,0,6.64.67,8.14,2s2.25,3.79,2.25,7.36v10c0,1.71.48,2.57,1.44,2.57q1.68,0,2-5.1l.74.05c-.13,2.91-.67,4.9-1.63,6s-2.53,1.64-4.7,1.64c-4,0-6.24-1.22-6.84-3.67a5.28,5.28,0,0,1-1.93,2.77,6.54,6.54,0,0,1-3.76.9q-7.33,0-7.33-6a4.83,4.83,0,0,1,2.8-4.82C322.27,194,325.14,193.56,329,193.56Zm-1.71,9.4a1,1,0,0,0,1,.75c.51,0,1-.43,1.44-1.27a7.6,7.6,0,0,0,.66-3.49v-4.6h-.34q-3.07,0-3.07,4.5v.79A12.33,12.33,0,0,0,327.29,203Z"/><path class="cls-7" d="M344.4,181.62h11.93v4.56a8.29,8.29,0,0,1,2.43-3.67,7.54,7.54,0,0,1,4.95-1.38q7.68,0,7.67,8.27v14.9h2.78v.89h-14v-.89h2V188.21a11.62,11.62,0,0,0-.39-3.84,1.45,1.45,0,0,0-1.44-.87c-1.06,0-2,.7-2.8,2.08a10,10,0,0,0-1.21,5V204.3h2.13v.89H344.4v-.89h2.72V182.51H344.4Z"/><path class="cls-7" d="M388.66,182a3.24,3.24,0,0,0-3.12,2.38c-.62,1.58-.94,4.2-.94,7.87v2.57c0,3.27.37,5.61,1.09,7a4.1,4.1,0,0,0,4,2.13,5.89,5.89,0,0,0,4.66-2,9.57,9.57,0,0,0,2.23-4.5l.89.1c-.63,2.83-1.78,4.88-3.47,6.13a11.56,11.56,0,0,1-7.08,1.94c-3.83,0-6.77-1-8.81-3.1s-3.07-5.08-3.07-9.06,1.16-7,3.49-9.18,5.57-3.22,9.73-3.22q4.41,0,6.73,1.7a5.15,5.15,0,0,1,2.33,4.29,5.32,5.32,0,0,1-1.12,3.76,4,4,0,0,1-3.07,1.19,4.61,4.61,0,0,1-3.14-1,3.87,3.87,0,0,1-1.19-3.07,6.43,6.43,0,0,1,.25-1.78h1.63a5.53,5.53,0,0,0,.35-1.78A2.1,2.1,0,0,0,388.66,182Z"/><path class="cls-7" d="M402.16,202.39q-3.2-3.28-3.2-9.16t3.59-9a13.42,13.42,0,0,1,9.14-3.12q11.24,0,10.79,11.29h-14v1.93a16.92,16.92,0,0,0,1.24,7.33,4.4,4.4,0,0,0,4.3,2.47q5.74,0,7.53-6.14l.89.15a10.27,10.27,0,0,1-3.39,5.55c-1.63,1.32-4.09,2-7.35,2Q405.35,205.69,402.16,202.39Zm6.41-11h5.1V189a21.06,21.06,0,0,0-.47-5.47,1.86,1.86,0,0,0-1.88-1.46,2.19,2.19,0,0,0-2.08,1.56,15,15,0,0,0-.67,5.37Z"/><path class="cls-7" d="M314.89,285.5q-7.68,0-7.68,14.8v3.91q0,7,2,11c1.36,2.66,3.35,4,6,4q5.46,0,10-10.6h.89l-.35,11h-.54a3,3,0,0,0-.55-.77,1.07,1.07,0,0,0-.72-.22,30.32,30.32,0,0,0-3.59.77,26.43,26.43,0,0,1-6.33.77q-8.07,0-12.51-4.36t-4.43-13.1q0-8.73,4.63-13.49t12.46-4.75a23,23,0,0,1,5.91.76,23,23,0,0,0,3.39.77,1.1,1.1,0,0,0,.75-.22,3.09,3.09,0,0,0,.54-.77h.55l.39,10.75h-.89a29.91,29.91,0,0,0-4.58-7.65A7,7,0,0,0,314.89,285.5Z"/><path class="cls-7" d="M329.54,282.58h12.14v36.24h2.77v.89H329.74v-.89h2.73V283.47h-2.93Z"/><path class="cls-7" d="M357.27,308.08h1.44v-3.82a24.89,24.89,0,0,0-.52-6.31,2,2,0,0,0-2-1.61,2.92,2.92,0,0,0-1.61.47,1.46,1.46,0,0,0-.71,1.29,4.92,4.92,0,0,0,.29,1.66h1.24a7.08,7.08,0,0,1,.4,2.5,3.25,3.25,0,0,1-1.24,2.52,4.63,4.63,0,0,1-3.12,1.07q-4.26,0-4.26-4.11,0-6.09,10.35-6.09,5.89,0,8.14,2t2.26,7.36v10.05c0,1.71.48,2.57,1.43,2.57,1.13,0,1.78-1.7,2-5.1l.75.05c-.14,2.91-.68,4.9-1.64,6s-2.52,1.64-4.7,1.64q-5.94,0-6.84-3.67a5.22,5.22,0,0,1-1.93,2.77,6.52,6.52,0,0,1-3.76.9q-7.32,0-7.33-6a4.85,4.85,0,0,1,2.8-4.82C350.54,308.51,353.41,308.08,357.27,308.08Zm-1.71,9.4a1,1,0,0,0,1,.75c.51,0,1-.42,1.44-1.27a7.46,7.46,0,0,0,.67-3.49v-4.6h-.35q-3.08,0-3.07,4.5v.79A12.33,12.33,0,0,0,355.56,317.48Z"/><path class="cls-7" d="M373.71,320.21v-8.87h.59c.86,2.87,2,4.89,3.47,6a8.45,8.45,0,0,0,5.45,1.74c3.36,0,5-1.07,5-3.22a2.25,2.25,0,0,0-1.24-2.08,16.45,16.45,0,0,0-4.95-1.68,19.53,19.53,0,0,1-5.65-2.38,6.27,6.27,0,0,1-2.72-5.65,8.16,8.16,0,0,1,2.38-6.16,8.72,8.72,0,0,1,6.34-2.3,12.35,12.35,0,0,1,5,1.14,4.1,4.1,0,0,0,1.43.39,1.14,1.14,0,0,0,.84-.34,5.64,5.64,0,0,0,.85-1.29h.54v7.57h-.59q-2.53-6.44-7.83-6.43a6,6,0,0,0-3.46.81,2.46,2.46,0,0,0-1.14,2.06,1.78,1.78,0,0,0,.34,1.16c.24.28.42.49.55.62a2.51,2.51,0,0,0,.64.42l.74.35c.2.08.51.19.92.32a7.08,7.08,0,0,0,.92.25,38.18,38.18,0,0,1,4.85,1.46,16.61,16.61,0,0,1,2.82,1.51c1.82,1.25,2.72,3.28,2.72,6.06s-.82,4.91-2.47,6.34a10,10,0,0,1-6.78,2.16,13.14,13.14,0,0,1-5.95-1.44,1.9,1.9,0,0,0-.94-.39q-1.08,0-2.13,1.83Z"/><path class="cls-7" d="M395.2,320.21v-8.87h.59c.86,2.87,2,4.89,3.47,6a8.45,8.45,0,0,0,5.45,1.74c3.36,0,5.05-1.07,5.05-3.22a2.25,2.25,0,0,0-1.24-2.08,16.45,16.45,0,0,0-4.95-1.68,19.53,19.53,0,0,1-5.65-2.38,6.27,6.27,0,0,1-2.72-5.65,8.16,8.16,0,0,1,2.38-6.16,8.72,8.72,0,0,1,6.33-2.3,12.28,12.28,0,0,1,5,1.14,4.2,4.2,0,0,0,1.44.39,1.14,1.14,0,0,0,.84-.34,5.69,5.69,0,0,0,.84-1.29h.55v7.57H412q-2.53-6.44-7.83-6.43a6,6,0,0,0-3.46.81,2.46,2.46,0,0,0-1.14,2.06,1.78,1.78,0,0,0,.34,1.16c.23.28.42.49.55.62a2.51,2.51,0,0,0,.64.42l.74.35c.2.08.51.19.92.32a7.08,7.08,0,0,0,.92.25,38.18,38.18,0,0,1,4.85,1.46,16.61,16.61,0,0,1,2.82,1.51c1.82,1.25,2.72,3.28,2.72,6.06s-.82,4.91-2.47,6.34a10,10,0,0,1-6.79,2.16,13.13,13.13,0,0,1-5.94-1.44,1.9,1.9,0,0,0-.94-.39q-1.08,0-2.13,1.83Z"/><path class="cls-7" d="M415.35,296.14h12.13v22.68h2.78v.89H415.55v-.89h2.72V297h-2.92Zm7.48-3.41a4.62,4.62,0,0,1-3.74-1.34,5,5,0,0,1-1.11-3.32,4.58,4.58,0,0,1,1.21-3.27,4.88,4.88,0,0,1,3.69-1.28,5.41,5.41,0,0,1,3.76,1.16,4.24,4.24,0,0,1,1.29,3.32,4.75,4.75,0,0,1-1.24,3.44A5.14,5.14,0,0,1,422.83,292.73Z"/><path class="cls-7" d="M445.11,296.54a3.23,3.23,0,0,0-3.12,2.38q-.94,2.37-.94,7.87v2.57q0,4.9,1.09,7a4.08,4.08,0,0,0,4,2.13,5.87,5.87,0,0,0,4.65-2A9.47,9.47,0,0,0,453,312l.89.1c-.63,2.83-1.78,4.88-3.46,6.13a11.56,11.56,0,0,1-7.08,1.94c-3.83,0-6.77-1-8.82-3.1s-3.07-5.08-3.07-9.06,1.17-7,3.49-9.18,5.57-3.22,9.73-3.22c2.94,0,5.18.57,6.74,1.71a5.11,5.11,0,0,1,2.32,4.28,5.36,5.36,0,0,1-1.11,3.76,4,4,0,0,1-3.07,1.19,4.59,4.59,0,0,1-3.14-1,3.84,3.84,0,0,1-1.19-3.07,6.81,6.81,0,0,1,.24-1.78h1.64a5.53,5.53,0,0,0,.35-1.78A2.1,2.1,0,0,0,445.11,296.54Z"/><path class="cls-7" d="M467,308.08h1.44v-3.82A24.89,24.89,0,0,0,468,298a2,2,0,0,0-2-1.61,2.92,2.92,0,0,0-1.61.47,1.49,1.49,0,0,0-.72,1.29,5.2,5.2,0,0,0,.3,1.66h1.24a7.08,7.08,0,0,1,.4,2.5,3.25,3.25,0,0,1-1.24,2.52,4.63,4.63,0,0,1-3.12,1.07q-4.26,0-4.26-4.11,0-6.09,10.35-6.09c3.93,0,6.64.67,8.15,2s2.25,3.79,2.25,7.36v10.05c0,1.71.48,2.57,1.43,2.57,1.12,0,1.79-1.7,2-5.1l.75.05c-.14,2.91-.68,4.9-1.64,6s-2.52,1.64-4.7,1.64q-5.94,0-6.83-3.67a5.33,5.33,0,0,1-1.93,2.77,6.58,6.58,0,0,1-3.77.9q-7.32,0-7.33-6a4.85,4.85,0,0,1,2.8-4.82C460.32,308.51,463.18,308.08,467,308.08Zm-1.71,9.4a1,1,0,0,0,1,.75c.52,0,1-.42,1.44-1.27a7.59,7.59,0,0,0,.67-3.49v-4.6h-.35q-3.08,0-3.07,4.5v.79A12.33,12.33,0,0,0,465.33,317.48Z"/><path class="cls-7" d="M482.14,282.58h12.13v36.24h2.78v.89H482.34v-.89h2.72V283.47h-2.92Z"/><path class="cls-7" d="M312.41,369.23l-.54-3.47q-1.68,4-6.83,4a7.86,7.86,0,0,1-6.62-3.07c-1.56-2-2.35-5.1-2.35-9.16q0-12.33,9.81-12.33c2.9,0,4.82.81,5.74,2.43V333h-3v-.89H321v36.24h2.42v.9Zm-6.24-3.35a2.07,2.07,0,0,0,2,1.71,3.17,3.17,0,0,0,2.52-1.29,5.85,5.85,0,0,0,1.07-3.81V351.7a7.26,7.26,0,0,0-.84-3.62,2.69,2.69,0,0,0-2.48-1.48c-1.09,0-1.83.72-2.23,2.18a33.52,33.52,0,0,0-.59,7.62V359A27.88,27.88,0,0,0,306.17,365.88Z"/><path class="cls-7" d="M336.58,357.59H338v-3.81a24.51,24.51,0,0,0-.52-6.32,2,2,0,0,0-2-1.6,2.81,2.81,0,0,0-1.61.47,1.45,1.45,0,0,0-.72,1.28,4.9,4.9,0,0,0,.3,1.66h1.23a6.9,6.9,0,0,1,.4,2.5,3.22,3.22,0,0,1-1.24,2.53,4.59,4.59,0,0,1-3.12,1.06c-2.84,0-4.25-1.37-4.25-4.11q0-6.09,10.34-6.09,5.9,0,8.15,2c1.5,1.33,2.25,3.79,2.25,7.35v10.05q0,2.58,1.44,2.58,1.68,0,2-5.1l.74.05c-.13,2.9-.68,4.9-1.63,6s-2.53,1.63-4.71,1.63q-5.94,0-6.83-3.66a5.36,5.36,0,0,1-1.93,2.77,6.63,6.63,0,0,1-3.76.89q-7.33,0-7.33-6A4.86,4.86,0,0,1,328,358.9C329.85,358,332.71,357.59,336.58,357.59ZM334.87,367a1,1,0,0,0,1,.74c.51,0,1-.42,1.43-1.26A7.49,7.49,0,0,0,338,363v-4.61h-.34q-3.07,0-3.07,4.51v.79A12,12,0,0,0,334.87,367Z"/><path class="cls-7" d="M352,345.66h11.94v4.55a8.1,8.1,0,0,1,2.42-3.66,7.49,7.49,0,0,1,5-1.39q7.66,0,7.67,8.27v14.9h2.77v.9h-14v-.9h2V352.24a11.26,11.26,0,0,0-.4-3.84,1.44,1.44,0,0,0-1.43-.86c-1.06,0-2,.69-2.8,2.08a9.83,9.83,0,0,0-1.21,5.05v13.66H366v.9H352v-.9h2.73V346.55H352Z"/><path class="cls-7" d="M396.24,346.05a3.24,3.24,0,0,0-3.12,2.38c-.63,1.58-.94,4.21-.94,7.87v2.58q0,4.9,1.09,7a4.09,4.09,0,0,0,4,2.13,5.85,5.85,0,0,0,4.65-2,9.51,9.51,0,0,0,2.23-4.51l.89.1a10,10,0,0,1-3.46,6.14,11.56,11.56,0,0,1-7.08,1.93q-5.75,0-8.82-3.09t-3.07-9.07q0-6,3.49-9.18t9.73-3.22q4.41,0,6.74,1.71a5.13,5.13,0,0,1,2.32,4.28,5.41,5.41,0,0,1-1.11,3.77,4,4,0,0,1-3.07,1.18,4.61,4.61,0,0,1-3.14-1,3.86,3.86,0,0,1-1.19-3.08,6.48,6.48,0,0,1,.25-1.78h1.63a5.48,5.48,0,0,0,.35-1.78A2.1,2.1,0,0,0,396.24,346.05Z"/><path class="cls-7" d="M409.73,366.43q-3.19-3.3-3.19-9.16t3.59-9a13.42,13.42,0,0,1,9.13-3.12q11.25,0,10.8,11.29h-14v1.93a17,17,0,0,0,1.23,7.33,4.42,4.42,0,0,0,4.31,2.48q5.75,0,7.53-6.14l.89.14a10.27,10.27,0,0,1-3.39,5.55q-2.46,2-7.36,2Q412.92,369.72,409.73,366.43Zm6.41-11h5.1V353a20.66,20.66,0,0,0-.47-5.47,1.85,1.85,0,0,0-1.88-1.46,2.21,2.21,0,0,0-2.08,1.56,15.19,15.19,0,0,0-.67,5.37Z"/><path class="cls-7" d="M319.24,449q-7.67,0-7.67,14.81v3.91q0,7,2,11c1.35,2.66,3.35,4,6,4q5.45,0,10-10.59h.9l-.35,11h-.55a3,3,0,0,0-.54-.77,1.05,1.05,0,0,0-.72-.22,28.15,28.15,0,0,0-3.59.77,26.5,26.5,0,0,1-6.34.76q-8.07,0-12.5-4.35t-4.43-13.1q0-8.75,4.63-13.49T318.55,448a23.12,23.12,0,0,1,5.92.77,24.54,24.54,0,0,0,3.39.77,1.11,1.11,0,0,0,.74-.22,3,3,0,0,0,.55-.77h.54l.4,10.74h-.89a30.26,30.26,0,0,0-4.58-7.65A7.06,7.06,0,0,0,319.24,449Z"/><path class="cls-7" d="M337.17,480.57q-3.17-3.17-3.17-9.08t3.39-9.11q3.39-3.19,9.53-3.19t9.16,2.94q3,3,3,9,0,12.61-12.57,12.62Q340.34,483.74,337.17,480.57Zm12.43-7.08v-4.2a34.13,34.13,0,0,0-.52-7c-.35-1.47-1.15-2.2-2.41-2.2a2.43,2.43,0,0,0-1.75.62,3.74,3.74,0,0,0-1,2.05,37.55,37.55,0,0,0-.44,6.78v3.87a34.69,34.69,0,0,0,.32,6.48,10.51,10.51,0,0,0,.67,1.78,2.1,2.1,0,0,0,2.13,1.19,2.52,2.52,0,0,0,2.52-2.23A33.81,33.81,0,0,0,349.6,473.49Z"/><path class="cls-7" d="M360.59,459.68h11.93v4.56a8.29,8.29,0,0,1,2.43-3.67,7.54,7.54,0,0,1,4.95-1.38q7.68,0,7.68,8.26v14.91h2.77v.89h-14v-.89h2V466.27a11.49,11.49,0,0,0-.4-3.84,1.45,1.45,0,0,0-1.44-.87c-1,0-2,.69-2.79,2.08a9.86,9.86,0,0,0-1.22,5.05v13.67h2.13v.89H360.59v-.89h2.72V460.57h-2.72Z"/><path class="cls-7" d="M393.22,476.17v-15.6H390.5v-.89h2.72v-6.39l9.21-2.28v8.67h6.44v.89h-6.44v16.69a9.21,9.21,0,0,0,.47,3.41,1.9,1.9,0,0,0,2,1.09,3.22,3.22,0,0,0,2.61-1.48,8.76,8.76,0,0,0,1.46-4.06l.84.1a9.66,9.66,0,0,1-2.18,5.42c-1.19,1.34-3.15,2-5.89,2a10.34,10.34,0,0,1-6.29-1.63Q393.23,480.48,393.22,476.17Z"/><path class="cls-7" d="M413.69,480.45q-3.19-3.29-3.19-9.16t3.59-9a13.42,13.42,0,0,1,9.14-3.11q11.24,0,10.79,11.28h-14v1.94a17,17,0,0,0,1.23,7.32,4.42,4.42,0,0,0,4.31,2.48q5.75,0,7.53-6.14l.89.15a10.28,10.28,0,0,1-3.39,5.54q-2.46,2-7.36,2Q416.9,483.74,413.69,480.45Zm6.42-11h5.09v-2.42a20.56,20.56,0,0,0-.47-5.47,1.84,1.84,0,0,0-1.88-1.46,2.21,2.21,0,0,0-2.08,1.56,15.25,15.25,0,0,0-.66,5.37Z"/><path class="cls-7" d="M435.8,459.68h11.93v4.56q1.63-5.06,7.21-5.05t6.76,5.34a7,7,0,0,1,7.27-5.34q7.29,0,7.28,8.26v14.91H479v.89H465.31v-.89H467V466.27c0-2.51-.21-4-.64-4.41a1.06,1.06,0,0,0-.79-.3c-1,0-1.8.65-2.53,1.93a10,10,0,0,0-1.09,4.9v14h1.79v.89H451.05v-.89h1.73V466.27c0-2.51-.21-4-.64-4.41a1.06,1.06,0,0,0-.79-.3c-.93,0-1.76.7-2.5,2.11a10.6,10.6,0,0,0-1.12,5v13.67h1.79v.89H435.8v-.89h2.72V460.57H435.8Z"/><path class="cls-7" d="M491.6,459.68v3.91a6.89,6.89,0,0,1,6.84-4.4,7.86,7.86,0,0,1,6.61,3.06c1.56,2.05,2.35,5.15,2.35,9.31s-.85,7.23-2.55,9.21-4.25,3-7.65,3a8.23,8.23,0,0,1-3.57-.59,4.77,4.77,0,0,1-1.93-1.83v12.82h6.39V495H479.77v-.89h2.72V460.57h-2.62v-.89Zm5.75,3.39c-.33-1.17-1-1.76-1.93-1.76a3.17,3.17,0,0,0-2.58,1.86,9.46,9.46,0,0,0-1.14,5v9.06a7.22,7.22,0,0,0,.84,3.61,2.71,2.71,0,0,0,2.48,1.49c1.09,0,1.83-.73,2.23-2.18a33.56,33.56,0,0,0,.59-7.63v-2.57A30.55,30.55,0,0,0,497.35,463.07Z"/><path class="cls-7" d="M512.45,480.57q-3.18-3.17-3.17-9.08t3.39-9.11q3.39-3.19,9.53-3.19t9.16,2.94q3,3,3,9,0,12.61-12.57,12.62Q515.62,483.74,512.45,480.57Zm12.43-7.08v-4.2a34.13,34.13,0,0,0-.52-7c-.35-1.47-1.15-2.2-2.41-2.2a2.43,2.43,0,0,0-1.75.62,3.74,3.74,0,0,0-1,2.05,37.55,37.55,0,0,0-.44,6.78v3.87a34.69,34.69,0,0,0,.32,6.48,9.72,9.72,0,0,0,.67,1.78,2.09,2.09,0,0,0,2.12,1.19c1.29,0,2.13-.74,2.53-2.23A33.81,33.81,0,0,0,524.88,473.49Z"/><path class="cls-7" d="M552.31,461.07c-1.22,0-2.3.79-3.22,2.37a11,11,0,0,0-1.39,5.65v13.27h3.52v.89H535.77v-.89h2.72V460.57h-2.72v-.89H547.7v4.75a6.68,6.68,0,0,1,6.64-5.24,5.45,5.45,0,0,1,3.79,1.31,4.73,4.73,0,0,1,1.46,3.71,5.6,5.6,0,0,1-1.09,3.69,4.14,4.14,0,0,1-3.35,1.29,3.8,3.8,0,0,1-3.31-1.49c-.71-1-.8-2.36-.28-4.11h1.79C554.17,461.91,553.83,461.07,552.31,461.07Z"/><path class="cls-7" d="M571.42,471.61h1.44V467.8a24.84,24.84,0,0,0-.52-6.31,2,2,0,0,0-2-1.61,2.92,2.92,0,0,0-1.61.47,1.46,1.46,0,0,0-.72,1.29,4.89,4.89,0,0,0,.3,1.65h1.24a7.17,7.17,0,0,1,.39,2.5,3.24,3.24,0,0,1-1.23,2.53,4.63,4.63,0,0,1-3.12,1.07q-4.26,0-4.26-4.12,0-6.09,10.35-6.08c3.92,0,6.64.66,8.14,2s2.26,3.79,2.26,7.35v10c0,1.72.47,2.58,1.43,2.58q1.68,0,2-5.1l.74.05q-.19,4.35-1.63,6c-1,1.09-2.52,1.63-4.7,1.63-4,0-6.24-1.22-6.84-3.66a5.32,5.32,0,0,1-1.93,2.77,6.55,6.55,0,0,1-3.76.89q-7.33,0-7.33-6a4.83,4.83,0,0,1,2.8-4.82C564.69,472.05,567.56,471.61,571.42,471.61ZM569.71,481a1,1,0,0,0,1,.74q.76,0,1.44-1.26a7.59,7.59,0,0,0,.67-3.49v-4.6h-.35q-3.07,0-3.07,4.5v.79A12.33,12.33,0,0,0,569.71,481Z"/><path class="cls-7" d="M603.26,461.07c-1.22,0-2.3.79-3.22,2.37a11,11,0,0,0-1.39,5.65v13.27h3.52v.89H586.72v-.89h2.72V460.57h-2.72v-.89h11.93v4.75a6.68,6.68,0,0,1,6.64-5.24,5.4,5.4,0,0,1,3.78,1.31,4.71,4.71,0,0,1,1.47,3.71,5.6,5.6,0,0,1-1.09,3.69,4.14,4.14,0,0,1-3.35,1.29,3.8,3.8,0,0,1-3.31-1.49c-.71-1-.8-2.36-.28-4.11h1.79Q605.53,461.07,603.26,461.07Z"/><path class="cls-7" d="M610.24,460.57v-.89H624.6v.89h-2.68l5.4,16.44,5.74-16.44h-3.31v-.89h7v.89h-2.48L625,487.26c-1.08,3.1-2.31,5.27-3.66,6.51a7,7,0,0,1-5,1.86,7.25,7.25,0,0,1-4.61-1.34,4.18,4.18,0,0,1-1.68-3.42,4.26,4.26,0,0,1,1.09-3.16,3.85,3.85,0,0,1,2.87-1.09c2.74,0,4.11,1.13,4.11,3.41a6.66,6.66,0,0,1-.3,1.79h-1.73a2.7,2.7,0,0,0-.1,1.88,1.28,1.28,0,0,0,1.34.74,4.55,4.55,0,0,0,3.61-2,21.16,21.16,0,0,0,3-6.11l1.09-3.07h-4.35l-8.47-22.68Z"/><path class="cls-7" d="M316.77,532.76l-.55-3.46q-1.68,4-6.83,4a7.84,7.84,0,0,1-6.61-3.07q-2.36-3.08-2.35-9.16,0-12.33,9.8-12.33c2.91,0,4.82.81,5.75,2.43V496.52h-3v-.89h12.38v36.24h2.42v.89Zm-6.24-3.34a2.06,2.06,0,0,0,2,1.71,3.18,3.18,0,0,0,2.52-1.29,5.87,5.87,0,0,0,1.07-3.81v-10.8a7.25,7.25,0,0,0-.85-3.61,2.67,2.67,0,0,0-2.47-1.48c-1.09,0-1.83.72-2.23,2.17a32.94,32.94,0,0,0-.6,7.63v2.57A27.76,27.76,0,0,0,310.53,529.42Z"/><path class="cls-7" d="M340.93,521.13h1.44v-3.82a24.89,24.89,0,0,0-.52-6.31,2,2,0,0,0-2-1.61,2.92,2.92,0,0,0-1.61.47,1.47,1.47,0,0,0-.71,1.29,4.92,4.92,0,0,0,.29,1.66h1.24a7.12,7.12,0,0,1,.4,2.5,3.25,3.25,0,0,1-1.24,2.52,4.63,4.63,0,0,1-3.12,1.07q-4.26,0-4.26-4.11,0-6.09,10.35-6.09,5.9,0,8.14,2t2.26,7.36v10.05c0,1.72.48,2.57,1.43,2.57,1.13,0,1.78-1.7,2-5.1l.75,0c-.14,2.91-.68,4.91-1.64,6s-2.52,1.64-4.7,1.64q-5.94,0-6.84-3.67a5.29,5.29,0,0,1-1.93,2.78,6.61,6.61,0,0,1-3.76.89q-7.32,0-7.33-6a4.85,4.85,0,0,1,2.8-4.83C334.2,521.56,337.07,521.13,340.93,521.13Zm-1.71,9.41a1,1,0,0,0,1,.74c.51,0,1-.42,1.44-1.27a7.46,7.46,0,0,0,.67-3.49v-4.6H342q-3.07,0-3.07,4.51v.79A12.43,12.43,0,0,0,339.22,530.54Z"/><path class="cls-7" d="M356.33,509.19h11.93v4.56a8.29,8.29,0,0,1,2.43-3.67,7.54,7.54,0,0,1,4.95-1.38q7.68,0,7.68,8.27v14.9h2.77v.89h-14v-.89h2V515.78a11.53,11.53,0,0,0-.4-3.84,1.43,1.43,0,0,0-1.44-.86c-1,0-2,.69-2.79,2.08a9.81,9.81,0,0,0-1.22,5.05v13.66h2.13v.89H356.33v-.89h2.72V510.08h-2.72Z"/><path class="cls-7" d="M400.6,509.59a3.22,3.22,0,0,0-3.12,2.38c-.63,1.58-.94,4.21-.94,7.87v2.57q0,4.9,1.09,7a4.09,4.09,0,0,0,4,2.12,5.88,5.88,0,0,0,4.65-2,9.57,9.57,0,0,0,2.23-4.5l.89.1a10,10,0,0,1-3.47,6.14,11.58,11.58,0,0,1-7.08,1.93c-3.83,0-6.76-1-8.81-3.1S387,525.08,387,521.1s1.16-7,3.49-9.18,5.57-3.22,9.73-3.22q4.41,0,6.73,1.71a5.13,5.13,0,0,1,2.33,4.28,5.36,5.36,0,0,1-1.11,3.76,4,4,0,0,1-3.07,1.19,4.64,4.64,0,0,1-3.15-1,3.86,3.86,0,0,1-1.19-3.07,6.83,6.83,0,0,1,.25-1.78h1.64A5.49,5.49,0,0,0,403,512,2.1,2.1,0,0,0,400.6,509.59Z"/><path class="cls-7" d="M414.09,530q-3.19-3.3-3.2-9.17t3.59-9a13.44,13.44,0,0,1,9.14-3.12q11.24,0,10.79,11.29h-14v1.93a16.89,16.89,0,0,0,1.24,7.33,4.4,4.4,0,0,0,4.31,2.47q5.73,0,7.52-6.14l.89.15a10.16,10.16,0,0,1-3.39,5.55q-2.44,2-7.35,2Q417.28,533.26,414.09,530Zm6.41-11h5.1v-2.43a21.06,21.06,0,0,0-.47-5.47,1.85,1.85,0,0,0-1.88-1.46,2.2,2.2,0,0,0-2.08,1.56,15,15,0,0,0-.67,5.37Z"/><polygon class="cls-8" points="804.49 596.14 802.89 633.29 832.58 655.66 796.75 665.62 784.65 700.77 764.11 669.78 726.94 669.13 750.07 640.02 739.2 604.46 774.03 617.47 804.49 596.14"/><polygon class="cls-9" points="818.54 776.73 807.55 812.25 830.57 841.44 793.4 841.96 772.75 872.88 760.77 837.68 724.98 827.6 754.75 805.33 753.28 768.18 783.66 789.61 818.54 776.73"/><polygon class="cls-10" points="846.42 961.94 814.14 980.38 811.02 1017.43 783.51 992.42 747.31 1000.91 762.6 967.01 743.34 935.21 780.3 939.27 804.59 911.13 812.15 947.53 846.42 961.94"/><path class="cls-7" d="M868.76,634.25h25.75l.49,10.3h-.89c-1.22-3.57-2.63-6-4.23-7.28s-4-1.93-7.16-1.93h-1.38v16.09h2.22a5.18,5.18,0,0,0,4-1.73,9.66,9.66,0,0,0,2.17-4.76h.75V659.6h-.84a11.8,11.8,0,0,0-2.21-5.3,4.86,4.86,0,0,0-3.84-1.58h-2.22v15.1h6.14v1.09H868.76v-1.09h2.92V635.34h-2.92Z"/><path class="cls-7" d="M898.62,666.23q-3.18-3.16-3.17-9.08t3.39-9.11q3.39-3.19,9.53-3.2t9.16,2.95q3,2.94,3,9,0,12.62-12.58,12.62Q901.79,669.4,898.62,666.23Zm12.43-7.08v-4.21a33.22,33.22,0,0,0-.53-7c-.34-1.47-1.14-2.21-2.4-2.21a2.48,2.48,0,0,0-1.75.62,3.82,3.82,0,0,0-1,2.06,37.2,37.2,0,0,0-.45,6.78v3.86a34.42,34.42,0,0,0,.33,6.49,10.59,10.59,0,0,0,.66,1.78,2.13,2.13,0,0,0,2.13,1.19c1.29,0,2.13-.74,2.53-2.23A33.81,33.81,0,0,0,911.05,659.15Z"/><path class="cls-7" d="M921.74,631.77h12.13V668h2.77v.89h-14.7V668h2.72V632.66h-2.92Z"/><path class="cls-7" d="M953.78,668.91V668h2.27l-5.59-11.49-.94.25V668h2.27v.89H937.58V668h2.73V632.66h-2.92v-.89h12.13v24l.79-.3,11.14-9.26H956.8v-.89h9.75v.89h-3.47l-5.89,5L965.76,668h1.78v.89Z"/><path class="cls-7" d="M994,668.91l-.54-3.47c-1.13,2.64-3.4,4-6.84,4a7.84,7.84,0,0,1-6.61-3.07c-1.56-2-2.35-5.1-2.35-9.16q0-12.33,9.8-12.33c2.91,0,4.82.81,5.75,2.43V632.66h-3v-.89h12.38V668H1005v.89Zm-6.24-3.35a2.06,2.06,0,0,0,2,1.71,3.2,3.2,0,0,0,2.52-1.28,5.88,5.88,0,0,0,1.07-3.82V651.38a7.26,7.26,0,0,0-.84-3.62,2.7,2.7,0,0,0-2.48-1.48c-1.09,0-1.83.73-2.23,2.18a33.52,33.52,0,0,0-.59,7.62v2.58A27.82,27.82,0,0,0,987.79,665.56Z"/><path class="cls-7" d="M1018.19,657.27h1.44v-3.81a24.37,24.37,0,0,0-.52-6.31,2,2,0,0,0-2-1.61,2.84,2.84,0,0,0-1.61.47,1.46,1.46,0,0,0-.71,1.28,5.14,5.14,0,0,0,.29,1.66h1.24a6.94,6.94,0,0,1,.4,2.5,3.25,3.25,0,0,1-1.24,2.53,4.63,4.63,0,0,1-3.12,1.06q-4.26,0-4.26-4.11,0-6.09,10.35-6.09c3.93,0,6.64.67,8.15,2s2.25,3.79,2.25,7.35v10c0,1.72.48,2.58,1.43,2.58q1.7,0,2-5.1l.74,0q-.2,4.35-1.64,6t-4.7,1.63q-5.94,0-6.83-3.66a5.38,5.38,0,0,1-1.93,2.77,6.66,6.66,0,0,1-3.77.89q-7.32,0-7.32-6a4.86,4.86,0,0,1,2.79-4.83Q1012.41,657.28,1018.19,657.27Zm-1.7,9.41a1,1,0,0,0,1,.74q.78,0,1.44-1.26a7.49,7.49,0,0,0,.67-3.49v-4.61h-.35c-2,0-3.07,1.51-3.07,4.51v.79A11.82,11.82,0,0,0,1016.49,666.68Z"/><path class="cls-7" d="M1033.59,645.34h11.94v4.55a8.16,8.16,0,0,1,2.42-3.66,7.53,7.53,0,0,1,5-1.39q7.68,0,7.68,8.27V668h2.77v.89h-14V668h2v-16.1a11.15,11.15,0,0,0-.4-3.83,1.43,1.43,0,0,0-1.43-.87c-1.06,0-2,.69-2.8,2.08a9.86,9.86,0,0,0-1.21,5.05V668h2.12v.89h-14.06V668h2.73V646.23h-2.73Z"/><path class="cls-7" d="M1077.86,645.73a3.24,3.24,0,0,0-3.12,2.38q-.95,2.39-.94,7.87v2.58q0,4.91,1.09,7a4.08,4.08,0,0,0,4,2.13,5.87,5.87,0,0,0,4.65-2,9.46,9.46,0,0,0,2.23-4.51l.89.1q-.95,4.26-3.46,6.14a11.56,11.56,0,0,1-7.08,1.93q-5.75,0-8.82-3.09t-3.07-9.06q0-6,3.49-9.19t9.73-3.22c2.94,0,5.18.57,6.74,1.71a5.13,5.13,0,0,1,2.32,4.28,5.39,5.39,0,0,1-1.11,3.77,4,4,0,0,1-3.07,1.19,4.64,4.64,0,0,1-3.15-1,3.88,3.88,0,0,1-1.18-3.07,6.89,6.89,0,0,1,.24-1.79h1.64a5.44,5.44,0,0,0,.34-1.78A2.1,2.1,0,0,0,1077.86,645.73Z"/><path class="cls-7" d="M1091.35,666.11q-3.19-3.29-3.19-9.16t3.59-9a13.4,13.4,0,0,1,9.13-3.12q11.23,0,10.8,11.29h-14v1.93a16.86,16.86,0,0,0,1.24,7.33,4.41,4.41,0,0,0,4.31,2.48q5.74,0,7.52-6.14l.9.15a10.24,10.24,0,0,1-3.4,5.54q-2.44,2-7.35,2Q1094.54,669.4,1091.35,666.11Zm6.41-11h5.1v-2.42a21,21,0,0,0-.47-5.47,1.85,1.85,0,0,0-1.88-1.47,2.21,2.21,0,0,0-2.08,1.56,15,15,0,0,0-.67,5.38Z"/><path class="cls-7" d="M865.82,766.06h15.1V767H878.2v32.78h2.72v.94h-15.1v-.94h2.73V767h-2.73Z"/><path class="cls-7" d="M882.66,777.15h11.93v4.55q1.63-5,7.2-5.05t6.76,5.35q1.74-5.34,7.28-5.35,7.27,0,7.28,8.27v14.91h2.77v.89H912.17v-.89h1.73v-16.1c0-2.5-.22-4-.64-4.4a1.09,1.09,0,0,0-.8-.3c-1,0-1.8.64-2.52,1.93a9.85,9.85,0,0,0-1.09,4.9v14h1.78v.89H897.91v-.89h1.73v-16.1c0-2.5-.22-4-.64-4.4a1.09,1.09,0,0,0-.8-.3c-.92,0-1.75.7-2.5,2.1a10.67,10.67,0,0,0-1.11,5v13.67h1.78v.89H882.66v-.89h2.72V778h-2.72Z"/><path class="cls-7" d="M926.62,777.15h11.94v4.55q1.63-5,7.2-5.05t6.76,5.35q1.74-5.34,7.28-5.35,7.28,0,7.28,8.27v14.91h2.77v.89H956.14v-.89h1.73v-16.1c0-2.5-.22-4-.65-4.4a1,1,0,0,0-.79-.3c-1,0-1.8.64-2.52,1.93a9.85,9.85,0,0,0-1.09,4.9v14h1.78v.89H941.88v-.89h1.73v-16.1c0-2.5-.22-4-.65-4.4a1,1,0,0,0-.79-.3c-.92,0-1.76.7-2.5,2.1a10.67,10.67,0,0,0-1.11,5v13.67h1.78v.89H926.62v-.89h2.73V778h-2.73Z"/><path class="cls-7" d="M974,797.92q-3.18-3.28-3.19-9.16t3.59-9a13.42,13.42,0,0,1,9.14-3.12q11.23,0,10.79,11.29h-14v1.93a17,17,0,0,0,1.23,7.33,4.43,4.43,0,0,0,4.31,2.48q5.74,0,7.53-6.14l.89.15a10.28,10.28,0,0,1-3.39,5.54q-2.46,2-7.35,2Q977.23,801.21,974,797.92Zm6.42-11h5.1v-2.42a21,21,0,0,0-.47-5.47,1.86,1.86,0,0,0-1.89-1.47,2.21,2.21,0,0,0-2.08,1.56,15.28,15.28,0,0,0-.66,5.38Z"/><path class="cls-7" d="M1012.68,778.54c-1.22,0-2.29.79-3.22,2.37a11.08,11.08,0,0,0-1.39,5.65v13.27h3.52v.89H996.14v-.89h2.72V778h-2.72v-.89h11.93v4.75a6.71,6.71,0,0,1,2.48-3.88,6.79,6.79,0,0,1,4.16-1.37,5.45,5.45,0,0,1,3.79,1.32,4.73,4.73,0,0,1,1.46,3.71,5.6,5.6,0,0,1-1.09,3.69,4.13,4.13,0,0,1-3.34,1.29,3.8,3.8,0,0,1-3.32-1.49q-1.07-1.49-.27-4.11h1.78C1014.54,779.38,1014.2,778.54,1012.68,778.54Z"/><path class="cls-7" d="M1021.2,801.21v-8.86h.59c.86,2.87,2,4.89,3.47,6a8.42,8.42,0,0,0,5.44,1.73q5.05,0,5-3.21a2.24,2.24,0,0,0-1.23-2.08,16.69,16.69,0,0,0-5-1.69,19.31,19.31,0,0,1-5.64-2.37,6.25,6.25,0,0,1-2.72-5.65,8.19,8.19,0,0,1,2.37-6.16,8.72,8.72,0,0,1,6.34-2.31,12.31,12.31,0,0,1,5,1.14,4,4,0,0,0,1.44.4,1.15,1.15,0,0,0,.84-.35,5.69,5.69,0,0,0,.84-1.29h.55v7.58h-.6q-2.52-6.43-7.82-6.44a6,6,0,0,0-3.47.82,2.46,2.46,0,0,0-1.14,2.06,1.78,1.78,0,0,0,.35,1.16c.23.28.41.49.54.62a2.81,2.81,0,0,0,.65.42c.29.15.54.26.74.35s.5.19.92.32a9.23,9.23,0,0,0,.91.25,36.83,36.83,0,0,1,4.86,1.46,15.93,15.93,0,0,1,2.82,1.51q2.72,1.88,2.72,6.06c0,2.79-.82,4.9-2.48,6.34a10,10,0,0,1-6.78,2.15,13.19,13.19,0,0,1-5.94-1.43,1.88,1.88,0,0,0-.94-.4q-1.09,0-2.13,1.83Z"/><path class="cls-7" d="M1041.35,777.15h12.13v22.68h2.77v.89h-14.7v-.89h2.72V778h-2.92Zm7.47-3.42a4.6,4.6,0,0,1-3.73-1.33,5,5,0,0,1-1.12-3.32,4.58,4.58,0,0,1,1.22-3.27,4.8,4.8,0,0,1,3.68-1.29,5.44,5.44,0,0,1,3.77,1.17,4.25,4.25,0,0,1,1.28,3.31,4.79,4.79,0,0,1-1.23,3.45A5.2,5.2,0,0,1,1048.82,773.73Z"/><path class="cls-7" d="M1055.26,778v-.89h14.81V778H1067l5.94,16.44,5.35-16.44h-3.32v-.89h6.68V778h-2.18l-7.32,22.68h-5.65L1057.29,778Z"/><path class="cls-7" d="M1084.3,797.92q-3.19-3.28-3.19-9.16t3.59-9a13.42,13.42,0,0,1,9.13-3.12q11.25,0,10.8,11.29h-14v1.93a17,17,0,0,0,1.24,7.33,4.42,4.42,0,0,0,4.31,2.48q5.74,0,7.53-6.14l.89.15a10.24,10.24,0,0,1-3.4,5.54q-2.45,2-7.35,2Q1087.49,801.21,1084.3,797.92Zm6.41-11h5.1v-2.42a20.56,20.56,0,0,0-.47-5.47,1.85,1.85,0,0,0-1.88-1.47,2.21,2.21,0,0,0-2.08,1.56,15.22,15.22,0,0,0-.67,5.38Z"/><path class="cls-7" d="M867.56,843.15v-15.6h-2.73v-.89h2.73v-6.38l9.21-2.28v8.66h6.43v.89h-6.43v16.69a9.34,9.34,0,0,0,.46,3.42,1.93,1.93,0,0,0,2,1.09,3.22,3.22,0,0,0,2.6-1.49,8.61,8.61,0,0,0,1.46-4.06l.84.1a9.56,9.56,0,0,1-2.18,5.42c-1.18,1.34-3.15,2-5.89,2a10.36,10.36,0,0,1-6.29-1.64Q867.56,847.46,867.56,843.15Z"/><path class="cls-7" d="M884.59,813.1h11.93v18.12a8.29,8.29,0,0,1,2.43-3.67,7.54,7.54,0,0,1,4.95-1.38q7.67,0,7.67,8.27v14.9h2.78v.89h-14v-.89h2V833.25a11.62,11.62,0,0,0-.39-3.84,1.46,1.46,0,0,0-1.44-.87c-1.06,0-2,.7-2.8,2.08a9.86,9.86,0,0,0-1.21,5v13.67h2.13v.89H884.59v-.89h2.72V814h-2.72Z"/><path class="cls-7" d="M918.53,847.43q-3.19-3.28-3.19-9.16t3.59-9a13.4,13.4,0,0,1,9.13-3.12q11.24,0,10.8,11.29h-14v1.93a16.89,16.89,0,0,0,1.24,7.33,4.4,4.4,0,0,0,4.31,2.47q5.74,0,7.52-6.14l.9.15a10.23,10.23,0,0,1-3.4,5.55q-2.44,2-7.35,2Q921.72,850.73,918.53,847.43Zm6.41-11H930V834a21.06,21.06,0,0,0-.47-5.47,1.85,1.85,0,0,0-1.88-1.46,2.21,2.21,0,0,0-2.08,1.56,15,15,0,0,0-.67,5.37Z"/><path class="cls-7" d="M952.52,838.6H954v-3.82a24.89,24.89,0,0,0-.52-6.31,2,2,0,0,0-2-1.61,2.92,2.92,0,0,0-1.61.47,1.47,1.47,0,0,0-.72,1.29,4.94,4.94,0,0,0,.3,1.66h1.24a7.08,7.08,0,0,1,.4,2.5,3.25,3.25,0,0,1-1.24,2.52,4.63,4.63,0,0,1-3.12,1.07q-4.26,0-4.26-4.11,0-6.09,10.35-6.09,5.9,0,8.14,2c1.5,1.34,2.26,3.79,2.26,7.36v10.05c0,1.71.47,2.57,1.43,2.57q1.68,0,2-5.1l.75.05c-.14,2.91-.68,4.9-1.64,6s-2.52,1.64-4.7,1.64q-5.94,0-6.84-3.67a5.29,5.29,0,0,1-1.93,2.78,6.63,6.63,0,0,1-3.76.89q-7.32,0-7.33-6a4.84,4.84,0,0,1,2.8-4.83C945.79,839,948.66,838.6,952.52,838.6Zm-1.71,9.4a1,1,0,0,0,1,.75c.51,0,1-.42,1.44-1.27A7.59,7.59,0,0,0,954,844v-4.6h-.35q-3.08,0-3.07,4.5v.8A12.29,12.29,0,0,0,950.81,848Z"/><path class="cls-7" d="M969.55,843.15v-15.6h-2.72v-.89h2.72v-6.38l9.21-2.28v8.66h6.44v.89h-6.44v16.69a9.3,9.3,0,0,0,.47,3.42,1.93,1.93,0,0,0,2,1.09,3.22,3.22,0,0,0,2.6-1.49,8.61,8.61,0,0,0,1.46-4.06l.84.1a9.56,9.56,0,0,1-2.18,5.42q-1.78,2-5.89,2a10.34,10.34,0,0,1-6.29-1.64Q969.56,847.46,969.55,843.15Z"/><path class="cls-7" d="M1003.12,828.05c-1.22,0-2.29.79-3.21,2.38a10.92,10.92,0,0,0-1.39,5.64v13.27H1002v.89H986.59v-.89h2.72V827.55h-2.72v-.89h11.93v4.76a6.68,6.68,0,0,1,2.48-3.89,6.75,6.75,0,0,1,4.15-1.36,5.46,5.46,0,0,1,3.79,1.31,4.75,4.75,0,0,1,1.46,3.71,5.53,5.53,0,0,1-1.09,3.69,4.12,4.12,0,0,1-3.34,1.29,3.82,3.82,0,0,1-3.32-1.49q-1.06-1.48-.27-4.11h1.78Q1005.41,828.05,1003.12,828.05Z"/><path class="cls-7" d="M1014.29,847.43q-3.19-3.28-3.19-9.16t3.59-9a13.4,13.4,0,0,1,9.13-3.12q11.23,0,10.8,11.29h-14v1.93a16.89,16.89,0,0,0,1.24,7.33,4.4,4.4,0,0,0,4.31,2.47q5.74,0,7.52-6.14l.9.15a10.23,10.23,0,0,1-3.4,5.55q-2.45,2-7.35,2Q1017.48,850.73,1014.29,847.43Zm6.41-11h5.1V834a21.06,21.06,0,0,0-.47-5.47,1.85,1.85,0,0,0-1.88-1.46,2.21,2.21,0,0,0-2.08,1.56,15,15,0,0,0-.67,5.37Z"/><path class="cls-7" d="M885.83,942.1h13.22V943h-2.72v32.78h2.72v.94H884v-.94h2.73v-31h-.2l-7.43,31.89h-6.19l-8.71-32H864v31.1h2.72v.94h-6.73v-.94h2.72V943h-2.72v-.94h13.37l6.58,25.5Z"/><path class="cls-7" d="M900.59,953.19h12.13v22.68h2.77v.89h-14.7v-.89h2.72V954.08h-2.92Zm7.48-3.42a4.59,4.59,0,0,1-3.74-1.34,5,5,0,0,1-1.12-3.31,4.58,4.58,0,0,1,1.22-3.27,4.83,4.83,0,0,1,3.69-1.29,5.41,5.41,0,0,1,3.76,1.17,4.22,4.22,0,0,1,1.29,3.31,4.76,4.76,0,0,1-1.24,3.44A5.14,5.14,0,0,1,908.07,949.77Z"/><path class="cls-7" d="M933.66,962.15l5.85-8.07h-3.57v-.89h7.38v.89h-2.58l-6.43,9.11,8.07,12.68H945v.89H928.42v-.89h3.51L926.48,967l-5.64,8.92h3.27v.89h-7.78v-.89h3.27l6.29-9.91-7.53-11.88h-2.87v-.89h16.74v.89h-3.47Z"/><path class="cls-7" d="M947.16,974q-3.2-3.3-3.2-9.16t3.59-9a13.44,13.44,0,0,1,9.14-3.12q11.23,0,10.79,11.29h-14v1.93a16.86,16.86,0,0,0,1.24,7.33,4.41,4.41,0,0,0,4.31,2.48q5.73,0,7.52-6.14l.89.15a10.17,10.17,0,0,1-3.39,5.54q-2.45,2-7.35,2Q950.35,977.25,947.16,974Zm6.41-11h5.1v-2.42a21.15,21.15,0,0,0-.47-5.48,1.86,1.86,0,0,0-1.88-1.46,2.2,2.2,0,0,0-2.08,1.56,15,15,0,0,0-.67,5.38Z"/><path class="cls-7" d="M986.1,976.76l-.55-3.47q-1.68,4-6.83,4a7.84,7.84,0,0,1-6.61-3.07c-1.57-2-2.35-5.1-2.35-9.16q0-12.33,9.8-12.33c2.91,0,4.82.81,5.75,2.43V940.51h-3v-.89h12.37v36.25h2.43v.89Zm-6.24-3.35a2.06,2.06,0,0,0,2,1.71,3.21,3.21,0,0,0,2.53-1.28,5.88,5.88,0,0,0,1.07-3.82V959.23a7.26,7.26,0,0,0-.85-3.62,2.67,2.67,0,0,0-2.47-1.48c-1.09,0-1.83.72-2.23,2.18a32.93,32.93,0,0,0-.59,7.62v2.58A27.82,27.82,0,0,0,979.86,973.41Z"/><path class="cls-7" d="M1007.29,953.19h11.93v4.55q1.63-5,7.21-5t6.76,5.35a7,7,0,0,1,7.28-5.35q7.27,0,7.27,8.27v14.91h2.78v.89H1036.8v-.89h1.73v-16.1c0-2.51-.21-4-.64-4.4a1.06,1.06,0,0,0-.79-.3c-1,0-1.8.64-2.53,1.93a10,10,0,0,0-1.09,4.9v14h1.79v.89h-12.73v-.89h1.73v-16.1c0-2.51-.21-4-.64-4.4a1.06,1.06,0,0,0-.79-.3c-.93,0-1.76.7-2.5,2.1a10.55,10.55,0,0,0-1.12,5v13.67H1021v.89h-13.72v-.89H1010V954.08h-2.72Z"/><path class="cls-7" d="M1054.7,974q-3.2-3.3-3.19-9.16t3.59-9a13.42,13.42,0,0,1,9.13-3.12q11.24,0,10.8,11.29h-14v1.93a17,17,0,0,0,1.24,7.33,4.42,4.42,0,0,0,4.31,2.48q5.75,0,7.52-6.14l.9.15a10.24,10.24,0,0,1-3.4,5.54q-2.45,2-7.35,2Q1057.89,977.25,1054.7,974Zm6.41-11h5.1v-2.42a20.7,20.7,0,0,0-.47-5.48,1.85,1.85,0,0,0-1.88-1.46,2.21,2.21,0,0,0-2.08,1.56,15.22,15.22,0,0,0-.67,5.38Z"/><path class="cls-7" d="M1093.64,976.76l-.54-3.47q-1.68,4-6.84,4a7.85,7.85,0,0,1-6.61-3.07c-1.56-2-2.35-5.1-2.35-9.16q0-12.33,9.81-12.33c2.9,0,4.82.81,5.74,2.43V940.51h-3v-.89h12.38v36.25h2.42v.89Zm-6.24-3.35a2.07,2.07,0,0,0,2,1.71,3.2,3.2,0,0,0,2.52-1.28A5.88,5.88,0,0,0,1093,970V959.23a7.26,7.26,0,0,0-.84-3.62,2.69,2.69,0,0,0-2.48-1.48c-1.09,0-1.83.72-2.23,2.18a33.52,33.52,0,0,0-.59,7.62v2.58A27.82,27.82,0,0,0,1087.4,973.41Z"/><path class="cls-7" d="M1105.72,953.19h12.13v22.68h2.78v.89h-14.71v-.89h2.72V954.08h-2.92Zm7.48-3.42a4.59,4.59,0,0,1-3.74-1.34,5,5,0,0,1-1.11-3.31,4.58,4.58,0,0,1,1.21-3.27,4.84,4.84,0,0,1,3.69-1.29,5.41,5.41,0,0,1,3.76,1.17,4.22,4.22,0,0,1,1.29,3.31,4.71,4.71,0,0,1-1.24,3.44A5.12,5.12,0,0,1,1113.2,949.77Z"/><path class="cls-7" d="M1133.5,965.12h1.44v-3.81a25,25,0,0,0-.52-6.32,2,2,0,0,0-2-1.6,2.84,2.84,0,0,0-1.61.47,1.45,1.45,0,0,0-.72,1.28,4.9,4.9,0,0,0,.3,1.66h1.24a7.16,7.16,0,0,1,.4,2.5,3.25,3.25,0,0,1-1.24,2.53,4.63,4.63,0,0,1-3.12,1.06q-4.26,0-4.26-4.11,0-6.09,10.35-6.09,5.89,0,8.14,2t2.26,7.35V972.1c0,1.72.47,2.58,1.43,2.58q1.68,0,2-5.1l.75,0c-.14,2.9-.68,4.9-1.64,6s-2.52,1.63-4.7,1.63q-5.94,0-6.84-3.66a5.26,5.26,0,0,1-1.93,2.77,6.63,6.63,0,0,1-3.76.89q-7.32,0-7.33-6a4.87,4.87,0,0,1,2.8-4.83C1126.77,965.56,1129.64,965.12,1133.5,965.12Zm-1.71,9.41a1,1,0,0,0,1,.74q.76,0,1.44-1.26a7.62,7.62,0,0,0,.67-3.49v-4.61h-.35c-2,0-3.07,1.51-3.07,4.51v.79A12.38,12.38,0,0,0,1131.79,974.53Z"/><polygon class="cls-11" points="1380.37 114.71 1378.77 151.85 1408.46 174.23 1372.64 184.19 1360.53 219.34 1339.99 188.35 1302.82 187.69 1325.95 158.59 1315.08 123.03 1349.91 136.03 1380.37 114.71"/><polygon class="cls-12" points="1399.43 284.77 1388.44 320.29 1411.46 349.48 1374.29 350 1353.64 380.92 1341.66 345.72 1305.87 335.63 1335.64 313.36 1334.17 276.21 1364.55 297.64 1399.43 284.77"/><polygon class="cls-13" points="1408.13 465.04 1375.84 483.48 1372.73 520.53 1345.22 495.52 1309.02 504.01 1324.3 470.11 1305.05 438.31 1342 442.37 1366.3 414.23 1373.86 450.63 1408.13 465.04"/><path class="cls-7" d="M1453.28,150.68h13.22v.95h-2.72V184.4h2.72v.94h-15.1v-.94h2.72V153.46h-.2l-7.42,31.88h-6.19l-8.72-32h-.2V184.4h2.73v.94h-6.74v-.94h2.73V151.63h-2.73v-.95h13.37l6.59,25.5Z"/><path class="cls-7" d="M1496.7,185.34h-11.29l-.54-3.61a6.43,6.43,0,0,1-2.35,3,8.25,8.25,0,0,1-4.63,1.07q-7.68,0-7.68-8.27v-14.9h-2.77v-.89h12v17a11.52,11.52,0,0,0,.42,3.91,1.66,1.66,0,0,0,1.69.94,2.76,2.76,0,0,0,2.25-1.53,7.85,7.85,0,0,0,1-4.26V162.67h-2.28v-.89H1494v22.67h2.72Z"/><path class="cls-7" d="M1497.5,148.21h12.13v36.24h2.77v.89h-14.71v-.89h2.73V149.1h-2.92Z"/><path class="cls-7" d="M1515.82,178.26V162.67h-2.73v-.89h2.73v-6.39l9.21-2.28v8.67h6.43v.89H1525v16.68a9.09,9.09,0,0,0,.47,3.42,1.89,1.89,0,0,0,2,1.09,3.22,3.22,0,0,0,2.6-1.49,8.61,8.61,0,0,0,1.46-4.06l.84.1a9.53,9.53,0,0,1-2.18,5.42c-1.18,1.34-3.15,2-5.89,2a10.43,10.43,0,0,1-6.29-1.63Q1515.82,182.58,1515.82,178.26Z"/><path class="cls-7" d="M1532.65,161.78h12.13v22.67h2.77v.89h-14.7v-.89h2.72V162.67h-2.92Zm7.48-3.42a4.62,4.62,0,0,1-3.74-1.34,5,5,0,0,1-1.12-3.32,4.56,4.56,0,0,1,1.22-3.26,4.83,4.83,0,0,1,3.69-1.29,5.46,5.46,0,0,1,3.76,1.16,4.24,4.24,0,0,1,1.29,3.32,4.77,4.77,0,0,1-1.24,3.44A5.14,5.14,0,0,1,1540.13,158.36Z"/><path class="cls-7" d="M1548.54,161.78h11.94v4.55q1.63-5.06,7.2-5.05t6.76,5.35a7,7,0,0,1,7.28-5.35q7.27,0,7.28,8.27v14.9h2.77v.89h-13.72v-.89h1.74V168.36c0-2.51-.22-4-.65-4.41a1.1,1.1,0,0,0-.79-.29c-1,0-1.8.64-2.52,1.93a9.85,9.85,0,0,0-1.09,4.9v14h1.78v.89h-12.73v-.89h1.74V168.36c0-2.51-.22-4-.65-4.41a1.1,1.1,0,0,0-.79-.29c-.92,0-1.76.7-2.5,2.1a10.64,10.64,0,0,0-1.11,5v13.66h1.78v.89h-13.72v-.89h2.73V162.67h-2.73Z"/><path class="cls-7" d="M1596,182.55q-3.2-3.3-3.19-9.16t3.59-9a13.42,13.42,0,0,1,9.13-3.12q11.25,0,10.8,11.29h-14v1.93a17,17,0,0,0,1.23,7.33,4.41,4.41,0,0,0,4.31,2.47q5.75,0,7.53-6.14l.89.15a10.27,10.27,0,0,1-3.39,5.55q-2.46,2-7.36,2Q1599.14,185.84,1596,182.55Zm6.41-11h5.1v-2.43a20.66,20.66,0,0,0-.47-5.47,1.85,1.85,0,0,0-1.88-1.46,2.21,2.21,0,0,0-2.08,1.56,15.19,15.19,0,0,0-.67,5.37Z"/><path class="cls-7" d="M1634.89,185.34l-.54-3.46q-1.68,4-6.83,4a7.83,7.83,0,0,1-6.61-3.07q-2.36-3.08-2.35-9.16,0-12.33,9.8-12.33c2.9,0,4.82.81,5.74,2.43V149.1h-3v-.89h12.38v36.24h2.43v.89Zm-6.23-3.34a2.06,2.06,0,0,0,2,1.71,3.2,3.2,0,0,0,2.53-1.29,5.87,5.87,0,0,0,1.06-3.81V167.82a7.26,7.26,0,0,0-.84-3.62,2.69,2.69,0,0,0-2.48-1.48c-1.09,0-1.83.72-2.23,2.17a33.68,33.68,0,0,0-.59,7.63v2.57A27.26,27.26,0,0,0,1628.66,182Z"/><path class="cls-7" d="M1647,161.78h12.13v22.67h2.77v.89h-14.71v-.89h2.73V162.67H1647Zm7.47-3.42a4.64,4.64,0,0,1-3.74-1.34,5,5,0,0,1-1.11-3.32,4.55,4.55,0,0,1,1.21-3.26,4.84,4.84,0,0,1,3.69-1.29,5.44,5.44,0,0,1,3.76,1.16,4.24,4.24,0,0,1,1.29,3.32,4.73,4.73,0,0,1-1.24,3.44A5.12,5.12,0,0,1,1654.45,158.36Z"/><path class="cls-7" d="M1674.75,173.71h1.44V169.9a25,25,0,0,0-.52-6.32,2,2,0,0,0-2-1.61,2.92,2.92,0,0,0-1.61.47,1.47,1.47,0,0,0-.71,1.29,4.88,4.88,0,0,0,.29,1.66h1.24a7.12,7.12,0,0,1,.4,2.5,3.27,3.27,0,0,1-1.24,2.53,4.63,4.63,0,0,1-3.12,1.06q-4.26,0-4.26-4.11,0-6.09,10.35-6.09c3.93,0,6.64.67,8.15,2s2.25,3.78,2.25,7.35v10.05c0,1.72.48,2.57,1.43,2.57q1.7,0,2-5.1l.75.05q-.19,4.36-1.64,6c-1,1.08-2.52,1.63-4.7,1.63q-5.94,0-6.83-3.66a5.42,5.42,0,0,1-1.93,2.77,6.66,6.66,0,0,1-3.77.89q-7.32,0-7.33-6a4.86,4.86,0,0,1,2.8-4.83Q1669,173.72,1674.75,173.71Zm-1.71,9.41a1,1,0,0,0,1,.74c.52,0,1-.42,1.44-1.26a7.52,7.52,0,0,0,.67-3.49V174.5h-.35q-3.08,0-3.07,4.51v.79A12.38,12.38,0,0,0,1673,183.12Z"/><path class="cls-7" d="M1494.16,316.48h13.22v.94h-2.72V350.2h2.72v.94h-15.1v-.94H1495V319.26h-.2l-7.42,31.88h-6.19l-8.72-32h-.2V350.2H1475v.94h-6.74v-.94H1471V317.42h-2.73v-.94h13.37l6.59,25.5Z"/><path class="cls-7" d="M1537.58,351.14h-11.29l-.54-3.61a6.48,6.48,0,0,1-2.35,3,8.25,8.25,0,0,1-4.63,1.07q-7.68,0-7.68-8.27v-14.9h-2.77v-.9h12v17a11.52,11.52,0,0,0,.42,3.91,1.66,1.66,0,0,0,1.69.94,2.75,2.75,0,0,0,2.25-1.54,7.79,7.79,0,0,0,1-4.25V328.47h-2.28v-.9h11.49v22.68h2.72Z"/><path class="cls-7" d="M1539.71,351.64v-8.86h.6c.85,2.87,2,4.88,3.46,6a8.51,8.51,0,0,0,5.45,1.73q5.05,0,5-3.22a2.24,2.24,0,0,0-1.24-2.08,16.74,16.74,0,0,0-5-1.68,19.47,19.47,0,0,1-5.64-2.38,6.25,6.25,0,0,1-2.73-5.64,8.22,8.22,0,0,1,2.38-6.17,8.74,8.74,0,0,1,6.34-2.3,12.35,12.35,0,0,1,5,1.14,4.1,4.1,0,0,0,1.43.39,1.18,1.18,0,0,0,.85-.34,5.69,5.69,0,0,0,.84-1.29h.54v7.58h-.59q-2.54-6.44-7.82-6.44a5.92,5.92,0,0,0-3.47.82,2.44,2.44,0,0,0-1.14,2.05,1.76,1.76,0,0,0,.35,1.16,7.38,7.38,0,0,0,.54.62,2.2,2.2,0,0,0,.64.42c.3.15.55.27.75.35s.5.19.91.32a7.54,7.54,0,0,0,.92.25,38.18,38.18,0,0,1,4.85,1.46,16.61,16.61,0,0,1,2.82,1.51q2.73,1.89,2.73,6.07t-2.48,6.33a10,10,0,0,1-6.78,2.16,13.07,13.07,0,0,1-5.94-1.44,1.94,1.94,0,0,0-.94-.39q-1.1,0-2.13,1.83Z"/><path class="cls-7" d="M1559.86,327.57H1572v22.68h2.77v.89h-14.71v-.89h2.73V328.47h-2.93Zm7.48-3.41a4.64,4.64,0,0,1-3.74-1.34,5,5,0,0,1-1.11-3.32,4.54,4.54,0,0,1,1.21-3.26,4.84,4.84,0,0,1,3.69-1.29,5.44,5.44,0,0,1,3.76,1.16,4.24,4.24,0,0,1,1.29,3.32,4.73,4.73,0,0,1-1.24,3.44A5.12,5.12,0,0,1,1567.34,324.16Z"/><path class="cls-7" d="M1589.62,328a3.24,3.24,0,0,0-3.12,2.38c-.63,1.58-.94,4.21-.94,7.87v2.57q0,4.9,1.09,7a4.08,4.08,0,0,0,4,2.12,5.89,5.89,0,0,0,4.66-2,9.55,9.55,0,0,0,2.22-4.5l.9.1a10,10,0,0,1-3.47,6.14,11.63,11.63,0,0,1-7.08,1.93q-5.75,0-8.82-3.1t-3.06-9.06c0-4,1.16-7,3.49-9.18s5.57-3.22,9.73-3.22c2.93,0,5.18.57,6.73,1.71a5.13,5.13,0,0,1,2.33,4.28,5.32,5.32,0,0,1-1.12,3.76,4,4,0,0,1-3.07,1.19,4.61,4.61,0,0,1-3.14-1,3.86,3.86,0,0,1-1.19-3.07,6.43,6.43,0,0,1,.25-1.78h1.63a5.48,5.48,0,0,0,.35-1.78A2.1,2.1,0,0,0,1589.62,328Z"/><path class="cls-7" d="M1456.23,462.59v33.72h-6.93l-17-32v31.1H1435v.94h-6.79v-.94H1431V462.59h-2.73v-.94h13.67l13,24.85V462.59h-2.72v-.94H1459v.94Z"/><path class="cls-7" d="M1471.82,484.67h1.44v-3.81a24.37,24.37,0,0,0-.52-6.31,2,2,0,0,0-2-1.61,2.78,2.78,0,0,0-1.6.47,1.45,1.45,0,0,0-.72,1.28,5.14,5.14,0,0,0,.29,1.66h1.24a6.94,6.94,0,0,1,.4,2.5,3.22,3.22,0,0,1-1.24,2.53,4.59,4.59,0,0,1-3.12,1.06q-4.26,0-4.26-4.11,0-6.09,10.35-6.09c3.93,0,6.64.67,8.15,2s2.25,3.79,2.25,7.35v10q0,2.58,1.44,2.58,1.68,0,2-5.1l.74.05c-.13,2.9-.68,4.9-1.63,6s-2.53,1.63-4.71,1.63q-5.94,0-6.83-3.66a5.32,5.32,0,0,1-1.93,2.77,6.58,6.58,0,0,1-3.77.89q-7.32,0-7.32-6a4.86,4.86,0,0,1,2.79-4.83Q1466,484.68,1471.82,484.67Zm-1.7,9.41a1,1,0,0,0,1,.74c.51,0,1-.42,1.43-1.26a7.49,7.49,0,0,0,.67-3.49v-4.61h-.35c-2,0-3.07,1.51-3.07,4.51v.79A11.82,11.82,0,0,0,1470.12,494.08Z"/><path class="cls-7" d="M1515.6,496.31h-11.29l-.55-3.62a6.5,6.5,0,0,1-2.35,3.05,8.23,8.23,0,0,1-4.63,1.06q-7.68,0-7.67-8.27v-14.9h-2.78v-.89h12v17a11.15,11.15,0,0,0,.43,3.91,1.65,1.65,0,0,0,1.68.94,2.76,2.76,0,0,0,2.25-1.53,7.81,7.81,0,0,0,1-4.26V473.63h-2.28v-.89h11.49v22.68h2.73Z"/><path class="cls-7" d="M1519.06,489.23v-15.6h-2.72v-.89h2.72v-6.39l9.21-2.28v8.67h6.44v.89h-6.44v16.69a9.21,9.21,0,0,0,.47,3.41,1.9,1.9,0,0,0,2,1.09,3.22,3.22,0,0,0,2.6-1.48,8.65,8.65,0,0,0,1.46-4.06l.84.1a9.66,9.66,0,0,1-2.18,5.42q-1.79,2-5.89,2a10.34,10.34,0,0,1-6.29-1.63Q1519.07,493.54,1519.06,489.23Z"/><path class="cls-7" d="M1548,484.67h1.43v-3.81a24.37,24.37,0,0,0-.52-6.31,2,2,0,0,0-2-1.61,2.81,2.81,0,0,0-1.61.47,1.45,1.45,0,0,0-.72,1.28,4.9,4.9,0,0,0,.3,1.66h1.24a7.17,7.17,0,0,1,.39,2.5,3.22,3.22,0,0,1-1.24,2.53,4.59,4.59,0,0,1-3.12,1.06c-2.84,0-4.25-1.37-4.25-4.11q0-6.09,10.34-6.09,5.9,0,8.15,2t2.25,7.35v10q0,2.58,1.44,2.58,1.68,0,2-5.1l.74.05c-.13,2.9-.68,4.9-1.63,6s-2.53,1.63-4.71,1.63q-5.94,0-6.83-3.66a5.32,5.32,0,0,1-1.93,2.77,6.55,6.55,0,0,1-3.76.89q-7.34,0-7.33-6a4.85,4.85,0,0,1,2.8-4.83Q1542.18,484.68,1548,484.67Zm-1.71,9.41a1,1,0,0,0,1,.74c.51,0,1-.42,1.43-1.26a7.49,7.49,0,0,0,.67-3.49v-4.61h-.34c-2,0-3.07,1.51-3.07,4.51v.79A12.38,12.38,0,0,0,1546.27,494.08Z"/><path class="cls-7" d="M1563.38,472.74h11.93v4.55a8.32,8.32,0,0,1,2.42-3.66,7.55,7.55,0,0,1,5-1.39q7.66,0,7.67,8.27v14.91h2.77v.89h-14v-.89h2v-16.1a11.51,11.51,0,0,0-.39-3.83,1.46,1.46,0,0,0-1.44-.87c-1.06,0-2,.69-2.8,2.08a9.86,9.86,0,0,0-1.21,5.05v13.67h2.13v.89h-14.06v-.89h2.72V473.63h-2.72Z"/><path class="cls-7" d="M1610,496.31v-.89h2.28l-5.6-11.49-.94.25v11.24H1608v.89h-14.21v-.89h2.72V460.06h-2.92v-.89h12.13v24l.79-.3,11.14-9.26H1613v-.89h9.75v.89h-3.46l-5.89,5,8.56,16.79h1.78v.89Z"/><path class="cls-7" d="M1624.28,472.74h12.13v22.68h2.77v.89h-14.7v-.89h2.72V473.63h-2.92Zm7.47-3.42A4.6,4.6,0,0,1,1628,468a5,5,0,0,1-1.12-3.32,4.62,4.62,0,0,1,1.21-3.27,4.84,4.84,0,0,1,3.69-1.29,5.44,5.44,0,0,1,3.77,1.17,4.25,4.25,0,0,1,1.28,3.31,4.79,4.79,0,0,1-1.23,3.45A5.2,5.2,0,0,1,1631.75,469.32Z"/><polygon class="cls-14" points="1367.01 596.53 1365.4 633.68 1395.1 656.06 1359.27 666.01 1347.17 701.17 1326.63 670.17 1289.45 669.52 1312.58 640.41 1301.72 604.86 1336.55 617.86 1367.01 596.53"/><polygon class="cls-15" points="1393.49 762.25 1382.5 797.76 1405.52 826.96 1368.35 827.47 1347.7 858.39 1335.72 823.2 1299.93 813.11 1329.7 790.84 1328.23 753.69 1358.62 775.12 1393.49 762.25"/><polygon class="cls-16" points="1416.7 968.26 1384.41 986.69 1381.3 1023.74 1353.79 998.73 1317.59 1007.22 1332.87 973.33 1313.62 941.52 1350.57 945.58 1374.87 917.44 1382.43 953.85 1416.7 968.26"/><path class="cls-7" d="M1416.53,589.4h14.56q7.47,0,11.14,2.15c2.44,1.44,3.66,4,3.66,7.7q0,6.13-4.45,8.47-4.17,2.13-11.64,2.12h-.39v13.27h6.18v.95h-19.06v-.95h3.22V590.34h-3.22Zm12.88.94V608.9h1c2,0,3.35-.67,4.11-2s1.14-3.54,1.14-6.58v-2.38c0-2.8-.35-4.77-1.06-5.89s-2-1.68-3.89-1.68Z"/><path class="cls-7" d="M1449.75,621.38q-3.16-3.17-3.16-9.08t3.39-9.11q3.39-3.2,9.53-3.2t9.16,3c2,2,3,5,3,9q0,12.63-12.58,12.63Q1452.93,624.55,1449.75,621.38Zm12.43-7.08v-4.21a33.38,33.38,0,0,0-.52-7c-.34-1.47-1.14-2.21-2.4-2.21a2.5,2.5,0,0,0-1.76.62,3.85,3.85,0,0,0-1,2.06,37.2,37.2,0,0,0-.45,6.78v3.86a35.81,35.81,0,0,0,.32,6.49,11.45,11.45,0,0,0,.67,1.78,2.12,2.12,0,0,0,2.13,1.19c1.29,0,2.13-.74,2.53-2.23A34.82,34.82,0,0,0,1462.18,614.3Z"/><path class="cls-7" d="M1476.52,621.26q-3.19-3.3-3.2-9.16t3.59-9a13.44,13.44,0,0,1,9.14-3.12q11.23,0,10.79,11.29h-14v1.93a16.86,16.86,0,0,0,1.24,7.33,4.41,4.41,0,0,0,4.31,2.48q5.73,0,7.52-6.14l.89.14a10.21,10.21,0,0,1-3.39,5.55q-2.45,2-7.35,2Q1479.71,624.55,1476.52,621.26Zm6.41-11h5.1v-2.43a21.11,21.11,0,0,0-.47-5.47,1.86,1.86,0,0,0-1.88-1.46,2.2,2.2,0,0,0-2.08,1.56,15,15,0,0,0-.67,5.37Z"/><path class="cls-7" d="M1501.1,617v-15.6h-2.72v-.89h2.72V594.1l9.21-2.28v8.67h6.44v.89h-6.44v16.68a9.23,9.23,0,0,0,.47,3.42,1.9,1.9,0,0,0,2,1.09,3.23,3.23,0,0,0,2.6-1.49,8.61,8.61,0,0,0,1.46-4.06l.84.1a9.66,9.66,0,0,1-2.18,5.43q-1.79,2-5.89,2a10.34,10.34,0,0,1-6.29-1.63Q1501.11,621.29,1501.1,617Z"/><path class="cls-7" d="M1534.67,601.87c-1.22,0-2.29.8-3.22,2.38a11,11,0,0,0-1.38,5.64v13.27h3.51v.9h-15.45v-.9h2.73V601.38h-2.73v-.89h11.94v4.75a6.7,6.7,0,0,1,2.47-3.89,6.84,6.84,0,0,1,4.16-1.36,5.49,5.49,0,0,1,3.79,1.31A4.77,4.77,0,0,1,1542,605a5.55,5.55,0,0,1-1.09,3.69,4.13,4.13,0,0,1-3.34,1.28,3.81,3.81,0,0,1-3.32-1.48q-1.07-1.49-.27-4.11h1.78C1536.54,602.72,1536.19,601.87,1534.67,601.87Z"/><path class="cls-7" d="M1541.65,601.38v-.89H1556v.89h-2.67l5.39,16.44,5.75-16.44h-3.32v-.89h7v.89h-2.47l-9.26,26.69q-1.64,4.65-3.67,6.51a7.09,7.09,0,0,1-5,1.85,7.2,7.2,0,0,1-4.6-1.33,4.16,4.16,0,0,1-1.69-3.42,4.32,4.32,0,0,1,1.09-3.17,3.92,3.92,0,0,1,2.87-1.09q4.11,0,4.11,3.42a7,7,0,0,1-.29,1.78h-1.74a2.76,2.76,0,0,0-.1,1.88,1.28,1.28,0,0,0,1.34.75,4.58,4.58,0,0,0,3.62-2,22,22,0,0,0,3-6.11l1.09-3.07h-4.36l-8.47-22.68Z"/><path class="cls-7" d="M1566.66,628.86l14.6-44.17h2l-14.55,44.17Z"/><path class="cls-7" d="M1599.88,606.53h-2.62v16.58h3.21v.95h-16.09v-.95h3.22V590.34h-3.22v-.94h15a43.47,43.47,0,0,1,9.13.66,9.67,9.67,0,0,1,3.79,1.61q2.37,1.94,2.37,6.14c0,2.81-.69,4.81-2.07,6s-3.5,1.92-6.34,2.15v.15c2.67.37,4.54,1.16,5.59,2.38s1.59,3.27,1.59,6.14v2.62a14.36,14.36,0,0,0,.27,3.47,1.13,1.13,0,0,0,1.16.89,1.58,1.58,0,0,0,1.41-.82,10.73,10.73,0,0,0,1-3.44l.84.1c-.36,2.81-1,4.69-1.9,5.64s-2.72,1.44-5.43,1.44-4.63-.63-5.76-1.91-1.71-3.65-1.71-7.15v-3.62a8.7,8.7,0,0,0-.72-4.06A2.77,2.77,0,0,0,1599.88,606.53Zm-2.62-16.19v15.25h1.58a5,5,0,0,0,4.18-1.74q1.37-1.73,1.37-5.64v-1.44c0-2.6-.44-4.33-1.32-5.17a5.87,5.87,0,0,0-4.18-1.26Z"/><path class="cls-7" d="M1631.47,612.42h1.44v-3.81a25,25,0,0,0-.52-6.32,2,2,0,0,0-2-1.6,2.91,2.91,0,0,0-1.61.46,1.48,1.48,0,0,0-.72,1.29,4.9,4.9,0,0,0,.3,1.66h1.24a7.13,7.13,0,0,1,.39,2.5,3.24,3.24,0,0,1-1.23,2.53,4.63,4.63,0,0,1-3.12,1.06q-4.26,0-4.26-4.11,0-6.09,10.35-6.09,5.9,0,8.14,2c1.5,1.33,2.26,3.78,2.26,7.35v10c0,1.72.47,2.58,1.43,2.58q1.68,0,2-5.1l.74,0q-.19,4.35-1.63,6c-1,1.09-2.52,1.63-4.7,1.63q-5.94,0-6.84-3.66a5.32,5.32,0,0,1-1.93,2.77,6.63,6.63,0,0,1-3.76.89q-7.34,0-7.33-6a4.85,4.85,0,0,1,2.8-4.83C1624.74,612.86,1627.61,612.42,1631.47,612.42Zm-1.71,9.41a1,1,0,0,0,1,.74q.77,0,1.44-1.26a7.62,7.62,0,0,0,.67-3.49v-4.61h-.35q-3.07,0-3.07,4.51v.79A12.38,12.38,0,0,0,1629.76,621.83Z"/><path class="cls-7" d="M1658.11,600.49v3.91a6.88,6.88,0,0,1,6.83-4.41,7.86,7.86,0,0,1,6.61,3.07q2.35,3.08,2.35,9.31t-2.55,9.21q-2.55,3-7.65,3a8.36,8.36,0,0,1-3.56-.59,4.67,4.67,0,0,1-1.93-1.84V635h6.39v.89h-18.33V635H1649V601.38h-2.63v-.89Zm5.74,3.39c-.33-1.17-1-1.76-1.93-1.76s-1.81.62-2.57,1.86a9.43,9.43,0,0,0-1.14,5V618a7.26,7.26,0,0,0,.84,3.62,2.68,2.68,0,0,0,2.47,1.48c1.09,0,1.84-.72,2.23-2.17a32.94,32.94,0,0,0,.6-7.63v-2.57A30.36,30.36,0,0,0,1663.85,603.88Z"/><path class="cls-7" d="M1675.29,628.86l14.61-44.17h2l-14.56,44.17Z"/><path class="cls-7" d="M1431.88,673a7.44,7.44,0,0,0,4.38-1.33,4.61,4.61,0,0,0,1.91-4,4.73,4.73,0,0,0-2.06-4.13,19.48,19.48,0,0,0-5.84-2.5,39.42,39.42,0,0,1-5.49-1.86,14.55,14.55,0,0,1-3.25-2.08q-3.08-2.57-3.07-8a10.39,10.39,0,0,1,3.15-7.58c2.09-2.11,5-3.17,8.59-3.17a21.08,21.08,0,0,1,5.47.77,20.56,20.56,0,0,0,3.54.77c.46,0,.87-.33,1.24-1h.54l.35,10h-.79a31.21,31.21,0,0,0-5-6.91,7.88,7.88,0,0,0-5.65-2.59,7.07,7.07,0,0,0-4.72,1.41,4.63,4.63,0,0,0-1.69,3.76,4,4,0,0,0,2,3.61,17.9,17.9,0,0,0,4.92,2.06c2,.53,3.23.89,3.84,1.09s1.37.47,2.28.82a11.33,11.33,0,0,1,2.23,1.08,15,15,0,0,1,1.83,1.44,6.77,6.77,0,0,1,1.51,1.91,12.63,12.63,0,0,1-2,14.23,12.06,12.06,0,0,1-8.78,3.24,32.4,32.4,0,0,1-6.47-.74c-2.42-.49-3.77-.74-4-.74-.46,0-.91.49-1.34,1.48h-.69l-.5-11.78h.85a27.09,27.09,0,0,0,5.57,7.53A10.32,10.32,0,0,0,1431.88,673Z"/><path class="cls-7" d="M1457.83,650v3.91a6.86,6.86,0,0,1,6.83-4.4,7.84,7.84,0,0,1,6.61,3.07c1.57,2,2.35,5.15,2.35,9.3s-.85,7.23-2.55,9.21-4.25,3-7.65,3a8.21,8.21,0,0,1-3.56-.59,4.73,4.73,0,0,1-1.94-1.83v12.82h6.39v.89H1446v-.89h2.72V650.89h-2.62V650Zm5.74,3.39c-.33-1.17-1-1.75-1.93-1.75a3.15,3.15,0,0,0-2.58,1.85,9.46,9.46,0,0,0-1.14,5v9.06a7.12,7.12,0,0,0,.85,3.61,2.68,2.68,0,0,0,2.47,1.49c1.09,0,1.83-.73,2.23-2.18a33,33,0,0,0,.59-7.63v-2.57A30.55,30.55,0,0,0,1463.57,653.39Z"/><path class="cls-7" d="M1478.67,670.9c-2.11-2.12-3.17-5.14-3.17-9.09s1.13-7,3.39-9.11,5.44-3.19,9.54-3.19,7.14,1,9.16,2.94,3,5,3,9q0,12.63-12.58,12.62Q1481.84,674.06,1478.67,670.9Zm12.43-7.08v-4.21a33.42,33.42,0,0,0-.52-7c-.35-1.47-1.15-2.2-2.4-2.2a2.46,2.46,0,0,0-1.76.62,3.74,3.74,0,0,0-1,2.05,38.51,38.51,0,0,0-.44,6.78v3.87a35.67,35.67,0,0,0,.32,6.48A11,11,0,0,0,1486,672a2.1,2.1,0,0,0,2.13,1.18,2.52,2.52,0,0,0,2.52-2.22A34,34,0,0,0,1491.1,663.82Z"/><path class="cls-7" d="M1518.18,673.57v-.89h2.28l-5.59-11.49-.95.25v11.24h2.28v.89H1502v-.89h2.72V637.33h-2.92v-.9h12.13v24l.8-.3,11.14-9.26h-4.66V650H1531v.89h-3.47l-5.89,5,8.57,16.79H1532v.89Z"/><path class="cls-7" d="M1534.89,670.77q-3.18-3.28-3.19-9.16t3.59-9a13.47,13.47,0,0,1,9.14-3.11q11.23,0,10.79,11.28h-14v1.94a17,17,0,0,0,1.23,7.32,4.41,4.41,0,0,0,4.31,2.48q5.75,0,7.53-6.14l.89.15a10.24,10.24,0,0,1-3.39,5.54q-2.46,2-7.35,2Q1538.09,674.06,1534.89,670.77Zm6.42-11h5.1v-2.42a21,21,0,0,0-.47-5.47,1.85,1.85,0,0,0-1.89-1.46A2.21,2.21,0,0,0,1542,652a15.25,15.25,0,0,0-.66,5.37Z"/><path class="cls-7" d="M1557.1,650H1569v4.56a8.29,8.29,0,0,1,2.43-3.67,7.54,7.54,0,0,1,5-1.38q7.68,0,7.68,8.26v14.91h2.77v.89h-14v-.89h2V656.59a11.53,11.53,0,0,0-.4-3.84,1.44,1.44,0,0,0-1.44-.87c-1,0-2,.7-2.79,2.08a9.86,9.86,0,0,0-1.22,5v13.67h2.13v.89H1557.1v-.89h2.72V650.89h-2.72Z"/><path class="cls-7" d="M1613.35,650.89V650h12.77v.89h-2l4.46,16.69,4.41-16.69h-3.42V650h6.68v.89h-2.07l-6,22.68h-6.78l-4.31-15.2-4.65,15.2h-6.64l-7.32-22.68h-2.23V650h15v.89h-3l4.55,16.84,3.57-11.59-1.24-5.25Z"/><path class="cls-7" d="M1639.54,670.9c-2.11-2.12-3.17-5.14-3.17-9.09s1.13-7,3.39-9.11,5.44-3.19,9.54-3.19,7.14,1,9.16,2.94,3,5,3,9q0,12.63-12.58,12.62Q1642.71,674.06,1639.54,670.9Zm12.43-7.08v-4.21a33.42,33.42,0,0,0-.52-7c-.35-1.47-1.15-2.2-2.4-2.2a2.46,2.46,0,0,0-1.76.62,3.74,3.74,0,0,0-1,2.05,37.35,37.35,0,0,0-.45,6.78v3.87a35.67,35.67,0,0,0,.32,6.48,12,12,0,0,0,.67,1.79,2.1,2.1,0,0,0,2.13,1.18,2.52,2.52,0,0,0,2.52-2.22A34,34,0,0,0,1652,663.82Z"/><path class="cls-7" d="M1679.4,651.39c-1.22,0-2.29.79-3.22,2.37a11.08,11.08,0,0,0-1.38,5.65v13.27h3.51v.89h-15.45v-.89h2.73V650.89h-2.73V650h11.94v4.75a6.65,6.65,0,0,1,6.63-5.24,5.43,5.43,0,0,1,3.79,1.31,4.73,4.73,0,0,1,1.46,3.71,5.55,5.55,0,0,1-1.09,3.69,4.13,4.13,0,0,1-3.34,1.29,3.82,3.82,0,0,1-3.32-1.49q-1.07-1.49-.27-4.11h1.78Q1681.69,651.39,1679.4,651.39Z"/><path class="cls-7" d="M1704.21,673.57l-.55-3.47c-1.12,2.65-3.4,4-6.83,4a7.84,7.84,0,0,1-6.61-3.07q-2.35-3.06-2.35-9.16,0-12.32,9.8-12.32c2.91,0,4.82.81,5.75,2.42v-14.6h-3v-.9h12.37v36.25h2.43v.89Zm-6.24-3.34a2.06,2.06,0,0,0,2,1.71,3.19,3.19,0,0,0,2.53-1.29,5.87,5.87,0,0,0,1.06-3.81V656a7.22,7.22,0,0,0-.84-3.61,2.68,2.68,0,0,0-2.47-1.49c-1.09,0-1.84.73-2.23,2.18a32.82,32.82,0,0,0-.6,7.63v2.57A27.76,27.76,0,0,0,1698,670.23Z"/><path class="cls-7" d="M1450.93,817.88a7.45,7.45,0,0,0,4.38-1.34,4.61,4.61,0,0,0,1.91-4,4.73,4.73,0,0,0-2.06-4.13,19.59,19.59,0,0,0-5.84-2.5,39.66,39.66,0,0,1-5.5-1.86,14.49,14.49,0,0,1-3.24-2.08q-3.07-2.56-3.07-8a10.42,10.42,0,0,1,3.14-7.58q3.15-3.17,8.59-3.16a21.13,21.13,0,0,1,5.48.76,20.17,20.17,0,0,0,3.54.77q.69,0,1.23-1h.55l.35,10h-.8a30.88,30.88,0,0,0-5-6.91,7.9,7.9,0,0,0-5.65-2.59,7.18,7.18,0,0,0-4.73,1.41,4.66,4.66,0,0,0-1.68,3.76,4,4,0,0,0,2,3.61,17.77,17.77,0,0,0,4.92,2.06c2,.53,3.23.89,3.84,1.09s1.37.47,2.28.82a11.8,11.8,0,0,1,2.22,1.08,15.88,15.88,0,0,1,1.84,1.44,7,7,0,0,1,1.51,1.91,12.68,12.68,0,0,1-2,14.23,12.1,12.1,0,0,1-8.79,3.24,32.39,32.39,0,0,1-6.46-.74c-2.42-.49-3.77-.74-4-.74-.47,0-.91.5-1.34,1.48h-.69l-.5-11.78h.84a27.29,27.29,0,0,0,5.57,7.53A10.35,10.35,0,0,0,1450.93,817.88Z"/><path class="cls-7" d="M1467.52,811.34v-15.6h-2.73v-.89h2.73v-6.39l9.2-2.27v8.66h6.44v.89h-6.44v16.69a9.3,9.3,0,0,0,.47,3.42,1.93,1.93,0,0,0,2,1.09,3.22,3.22,0,0,0,2.6-1.49,8.61,8.61,0,0,0,1.46-4.06l.84.1a9.56,9.56,0,0,1-2.18,5.42c-1.18,1.34-3.15,2-5.89,2a10.36,10.36,0,0,1-6.29-1.63Q1467.52,815.65,1467.52,811.34Z"/><path class="cls-7" d="M1488.11,815.75c-2.11-2.12-3.17-5.14-3.17-9.09s1.13-7,3.39-9.11,5.44-3.19,9.54-3.19,7.14,1,9.16,2.94,3,5,3,9q0,12.63-12.58,12.62Q1491.28,818.91,1488.11,815.75Zm12.43-7.08v-4.21a33.49,33.49,0,0,0-.52-7c-.35-1.47-1.15-2.2-2.4-2.2a2.46,2.46,0,0,0-1.76.62,3.74,3.74,0,0,0-1,2,37.4,37.4,0,0,0-.45,6.79v3.86a35.59,35.59,0,0,0,.32,6.48,12,12,0,0,0,.67,1.79,2.1,2.1,0,0,0,2.13,1.18,2.52,2.52,0,0,0,2.52-2.22A34,34,0,0,0,1500.54,808.67Z"/><path class="cls-7" d="M1528,796.24c-1.22,0-2.29.79-3.22,2.37a11.08,11.08,0,0,0-1.38,5.65v13.27h3.51v.89h-15.45v-.89h2.73V795.74h-2.73v-.89h11.94v4.75a6.65,6.65,0,0,1,6.63-5.24,5.45,5.45,0,0,1,3.79,1.31,4.73,4.73,0,0,1,1.46,3.71,5.55,5.55,0,0,1-1.09,3.69,4.13,4.13,0,0,1-3.34,1.29,3.82,3.82,0,0,1-3.32-1.49q-1.07-1.49-.27-4.11H1529Q1530.26,796.24,1528,796.24Z"/><path class="cls-7" d="M1535,795.74v-.89h14.36v.89h-2.67l5.39,16.44,5.75-16.44h-3.32v-.89h7v.89H1559l-9.26,26.69q-1.64,4.65-3.67,6.51a7,7,0,0,1-5,1.86,7.2,7.2,0,0,1-4.6-1.34,4.16,4.16,0,0,1-1.69-3.41,4.31,4.31,0,0,1,1.09-3.17,3.89,3.89,0,0,1,2.88-1.09c2.73,0,4.11,1.14,4.11,3.41a6.66,6.66,0,0,1-.3,1.79h-1.73a2.65,2.65,0,0,0-.1,1.88,1.27,1.27,0,0,0,1.33.74,4.57,4.57,0,0,0,3.62-2,21.69,21.69,0,0,0,3-6.11l1.09-3.07h-4.36L1537,795.74Z"/><path class="cls-7" d="M1564,811.34v-15.6h-2.73v-.89H1564v-6.39l9.21-2.27v8.66h6.43v.89h-6.43v16.69a9.09,9.09,0,0,0,.47,3.42,1.9,1.9,0,0,0,2,1.09,3.22,3.22,0,0,0,2.6-1.49,8.5,8.5,0,0,0,1.46-4.06l.85.1a9.63,9.63,0,0,1-2.18,5.42c-1.19,1.34-3.16,2-5.9,2a10.31,10.31,0,0,1-6.28-1.63C1564.74,816.19,1564,814.21,1564,811.34Z"/><path class="cls-7" d="M1584.49,815.62q-3.2-3.29-3.19-9.16t3.59-9a13.42,13.42,0,0,1,9.13-3.12q11.25,0,10.8,11.29h-14v1.93a17.07,17.07,0,0,0,1.24,7.33,4.41,4.41,0,0,0,4.31,2.47q5.74,0,7.52-6.14l.9.15a10.26,10.26,0,0,1-3.4,5.55c-1.63,1.32-4.08,2-7.35,2Q1587.68,818.91,1584.49,815.62Zm6.41-11h5.1v-2.42a20.61,20.61,0,0,0-.47-5.47,1.84,1.84,0,0,0-1.88-1.46,2.21,2.21,0,0,0-2.08,1.56,15.19,15.19,0,0,0-.67,5.37Z"/><path class="cls-7" d="M1606.4,781.28h12.13v36.25h2.77v.89h-14.7v-.89h2.72V782.18h-2.92Z"/><path class="cls-7" d="M1622.05,781.28h12.13v36.25H1637v.89h-14.71v-.89H1625V782.18h-2.92Z"/><path class="cls-7" d="M1637.69,794.85h12.13v22.68h2.78v.89h-14.71v-.89h2.72V795.74h-2.92Zm7.48-3.41a4.62,4.62,0,0,1-3.74-1.34,5,5,0,0,1-1.11-3.32,4.58,4.58,0,0,1,1.21-3.27,4.84,4.84,0,0,1,3.69-1.28,5.41,5.41,0,0,1,3.76,1.16,4.24,4.24,0,0,1,1.29,3.32,4.75,4.75,0,0,1-1.24,3.44A5.12,5.12,0,0,1,1645.17,791.44Z"/><path class="cls-7" d="M1653.68,794.85h11.94v4.56a8.19,8.19,0,0,1,2.42-3.67,7.54,7.54,0,0,1,5-1.38q7.68,0,7.68,8.26v14.91h2.77v.89h-14v-.89h2V801.44a11.26,11.26,0,0,0-.4-3.84,1.43,1.43,0,0,0-1.43-.87c-1.06,0-2,.7-2.8,2.08a9.86,9.86,0,0,0-1.21,5.05v13.67h2.13v.89h-14.07v-.89h2.73V795.74h-2.73Z"/><path class="cls-7" d="M1703.94,792.28l1.39-.84c.2-1-.2-1.54-1.19-1.54q-2.13,0-2.13,3.27a15,15,0,0,0,.35,3,7.55,7.55,0,0,1,3.76,6.46,7.43,7.43,0,0,1-2.72,6.12,11.52,11.52,0,0,1-7.38,2.17,21.67,21.67,0,0,1-4-.39c-1.45.92-2.18,1.62-2.18,2.08s1.06.69,3.17.69h5q11.23,0,11.24,8.07a8.19,8.19,0,0,1-3.39,6.91q-3.39,2.55-10.57,2.55-12.24,0-12.23-5.3,0-2.87,3.81-4l3,1.34a10,10,0,0,0-.4,2.72c0,2.84,2.12,4.26,6.34,4.26a10.34,10.34,0,0,0,5.94-1.44,4.21,4.21,0,0,0,2.08-3.56,3,3,0,0,0-1.26-2.85c-.84-.48-2.52-.72-5-.72h-4.8c-2.67,0-4.59-.44-5.74-1.33a4,4,0,0,1-1.74-3.3,4.62,4.62,0,0,1,1.24-3.27,23.15,23.15,0,0,1,4.41-3.24q-5.75-1.64-5.74-7.53a7.5,7.5,0,0,1,2.67-6c1.78-1.51,4.46-2.27,8-2.27a11.43,11.43,0,0,1,5.5,1.23,11.16,11.16,0,0,1-.3-2.42,4.9,4.9,0,0,1,1.49-4,5,5,0,0,1,3.31-1.24,4.36,4.36,0,0,1,3,1,3.34,3.34,0,0,1,1.11,2.65,3.19,3.19,0,0,1-.89,2.5,3,3,0,0,1-2.15.82,3.15,3.15,0,0,1-2.08-.67A2.42,2.42,0,0,1,1703.94,792.28Zm-10.5,9.26v2.67a11.93,11.93,0,0,0,.57,4.51,1.84,1.84,0,0,0,1.74,1.18,1.74,1.74,0,0,0,1.68-1.16A13.92,13.92,0,0,0,1698,804v-2.42a16.3,16.3,0,0,0-.5-5.08,1.7,1.7,0,0,0-1.65-1.21,1.88,1.88,0,0,0-1.76,1.26A13.68,13.68,0,0,0,1693.44,801.54Z"/><path class="cls-7" d="M1474.33,954.25l.49,12.43h-.94q-2.18-6.58-3.86-9a5.56,5.56,0,0,0-4.85-2.4h-.6v32.58h4.21v1h-18.07v-1h4.21V955.29h-.65a5.64,5.64,0,0,0-4.9,2.5,37.72,37.72,0,0,0-3.81,8.89h-.94l.5-12.43Z"/><path class="cls-7" d="M1477.15,951.78h11.93V969.9a8.2,8.2,0,0,1,2.43-3.66,7.48,7.48,0,0,1,5-1.39q7.68,0,7.68,8.27V988h2.77v.89h-14V988h2V971.93a11.53,11.53,0,0,0-.4-3.84,1.44,1.44,0,0,0-1.44-.87c-1,0-2,.7-2.79,2.09a9.81,9.81,0,0,0-1.22,5.05V988h2.13v.89h-14.06V988h2.72V952.67h-2.72Z"/><path class="cls-7" d="M1511.09,986.12q-3.19-3.3-3.19-9.17t3.59-9a13.42,13.42,0,0,1,9.13-3.12q11.25,0,10.8,11.29h-14v1.93a17.06,17.06,0,0,0,1.23,7.33,4.41,4.41,0,0,0,4.31,2.47q5.74,0,7.53-6.14l.89.15a10.27,10.27,0,0,1-3.39,5.55q-2.46,2-7.36,2Q1514.3,989.41,1511.09,986.12Zm6.41-11h5.1v-2.43a20.61,20.61,0,0,0-.47-5.47,1.85,1.85,0,0,0-1.88-1.46,2.21,2.21,0,0,0-2.08,1.56,15.19,15.19,0,0,0-.67,5.37Z"/><path class="cls-7" d="M1545.08,977.28h1.44v-3.82a24.42,24.42,0,0,0-.52-6.31,2,2,0,0,0-2-1.61,2.86,2.86,0,0,0-1.6.47,1.48,1.48,0,0,0-.72,1.29A5.18,5.18,0,0,0,1542,969h1.24a6.9,6.9,0,0,1,.4,2.5,3.25,3.25,0,0,1-1.24,2.52,4.62,4.62,0,0,1-3.12,1.07q-4.26,0-4.26-4.11,0-6.09,10.35-6.09c3.93,0,6.64.67,8.15,2s2.25,3.79,2.25,7.36v10c0,1.72.48,2.57,1.44,2.57q1.68,0,2-5.1l.74,0q-.2,4.37-1.64,6t-4.7,1.64q-5.94,0-6.83-3.67a5.4,5.4,0,0,1-1.93,2.78,6.66,6.66,0,0,1-3.77.89q-7.32,0-7.32-6a4.84,4.84,0,0,1,2.79-4.83C1538.36,977.71,1541.22,977.28,1545.08,977.28Zm-1.7,9.41a1,1,0,0,0,1,.74c.51,0,1-.42,1.43-1.27a7.46,7.46,0,0,0,.67-3.49v-4.6h-.35c-2,0-3.07,1.5-3.07,4.51v.79A11.87,11.87,0,0,0,1543.38,986.69Z"/><path class="cls-7" d="M1562.12,981.83V966.24h-2.73v-.9h2.73V959l9.21-2.28v8.66h6.43v.9h-6.43v16.68a9.09,9.09,0,0,0,.47,3.42,1.9,1.9,0,0,0,2,1.09,3.22,3.22,0,0,0,2.6-1.49,8.61,8.61,0,0,0,1.46-4.06l.84.1a9.59,9.59,0,0,1-2.17,5.42q-1.79,2-5.9,2a10.31,10.31,0,0,1-6.28-1.64C1562.84,986.69,1562.12,984.7,1562.12,981.83Z"/><path class="cls-7" d="M1595.69,966.73c-1.22,0-2.3.79-3.22,2.38a10.92,10.92,0,0,0-1.39,5.64V988h3.52v.89h-15.45V988h2.72V966.24h-2.72v-.9h11.93v4.76a6.67,6.67,0,0,1,6.64-5.25,5.45,5.45,0,0,1,3.78,1.31,4.72,4.72,0,0,1,1.47,3.71,5.56,5.56,0,0,1-1.09,3.69,4.14,4.14,0,0,1-3.35,1.29,3.79,3.79,0,0,1-3.31-1.48c-.71-1-.8-2.36-.28-4.11h1.79Q1598,966.73,1595.69,966.73Z"/><path class="cls-7" d="M1606.85,986.12q-3.19-3.3-3.19-9.17t3.59-9a13.42,13.42,0,0,1,9.13-3.12q11.25,0,10.8,11.29h-14v1.93a17.06,17.06,0,0,0,1.23,7.33,4.41,4.41,0,0,0,4.31,2.47q5.74,0,7.53-6.14l.89.15a10.27,10.27,0,0,1-3.39,5.55q-2.46,2-7.36,2Q1610.06,989.41,1606.85,986.12Zm6.41-11h5.1v-2.43a20.61,20.61,0,0,0-.47-5.47,1.85,1.85,0,0,0-1.88-1.46,2.21,2.21,0,0,0-2.08,1.56,15.19,15.19,0,0,0-.67,5.37Z"/><polygon class="cls-17" points="813.86 297.59 802.86 333.11 825.89 362.3 788.71 362.82 768.06 393.74 756.08 358.54 720.3 348.46 750.07 326.19 748.6 289.04 778.98 310.47 813.86 297.59"/><polygon class="cls-18" points="839.94 488.98 807.66 507.42 804.54 544.47 777.03 519.46 740.83 527.95 756.11 494.05 736.86 462.25 773.81 466.31 798.11 438.17 805.67 474.57 839.94 488.98"/><path class="cls-7" d="M841.84,126h25.75l.49,9.8h-.89c-1.38-3.33-2.84-5.62-4.36-6.85s-3.74-1.86-6.68-1.86h-1.73v15.3h1.68a5.06,5.06,0,0,0,3.91-1.76,10.09,10.09,0,0,0,2.23-4.73H863V150.6h-.84a11.6,11.6,0,0,0-2.4-5.3,5.42,5.42,0,0,0-4.13-1.58h-1.19v15.89h1.88a11.58,11.58,0,0,0,7.75-2.72,13.85,13.85,0,0,0,4.38-7h1L869,160.7H841.84v-1.09h2.92V127.13h-2.92Z"/><path class="cls-7" d="M889.13,146.09,895,138H891.4v-.89h7.38V138h-2.57l-6.44,9.11,8.07,12.68h2.58v.89H883.88v-.89h3.51L882,150.9l-5.65,8.91h3.27v.89H871.8v-.89h3.26l6.29-9.9L873.83,138H871v-.89h16.74V138h-3.47Z"/><path class="cls-7" d="M912.74,137.13V141a6.89,6.89,0,0,1,6.84-4.4,7.84,7.84,0,0,1,6.61,3.07c1.56,2,2.35,5.15,2.35,9.3s-.85,7.23-2.55,9.21-4.25,3-7.65,3a8.26,8.26,0,0,1-3.57-.59,4.77,4.77,0,0,1-1.93-1.83v12.82h6.39v.89H900.91v-.89h2.72V138H901v-.89Zm5.75,3.39c-.33-1.17-1-1.75-1.93-1.75a3.15,3.15,0,0,0-2.58,1.85,9.46,9.46,0,0,0-1.14,5v9.06a7.22,7.22,0,0,0,.84,3.61,2.71,2.71,0,0,0,2.48,1.49c1.09,0,1.83-.73,2.23-2.18A33.56,33.56,0,0,0,919,150v-2.57A30.55,30.55,0,0,0,918.49,140.52Z"/><path class="cls-7" d="M933.47,157.9q-3.19-3.28-3.2-9.16t3.59-9a13.47,13.47,0,0,1,9.14-3.11q11.24,0,10.79,11.28h-14v1.94a16.84,16.84,0,0,0,1.24,7.32,4.39,4.39,0,0,0,4.3,2.48q5.75,0,7.53-6.14l.89.15a10.24,10.24,0,0,1-3.39,5.54q-2.46,2-7.35,2Q936.66,161.19,933.47,157.9Zm6.41-11H945v-2.42a21,21,0,0,0-.47-5.47,1.85,1.85,0,0,0-1.89-1.46,2.18,2.18,0,0,0-2.07,1.56,15,15,0,0,0-.67,5.37Z"/><path class="cls-7" d="M972.11,138.52c-1.22,0-2.29.79-3.22,2.37a11.08,11.08,0,0,0-1.38,5.65v13.27H971v.89H955.57v-.89h2.73V138h-2.73v-.89h11.94v4.75A6.68,6.68,0,0,1,970,138a6.78,6.78,0,0,1,4.16-1.36,5.45,5.45,0,0,1,3.79,1.31,4.73,4.73,0,0,1,1.46,3.71,5.55,5.55,0,0,1-1.09,3.69,4.13,4.13,0,0,1-3.34,1.29,3.82,3.82,0,0,1-3.32-1.49q-1.07-1.49-.27-4.11h1.78Q974.4,138.52,972.11,138.52Z"/><path class="cls-7" d="M979.88,137.13H992v22.68h2.78v.89H980.08v-.89h2.73V138h-2.93Zm7.48-3.42a4.64,4.64,0,0,1-3.74-1.33,5,5,0,0,1-1.11-3.32,4.58,4.58,0,0,1,1.21-3.27,4.84,4.84,0,0,1,3.69-1.28,5.41,5.41,0,0,1,3.76,1.16,4.23,4.23,0,0,1,1.29,3.32,4.75,4.75,0,0,1-1.24,3.44A5.12,5.12,0,0,1,987.36,133.71Z"/><path class="cls-7" d="M995.78,137.13h11.93v4.56q1.63-5.06,7.2-5.05t6.76,5.34q1.74-5.34,7.28-5.34,7.27,0,7.28,8.26v14.91H1039v.89h-13.71v-.89H1027V143.72c0-2.51-.21-4-.64-4.41a1.08,1.08,0,0,0-.79-.3c-1,0-1.81.65-2.53,1.93a9.86,9.86,0,0,0-1.09,4.91v14h1.78v.89H1011v-.89h1.73V143.72c0-2.51-.21-4-.64-4.41a1.09,1.09,0,0,0-.8-.3c-.92,0-1.75.7-2.5,2.11a10.63,10.63,0,0,0-1.11,5v13.67h1.78v.89H995.78v-.89h2.72V138h-2.72Z"/><path class="cls-7" d="M1043.19,157.9q-3.2-3.28-3.2-9.16t3.59-9a13.49,13.49,0,0,1,9.14-3.11q11.23,0,10.79,11.28h-14v1.94a16.84,16.84,0,0,0,1.24,7.32,4.39,4.39,0,0,0,4.3,2.48q5.75,0,7.53-6.14l.89.15a10.24,10.24,0,0,1-3.39,5.54q-2.44,2-7.35,2Q1046.38,161.19,1043.19,157.9Zm6.41-11h5.1v-2.42a21,21,0,0,0-.47-5.47,1.85,1.85,0,0,0-1.88-1.46,2.2,2.2,0,0,0-2.08,1.56,15,15,0,0,0-.67,5.37Z"/><path class="cls-7" d="M1065.39,137.13h11.94v4.56a8.19,8.19,0,0,1,2.42-3.67,7.54,7.54,0,0,1,5-1.38q7.68,0,7.68,8.26v14.91h2.77v.89h-14v-.89h2V143.72a11.26,11.26,0,0,0-.4-3.84,1.43,1.43,0,0,0-1.43-.87c-1.06,0-2,.7-2.8,2.08a9.86,9.86,0,0,0-1.21,5v13.67h2.13v.89h-14.07v-.89h2.73V138h-2.73Z"/><path class="cls-7" d="M1098,153.62V138h-2.72v-.89H1098v-6.39l9.21-2.27v8.66h6.44V138h-6.44v16.69a9.21,9.21,0,0,0,.47,3.41,1.91,1.91,0,0,0,2,1.09,3.2,3.2,0,0,0,2.6-1.48,8.61,8.61,0,0,0,1.46-4.06l.84.1a9.56,9.56,0,0,1-2.18,5.42c-1.19,1.34-3.15,2-5.89,2a10.34,10.34,0,0,1-6.29-1.63Q1098,157.93,1098,153.62Z"/><path class="cls-7" d="M1126.94,149.06h1.44v-3.81a24.89,24.89,0,0,0-.52-6.31,2,2,0,0,0-2-1.61,2.92,2.92,0,0,0-1.61.47,1.46,1.46,0,0,0-.72,1.29,5,5,0,0,0,.3,1.66h1.24a7.1,7.1,0,0,1,.39,2.5,3.24,3.24,0,0,1-1.23,2.52,4.63,4.63,0,0,1-3.12,1.07q-4.26,0-4.26-4.11,0-6.09,10.35-6.09c3.93,0,6.64.66,8.14,2s2.25,3.79,2.25,7.35v10.06c0,1.71.48,2.57,1.44,2.57q1.68,0,2-5.1l.74,0q-.2,4.35-1.63,6t-4.7,1.63c-4,0-6.24-1.22-6.84-3.66a5.28,5.28,0,0,1-1.93,2.77,6.55,6.55,0,0,1-3.76.89q-7.34,0-7.33-6a4.83,4.83,0,0,1,2.8-4.82C1120.21,149.5,1123.08,149.06,1126.94,149.06Zm-1.71,9.41a1,1,0,0,0,1,.74q.76,0,1.44-1.26a7.59,7.59,0,0,0,.67-3.49v-4.6H1128q-3.08,0-3.07,4.5v.79A12.33,12.33,0,0,0,1125.23,158.47Z"/><path class="cls-7" d="M1142,123.56h12.13v36.25H1157v.89h-14.71v-.89H1145V124.46H1142Z"/><path class="cls-7" d="M858.13,210.21l-.54-3.46c-1.13,2.64-3.4,4-6.84,4a7.84,7.84,0,0,1-6.61-3.07c-1.56-2-2.35-5.1-2.35-9.16q0-12.33,9.8-12.33c2.91,0,4.82.81,5.75,2.43V174h-3v-.89H866.7v36.24h2.42v.89Zm-6.24-3.34a2.06,2.06,0,0,0,2,1.71,3.18,3.18,0,0,0,2.52-1.29,5.87,5.87,0,0,0,1.07-3.81V192.69a7.26,7.26,0,0,0-.84-3.62,2.7,2.7,0,0,0-2.48-1.48c-1.09,0-1.83.72-2.23,2.17a33.68,33.68,0,0,0-.59,7.63V200A27.92,27.92,0,0,0,851.89,206.87Z"/><path class="cls-7" d="M882.29,198.58h1.44v-3.81a24.51,24.51,0,0,0-.52-6.32,2,2,0,0,0-2-1.61,2.86,2.86,0,0,0-1.6.47,1.48,1.48,0,0,0-.72,1.29,5.14,5.14,0,0,0,.29,1.66h1.24a6.9,6.9,0,0,1,.4,2.5,3.27,3.27,0,0,1-1.24,2.53,4.61,4.61,0,0,1-3.12,1.06q-4.26,0-4.26-4.11,0-6.09,10.35-6.09c3.93,0,6.64.67,8.15,2s2.25,3.78,2.25,7.35v10.05c0,1.72.48,2.57,1.43,2.57q1.7,0,2-5.1l.74.05q-.2,4.36-1.64,6t-4.7,1.64q-5.94,0-6.83-3.67a5.4,5.4,0,0,1-1.93,2.78,6.66,6.66,0,0,1-3.77.89q-7.32,0-7.32-6a4.84,4.84,0,0,1,2.79-4.83Q876.51,198.59,882.29,198.58Zm-1.7,9.41a1,1,0,0,0,1,.74c.51,0,1-.42,1.43-1.26a7.52,7.52,0,0,0,.67-3.49v-4.61h-.35c-2,0-3.07,1.5-3.07,4.51v.79A11.82,11.82,0,0,0,880.59,208Z"/><path class="cls-7" d="M897.69,186.64h11.94v4.56a8.1,8.1,0,0,1,2.42-3.66,7.48,7.48,0,0,1,5-1.39q7.68,0,7.68,8.27v14.9h2.77v.89h-14v-.89h2V193.23a11.26,11.26,0,0,0-.4-3.84,1.44,1.44,0,0,0-1.43-.86c-1.06,0-2,.69-2.8,2.08a9.83,9.83,0,0,0-1.21,5v13.66h2.12v.89H897.69v-.89h2.73V187.54h-2.73Z"/><path class="cls-7" d="M942,187a3.24,3.24,0,0,0-3.12,2.38c-.63,1.58-.94,4.21-.94,7.87v2.58c0,3.26.36,5.61,1.09,7a4.08,4.08,0,0,0,4,2.13,5.83,5.83,0,0,0,4.65-2,9.47,9.47,0,0,0,2.23-4.5l.89.1a10,10,0,0,1-3.46,6.14,11.56,11.56,0,0,1-7.08,1.93q-5.75,0-8.82-3.1t-3.07-9.06c0-4,1.17-7,3.49-9.18s5.57-3.22,9.73-3.22c2.94,0,5.18.57,6.74,1.71a5.13,5.13,0,0,1,2.32,4.28,5.36,5.36,0,0,1-1.11,3.76,4,4,0,0,1-3.07,1.19,4.61,4.61,0,0,1-3.15-1,3.85,3.85,0,0,1-1.18-3.07,6.81,6.81,0,0,1,.24-1.78H944a5.44,5.44,0,0,0,.34-1.78A2.1,2.1,0,0,0,942,187Z"/><path class="cls-7" d="M955.45,207.42q-3.19-3.3-3.19-9.16t3.59-9a13.4,13.4,0,0,1,9.13-3.12q11.24,0,10.8,11.29h-14v1.93a16.86,16.86,0,0,0,1.24,7.33,4.4,4.4,0,0,0,4.31,2.47q5.75,0,7.52-6.14l.9.15a10.23,10.23,0,0,1-3.4,5.55q-2.45,2-7.35,2Q958.64,210.71,955.45,207.42Zm6.41-11H967V194a21.11,21.11,0,0,0-.47-5.47,1.85,1.85,0,0,0-1.88-1.46,2.21,2.21,0,0,0-2.08,1.56,15,15,0,0,0-.67,5.37Z"/><path class="cls-7" d="M857.45,299.82h25.74l.5,10.3h-.89c-1.22-3.56-2.64-6-4.24-7.28s-4-1.93-7.15-1.93H870V317h2.23a5.11,5.11,0,0,0,4-1.73,9.54,9.54,0,0,0,2.18-4.75h.74v14.65h-.84a11.75,11.75,0,0,0-2.2-5.29,4.87,4.87,0,0,0-3.84-1.59H870v15.1h6.14v1.09H857.45v-1.09h2.92V300.91h-2.92Z"/><path class="cls-7" d="M887.18,331.69q-3.2-3.3-3.19-9.17t3.59-9a13.4,13.4,0,0,1,9.13-3.12q11.24,0,10.8,11.29h-14v1.93a17,17,0,0,0,1.24,7.33,4.41,4.41,0,0,0,4.31,2.47q5.74,0,7.52-6.14l.9.15a10.23,10.23,0,0,1-3.4,5.55q-2.45,2-7.35,2Q890.37,335,887.18,331.69Zm6.41-11h5.1v-2.43a20.61,20.61,0,0,0-.47-5.47,1.85,1.85,0,0,0-1.88-1.46,2.21,2.21,0,0,0-2.08,1.56,15.19,15.19,0,0,0-.67,5.37Z"/><path class="cls-7" d="M909.29,310.91h11.93v4.56q1.63-5.06,7.2-5.05t6.76,5.35q1.74-5.36,7.28-5.35,7.27,0,7.28,8.27v14.9h2.77v.89H938.8v-.89h1.73V317.5c0-2.51-.21-4-.64-4.41a1.08,1.08,0,0,0-.79-.3c-1,0-1.81.65-2.53,1.94a9.82,9.82,0,0,0-1.09,4.9v14h1.78v.89H924.54v-.89h1.73V317.5c0-2.51-.21-4-.64-4.41a1.09,1.09,0,0,0-.8-.3c-.92,0-1.75.71-2.5,2.11a10.63,10.63,0,0,0-1.11,5v13.67H923v.89H909.29v-.89H912V311.8h-2.72Z"/><path class="cls-7" d="M953.06,310.91h12.13v22.68H968v.89h-14.7v-.89H956V311.8h-2.92Zm7.47-3.41a4.6,4.6,0,0,1-3.73-1.34,5,5,0,0,1-1.12-3.32,4.58,4.58,0,0,1,1.22-3.27,4.84,4.84,0,0,1,3.68-1.28,5.49,5.49,0,0,1,3.77,1.16,4.24,4.24,0,0,1,1.28,3.32,4.78,4.78,0,0,1-1.23,3.44A5.16,5.16,0,0,1,960.53,307.5Z"/><path class="cls-7" d="M969.05,310.91H981v4.56a8.29,8.29,0,0,1,2.43-3.67,7.54,7.54,0,0,1,5-1.38q7.68,0,7.67,8.27v14.9h2.78v.89h-14v-.89h2V317.5a11.53,11.53,0,0,0-.4-3.84,1.45,1.45,0,0,0-1.44-.87c-1,0-2,.7-2.79,2.09a9.8,9.8,0,0,0-1.22,5v13.67h2.13v.89H969.05v-.89h2.72V311.8h-2.72Z"/><path class="cls-7" d="M999.25,310.91h12.13v22.68h2.78v.89H999.45v-.89h2.72V311.8h-2.92Zm7.48-3.41a4.62,4.62,0,0,1-3.74-1.34,5,5,0,0,1-1.11-3.32,4.58,4.58,0,0,1,1.21-3.27,4.88,4.88,0,0,1,3.69-1.28,5.46,5.46,0,0,1,3.76,1.16,4.24,4.24,0,0,1,1.29,3.32,4.75,4.75,0,0,1-1.24,3.44A5.12,5.12,0,0,1,1006.73,307.5Z"/><path class="cls-7" d="M1016.29,335v-8.87h.59c.86,2.88,2,4.89,3.47,6a8.43,8.43,0,0,0,5.44,1.74q5.06,0,5-3.22a2.25,2.25,0,0,0-1.23-2.08,16.71,16.71,0,0,0-5-1.68,19.58,19.58,0,0,1-5.64-2.38,6.24,6.24,0,0,1-2.72-5.64,8.21,8.21,0,0,1,2.37-6.17,8.76,8.76,0,0,1,6.34-2.3,12.31,12.31,0,0,1,5,1.14,4.2,4.2,0,0,0,1.44.39,1.14,1.14,0,0,0,.84-.34,5.69,5.69,0,0,0,.84-1.29h.55v7.58h-.6q-2.52-6.45-7.82-6.44a6,6,0,0,0-3.47.81,2.47,2.47,0,0,0-1.14,2.06,1.76,1.76,0,0,0,.35,1.16c.23.28.41.49.54.62a2.81,2.81,0,0,0,.65.42c.29.15.54.27.74.35s.5.19.92.32a7,7,0,0,0,.91.25,38.45,38.45,0,0,1,4.86,1.46,16.61,16.61,0,0,1,2.82,1.51q2.71,1.89,2.72,6.07t-2.48,6.33a10,10,0,0,1-6.78,2.16,13.07,13.07,0,0,1-5.94-1.44,1.94,1.94,0,0,0-.94-.39q-1.1,0-2.13,1.83Z"/><path class="cls-7" d="M1038.62,327.4V311.8h-2.73v-.89h2.73v-6.38l9.21-2.28v8.66h6.43v.89h-6.43v16.69a9.09,9.09,0,0,0,.47,3.42,1.9,1.9,0,0,0,2,1.09,3.22,3.22,0,0,0,2.6-1.49,8.61,8.61,0,0,0,1.46-4.06l.84.1A9.56,9.56,0,0,1,1053,333c-1.18,1.34-3.15,2-5.89,2a10.36,10.36,0,0,1-6.29-1.64Q1038.61,331.71,1038.62,327.4Z"/><path class="cls-7" d="M859.38,376.92v-15.6h-2.73v-.89h2.73V354l9.21-2.28v8.67H875v.89h-6.43V378a9,9,0,0,0,.47,3.42,1.89,1.89,0,0,0,2,1.09,3.19,3.19,0,0,0,2.6-1.49,8.46,8.46,0,0,0,1.46-4.06l.85.1a9.66,9.66,0,0,1-2.18,5.43q-1.79,2-5.9,2a10.31,10.31,0,0,1-6.28-1.63C860.1,381.77,859.38,379.79,859.38,376.92Z"/><path class="cls-7" d="M876.41,346.86h11.93V365a8.26,8.26,0,0,1,2.43-3.66,7.53,7.53,0,0,1,5-1.39q7.68,0,7.68,8.27v14.91h2.77V384h-14v-.89h2V367a11.42,11.42,0,0,0-.4-3.83,1.44,1.44,0,0,0-1.44-.87c-1.05,0-2,.69-2.79,2.08a9.84,9.84,0,0,0-1.22,5.05v13.67h2.13V384H876.41v-.89h2.72V347.75h-2.72Z"/><path class="cls-7" d="M910.35,381.2q-3.2-3.3-3.19-9.16t3.59-9a13.42,13.42,0,0,1,9.13-3.12q11.25,0,10.8,11.29h-14v1.93a17,17,0,0,0,1.23,7.33,4.42,4.42,0,0,0,4.31,2.48q5.75,0,7.53-6.14l.89.14a10.27,10.27,0,0,1-3.39,5.55q-2.46,2-7.36,2Q913.54,384.49,910.35,381.2Zm6.41-11h5.1v-2.42a20.7,20.7,0,0,0-.47-5.48,1.85,1.85,0,0,0-1.88-1.46,2.21,2.21,0,0,0-2.08,1.56,15.22,15.22,0,0,0-.67,5.38Z"/><path class="cls-7" d="M944.34,372.36h1.44v-3.81a24.51,24.51,0,0,0-.52-6.32,2,2,0,0,0-2-1.6,2.84,2.84,0,0,0-1.61.47,1.46,1.46,0,0,0-.71,1.28,5.14,5.14,0,0,0,.29,1.66h1.24a6.9,6.9,0,0,1,.4,2.5,3.25,3.25,0,0,1-1.24,2.53,4.63,4.63,0,0,1-3.12,1.06q-4.26,0-4.26-4.11,0-6.09,10.35-6.09c3.93,0,6.64.67,8.15,2s2.25,3.79,2.25,7.35v10c0,1.72.48,2.58,1.43,2.58q1.7,0,2-5.1l.74.05q-.2,4.35-1.64,6t-4.7,1.63q-5.94,0-6.83-3.66a5.38,5.38,0,0,1-1.93,2.77,6.66,6.66,0,0,1-3.77.89q-7.32,0-7.32-6a4.86,4.86,0,0,1,2.79-4.83Q938.56,372.37,944.34,372.36Zm-1.7,9.41a1,1,0,0,0,1,.74q.78,0,1.44-1.26a7.49,7.49,0,0,0,.67-3.49v-4.61h-.35c-2,0-3.07,1.51-3.07,4.51v.79A11.82,11.82,0,0,0,942.64,381.77Z"/><path class="cls-7" d="M961.38,376.92v-15.6h-2.73v-.89h2.73V354l9.21-2.28v8.67H977v.89h-6.43V378a9,9,0,0,0,.47,3.42,1.89,1.89,0,0,0,2,1.09,3.19,3.19,0,0,0,2.6-1.49,8.57,8.57,0,0,0,1.46-4.06l.84.1a9.59,9.59,0,0,1-2.18,5.43c-1.18,1.33-3.15,2-5.89,2a10.31,10.31,0,0,1-6.28-1.63C962.1,381.77,961.38,379.79,961.38,376.92Z"/><path class="cls-7" d="M995,361.81c-1.22,0-2.3.8-3.22,2.38a11,11,0,0,0-1.39,5.65v13.27h3.52V384H978.41v-.89h2.72V361.32h-2.72v-.89h11.93v4.75a6.67,6.67,0,0,1,6.64-5.25,5.45,5.45,0,0,1,3.78,1.31,4.74,4.74,0,0,1,1.47,3.72,5.6,5.6,0,0,1-1.09,3.69,4.14,4.14,0,0,1-3.35,1.28,3.79,3.79,0,0,1-3.31-1.48c-.71-1-.8-2.36-.28-4.11H996C996.81,362.66,996.46,361.81,995,361.81Z"/><path class="cls-7" d="M1006.11,381.2q-3.2-3.3-3.19-9.16t3.59-9a13.42,13.42,0,0,1,9.13-3.12q11.25,0,10.8,11.29h-14v1.93a17,17,0,0,0,1.23,7.33A4.42,4.42,0,0,0,1018,383q5.75,0,7.53-6.14l.89.14a10.27,10.27,0,0,1-3.39,5.55q-2.46,2-7.36,2Q1009.3,384.49,1006.11,381.2Zm6.41-11h5.1v-2.42a20.7,20.7,0,0,0-.47-5.48,1.85,1.85,0,0,0-1.88-1.46,2.21,2.21,0,0,0-2.08,1.56,15.22,15.22,0,0,0-.67,5.38Z"/><path class="cls-7" d="M881.21,490.2H907l.5,10.3h-.89c-1.23-3.57-2.64-6-4.24-7.28s-4-1.93-7.15-1.93h-1.39v16.09H896a5.17,5.17,0,0,0,4-1.73,9.67,9.67,0,0,0,2.18-4.76h.74v14.66h-.84a11.8,11.8,0,0,0-2.2-5.3,4.86,4.86,0,0,0-3.84-1.58h-2.23v15.1h6.14v1.09H881.21v-1.09h2.93V491.29h-2.93Z"/><path class="cls-7" d="M909.78,501.29h12.13V524h2.78v.89H910V524h2.72V502.18h-2.92Zm7.48-3.42a4.62,4.62,0,0,1-3.74-1.33,5,5,0,0,1-1.11-3.32,4.58,4.58,0,0,1,1.21-3.27,4.84,4.84,0,0,1,3.69-1.29,5.41,5.41,0,0,1,3.76,1.17,4.22,4.22,0,0,1,1.29,3.31,4.76,4.76,0,0,1-1.24,3.45A5.16,5.16,0,0,1,917.26,497.87Z"/><path class="cls-7" d="M925.48,487.72h12.13V524h2.77v.89h-14.7V524h2.72V488.61h-2.92Z"/><path class="cls-7" d="M941.32,501.29h11.93v4.55q1.63-5,7.21-5t6.76,5.35a7,7,0,0,1,7.28-5.35q7.28,0,7.27,8.27V524h2.78v.89H970.83V524h1.74v-16.1c0-2.5-.22-4-.65-4.4a1.06,1.06,0,0,0-.79-.3c-1,0-1.8.64-2.53,1.93a10,10,0,0,0-1.09,4.9v14h1.79v.89H956.57V524h1.74v-16.1c0-2.5-.22-4-.65-4.4a1.06,1.06,0,0,0-.79-.3c-.92,0-1.76.7-2.5,2.1a10.67,10.67,0,0,0-1.12,5V524H955v.89H941.32V524h2.73V502.18h-2.73Z"/><polygon class="cls-19" points="821.06 157.92 788.77 176.35 785.66 213.4 758.14 188.4 721.95 196.88 737.23 162.99 717.97 131.18 754.93 135.25 779.23 107.1 786.78 143.51 821.06 157.92"/><polygon class="cls-20" points="219.16 932.05 217.56 969.19 247.25 991.57 211.43 1001.52 199.32 1036.68 178.79 1005.68 141.61 1005.03 164.74 975.92 153.88 940.37 188.71 953.37 219.16 932.05"/><polygon class="cls-21" points="205.57 612.52 203.97 649.67 233.66 672.04 197.84 682 185.73 717.15 165.19 686.16 128.02 685.51 151.15 656.4 140.28 620.84 175.12 633.85 205.57 612.52"/><polygon class="cls-22" points="220.73 775.59 209.74 811.11 232.76 840.3 195.58 840.82 174.94 871.74 162.96 836.54 127.17 826.46 156.94 804.19 155.47 767.03 185.85 788.47 220.73 775.59"/><path class="cls-7" d="M300.23,632q0,10.2-5.74,14.21-5.3,3.71-14.56,3.71h-14V649h3.27V616.21h-3.27v-.94h15.3q9.51,0,14.26,3.89T300.23,632Zm-21.39,17h1.88c3.34,0,5.72-1.18,7.16-3.54s2.15-6.31,2.15-11.86v-2.87q0-11.15-4.26-13.42a12.38,12.38,0,0,0-5.74-1.09h-1.19Z"/><path class="cls-7" d="M314.39,638.29h1.44v-3.81a24.42,24.42,0,0,0-.52-6.31,2,2,0,0,0-2-1.61,2.92,2.92,0,0,0-1.61.47,1.47,1.47,0,0,0-.71,1.29,5.18,5.18,0,0,0,.29,1.66h1.24a7.08,7.08,0,0,1,.4,2.5,3.25,3.25,0,0,1-1.24,2.52,4.63,4.63,0,0,1-3.12,1.07q-4.26,0-4.26-4.11,0-6.09,10.35-6.09c3.93,0,6.64.67,8.15,2s2.25,3.79,2.25,7.35v10.06c0,1.71.48,2.57,1.43,2.57q1.69,0,2-5.1l.74,0c-.13,2.91-.68,4.9-1.64,6s-2.52,1.64-4.7,1.64q-5.94,0-6.83-3.67a5.33,5.33,0,0,1-1.93,2.77,6.58,6.58,0,0,1-3.77.9q-7.32,0-7.33-6a4.85,4.85,0,0,1,2.8-4.82Q308.61,638.29,314.39,638.29Zm-1.71,9.41a1,1,0,0,0,1,.75c.52,0,1-.43,1.44-1.27a7.46,7.46,0,0,0,.67-3.49v-4.6h-.35c-2,0-3.07,1.5-3.07,4.5v.79A12.33,12.33,0,0,0,312.68,647.7Z"/><path class="cls-7" d="M329.79,626.36h11.93v4.56a8.29,8.29,0,0,1,2.43-3.67,7.54,7.54,0,0,1,5-1.38q7.68,0,7.68,8.27V649h2.77v.89h-14V649h2V633a11.53,11.53,0,0,0-.4-3.84,1.43,1.43,0,0,0-1.43-.87c-1.06,0-2,.7-2.8,2.08a9.86,9.86,0,0,0-1.22,5V649h2.13v.89H329.79V649h2.73V627.25h-2.73Z"/><path class="cls-7" d="M374.06,626.76a3.22,3.22,0,0,0-3.12,2.37c-.63,1.59-.94,4.21-.94,7.88v2.57q0,4.9,1.09,7a4.08,4.08,0,0,0,4,2.13,5.87,5.87,0,0,0,4.65-2,9.47,9.47,0,0,0,2.23-4.5l.89.09q-.94,4.26-3.46,6.14a11.57,11.57,0,0,1-7.09,1.94c-3.82,0-6.76-1-8.81-3.1s-3.07-5.08-3.07-9.06,1.16-7,3.49-9.19,5.57-3.21,9.73-3.21c2.94,0,5.18.57,6.74,1.7a5.14,5.14,0,0,1,2.32,4.29,5.38,5.38,0,0,1-1.11,3.76,4,4,0,0,1-3.07,1.19,4.64,4.64,0,0,1-3.15-1,3.86,3.86,0,0,1-1.18-3.07,6.81,6.81,0,0,1,.24-1.78h1.64a5.5,5.5,0,0,0,.34-1.79A2.09,2.09,0,0,0,374.06,626.76Z"/><path class="cls-7" d="M387.55,647.13q-3.19-3.28-3.19-9.16t3.59-9a13.4,13.4,0,0,1,9.13-3.12q11.24,0,10.79,11.29h-14v1.93a16.92,16.92,0,0,0,1.24,7.33,4.4,4.4,0,0,0,4.31,2.47q5.75,0,7.52-6.14l.89.15a10.16,10.16,0,0,1-3.39,5.55q-2.44,2-7.35,2Q390.74,650.43,387.55,647.13Zm6.41-11h5.1v-2.43a21.06,21.06,0,0,0-.47-5.47,1.84,1.84,0,0,0-1.88-1.46,2.21,2.21,0,0,0-2.08,1.56,15,15,0,0,0-.67,5.37Z"/><path class="cls-7" d="M430.45,638.29h1.44v-3.81a24.89,24.89,0,0,0-.52-6.31,2,2,0,0,0-2-1.61,2.92,2.92,0,0,0-1.61.47,1.45,1.45,0,0,0-.71,1.29,4.92,4.92,0,0,0,.29,1.66h1.24a7.08,7.08,0,0,1,.4,2.5,3.25,3.25,0,0,1-1.24,2.52,4.63,4.63,0,0,1-3.12,1.07q-4.26,0-4.26-4.11,0-6.09,10.35-6.09,5.9,0,8.14,2t2.26,7.35v10.06c0,1.71.48,2.57,1.43,2.57,1.12,0,1.79-1.7,2-5.1l.75,0c-.14,2.91-.68,4.9-1.64,6s-2.52,1.64-4.7,1.64q-5.94,0-6.83-3.67a5.29,5.29,0,0,1-1.94,2.77,6.52,6.52,0,0,1-3.76.9q-7.32,0-7.33-6a4.85,4.85,0,0,1,2.8-4.82Q424.67,638.29,430.45,638.29Zm-1.71,9.41a1,1,0,0,0,1,.75c.51,0,1-.43,1.44-1.27a7.59,7.59,0,0,0,.67-3.49v-4.6h-.35q-3.07,0-3.07,4.5v.79A12.33,12.33,0,0,0,428.74,647.7Z"/><path class="cls-7" d="M446.89,650.43v-8.87h.59c.86,2.87,2,4.89,3.47,6a8.45,8.45,0,0,0,5.45,1.74c3.36,0,5.05-1.08,5.05-3.22a2.25,2.25,0,0,0-1.24-2.08,16.73,16.73,0,0,0-4.95-1.69,19.26,19.26,0,0,1-5.65-2.37,6.27,6.27,0,0,1-2.72-5.65,8.16,8.16,0,0,1,2.38-6.16,8.68,8.68,0,0,1,6.34-2.3,12.35,12.35,0,0,1,5,1.14,4.1,4.1,0,0,0,1.43.39,1.11,1.11,0,0,0,.84-.35,5.53,5.53,0,0,0,.85-1.28h.54v7.57h-.59q-2.54-6.44-7.83-6.43a6,6,0,0,0-3.46.81,2.46,2.46,0,0,0-1.14,2.06,1.78,1.78,0,0,0,.34,1.16c.23.28.42.49.55.62a2.71,2.71,0,0,0,.64.42c.3.15.55.27.75.35s.5.19.91.32a7.08,7.08,0,0,0,.92.25,38.18,38.18,0,0,1,4.85,1.46,15.93,15.93,0,0,1,2.82,1.51q2.73,1.88,2.73,6.06c0,2.79-.83,4.91-2.48,6.34a10,10,0,0,1-6.78,2.16,13.14,13.14,0,0,1-5.95-1.44,1.94,1.94,0,0,0-.94-.4c-.72,0-1.43.62-2.13,1.84Z"/><path class="cls-7" d="M488,626.36v3.91a6.88,6.88,0,0,1,6.83-4.4,7.84,7.84,0,0,1,6.61,3.07c1.57,2,2.35,5.15,2.35,9.31s-.85,7.22-2.55,9.2-4.25,3-7.65,3a8.19,8.19,0,0,1-3.56-.6,4.6,4.6,0,0,1-1.94-1.83v12.82h6.39v.89H476.15v-.89h2.73V627.25h-2.63v-.89Zm5.74,3.39c-.33-1.17-1-1.75-1.93-1.75a3.15,3.15,0,0,0-2.58,1.85,9.46,9.46,0,0,0-1.14,5v9.06a7.22,7.22,0,0,0,.85,3.61A2.68,2.68,0,0,0,491.4,649c1.09,0,1.83-.73,2.23-2.18a32.78,32.78,0,0,0,.6-7.62v-2.58A30.42,30.42,0,0,0,493.73,629.75Z"/><path class="cls-7" d="M508.83,647.26c-2.11-2.12-3.17-5.14-3.17-9.09s1.13-7,3.39-9.11,5.44-3.19,9.54-3.19,7.14,1,9.16,2.94,3,5,3,9q0,12.63-12.58,12.63Q512,650.43,508.83,647.26Zm12.43-7.08V636a33.49,33.49,0,0,0-.52-7c-.35-1.47-1.15-2.2-2.4-2.2a2.46,2.46,0,0,0-1.76.62,3.74,3.74,0,0,0-1,2,38.56,38.56,0,0,0-.44,6.79v3.86a35.59,35.59,0,0,0,.32,6.48,12,12,0,0,0,.67,1.79,2.1,2.1,0,0,0,2.13,1.18,2.52,2.52,0,0,0,2.52-2.22A34,34,0,0,0,521.26,640.18Z"/><path class="cls-7" d="M532,612.79h12.14V649h2.77v.89H532.15V649h2.73V613.69H532Z"/><path class="cls-7" d="M547.6,626.36h12.13V649h2.77v.89H547.8V649h2.72V627.25H547.6Zm7.48-3.41a4.62,4.62,0,0,1-3.74-1.34,5,5,0,0,1-1.12-3.32,4.58,4.58,0,0,1,1.22-3.27,4.88,4.88,0,0,1,3.69-1.28,5.41,5.41,0,0,1,3.76,1.16,4.24,4.24,0,0,1,1.29,3.32,4.79,4.79,0,0,1-1.24,3.44A5.14,5.14,0,0,1,555.08,623Z"/><path class="cls-7" d="M566,642.85v-15.6h-2.72v-.89H566V620l9.21-2.27v8.66h6.44v.89h-6.44v16.69a9.3,9.3,0,0,0,.47,3.42,1.91,1.91,0,0,0,2,1.09,3.2,3.2,0,0,0,2.6-1.49,8.61,8.61,0,0,0,1.47-4.06l.84.1a9.63,9.63,0,0,1-2.18,5.42q-1.79,2-5.89,2a10.34,10.34,0,0,1-6.29-1.64Q566,647.16,566,642.85Z"/><path class="cls-7" d="M582.8,626.36h12.13V649h2.78v.89H583V649h2.72V627.25H582.8Zm7.48-3.41a4.64,4.64,0,0,1-3.74-1.34,5,5,0,0,1-1.11-3.32,4.58,4.58,0,0,1,1.21-3.27,4.88,4.88,0,0,1,3.69-1.28,5.41,5.41,0,0,1,3.76,1.16,4.24,4.24,0,0,1,1.29,3.32,4.75,4.75,0,0,1-1.24,3.44A5.12,5.12,0,0,1,590.28,623Z"/><path class="cls-7" d="M612.56,626.76a3.24,3.24,0,0,0-3.12,2.37c-.63,1.59-.94,4.21-.94,7.88v2.57q0,4.9,1.09,7a4.09,4.09,0,0,0,4,2.13,5.85,5.85,0,0,0,4.65-2,9.47,9.47,0,0,0,2.23-4.5l.89.09a10,10,0,0,1-3.46,6.14,11.56,11.56,0,0,1-7.08,1.94c-3.83,0-6.77-1-8.82-3.1s-3.07-5.08-3.07-9.06,1.17-7,3.5-9.19,5.57-3.21,9.72-3.21q4.41,0,6.74,1.7a5.15,5.15,0,0,1,2.33,4.29,5.38,5.38,0,0,1-1.12,3.76,4,4,0,0,1-3.07,1.19,4.61,4.61,0,0,1-3.14-1,3.87,3.87,0,0,1-1.19-3.07,6.43,6.43,0,0,1,.25-1.78h1.63a5.53,5.53,0,0,0,.35-1.79A2.1,2.1,0,0,0,612.56,626.76Z"/><path class="cls-7" d="M634.49,638.29h1.44v-3.81a24.42,24.42,0,0,0-.52-6.31,2,2,0,0,0-2-1.61,2.86,2.86,0,0,0-1.6.47,1.46,1.46,0,0,0-.72,1.29,5.18,5.18,0,0,0,.29,1.66h1.24a6.86,6.86,0,0,1,.4,2.5,3.22,3.22,0,0,1-1.24,2.52,4.6,4.6,0,0,1-3.12,1.07q-4.26,0-4.26-4.11,0-6.09,10.35-6.09c3.93,0,6.64.67,8.15,2s2.25,3.79,2.25,7.35v10.06c0,1.71.48,2.57,1.44,2.57q1.68,0,2-5.1l.74,0c-.13,2.91-.68,4.9-1.63,6s-2.53,1.64-4.71,1.64q-5.94,0-6.83-3.67a5.28,5.28,0,0,1-1.93,2.77,6.58,6.58,0,0,1-3.77.9q-7.32,0-7.32-6a4.84,4.84,0,0,1,2.79-4.82Q628.7,638.29,634.49,638.29Zm-1.7,9.41a1,1,0,0,0,1,.75c.51,0,1-.43,1.43-1.27a7.46,7.46,0,0,0,.67-3.49v-4.6h-.35c-2,0-3.07,1.5-3.07,4.5v.79A11.77,11.77,0,0,0,632.79,647.7Z"/><path class="cls-7" d="M649.6,612.79h12.13V649h2.77v.89H649.79V649h2.73V613.69H649.6Z"/><path class="cls-7" d="M282.21,699.44l-.55-3.46q-1.68,4-6.83,4a7.84,7.84,0,0,1-6.61-3.07q-2.36-3.07-2.35-9.16,0-12.33,9.8-12.33c2.91,0,4.82.81,5.75,2.43V663.2h-3v-.89h12.37v36.24h2.43v.89ZM276,696.1a2.06,2.06,0,0,0,2,1.71,3.19,3.19,0,0,0,2.53-1.29,5.85,5.85,0,0,0,1.07-3.81V681.92a7.26,7.26,0,0,0-.85-3.62,2.67,2.67,0,0,0-2.47-1.48c-1.09,0-1.83.72-2.23,2.18a32.78,32.78,0,0,0-.6,7.62v2.58A27.72,27.72,0,0,0,276,696.1Z"/><path class="cls-7" d="M294.29,675.88h12.13v22.67h2.77v.89h-14.7v-.89h2.72V676.77h-2.92Zm7.48-3.42a4.62,4.62,0,0,1-3.74-1.34,5,5,0,0,1-1.12-3.32,4.58,4.58,0,0,1,1.22-3.26,4.83,4.83,0,0,1,3.69-1.29,5.46,5.46,0,0,1,3.76,1.16,4.24,4.24,0,0,1,1.29,3.32,4.77,4.77,0,0,1-1.24,3.44A5.14,5.14,0,0,1,301.77,672.46Z"/><path class="cls-7" d="M311.32,699.94v-8.86h.6c.85,2.87,2,4.88,3.46,6a8.51,8.51,0,0,0,5.45,1.73q5.06,0,5.05-3.22a2.25,2.25,0,0,0-1.24-2.08,16.74,16.74,0,0,0-4.95-1.68,19.53,19.53,0,0,1-5.65-2.38,6.26,6.26,0,0,1-2.72-5.64,8.18,8.18,0,0,1,2.38-6.17,8.74,8.74,0,0,1,6.34-2.3,12.35,12.35,0,0,1,5,1.14,4.17,4.17,0,0,0,1.43.4,1.15,1.15,0,0,0,.84-.35,5.64,5.64,0,0,0,.85-1.29h.54v7.58h-.59c-1.69-4.29-4.29-6.44-7.83-6.44a5.91,5.91,0,0,0-3.46.82,2.44,2.44,0,0,0-1.14,2,1.74,1.74,0,0,0,.35,1.17c.23.28.41.48.54.61a2.42,2.42,0,0,0,.64.43c.3.14.55.26.75.34s.5.19.91.32a6,6,0,0,0,.92.25,38.18,38.18,0,0,1,4.85,1.46,17.34,17.34,0,0,1,2.82,1.51q2.73,1.89,2.73,6.07a8,8,0,0,1-2.48,6.34,10,10,0,0,1-6.78,2.15A13.07,13.07,0,0,1,315,698.5a1.93,1.93,0,0,0-.95-.39c-.72,0-1.43.61-2.12,1.83Z"/><path class="cls-7" d="M345.54,676.27a3.22,3.22,0,0,0-3.12,2.38c-.63,1.58-.94,4.21-.94,7.87v2.58c0,3.26.36,5.61,1.08,7a4.11,4.11,0,0,0,4,2.13,5.88,5.88,0,0,0,4.65-2,9.6,9.6,0,0,0,2.23-4.51l.89.1a10,10,0,0,1-3.47,6.14,11.52,11.52,0,0,1-7.08,1.93c-3.83,0-6.76-1-8.81-3.1s-3.07-5.08-3.07-9.06,1.16-7,3.49-9.18,5.57-3.22,9.73-3.22q4.41,0,6.73,1.71a5.15,5.15,0,0,1,2.33,4.28,5.41,5.41,0,0,1-1.11,3.77,4,4,0,0,1-3.07,1.18,4.59,4.59,0,0,1-3.15-1,3.86,3.86,0,0,1-1.19-3.07,6.89,6.89,0,0,1,.25-1.78h1.64a5.44,5.44,0,0,0,.34-1.78A2.1,2.1,0,0,0,345.54,676.27Z"/><path class="cls-7" d="M359.15,696.77q-3.16-3.16-3.17-9.08t3.39-9.12q3.39-3.18,9.54-3.19t9.16,3c2,2,3,5,3,9q0,12.63-12.58,12.63Q362.32,699.94,359.15,696.77Zm12.43-7.08v-4.21a33.31,33.31,0,0,0-.52-7c-.35-1.47-1.15-2.21-2.4-2.21a2.5,2.5,0,0,0-1.76.62,3.78,3.78,0,0,0-1,2.06,38.35,38.35,0,0,0-.44,6.78v3.86a35.81,35.81,0,0,0,.32,6.49,10.86,10.86,0,0,0,.67,1.78,2.11,2.11,0,0,0,2.13,1.19,2.52,2.52,0,0,0,2.52-2.23A33.88,33.88,0,0,0,371.58,689.69Z"/><path class="cls-7" d="M411.44,699.44H400.15l-.55-3.61a6.44,6.44,0,0,1-2.35,3,8.32,8.32,0,0,1-4.63,1.06q-7.67,0-7.67-8.27v-14.9h-2.77v-.89h12v17a11.52,11.52,0,0,0,.42,3.91,1.65,1.65,0,0,0,1.68.94,2.79,2.79,0,0,0,2.26-1.53,7.94,7.94,0,0,0,1-4.26V676.77h-2.28v-.89h11.49v22.67h2.72Z"/><path class="cls-7" d="M429,677.26c-1.23,0-2.3.79-3.22,2.38a10.92,10.92,0,0,0-1.39,5.64v13.27h3.52v.89H412.43v-.89h2.72V676.77h-2.72v-.89h11.93v4.75a6.67,6.67,0,0,1,6.64-5.25,5.45,5.45,0,0,1,3.78,1.31,4.74,4.74,0,0,1,1.46,3.72,5.55,5.55,0,0,1-1.08,3.68,4.14,4.14,0,0,1-3.35,1.29,3.78,3.78,0,0,1-3.31-1.48c-.71-1-.81-2.36-.28-4.11H430Q431.24,677.26,429,677.26Z"/><path class="cls-7" d="M437.48,699.94v-8.86h.6c.85,2.87,2,4.88,3.46,6a8.51,8.51,0,0,0,5.45,1.73q5.06,0,5.05-3.22a2.25,2.25,0,0,0-1.24-2.08,16.74,16.74,0,0,0-4.95-1.68,19.35,19.35,0,0,1-5.64-2.38,6.25,6.25,0,0,1-2.73-5.64,8.18,8.18,0,0,1,2.38-6.17,8.74,8.74,0,0,1,6.34-2.3,12.35,12.35,0,0,1,5,1.14,4.17,4.17,0,0,0,1.43.4,1.19,1.19,0,0,0,.85-.35,5.69,5.69,0,0,0,.84-1.29h.54v7.58h-.59c-1.69-4.29-4.29-6.44-7.83-6.44a5.91,5.91,0,0,0-3.46.82,2.44,2.44,0,0,0-1.14,2,1.74,1.74,0,0,0,.35,1.17c.23.28.41.48.54.61a2.42,2.42,0,0,0,.64.43c.3.14.55.26.75.34s.5.19.91.32a6,6,0,0,0,.92.25,38.18,38.18,0,0,1,4.85,1.46,17.34,17.34,0,0,1,2.82,1.51q2.73,1.89,2.73,6.07a8,8,0,0,1-2.48,6.34,10,10,0,0,1-6.78,2.15,13.07,13.07,0,0,1-5.94-1.44,1.94,1.94,0,0,0-.94-.39q-1.09,0-2.13,1.83Z"/><path class="cls-7" d="M461.27,696.65q-3.19-3.3-3.19-9.16t3.59-9a13.42,13.42,0,0,1,9.14-3.12q11.24,0,10.79,11.29h-14v1.93a17,17,0,0,0,1.23,7.33,4.41,4.41,0,0,0,4.31,2.47q5.74,0,7.53-6.14l.89.15a10.27,10.27,0,0,1-3.39,5.55q-2.46,2-7.36,2Q464.48,699.94,461.27,696.65Zm6.42-11h5.1v-2.43a21.11,21.11,0,0,0-.47-5.47,1.87,1.87,0,0,0-1.89-1.46,2.21,2.21,0,0,0-2.08,1.56,15.25,15.25,0,0,0-.66,5.37Z"/><path class="cls-7" d="M323.6,794.28q0,10.2-5.74,14.21-5.3,3.72-14.56,3.72h-14v-1h3.27V778.49h-3.27v-.94h15.3q9.51,0,14.26,3.88T323.6,794.28Zm-21.39,17h1.88c3.34,0,5.72-1.17,7.16-3.54s2.15-6.31,2.15-11.85V793c0-7.42-1.42-11.9-4.26-13.41a12.25,12.25,0,0,0-5.74-1.09h-1.19Z"/><path class="cls-7" d="M337.76,800.57h1.44v-3.81a24.51,24.51,0,0,0-.52-6.32,2,2,0,0,0-2-1.6,2.84,2.84,0,0,0-1.61.47,1.46,1.46,0,0,0-.71,1.28,5.14,5.14,0,0,0,.29,1.66h1.24a6.9,6.9,0,0,1,.4,2.5,3.25,3.25,0,0,1-1.24,2.53,4.63,4.63,0,0,1-3.12,1.06q-4.26,0-4.26-4.11,0-6.09,10.35-6.09c3.93,0,6.64.67,8.15,2s2.25,3.79,2.25,7.35v10c0,1.72.48,2.58,1.43,2.58q1.7,0,2-5.1l.74.05q-.19,4.35-1.64,6t-4.7,1.63q-5.94,0-6.83-3.66a5.38,5.38,0,0,1-1.93,2.77,6.66,6.66,0,0,1-3.77.89q-7.32,0-7.33-6a4.87,4.87,0,0,1,2.8-4.83Q332,800.58,337.76,800.57Zm-1.7,9.41a1,1,0,0,0,1,.74q.78,0,1.44-1.26a7.49,7.49,0,0,0,.67-3.49v-4.61h-.35c-2,0-3.07,1.51-3.07,4.51v.79A11.82,11.82,0,0,0,336.06,810Z"/><path class="cls-7" d="M353.16,788.64H365.1v4.55a8.1,8.1,0,0,1,2.42-3.66,7.53,7.53,0,0,1,5-1.39q7.68,0,7.68,8.27v14.9h2.77v.9h-14v-.9h2V795.22a11.15,11.15,0,0,0-.4-3.83,1.43,1.43,0,0,0-1.43-.87c-1.06,0-2,.69-2.8,2.08a9.83,9.83,0,0,0-1.21,5v13.66h2.12v.9H353.16v-.9h2.73V789.53h-2.73Z"/><path class="cls-7" d="M397.43,789a3.24,3.24,0,0,0-3.12,2.38c-.63,1.58-.94,4.21-.94,7.87v2.58q0,4.9,1.09,7a4.08,4.08,0,0,0,4,2.13,5.87,5.87,0,0,0,4.65-2,9.51,9.51,0,0,0,2.23-4.51l.89.1q-.94,4.26-3.46,6.14a11.56,11.56,0,0,1-7.08,1.93q-5.74,0-8.82-3.09t-3.07-9.07q0-6,3.49-9.18t9.73-3.22c2.94,0,5.18.57,6.74,1.71a5.13,5.13,0,0,1,2.32,4.28A5.41,5.41,0,0,1,405,797.9a4,4,0,0,1-3.07,1.18,4.63,4.63,0,0,1-3.15-1,3.89,3.89,0,0,1-1.18-3.08,6.87,6.87,0,0,1,.24-1.78h1.64a5.44,5.44,0,0,0,.34-1.78A2.1,2.1,0,0,0,397.43,789Z"/><path class="cls-7" d="M410.92,809.41q-3.19-3.3-3.19-9.16t3.59-9a13.4,13.4,0,0,1,9.13-3.12q11.24,0,10.8,11.29h-14v1.93a16.86,16.86,0,0,0,1.24,7.33,4.41,4.41,0,0,0,4.31,2.48q5.75,0,7.52-6.14l.9.14a10.23,10.23,0,0,1-3.4,5.55q-2.44,2-7.35,2Q414.11,812.7,410.92,809.41Zm6.41-11h5.1V796a21.15,21.15,0,0,0-.47-5.48,1.85,1.85,0,0,0-1.88-1.46,2.21,2.21,0,0,0-2.08,1.56,15,15,0,0,0-.67,5.38Z"/><path class="cls-7" d="M291.22,854.64V839H288.5v-.89h2.72v-6.39l9.21-2.27v8.66h6.44V839h-6.44v16.69a9.3,9.3,0,0,0,.47,3.42,1.91,1.91,0,0,0,2,1.08,3.22,3.22,0,0,0,2.6-1.48,8.71,8.71,0,0,0,1.46-4.06l.84.1a9.63,9.63,0,0,1-2.18,5.42c-1.19,1.34-3.15,2-5.89,2a10.34,10.34,0,0,1-6.29-1.63Q291.23,858.95,291.22,854.64Z"/><path class="cls-7" d="M308.25,824.58h11.93v18.13a8.29,8.29,0,0,1,2.43-3.67,7.54,7.54,0,0,1,4.95-1.38q7.68,0,7.68,8.26v14.91H338v.89H324v-.89h2V844.74a11.26,11.26,0,0,0-.4-3.84,1.43,1.43,0,0,0-1.43-.87c-1.06,0-2,.7-2.8,2.08a9.86,9.86,0,0,0-1.22,5v13.67h2.13v.89H308.25v-.89H311V825.48h-2.73Z"/><path class="cls-7" d="M342.19,858.92q-3.18-3.28-3.19-9.16t3.59-9a13.42,13.42,0,0,1,9.14-3.12q11.24,0,10.79,11.29h-14v1.93a17,17,0,0,0,1.23,7.32,4.41,4.41,0,0,0,4.31,2.48q5.75,0,7.53-6.14l.89.15a10.24,10.24,0,0,1-3.39,5.54c-1.64,1.33-4.09,2-7.35,2Q345.39,862.21,342.19,858.92Zm6.42-11h5.1v-2.42a21.06,21.06,0,0,0-.47-5.47,1.85,1.85,0,0,0-1.89-1.46,2.21,2.21,0,0,0-2.08,1.56,15.25,15.25,0,0,0-.66,5.37Z"/><path class="cls-7" d="M376.19,850.08h1.43v-3.81a24.42,24.42,0,0,0-.52-6.31,2,2,0,0,0-2-1.61,2.87,2.87,0,0,0-1.61.47,1.46,1.46,0,0,0-.72,1.29,4.94,4.94,0,0,0,.3,1.66h1.23a6.86,6.86,0,0,1,.4,2.5,3.22,3.22,0,0,1-1.24,2.52,4.6,4.6,0,0,1-3.12,1.07q-4.26,0-4.26-4.11,0-6.09,10.35-6.09c3.93,0,6.65.66,8.15,2s2.25,3.79,2.25,7.35v10.06c0,1.71.48,2.57,1.44,2.57q1.68,0,2-5.1l.74.05c-.13,2.91-.68,4.9-1.63,6s-2.53,1.63-4.71,1.63q-5.94,0-6.83-3.66a5.28,5.28,0,0,1-1.93,2.77,6.55,6.55,0,0,1-3.76.89q-7.33,0-7.33-6a4.84,4.84,0,0,1,2.79-4.82C369.46,850.52,372.32,850.08,376.19,850.08Zm-1.71,9.41a1,1,0,0,0,1,.74c.51,0,1-.42,1.43-1.26a7.46,7.46,0,0,0,.67-3.49v-4.6h-.35c-2,0-3.07,1.5-3.07,4.5v.79A12.18,12.18,0,0,0,374.48,859.49Z"/><path class="cls-7" d="M393.22,854.64V839H390.5v-.89h2.72v-6.39l9.21-2.27v8.66h6.43V839h-6.43v16.69a9.09,9.09,0,0,0,.47,3.42,1.9,1.9,0,0,0,2,1.08,3.2,3.2,0,0,0,2.6-1.48,8.5,8.5,0,0,0,1.46-4.06l.85.1a9.63,9.63,0,0,1-2.18,5.42c-1.19,1.34-3.16,2-5.9,2a10.33,10.33,0,0,1-6.28-1.63C393.94,859.49,393.22,857.51,393.22,854.64Z"/><path class="cls-7" d="M426.79,839.54c-1.22,0-2.3.79-3.22,2.37a11.08,11.08,0,0,0-1.39,5.65v13.27h3.52v.89H410.25v-.89H413V839h-2.72v-.89h11.93v4.75a6.68,6.68,0,0,1,6.64-5.24,5.45,5.45,0,0,1,3.79,1.31,4.73,4.73,0,0,1,1.46,3.71,5.6,5.6,0,0,1-1.09,3.69,4.13,4.13,0,0,1-3.34,1.29,3.8,3.8,0,0,1-3.32-1.49q-1.06-1.49-.27-4.11h1.78C428.65,840.38,428.31,839.54,426.79,839.54Z"/><path class="cls-7" d="M438,858.92q-3.18-3.28-3.19-9.16t3.59-9a13.42,13.42,0,0,1,9.14-3.12q11.24,0,10.79,11.29h-14v1.93a17,17,0,0,0,1.23,7.32,4.41,4.41,0,0,0,4.31,2.48q5.75,0,7.53-6.14l.89.15a10.24,10.24,0,0,1-3.39,5.54c-1.64,1.33-4.09,2-7.35,2Q441.15,862.21,438,858.92Zm6.42-11h5.1v-2.42a21.06,21.06,0,0,0-.47-5.47,1.85,1.85,0,0,0-1.89-1.46,2.21,2.21,0,0,0-2.08,1.56,15.25,15.25,0,0,0-.66,5.37Z"/><path class="cls-7" d="M330.16,977.58q0,10.2-5.74,14.21-5.3,3.71-14.56,3.71h-14v-.94h3.27V961.78h-3.27v-.94h15.3q9.51,0,14.26,3.89T330.16,977.58Zm-21.39,17h1.88c3.34,0,5.72-1.18,7.16-3.54s2.15-6.31,2.15-11.86v-2.87q0-11.14-4.26-13.42a12.38,12.38,0,0,0-5.74-1.09h-1.19Z"/><path class="cls-7" d="M349.23,973.32c-1.23,0-2.3.79-3.22,2.38a10.92,10.92,0,0,0-1.39,5.64v13.27h3.52v.89H332.69v-.89h2.72V972.82h-2.72v-.89h11.93v4.76a6.67,6.67,0,0,1,6.64-5.25,5.45,5.45,0,0,1,3.78,1.31,4.71,4.71,0,0,1,1.46,3.71,5.51,5.51,0,0,1-1.09,3.69,4.12,4.12,0,0,1-3.34,1.29,3.78,3.78,0,0,1-3.31-1.48c-.72-1-.81-2.36-.28-4.11h1.79Q351.5,973.32,349.23,973.32Z"/><path class="cls-7" d="M368.34,983.87h1.43v-3.82a24.42,24.42,0,0,0-.52-6.31,2,2,0,0,0-2-1.61,2.89,2.89,0,0,0-1.61.47,1.48,1.48,0,0,0-.72,1.29,4.94,4.94,0,0,0,.3,1.66h1.24a7.13,7.13,0,0,1,.39,2.5,3.22,3.22,0,0,1-1.24,2.52,4.6,4.6,0,0,1-3.12,1.07q-4.25,0-4.25-4.11,0-6.09,10.35-6.09c3.92,0,6.64.67,8.14,2s2.25,3.79,2.25,7.36v10.05c0,1.72.48,2.57,1.44,2.57q1.68,0,2-5.1l.74,0c-.13,2.91-.67,4.9-1.63,6S379,996,376.8,996c-4,0-6.23-1.22-6.83-3.67a5.35,5.35,0,0,1-1.93,2.78,6.63,6.63,0,0,1-3.76.89q-7.33,0-7.33-6a4.84,4.84,0,0,1,2.8-4.83C361.61,984.3,364.48,983.87,368.34,983.87Zm-1.71,9.4a1,1,0,0,0,1,.75c.51,0,1-.42,1.44-1.27a7.6,7.6,0,0,0,.66-3.49v-4.6h-.34q-3.07,0-3.07,4.5v.8A12.29,12.29,0,0,0,366.63,993.27Z"/><path class="cls-7" d="M403.25,969.36l1.38-.84c.2-1-.2-1.54-1.19-1.54-1.42,0-2.12,1.09-2.12,3.27a14.94,14.94,0,0,0,.34,3,7.54,7.54,0,0,1,3.77,6.46,7.38,7.38,0,0,1-2.73,6.12,11.48,11.48,0,0,1-7.38,2.18,21.88,21.88,0,0,1-4-.4c-1.45.93-2.18,1.62-2.18,2.08s1.06.69,3.17.69h5.05q11.25,0,11.24,8.07a8.19,8.19,0,0,1-3.39,6.91q-3.39,2.55-10.57,2.55-12.22,0-12.23-5.3,0-2.87,3.81-4l3,1.34a10.38,10.38,0,0,0-.39,2.72q0,4.26,6.34,4.26a10.38,10.38,0,0,0,5.94-1.44,4.22,4.22,0,0,0,2.08-3.56,3,3,0,0,0-1.27-2.85c-.84-.48-2.51-.72-5-.72h-4.8c-2.68,0-4.59-.44-5.75-1.33a4,4,0,0,1-1.73-3.3,4.54,4.54,0,0,1,1.24-3.26,22.23,22.23,0,0,1,4.4-3.25q-5.75-1.63-5.74-7.52a7.47,7.47,0,0,1,2.67-6c1.79-1.52,4.46-2.28,8-2.28a11.3,11.3,0,0,1,5.49,1.24,11.17,11.17,0,0,1-.3-2.43,4.94,4.94,0,0,1,1.49-4,5.09,5.09,0,0,1,3.32-1.24,4.29,4.29,0,0,1,2.94,1,3.29,3.29,0,0,1,1.12,2.65,3.26,3.26,0,0,1-.89,2.5,3.12,3.12,0,0,1-2.16.81,3.22,3.22,0,0,1-2.08-.66A2.48,2.48,0,0,1,403.25,969.36Zm-10.5,9.26v2.67a11.9,11.9,0,0,0,.57,4.51,1.85,1.85,0,0,0,1.73,1.19,1.75,1.75,0,0,0,1.69-1.17,14.14,14.14,0,0,0,.52-4.78v-2.42a16.3,16.3,0,0,0-.5-5.08,1.71,1.71,0,0,0-1.66-1.21,1.9,1.9,0,0,0-1.76,1.26A14,14,0,0,0,392.75,978.62Z"/></svg>