<svg id="Layer_1" data-name="Layer 1" xmlns="http://www.w3.org/2000/svg" viewBox="0 0 1920 77.38"><defs><style>.cls-1{fill:#eae6d6;stroke:#ccc08f;stroke-miterlimit:10;opacity:0.87;}.cls-2{fill:#c9c097;}.cls-3{fill:#eddfa6;}.cls-4{fill:#7c7c7c;}</style></defs><path class="cls-1" d="M13.35,24.83s588.09.15,910,.15,988.85.58,988.85.58V76.21H938.91c-389.33,0-925.56,1.17-925.56,1.17Z"/><path class="cls-2" d="M1911.91,28.88s-774.26-3.47-987-3.47-911.6,2.4-911.6,2.4V10.89s545,4.71,912.38,4.71,986.18-4.71,986.18-4.71Z"/><path class="cls-3" d="M1902.76,21.68c0-9.88,4-18,9-18,5.89,0,9,6.58,9,15.58,0,12.28-5.36,16.77-9.53,16.77S1902.76,28.61,1902.76,21.68Z"/><path class="cls-3" d="M4.84,22.09C4.84,9.94,8.8,0,13.83,0c5.89,0,9,8.1,9,19.15,0,15.1-5.35,20.62-9.53,20.62S4.84,30.6,4.84,22.09Z"/><path class="cls-2" d="M1906.24,26.57c1.93-.84,3.83-1.38,5.67-2.25a10.13,10.13,0,0,0,2.63-1.69,8.22,8.22,0,0,0,.57-.61,8.92,8.92,0,0,0,.51-.79,5.13,5.13,0,0,0,.63-1.7,3.57,3.57,0,0,0,0-1.34,5,5,0,0,0-.64-1.68,3.2,3.2,0,0,0-1.08-1.06,3.68,3.68,0,0,0-1.29-.45,3.17,3.17,0,0,0-1.3.09,1.56,1.56,0,0,0-.61.29c-.18.09-.35.43-.34.31s0-.37,0-.17a4.79,4.79,0,0,0,.11.6,5.6,5.6,0,0,0,.46,1.12,6.47,6.47,0,0,0,1.29,1.61,1.63,1.63,0,0,1-1.5-.24,2.35,2.35,0,0,1-.76-1,5,5,0,0,1-.34-1,6,6,0,0,1-.1-2.07,5,5,0,0,1,.38-1.37,5.59,5.59,0,0,1,.39-.72,4.7,4.7,0,0,1,.77-.89,3.86,3.86,0,0,1,1.54-.88,2.79,2.79,0,0,1,1.57,0,2.58,2.58,0,0,1,.82.37,3.85,3.85,0,0,1,.84.83,8.94,8.94,0,0,1,1.47,3.58,16.62,16.62,0,0,1,.34,3.11,17.61,17.61,0,0,1-.24,3.25,10.94,10.94,0,0,1-1.37,3.88,8.68,8.68,0,0,1-.77,1.05,5.47,5.47,0,0,1-.78.7,5.53,5.53,0,0,1-3,1A9.23,9.23,0,0,1,1906.24,26.57Z"/><path class="cls-2" d="M8.32,11.6a8.13,8.13,0,0,1,5.8-2.42,4.81,4.81,0,0,1,3,1.24,6.11,6.11,0,0,1,.79.86,9.52,9.52,0,0,1,.76,1.3,15.37,15.37,0,0,1,1.38,4.76,25.35,25.35,0,0,1,.23,4A26.14,26.14,0,0,1,20,25.15a12.47,12.47,0,0,1-1.47,4.41,4.81,4.81,0,0,1-.84,1,2.35,2.35,0,0,1-.82.46,2.38,2.38,0,0,1-1.58,0,3.76,3.76,0,0,1-1.54-1.08A6.18,6.18,0,0,1,13,28.85a5.82,5.82,0,0,1-.39-.88,7,7,0,0,1-.38-1.69,8.69,8.69,0,0,1,.1-2.55,7.53,7.53,0,0,1,.34-1.18,2.8,2.8,0,0,1,.76-1.18,1.36,1.36,0,0,1,1.49-.29,7.78,7.78,0,0,0-1.28,2,6.39,6.39,0,0,0-.46,1.38,3.92,3.92,0,0,0-.11.73c0,.25,0-.1,0-.21s.16.27.35.39a1.78,1.78,0,0,0,.6.36,2.66,2.66,0,0,0,1.31.1,3.19,3.19,0,0,0,1.28-.55A3.41,3.41,0,0,0,17.66,24a6.83,6.83,0,0,0,.65-2.05,5.74,5.74,0,0,0,0-1.65,7.4,7.4,0,0,0-.64-2.1,9.57,9.57,0,0,0-.5-1c-.2-.24-.37-.54-.57-.76A10.07,10.07,0,0,0,14,14.36C12.14,13.28,10.24,12.62,8.32,11.6Z"/><path class="cls-4" d="M861.4,35.1h13.68v.83h-4V60.86h1.36a6.83,6.83,0,0,0,5.15-2,23.32,23.32,0,0,0,3.9-6.08h.8l-.73,8.9H861.4v-.84h2.25V35.93H861.4Z"/><path class="cls-4" d="M888.55,59.55a9.69,9.69,0,0,1-2.45-7,8.65,8.65,0,0,1,2.76-6.9,10.31,10.31,0,0,1,7-2.39q8.63,0,8.28,8.66H893.44v1.48a12.92,12.92,0,0,0,.95,5.63,3.37,3.37,0,0,0,3.3,1.9q4.41,0,5.78-4.71l.68.11a7.92,7.92,0,0,1-2.6,4.26,8.85,8.85,0,0,1-5.64,1.52C892.64,62.08,890.19,61.23,888.55,59.55Zm4.93-8.42h3.91V49.27a16.12,16.12,0,0,0-.36-4.2A1.42,1.42,0,0,0,895.58,44a1.68,1.68,0,0,0-1.59,1.2,11.62,11.62,0,0,0-.51,4.12Z"/><path class="cls-4" d="M923,41.63,924.1,41c.15-.79-.15-1.18-.91-1.18-1.09,0-1.63.83-1.63,2.51a12,12,0,0,0,.26,2.28,5.77,5.77,0,0,1,2.89,5,5.68,5.68,0,0,1-2.09,4.69A8.83,8.83,0,0,1,917,55.92a16.63,16.63,0,0,1-3.08-.3c-1.11.71-1.67,1.24-1.67,1.59s.81.53,2.43.53h3.88q8.63,0,8.62,6.2a6.3,6.3,0,0,1-2.6,5.3c-1.74,1.3-4.44,2-8.11,2q-9.39,0-9.39-4.07c0-1.47,1-2.48,2.93-3l2.28,1a7.56,7.56,0,0,0-.31,2.09c0,2.18,1.62,3.26,4.87,3.26a8,8,0,0,0,4.56-1.1A3.23,3.23,0,0,0,923,66.64a2.3,2.3,0,0,0-1-2.19,8.82,8.82,0,0,0-3.85-.55h-3.69a7.3,7.3,0,0,1-4.41-1,3.09,3.09,0,0,1-1.33-2.52,3.53,3.53,0,0,1,.95-2.51A17.66,17.66,0,0,1,913,55.35a5.5,5.5,0,0,1-4.4-5.78A5.71,5.71,0,0,1,910.69,45q2.05-1.75,6.15-1.75a8.74,8.74,0,0,1,4.22,1,8.88,8.88,0,0,1-.23-1.86A3.76,3.76,0,0,1,922,39.24a3.86,3.86,0,0,1,2.54-1,3.34,3.34,0,0,1,2.26.74,2.54,2.54,0,0,1,.86,2A2.47,2.47,0,0,1,927,43a2.33,2.33,0,0,1-1.65.63,2.45,2.45,0,0,1-1.6-.51A1.91,1.91,0,0,1,923,41.63ZM915,48.74v2a9.14,9.14,0,0,0,.44,3.46,1.4,1.4,0,0,0,1.33.91,1.34,1.34,0,0,0,1.29-.89,10.65,10.65,0,0,0,.4-3.67V48.74a12.65,12.65,0,0,0-.38-3.9,1.31,1.31,0,0,0-1.27-.93,1.45,1.45,0,0,0-1.35,1A10.44,10.44,0,0,0,915,48.74Z"/><path class="cls-4" d="M931.42,59.55a9.64,9.64,0,0,1-2.45-7,8.64,8.64,0,0,1,2.75-6.9,10.33,10.33,0,0,1,7-2.39q8.63,0,8.29,8.66H936.3v1.48a13.07,13.07,0,0,0,1,5.63,3.38,3.38,0,0,0,3.31,1.9c2.93,0,4.86-1.57,5.77-4.71l.69.11a7.93,7.93,0,0,1-2.61,4.26,8.85,8.85,0,0,1-5.64,1.52C935.5,62.08,933.05,61.23,931.42,59.55Zm4.92-8.42h3.91V49.27a16.12,16.12,0,0,0-.36-4.2A1.42,1.42,0,0,0,938.45,44a1.69,1.69,0,0,0-1.6,1.2,11.62,11.62,0,0,0-.51,4.12Z"/><path class="cls-4" d="M950.74,43.61h9.16V47.1a6.26,6.26,0,0,1,1.86-2.81,5.76,5.76,0,0,1,3.8-1.06q5.9,0,5.89,6.34V61h2.13v.69H962.82V61h1.56V48.66a8.83,8.83,0,0,0-.3-2.94,1.11,1.11,0,0,0-1.1-.67c-.81,0-1.53.53-2.15,1.6a7.54,7.54,0,0,0-.93,3.87V61h1.63v.69H950.74V61h2.09V44.29h-2.09Z"/><path class="cls-4" d="M989.27,61.7,988.85,59c-.86,2-2.61,3-5.24,3a6,6,0,0,1-5.07-2.36q-1.81-2.36-1.81-7,0-9.46,7.53-9.46,3.33,0,4.4,1.86V33.88h-2.31V33.2h9.5V61h1.86v.69Zm-4.79-2.57A1.58,1.58,0,0,0,986,60.44a2.44,2.44,0,0,0,1.94-1,4.44,4.44,0,0,0,.82-2.92V48.24a5.56,5.56,0,0,0-.65-2.77,2.06,2.06,0,0,0-1.9-1.14c-.83,0-1.4.56-1.71,1.67a25.83,25.83,0,0,0-.45,5.85v2A21.27,21.27,0,0,0,984.48,59.13Z"/></svg>