<svg id="Layer_1" data-name="Layer 1" xmlns="http://www.w3.org/2000/svg" viewBox="0 0 1920 424.76"><defs><style>.cls-1{fill:#eae6d6;stroke:#ccc08f;stroke-miterlimit:10;opacity:0.87;}.cls-2{fill:#c9c097;}.cls-3{fill:#eddfa6;}.cls-4{fill:#af9ca1;}.cls-5{fill:#c2df97;}.cls-6{fill:#f67c87;}.cls-7{fill:#4c4c4c;}.cls-8{fill:#f7b289;}.cls-9{fill:#bdc1ae;}.cls-10{fill:#d08c87;}.cls-11{fill:#867888;}.cls-12{fill:#99ad77;}.cls-13{fill:#c0aaaf;}.cls-14{fill:#79a5ae;}.cls-15{fill:#55774d;}.cls-16{fill:#d1bb80;}.cls-17{fill:#c65c7f;}.cls-18{fill:#f3bef1;}.cls-19{fill:#a9aedb;}.cls-20{fill:#f3df8c;}.cls-21{fill:#a8dcc6;}.cls-22{fill:#373e7a;}</style></defs><path class="cls-1" d="M13.35,24.83s588.09,1.11,910,1.11,988.85,4.33,988.85,4.33V407.13H938.91c-389.33,0-925.56,8.74-925.56,8.74Z"/><path class="cls-2" d="M1911.91,28.88s-774.26-3.47-987-3.47-911.6,2.4-911.6,2.4V10.89s545,4.71,912.38,4.71,986.18-4.71,986.18-4.71Z"/><path class="cls-3" d="M1902.76,21.68c0-9.88,4-18,9-18,5.89,0,9,6.58,9,15.58,0,12.28-5.36,16.77-9.53,16.77S1902.76,28.61,1902.76,21.68Z"/><path class="cls-3" d="M4.84,22.09C4.84,9.94,8.8,0,13.83,0c5.89,0,9,8.1,9,19.15,0,15.1-5.35,20.62-9.53,20.62S4.84,30.6,4.84,22.09Z"/><path class="cls-2" d="M1906.24,26.57c1.93-.84,3.83-1.38,5.67-2.25a10.13,10.13,0,0,0,2.63-1.69,8.22,8.22,0,0,0,.57-.61,8.92,8.92,0,0,0,.51-.79,5.13,5.13,0,0,0,.63-1.7,3.57,3.57,0,0,0,0-1.34,5,5,0,0,0-.64-1.68,3.2,3.2,0,0,0-1.08-1.06,3.68,3.68,0,0,0-1.29-.45,3.17,3.17,0,0,0-1.3.09,1.56,1.56,0,0,0-.61.29c-.18.09-.35.43-.34.31s0-.37,0-.17a4.79,4.79,0,0,0,.11.6,5.6,5.6,0,0,0,.46,1.12,6.47,6.47,0,0,0,1.29,1.61,1.63,1.63,0,0,1-1.5-.24,2.35,2.35,0,0,1-.76-1,5,5,0,0,1-.34-1,6,6,0,0,1-.1-2.07,5,5,0,0,1,.38-1.37,5.59,5.59,0,0,1,.39-.72,4.7,4.7,0,0,1,.77-.89,3.86,3.86,0,0,1,1.54-.88,2.79,2.79,0,0,1,1.57,0,2.58,2.58,0,0,1,.82.37,3.85,3.85,0,0,1,.84.83,8.94,8.94,0,0,1,1.47,3.58,16.62,16.62,0,0,1,.34,3.11,17.61,17.61,0,0,1-.24,3.25,10.94,10.94,0,0,1-1.37,3.88,8.68,8.68,0,0,1-.77,1.05,5.47,5.47,0,0,1-.78.7,5.53,5.53,0,0,1-3,1A9.23,9.23,0,0,1,1906.24,26.57Z"/><path class="cls-2" d="M8.32,11.6a8.13,8.13,0,0,1,5.8-2.42,4.81,4.81,0,0,1,3,1.24,6.11,6.11,0,0,1,.79.86,9.52,9.52,0,0,1,.76,1.3,15.37,15.37,0,0,1,1.38,4.76,25.35,25.35,0,0,1,.23,4A26.14,26.14,0,0,1,20,25.15a12.47,12.47,0,0,1-1.47,4.41,4.81,4.81,0,0,1-.84,1,2.35,2.35,0,0,1-.82.46,2.38,2.38,0,0,1-1.58,0,3.76,3.76,0,0,1-1.54-1.08A6.18,6.18,0,0,1,13,28.85a5.82,5.82,0,0,1-.39-.88,7,7,0,0,1-.38-1.69,8.69,8.69,0,0,1,.1-2.55,7.53,7.53,0,0,1,.34-1.18,2.8,2.8,0,0,1,.76-1.18,1.36,1.36,0,0,1,1.49-.29,7.78,7.78,0,0,0-1.28,2,6.39,6.39,0,0,0-.46,1.38,3.92,3.92,0,0,0-.11.73c0,.25,0-.1,0-.21s.16.27.35.39a1.78,1.78,0,0,0,.6.36,2.66,2.66,0,0,0,1.31.1,3.19,3.19,0,0,0,1.28-.55A3.41,3.41,0,0,0,17.66,24a6.83,6.83,0,0,0,.65-2.05,5.74,5.74,0,0,0,0-1.65,7.4,7.4,0,0,0-.64-2.1,9.57,9.57,0,0,0-.5-1c-.2-.24-.37-.54-.57-.76A10.07,10.07,0,0,0,14,14.36C12.14,13.28,10.24,12.62,8.32,11.6Z"/><polygon class="cls-4" points="96.91 72.82 95.99 94.18 113.06 107.04 92.46 112.77 85.5 132.98 73.69 115.16 52.32 114.78 65.62 98.05 59.37 77.6 79.4 85.08 96.91 72.82"/><polygon class="cls-5" points="103.15 201.42 96.83 221.84 110.07 238.62 88.69 238.92 76.82 256.7 69.93 236.46 49.36 230.67 66.47 217.86 65.63 196.5 83.1 208.82 103.15 201.42"/><polygon class="cls-6" points="112.85 342.71 94.29 353.31 92.5 374.61 76.68 360.23 55.87 365.11 64.65 345.63 53.58 327.34 74.83 329.67 88.8 313.49 93.15 334.42 112.85 342.71"/><path class="cls-7" d="M122.3,79.27h8.51a12.85,12.85,0,0,1,5.93,1.07,3.76,3.76,0,0,1,2,3.6c0,2.6-1.56,4.15-4.69,4.67v0q5.68.72,5.69,5A4.5,4.5,0,0,1,137.39,98a14.73,14.73,0,0,1-6.72,1.24H122.3v-.54h1.85V79.81H122.3Zm7.4.54v8.77h.74a2.26,2.26,0,0,0,2.06-.9,5.11,5.11,0,0,0,.59-2.75V83.6a6,6,0,0,0-.52-2.95,2.1,2.1,0,0,0-2-.84Zm0,9.31v9.54H131a2.31,2.31,0,0,0,2.19-1.09,6.43,6.43,0,0,0,.63-3.18V92.88a4.39,4.39,0,0,0-.77-2.82,3.38,3.38,0,0,0-2.74-.94Z"/><path class="cls-7" d="M142.79,97.66A7.08,7.08,0,0,1,141,92.44a6.84,6.84,0,0,1,1.95-5.24,7.66,7.66,0,0,1,5.48-1.84,7.27,7.27,0,0,1,5.27,1.7,6.91,6.91,0,0,1,1.74,5.16q0,7.26-7.24,7.26A7.33,7.33,0,0,1,142.79,97.66Zm7.15-4.07V91.17a19.35,19.35,0,0,0-.3-4c-.2-.84-.66-1.27-1.38-1.27a1.42,1.42,0,0,0-1,.36,2.21,2.21,0,0,0-.56,1.18,22,22,0,0,0-.25,3.9v2.22a20.82,20.82,0,0,0,.18,3.73,6.43,6.43,0,0,0,.39,1,1.21,1.21,0,0,0,1.22.68,1.45,1.45,0,0,0,1.45-1.28A19.69,19.69,0,0,0,149.94,93.59Z"/><path class="cls-7" d="M156.09,77.85h7V98.69h1.6v.51H156.2v-.51h1.57V78.36h-1.68Z"/><path class="cls-7" d="M165.08,77.85h7V98.69h1.59v.51H165.2v-.51h1.56V78.36h-1.68Z"/><path class="cls-7" d="M173.62,86.16v-.51h8.26v.51h-1.54l3.11,9.45,3.3-9.45h-1.91v-.51h4v.51h-1.43l-5.32,15.34a9.26,9.26,0,0,1-2.11,3.75,4.08,4.08,0,0,1-2.85,1.06,4.13,4.13,0,0,1-2.64-.76,2.41,2.41,0,0,1-1-2,2.45,2.45,0,0,1,.63-1.82,2.2,2.2,0,0,1,1.65-.63c1.57,0,2.36.66,2.36,2a4,4,0,0,1-.17,1h-1a1.51,1.51,0,0,0,0,1.08.72.72,0,0,0,.76.43,2.62,2.62,0,0,0,2.08-1.15,12.31,12.31,0,0,0,1.74-3.52l.63-1.76h-2.51l-4.87-13Z"/><path class="cls-7" d="M198.65,86.16v-.51H206v.51h-1.16l2.56,9.59,2.53-9.59h-2v-.51h3.84v.51h-1.19l-3.42,13h-3.9l-2.48-8.74-2.67,8.74h-3.82l-4.21-13h-1.28v-.51h8.62v.51h-1.71l2.62,9.68,2-6.66-.71-3Z"/><path class="cls-7" d="M213.71,97.66a7,7,0,0,1-1.82-5.22,6.84,6.84,0,0,1,2-5.24,7.65,7.65,0,0,1,5.48-1.84,7.25,7.25,0,0,1,5.26,1.7,6.91,6.91,0,0,1,1.74,5.16q0,7.26-7.23,7.26A7.31,7.31,0,0,1,213.71,97.66Zm7.14-4.07V91.17a19.35,19.35,0,0,0-.3-4c-.19-.84-.65-1.27-1.38-1.27a1.44,1.44,0,0,0-1,.36,2.21,2.21,0,0,0-.55,1.18,21.75,21.75,0,0,0-.26,3.9v2.22a19.44,19.44,0,0,0,.19,3.73,6.51,6.51,0,0,0,.38,1,1.23,1.23,0,0,0,1.23.68c.74,0,1.22-.43,1.45-1.28A20,20,0,0,0,220.85,93.59Z"/><path class="cls-7" d="M229.17,97.66a7,7,0,0,1-1.83-5.22,6.84,6.84,0,0,1,1.95-5.24,7.67,7.67,0,0,1,5.49-1.84,7.26,7.26,0,0,1,5.26,1.7,6.91,6.91,0,0,1,1.74,5.16q0,7.26-7.23,7.26A7.29,7.29,0,0,1,229.17,97.66Zm7.14-4.07V91.17a19.35,19.35,0,0,0-.3-4c-.2-.84-.66-1.27-1.38-1.27a1.44,1.44,0,0,0-1,.36,2.21,2.21,0,0,0-.55,1.18,21.75,21.75,0,0,0-.26,3.9v2.22a19.44,19.44,0,0,0,.19,3.73,6.51,6.51,0,0,0,.38,1,1.22,1.22,0,0,0,1.22.68,1.47,1.47,0,0,0,1.46-1.28A20,20,0,0,0,236.31,93.59Z"/><path class="cls-7" d="M252.25,99.2l-.31-2q-1,2.28-3.93,2.28a4.52,4.52,0,0,1-3.8-1.76,8.62,8.62,0,0,1-1.35-5.27q0-7.1,5.64-7.09c1.67,0,2.77.47,3.3,1.4v-8.4h-1.74v-.51h7.12V98.69h1.39v.51Zm-3.58-1.92a1.18,1.18,0,0,0,1.15,1,1.84,1.84,0,0,0,1.45-.74,3.38,3.38,0,0,0,.61-2.19V89.12A4.18,4.18,0,0,0,251.4,87a1.54,1.54,0,0,0-1.42-.85c-.63,0-1.06.41-1.28,1.25a18.84,18.84,0,0,0-.35,4.38V93.3A15.82,15.82,0,0,0,248.67,97.28Z"/><path class="cls-7" d="M131.66,127.67l-.31-2c-.65,1.52-1.95,2.28-3.93,2.28a4.52,4.52,0,0,1-3.8-1.76,8.62,8.62,0,0,1-1.35-5.27q0-7.1,5.64-7.09c1.67,0,2.77.47,3.3,1.39v-8.39h-1.74v-.52h7.12v20.84H138v.52Zm-3.58-1.93a1.18,1.18,0,0,0,1.15,1,1.84,1.84,0,0,0,1.45-.74,3.39,3.39,0,0,0,.61-2.2v-6.2a4.18,4.18,0,0,0-.48-2.08,1.54,1.54,0,0,0-1.42-.85c-.63,0-1.06.41-1.29,1.25a19.46,19.46,0,0,0-.34,4.38v1.48A15.67,15.67,0,0,0,128.08,125.74Z"/><path class="cls-7" d="M145.56,121h.82v-2.2a14.13,14.13,0,0,0-.3-3.63,1.15,1.15,0,0,0-1.15-.92,1.68,1.68,0,0,0-.93.27.85.85,0,0,0-.41.74,2.93,2.93,0,0,0,.17,1h.71a3.89,3.89,0,0,1,.23,1.44,1.87,1.87,0,0,1-.71,1.45,2.64,2.64,0,0,1-1.79.61c-1.64,0-2.45-.78-2.45-2.36q0-3.49,5.95-3.5c2.26,0,3.82.38,4.68,1.15s1.3,2.18,1.3,4.23V125c0,1,.27,1.48.82,1.48s1-1,1.14-2.93l.43,0a5.77,5.77,0,0,1-.94,3.44,3.42,3.42,0,0,1-2.71.94q-3.4,0-3.93-2.11a3,3,0,0,1-1.11,1.6,3.79,3.79,0,0,1-2.16.51q-4.22,0-4.21-3.44a2.78,2.78,0,0,1,1.61-2.78A12.26,12.26,0,0,1,145.56,121Zm-1,5.4a.6.6,0,0,0,.6.43c.29,0,.57-.24.83-.73a4.39,4.39,0,0,0,.38-2v-2.65h-.2c-1.18,0-1.76.86-1.76,2.59v.46A7.28,7.28,0,0,0,144.57,126.38Z"/><path class="cls-7" d="M154.41,114.11h6.86v2.62a4.73,4.73,0,0,1,1.39-2.1,4.35,4.35,0,0,1,2.85-.8q4.41,0,4.41,4.75v8.57h1.6v.52h-8.06v-.52h1.17V117.9a6.65,6.65,0,0,0-.23-2.21.82.82,0,0,0-.82-.49,1.93,1.93,0,0,0-1.61,1.19,5.65,5.65,0,0,0-.7,2.91v7.85h1.22v.52h-8.08v-.52H156V114.63h-1.56Z"/><path class="cls-7" d="M179.86,114.34a1.86,1.86,0,0,0-1.79,1.37,13.47,13.47,0,0,0-.54,4.52v1.49a9.5,9.5,0,0,0,.62,4,2.37,2.37,0,0,0,2.31,1.22,3.36,3.36,0,0,0,2.67-1.14,5.41,5.41,0,0,0,1.28-2.59l.52.06a5.74,5.74,0,0,1-2,3.53,6.63,6.63,0,0,1-4.07,1.11,6.78,6.78,0,0,1-5.06-1.78A7.08,7.08,0,0,1,172,121a6.81,6.81,0,0,1,2-5.28,8,8,0,0,1,5.59-1.85,6.5,6.5,0,0,1,3.87,1,3,3,0,0,1,1.34,2.46,3.09,3.09,0,0,1-.64,2.17,2.31,2.31,0,0,1-1.76.68,2.64,2.64,0,0,1-1.81-.6,2.19,2.19,0,0,1-.68-1.76,3.7,3.7,0,0,1,.14-1H181a3.21,3.21,0,0,0,.2-1A1.21,1.21,0,0,0,179.86,114.34Z"/><path class="cls-7" d="M187.62,126.06a7.23,7.23,0,0,1-1.84-5.27,6.5,6.5,0,0,1,2.06-5.17,7.76,7.76,0,0,1,5.26-1.79q6.45,0,6.2,6.49h-8v1.11a9.65,9.65,0,0,0,.71,4.21,2.53,2.53,0,0,0,2.47,1.43c2.2,0,3.65-1.18,4.33-3.53l.51.08a5.87,5.87,0,0,1-2,3.19,6.62,6.62,0,0,1-4.22,1.14Q189.46,128,187.62,126.06Zm3.68-6.31h2.94v-1.39a12.53,12.53,0,0,0-.27-3.15,1.08,1.08,0,0,0-1.09-.84,1.25,1.25,0,0,0-1.19.9,8.53,8.53,0,0,0-.39,3.09Z"/><path class="cls-7" d="M147.55,203.23q-4.41,0-4.41,8.51V214a14.25,14.25,0,0,0,1.16,6.33,3.7,3.7,0,0,0,3.45,2.29c2.09,0,4-2,5.75-6.09H154l-.2,6.35h-.31a1.8,1.8,0,0,0-.31-.44.6.6,0,0,0-.42-.13,17.54,17.54,0,0,0-2.06.44,14.92,14.92,0,0,1-3.64.44c-3.1,0-5.49-.83-7.19-2.5s-2.55-4.18-2.55-7.53.89-5.94,2.66-7.76a9.55,9.55,0,0,1,7.16-2.73,13.38,13.38,0,0,1,3.4.44,14.43,14.43,0,0,0,1.95.44.6.6,0,0,0,.43-.13,1.62,1.62,0,0,0,.31-.44h.32l.22,6.18h-.51a17.25,17.25,0,0,0-2.63-4.4A4.06,4.06,0,0,0,147.55,203.23Z"/><path class="cls-7" d="M156,201.55h7v20.84h1.6v.51h-8.46v-.51h1.57V202.06H156Z"/><path class="cls-7" d="M171.92,216.21h.82V214a14,14,0,0,0-.3-3.63,1.14,1.14,0,0,0-1.15-.93,1.63,1.63,0,0,0-.92.27.84.84,0,0,0-.42.74,3,3,0,0,0,.17,1h.72a4,4,0,0,1,.22,1.43,1.86,1.86,0,0,1-.71,1.46,2.68,2.68,0,0,1-1.79.61,2.13,2.13,0,0,1-2.45-2.36q0-3.51,5.95-3.51c2.26,0,3.82.39,4.68,1.16s1.3,2.17,1.3,4.22v5.78c0,1,.27,1.48.82,1.48s1-1,1.14-2.93l.43,0a5.75,5.75,0,0,1-.94,3.44,3.41,3.41,0,0,1-2.7.94q-3.42,0-3.93-2.1a3.09,3.09,0,0,1-1.11,1.59,3.84,3.84,0,0,1-2.17.51c-2.81,0-4.21-1.14-4.21-3.44A2.8,2.8,0,0,1,167,217,12.29,12.29,0,0,1,171.92,216.21Zm-1,5.41a.59.59,0,0,0,.59.43c.3,0,.57-.25.83-.73a4.28,4.28,0,0,0,.38-2v-2.64h-.2c-1.17,0-1.76.86-1.76,2.59v.45A6.79,6.79,0,0,0,170.94,221.62Z"/><path class="cls-7" d="M181.37,223.18v-5.09h.34a6.81,6.81,0,0,0,2,3.47,4.85,4.85,0,0,0,3.13,1c1.94,0,2.91-.62,2.91-1.85a1.31,1.31,0,0,0-.71-1.2,9.58,9.58,0,0,0-2.85-1,11.2,11.2,0,0,1-3.25-1.36,3.62,3.62,0,0,1-1.56-3.25,4.66,4.66,0,0,1,1.37-3.54,5,5,0,0,1,3.64-1.33,7.07,7.07,0,0,1,2.88.66,2.34,2.34,0,0,0,.82.23.66.66,0,0,0,.48-.2,3.2,3.2,0,0,0,.49-.74h.31v4.35H191c-1-2.46-2.47-3.7-4.5-3.7a3.46,3.46,0,0,0-2,.47,1.39,1.39,0,0,0-.65,1.18,1,1,0,0,0,.19.67l.32.36a1.69,1.69,0,0,0,.37.24l.42.2a5.18,5.18,0,0,0,.53.18,3.91,3.91,0,0,0,.53.15A20.91,20.91,0,0,1,189,214a9,9,0,0,1,1.62.86,4,4,0,0,1,1.57,3.49,4.58,4.58,0,0,1-1.43,3.65,5.77,5.77,0,0,1-3.9,1.23,7.51,7.51,0,0,1-3.41-.82,1.13,1.13,0,0,0-.55-.23c-.41,0-.82.35-1.22,1.05Z"/><path class="cls-7" d="M193.72,223.18v-5.09h.35a6.74,6.74,0,0,0,2,3.47,4.83,4.83,0,0,0,3.13,1c1.94,0,2.9-.62,2.9-1.85a1.29,1.29,0,0,0-.71-1.2,9.61,9.61,0,0,0-2.84-1,11,11,0,0,1-3.25-1.36,3.62,3.62,0,0,1-1.57-3.25,4.7,4.7,0,0,1,1.37-3.54,5,5,0,0,1,3.64-1.33,7.07,7.07,0,0,1,2.88.66,2.43,2.43,0,0,0,.83.23.67.67,0,0,0,.48-.2,3.62,3.62,0,0,0,.48-.74h.32v4.35h-.34c-1-2.46-2.47-3.7-4.5-3.7a3.47,3.47,0,0,0-2,.47,1.42,1.42,0,0,0-.65,1.18,1,1,0,0,0,.2.67l.31.36a2,2,0,0,0,.37.24l.43.2a4.43,4.43,0,0,0,.53.18,3.87,3.87,0,0,0,.52.15,20.91,20.91,0,0,1,2.79.84,9.41,9.41,0,0,1,1.63.86,4,4,0,0,1,1.56,3.49,4.57,4.57,0,0,1-1.42,3.65,5.77,5.77,0,0,1-3.9,1.23,7.55,7.55,0,0,1-3.42-.82,1.14,1.14,0,0,0-.54-.23c-.42,0-.83.35-1.22,1.05Z"/><path class="cls-7" d="M205.31,209.35h7v13h1.59v.51h-8.46v-.51H207V209.86h-1.68Zm4.3-2a2.66,2.66,0,0,1-2.15-.76,2.88,2.88,0,0,1-.64-1.91,2.61,2.61,0,0,1,.7-1.88,2.78,2.78,0,0,1,2.12-.74,3.09,3.09,0,0,1,2.16.67,2.44,2.44,0,0,1,.74,1.91,2.73,2.73,0,0,1-.71,2A2.92,2.92,0,0,1,209.61,207.38Z"/><path class="cls-7" d="M222.42,209.58a1.85,1.85,0,0,0-1.79,1.36,13.49,13.49,0,0,0-.54,4.53V217a9.44,9.44,0,0,0,.62,4,2.36,2.36,0,0,0,2.31,1.23,3.36,3.36,0,0,0,2.67-1.14,5.46,5.46,0,0,0,1.28-2.59l.52,0a5.71,5.71,0,0,1-2,3.53,6.63,6.63,0,0,1-4.07,1.11,6.78,6.78,0,0,1-5.06-1.78,7.07,7.07,0,0,1-1.77-5.21,6.84,6.84,0,0,1,2-5.28,8,8,0,0,1,5.59-1.85,6.43,6.43,0,0,1,3.87,1,2.92,2.92,0,0,1,1.34,2.46,3,3,0,0,1-.64,2.16,2.28,2.28,0,0,1-1.76.69,2.64,2.64,0,0,1-1.81-.6,2.21,2.21,0,0,1-.68-1.77,3.58,3.58,0,0,1,.14-1h.94a3.22,3.22,0,0,0,.2-1A1.21,1.21,0,0,0,222.42,209.58Z"/><path class="cls-7" d="M235,216.21h.83V214a14,14,0,0,0-.3-3.63,1.16,1.16,0,0,0-1.16-.93,1.63,1.63,0,0,0-.92.27.83.83,0,0,0-.41.74,2.74,2.74,0,0,0,.17,1H234a4,4,0,0,1,.23,1.43,1.87,1.87,0,0,1-.72,1.46,2.68,2.68,0,0,1-1.79.61,2.13,2.13,0,0,1-2.45-2.36c0-2.34,2-3.51,5.95-3.51,2.26,0,3.82.39,4.69,1.16s1.29,2.17,1.29,4.22v5.78c0,1,.28,1.48.83,1.48s1-1,1.14-2.93l.42,0a5.68,5.68,0,0,1-.94,3.44,3.41,3.41,0,0,1-2.7.94q-3.42,0-3.93-2.1a3.09,3.09,0,0,1-1.11,1.59,3.81,3.81,0,0,1-2.16.51c-2.81,0-4.22-1.14-4.22-3.44a2.8,2.8,0,0,1,1.61-2.78A12.29,12.29,0,0,1,235,216.21Zm-1,5.41a.59.59,0,0,0,.6.43c.29,0,.57-.25.82-.73a4.27,4.27,0,0,0,.39-2v-2.64h-.2c-1.18,0-1.77.86-1.77,2.59v.45A6.79,6.79,0,0,0,234.05,221.62Z"/><path class="cls-7" d="M243.71,201.55h7v20.84h1.59v.51h-8.45v-.51h1.56V202.06h-1.68Z"/><path class="cls-7" d="M146.13,251.37l-.32-2q-1,2.28-3.93,2.28a4.54,4.54,0,0,1-3.8-1.76,8.6,8.6,0,0,1-1.35-5.27q0-7.1,5.64-7.09c1.67,0,2.77.47,3.3,1.4v-8.4h-1.74V230h7.12v20.84h1.4v.51Zm-3.59-1.92a1.18,1.18,0,0,0,1.15,1,1.83,1.83,0,0,0,1.45-.74,3.38,3.38,0,0,0,.62-2.19v-6.21a4.08,4.08,0,0,0-.49-2.08,1.53,1.53,0,0,0-1.42-.85c-.63,0-1,.41-1.28,1.25a19,19,0,0,0-.34,4.38v1.48A16,16,0,0,0,142.54,249.45Z"/><path class="cls-7" d="M160,244.68h.82v-2.19a14.65,14.65,0,0,0-.29-3.63,1.16,1.16,0,0,0-1.16-.93,1.63,1.63,0,0,0-.92.27.84.84,0,0,0-.42.74,2.93,2.93,0,0,0,.17.95h.72a4.11,4.11,0,0,1,.22,1.44,1.83,1.83,0,0,1-.71,1.45,2.63,2.63,0,0,1-1.79.62,2.13,2.13,0,0,1-2.45-2.37q0-3.5,5.95-3.5c2.26,0,3.82.39,4.68,1.15s1.3,2.18,1.3,4.23v5.78c0,1,.27,1.48.83,1.48s1-1,1.13-2.93l.43,0a5.75,5.75,0,0,1-.94,3.44,3.41,3.41,0,0,1-2.7.94q-3.42,0-3.93-2.1a3.09,3.09,0,0,1-1.11,1.59,3.84,3.84,0,0,1-2.17.51c-2.8,0-4.21-1.15-4.21-3.44a2.79,2.79,0,0,1,1.61-2.78A12.29,12.29,0,0,1,160,244.68Zm-1,5.41a.58.58,0,0,0,.59.42c.3,0,.57-.24.83-.72a4.33,4.33,0,0,0,.38-2v-2.65h-.19c-1.18,0-1.77.87-1.77,2.59v.46A6.79,6.79,0,0,0,159,250.09Z"/><path class="cls-7" d="M168.87,237.82h6.86v2.62a4.73,4.73,0,0,1,1.4-2.11,4.3,4.3,0,0,1,2.84-.8q4.42,0,4.42,4.76v8.57H186v.51h-8v-.51h1.16V241.6a6.27,6.27,0,0,0-.23-2.2.81.81,0,0,0-.82-.5,2,2,0,0,0-1.61,1.19,5.75,5.75,0,0,0-.7,2.91v7.86H177v.51h-8.09v-.51h1.57V238.33h-1.57Z"/><path class="cls-7" d="M194.32,238a1.86,1.86,0,0,0-1.79,1.37,13.49,13.49,0,0,0-.54,4.53v1.48a9.63,9.63,0,0,0,.62,4,2.35,2.35,0,0,0,2.31,1.22,3.42,3.42,0,0,0,2.68-1.13,5.55,5.55,0,0,0,1.28-2.59l.51,0a5.74,5.74,0,0,1-2,3.53,6.67,6.67,0,0,1-4.07,1.11,6.82,6.82,0,0,1-5.07-1.78,7.07,7.07,0,0,1-1.77-5.21,6.84,6.84,0,0,1,2-5.28,8,8,0,0,1,5.59-1.85,6.56,6.56,0,0,1,3.88,1A3,3,0,0,1,199.3,241a3.08,3.08,0,0,1-.64,2.16,2.26,2.26,0,0,1-1.76.68,2.7,2.7,0,0,1-1.81-.59,2.25,2.25,0,0,1-.68-1.77,4,4,0,0,1,.14-1h.94a3.27,3.27,0,0,0,.2-1A1.21,1.21,0,0,0,194.32,238Z"/><path class="cls-7" d="M202.08,249.76a7.27,7.27,0,0,1-1.84-5.27,6.48,6.48,0,0,1,2.07-5.17,7.72,7.72,0,0,1,5.25-1.79q6.47,0,6.21,6.49h-8v1.11a9.7,9.7,0,0,0,.71,4.22,2.53,2.53,0,0,0,2.48,1.42q3.3,0,4.32-3.53l.52.08a5.87,5.87,0,0,1-2,3.19,6.63,6.63,0,0,1-4.23,1.14Q203.91,251.65,202.08,249.76Zm3.69-6.31h2.93v-1.39a12.06,12.06,0,0,0-.27-3.15,1.06,1.06,0,0,0-1.08-.84,1.27,1.27,0,0,0-1.2.9,8.62,8.62,0,0,0-.38,3.09Z"/><path class="cls-7" d="M141.06,320.13q-4.42,0-4.42,8.51v2.25a14.12,14.12,0,0,0,1.17,6.33,3.7,3.7,0,0,0,3.45,2.29q3.12,0,5.75-6.09h.51l-.2,6.35H147a1.61,1.61,0,0,0-.32-.44.56.56,0,0,0-.41-.13,17.54,17.54,0,0,0-2.06.44,15.45,15.45,0,0,1-3.65.44q-4.63,0-7.19-2.5t-2.54-7.53c0-3.35.88-5.94,2.66-7.76a9.53,9.53,0,0,1,7.16-2.73,13,13,0,0,1,3.4.44,14.43,14.43,0,0,0,1.95.44.61.61,0,0,0,.43-.13,1.62,1.62,0,0,0,.31-.44h.31l.23,6.18h-.51a17.06,17.06,0,0,0-2.64-4.4A4,4,0,0,0,141.06,320.13Z"/><path class="cls-7" d="M151.36,338.26a7.08,7.08,0,0,1-1.82-5.22,6.84,6.84,0,0,1,2-5.24A7.66,7.66,0,0,1,157,326a7.29,7.29,0,0,1,5.27,1.7,6.93,6.93,0,0,1,1.73,5.16q0,7.26-7.23,7.26A7.33,7.33,0,0,1,151.36,338.26Zm7.15-4.07v-2.42a19.35,19.35,0,0,0-.3-4c-.2-.84-.66-1.27-1.38-1.27a1.4,1.4,0,0,0-1,.36,2.21,2.21,0,0,0-.56,1.18,22,22,0,0,0-.25,3.9v2.22a20.82,20.82,0,0,0,.18,3.73,5.6,5.6,0,0,0,.39,1,1.2,1.2,0,0,0,1.22.68c.74,0,1.22-.43,1.45-1.28A19.69,19.69,0,0,0,158.51,334.19Z"/><path class="cls-7" d="M164.83,326.25h6.86v2.62a4.71,4.71,0,0,1,1.39-2.11,4.35,4.35,0,0,1,2.85-.8q4.41,0,4.41,4.76v8.56h1.6v.52h-8.06v-.52h1.17V330a6.54,6.54,0,0,0-.23-2.2.82.82,0,0,0-.83-.5,2,2,0,0,0-1.6,1.19,5.65,5.65,0,0,0-.7,2.91v7.85h1.22v.52h-8.08v-.52h1.56V326.76h-1.56Z"/><path class="cls-7" d="M183.59,335.73v-9H182v-.51h1.57v-3.68l5.29-1.31v5h3.7v.51h-3.7v9.59a5.34,5.34,0,0,0,.27,2,1.11,1.11,0,0,0,1.13.62,1.82,1.82,0,0,0,1.49-.85,4.9,4.9,0,0,0,.84-2.34l.49.06a5.55,5.55,0,0,1-1.26,3.12,4.31,4.31,0,0,1-3.38,1.15,5.94,5.94,0,0,1-3.62-.94C184,338.52,183.59,337.38,183.59,335.73Z"/><path class="cls-7" d="M195.36,338.19a7.23,7.23,0,0,1-1.84-5.27,6.48,6.48,0,0,1,2.07-5.17,7.72,7.72,0,0,1,5.25-1.79q6.47,0,6.21,6.49h-8v1.11a9.7,9.7,0,0,0,.71,4.22,2.53,2.53,0,0,0,2.48,1.42q3.3,0,4.32-3.53l.52.08a5.93,5.93,0,0,1-2,3.19,6.63,6.63,0,0,1-4.23,1.14Q197.2,340.08,195.36,338.19Zm3.69-6.31H202v-1.39a12.06,12.06,0,0,0-.27-3.15,1.06,1.06,0,0,0-1.08-.84,1.27,1.27,0,0,0-1.2.9,8.62,8.62,0,0,0-.38,3.09Z"/><path class="cls-7" d="M208.07,326.25h6.86v2.62a3.94,3.94,0,0,1,4.14-2.91A3.59,3.59,0,0,1,223,329a4,4,0,0,1,4.18-3.08q4.19,0,4.19,4.76v8.56h1.59v.52H225v-.52h1V330c0-1.44-.12-2.28-.37-2.53a.57.57,0,0,0-.45-.17c-.55,0-1,.37-1.45,1.11a5.66,5.66,0,0,0-.63,2.82v8h1v.52h-7.32v-.52h1V330c0-1.44-.12-2.28-.37-2.53a.57.57,0,0,0-.45-.17c-.53,0-1,.4-1.44,1.21a6,6,0,0,0-.64,2.89v7.85h1v.52h-7.89v-.52h1.57V326.76h-1.57Z"/><path class="cls-7" d="M240.15,326.25v2.24a4,4,0,0,1,3.93-2.53,4.51,4.51,0,0,1,3.8,1.77,8.74,8.74,0,0,1,1.35,5.35c0,2.39-.48,4.15-1.46,5.29a5.48,5.48,0,0,1-4.4,1.71,4.75,4.75,0,0,1-2.05-.34,2.79,2.79,0,0,1-1.11-1.05v7.37h3.67v.51H233.35v-.51h1.56v-19.3h-1.5v-.51Zm3.31,1.95c-.19-.68-.56-1-1.11-1a1.79,1.79,0,0,0-1.48,1.06,5.43,5.43,0,0,0-.66,2.86v5.21a4.18,4.18,0,0,0,.48,2.08,1.56,1.56,0,0,0,1.43.86c.62,0,1-.42,1.28-1.26a18.87,18.87,0,0,0,.34-4.38v-1.48A17.49,17.49,0,0,0,243.46,328.2Z"/><path class="cls-7" d="M252.14,338.26a7,7,0,0,1-1.82-5.22,6.84,6.84,0,0,1,2-5.24,7.65,7.65,0,0,1,5.48-1.84,7.25,7.25,0,0,1,5.26,1.7,6.89,6.89,0,0,1,1.74,5.16q0,7.26-7.23,7.26A7.31,7.31,0,0,1,252.14,338.26Zm7.14-4.07v-2.42a19.35,19.35,0,0,0-.3-4c-.19-.84-.65-1.27-1.38-1.27a1.44,1.44,0,0,0-1,.36A2.21,2.21,0,0,0,256,328a21.75,21.75,0,0,0-.26,3.9v2.22a19.44,19.44,0,0,0,.19,3.73,6.51,6.51,0,0,0,.38,1,1.23,1.23,0,0,0,1.23.68c.74,0,1.22-.43,1.45-1.28A20,20,0,0,0,259.28,334.19Z"/><path class="cls-7" d="M275.06,327c-.71,0-1.32.46-1.86,1.37a6.34,6.34,0,0,0-.79,3.25v7.62h2v.52h-8.88v-.52h1.56V326.76h-1.56v-.51h6.86V329a3.87,3.87,0,0,1,1.42-2.24,3.91,3.91,0,0,1,2.39-.78,3.11,3.11,0,0,1,2.18.76,2.71,2.71,0,0,1,.84,2.13,3.17,3.17,0,0,1-.63,2.12,2.34,2.34,0,0,1-1.92.74,2.16,2.16,0,0,1-1.9-.85,2.62,2.62,0,0,1-.16-2.37h1C276.13,327.53,275.93,327,275.06,327Z"/><path class="cls-7" d="M286,333.11h.83v-2.19a14,14,0,0,0-.3-3.63,1.15,1.15,0,0,0-1.15-.93,1.68,1.68,0,0,0-.93.27.85.85,0,0,0-.41.74,2.93,2.93,0,0,0,.17.95H285a4.1,4.1,0,0,1,.23,1.44,1.86,1.86,0,0,1-.71,1.45,2.66,2.66,0,0,1-1.8.62,2.12,2.12,0,0,1-2.44-2.37q0-3.49,5.95-3.5c2.25,0,3.82.39,4.68,1.15s1.3,2.18,1.3,4.23v5.78c0,1,.27,1.48.82,1.48s1-1,1.14-2.93l.43,0a5.75,5.75,0,0,1-.94,3.44,3.42,3.42,0,0,1-2.71.94q-3.42,0-3.93-2.1a3,3,0,0,1-1.11,1.59,3.79,3.79,0,0,1-2.16.51q-4.21,0-4.21-3.44a2.78,2.78,0,0,1,1.61-2.78A12.24,12.24,0,0,1,286,333.11Zm-1,5.41a.6.6,0,0,0,.6.42c.29,0,.57-.24.83-.72a4.47,4.47,0,0,0,.38-2v-2.65h-.2c-1.18,0-1.76.87-1.76,2.59v.46A7.38,7.38,0,0,0,285.06,338.52Z"/><path class="cls-7" d="M304.35,327a2.25,2.25,0,0,0-1.85,1.37,6.34,6.34,0,0,0-.8,3.25v7.62h2v.52h-8.88v-.52h1.57V326.76h-1.57v-.51h6.86V329a3.84,3.84,0,0,1,3.82-3,3.09,3.09,0,0,1,2.17.76,2.71,2.71,0,0,1,.84,2.13,3.17,3.17,0,0,1-.62,2.12,2.36,2.36,0,0,1-1.92.74,2.18,2.18,0,0,1-1.91-.85,2.65,2.65,0,0,1-.16-2.37h1C305.42,327.53,305.22,327,304.35,327Z"/><path class="cls-7" d="M308.36,326.76v-.51h8.26v.51h-1.54l3.1,9.45,3.31-9.45h-1.91v-.51h4v.51h-1.42l-5.32,15.34a9.33,9.33,0,0,1-2.11,3.75,4.08,4.08,0,0,1-2.85,1.06,4.13,4.13,0,0,1-2.64-.76,2.41,2.41,0,0,1-1-2,2.49,2.49,0,0,1,.62-1.82,2.24,2.24,0,0,1,1.66-.63c1.57,0,2.36.66,2.36,2a4,4,0,0,1-.17,1h-1a1.58,1.58,0,0,0-.06,1.08.73.73,0,0,0,.77.43,2.62,2.62,0,0,0,2.08-1.15,12.31,12.31,0,0,0,1.74-3.52l.62-1.76h-2.5l-4.87-13Z"/><path class="cls-7" d="M139.63,368.27l-.31-2a3.84,3.84,0,0,1-3.93,2.28,4.51,4.51,0,0,1-3.8-1.77,8.57,8.57,0,0,1-1.35-5.26q0-7.09,5.64-7.09c1.67,0,2.77.46,3.3,1.39v-8.39h-1.74v-.52h7.12v20.84H146v.52Zm-3.58-1.93a1.18,1.18,0,0,0,1.15,1,1.84,1.84,0,0,0,1.45-.74,3.39,3.39,0,0,0,.61-2.2v-6.2a4.18,4.18,0,0,0-.48-2.08,1.54,1.54,0,0,0-1.42-.85c-.63,0-1.06.41-1.29,1.25a19.46,19.46,0,0,0-.34,4.38v1.48A15.67,15.67,0,0,0,136.05,366.34Z"/><path class="cls-7" d="M153.52,361.58h.83v-2.2a14.13,14.13,0,0,0-.3-3.63,1.15,1.15,0,0,0-1.15-.92,1.68,1.68,0,0,0-.93.27.85.85,0,0,0-.41.74,2.93,2.93,0,0,0,.17,1h.71a4.1,4.1,0,0,1,.23,1.44,1.87,1.87,0,0,1-.71,1.45,2.64,2.64,0,0,1-1.79.61c-1.64,0-2.45-.78-2.45-2.36q0-3.49,5.95-3.5c2.26,0,3.82.38,4.68,1.15s1.3,2.18,1.3,4.23v5.78c0,1,.27,1.48.82,1.48s1-1,1.14-2.93l.43,0a5.77,5.77,0,0,1-.94,3.44,3.42,3.42,0,0,1-2.71.94q-3.4,0-3.93-2.11a3,3,0,0,1-1.11,1.6,3.79,3.79,0,0,1-2.16.51q-4.22,0-4.21-3.44a2.78,2.78,0,0,1,1.61-2.78A12.24,12.24,0,0,1,153.52,361.58Zm-1,5.4a.6.6,0,0,0,.6.43c.29,0,.57-.24.83-.72a4.47,4.47,0,0,0,.38-2V362h-.2c-1.18,0-1.76.86-1.76,2.59v.46A7.28,7.28,0,0,0,152.54,367Z"/><path class="cls-7" d="M162.38,354.71h6.86v2.62a4.73,4.73,0,0,1,1.39-2.1,4.35,4.35,0,0,1,2.85-.8q4.41,0,4.41,4.75v8.57h1.6v.52h-8.06v-.52h1.17V358.5a6.65,6.65,0,0,0-.23-2.21.82.82,0,0,0-.82-.49,1.93,1.93,0,0,0-1.61,1.19,5.65,5.65,0,0,0-.7,2.91v7.85h1.22v.52h-8.08v-.52h1.56V355.23h-1.56Z"/><path class="cls-7" d="M187.83,354.94a1.86,1.86,0,0,0-1.79,1.37,13.15,13.15,0,0,0-.55,4.52v1.49a9.47,9.47,0,0,0,.63,4,2.37,2.37,0,0,0,2.31,1.22,3.36,3.36,0,0,0,2.67-1.14,5.41,5.41,0,0,0,1.28-2.59l.52.06a5.74,5.74,0,0,1-2,3.53,6.63,6.63,0,0,1-4.07,1.11,6.78,6.78,0,0,1-5.06-1.78,7.08,7.08,0,0,1-1.77-5.21,6.81,6.81,0,0,1,2-5.28,8,8,0,0,1,5.59-1.85,6.5,6.5,0,0,1,3.87,1,3,3,0,0,1,1.34,2.46,3.09,3.09,0,0,1-.64,2.17,2.31,2.31,0,0,1-1.76.68,2.64,2.64,0,0,1-1.81-.6,2.2,2.2,0,0,1-.69-1.76,3.72,3.72,0,0,1,.15-1H189a3.21,3.21,0,0,0,.2-1A1.21,1.21,0,0,0,187.83,354.94Z"/><path class="cls-7" d="M195.59,366.66a7.24,7.24,0,0,1-1.84-5.27,6.5,6.5,0,0,1,2.06-5.17,7.76,7.76,0,0,1,5.26-1.79q6.45,0,6.2,6.49h-8V362a9.6,9.6,0,0,0,.72,4.21,2.53,2.53,0,0,0,2.47,1.43c2.2,0,3.65-1.18,4.33-3.53l.51.08a5.87,5.87,0,0,1-2,3.19,6.62,6.62,0,0,1-4.22,1.14Q197.43,368.55,195.59,366.66Zm3.68-6.31h2.94V359a12.53,12.53,0,0,0-.27-3.15,1.08,1.08,0,0,0-1.09-.84,1.25,1.25,0,0,0-1.19.9,8.53,8.53,0,0,0-.39,3.09Z"/><polygon class="cls-8" points="1071.76 72.82 1070.84 94.18 1087.91 107.04 1067.31 112.77 1060.35 132.98 1048.55 115.16 1027.17 114.78 1040.47 98.05 1034.22 77.6 1054.25 85.08 1071.76 72.82"/><polygon class="cls-9" points="1082.4 201.42 1076.08 221.84 1089.32 238.62 1067.94 238.92 1056.07 256.7 1049.18 236.46 1028.61 230.67 1045.73 217.86 1044.88 196.5 1062.35 208.82 1082.4 201.42"/><polygon class="cls-10" points="1087.7 342.71 1069.14 353.31 1067.35 374.61 1051.53 360.23 1030.72 365.11 1039.5 345.63 1028.43 327.34 1049.68 329.67 1063.65 313.49 1068 334.42 1087.7 342.71"/><path class="cls-7" d="M1108.71,94.73h14.81l.28,5.92h-.51a9.16,9.16,0,0,0-2.43-4.19,6.51,6.51,0,0,0-4.12-1.11h-.8v9.26h1.29a3,3,0,0,0,2.27-1,5.51,5.51,0,0,0,1.26-2.73h.42v8.42h-.48a6.68,6.68,0,0,0-1.27-3,2.78,2.78,0,0,0-2.2-.91h-1.29V114h3.53v.63h-10.76V114h1.68V95.35h-1.68Z"/><path class="cls-7" d="M1125.88,113.12a7.07,7.07,0,0,1-1.82-5.23,6.83,6.83,0,0,1,2-5.23,7.65,7.65,0,0,1,5.48-1.84c2.35,0,4.11.56,5.26,1.69a6.93,6.93,0,0,1,1.74,5.17q0,7.26-7.23,7.26A7.31,7.31,0,0,1,1125.88,113.12Zm7.15-4.07v-2.42a19.28,19.28,0,0,0-.3-4c-.2-.84-.66-1.27-1.38-1.27a1.4,1.4,0,0,0-1,.36,2.14,2.14,0,0,0-.56,1.18,21.59,21.59,0,0,0-.26,3.9V109a20.38,20.38,0,0,0,.19,3.73,6,6,0,0,0,.38,1,1.22,1.22,0,0,0,1.23.69c.74,0,1.22-.43,1.45-1.28A19.69,19.69,0,0,0,1133,109.05Z"/><path class="cls-7" d="M1139.17,93.3h7v20.84h1.59v.52h-8.45v-.52h1.56V93.82h-1.68Z"/><path class="cls-7" d="M1157.59,114.66v-.52h1.31l-3.21-6.6-.55.14v6.46h1.31v.52h-8.17v-.52h1.57V93.82h-1.68V93.3h7v13.81l.46-.17,6.41-5.32h-2.68v-.52h5.61v.52h-2l-3.39,2.87,4.92,9.65h1v.52Z"/><path class="cls-7" d="M1180.74,114.66l-.31-2a3.84,3.84,0,0,1-3.93,2.28,4.51,4.51,0,0,1-3.8-1.76,8.55,8.55,0,0,1-1.36-5.27q0-7.09,5.64-7.09c1.67,0,2.77.47,3.3,1.39V93.82h-1.73V93.3h7.11v20.84h1.4v.52Zm-3.59-1.93c.21.66.59,1,1.15,1a1.86,1.86,0,0,0,1.46-.74,3.45,3.45,0,0,0,.61-2.2v-6.2a4.08,4.08,0,0,0-.49-2.08,1.53,1.53,0,0,0-1.42-.85c-.63,0-1,.41-1.28,1.25a18.87,18.87,0,0,0-.34,4.38v1.48A15.82,15.82,0,0,0,1177.15,112.73Z"/><path class="cls-7" d="M1194.63,108h.83v-2.2a14.13,14.13,0,0,0-.3-3.63,1.16,1.16,0,0,0-1.16-.92,1.63,1.63,0,0,0-.92.27.83.83,0,0,0-.41.74,2.69,2.69,0,0,0,.17,1h.71a4.1,4.1,0,0,1,.23,1.44,1.85,1.85,0,0,1-.72,1.45,2.63,2.63,0,0,1-1.79.61c-1.63,0-2.45-.78-2.45-2.36,0-2.33,2-3.5,6-3.5,2.26,0,3.82.38,4.69,1.15s1.29,2.18,1.29,4.23V112c0,1,.28,1.48.83,1.48s1-1,1.14-2.93l.42,0a5.7,5.7,0,0,1-.94,3.44,3.41,3.41,0,0,1-2.7.94q-3.42,0-3.93-2.11a3.12,3.12,0,0,1-1.11,1.6,3.81,3.81,0,0,1-2.16.51q-4.21,0-4.22-3.44a2.79,2.79,0,0,1,1.61-2.78A12.29,12.29,0,0,1,1194.63,108Zm-1,5.4a.58.58,0,0,0,.6.43c.29,0,.57-.24.82-.72a4.32,4.32,0,0,0,.39-2v-2.65h-.2c-1.18,0-1.77.87-1.77,2.59v.46A6.71,6.71,0,0,0,1193.65,113.37Z"/><path class="cls-7" d="M1203.48,101.1h6.87v2.62a4.65,4.65,0,0,1,1.39-2.1,4.35,4.35,0,0,1,2.85-.8q4.41,0,4.41,4.75v8.57h1.59v.52h-8v-.52h1.16v-9.25a6.74,6.74,0,0,0-.22-2.21.84.84,0,0,0-.83-.49c-.61,0-1.14.4-1.61,1.19a5.75,5.75,0,0,0-.69,2.91v7.85h1.22v.52h-8.09v-.52h1.57V101.62h-1.57Z"/><path class="cls-7" d="M1228.93,101.33a1.86,1.86,0,0,0-1.79,1.37,13.47,13.47,0,0,0-.54,4.52v1.49a9.47,9.47,0,0,0,.63,4,2.34,2.34,0,0,0,2.3,1.22,3.39,3.39,0,0,0,2.68-1.14,5.5,5.5,0,0,0,1.28-2.59l.51.06a5.74,5.74,0,0,1-2,3.53,6.65,6.65,0,0,1-4.07,1.11,6.82,6.82,0,0,1-5.07-1.78,7.08,7.08,0,0,1-1.76-5.21,6.84,6.84,0,0,1,2-5.28,8,8,0,0,1,5.6-1.85,6.5,6.5,0,0,1,3.87,1,3,3,0,0,1,1.34,2.46,3.14,3.14,0,0,1-.64,2.17,2.34,2.34,0,0,1-1.77.68,2.65,2.65,0,0,1-1.81-.6,2.22,2.22,0,0,1-.68-1.76,4.12,4.12,0,0,1,.14-1h.94a3.21,3.21,0,0,0,.2-1A1.21,1.21,0,0,0,1228.93,101.33Z"/><path class="cls-7" d="M1236.69,113.05a7.27,7.27,0,0,1-1.83-5.27,6.47,6.47,0,0,1,2.06-5.17,7.76,7.76,0,0,1,5.25-1.79q6.46,0,6.21,6.49h-8v1.11a9.8,9.8,0,0,0,.71,4.21,2.55,2.55,0,0,0,2.48,1.43q3.3,0,4.33-3.53l.51.08a5.87,5.87,0,0,1-2,3.19,6.63,6.63,0,0,1-4.23,1.14A7.36,7.36,0,0,1,1236.69,113.05Zm3.69-6.31h2.93v-1.39a12.06,12.06,0,0,0-.27-3.15,1.06,1.06,0,0,0-1.08-.84,1.27,1.27,0,0,0-1.2.9,8.82,8.82,0,0,0-.38,3.09Z"/><path class="cls-7" d="M1103,202.7h8.68v.54h-1.56v18.85h1.56v.54H1103v-.54h1.57V203.24H1103Z"/><path class="cls-7" d="M1112.71,209.08h6.86v2.62a3.94,3.94,0,0,1,4.14-2.91,3.59,3.59,0,0,1,3.89,3.08,4,4,0,0,1,4.18-3.08q4.18,0,4.19,4.76v8.57h1.59v.51h-7.88v-.51h1v-9.26c0-1.44-.12-2.28-.37-2.53a.61.61,0,0,0-.45-.17c-.55,0-1,.37-1.46,1.11a5.77,5.77,0,0,0-.62,2.82v8h1v.51h-7.31v-.51h1v-9.26c0-1.44-.12-2.28-.37-2.53a.61.61,0,0,0-.45-.17c-.53,0-1,.4-1.44,1.21a6.07,6.07,0,0,0-.64,2.89v7.86h1v.51h-7.88v-.51h1.56V209.59h-1.56Z"/><path class="cls-7" d="M1138,209.08h6.86v2.62a3.94,3.94,0,0,1,4.14-2.91,3.59,3.59,0,0,1,3.89,3.08,4,4,0,0,1,4.18-3.08q4.18,0,4.19,4.76v8.57h1.59v.51H1155v-.51h1v-9.26c0-1.44-.12-2.28-.37-2.53a.63.63,0,0,0-.45-.17c-.56,0-1,.37-1.46,1.11a5.77,5.77,0,0,0-.62,2.82v8h1v.51h-7.31v-.51h1v-9.26c0-1.44-.12-2.28-.37-2.53a.61.61,0,0,0-.45-.17c-.53,0-1,.4-1.44,1.21a6.07,6.07,0,0,0-.64,2.89v7.86h1v.51H1138v-.51h1.56V209.59H1138Z"/><path class="cls-7" d="M1165.25,221a7.23,7.23,0,0,1-1.84-5.27,6.47,6.47,0,0,1,2.06-5.16,7.72,7.72,0,0,1,5.26-1.8q6.45,0,6.2,6.49h-8v1.11a9.68,9.68,0,0,0,.72,4.22,2.53,2.53,0,0,0,2.47,1.42c2.2,0,3.65-1.18,4.33-3.53l.51.09a5.85,5.85,0,0,1-2,3.18,6.63,6.63,0,0,1-4.23,1.14A7.34,7.34,0,0,1,1165.25,221Zm3.68-6.31h2.93v-1.39a12.06,12.06,0,0,0-.27-3.15,1.06,1.06,0,0,0-1.08-.84,1.25,1.25,0,0,0-1.19.9,8.57,8.57,0,0,0-.39,3.09Z"/><path class="cls-7" d="M1187.46,209.88c-.7,0-1.31.45-1.85,1.36a6.34,6.34,0,0,0-.79,3.25v7.63h2v.51H1178v-.51h1.56V209.59H1178v-.51h6.86v2.73a3.81,3.81,0,0,1,1.42-2.23,3.86,3.86,0,0,1,2.39-.79,3.11,3.11,0,0,1,2.18.76,2.71,2.71,0,0,1,.84,2.13,3.17,3.17,0,0,1-.63,2.12,2.34,2.34,0,0,1-1.92.74,2.19,2.19,0,0,1-1.91-.85,2.64,2.64,0,0,1-.15-2.36h1C1188.54,210.36,1188.34,209.88,1187.46,209.88Z"/><path class="cls-7" d="M1192.36,222.91v-5.09h.34a6.82,6.82,0,0,0,2,3.47,4.81,4.81,0,0,0,3.13,1c1.93,0,2.9-.62,2.9-1.85a1.31,1.31,0,0,0-.71-1.2,9.58,9.58,0,0,0-2.85-1,11,11,0,0,1-3.24-1.36,3.6,3.6,0,0,1-1.57-3.25,4.7,4.7,0,0,1,1.37-3.54,5,5,0,0,1,3.64-1.33,7.07,7.07,0,0,1,2.88.66,2.39,2.39,0,0,0,.82.23.7.7,0,0,0,.49-.2,3.62,3.62,0,0,0,.48-.74h.31v4.35H1202c-1-2.46-2.47-3.7-4.5-3.7a3.46,3.46,0,0,0-2,.47,1.39,1.39,0,0,0-.65,1.18,1,1,0,0,0,.2.67c.13.16.23.28.31.36a1.69,1.69,0,0,0,.37.24l.43.2a4.83,4.83,0,0,0,.52.18,4.37,4.37,0,0,0,.53.15,20.91,20.91,0,0,1,2.79.84,9,9,0,0,1,1.62.86,3.94,3.94,0,0,1,1.57,3.49,4.58,4.58,0,0,1-1.43,3.65,5.74,5.74,0,0,1-3.9,1.23,7.54,7.54,0,0,1-3.41-.82,1.14,1.14,0,0,0-.54-.23q-.63,0-1.23,1Z"/><path class="cls-7" d="M1204,209.08h7v13h1.6v.51h-8.46v-.51h1.57V209.59H1204Zm4.3-2a2.62,2.62,0,0,1-2.15-.77,2.84,2.84,0,0,1-.64-1.9,2.64,2.64,0,0,1,.69-1.88,2.82,2.82,0,0,1,2.12-.74,3.13,3.13,0,0,1,2.17.67,2.43,2.43,0,0,1,.74,1.9,2.74,2.74,0,0,1-.71,2A3,3,0,0,1,1208.25,207.11Z"/><path class="cls-7" d="M1212,209.59v-.51h8.51v.51h-1.79l3.41,9.45,3.08-9.45h-1.91v-.51h3.84v.51h-1.25l-4.21,13h-3.25l-5.27-13Z"/><path class="cls-7" d="M1228.64,221a7.27,7.27,0,0,1-1.83-5.27,6.47,6.47,0,0,1,2.06-5.16,7.71,7.71,0,0,1,5.25-1.8q6.47,0,6.21,6.49h-8v1.11a9.85,9.85,0,0,0,.71,4.22,2.54,2.54,0,0,0,2.48,1.42q3.3,0,4.33-3.53l.51.09a5.85,5.85,0,0,1-1.95,3.18,6.63,6.63,0,0,1-4.23,1.14A7.36,7.36,0,0,1,1228.64,221Zm3.69-6.31h2.93v-1.39a12.06,12.06,0,0,0-.27-3.15,1.06,1.06,0,0,0-1.08-.84,1.27,1.27,0,0,0-1.2.9,8.86,8.86,0,0,0-.38,3.09Z"/><path class="cls-7" d="M1104,247v-9h-1.57v-.51H1104v-3.68l5.29-1.31v5h3.7v.51h-3.7v9.59a5.34,5.34,0,0,0,.27,2,1.11,1.11,0,0,0,1.13.62,1.85,1.85,0,0,0,1.49-.85,4.9,4.9,0,0,0,.84-2.34l.48.06a5.54,5.54,0,0,1-1.25,3.12,4.32,4.32,0,0,1-3.39,1.15,5.91,5.91,0,0,1-3.61-.94C1104.44,249.82,1104,248.68,1104,247Z"/><path class="cls-7" d="M1113.82,229.75h6.86v10.42a4.71,4.71,0,0,1,1.39-2.11,4.35,4.35,0,0,1,2.85-.8q4.41,0,4.41,4.76v8.56h1.6v.52h-8.06v-.52H1124v-9.25a6.54,6.54,0,0,0-.23-2.2.82.82,0,0,0-.83-.5,2,2,0,0,0-1.6,1.19,5.65,5.65,0,0,0-.7,2.91v7.85h1.22v.52h-8.08v-.52h1.56V230.26h-1.56Z"/><path class="cls-7" d="M1133.33,249.49a7.27,7.27,0,0,1-1.83-5.27,6.47,6.47,0,0,1,2.06-5.17,7.76,7.76,0,0,1,5.25-1.79q6.46,0,6.21,6.49h-8v1.11a9.85,9.85,0,0,0,.71,4.22,2.54,2.54,0,0,0,2.48,1.42q3.3,0,4.33-3.53l.51.08a5.87,5.87,0,0,1-2,3.19,6.63,6.63,0,0,1-4.23,1.14A7.36,7.36,0,0,1,1133.33,249.49Zm3.69-6.31H1140v-1.39a12.06,12.06,0,0,0-.27-3.15,1.06,1.06,0,0,0-1.08-.84,1.27,1.27,0,0,0-1.2.9,8.86,8.86,0,0,0-.38,3.09Z"/><path class="cls-7" d="M1152.88,244.41h.82v-2.19a14,14,0,0,0-.3-3.63,1.15,1.15,0,0,0-1.15-.93,1.63,1.63,0,0,0-.92.27.84.84,0,0,0-.42.74,2.93,2.93,0,0,0,.17,1h.71a3.89,3.89,0,0,1,.23,1.44,1.86,1.86,0,0,1-.71,1.45,2.63,2.63,0,0,1-1.79.62c-1.64,0-2.45-.79-2.45-2.37q0-3.49,6-3.5c2.26,0,3.82.39,4.68,1.15s1.3,2.18,1.3,4.23v5.78c0,1,.27,1.48.82,1.48s1-1,1.14-2.93l.43,0a5.75,5.75,0,0,1-.94,3.44,3.42,3.42,0,0,1-2.71.94q-3.4,0-3.92-2.11a3.08,3.08,0,0,1-1.11,1.6,3.84,3.84,0,0,1-2.17.51q-4.21,0-4.21-3.44a2.78,2.78,0,0,1,1.61-2.78A12.29,12.29,0,0,1,1152.88,244.41Zm-1,5.41a.6.6,0,0,0,.6.42c.3,0,.57-.24.83-.72a4.47,4.47,0,0,0,.38-2v-2.65h-.2c-1.17,0-1.76.87-1.76,2.59v.46A7.38,7.38,0,0,0,1151.89,249.82Z"/><path class="cls-7" d="M1162.67,247v-9h-1.57v-.51h1.57v-3.68l5.29-1.31v5h3.71v.51H1168v9.59a5.34,5.34,0,0,0,.27,2,1.12,1.12,0,0,0,1.13.62,1.82,1.82,0,0,0,1.49-.85,4.9,4.9,0,0,0,.84-2.34l.49.06a5.54,5.54,0,0,1-1.25,3.12,4.35,4.35,0,0,1-3.39,1.15,5.94,5.94,0,0,1-3.62-.94C1163.09,249.82,1162.67,248.68,1162.67,247Z"/><path class="cls-7" d="M1182,238.34a2.25,2.25,0,0,0-1.85,1.37,6.34,6.34,0,0,0-.8,3.25v7.62h2v.52h-8.88v-.52H1174V238.06h-1.57v-.51h6.86v2.73a3.84,3.84,0,0,1,3.82-3,3.11,3.11,0,0,1,2.18.76,2.71,2.71,0,0,1,.84,2.13,3.17,3.17,0,0,1-.63,2.12,2.36,2.36,0,0,1-1.92.74,2.18,2.18,0,0,1-1.91-.85,2.65,2.65,0,0,1-.16-2.37h1C1183,238.83,1182.84,238.34,1182,238.34Z"/><path class="cls-7" d="M1188.39,249.49a7.27,7.27,0,0,1-1.84-5.27,6.48,6.48,0,0,1,2.07-5.17,7.74,7.74,0,0,1,5.25-1.79q6.47,0,6.21,6.49h-8v1.11a9.85,9.85,0,0,0,.71,4.22,2.53,2.53,0,0,0,2.48,1.42q3.3,0,4.32-3.53l.52.08a5.87,5.87,0,0,1-1.95,3.19,6.63,6.63,0,0,1-4.23,1.14Q1190.22,251.38,1188.39,249.49Zm3.69-6.31H1195v-1.39a12.06,12.06,0,0,0-.27-3.15,1.06,1.06,0,0,0-1.08-.84,1.27,1.27,0,0,0-1.2.9,8.86,8.86,0,0,0-.38,3.09Z"/><path class="cls-7" d="M1117.05,334.66h7.6v.54h-1.56v18.85h1.56v.54H1116v-.54h1.56v-17.8h-.11l-4.27,18.34h-3.56l-5-18.42h-.11v17.88H1106v.54h-3.87v-.54h1.57V335.2h-1.57v-.54h7.69l3.78,14.66Z"/><path class="cls-7" d="M1125.53,341h7v13h1.59v.52h-8.45v-.52h1.56V341.55h-1.68Zm4.3-2a2.68,2.68,0,0,1-2.15-.77,2.92,2.92,0,0,1-.64-1.91,2.64,2.64,0,0,1,.7-1.87,2.76,2.76,0,0,1,2.12-.74,3.14,3.14,0,0,1,2.16.66,2.44,2.44,0,0,1,.74,1.91,2.7,2.7,0,0,1-.71,2A3,3,0,0,1,1129.83,339.07Z"/><path class="cls-7" d="M1144.55,346.19l3.36-4.64h-2.05V341h4.24v.51h-1.48l-3.7,5.24,4.64,7.28H1151v.52h-9.51v-.52h2l-3.13-5.12-3.24,5.12h1.88v.52h-4.47v-.52h1.88l3.61-5.69-4.33-6.83h-1.65V341h9.62v.51h-2Z"/><path class="cls-7" d="M1152.31,353a7.23,7.23,0,0,1-1.84-5.27,6.48,6.48,0,0,1,2.07-5.17,7.72,7.72,0,0,1,5.25-1.79q6.46,0,6.2,6.49h-8v1.11a9.7,9.7,0,0,0,.71,4.22,2.54,2.54,0,0,0,2.47,1.42q3.31,0,4.33-3.53l.51.08a5.87,5.87,0,0,1-2,3.19,6.6,6.6,0,0,1-4.22,1.14Q1154.15,354.87,1152.31,353Zm3.68-6.31h2.94v-1.39a12.06,12.06,0,0,0-.27-3.15,1.07,1.07,0,0,0-1.09-.84,1.26,1.26,0,0,0-1.19.9,8.57,8.57,0,0,0-.39,3.09Z"/><path class="cls-7" d="M1174.7,354.59l-.32-2q-1,2.28-3.92,2.28a4.51,4.51,0,0,1-3.8-1.76,8.55,8.55,0,0,1-1.36-5.27q0-7.09,5.64-7.09c1.67,0,2.77.47,3.3,1.4v-8.4h-1.73v-.51h7.11v20.83h1.4v.52Zm-3.59-1.93c.21.66.59,1,1.15,1a1.86,1.86,0,0,0,1.46-.74,3.45,3.45,0,0,0,.61-2.2v-6.2a4.08,4.08,0,0,0-.49-2.08,1.53,1.53,0,0,0-1.42-.85c-.63,0-1.05.41-1.28,1.25a18.93,18.93,0,0,0-.34,4.38v1.48A15.82,15.82,0,0,0,1171.11,352.66Z"/><path class="cls-7" d="M1186.88,341h6.86v2.61a4,4,0,0,1,4.15-2.9,3.58,3.58,0,0,1,3.88,3.08,4,4,0,0,1,4.19-3.08c2.79,0,4.18,1.59,4.18,4.75v8.57h1.59v.52h-7.88v-.52h1v-9.25a4.79,4.79,0,0,0-.37-2.53.61.61,0,0,0-.46-.17c-.55,0-1,.37-1.45,1.11a5.66,5.66,0,0,0-.63,2.82v8h1v.52h-7.32v-.52h1v-9.25a4.79,4.79,0,0,0-.37-2.53.61.61,0,0,0-.46-.17c-.53,0-1,.4-1.44,1.21a6.17,6.17,0,0,0-.64,2.89v7.85h1v.52h-7.89v-.52h1.57V341.55h-1.57Z"/><path class="cls-7" d="M1214.14,353a7.27,7.27,0,0,1-1.84-5.27,6.48,6.48,0,0,1,2.07-5.17,7.74,7.74,0,0,1,5.25-1.79q6.47,0,6.21,6.49h-8v1.11a9.85,9.85,0,0,0,.71,4.22A2.55,2.55,0,0,0,1221,354q3.3,0,4.32-3.53l.52.08a5.87,5.87,0,0,1-1.95,3.19,6.63,6.63,0,0,1-4.23,1.14Q1216,354.87,1214.14,353Zm3.69-6.31h2.93v-1.39a12.06,12.06,0,0,0-.27-3.15,1.06,1.06,0,0,0-1.08-.84,1.27,1.27,0,0,0-1.2.9,8.86,8.86,0,0,0-.38,3.09Z"/><path class="cls-7" d="M1236.53,354.59l-.31-2a3.84,3.84,0,0,1-3.93,2.28,4.52,4.52,0,0,1-3.8-1.76,8.62,8.62,0,0,1-1.35-5.27q0-7.09,5.63-7.09c1.67,0,2.77.47,3.3,1.4v-8.4h-1.73v-.51h7.12v20.83h1.39v.52Zm-3.59-1.93a1.19,1.19,0,0,0,1.16,1,1.84,1.84,0,0,0,1.45-.74,3.39,3.39,0,0,0,.61-2.2v-6.2a4.18,4.18,0,0,0-.48-2.08,1.55,1.55,0,0,0-1.43-.85c-.62,0-1,.41-1.28,1.25a18.93,18.93,0,0,0-.34,4.38v1.48A15.82,15.82,0,0,0,1232.94,352.66Z"/><path class="cls-7" d="M1243.48,341h7v13h1.6v.52h-8.46v-.52h1.57V341.55h-1.68Zm4.29-2a2.64,2.64,0,0,1-2.14-.77,2.87,2.87,0,0,1-.65-1.91,2.64,2.64,0,0,1,.7-1.87,2.76,2.76,0,0,1,2.12-.74,3.18,3.18,0,0,1,2.17.66,2.47,2.47,0,0,1,.74,1.91,2.74,2.74,0,0,1-.71,2A3,3,0,0,1,1247.77,339.07Z"/><path class="cls-7" d="M1259.45,347.9h.82v-2.2a14.13,14.13,0,0,0-.3-3.63,1.15,1.15,0,0,0-1.15-.92,1.63,1.63,0,0,0-.92.27.84.84,0,0,0-.42.74,2.93,2.93,0,0,0,.17.95h.72a4.11,4.11,0,0,1,.22,1.44,1.83,1.83,0,0,1-.71,1.45,2.63,2.63,0,0,1-1.79.62,2.13,2.13,0,0,1-2.45-2.37q0-3.5,5.95-3.5c2.26,0,3.82.38,4.68,1.15s1.3,2.18,1.3,4.23v5.78c0,1,.27,1.48.82,1.48s1-1,1.14-2.93l.43,0a5.75,5.75,0,0,1-.94,3.44,3.42,3.42,0,0,1-2.71.94q-3.4,0-3.92-2.11a3.08,3.08,0,0,1-1.11,1.6,3.84,3.84,0,0,1-2.17.51q-4.21,0-4.21-3.44a2.79,2.79,0,0,1,1.61-2.78A12.29,12.29,0,0,1,1259.45,347.9Zm-1,5.41a.6.6,0,0,0,.6.42c.3,0,.57-.24.83-.72a4.47,4.47,0,0,0,.38-2v-2.65h-.2c-1.17,0-1.76.87-1.76,2.59v.46A7.43,7.43,0,0,0,1258.46,353.31Z"/><polygon class="cls-11" points="1390.88 72.82 1389.95 94.18 1407.03 107.04 1386.43 112.77 1379.47 132.98 1367.66 115.16 1346.29 114.78 1359.59 98.05 1353.34 77.6 1373.36 85.08 1390.88 72.82"/><polygon class="cls-12" points="1385.34 201.42 1379.02 221.84 1392.26 238.62 1370.88 238.92 1359.01 256.7 1352.12 236.46 1331.55 230.67 1348.66 217.86 1347.82 196.5 1365.29 208.82 1385.34 201.42"/><polygon class="cls-13" points="1407.37 342.71 1388.81 353.31 1387.02 374.61 1371.2 360.23 1350.39 365.11 1359.17 345.63 1348.1 327.34 1369.35 329.67 1383.32 313.49 1387.67 334.42 1407.37 342.71"/><path class="cls-7" d="M1432.79,93.5h7.6V94h-1.56v18.85h1.56v.54h-8.68v-.54h1.57V95.1h-.12l-4.27,18.33h-3.56l-5-18.42h-.11v17.88h1.57v.54h-3.88v-.54h1.57V94h-1.57V93.5h7.69l3.79,14.66Z"/><path class="cls-7" d="M1457.76,113.43h-6.49l-.31-2.08a3.72,3.72,0,0,1-1.36,1.75,4.69,4.69,0,0,1-2.66.62q-4.41,0-4.41-4.76v-8.57h-1.59v-.51h6.88v9.76a6.58,6.58,0,0,0,.25,2.25.94.94,0,0,0,1,.54,1.58,1.58,0,0,0,1.3-.88,4.49,4.49,0,0,0,.57-2.45v-8.71h-1.31v-.51h6.6v13h1.57Z"/><path class="cls-7" d="M1458.22,92.08h7v20.84h1.59v.51h-8.45v-.51h1.56V92.59h-1.67Z"/><path class="cls-7" d="M1468.75,109.36v-9h-1.57v-.51h1.57V96.21L1474,94.9v5h3.7v.51H1474V110a5.28,5.28,0,0,0,.27,2,1.1,1.1,0,0,0,1.13.63,1.83,1.83,0,0,0,1.49-.86,4.86,4.86,0,0,0,.84-2.33l.49.06a5.51,5.51,0,0,1-1.26,3.11,4.32,4.32,0,0,1-3.38,1.16,6,6,0,0,1-3.62-.94C1469.17,112.15,1468.75,111,1468.75,109.36Z"/><path class="cls-7" d="M1478.43,99.88h7v13h1.6v.51h-8.46v-.51h1.57V100.39h-1.68Zm4.3-2a2.65,2.65,0,0,1-2.15-.77,2.88,2.88,0,0,1-.64-1.91,2.64,2.64,0,0,1,.69-1.88,2.82,2.82,0,0,1,2.12-.74,3.13,3.13,0,0,1,2.17.67,2.46,2.46,0,0,1,.74,1.91,2.78,2.78,0,0,1-.71,2A3,3,0,0,1,1482.73,97.92Z"/><path class="cls-7" d="M1487.56,99.88h6.87v2.62a3.92,3.92,0,0,1,4.14-2.9,3.58,3.58,0,0,1,3.88,3.07,4,4,0,0,1,4.19-3.07q4.18,0,4.18,4.75v8.57h1.6v.51h-7.89v-.51h1v-9.25a4.84,4.84,0,0,0-.37-2.54.65.65,0,0,0-.46-.17c-.55,0-1,.37-1.45,1.11a5.66,5.66,0,0,0-.63,2.82v8h1v.51h-7.32v-.51h1v-9.25c0-1.45-.12-2.29-.37-2.54a.64.64,0,0,0-.46-.17c-.53,0-1,.41-1.43,1.21a6.07,6.07,0,0,0-.64,2.89v7.86h1v.51h-7.89v-.51h1.57V100.39h-1.57Z"/><path class="cls-7" d="M1514.82,111.82a7.24,7.24,0,0,1-1.83-5.26,6.46,6.46,0,0,1,2.06-5.17,7.71,7.71,0,0,1,5.25-1.79q6.46,0,6.21,6.49h-8v1.11a9.8,9.8,0,0,0,.71,4.21,2.54,2.54,0,0,0,2.48,1.42c2.2,0,3.64-1.17,4.33-3.53l.51.09a5.87,5.87,0,0,1-2,3.19,6.63,6.63,0,0,1-4.23,1.14A7.33,7.33,0,0,1,1514.82,111.82Zm3.69-6.3h2.93v-1.4a12,12,0,0,0-.27-3.14,1.06,1.06,0,0,0-1.08-.84,1.28,1.28,0,0,0-1.2.89,8.86,8.86,0,0,0-.38,3.09Z"/><path class="cls-7" d="M1537.21,113.43l-.31-2c-.65,1.52-2,2.28-3.93,2.28a4.51,4.51,0,0,1-3.8-1.77,8.6,8.6,0,0,1-1.35-5.27q0-7.08,5.64-7.08c1.67,0,2.77.46,3.3,1.39v-8.4H1535v-.51h7.12v20.84h1.39v.51Zm-3.58-1.92a1.18,1.18,0,0,0,1.15,1,1.81,1.81,0,0,0,1.45-.74,3.35,3.35,0,0,0,.61-2.19v-6.21a4.14,4.14,0,0,0-.48-2.07,1.55,1.55,0,0,0-1.42-.86c-.63,0-1.06.42-1.29,1.25a19.63,19.63,0,0,0-.34,4.39v1.48A15.78,15.78,0,0,0,1533.63,111.51Z"/><path class="cls-7" d="M1544.16,99.88h7v13h1.6v.51h-8.46v-.51h1.57V100.39h-1.68Zm4.3-2a2.66,2.66,0,0,1-2.15-.77,2.88,2.88,0,0,1-.64-1.91,2.61,2.61,0,0,1,.7-1.88,2.78,2.78,0,0,1,2.12-.74,3.09,3.09,0,0,1,2.16.67,2.46,2.46,0,0,1,.74,1.91,2.78,2.78,0,0,1-.71,2A3,3,0,0,1,1548.46,97.92Z"/><path class="cls-7" d="M1560.13,106.74h.82v-2.19a14.27,14.27,0,0,0-.29-3.63,1.16,1.16,0,0,0-1.16-.93,1.63,1.63,0,0,0-.92.27.85.85,0,0,0-.42.74,2.72,2.72,0,0,0,.18,1h.71a4.1,4.1,0,0,1,.23,1.44,1.85,1.85,0,0,1-.72,1.45,2.63,2.63,0,0,1-1.79.61,2.13,2.13,0,0,1-2.45-2.36c0-2.34,2-3.5,6-3.5,2.26,0,3.82.38,4.68,1.15s1.3,2.18,1.3,4.23v5.78c0,1,.27,1.48.83,1.48s1-1,1.13-2.94l.43,0a5.74,5.74,0,0,1-.94,3.45,3.45,3.45,0,0,1-2.7.94c-2.28,0-3.59-.71-3.93-2.11a3.09,3.09,0,0,1-1.11,1.59,3.83,3.83,0,0,1-2.16.52q-4.21,0-4.22-3.45a2.78,2.78,0,0,1,1.61-2.77A12.09,12.09,0,0,1,1560.13,106.74Zm-1,5.41a.59.59,0,0,0,.6.43c.29,0,.56-.24.82-.73a4.28,4.28,0,0,0,.38-2V107.2h-.19c-1.18,0-1.77.86-1.77,2.59v.45A6.75,6.75,0,0,0,1559.15,112.15Z"/><path class="cls-7" d="M1436.3,216.94h7.6v.54h-1.56v18.84h1.56v.54h-8.68v-.54h1.57V218.53h-.12l-4.27,18.33h-3.56l-5-18.42h-.11v17.88h1.56v.54h-3.87v-.54H1423V217.48h-1.57v-.54h7.69l3.79,14.66Z"/><path class="cls-7" d="M1461.27,236.86h-6.49l-.32-2.08a3.72,3.72,0,0,1-1.35,1.76,4.8,4.8,0,0,1-2.66.61q-4.41,0-4.41-4.76v-8.57h-1.6v-.51h6.89v9.77a6.33,6.33,0,0,0,.25,2.25.94.94,0,0,0,1,.54,1.59,1.59,0,0,0,1.3-.89,4.45,4.45,0,0,0,.57-2.44v-8.72h-1.31v-.51h6.6v13h1.57Z"/><path class="cls-7" d="M1462.49,237.15v-5.1h.34a6.82,6.82,0,0,0,2,3.47,4.83,4.83,0,0,0,3.13,1c1.93,0,2.9-.62,2.9-1.85a1.27,1.27,0,0,0-.71-1.19,9.3,9.3,0,0,0-2.85-1,11,11,0,0,1-3.24-1.37,3.57,3.57,0,0,1-1.57-3.24,4.72,4.72,0,0,1,1.37-3.55,5,5,0,0,1,3.64-1.32,7.22,7.22,0,0,1,2.88.65,2.39,2.39,0,0,0,.82.23.68.68,0,0,0,.49-.2,3.35,3.35,0,0,0,.48-.74h.32v4.36h-.35q-1.44-3.71-4.49-3.7a3.48,3.48,0,0,0-2,.46,1.43,1.43,0,0,0-.65,1.19,1,1,0,0,0,.2.67,3.2,3.2,0,0,0,.31.35,1.31,1.31,0,0,0,.37.24,3.06,3.06,0,0,0,.43.2l.52.19.53.14a20.91,20.91,0,0,1,2.79.84,9.7,9.7,0,0,1,1.62.87,3.92,3.92,0,0,1,1.57,3.49,4.6,4.6,0,0,1-1.42,3.64,5.77,5.77,0,0,1-3.9,1.24,7.56,7.56,0,0,1-3.42-.83,1.14,1.14,0,0,0-.54-.23c-.42,0-.83.36-1.23,1.06Z"/><path class="cls-7" d="M1474.08,223.31h7v13h1.6v.51h-8.46v-.51h1.57V223.82h-1.68Zm4.3-2a2.66,2.66,0,0,1-2.15-.77,2.86,2.86,0,0,1-.64-1.91,2.62,2.62,0,0,1,.7-1.88,2.78,2.78,0,0,1,2.12-.74,3.14,3.14,0,0,1,2.16.67,2.46,2.46,0,0,1,.74,1.91,2.78,2.78,0,0,1-.71,2A3,3,0,0,1,1478.38,221.35Z"/><path class="cls-7" d="M1491.19,223.54a1.88,1.88,0,0,0-1.8,1.37,13.47,13.47,0,0,0-.54,4.52v1.48a9.49,9.49,0,0,0,.63,4.05,2.37,2.37,0,0,0,2.31,1.22,3.36,3.36,0,0,0,2.67-1.14,5.41,5.41,0,0,0,1.28-2.59l.52.06a5.79,5.79,0,0,1-2,3.53,6.63,6.63,0,0,1-4.07,1.11,6.87,6.87,0,0,1-5.07-1.78,7.12,7.12,0,0,1-1.76-5.21,6.81,6.81,0,0,1,2-5.28A7.89,7.89,0,0,1,1491,223a6.43,6.43,0,0,1,3.87,1,3,3,0,0,1,1.34,2.46,3.09,3.09,0,0,1-.64,2.17,2.34,2.34,0,0,1-1.77.68,2.61,2.61,0,0,1-1.8-.6,2.21,2.21,0,0,1-.69-1.76,3.62,3.62,0,0,1,.15-1h.94a3.18,3.18,0,0,0,.19-1A1.21,1.21,0,0,0,1491.19,223.54Z"/><path class="cls-7" d="M1436.59,328.26v19.39h-4l-9.76-18.42v17.88h1.57v.54h-3.9v-.54h1.56V328.26h-1.56v-.54h7.85l7.46,14.29V328.26h-1.56v-.54h3.9v.54Z"/><path class="cls-7" d="M1445.56,341h.82v-2.2a14.13,14.13,0,0,0-.3-3.63,1.15,1.15,0,0,0-1.15-.92,1.63,1.63,0,0,0-.92.27.84.84,0,0,0-.42.74,2.93,2.93,0,0,0,.17.95h.72a4.11,4.11,0,0,1,.22,1.44,1.83,1.83,0,0,1-.71,1.45,2.63,2.63,0,0,1-1.79.62,2.13,2.13,0,0,1-2.45-2.37q0-3.49,6-3.5c2.26,0,3.82.39,4.68,1.15s1.3,2.18,1.3,4.23V345c0,1,.27,1.48.82,1.48s1-1,1.14-2.93l.43,0a5.75,5.75,0,0,1-.94,3.44,3.41,3.41,0,0,1-2.7.94q-3.42,0-3.93-2.11a3.08,3.08,0,0,1-1.11,1.6,3.84,3.84,0,0,1-2.17.51q-4.21,0-4.21-3.44a2.79,2.79,0,0,1,1.61-2.78A12.29,12.29,0,0,1,1445.56,341Zm-1,5.41a.58.58,0,0,0,.59.42c.3,0,.57-.24.83-.72a4.47,4.47,0,0,0,.38-2v-2.65h-.2c-1.17,0-1.76.87-1.76,2.59v.46A6.79,6.79,0,0,0,1444.58,346.37Z"/><path class="cls-7" d="M1470.72,347.65h-6.49l-.31-2.08a3.69,3.69,0,0,1-1.35,1.75,4.74,4.74,0,0,1-2.66.61q-4.42,0-4.42-4.75v-8.57h-1.59v-.51h6.89v9.76a6.66,6.66,0,0,0,.24,2.25,1,1,0,0,0,1,.54,1.58,1.58,0,0,0,1.29-.88,4.51,4.51,0,0,0,.57-2.45v-8.71h-1.31v-.51h6.61v13h1.56Z"/><path class="cls-7" d="M1472.72,343.58v-9h-1.57v-.51h1.57v-3.68l5.29-1.31v5h3.7v.51H1478v9.59a5.34,5.34,0,0,0,.27,2,1.11,1.11,0,0,0,1.13.62,1.84,1.84,0,0,0,1.49-.85,4.9,4.9,0,0,0,.84-2.34l.48.06a5.47,5.47,0,0,1-1.25,3.12,4.32,4.32,0,0,1-3.39,1.15A5.91,5.91,0,0,1,1474,347C1473.13,346.37,1472.72,345.23,1472.72,343.58Z"/><path class="cls-7" d="M1489.34,341h.83v-2.2a14.13,14.13,0,0,0-.3-3.63,1.16,1.16,0,0,0-1.16-.92,1.63,1.63,0,0,0-.92.27.83.83,0,0,0-.41.74,2.69,2.69,0,0,0,.17.95h.71a4.1,4.1,0,0,1,.23,1.44,1.86,1.86,0,0,1-.71,1.45,2.68,2.68,0,0,1-1.8.62,2.13,2.13,0,0,1-2.45-2.37c0-2.33,2-3.5,6-3.5,2.26,0,3.82.39,4.69,1.15s1.29,2.18,1.29,4.23V345c0,1,.28,1.48.83,1.48s1-1,1.14-2.93l.42,0a5.68,5.68,0,0,1-.94,3.44,3.41,3.41,0,0,1-2.7.94q-3.42,0-3.93-2.11a3.08,3.08,0,0,1-1.11,1.6,3.79,3.79,0,0,1-2.16.51q-4.21,0-4.22-3.44a2.79,2.79,0,0,1,1.61-2.78A12.29,12.29,0,0,1,1489.34,341Zm-1,5.41a.58.58,0,0,0,.6.42c.29,0,.57-.24.82-.72a4.32,4.32,0,0,0,.39-2v-2.65h-.2c-1.18,0-1.77.87-1.77,2.59v.46A6.79,6.79,0,0,0,1488.36,346.37Z"/><path class="cls-7" d="M1498.19,334.1h6.87v2.61a4.65,4.65,0,0,1,1.39-2.1,4.35,4.35,0,0,1,2.85-.8c2.94,0,4.41,1.59,4.41,4.75v8.57h1.59v.52h-8v-.52h1.17v-9.25a6.54,6.54,0,0,0-.23-2.2.83.83,0,0,0-.83-.5c-.61,0-1.14.4-1.61,1.19a5.75,5.75,0,0,0-.69,2.91v7.85h1.22v.52h-8.09v-.52h1.57V334.61h-1.57Z"/><path class="cls-7" d="M1525,347.65v-.52h1.31l-3.21-6.6-.54.14v6.46h1.3v.52h-8.17v-.52h1.57V326.81h-1.68v-.51h7v13.8l.45-.17,6.41-5.32h-2.68v-.51h5.61v.51h-2l-3.39,2.87,4.92,9.65h1v.52Z"/><path class="cls-7" d="M1533.21,334.1h7v13h1.59v.52h-8.46v-.52h1.57V334.61h-1.68Zm4.3-2a2.66,2.66,0,0,1-2.15-.77,2.86,2.86,0,0,1-.64-1.9,2.61,2.61,0,0,1,.7-1.88,2.75,2.75,0,0,1,2.12-.74,3.09,3.09,0,0,1,2.16.67,2.43,2.43,0,0,1,.74,1.9,2.74,2.74,0,0,1-.71,2A3,3,0,0,1,1537.51,332.13Z"/><polygon class="cls-14" points="1691.2 72.82 1690.28 94.18 1707.35 107.04 1686.75 112.77 1679.79 132.98 1667.98 115.16 1646.61 114.78 1659.91 98.05 1653.66 77.6 1673.69 85.08 1691.2 72.82"/><polygon class="cls-15" points="1710.08 201.42 1703.76 221.84 1716.99 238.62 1695.62 238.92 1683.75 256.7 1676.86 236.46 1656.29 230.67 1673.4 217.86 1672.56 196.5 1690.03 208.82 1710.08 201.42"/><polygon class="cls-16" points="1727.38 342.71 1708.81 353.31 1707.02 374.61 1691.2 360.23 1670.39 365.11 1679.18 345.63 1668.11 327.34 1689.35 329.67 1703.32 313.49 1707.67 334.42 1727.38 342.71"/><path class="cls-7" d="M1720.3,76.66h8.37a13.08,13.08,0,0,1,6.41,1.24c1.4.83,2.1,2.3,2.1,4.43,0,2.35-.85,4-2.56,4.87a15,15,0,0,1-6.69,1.22h-.23v7.63h3.56v.54h-11v-.54h1.85V77.21h-1.85Zm7.4.55V87.88h.6a2.46,2.46,0,0,0,2.36-1.17,8.05,8.05,0,0,0,.66-3.78V81.56a6.74,6.74,0,0,0-.62-3.39,2.43,2.43,0,0,0-2.23-1Z"/><path class="cls-7" d="M1739.4,95.05a7.07,7.07,0,0,1-1.82-5.22,6.86,6.86,0,0,1,2-5.24,7.7,7.7,0,0,1,5.48-1.83,7.29,7.29,0,0,1,5.27,1.69,7,7,0,0,1,1.73,5.17q0,7.26-7.23,7.26A7.29,7.29,0,0,1,1739.4,95.05Zm7.15-4.07V88.56a19.17,19.17,0,0,0-.3-4c-.2-.85-.66-1.27-1.38-1.27a1.44,1.44,0,0,0-1,.35,2.24,2.24,0,0,0-.56,1.19,21.8,21.8,0,0,0-.25,3.9v2.22a20.82,20.82,0,0,0,.18,3.73,6.35,6.35,0,0,0,.38,1,1.21,1.21,0,0,0,1.23.68c.74,0,1.22-.42,1.45-1.28A19.55,19.55,0,0,0,1746.55,91Z"/><path class="cls-7" d="M1754.79,95a7.2,7.2,0,0,1-1.84-5.26,6.48,6.48,0,0,1,2.07-5.17,7.67,7.67,0,0,1,5.25-1.79q6.46,0,6.21,6.49h-8v1.11a9.65,9.65,0,0,0,.71,4.21,2.53,2.53,0,0,0,2.48,1.42c2.2,0,3.64-1.17,4.32-3.53l.52.09a5.94,5.94,0,0,1-2,3.19,6.58,6.58,0,0,1-4.22,1.14Q1756.63,96.88,1754.79,95Zm3.69-6.3h2.93v-1.4a12,12,0,0,0-.27-3.14,1.06,1.06,0,0,0-1.08-.84,1.27,1.27,0,0,0-1.2.89,8.62,8.62,0,0,0-.38,3.09Z"/><path class="cls-7" d="M1768.92,92.52v-9h-1.56V83h1.56V79.37l5.3-1.31v5h3.7v.51h-3.7v9.6a5.28,5.28,0,0,0,.27,2,1.09,1.09,0,0,0,1.12.63,1.86,1.86,0,0,0,1.5-.86,5.07,5.07,0,0,0,.84-2.33l.48.06a5.48,5.48,0,0,1-1.25,3.11,4.33,4.33,0,0,1-3.39,1.16,6,6,0,0,1-3.61-.94Q1768.92,95,1768.92,92.52Z"/><path class="cls-7" d="M1788.22,83.84c-.7,0-1.31.45-1.85,1.36a6.39,6.39,0,0,0-.79,3.25v7.63h2v.51h-8.88v-.51h1.56V83.55h-1.56V83h6.86v2.73a3.84,3.84,0,0,1,1.42-2.23,3.91,3.91,0,0,1,2.39-.78,3.16,3.16,0,0,1,2.18.75,2.73,2.73,0,0,1,.84,2.14,3.19,3.19,0,0,1-.63,2.12,2.38,2.38,0,0,1-1.92.74,2.2,2.2,0,0,1-1.91-.86,2.63,2.63,0,0,1-.15-2.36h1C1789.3,84.32,1789.1,83.84,1788.22,83.84Z"/><path class="cls-7" d="M1792.24,83.55V83h8.25v.51H1799l3.1,9.46,3.3-9.46h-1.91V83h4v.51h-1.42l-5.33,15.35a9.28,9.28,0,0,1-2.1,3.74,4.09,4.09,0,0,1-2.85,1.07,4.18,4.18,0,0,1-2.65-.77,2.42,2.42,0,0,1-1-2,2.48,2.48,0,0,1,.63-1.83,2.26,2.26,0,0,1,1.65-.62c1.58,0,2.36.65,2.36,2a3.6,3.6,0,0,1-.17,1h-1a1.52,1.52,0,0,0-.06,1.08.74.74,0,0,0,.77.43,2.63,2.63,0,0,0,2.08-1.16,12.66,12.66,0,0,0,1.73-3.51l.63-1.77h-2.51l-4.86-13Z"/><path class="cls-7" d="M1806.61,99.35,1815,74h1.14l-8.37,25.39Z"/><path class="cls-7" d="M1825.72,86.51h-1.51v9.54h1.85v.54h-9.25v-.54h1.85V77.21h-1.85v-.55h8.59a24.46,24.46,0,0,1,5.26.39,5.31,5.31,0,0,1,2.17.92,4.29,4.29,0,0,1,1.37,3.53A4.35,4.35,0,0,1,1833,85a6.15,6.15,0,0,1-3.64,1.24v.09a5.06,5.06,0,0,1,3.22,1.36,5.46,5.46,0,0,1,.91,3.53v1.51a8.45,8.45,0,0,0,.15,2,.65.65,0,0,0,.67.52.93.93,0,0,0,.82-.47,6.64,6.64,0,0,0,.55-2l.48.06a6,6,0,0,1-1.09,3.24c-.52.55-1.56.83-3.12.83a4.29,4.29,0,0,1-3.32-1.1c-.65-.73-1-2.1-1-4.11V89.59a5.13,5.13,0,0,0-.41-2.34A1.59,1.59,0,0,0,1825.72,86.51Zm-1.51-9.3V86h.91a2.87,2.87,0,0,0,2.4-1,5.26,5.26,0,0,0,.79-3.25v-.82c0-1.5-.25-2.49-.76-3a3.38,3.38,0,0,0-2.4-.72Z"/><path class="cls-7" d="M1843.88,89.9h.82V87.71a14.77,14.77,0,0,0-.29-3.63,1.15,1.15,0,0,0-1.16-.92,1.63,1.63,0,0,0-.92.27.83.83,0,0,0-.42.74,2.71,2.71,0,0,0,.18,1h.71a4.1,4.1,0,0,1,.23,1.44,1.85,1.85,0,0,1-.72,1.45,2.63,2.63,0,0,1-1.79.61,2.13,2.13,0,0,1-2.45-2.36c0-2.34,2-3.5,6-3.5,2.26,0,3.82.38,4.68,1.15s1.3,2.18,1.3,4.23v5.78c0,1,.27,1.48.83,1.48s1-1,1.13-2.94l.43,0a5.74,5.74,0,0,1-.94,3.45,3.45,3.45,0,0,1-2.7.94c-2.28,0-3.59-.71-3.93-2.11a3.09,3.09,0,0,1-1.11,1.59,3.76,3.76,0,0,1-2.17.52c-2.8,0-4.21-1.15-4.21-3.45a2.78,2.78,0,0,1,1.61-2.77A12.09,12.09,0,0,1,1843.88,89.9Zm-1,5.41a.58.58,0,0,0,.59.43c.3,0,.57-.24.83-.73a4.26,4.26,0,0,0,.38-2V90.36h-.19c-1.18,0-1.77.86-1.77,2.59v.45A6.75,6.75,0,0,0,1842.9,95.31Z"/><path class="cls-7" d="M1859.2,83v2.25a3.94,3.94,0,0,1,3.92-2.53,4.49,4.49,0,0,1,3.8,1.76,8.69,8.69,0,0,1,1.36,5.35q0,3.59-1.47,5.3a5.48,5.48,0,0,1-4.4,1.71,4.72,4.72,0,0,1-2.05-.35,2.66,2.66,0,0,1-1.11-1v7.38h3.67v.51h-10.53v-.51H1854V83.55h-1.51V83Zm3.3,1.95c-.19-.67-.56-1-1.11-1a1.82,1.82,0,0,0-1.48,1.07,5.38,5.38,0,0,0-.66,2.86v5.21a4.08,4.08,0,0,0,.49,2.08,1.53,1.53,0,0,0,1.42.85c.63,0,1-.42,1.28-1.25a19,19,0,0,0,.34-4.39V88.93A17.61,17.61,0,0,0,1862.5,85Z"/><path class="cls-7" d="M1869.07,99.35l8.4-25.39h1.14l-8.37,25.39Z"/><path class="cls-7" d="M1729.13,124.75a4.29,4.29,0,0,0,2.51-.77,2.65,2.65,0,0,0,1.1-2.32,2.71,2.71,0,0,0-1.18-2.38,11.39,11.39,0,0,0-3.36-1.44,22.5,22.5,0,0,1-3.16-1.06,8.67,8.67,0,0,1-1.86-1.2,5.63,5.63,0,0,1-1.77-4.58,6,6,0,0,1,1.81-4.36,6.65,6.65,0,0,1,4.94-1.82,12.24,12.24,0,0,1,3.14.44,11.89,11.89,0,0,0,2,.44c.26,0,.5-.19.71-.57h.31l.2,5.75h-.45a17.93,17.93,0,0,0-2.86-4,4.56,4.56,0,0,0-3.25-1.49,4.13,4.13,0,0,0-2.72.81,2.69,2.69,0,0,0-1,2.16,2.32,2.32,0,0,0,1.16,2.08,10.43,10.43,0,0,0,2.83,1.18c1.12.31,1.85.51,2.21.63s.78.27,1.31.47a7.67,7.67,0,0,1,1.28.62,9.69,9.69,0,0,1,1.05.83,3.91,3.91,0,0,1,.87,1.1,7.27,7.27,0,0,1-1.15,8.18,7,7,0,0,1-5.06,1.86,19.05,19.05,0,0,1-3.71-.42c-1.4-.29-2.17-.43-2.32-.43s-.53.29-.77.85h-.4l-.28-6.77h.48a15.66,15.66,0,0,0,3.2,4.33A6,6,0,0,0,1729.13,124.75Z"/><path class="cls-7" d="M1744,111.51v2.25a4,4,0,0,1,3.93-2.54,4.51,4.51,0,0,1,3.8,1.77,8.76,8.76,0,0,1,1.35,5.35q0,3.59-1.46,5.3a5.48,5.48,0,0,1-4.4,1.7,4.72,4.72,0,0,1-2-.34,2.61,2.61,0,0,1-1.11-1v7.37h3.67v.52h-10.53v-.52h1.56V112h-1.5v-.51Zm3.3,1.95c-.19-.67-.56-1-1.11-1a1.81,1.81,0,0,0-1.48,1.07,5.48,5.48,0,0,0-.65,2.86v5.21a4.21,4.21,0,0,0,.48,2.08,1.57,1.57,0,0,0,1.43.85c.62,0,1-.42,1.28-1.25a19,19,0,0,0,.34-4.39V117.4A17.36,17.36,0,0,0,1747.34,113.46Z"/><path class="cls-7" d="M1756,123.52a7,7,0,0,1-1.82-5.22,6.84,6.84,0,0,1,2-5.24,7.68,7.68,0,0,1,5.48-1.84,7.26,7.26,0,0,1,5.26,1.7,6.92,6.92,0,0,1,1.74,5.17q0,7.25-7.23,7.25A7.27,7.27,0,0,1,1756,123.52Zm7.14-4.07V117a19.35,19.35,0,0,0-.3-4q-.3-1.26-1.38-1.26a1.48,1.48,0,0,0-1,.35,2.21,2.21,0,0,0-.55,1.18,21.75,21.75,0,0,0-.26,3.9v2.23a19.3,19.3,0,0,0,.19,3.72,6.51,6.51,0,0,0,.38,1,1.22,1.22,0,0,0,1.22.68,1.46,1.46,0,0,0,1.46-1.28A19.88,19.88,0,0,0,1763.17,119.45Z"/><path class="cls-7" d="M1778.74,125.06v-.51h1.31l-3.21-6.61-.54.15v6.46h1.31v.51h-8.17v-.51H1771V104.22h-1.68v-.51h7v13.81l.45-.17,6.41-5.33h-2.68v-.51h5.61V112h-2l-3.39,2.88,4.92,9.65h1v.51Z"/><path class="cls-7" d="M1788.35,123.45a7.27,7.27,0,0,1-1.83-5.27,6.45,6.45,0,0,1,2.06-5.16,7.71,7.71,0,0,1,5.25-1.8q6.47,0,6.21,6.5h-8v1.11a9.8,9.8,0,0,0,.71,4.21,2.54,2.54,0,0,0,2.48,1.42c2.2,0,3.64-1.17,4.33-3.53l.51.09a5.91,5.91,0,0,1-2,3.19,6.63,6.63,0,0,1-4.23,1.13A7.36,7.36,0,0,1,1788.35,123.45Zm3.69-6.3H1795v-1.4a12,12,0,0,0-.27-3.14,1.06,1.06,0,0,0-1.08-.84,1.26,1.26,0,0,0-1.2.89,8.86,8.86,0,0,0-.38,3.09Z"/><path class="cls-7" d="M1801.12,111.51H1808v2.62a4.7,4.7,0,0,1,1.4-2.11,4.3,4.3,0,0,1,2.84-.8q4.42,0,4.42,4.76v8.57h1.59v.51h-8.06v-.51h1.17V115.3a6.61,6.61,0,0,0-.23-2.21.82.82,0,0,0-.82-.5,2,2,0,0,0-1.61,1.2,5.59,5.59,0,0,0-.7,2.9v7.86h1.23v.51h-8.09v-.51h1.57V112h-1.57Z"/><path class="cls-7" d="M1833.46,112v-.51h7.35V112h-1.17l2.56,9.6,2.53-9.6h-2v-.51h3.84V112h-1.19l-3.42,13h-3.9l-2.48-8.74-2.67,8.74h-3.82l-4.21-13h-1.28v-.51h8.63V112h-1.71l2.62,9.68,2-6.66-.72-3Z"/><path class="cls-7" d="M1848.52,123.52a7.07,7.07,0,0,1-1.82-5.22,6.84,6.84,0,0,1,2-5.24,7.71,7.71,0,0,1,5.48-1.84,7.29,7.29,0,0,1,5.27,1.7,7,7,0,0,1,1.73,5.17q0,7.25-7.23,7.25A7.27,7.27,0,0,1,1848.52,123.52Zm7.15-4.07V117a19.35,19.35,0,0,0-.3-4q-.3-1.26-1.38-1.26a1.44,1.44,0,0,0-1,.35,2.14,2.14,0,0,0-.56,1.18,21.75,21.75,0,0,0-.26,3.9v2.23a20.24,20.24,0,0,0,.19,3.72,6.51,6.51,0,0,0,.38,1,1.23,1.23,0,0,0,1.23.68c.74,0,1.22-.42,1.45-1.28A19.62,19.62,0,0,0,1855.67,119.45Z"/><path class="cls-7" d="M1871.44,112.31a2.23,2.23,0,0,0-1.85,1.36,6.37,6.37,0,0,0-.8,3.25v7.63h2v.51h-8.88v-.51h1.56V112h-1.56v-.51h6.86v2.73a3.86,3.86,0,0,1,1.42-2.23,3.94,3.94,0,0,1,2.39-.79,3.14,3.14,0,0,1,2.18.76,2.71,2.71,0,0,1,.84,2.13,3.23,3.23,0,0,1-.62,2.12,2.37,2.37,0,0,1-1.93.75,2.17,2.17,0,0,1-1.9-.86,2.63,2.63,0,0,1-.16-2.36h1C1872.51,112.79,1872.31,112.31,1871.44,112.31Z"/><path class="cls-7" d="M1885.7,125.06l-.31-2c-.65,1.52-2,2.27-3.93,2.27a4.5,4.5,0,0,1-3.8-1.76,8.6,8.6,0,0,1-1.35-5.27q0-7.08,5.63-7.09c1.67,0,2.77.47,3.3,1.4v-8.4h-1.73v-.51h7.11v20.84h1.4v.51Zm-3.59-1.92a1.19,1.19,0,0,0,1.16,1,1.84,1.84,0,0,0,1.45-.74,3.35,3.35,0,0,0,.61-2.19V115a4.21,4.21,0,0,0-.48-2.08,1.55,1.55,0,0,0-1.43-.85c-.62,0-1.05.42-1.28,1.25a19,19,0,0,0-.34,4.39v1.48A15.93,15.93,0,0,0,1882.11,123.14Z"/><path class="cls-7" d="M1743.1,233.4a4.29,4.29,0,0,0,2.52-.76,2.67,2.67,0,0,0,1.1-2.33,2.72,2.72,0,0,0-1.19-2.37,11.2,11.2,0,0,0-3.35-1.44,21.78,21.78,0,0,1-3.16-1.07,8.31,8.31,0,0,1-1.87-1.19,5.65,5.65,0,0,1-1.76-4.59,6,6,0,0,1,1.8-4.35,6.63,6.63,0,0,1,4.94-1.82,11.83,11.83,0,0,1,3.15.44,12.06,12.06,0,0,0,2,.44q.4,0,.72-.57h.31l.2,5.75h-.46a17.38,17.38,0,0,0-2.86-4,4.53,4.53,0,0,0-3.24-1.5,4.05,4.05,0,0,0-2.72.82,2.66,2.66,0,0,0-1,2.16,2.32,2.32,0,0,0,1.15,2.08,10.43,10.43,0,0,0,2.83,1.18c1.12.3,1.86.51,2.21.63s.79.27,1.31.46a6.63,6.63,0,0,1,1.28.63,7.9,7.9,0,0,1,1,.83A3.87,3.87,0,0,1,1749,224a6.46,6.46,0,0,1,.77,3.25,6.58,6.58,0,0,1-1.92,4.94,7,7,0,0,1-5,1.86,18.55,18.55,0,0,1-3.72-.43c-1.39-.28-2.17-.42-2.32-.42s-.52.28-.77.85h-.4l-.28-6.77h.48a15.7,15.7,0,0,0,3.21,4.32A5.9,5.9,0,0,0,1743.1,233.4Z"/><path class="cls-7" d="M1752.64,229.65v-9h-1.57v-.51h1.57v-3.68l5.29-1.31v5h3.7v.51h-3.7v9.59a5.34,5.34,0,0,0,.27,2,1.11,1.11,0,0,0,1.13.62,1.84,1.84,0,0,0,1.49-.85,4.9,4.9,0,0,0,.84-2.34l.49.06a5.55,5.55,0,0,1-1.26,3.12,4.32,4.32,0,0,1-3.39,1.15,5.91,5.91,0,0,1-3.61-.94C1753.05,232.44,1752.64,231.3,1752.64,229.65Z"/><path class="cls-7" d="M1764.48,232.18a7,7,0,0,1-1.82-5.22,6.84,6.84,0,0,1,1.95-5.24,7.65,7.65,0,0,1,5.48-1.84,7.25,7.25,0,0,1,5.26,1.7,6.89,6.89,0,0,1,1.74,5.16q0,7.26-7.23,7.26A7.31,7.31,0,0,1,1764.48,232.18Zm7.15-4.07v-2.42a19.35,19.35,0,0,0-.3-4c-.2-.84-.66-1.27-1.38-1.27a1.44,1.44,0,0,0-1,.36,2.21,2.21,0,0,0-.55,1.18,21.75,21.75,0,0,0-.26,3.9v2.22a19.44,19.44,0,0,0,.19,3.73,6.51,6.51,0,0,0,.38,1,1.23,1.23,0,0,0,1.23.68c.74,0,1.22-.43,1.45-1.28A19.69,19.69,0,0,0,1771.63,228.11Z"/><path class="cls-7" d="M1787.4,221c-.71,0-1.32.46-1.85,1.37a6.24,6.24,0,0,0-.8,3.25v7.62h2v.52h-8.88v-.52h1.56V220.68h-1.56v-.51h6.86v2.73a3.82,3.82,0,0,1,3.81-3,3.1,3.1,0,0,1,2.18.76,2.71,2.71,0,0,1,.84,2.13,3.17,3.17,0,0,1-.63,2.12,2.34,2.34,0,0,1-1.92.74,2.16,2.16,0,0,1-1.9-.85,2.63,2.63,0,0,1-.16-2.36h1C1788.47,221.45,1788.27,221,1787.4,221Z"/><path class="cls-7" d="M1791.41,220.68v-.51h8.26v.51h-1.54l3.1,9.45,3.3-9.45h-1.9v-.51h4v.51h-1.42L1799.89,236a9.22,9.22,0,0,1-2.1,3.75,4.08,4.08,0,0,1-2.85,1.06,4.18,4.18,0,0,1-2.65-.76,2.42,2.42,0,0,1-1-2,2.45,2.45,0,0,1,.62-1.82,2.23,2.23,0,0,1,1.65-.63c1.58,0,2.37.66,2.37,2a3.66,3.66,0,0,1-.18,1h-1a1.58,1.58,0,0,0-.06,1.08.73.73,0,0,0,.77.43,2.62,2.62,0,0,0,2.08-1.15,12.6,12.6,0,0,0,1.73-3.52l.63-1.76h-2.5l-4.87-13Z"/><path class="cls-7" d="M1808.12,229.65v-9h-1.56v-.51h1.56v-3.68l5.3-1.31v5h3.7v.51h-3.7v9.59a5.34,5.34,0,0,0,.27,2,1.09,1.09,0,0,0,1.12.62,1.85,1.85,0,0,0,1.5-.85,5.12,5.12,0,0,0,.84-2.34l.48.06a5.54,5.54,0,0,1-1.25,3.12A4.35,4.35,0,0,1,1813,234a5.94,5.94,0,0,1-3.62-.94C1808.54,232.44,1808.12,231.3,1808.12,229.65Z"/><path class="cls-7" d="M1819.89,232.11a7.27,7.27,0,0,1-1.83-5.27,6.47,6.47,0,0,1,2.06-5.17,7.76,7.76,0,0,1,5.25-1.79q6.47,0,6.21,6.49h-8v1.11a9.85,9.85,0,0,0,.71,4.22,2.54,2.54,0,0,0,2.48,1.42q3.3,0,4.33-3.53l.51.08a5.87,5.87,0,0,1-1.95,3.19,6.63,6.63,0,0,1-4.23,1.14A7.36,7.36,0,0,1,1819.89,232.11Zm3.69-6.31h2.93v-1.39a12.06,12.06,0,0,0-.27-3.15,1.06,1.06,0,0,0-1.08-.84,1.27,1.27,0,0,0-1.2.9,8.86,8.86,0,0,0-.38,3.09Z"/><path class="cls-7" d="M1832.49,212.37h7V233.2h1.6v.52h-8.46v-.52h1.57V212.88h-1.68Z"/><path class="cls-7" d="M1841.49,212.37h7V233.2h1.59v.52h-8.45v-.52h1.56V212.88h-1.67Z"/><path class="cls-7" d="M1850.48,220.17h7v13h1.59v.52h-8.46v-.52h1.57V220.68h-1.68Zm4.3-2a2.63,2.63,0,0,1-2.15-.77,2.84,2.84,0,0,1-.64-1.9,2.61,2.61,0,0,1,.7-1.88,2.75,2.75,0,0,1,2.12-.74,3.09,3.09,0,0,1,2.16.67,2.43,2.43,0,0,1,.74,1.9,2.74,2.74,0,0,1-.71,2A2.92,2.92,0,0,1,1854.78,218.2Z"/><path class="cls-7" d="M1859.68,220.17h6.86v2.62a4.63,4.63,0,0,1,1.39-2.11,4.35,4.35,0,0,1,2.85-.8q4.41,0,4.41,4.76v8.56h1.59v.52h-8v-.52h1.17V224a6.54,6.54,0,0,0-.23-2.2.82.82,0,0,0-.83-.5c-.61,0-1.14.4-1.61,1.19a5.75,5.75,0,0,0-.69,2.91v7.85h1.22v.52h-8.08v-.52h1.56V220.68h-1.56Z"/><path class="cls-7" d="M1888.57,218.69l.8-.49c.11-.59-.12-.88-.69-.88-.81,0-1.22.63-1.22,1.88a8.91,8.91,0,0,0,.2,1.71,4.32,4.32,0,0,1,2.16,3.71,4.27,4.27,0,0,1-1.56,3.52,6.65,6.65,0,0,1-4.24,1.25,12.55,12.55,0,0,1-2.31-.23c-.84.53-1.25.93-1.25,1.2s.6.4,1.82.4h2.9c4.31,0,6.47,1.54,6.47,4.64a4.69,4.69,0,0,1-2,4c-1.3,1-3.32,1.46-6.07,1.46q-7,0-7-3,0-1.65,2.19-2.28l1.71.77a5.58,5.58,0,0,0-.23,1.57q0,2.44,3.64,2.44a6,6,0,0,0,3.42-.82,2.43,2.43,0,0,0,1.19-2.05,1.73,1.73,0,0,0-.72-1.64,6.79,6.79,0,0,0-2.89-.41h-2.76a5.54,5.54,0,0,1-3.31-.77,2.31,2.31,0,0,1-1-1.89,2.65,2.65,0,0,1,.71-1.88,12.6,12.6,0,0,1,2.53-1.87,4.11,4.11,0,0,1-3.3-4.32,4.29,4.29,0,0,1,1.54-3.45,7,7,0,0,1,4.61-1.31,6.59,6.59,0,0,1,3.16.71,6.65,6.65,0,0,1-.17-1.39,2.86,2.86,0,0,1,.85-2.31,2.94,2.94,0,0,1,1.91-.71,2.48,2.48,0,0,1,1.69.56,2.17,2.17,0,0,1,.13,3,1.77,1.77,0,0,1-1.24.47,1.79,1.79,0,0,1-1.19-.39A1.41,1.41,0,0,1,1888.57,218.69Zm-6,5.32v1.54a6.86,6.86,0,0,0,.32,2.59,1.06,1.06,0,0,0,1,.68,1,1,0,0,0,1-.67,8,8,0,0,0,.3-2.75V224a9.37,9.37,0,0,0-.29-2.92,1,1,0,0,0-.95-.7,1.08,1.08,0,0,0-1,.73A7.89,7.89,0,0,0,1882.54,224Z"/><path class="cls-7" d="M1760.51,334.66l.28,7.14h-.54a21.67,21.67,0,0,0-2.22-5.16,3.19,3.19,0,0,0-2.79-1.38h-.34V354h2.42v.6h-10.39V354h2.42V335.26H1749a3.23,3.23,0,0,0-2.82,1.43,21.94,21.94,0,0,0-2.19,5.11h-.54l.28-7.14Z"/><path class="cls-7" d="M1762.13,333.24H1769v10.41a4.67,4.67,0,0,1,1.4-2.1,4.3,4.3,0,0,1,2.84-.8c2.94,0,4.42,1.59,4.42,4.75v8.57h1.59v.52h-8.06v-.52h1.17v-9.25a6.54,6.54,0,0,0-.23-2.2.81.81,0,0,0-.82-.5,2,2,0,0,0-1.61,1.19,5.65,5.65,0,0,0-.7,2.91v7.85h1.23v.52h-8.09v-.52h1.57V333.75h-1.57Z"/><path class="cls-7" d="M1781.65,353a7.23,7.23,0,0,1-1.84-5.27,6.5,6.5,0,0,1,2.06-5.17,7.76,7.76,0,0,1,5.26-1.79q6.45,0,6.2,6.49h-8v1.11a9.6,9.6,0,0,0,.72,4.21,2.53,2.53,0,0,0,2.47,1.43c2.2,0,3.65-1.18,4.33-3.53l.51.08a5.87,5.87,0,0,1-1.95,3.19,6.63,6.63,0,0,1-4.23,1.14A7.34,7.34,0,0,1,1781.65,353Zm3.68-6.31h2.93v-1.39a12.06,12.06,0,0,0-.27-3.15,1.06,1.06,0,0,0-1.08-.84,1.25,1.25,0,0,0-1.19.9,8.57,8.57,0,0,0-.39,3.09Z"/><path class="cls-7" d="M1801.19,347.9h.82v-2.2a14.77,14.77,0,0,0-.29-3.63,1.16,1.16,0,0,0-1.16-.92,1.63,1.63,0,0,0-.92.27.84.84,0,0,0-.42.74,2.71,2.71,0,0,0,.18.95h.71a4.1,4.1,0,0,1,.23,1.44,1.85,1.85,0,0,1-.72,1.45,2.63,2.63,0,0,1-1.79.62,2.13,2.13,0,0,1-2.45-2.37q0-3.5,5.95-3.5c2.26,0,3.82.38,4.68,1.15s1.3,2.18,1.3,4.23v5.78c0,1,.27,1.48.83,1.48s1-1,1.13-2.93l.43,0a5.75,5.75,0,0,1-.94,3.44,3.41,3.41,0,0,1-2.7.94q-3.42,0-3.93-2.11a3.08,3.08,0,0,1-1.11,1.6,3.84,3.84,0,0,1-2.17.51c-2.8,0-4.21-1.15-4.21-3.44a2.79,2.79,0,0,1,1.61-2.78A12.29,12.29,0,0,1,1801.19,347.9Zm-1,5.41a.58.58,0,0,0,.59.42c.3,0,.57-.24.83-.72a4.33,4.33,0,0,0,.38-2v-2.65h-.19c-1.18,0-1.77.87-1.77,2.59v.46A6.79,6.79,0,0,0,1800.21,353.31Z"/><path class="cls-7" d="M1811,350.52v-9h-1.56V341H1811v-3.68l5.3-1.31v5h3.7v.51h-3.7v9.59a5.34,5.34,0,0,0,.27,2,1.09,1.09,0,0,0,1.12.62,1.85,1.85,0,0,0,1.5-.85,5.12,5.12,0,0,0,.84-2.34l.48.06a5.54,5.54,0,0,1-1.25,3.12,4.34,4.34,0,0,1-3.39,1.15,5.94,5.94,0,0,1-3.62-.94C1811.4,353.31,1811,352.17,1811,350.52Z"/><path class="cls-7" d="M1830.28,341.83a2.25,2.25,0,0,0-1.85,1.37,6.32,6.32,0,0,0-.79,3.24v7.63h2v.52h-8.89v-.52h1.57V341.55h-1.57V341h6.87v2.73a3.87,3.87,0,0,1,1.42-2.24,3.91,3.91,0,0,1,2.39-.78,3.11,3.11,0,0,1,2.18.76,2.71,2.71,0,0,1,.84,2.13,3.17,3.17,0,0,1-.63,2.12,2.36,2.36,0,0,1-1.92.74,2.19,2.19,0,0,1-1.91-.85,2.62,2.62,0,0,1-.15-2.37h1C1831.36,342.32,1831.16,341.83,1830.28,341.83Z"/><path class="cls-7" d="M1836.7,353a7.27,7.27,0,0,1-1.83-5.27,6.47,6.47,0,0,1,2.06-5.17,7.76,7.76,0,0,1,5.25-1.79q6.46,0,6.21,6.49h-8v1.11a9.77,9.77,0,0,0,.71,4.21,2.55,2.55,0,0,0,2.48,1.43q3.3,0,4.33-3.53l.51.08a5.87,5.87,0,0,1-2,3.19,6.63,6.63,0,0,1-4.23,1.14A7.36,7.36,0,0,1,1836.7,353Zm3.69-6.31h2.93v-1.39a12.06,12.06,0,0,0-.27-3.15,1.06,1.06,0,0,0-1.08-.84,1.27,1.27,0,0,0-1.2.9,8.86,8.86,0,0,0-.38,3.09Z"/><polygon class="cls-17" points="727.23 201.42 720.91 221.84 734.15 238.62 712.78 238.92 700.9 256.7 694.02 236.46 673.44 230.67 690.56 217.86 689.71 196.5 707.18 208.82 727.23 201.42"/><polygon class="cls-18" points="742.93 342.71 724.36 353.31 722.57 374.61 706.75 360.23 685.94 365.11 694.73 345.63 683.66 327.34 704.91 329.67 718.88 313.49 723.22 334.42 742.93 342.71"/><path class="cls-7" d="M752.67,83.23h14.81l.28,5.63h-.51a10.11,10.11,0,0,0-2.51-3.94,6,6,0,0,0-3.84-1.07h-1v8.8h1a2.91,2.91,0,0,0,2.25-1,5.71,5.71,0,0,0,1.28-2.72h.43v8.43h-.48a6.89,6.89,0,0,0-1.38-3,3.13,3.13,0,0,0-2.38-.91h-.68v9.14H761a6.6,6.6,0,0,0,4.45-1.57A7.86,7.86,0,0,0,768,97h.57l-.23,6.2H752.67v-.62h1.68V83.85h-1.68Z"/><path class="cls-7" d="M779.86,94.76l3.36-4.64h-2.05V89.6h4.24v.52h-1.48l-3.7,5.23,4.64,7.29h1.48v.51h-9.51v-.51h2l-3.13-5.12-3.24,5.12h1.88v.51H769.9v-.51h1.88L775.39,97l-4.33-6.83h-1.65V89.6H779v.52h-2Z"/><path class="cls-7" d="M793.44,89.6v2.25a4,4,0,0,1,3.93-2.53,4.52,4.52,0,0,1,3.8,1.76,8.78,8.78,0,0,1,1.35,5.36q0,3.59-1.46,5.29a5.49,5.49,0,0,1-4.4,1.71,4.72,4.72,0,0,1-2-.34A2.63,2.63,0,0,1,793.5,102v7.38h3.67v.51H786.64v-.51h1.56V90.12h-1.51V89.6Zm3.3,2c-.19-.67-.56-1-1.11-1a1.83,1.83,0,0,0-1.48,1.07,5.41,5.41,0,0,0-.65,2.86v5.21a4.18,4.18,0,0,0,.48,2.08,1.54,1.54,0,0,0,1.42.85c.63,0,1.06-.41,1.29-1.25A19.52,19.52,0,0,0,797,97V95.5A17.47,17.47,0,0,0,796.74,91.55Z"/><path class="cls-7" d="M805.35,101.55a7.28,7.28,0,0,1-1.83-5.27,6.5,6.5,0,0,1,2.06-5.17,7.76,7.76,0,0,1,5.25-1.79q6.46,0,6.21,6.49h-8v1.11a9.8,9.8,0,0,0,.71,4.21,2.55,2.55,0,0,0,2.48,1.43q3.3,0,4.33-3.53l.51.08a5.87,5.87,0,0,1-1.95,3.19,6.63,6.63,0,0,1-4.23,1.14A7.36,7.36,0,0,1,805.35,101.55ZM809,95.24H812V93.85a12.06,12.06,0,0,0-.27-3.15,1.06,1.06,0,0,0-1.08-.84,1.27,1.27,0,0,0-1.2.9,8.78,8.78,0,0,0-.38,3.09Z"/><path class="cls-7" d="M827.57,90.4a2.25,2.25,0,0,0-1.85,1.37,6.32,6.32,0,0,0-.79,3.24v7.63h2v.51h-8.89v-.51h1.57V90.12h-1.57V89.6h6.87v2.74a3.84,3.84,0,0,1,1.42-2.24,3.91,3.91,0,0,1,2.39-.78,3.16,3.16,0,0,1,2.18.75,2.74,2.74,0,0,1,.84,2.14,3.17,3.17,0,0,1-.63,2.12,2.39,2.39,0,0,1-1.92.74,2.22,2.22,0,0,1-1.91-.85,2.62,2.62,0,0,1-.15-2.37h1C828.65,90.88,828.45,90.4,827.57,90.4Z"/><path class="cls-7" d="M832,89.6h7v13h1.59v.51h-8.45v-.51h1.56V90.12H832Zm4.3-2a2.66,2.66,0,0,1-2.15-.77,2.86,2.86,0,0,1-.64-1.91,2.62,2.62,0,0,1,.7-1.88,2.78,2.78,0,0,1,2.12-.74,3.14,3.14,0,0,1,2.16.67,2.42,2.42,0,0,1,.74,1.91,2.7,2.7,0,0,1-.71,2A3,3,0,0,1,836.34,87.64Z"/><path class="cls-7" d="M841.18,89.6H848v2.62a4,4,0,0,1,4.14-2.9,3.59,3.59,0,0,1,3.89,3.07,4,4,0,0,1,4.18-3.07q4.18,0,4.19,4.75v8.57H866v.51h-7.88v-.51h1V93.39c0-1.44-.12-2.29-.37-2.53a.57.57,0,0,0-.45-.17c-.55,0-1,.37-1.45,1.11a5.65,5.65,0,0,0-.63,2.81v8h1v.51H850v-.51h1V93.39c0-1.44-.12-2.29-.37-2.53a.57.57,0,0,0-.45-.17q-.79,0-1.44,1.2a6.1,6.1,0,0,0-.64,2.89v7.86h1v.51h-7.89v-.51h1.57V90.12h-1.57Z"/><path class="cls-7" d="M868.44,101.55a7.24,7.24,0,0,1-1.84-5.27,6.48,6.48,0,0,1,2.07-5.17,7.72,7.72,0,0,1,5.25-1.79q6.47,0,6.2,6.49h-8v1.11a9.65,9.65,0,0,0,.71,4.21,2.53,2.53,0,0,0,2.47,1.43q3.32,0,4.33-3.53l.51.08a5.87,5.87,0,0,1-2,3.19,6.6,6.6,0,0,1-4.22,1.14Q870.28,103.44,868.44,101.55Zm3.68-6.31h2.94V93.85a12.06,12.06,0,0,0-.27-3.15,1.07,1.07,0,0,0-1.09-.84,1.26,1.26,0,0,0-1.19.9,8.5,8.5,0,0,0-.39,3.09Z"/><path class="cls-7" d="M881.21,89.6h6.86v2.62a4.73,4.73,0,0,1,1.39-2.1,4.29,4.29,0,0,1,2.85-.8q4.41,0,4.41,4.75v8.57h1.6v.51h-8.06v-.51h1.17V93.39a6.65,6.65,0,0,0-.23-2.21.83.83,0,0,0-.83-.49,2,2,0,0,0-1.61,1.19,5.74,5.74,0,0,0-.69,2.9v7.86h1.22v.51h-8.08v-.51h1.56V90.12h-1.56Z"/><path class="cls-7" d="M900,99.08v-9H898.4V89.6H900V85.93l5.29-1.31v5H909v.52h-3.7v9.59a5.24,5.24,0,0,0,.27,2,1.1,1.1,0,0,0,1.13.63,1.84,1.84,0,0,0,1.49-.85,4.9,4.9,0,0,0,.84-2.34l.49.06a5.55,5.55,0,0,1-1.26,3.12,4.36,4.36,0,0,1-3.39,1.15,5.91,5.91,0,0,1-3.61-.94C900.38,101.87,900,100.73,900,99.08Z"/><path class="cls-7" d="M916.59,96.46h.83V94.27a14.13,14.13,0,0,0-.3-3.63,1.15,1.15,0,0,0-1.15-.92A1.66,1.66,0,0,0,915,90a.84.84,0,0,0-.41.74,2.69,2.69,0,0,0,.17,1h.71a4.1,4.1,0,0,1,.23,1.44,1.87,1.87,0,0,1-.71,1.45,2.67,2.67,0,0,1-1.8.61c-1.63,0-2.45-.78-2.45-2.36,0-2.33,2-3.5,6-3.5,2.26,0,3.82.38,4.69,1.15s1.29,2.18,1.29,4.23v5.78c0,1,.28,1.48.83,1.48s1-1,1.14-2.93l.42,0a5.71,5.71,0,0,1-.94,3.45,3.41,3.41,0,0,1-2.7.94q-3.42,0-3.93-2.11a3.16,3.16,0,0,1-1.11,1.6,3.79,3.79,0,0,1-2.16.51q-4.21,0-4.22-3.45a2.79,2.79,0,0,1,1.61-2.77A12.26,12.26,0,0,1,916.59,96.46Zm-1,5.41a.58.58,0,0,0,.6.43c.29,0,.57-.24.82-.73a4.25,4.25,0,0,0,.39-2V96.92h-.2c-1.18,0-1.77.86-1.77,2.59V100A7.12,7.12,0,0,0,915.61,101.87Z"/><path class="cls-7" d="M925.27,81.8h7v20.84h1.59v.51h-8.45v-.51H927V82.32h-1.68Z"/><path class="cls-7" d="M762,131.62l-.31-2a3.84,3.84,0,0,1-3.93,2.28,4.51,4.51,0,0,1-3.8-1.77,8.57,8.57,0,0,1-1.35-5.26q0-7.09,5.63-7.09c1.67,0,2.77.46,3.3,1.39v-8.4h-1.73v-.51H767v20.84h1.39v.51Zm-3.59-1.92a1.18,1.18,0,0,0,1.16,1,1.81,1.81,0,0,0,1.45-.74,3.35,3.35,0,0,0,.61-2.19v-6.21a4.17,4.17,0,0,0-.48-2.07,1.56,1.56,0,0,0-1.43-.86c-.62,0-1,.42-1.28,1.26a18.87,18.87,0,0,0-.34,4.38v1.48A15.88,15.88,0,0,0,758.45,129.7Z"/><path class="cls-7" d="M775.93,124.93h.83v-2.19a14.13,14.13,0,0,0-.3-3.63,1.14,1.14,0,0,0-1.15-.92,1.66,1.66,0,0,0-.93.27.84.84,0,0,0-.41.74,2.93,2.93,0,0,0,.17,1h.71a4.1,4.1,0,0,1,.23,1.44,1.87,1.87,0,0,1-.71,1.45,2.67,2.67,0,0,1-1.8.61,2.12,2.12,0,0,1-2.44-2.36c0-2.34,2-3.5,6-3.5,2.25,0,3.81.38,4.68,1.15s1.29,2.18,1.29,4.23V129c0,1,.28,1.48.83,1.48s1-1,1.14-2.94l.42,0a5.75,5.75,0,0,1-.93,3.45,3.49,3.49,0,0,1-2.71.94q-3.42,0-3.93-2.11a3,3,0,0,1-1.11,1.59,3.7,3.7,0,0,1-2.16.52q-4.22,0-4.21-3.45a2.78,2.78,0,0,1,1.6-2.77A12.12,12.12,0,0,1,775.93,124.93Zm-1,5.41a.58.58,0,0,0,.6.43c.29,0,.57-.24.82-.73a4.25,4.25,0,0,0,.39-2v-2.65h-.2c-1.18,0-1.77.86-1.77,2.59v.45A7.16,7.16,0,0,0,775,130.34Z"/><path class="cls-7" d="M784.79,118.07h6.86v2.62a4.82,4.82,0,0,1,1.39-2.11,4.35,4.35,0,0,1,2.85-.79q4.41,0,4.41,4.75v8.57h1.6v.51h-8.06v-.51H795v-9.25a6.61,6.61,0,0,0-.23-2.21.84.84,0,0,0-.83-.5c-.6,0-1.14.4-1.61,1.2a5.71,5.71,0,0,0-.69,2.9v7.86h1.22v.51h-8.08v-.51h1.56V118.58h-1.56Z"/><path class="cls-7" d="M810.24,118.3a1.87,1.87,0,0,0-1.8,1.37,13.47,13.47,0,0,0-.54,4.52v1.48a9.49,9.49,0,0,0,.63,4,2.35,2.35,0,0,0,2.3,1.22,3.38,3.38,0,0,0,2.68-1.14,5.5,5.5,0,0,0,1.28-2.59l.51.06a5.74,5.74,0,0,1-2,3.53,6.65,6.65,0,0,1-4.07,1.11,6.87,6.87,0,0,1-5.07-1.78,7.12,7.12,0,0,1-1.76-5.21,6.81,6.81,0,0,1,2-5.28,7.89,7.89,0,0,1,5.59-1.85,6.43,6.43,0,0,1,3.87,1,2.94,2.94,0,0,1,1.34,2.46,3.09,3.09,0,0,1-.64,2.17,2.34,2.34,0,0,1-1.77.68,2.61,2.61,0,0,1-1.8-.6,2.21,2.21,0,0,1-.69-1.76,4,4,0,0,1,.14-1h.94a3,3,0,0,0,.2-1A1.21,1.21,0,0,0,810.24,118.3Z"/><path class="cls-7" d="M818,130a7.24,7.24,0,0,1-1.83-5.26,6.5,6.5,0,0,1,2.06-5.17,7.71,7.71,0,0,1,5.25-1.79q6.46,0,6.21,6.49h-8v1.11a9.8,9.8,0,0,0,.71,4.21,2.54,2.54,0,0,0,2.48,1.42c2.2,0,3.64-1.17,4.33-3.53l.51.09a5.87,5.87,0,0,1-1.95,3.19,6.63,6.63,0,0,1-4.23,1.14A7.33,7.33,0,0,1,818,130Zm3.69-6.3h2.93v-1.4a12,12,0,0,0-.27-3.14,1.06,1.06,0,0,0-1.08-.84,1.28,1.28,0,0,0-1.2.89,8.86,8.86,0,0,0-.38,3.09Z"/><path class="cls-7" d="M752.3,202.7h14.8l.28,5.92h-.51a9.12,9.12,0,0,0-2.43-4.18,6.47,6.47,0,0,0-4.12-1.11h-.79v9.25h1.28a3,3,0,0,0,2.28-1,5.59,5.59,0,0,0,1.25-2.73h.42v8.43h-.48a6.73,6.73,0,0,0-1.27-3.05,2.78,2.78,0,0,0-2.2-.91h-1.28V222h3.53v.63H752.3V222H754V203.33H752.3Z"/><path class="cls-7" d="M769.39,221a7.27,7.27,0,0,1-1.84-5.27,6.44,6.44,0,0,1,2.07-5.16,7.69,7.69,0,0,1,5.25-1.8q6.46,0,6.21,6.49h-8v1.11a9.85,9.85,0,0,0,.71,4.22,2.53,2.53,0,0,0,2.48,1.42q3.3,0,4.32-3.53l.52.09a5.91,5.91,0,0,1-2,3.19,6.69,6.69,0,0,1-4.23,1.13A7.36,7.36,0,0,1,769.39,221Zm3.69-6.31H776v-1.39a12.06,12.06,0,0,0-.27-3.15,1.06,1.06,0,0,0-1.08-.84,1.27,1.27,0,0,0-1.2.9,8.86,8.86,0,0,0-.38,3.09Z"/><path class="cls-7" d="M782.1,209.08H789v2.62a3.94,3.94,0,0,1,4.14-2.91,3.59,3.59,0,0,1,3.89,3.08,4,4,0,0,1,4.18-3.08q4.19,0,4.19,4.76v8.57H807v.51h-7.88v-.51h1v-9.26c0-1.44-.12-2.28-.37-2.53a.61.61,0,0,0-.45-.17c-.55,0-1,.37-1.45,1.11a5.66,5.66,0,0,0-.63,2.82v8h1v.51h-7.32v-.51h1v-9.26a4.82,4.82,0,0,0-.37-2.53.65.65,0,0,0-.46-.17c-.53,0-1,.4-1.44,1.21a6.19,6.19,0,0,0-.64,2.89v7.86h1v.51H782.1v-.51h1.57V209.59H782.1Z"/><path class="cls-7" d="M807.27,209.08h7v13h1.6v.51h-8.46v-.51H809V209.59h-1.68Zm4.3-2a2.62,2.62,0,0,1-2.15-.77,2.84,2.84,0,0,1-.64-1.9,2.64,2.64,0,0,1,.69-1.88,2.82,2.82,0,0,1,2.12-.74,3.13,3.13,0,0,1,2.17.67,2.43,2.43,0,0,1,.74,1.9,2.74,2.74,0,0,1-.71,2A3,3,0,0,1,811.57,207.11Z"/><path class="cls-7" d="M816.46,209.08h6.86v2.62a4.73,4.73,0,0,1,1.4-2.11,4.3,4.3,0,0,1,2.84-.8q4.43,0,4.42,4.76v8.57h1.59v.51h-8.06v-.51h1.17v-9.26a6.31,6.31,0,0,0-.23-2.2.82.82,0,0,0-.82-.5,2,2,0,0,0-1.61,1.2,5.59,5.59,0,0,0-.7,2.9v7.86h1.23v.51h-8.09v-.51H818V209.59h-1.57Z"/><path class="cls-7" d="M833.83,209.08h7v13h1.6v.51h-8.46v-.51h1.57V209.59h-1.68Zm4.3-2a2.62,2.62,0,0,1-2.15-.77,2.84,2.84,0,0,1-.64-1.9,2.64,2.64,0,0,1,.69-1.88,2.8,2.8,0,0,1,2.12-.74,3.13,3.13,0,0,1,2.17.67,2.43,2.43,0,0,1,.74,1.9,2.74,2.74,0,0,1-.71,2A3,3,0,0,1,838.13,207.11Z"/><path class="cls-7" d="M843.62,222.91v-5.09H844a6.88,6.88,0,0,0,2,3.47,4.92,4.92,0,0,0,3.14,1c1.93,0,2.9-.62,2.9-1.85a1.31,1.31,0,0,0-.71-1.2,9.58,9.58,0,0,0-2.85-1,11,11,0,0,1-3.24-1.36,3.6,3.6,0,0,1-1.57-3.25,4.7,4.7,0,0,1,1.37-3.54,5,5,0,0,1,3.64-1.33,7.07,7.07,0,0,1,2.88.66,2.39,2.39,0,0,0,.82.23.7.7,0,0,0,.49-.2,3.62,3.62,0,0,0,.48-.74h.31v4.35h-.34q-1.46-3.71-4.5-3.7a3.46,3.46,0,0,0-2,.47,1.39,1.39,0,0,0-.65,1.18,1,1,0,0,0,.19.67c.14.16.24.28.32.36a1.69,1.69,0,0,0,.37.24l.42.2a5.18,5.18,0,0,0,.53.18,3.91,3.91,0,0,0,.53.15,20.91,20.91,0,0,1,2.79.84,9,9,0,0,1,1.62.86,4,4,0,0,1,1.57,3.49,4.54,4.54,0,0,1-1.43,3.64,5.72,5.72,0,0,1-3.9,1.24,7.54,7.54,0,0,1-3.41-.82,1.14,1.14,0,0,0-.54-.23q-.63,0-1.23,1Z"/><path class="cls-7" d="M856.46,218.56v-9h-1.57v-.51h1.57v-3.67l5.29-1.31v5h3.7v.51h-3.7v9.59a5.3,5.3,0,0,0,.27,2,1.1,1.1,0,0,0,1.13.63,1.83,1.83,0,0,0,1.49-.86,4.9,4.9,0,0,0,.84-2.33l.49,0a5.48,5.48,0,0,1-1.26,3.12,4.31,4.31,0,0,1-3.38,1.15,5.94,5.94,0,0,1-3.62-.94C856.88,221.35,856.46,220.21,856.46,218.56Z"/><path class="cls-7" d="M753.41,247v-9h-1.57v-.51h1.57v-3.68l5.29-1.31v5h3.7v.51h-3.7v9.59a5.34,5.34,0,0,0,.27,2,1.11,1.11,0,0,0,1.13.62,1.85,1.85,0,0,0,1.49-.85,4.9,4.9,0,0,0,.84-2.34l.48.06a5.54,5.54,0,0,1-1.25,3.12,4.32,4.32,0,0,1-3.39,1.15,5.91,5.91,0,0,1-3.61-.94C753.82,249.82,753.41,248.68,753.41,247Z"/><path class="cls-7" d="M763.2,229.75h6.86v10.42a4.71,4.71,0,0,1,1.39-2.11,4.35,4.35,0,0,1,2.85-.8q4.41,0,4.41,4.76v8.56h1.6v.52h-8.06v-.52h1.17v-9.25a6.54,6.54,0,0,0-.23-2.2.82.82,0,0,0-.82-.5,2,2,0,0,0-1.61,1.19,5.65,5.65,0,0,0-.7,2.91v7.85h1.22v.52H763.2v-.52h1.56V230.26H763.2Z"/><path class="cls-7" d="M782.71,249.49a7.27,7.27,0,0,1-1.83-5.27,6.47,6.47,0,0,1,2.06-5.17,7.76,7.76,0,0,1,5.25-1.79q6.46,0,6.21,6.49h-8v1.11a9.85,9.85,0,0,0,.71,4.22,2.56,2.56,0,0,0,2.48,1.42q3.3,0,4.33-3.53l.51.08a5.87,5.87,0,0,1-1.95,3.19,6.63,6.63,0,0,1-4.23,1.14A7.36,7.36,0,0,1,782.71,249.49Zm3.69-6.31h2.93v-1.39a12.06,12.06,0,0,0-.27-3.15,1.06,1.06,0,0,0-1.08-.84,1.27,1.27,0,0,0-1.2.9,8.86,8.86,0,0,0-.38,3.09Z"/><path class="cls-7" d="M802.26,244.41h.82v-2.2a14.13,14.13,0,0,0-.3-3.63,1.15,1.15,0,0,0-1.15-.92,1.63,1.63,0,0,0-.92.27.84.84,0,0,0-.42.74,2.93,2.93,0,0,0,.17,1h.71a3.89,3.89,0,0,1,.23,1.44,1.86,1.86,0,0,1-.71,1.45,2.63,2.63,0,0,1-1.79.62c-1.64,0-2.45-.79-2.45-2.37q0-3.49,5.95-3.5c2.26,0,3.82.39,4.68,1.15s1.3,2.18,1.3,4.23v5.78c0,1,.27,1.48.82,1.48s1-1,1.14-2.93l.43,0a5.75,5.75,0,0,1-.94,3.44,3.42,3.42,0,0,1-2.71.94q-3.4,0-3.92-2.1a3.09,3.09,0,0,1-1.11,1.59,3.84,3.84,0,0,1-2.17.51q-4.21,0-4.21-3.44a2.79,2.79,0,0,1,1.61-2.78A12.29,12.29,0,0,1,802.26,244.41Zm-1,5.41a.6.6,0,0,0,.6.42c.3,0,.57-.24.83-.72a4.47,4.47,0,0,0,.38-2v-2.65h-.2c-1.17,0-1.76.87-1.76,2.59v.46A7.38,7.38,0,0,0,801.27,249.82Z"/><path class="cls-7" d="M812.05,247v-9h-1.57v-.51h1.57v-3.68l5.3-1.31v5h3.7v.51h-3.7v9.59a5.13,5.13,0,0,0,.27,2,1.09,1.09,0,0,0,1.12.62,1.82,1.82,0,0,0,1.49-.85,4.9,4.9,0,0,0,.84-2.34l.49.06a5.54,5.54,0,0,1-1.25,3.12,4.35,4.35,0,0,1-3.39,1.15,5.94,5.94,0,0,1-3.62-.94C812.47,249.82,812.05,248.68,812.05,247Z"/><path class="cls-7" d="M831.35,238.34a2.25,2.25,0,0,0-1.85,1.37,6.34,6.34,0,0,0-.8,3.25v7.62h2v.52h-8.88v-.52h1.57V238.06h-1.57v-.51h6.86v2.73a3.84,3.84,0,0,1,3.82-3,3.11,3.11,0,0,1,2.18.76,2.71,2.71,0,0,1,.84,2.13,3.17,3.17,0,0,1-.63,2.12A2.36,2.36,0,0,1,833,243a2.18,2.18,0,0,1-1.91-.85,2.63,2.63,0,0,1-.16-2.36h1C832.42,238.83,832.22,238.34,831.35,238.34Z"/><path class="cls-7" d="M837.77,249.49a7.27,7.27,0,0,1-1.84-5.27,6.48,6.48,0,0,1,2.07-5.17,7.74,7.74,0,0,1,5.25-1.79q6.46,0,6.21,6.49h-8v1.11a9.85,9.85,0,0,0,.71,4.22,2.55,2.55,0,0,0,2.48,1.42q3.3,0,4.32-3.53l.52.08a5.87,5.87,0,0,1-2,3.19,6.63,6.63,0,0,1-4.23,1.14A7.36,7.36,0,0,1,837.77,249.49Zm3.69-6.31h2.93v-1.39a12.06,12.06,0,0,0-.27-3.15,1.06,1.06,0,0,0-1.08-.84,1.27,1.27,0,0,0-1.2.9,8.86,8.86,0,0,0-.38,3.09Z"/><path class="cls-7" d="M778,327.75h14.8l.29,5.92h-.51a9.21,9.21,0,0,0-2.44-4.18,6.46,6.46,0,0,0-4.11-1.11h-.8v9.25h1.28a3,3,0,0,0,2.28-1A5.5,5.5,0,0,0,790,333.9h.43v8.43H790a6.84,6.84,0,0,0-1.27-3.05,2.8,2.8,0,0,0-2.21-.91h-1.28v8.68h3.53v.63H778v-.63h1.68V328.38H778Z"/><path class="cls-7" d="M794.43,334.13h7v13H803v.51h-8.46v-.51h1.57V334.64h-1.68Zm4.29-2a2.64,2.64,0,0,1-2.14-.76,2.89,2.89,0,0,1-.65-1.91,2.65,2.65,0,0,1,.7-1.88,2.8,2.8,0,0,1,2.12-.74,3.13,3.13,0,0,1,2.17.67,2.44,2.44,0,0,1,.74,1.91,2.73,2.73,0,0,1-.71,2A3,3,0,0,1,798.72,332.16Z"/><path class="cls-7" d="M803.45,326.33h7v20.84H812v.51h-8.46v-.51h1.57V326.84h-1.68Z"/><path class="cls-7" d="M812.56,334.13h6.86v2.62a3.94,3.94,0,0,1,4.14-2.91,3.59,3.59,0,0,1,3.89,3.08,4,4,0,0,1,4.18-3.08q4.18,0,4.19,4.76v8.57h1.59v.51h-7.88v-.51h1v-9.26c0-1.44-.12-2.28-.37-2.53a.61.61,0,0,0-.45-.17c-.55,0-1,.37-1.45,1.11a5.66,5.66,0,0,0-.63,2.82v8h1v.51h-7.31v-.51h1v-9.26c0-1.44-.12-2.28-.37-2.53a.61.61,0,0,0-.45-.17c-.53,0-1,.4-1.44,1.21a6.07,6.07,0,0,0-.64,2.89v7.86h1v.51h-7.89v-.51h1.56V334.64h-1.56Z"/><polygon class="cls-19" points="740.73 101.56 722.16 112.16 720.37 133.46 704.55 119.08 683.74 123.96 692.53 104.47 681.46 86.18 702.71 88.52 716.67 72.34 721.02 93.27 740.73 101.56"/><polygon class="cls-20" points="414.95 313.97 414.03 335.33 431.1 348.2 410.51 353.92 403.55 374.13 391.74 356.31 370.37 355.94 383.66 339.2 377.42 318.76 397.44 326.23 414.95 313.97"/><polygon class="cls-21" points="394.74 72.82 393.82 94.18 410.89 107.04 390.29 112.77 383.33 132.98 371.52 115.16 350.15 114.78 363.45 98.05 357.2 77.6 377.23 85.08 394.74 72.82"/><polygon class="cls-22" points="423.7 201.42 417.38 221.84 430.61 238.62 409.24 238.92 397.37 256.7 390.48 236.46 369.9 230.67 387.02 217.86 386.18 196.5 403.64 208.82 423.7 201.42"/><path class="cls-7" d="M430.63,88.89q0,5.86-3.3,8.17-3,2.14-8.37,2.14H410.9v-.54h1.88V79.81H410.9v-.54h8.8q5.46,0,8.2,2.23C429.72,83,430.63,85.46,430.63,88.89Zm-12.3,9.77h1.08a4.44,4.44,0,0,0,4.12-2q1.23-2,1.23-6.82V88.15q0-6.41-2.44-7.71a7.08,7.08,0,0,0-3.31-.63h-.68Z"/><path class="cls-7" d="M438.77,92.51h.83V90.32a14,14,0,0,0-.3-3.63,1.16,1.16,0,0,0-1.16-.93,1.63,1.63,0,0,0-.92.27.83.83,0,0,0-.41.74,2.69,2.69,0,0,0,.17,1h.71a4.1,4.1,0,0,1,.23,1.44,1.84,1.84,0,0,1-.72,1.45,2.63,2.63,0,0,1-1.79.62A2.13,2.13,0,0,1,433,88.86c0-2.33,2-3.5,6-3.5,2.26,0,3.82.39,4.69,1.15s1.29,2.18,1.29,4.23v5.78c0,1,.28,1.48.83,1.48s1-1,1.14-2.93l.42,0a5.68,5.68,0,0,1-.94,3.44,3.41,3.41,0,0,1-2.7.94q-3.42,0-3.93-2.1A3.09,3.09,0,0,1,438.6,99a3.79,3.79,0,0,1-2.16.51q-4.21,0-4.22-3.44a2.79,2.79,0,0,1,1.61-2.78A12.29,12.29,0,0,1,438.77,92.51Zm-1,5.41a.58.58,0,0,0,.6.42c.29,0,.57-.24.82-.72a4.32,4.32,0,0,0,.39-2V93h-.2c-1.18,0-1.77.87-1.77,2.59V96A6.79,6.79,0,0,0,437.79,97.92Z"/><path class="cls-7" d="M447.62,85.65h6.87v2.62a4.63,4.63,0,0,1,1.39-2.11,4.35,4.35,0,0,1,2.85-.8q4.41,0,4.41,4.76v8.56h1.59v.52h-8.05v-.52h1.16V89.43a6.63,6.63,0,0,0-.22-2.2.83.83,0,0,0-.83-.5c-.61,0-1.14.4-1.61,1.19a5.75,5.75,0,0,0-.69,2.91v7.85h1.22v.52h-8.09v-.52h1.57V86.16h-1.57Z"/><path class="cls-7" d="M473.08,85.87a1.87,1.87,0,0,0-1.8,1.37,13.49,13.49,0,0,0-.54,4.53v1.48a9.44,9.44,0,0,0,.63,4,2.33,2.33,0,0,0,2.3,1.22,3.42,3.42,0,0,0,2.68-1.13,5.54,5.54,0,0,0,1.28-2.6l.51.06a5.74,5.74,0,0,1-2,3.53,6.65,6.65,0,0,1-4.07,1.11A6.82,6.82,0,0,1,467,97.7a7.07,7.07,0,0,1-1.76-5.21,6.87,6.87,0,0,1,2-5.28,8,8,0,0,1,5.6-1.85,6.5,6.5,0,0,1,3.87,1,3,3,0,0,1,1.34,2.47,3.13,3.13,0,0,1-.64,2.16,2.3,2.3,0,0,1-1.77.68,2.7,2.7,0,0,1-1.81-.59,2.25,2.25,0,0,1-.68-1.77,4,4,0,0,1,.14-1h.94a3.27,3.27,0,0,0,.2-1A1.21,1.21,0,0,0,473.08,85.87Z"/><path class="cls-7" d="M480.83,97.59A7.27,7.27,0,0,1,479,92.32a6.47,6.47,0,0,1,2.06-5.17,7.76,7.76,0,0,1,5.25-1.79q6.46,0,6.21,6.49h-8V93a9.85,9.85,0,0,0,.71,4.22,2.54,2.54,0,0,0,2.48,1.42q3.3,0,4.33-3.53l.51.08a5.87,5.87,0,0,1-1.95,3.19,6.63,6.63,0,0,1-4.23,1.14A7.36,7.36,0,0,1,480.83,97.59Zm3.69-6.31h2.93V89.89a12.06,12.06,0,0,0-.27-3.15,1.06,1.06,0,0,0-1.08-.84,1.27,1.27,0,0,0-1.2.9,8.86,8.86,0,0,0-.38,3.09Z"/><path class="cls-7" d="M505.5,92.51h.82V90.32a14.65,14.65,0,0,0-.29-3.63,1.16,1.16,0,0,0-1.16-.93A1.63,1.63,0,0,0,504,86a.84.84,0,0,0-.42.74,2.71,2.71,0,0,0,.18,1h.71a4.1,4.1,0,0,1,.23,1.44,1.84,1.84,0,0,1-.72,1.45,2.63,2.63,0,0,1-1.79.62,2.13,2.13,0,0,1-2.45-2.37q0-3.49,5.95-3.5c2.26,0,3.82.39,4.68,1.15s1.3,2.18,1.3,4.23v5.78c0,1,.27,1.48.83,1.48s1-1,1.13-2.93l.43,0a5.68,5.68,0,0,1-.94,3.44,3.41,3.41,0,0,1-2.7.94q-3.42,0-3.93-2.1A3.09,3.09,0,0,1,505.33,99a3.84,3.84,0,0,1-2.17.51c-2.8,0-4.21-1.15-4.21-3.44a2.79,2.79,0,0,1,1.61-2.78A12.29,12.29,0,0,1,505.5,92.51Zm-1,5.41a.58.58,0,0,0,.59.42c.3,0,.57-.24.83-.72a4.33,4.33,0,0,0,.38-2V93h-.19c-1.18,0-1.77.87-1.77,2.59V96A6.79,6.79,0,0,0,504.52,97.92Z"/><path class="cls-7" d="M515,99.48V94.39h.34a6.86,6.86,0,0,0,2,3.47,4.87,4.87,0,0,0,3.13,1c1.93,0,2.9-.62,2.9-1.85a1.3,1.3,0,0,0-.71-1.2,9.58,9.58,0,0,0-2.85-1,11.29,11.29,0,0,1-3.24-1.36A3.6,3.6,0,0,1,515,90.23a4.7,4.7,0,0,1,1.37-3.54A5,5,0,0,1,520,85.36a7.07,7.07,0,0,1,2.88.66,2.33,2.33,0,0,0,.82.22.66.66,0,0,0,.49-.2,3.12,3.12,0,0,0,.48-.74h.31v4.36h-.34q-1.46-3.7-4.5-3.7a3.46,3.46,0,0,0-2,.47,1.39,1.39,0,0,0-.65,1.18,1,1,0,0,0,.19.67c.14.16.24.28.32.36a1.69,1.69,0,0,0,.37.24l.42.2c.12,0,.29.11.53.18a2.62,2.62,0,0,0,.53.14,24.47,24.47,0,0,1,2.79.84,9.7,9.7,0,0,1,1.62.87,4,4,0,0,1,1.57,3.49,4.56,4.56,0,0,1-1.43,3.64,5.72,5.72,0,0,1-3.9,1.24,7.54,7.54,0,0,1-3.41-.82,1,1,0,0,0-.54-.23q-.63,0-1.23,1Z"/><path class="cls-7" d="M538.58,85.65V87.9a4,4,0,0,1,3.93-2.54,4.51,4.51,0,0,1,3.8,1.77,8.74,8.74,0,0,1,1.35,5.35q0,3.58-1.47,5.29a5.45,5.45,0,0,1-4.39,1.71,4.69,4.69,0,0,1-2-.34,2.67,2.67,0,0,1-1.11-1v7.37h3.67V106H531.77v-.51h1.57V86.16h-1.51v-.51Zm3.3,1.95c-.19-.68-.56-1-1.11-1a1.82,1.82,0,0,0-1.48,1.06,5.43,5.43,0,0,0-.65,2.86v5.21a4.18,4.18,0,0,0,.48,2.08,1.55,1.55,0,0,0,1.42.86c.63,0,1.06-.42,1.28-1.26a18.72,18.72,0,0,0,.35-4.38V91.54A17.3,17.3,0,0,0,541.88,87.6Z"/><path class="cls-7" d="M550.56,97.66a7.08,7.08,0,0,1-1.82-5.22,6.84,6.84,0,0,1,2-5.24,7.66,7.66,0,0,1,5.48-1.84,7.29,7.29,0,0,1,5.27,1.7,6.89,6.89,0,0,1,1.74,5.16q0,7.26-7.24,7.26A7.33,7.33,0,0,1,550.56,97.66Zm7.15-4.07V91.17a19.35,19.35,0,0,0-.3-4c-.2-.84-.66-1.27-1.38-1.27a1.42,1.42,0,0,0-1,.36,2.21,2.21,0,0,0-.56,1.18,22,22,0,0,0-.25,3.9v2.22a20.82,20.82,0,0,0,.18,3.73,6.43,6.43,0,0,0,.39,1A1.21,1.21,0,0,0,556,99a1.45,1.45,0,0,0,1.45-1.28A19.69,19.69,0,0,0,557.71,93.59Z"/><path class="cls-7" d="M563.86,77.85h7V98.68h1.6v.52H564v-.52h1.57V78.36h-1.68Z"/><path class="cls-7" d="M572.85,85.65h7v13h1.59v.52H573v-.52h1.56V86.16h-1.68Zm4.3-2a2.65,2.65,0,0,1-2.15-.77,2.89,2.89,0,0,1-.64-1.9,2.61,2.61,0,0,1,.7-1.88,2.76,2.76,0,0,1,2.12-.74,3.09,3.09,0,0,1,2.16.67,2.4,2.4,0,0,1,.74,1.9,2.7,2.7,0,0,1-.71,2A2.92,2.92,0,0,1,577.15,83.68Z"/><path class="cls-7" d="M583.42,95.13v-9h-1.57v-.51h1.57V82l5.29-1.31v5h3.7v.51h-3.7v9.59a5.34,5.34,0,0,0,.27,2,1.1,1.1,0,0,0,1.12.62,1.85,1.85,0,0,0,1.5-.85,4.9,4.9,0,0,0,.84-2.34l.48.06a5.54,5.54,0,0,1-1.25,3.12,4.32,4.32,0,0,1-3.39,1.15,5.91,5.91,0,0,1-3.61-.94C583.83,97.92,583.42,96.78,583.42,95.13Z"/><path class="cls-7" d="M593.09,85.65h7v13h1.59v.52h-8.45v-.52h1.56V86.16h-1.68Zm4.3-2a2.65,2.65,0,0,1-2.15-.77,2.89,2.89,0,0,1-.64-1.9,2.61,2.61,0,0,1,.7-1.88,2.76,2.76,0,0,1,2.12-.74,3.09,3.09,0,0,1,2.16.67,2.4,2.4,0,0,1,.74,1.9,2.7,2.7,0,0,1-.71,2A2.92,2.92,0,0,1,597.39,83.68Z"/><path class="cls-7" d="M610.2,85.87a1.86,1.86,0,0,0-1.79,1.37,13.49,13.49,0,0,0-.54,4.53v1.48a9.63,9.63,0,0,0,.62,4,2.35,2.35,0,0,0,2.31,1.22,3.42,3.42,0,0,0,2.68-1.13,5.54,5.54,0,0,0,1.28-2.6l.51.06a5.74,5.74,0,0,1-2,3.53,6.67,6.67,0,0,1-4.07,1.11,6.81,6.81,0,0,1-5.07-1.78,7.07,7.07,0,0,1-1.77-5.21,6.84,6.84,0,0,1,2-5.28A8,8,0,0,1,610,85.36a6.56,6.56,0,0,1,3.88,1,3,3,0,0,1,1.33,2.47,3.08,3.08,0,0,1-.64,2.16,2.26,2.26,0,0,1-1.76.68,2.7,2.7,0,0,1-1.81-.59,2.25,2.25,0,0,1-.68-1.77,4,4,0,0,1,.14-1h.94a3.27,3.27,0,0,0,.2-1A1.21,1.21,0,0,0,610.2,85.87Z"/><path class="cls-7" d="M622.81,92.51h.83V90.32a14,14,0,0,0-.3-3.63,1.15,1.15,0,0,0-1.15-.93,1.68,1.68,0,0,0-.93.27.85.85,0,0,0-.41.74,2.93,2.93,0,0,0,.17,1h.71a4.1,4.1,0,0,1,.23,1.44,1.86,1.86,0,0,1-.71,1.45,2.66,2.66,0,0,1-1.8.62A2.12,2.12,0,0,1,617,88.86q0-3.49,6-3.5c2.25,0,3.82.39,4.68,1.15s1.29,2.18,1.29,4.23v5.78c0,1,.28,1.48.83,1.48s1-1,1.14-2.93l.43,0a5.75,5.75,0,0,1-.94,3.44,3.44,3.44,0,0,1-2.71.94q-3.42,0-3.93-2.1A3,3,0,0,1,622.64,99a3.79,3.79,0,0,1-2.16.51q-4.22,0-4.21-3.44a2.79,2.79,0,0,1,1.6-2.78A12.33,12.33,0,0,1,622.81,92.51Zm-1,5.41a.59.59,0,0,0,.6.42c.29,0,.57-.24.82-.72a4.32,4.32,0,0,0,.39-2V93h-.2c-1.18,0-1.77.87-1.77,2.59V96A7.22,7.22,0,0,0,621.83,97.92Z"/><path class="cls-7" d="M631.5,77.85h7V98.68h1.6v.52h-8.46v-.52h1.57V78.36H631.5Z"/><path class="cls-7" d="M420.27,127.67l-.32-2Q419,128,416,128a4.52,4.52,0,0,1-3.8-1.77,8.57,8.57,0,0,1-1.35-5.26q0-7.1,5.64-7.09c1.67,0,2.77.47,3.3,1.39v-8.39h-1.74v-.52h7.12v20.84h1.4v.52Zm-3.59-1.93c.21.66.59,1,1.15,1a1.83,1.83,0,0,0,1.45-.74,3.39,3.39,0,0,0,.62-2.2v-6.2a4.18,4.18,0,0,0-.49-2.08,1.54,1.54,0,0,0-1.42-.85c-.63,0-1.05.41-1.28,1.25a18.87,18.87,0,0,0-.34,4.38v1.48A15.82,15.82,0,0,0,416.68,125.74Z"/><path class="cls-7" d="M427.21,114.11h7v13h1.59v.52h-8.45v-.52h1.56V114.63h-1.68Zm4.3-2a2.66,2.66,0,0,1-2.15-.77,2.86,2.86,0,0,1-.64-1.91,2.64,2.64,0,0,1,.7-1.88,2.78,2.78,0,0,1,2.12-.73,3.14,3.14,0,0,1,2.16.66,2.44,2.44,0,0,1,.74,1.91,2.7,2.7,0,0,1-.71,2A3,3,0,0,1,431.51,112.15Z"/><path class="cls-7" d="M437,128v-5.1h.35a6.78,6.78,0,0,0,2,3.48,4.88,4.88,0,0,0,3.13,1c1.94,0,2.9-.61,2.9-1.85a1.27,1.27,0,0,0-.71-1.19,9.61,9.61,0,0,0-2.84-1,11.08,11.08,0,0,1-3.25-1.37A3.6,3.6,0,0,1,437,118.7a4.74,4.74,0,0,1,1.37-3.55,5,5,0,0,1,3.65-1.32,7.17,7.17,0,0,1,2.87.65,2.22,2.22,0,0,0,.83.23.62.62,0,0,0,.48-.2,3.35,3.35,0,0,0,.48-.74H447v4.36h-.34q-1.46-3.7-4.5-3.7a3.36,3.36,0,0,0-2,.47,1.39,1.39,0,0,0-.66,1.18,1,1,0,0,0,.2.67c.13.16.24.28.31.35a1.56,1.56,0,0,0,.37.25l.43.19c.11,0,.29.11.53.19a3.5,3.5,0,0,0,.52.14,24.47,24.47,0,0,1,2.79.84,10.2,10.2,0,0,1,1.63.87,3.94,3.94,0,0,1,1.56,3.49,4.55,4.55,0,0,1-1.42,3.64,5.72,5.72,0,0,1-3.9,1.24,7.56,7.56,0,0,1-3.42-.83,1.1,1.1,0,0,0-.54-.22c-.42,0-.82.35-1.22,1Z"/><path class="cls-7" d="M456.68,114.34a1.87,1.87,0,0,0-1.8,1.37,13.47,13.47,0,0,0-.54,4.52v1.49a9.47,9.47,0,0,0,.63,4,2.35,2.35,0,0,0,2.3,1.22,3.38,3.38,0,0,0,2.68-1.14,5.5,5.5,0,0,0,1.28-2.59l.51.06a5.74,5.74,0,0,1-2,3.53,6.65,6.65,0,0,1-4.07,1.11,6.82,6.82,0,0,1-5.07-1.78,7.12,7.12,0,0,1-1.76-5.21,6.84,6.84,0,0,1,2-5.28,8,8,0,0,1,5.6-1.85,6.5,6.5,0,0,1,3.87,1,3,3,0,0,1,1.34,2.46,3.14,3.14,0,0,1-.64,2.17,2.34,2.34,0,0,1-1.77.68,2.65,2.65,0,0,1-1.81-.6,2.22,2.22,0,0,1-.68-1.76,4.12,4.12,0,0,1,.14-1h.94a3,3,0,0,0,.2-1A1.21,1.21,0,0,0,456.68,114.34Z"/><path class="cls-7" d="M464.5,126.13a7.11,7.11,0,0,1-1.82-5.23,6.83,6.83,0,0,1,1.95-5.23,7.66,7.66,0,0,1,5.48-1.84c2.36,0,4.11.56,5.27,1.69a6.93,6.93,0,0,1,1.74,5.17q0,7.26-7.24,7.26A7.33,7.33,0,0,1,464.5,126.13Zm7.15-4.07v-2.42a19.28,19.28,0,0,0-.3-4c-.2-.85-.66-1.27-1.38-1.27a1.42,1.42,0,0,0-1,.36,2.21,2.21,0,0,0-.56,1.18,21.8,21.8,0,0,0-.25,3.9V122a20.82,20.82,0,0,0,.18,3.73,5.93,5.93,0,0,0,.39,1,1.2,1.2,0,0,0,1.22.69,1.45,1.45,0,0,0,1.45-1.28A19.69,19.69,0,0,0,471.65,122.06Z"/><path class="cls-7" d="M494.57,127.67h-6.49l-.32-2.08a3.69,3.69,0,0,1-1.35,1.75,4.71,4.71,0,0,1-2.66.61q-4.41,0-4.41-4.75v-8.57h-1.6v-.52h6.89v9.77a6.66,6.66,0,0,0,.24,2.25,1,1,0,0,0,1,.54,1.58,1.58,0,0,0,1.3-.88,4.51,4.51,0,0,0,.57-2.45v-8.71H486.4v-.52H493v13h1.57Z"/><path class="cls-7" d="M504.64,114.91c-.7,0-1.31.46-1.85,1.37a6.32,6.32,0,0,0-.79,3.24v7.63h2v.52h-8.88v-.52h1.56V114.63h-1.56v-.52H502v2.74a3.87,3.87,0,0,1,1.42-2.24,3.91,3.91,0,0,1,2.39-.78,3.16,3.16,0,0,1,2.18.75,2.74,2.74,0,0,1,.84,2.14,3.17,3.17,0,0,1-.63,2.12,2.37,2.37,0,0,1-1.92.74,2.19,2.19,0,0,1-1.91-.85,2.66,2.66,0,0,1-.15-2.37h1C505.72,115.4,505.52,114.91,504.64,114.91Z"/><path class="cls-7" d="M509.54,128v-5.1h.34a6.85,6.85,0,0,0,2,3.48,4.87,4.87,0,0,0,3.13,1c1.93,0,2.9-.61,2.9-1.85a1.28,1.28,0,0,0-.71-1.19,9.58,9.58,0,0,0-2.85-1,11,11,0,0,1-3.24-1.37,3.57,3.57,0,0,1-1.57-3.24,4.74,4.74,0,0,1,1.37-3.55,5,5,0,0,1,3.64-1.32,7.22,7.22,0,0,1,2.88.65,2.18,2.18,0,0,0,.82.23.66.66,0,0,0,.49-.2,3.35,3.35,0,0,0,.48-.74h.31v4.36h-.34q-1.46-3.7-4.5-3.7a3.38,3.38,0,0,0-2,.47,1.38,1.38,0,0,0-.65,1.18,1,1,0,0,0,.2.67,3.2,3.2,0,0,0,.31.35,1.37,1.37,0,0,0,.37.25,4.46,4.46,0,0,0,.43.19l.52.19a3.89,3.89,0,0,0,.53.14,24.47,24.47,0,0,1,2.79.84,9.7,9.7,0,0,1,1.62.87,3.92,3.92,0,0,1,1.57,3.49,4.56,4.56,0,0,1-1.43,3.64,5.71,5.71,0,0,1-3.9,1.24,7.55,7.55,0,0,1-3.41-.83,1.1,1.1,0,0,0-.54-.22q-.63,0-1.23,1Z"/><path class="cls-7" d="M523.22,126.06a7.29,7.29,0,0,1-1.84-5.27,6.48,6.48,0,0,1,2.07-5.17,7.72,7.72,0,0,1,5.25-1.79q6.46,0,6.21,6.49h-8v1.11a9.77,9.77,0,0,0,.71,4.21,2.54,2.54,0,0,0,2.48,1.43q3.3,0,4.32-3.53l.52.08a5.87,5.87,0,0,1-1.95,3.19,6.63,6.63,0,0,1-4.23,1.14Q525.05,128,523.22,126.06Zm3.69-6.31h2.93v-1.39a12.06,12.06,0,0,0-.27-3.15,1.06,1.06,0,0,0-1.08-.84,1.27,1.27,0,0,0-1.2.9,8.59,8.59,0,0,0-.38,3.09Z"/><path class="cls-7" d="M472.65,211.88c0,3.91-1.1,6.64-3.3,8.17q-3,2.14-8.37,2.14h-8.06v-.54h1.88V202.8h-1.88v-.54h8.8c3.64,0,6.38.74,8.2,2.23S472.65,208.45,472.65,211.88Zm-12.3,9.77h1.08a4.44,4.44,0,0,0,4.12-2c.82-1.36,1.24-3.63,1.24-6.82v-1.65q0-6.4-2.45-7.71a7.06,7.06,0,0,0-3.3-.63h-.69Z"/><path class="cls-7" d="M480.79,215.5h.83v-2.19a14,14,0,0,0-.3-3.63,1.15,1.15,0,0,0-1.15-.93,1.66,1.66,0,0,0-.93.27.85.85,0,0,0-.41.74,2.93,2.93,0,0,0,.17,1h.71a4.1,4.1,0,0,1,.23,1.44,1.86,1.86,0,0,1-.71,1.45,2.68,2.68,0,0,1-1.8.62,2.12,2.12,0,0,1-2.44-2.37q0-3.49,5.95-3.5c2.25,0,3.81.39,4.68,1.15s1.29,2.18,1.29,4.23v5.78c0,1,.28,1.48.83,1.48s1-1,1.14-2.93l.42,0a5.69,5.69,0,0,1-.93,3.44,3.45,3.45,0,0,1-2.71.94q-3.42,0-3.93-2.1a3,3,0,0,1-1.11,1.59,3.79,3.79,0,0,1-2.16.51q-4.21,0-4.21-3.44a2.8,2.8,0,0,1,1.6-2.78A12.33,12.33,0,0,1,480.79,215.5Zm-1,5.41a.58.58,0,0,0,.6.42c.29,0,.57-.24.82-.72a4.32,4.32,0,0,0,.39-2V216h-.2c-1.18,0-1.77.87-1.77,2.59V219A7.22,7.22,0,0,0,479.81,220.91Z"/><path class="cls-7" d="M489.65,208.64h6.86v2.62a4.71,4.71,0,0,1,1.39-2.11,4.35,4.35,0,0,1,2.85-.8q4.41,0,4.41,4.76v8.57h1.6v.51H498.7v-.51h1.17v-9.26a6.54,6.54,0,0,0-.23-2.2.82.82,0,0,0-.83-.5,2,2,0,0,0-1.61,1.19,5.75,5.75,0,0,0-.69,2.91v7.86h1.22v.51h-8.08v-.51h1.56V209.15h-1.56Z"/><path class="cls-7" d="M515.1,208.86a1.87,1.87,0,0,0-1.8,1.37,13.49,13.49,0,0,0-.54,4.53v1.48a9.44,9.44,0,0,0,.63,4,2.34,2.34,0,0,0,2.3,1.22,3.4,3.4,0,0,0,2.68-1.13,5.55,5.55,0,0,0,1.28-2.59l.51.05a5.74,5.74,0,0,1-2,3.53,6.65,6.65,0,0,1-4.07,1.11,6.82,6.82,0,0,1-5.07-1.78,7.11,7.11,0,0,1-1.76-5.21,6.84,6.84,0,0,1,2-5.28,7.94,7.94,0,0,1,5.59-1.85,6.5,6.5,0,0,1,3.87,1,3,3,0,0,1,1.34,2.47,3.08,3.08,0,0,1-.64,2.16,2.3,2.3,0,0,1-1.77.68,2.65,2.65,0,0,1-1.8-.59,2.22,2.22,0,0,1-.69-1.77,3.6,3.6,0,0,1,.15-1h.93a3,3,0,0,0,.2-1A1.21,1.21,0,0,0,515.1,208.86Z"/><path class="cls-7" d="M522.85,220.58a7.27,7.27,0,0,1-1.83-5.27,6.47,6.47,0,0,1,2.06-5.16,7.71,7.71,0,0,1,5.25-1.8q6.46,0,6.21,6.49h-8V216a9.85,9.85,0,0,0,.71,4.22,2.54,2.54,0,0,0,2.48,1.42q3.3,0,4.33-3.53l.51.09a5.88,5.88,0,0,1-1.95,3.18,6.63,6.63,0,0,1-4.23,1.14A7.36,7.36,0,0,1,522.85,220.58Zm3.69-6.31h2.93v-1.39a12.06,12.06,0,0,0-.27-3.15,1.06,1.06,0,0,0-1.08-.84,1.27,1.27,0,0,0-1.2.9,8.86,8.86,0,0,0-.38,3.09Z"/><path class="cls-7" d="M454,246.58v-9h-1.56v-.52H454v-3.67l5.3-1.31v5H463v.52h-3.7v9.59a5.34,5.34,0,0,0,.27,2,1.09,1.09,0,0,0,1.12.62,1.85,1.85,0,0,0,1.5-.85,5.12,5.12,0,0,0,.84-2.34l.48.06a5.54,5.54,0,0,1-1.25,3.12,4.32,4.32,0,0,1-3.39,1.15,5.91,5.91,0,0,1-3.61-.94C454.45,249.37,454,248.24,454,246.58Z"/><path class="cls-7" d="M463.83,229.3h6.86v10.42a4.73,4.73,0,0,1,1.39-2.1,4.35,4.35,0,0,1,2.85-.8c2.94,0,4.41,1.59,4.41,4.75v8.57h1.59v.52h-8.05v-.52h1.17v-9.25a6.54,6.54,0,0,0-.23-2.2.82.82,0,0,0-.83-.5c-.61,0-1.14.4-1.61,1.19a5.75,5.75,0,0,0-.69,2.91v7.85h1.22v.52h-8.08v-.52h1.56V229.82h-1.56Z"/><path class="cls-7" d="M483.34,249.05a7.27,7.27,0,0,1-1.84-5.27,6.48,6.48,0,0,1,2.07-5.17,7.74,7.74,0,0,1,5.25-1.79q6.46,0,6.21,6.49h-8v1.11a9.77,9.77,0,0,0,.71,4.21,2.54,2.54,0,0,0,2.48,1.43q3.3,0,4.32-3.53l.52.08a5.87,5.87,0,0,1-1.95,3.19,6.63,6.63,0,0,1-4.23,1.14Q485.17,250.94,483.34,249.05Zm3.69-6.31H490v-1.39a12.06,12.06,0,0,0-.27-3.15,1.06,1.06,0,0,0-1.08-.84,1.27,1.27,0,0,0-1.2.9,8.86,8.86,0,0,0-.38,3.09Z"/><path class="cls-7" d="M502.88,244h.83v-2.2a14.13,14.13,0,0,0-.3-3.63,1.15,1.15,0,0,0-1.15-.92,1.68,1.68,0,0,0-.93.27.85.85,0,0,0-.41.74,2.93,2.93,0,0,0,.17,1h.71a4.1,4.1,0,0,1,.23,1.44,1.87,1.87,0,0,1-.71,1.45,2.65,2.65,0,0,1-1.8.61c-1.63,0-2.44-.78-2.44-2.36q0-3.49,5.95-3.5c2.25,0,3.82.38,4.68,1.15s1.29,2.18,1.29,4.23V248c0,1,.28,1.48.83,1.48s1-1,1.14-2.93l.43,0a5.77,5.77,0,0,1-.94,3.44,3.44,3.44,0,0,1-2.71.94q-3.42,0-3.93-2.11a3,3,0,0,1-1.11,1.6,3.79,3.79,0,0,1-2.16.51q-4.21,0-4.21-3.44a2.79,2.79,0,0,1,1.6-2.78A12.33,12.33,0,0,1,502.88,244Zm-1,5.4a.59.59,0,0,0,.6.43c.29,0,.57-.24.82-.72a4.32,4.32,0,0,0,.39-2v-2.65h-.2c-1.18,0-1.77.87-1.77,2.59v.46A7.12,7.12,0,0,0,501.9,249.37Z"/><path class="cls-7" d="M512.68,246.58v-9h-1.57v-.52h1.57v-3.67l5.29-1.31v5h3.7v.52H518v9.59a5.34,5.34,0,0,0,.27,2,1.11,1.11,0,0,0,1.13.62,1.84,1.84,0,0,0,1.49-.85,4.9,4.9,0,0,0,.84-2.34l.49.06a5.55,5.55,0,0,1-1.26,3.12,4.32,4.32,0,0,1-3.39,1.15,5.91,5.91,0,0,1-3.61-.94C513.09,249.37,512.68,248.24,512.68,246.58Z"/><path class="cls-7" d="M532,237.9a2.25,2.25,0,0,0-1.85,1.37,6.33,6.33,0,0,0-.8,3.24v7.63h2v.52h-8.88v-.52H524V237.62h-1.57v-.52h6.86v2.74a3.82,3.82,0,0,1,3.81-3,3.14,3.14,0,0,1,2.18.75,2.74,2.74,0,0,1,.84,2.14,3.23,3.23,0,0,1-.62,2.12,2.39,2.39,0,0,1-1.92.74,2.18,2.18,0,0,1-1.91-.85,2.65,2.65,0,0,1-.16-2.37h1C533.05,238.39,532.85,237.9,532,237.9Z"/><path class="cls-7" d="M538.4,249.05a7.23,7.23,0,0,1-1.84-5.27,6.48,6.48,0,0,1,2.07-5.17,7.72,7.72,0,0,1,5.25-1.79q6.47,0,6.2,6.49h-8v1.11a9.62,9.62,0,0,0,.71,4.21,2.53,2.53,0,0,0,2.47,1.43q3.32,0,4.33-3.53l.51.08a5.87,5.87,0,0,1-2,3.19,6.6,6.6,0,0,1-4.22,1.14Q540.24,250.94,538.4,249.05Zm3.68-6.31H545v-1.39a12.06,12.06,0,0,0-.27-3.15,1.07,1.07,0,0,0-1.09-.84,1.25,1.25,0,0,0-1.19.9,8.57,8.57,0,0,0-.39,3.09Z"/><path class="cls-7" d="M478.77,340.15c0,3.91-1.1,6.64-3.3,8.17q-3,2.15-8.37,2.14H459v-.54h1.88V331.07H459v-.54h8.8q5.48,0,8.2,2.24T478.77,340.15Zm-12.3,9.77h1.09a4.44,4.44,0,0,0,4.11-2c.83-1.35,1.24-3.63,1.24-6.82v-1.65q0-6.41-2.45-7.71a7.06,7.06,0,0,0-3.3-.63h-.69Z"/><path class="cls-7" d="M489.73,337.7a2.25,2.25,0,0,0-1.85,1.37,6.34,6.34,0,0,0-.79,3.25V350h2v.51h-8.89V350h1.57V337.42h-1.57v-.51h6.87v2.73a3.81,3.81,0,0,1,1.42-2.23,3.86,3.86,0,0,1,2.39-.79,3.11,3.11,0,0,1,2.18.76,2.71,2.71,0,0,1,.84,2.13,3.17,3.17,0,0,1-.63,2.12,2.36,2.36,0,0,1-1.92.74,2.19,2.19,0,0,1-1.91-.85,2.61,2.61,0,0,1-.15-2.36h1C490.81,338.19,490.61,337.7,489.73,337.7Z"/><path class="cls-7" d="M500.72,343.77h.83v-2.19a14,14,0,0,0-.3-3.63,1.16,1.16,0,0,0-1.15-.93,1.64,1.64,0,0,0-.93.27.83.83,0,0,0-.41.74,2.78,2.78,0,0,0,.17,1h.71a4,4,0,0,1,.23,1.43,1.89,1.89,0,0,1-.71,1.46,2.72,2.72,0,0,1-1.8.61,2.13,2.13,0,0,1-2.45-2.37c0-2.33,2-3.5,5.95-3.5,2.26,0,3.82.39,4.69,1.16s1.29,2.17,1.29,4.22v5.78c0,1,.28,1.48.83,1.48s1-1,1.14-2.93l.42,0a5.68,5.68,0,0,1-.94,3.44,3.41,3.41,0,0,1-2.7.94q-3.42,0-3.93-2.1a3.09,3.09,0,0,1-1.11,1.59,3.79,3.79,0,0,1-2.16.51q-4.22,0-4.22-3.44a2.8,2.8,0,0,1,1.61-2.78A12.29,12.29,0,0,1,500.72,343.77Zm-1,5.41a.58.58,0,0,0,.6.42c.29,0,.57-.24.82-.72a4.3,4.3,0,0,0,.39-2v-2.65h-.2c-1.18,0-1.77.87-1.77,2.59v.46A6.79,6.79,0,0,0,499.74,349.18Z"/><path class="cls-7" d="M520.79,335.43l.8-.49c.11-.58-.11-.88-.68-.88-.82,0-1.23.63-1.23,1.88a8.91,8.91,0,0,0,.2,1.71,4.33,4.33,0,0,1,2.16,3.71,4.27,4.27,0,0,1-1.56,3.52,6.63,6.63,0,0,1-4.24,1.25,11.74,11.74,0,0,1-2.31-.23c-.83.54-1.25.93-1.25,1.2s.61.4,1.82.4h2.9c4.31,0,6.47,1.54,6.47,4.64a4.71,4.71,0,0,1-2,4q-1.95,1.47-6.08,1.47-7,0-7-3.05,0-1.65,2.19-2.28l1.71.77a5.58,5.58,0,0,0-.23,1.57q0,2.45,3.64,2.44a6,6,0,0,0,3.42-.82,2.44,2.44,0,0,0,1.2-2,1.73,1.73,0,0,0-.73-1.64,6.76,6.76,0,0,0-2.89-.41h-2.76a5.48,5.48,0,0,1-3.3-.77,2.29,2.29,0,0,1-1-1.89,2.65,2.65,0,0,1,.71-1.88,13.33,13.33,0,0,1,2.53-1.87,4.1,4.1,0,0,1-3.3-4.32,4.3,4.3,0,0,1,1.54-3.45,7,7,0,0,1,4.61-1.31,6.56,6.56,0,0,1,3.16.71,6.65,6.65,0,0,1-.17-1.39,2.86,2.86,0,0,1,.86-2.31,2.89,2.89,0,0,1,1.9-.71,2.52,2.52,0,0,1,1.7.56,1.93,1.93,0,0,1,.64,1.52,1.84,1.84,0,0,1-.52,1.44,1.77,1.77,0,0,1-1.23.47,1.8,1.8,0,0,1-1.2-.39A1.41,1.41,0,0,1,520.79,335.43Zm-6,5.32v1.54a7.07,7.07,0,0,0,.32,2.59,1.06,1.06,0,0,0,1,.68,1,1,0,0,0,1-.67,8,8,0,0,0,.3-2.74v-1.4a9.37,9.37,0,0,0-.29-2.92,1,1,0,0,0-.95-.69,1.08,1.08,0,0,0-1,.72A7.89,7.89,0,0,0,514.76,340.75Z"/></svg>