<svg id="Layer_1" data-name="Layer 1" xmlns="http://www.w3.org/2000/svg" viewBox="0 0 499.56 600.89"><defs><style>.cls-1,.cls-2{fill:#f7b289;}.cls-2{opacity:0.49;}</style></defs><path class="cls-1" d="M227,199.24c6.48.59,45.33-2.94,51.8,0s40.62,7.79,57.11.07,67.11-28.32,63-22.44-63.58,30-74.18,35.91S292.91,225.15,290,231s-13,73.59-11.77,92.43,24.13,83,22.95,96.54-1.17,80.06-6.47,92.42S276.43,524.31,272.9,519s-25.9-105.43-23-119-2.94-20.6-2.36-24.13,5.3,52.39,3.54,64.17,0,39.44-8.83,57.1S229.73,519,221.88,519s-20-14.77-19.62-26.15,5.86-43.95,0-58.87-.78-14.91,2-22.37-3.53-26.29,0-42.78,6.28-55.33,7.45-55.33,0-73.39-5.49-82.42-82.81-73.78-87.91-83.59-16.09-27.86-11.77-23.94,61.61,56.51,66.71,59.65S227,199.24,227,199.24Z"/><ellipse class="cls-1" cx="243.46" cy="161.76" rx="24.72" ry="30.42"/><path class="cls-1" d="M215.21,512c.78,15.31,5.1,40.42,6.28,35.32S225.41,512,225.41,512Z"/><path class="cls-1" d="M278.39,514.78c1.08,7.67,3.53,33.52,5.89,33.24s3.14-33.24,3.14-33.24Z"/><path class="cls-1" d="M412.61,72.87c-2.35,5.89-41.21,226.84-41.21,226.84h5.11L417.32,72.87Z"/><path class="cls-2" d="M201.47,258.11C199.9,276.17,187,386.84,186.56,399.4s-7.07,35.71,0,36.49,55.83-16.1,65.2-12.56,55.67,12.17,59.21,10.6-27.87-90.12-23.55-111.19,2-80.33,7.46-87,86.73-41.6,87.9-43.56-5.1-14.52-8.63-14.13-59.65,18.84-67.5,19.62-40-9.81-45.13-8.24-10.21,6.28-12.17,6.28-13.74,4.71-20.8.39-7-7.06-12.9-5.88-37.33-8.64-50.28-21.19S137.78,142,134,143.52s-19.23,14.12-15.7,18.24S172,221.22,184.2,228.68,201.47,258.11,201.47,258.11Z"/><path class="cls-1" d="M208.93,196.1c0,6.28-21.59,135.79-27.08,154.24s-11.38,41.6-7.07,43.56S208.93,401,208.93,401,221.84,203,223.06,198.07s1.17-9-4.32-11.78S208.93,196.1,208.93,196.1Z"/><path class="cls-1" d="M267.94,186.74c5.14,3.49,23.27,104.45,22.36,127.75s16.49,78.61,14.78,81.89-21.8,8-25.57,5.18S268.73,246.13,266,231.78s-7.19-39.89-4.65-42.38S267.94,186.74,267.94,186.74Z"/><path class="cls-1" d="M250.2,131.94c-1.22,2.45-31.88,32.18-35.88,31.6s-10.8-10.5-6.12-16.1,28.83-23,34.08-21.82S250.2,131.94,250.2,131.94Z"/><path class="cls-1" d="M242.8,124.3c-.56.63-1.2,1.36-1.85,2.15-3.32,4.08-6.76,9.89-.08,14,8,4.9,27,20.42,31.68,18.47s7.94-6.57,3.39-13.71S242.8,124.3,242.8,124.3Z"/><path class="cls-1" d="M263.77,117.12c3.54,1.47,4.42,7.07,4.42,7.07s-8.43-5-11.28-3.53-9.91,9.12-9.91,9.12-.17-10.3,5.31-12.66S263.77,117.12,263.77,117.12Z"/></svg>