<?xml version="1.0" encoding="utf-8"?>
<!-- Generator: Adobe Illustrator 25.3.0, SVG Export Plug-In . SVG Version: 6.00 Build 0)  -->
<svg version="1.1" id="Layer_1" xmlns="http://www.w3.org/2000/svg" xmlns:xlink="http://www.w3.org/1999/xlink" x="0px" y="0px"
	 viewBox="0 0 339 446.9" style="enable-background:new 0 0 339 446.9;" xml:space="preserve">
<style type="text/css">
	.st0{fill:#F3DF8C;}
	.st1{fill:#E0CE85;}
	.st2{opacity:0.54;fill:#F3DF8C;enable-background:new    ;}
</style>
<ellipse transform="matrix(0.3995 -0.9167 0.9167 0.3995 47.8838 196.9878)" class="st0" cx="174.3" cy="61.9" rx="30" ry="27.2"/>
<path class="st0" d="M143.6,100.1c1.3-3.4,6.8-6.2,10.4-5.7c9.8,1.3,30.1-1.4,32.9,0.7c5.5,4,65.3,112.4,63.1,114.6
	c-1.6,1.6-59.1-76-61-72.8c-3.3,5.6,4.5,58.8,11.8,101.8c9,53.5,11.3,165.3,12.7,197.6c0,0.4-0.2,0.8-0.6,0.8s-0.8-0.2-0.8-0.6l0,0
	c-7.9-41-35.4-206.3-41.1-208.1c-6.5-2.1-58.7,209.4-64.5,208.7c-5.8-0.7,22.3-97.1,29.5-165.3c2.3-22.2,20.5-128.1,11.8-133.6
	c-4.2-2.6-46.3,106.3-48.1,104.4C92.2,234.8,133.4,126.6,143.6,100.1z"/>
<polygon class="st1" points="239.7,437.1 239.7,109.6 219.7,100.6 245.4,108 245.4,437.1 "/>
<circle class="st2" cx="222.5" cy="101.4" r="8.6"/>
<path class="st0" d="M139.5,215.3c0,0-37.6,194.3-34.2,196.6c3.5,2.4,12.6,5.8,12.6,5.8s53.1-183,53.1-179.3
	c0,3.7,28.9,176.7,31,179.3c2.2,2.6,18.4,4.7,17.6,3.2c-0.8-1.6-15-192.4-17.1-205.6C200.5,202.1,139.5,215.3,139.5,215.3z"/>
<path class="st2" d="M128.5,123.3c-3.7,8.9-33.3,94.1-29.8,95.2s8.8,6.3,12.4,6.3c3.7,0,33.6-74.7,34.2-72.6s-19,68.6-13.7,72.6
	c5.3,4,65.9,4.3,72.4,4.3c6.5-0.1-14-88.4-11.4-84.2c2.6,4.2,35.2,57.8,40,57.8s12.9-17.9,12.9-21s-47.6-89.9-51.3-88.8
	c-3.7,1.1-49.4-3.2-52.6,0C138.4,96,128.5,123.3,128.5,123.3z"/>
</svg>
