<svg id="Layer_1" data-name="Layer 1" xmlns="http://www.w3.org/2000/svg" viewBox="0 0 499.56 600.89"><defs><style>.cls-1,.cls-2{fill:#79a5ae;}.cls-2{opacity:0.54;}</style></defs><ellipse class="cls-1" cx="264" cy="117.56" rx="36.45" ry="27.61" transform="translate(20.29 272.88) rotate(-56.51)"/><polygon class="cls-1" points="345.32 598.37 345.32 177.89 316.87 166.41 353.55 175.86 353.55 598.37 345.32 598.37"/><ellipse class="cls-2" cx="318.02" cy="167.4" rx="11.05" ry="9.39" transform="translate(23.03 372.69) rotate(-62.6)"/><path class="cls-1" d="M270.8,159.37c-4-2.65-32.89.78-46.78-.87-5.12-.61-13,3-14.81,7.3C194.67,199.73,136,338.64,146.54,348.7c2.56,2.46,62.51-137.35,68.5-134,7.68,4.33.8,57.61-6.38,104.53-8.58,35.71-58.38,244-53.88,246.78a42.62,42.62,0,0,0,5,2.51c-4.13,18.16-6,29.55-3.55,29.82,1.6.18,5.75-10.09,11.44-26.69,2.89,1.06,5,1.78,5,1.78s75.61-234.88,75.61-230.15,41.17,226.78,44.16,230.15c1.14,1.29,5.22,2.47,9.77,3.34,1.67,8.34,3.12,15.41,4.27,20.8a1.06,1.06,0,0,0,2.08-.22c-.25-5.12-.51-11.8-.81-19.71,5.53.7,10.29.78,9.77-.16-1.12-2-22.67-220.17-30.65-262.25-1.37-7.22-1.85-9.94-2.64-14.82-7.68-47-14.36-81.57-10.5-87.4,2.68-4.06,84.58,95.51,86.83,93.48C363.81,303.65,278.57,164.55,270.8,159.37Z"/><path class="cls-2" d="M187.92,194.21C182.68,205.69,140.46,315,145.5,316.38s12.48,8.09,17.72,8.09,47.91-95.84,48.65-93.14-27,88-19.46,93.14S286.26,330,295.48,330s-20-113.47-16.23-108.07,50.15,74.25,56.89,74.25,18.34-22.95,18.34-27-67.75-115.42-73-114.07-70.36-4-74.86,0S187.92,194.21,187.92,194.21Z"/></svg>