<svg width="49" height="50" viewBox="0 0 49 50" fill="none" xmlns="http://www.w3.org/2000/svg">
<path d="M48.0376 26.8543C48.0376 39.6143 35.5278 47.2036 23.1848 49.1217C10.5082 51.1233 0 38.7803 0 26.0203C0 13.2604 10.3414 0 23.1848 0C36.0282 0 48.0376 14.0944 48.0376 26.8543Z" fill="#F3DF8C"/>
<mask id="mask0_1898_138" style="mask-type:luminance" maskUnits="userSpaceOnUse" x="0" y="0" width="49" height="50">
<path d="M48.0376 26.8543C48.0376 39.6143 35.5278 47.2036 23.1848 49.1217C10.5082 51.1233 0 38.7803 0 26.0203C0 13.2604 10.3414 0 23.1848 0C36.0282 0 48.0376 14.0944 48.0376 26.8543Z" fill="white"/>
</mask>
<g mask="url(#mask0_1898_138)">
<path d="M25.8543 15.762H23.1855V16.5126H25.8543V15.762Z" fill="#DBD7C8"/>
<path d="M30.4404 21.1828H35.0274L36.1949 20.6824L37.1123 21.1828H45.4522L46.3696 20.6824L47.3703 21.1828H49.5387L49.7889 24.1851L30.0234 23.8515L30.4404 21.1828Z" fill="#D08C87"/>
<path d="M19.2656 18.8477C19.2656 18.8477 19.8494 18.0971 19.9328 18.0137C20.0162 17.9303 19.9328 17.3465 19.9328 17.3465H20.6C20.6 17.3465 22.3514 16.0122 24.4363 16.0955C26.5213 16.1789 28.1059 17.3465 28.1059 17.3465H28.6897V17.9303L29.5236 19.0979L19.2656 18.8477Z" fill="#D08C87"/>
<path d="M18.5975 19.2646C18.5975 19.2646 21.9334 18.4307 24.1018 18.4307C26.1867 18.4307 30.1065 19.2646 30.1065 19.2646L30.2733 19.8484L30.9404 19.9318V21.85H31.4408L31.6076 23.935L17.1797 23.4346L17.2631 21.6832L17.7635 21.5998V19.6816L18.6809 19.5982L18.5975 19.2646Z" fill="#E9E7DC"/>
<path d="M24.3543 19.0977L16.6816 23.351L17.182 24.1016L31.61 24.2684L32.3606 23.5178L24.3543 19.0977Z" fill="#DBD7C8"/>
<path d="M30.3576 23.518L24.1861 20.1821L18.515 23.2678L18.4316 23.101L24.1861 19.9319L30.441 23.3512L30.3576 23.518Z" fill="#D08C87"/>
<path d="M31.4434 23.6848L49.5408 23.935V33.776L31.4434 33.6092V23.6848Z" fill="#DBD7C8"/>
<path d="M-0.416016 23.1011V33.5259L17.4313 33.2757L17.6815 23.4347L-0.416016 23.1011Z" fill="#DBD7C8"/>
<path d="M18.0977 21.1826H13.8444L12.8436 20.5154L12.0096 21.1826H4.58712L3.33614 20.5154L2.41875 20.849H-0.917187L-1.08398 23.6845H18.0977V21.1826Z" fill="#D08C87"/>
<path d="M1.50195 31.4411V28.7723C1.50195 28.7723 1.83555 28.2719 2.66953 28.3553C3.50352 28.4387 3.75371 29.1893 3.75371 29.1893V31.5245H1.50195V31.4411Z" fill="#777674"/>
<path d="M4.92188 31.1909V29.106C4.92188 29.106 5.42227 28.272 6.08945 28.272C6.75664 28.3554 6.92344 28.8558 6.92344 28.8558V31.3577L4.92188 31.1909Z" fill="#777674"/>
<path d="M8.17383 31.1909V29.1059C8.17383 29.1059 8.50742 28.1886 9.25801 28.272C10.0086 28.3554 10.2588 29.1059 10.2588 29.1059V31.4411L8.17383 31.1909Z" fill="#777674"/>
<path d="M11.3438 31.4411V29.1059C11.3438 29.1059 11.7607 28.1051 12.6781 28.2719C13.5955 28.4387 13.5121 29.3561 13.5121 29.3561V31.3577H11.3438V31.4411Z" fill="#777674"/>
<path d="M14.6777 31.4411V29.106C14.6777 29.106 15.1781 28.272 16.0121 28.272C16.8461 28.272 17.0963 29.106 17.0963 29.106L16.9295 31.4411H14.6777Z" fill="#777674"/>
<path d="M0.0225888 24.3481L0.0214844 24.5149L48.5594 24.8363L48.5605 24.6695L0.0225888 24.3481Z" fill="#D08C87"/>
<path d="M31.9414 32.0247V29.2726C31.9414 29.2726 32.275 28.7722 33.1924 28.8556C34.0264 28.939 34.2766 29.6896 34.2766 29.6896V32.0247H31.9414Z" fill="#777674"/>
<path d="M35.5273 31.7744V29.6895C35.5273 29.6895 36.1111 28.8555 36.7783 28.8555C37.4455 28.9389 37.6957 29.4393 37.6957 29.4393V31.9412L35.5273 31.7744Z" fill="#777674"/>
<path d="M38.9473 31.7744V29.6894C38.9473 29.6894 39.2809 28.7721 40.1148 28.8555C40.9488 28.9389 41.199 29.6894 41.199 29.6894V32.0246L38.9473 31.7744Z" fill="#777674"/>
<path d="M42.2012 32.0246V29.6894C42.2012 29.6894 42.6182 28.6886 43.5356 28.8554C44.4529 29.0222 44.4529 29.9396 44.4529 29.9396V31.9412H42.2012V32.0246Z" fill="#777674"/>
<path d="M45.7012 32.0246V29.6895C45.7012 29.6895 46.2016 28.8555 47.0355 28.8555C47.8695 28.9389 48.1197 29.6895 48.1197 29.6895L48.0363 32.0246H45.7012Z" fill="#777674"/>
<path d="M17.1818 23.9353L16.9316 33.9431H31.6098V24.2689L17.1818 23.9353Z" fill="#E9E7DC"/>
<path d="M34.1098 25.186H31.9414V26.437H34.1098V25.186Z" fill="#8C8B89"/>
<path d="M35.2773 25.186V26.854H37.6959V25.3528L35.2773 25.186Z" fill="#8C8B89"/>
<path d="M38.9473 25.186V26.437L41.1156 26.6872V25.186H38.9473Z" fill="#8C8B89"/>
<path d="M44.7031 25.6028H42.2012V26.8538H44.7031V25.6028Z" fill="#8C8B89"/>
<path d="M45.7012 25.6031V27.0208L48.0363 26.8541V25.4363L45.7012 25.6031Z" fill="#8C8B89"/>
<path d="M20.4552 27.4903L20.4453 27.8237L28.0315 28.0488L28.0414 27.7154L20.4552 27.4903Z" fill="#777674"/>
<path d="M22.3496 24.7693H23.1836H23.6006C23.6006 24.7693 23.684 24.1855 24.2678 24.1855C24.8516 24.1855 24.935 24.7693 24.935 24.7693H26.1025V27.0211H25.2686V25.1029H24.935V27.0211L23.6006 26.9377V25.1029H23.3504V27.0211H22.5164V24.7693H22.3496Z" fill="#777674"/>
<path d="M22.1016 29.4397H23.1857L23.0189 32.5254H22.1016V29.4397Z" fill="#777674"/>
<path d="M24.8525 29.4397H23.6016V32.6922H24.8525V29.4397Z" fill="#777674"/>
<path d="M26.2729 29.4397H25.3555V32.3586H26.2729V29.4397Z" fill="#777674"/>
<path d="M20.0996 24.7693H19.2656V26.8543H20.0996V24.7693Z" fill="#777674"/>
<path d="M29.1893 24.936H28.6055V27.021H29.1893V24.936Z" fill="#777674"/>
<path d="M29.1893 30.1069H28.6055V31.1911H29.1893V30.1069Z" fill="#777674"/>
<path d="M19.2656 29.8567H19.9328V30.9409L19.2656 30.8575V29.8567Z" fill="#777674"/>
<path d="M3.91895 24.769H1.83398V26.02H3.91895V24.769Z" fill="#8C8B89"/>
<path d="M5.00391 24.769V26.437H7.25567V24.9358L5.00391 24.769Z" fill="#8C8B89"/>
<path d="M8.50586 24.769V26.02L10.5908 26.2702V24.769H8.50586Z" fill="#8C8B89"/>
<path d="M13.927 25.186H11.5918V26.437H13.927V25.186Z" fill="#8C8B89"/>
<path d="M14.9277 25.1861V26.6039L17.0961 26.4371V25.0193L14.9277 25.1861Z" fill="#8C8B89"/>
</g>
</svg>
