<svg width="41" height="40" viewBox="0 0 41 40" fill="none" xmlns="http://www.w3.org/2000/svg">
<path d="M40.2069 18.9655C40.2069 30.4138 32.2069 40 20.7586 40C9.31034 40 0 30.6897 0 19.2414C0 7.7931 8.75862 0 20.2069 0C31.6552 0 40.2069 7.44828 40.2069 18.9655Z" fill="#A8DCC6"/>
<mask id="mask0_1898_481" style="mask-type:luminance" maskUnits="userSpaceOnUse" x="0" y="0" width="41" height="40">
<path d="M40.2069 18.9655C40.2069 30.4138 32.2069 40 20.7586 40C9.31034 40 0 30.6897 0 19.2414C0 7.7931 8.75862 0 20.2069 0C31.6552 0 40.2069 7.44828 40.2069 18.9655Z" fill="white"/>
</mask>
<g mask="url(#mask0_1898_481)">
<path d="M11.2393 17.9311L11.1014 24.276L8.06688 24.4139L7.79102 28.207L31.3772 28.0001L31.2393 23.3105L30.8255 22.7587L30.4117 17.7932L11.2393 17.9311Z" fill="#A59397"/>
<path d="M15.3774 26.6897V28.138H13.998V34.2759H27.4463L27.3774 27.7242L27.2394 26.6897H15.3774Z" fill="#F4D6C5"/>
<path d="M15.7233 20.207H25.2405L25.3095 26.6898H15.6543L15.7233 20.207Z" fill="#F4D6C5"/>
<path d="M27.93 18.5518V22.7587L27.4473 23.2414V26.6897H30.9645V23.4483L30.5507 22.6207L30.6886 18.5518H27.93Z" fill="#A59397"/>
<path d="M9.51758 17.3793L10.2762 18.5517C10.2762 18.5517 10.759 18.5517 11.7934 18.5517C12.8279 18.5517 13.0348 18.5517 13.0348 18.5517H27.9314C27.9314 18.5517 28.8969 18.5517 29.5176 18.5517C30.1383 18.5517 30.759 18.5517 30.759 18.5517L31.3107 17.3793L26.0693 16.4138L13.1038 16.6897L9.51758 17.3793Z" fill="#F4D6C5"/>
<path d="M16.5499 22.345H16.2051V26.276H16.5499V22.345Z" fill="#F1EFE2"/>
<path d="M17.7921 22.4827H17.4473V26.2758H17.7921V22.4827Z" fill="#F1EFE2"/>
<path d="M18.8956 22.4827H18.5508V26.4137H18.8956V22.4827Z" fill="#F1EFE2"/>
<path d="M20.1749 22.4812L19.8301 22.4868L19.892 26.2795L20.2368 26.2739L20.1749 22.4812Z" fill="#F1EFE2"/>
<path d="M21.3311 22.4804L20.9863 22.4895L21.0807 26.0746L21.4254 26.0656L21.3311 22.4804Z" fill="#F1EFE2"/>
<path d="M22.5713 22.6174L22.2266 22.626L22.3208 26.4179L22.6655 26.4094L22.5713 22.6174Z" fill="#F1EFE2"/>
<path d="M23.7218 22.4827H23.377V26.4827H23.7218V22.4827Z" fill="#F1EFE2"/>
<path d="M24.8937 22.4827H24.5488V26.2068H24.8937V22.4827Z" fill="#F1EFE2"/>
<path d="M17.3773 4.62085H22.8945L30.4118 16.9657L10.8945 17.1726L17.3773 4.62085Z" fill="#D08C87"/>
<path d="M15.793 25.3104H18.3447L18.4137 25.1035H24.5516V25.3794H26.9654L27.0343 26.7587L24.9654 26.8277L24.6206 26.6897H18.3447L18.0688 26.6208L15.793 26.6897V25.3104Z" fill="#A59397"/>
<path d="M11.5156 11.8623H29.2398L29.8605 16.0002H11.5156V11.8623Z" fill="#D08C87"/>
<path d="M13.9297 7.93101L25.9987 7.58618V10.5517L13.9297 10.8965V7.93101Z" fill="#D08C87"/>
<path d="M9.51758 17.3794L11.5176 10.138V9.65522H11.1728V9.37936H11.5176V8.82764H11.7245V9.3104L12.0693 9.37936V9.58626H11.7245L11.7934 10.138L13.5176 17.3794C13.5176 17.3794 12.3452 17.2414 11.5176 17.1725C10.69 17.1035 9.51758 17.3794 9.51758 17.3794Z" fill="#C0AAAF"/>
<path d="M27.2402 17.3794L29.2402 10.138V9.65522H28.8954V9.37936H29.2402V8.82764H29.4471V9.3104L29.792 9.37936V9.58626H29.4471L29.5161 10.138L31.2402 17.3794C31.2402 17.3794 30.0678 17.2414 29.2402 17.1725C28.3437 17.1035 27.2402 17.3794 27.2402 17.3794Z" fill="#C0AAAF"/>
<path d="M20.2744 6.82788L18.8262 9.24167H21.7917L20.2744 6.82788Z" fill="#F4D6C5"/>
<path d="M17.5844 11.3105L16.2051 13.9312H19.3085L17.5844 11.3105Z" fill="#F4D6C5"/>
<path d="M19.9304 23.1037L19.7925 22.2071C19.7925 22.1381 19.5856 21.1037 18.758 21.1726C17.8615 21.2416 17.6546 22.2761 17.6546 22.2761L17.5166 22.7588L17.3097 22.2761C17.3097 22.2761 16.827 21.0347 16.0684 21.1037V20.7588C16.758 20.6899 17.2408 21.3795 17.4477 21.7933C17.6546 21.3795 17.9994 20.8278 18.689 20.7588C19.3097 20.6899 19.7235 21.1726 19.9304 21.5864C20.1373 21.1726 20.4822 20.8278 21.1028 20.7588C21.7925 20.7588 22.1373 21.2416 22.2753 21.6554C22.4822 21.3105 22.9649 20.7588 23.5856 20.7588C24.6201 20.7588 24.827 22.0692 24.827 22.1381L24.4822 22.2071C24.4822 22.2071 24.2753 21.1037 23.5166 21.1037C22.758 21.1037 22.3442 22.1381 22.2753 22.2071L22.0684 22.7588L21.9994 22.1381C21.9994 22.0692 21.8615 21.0347 21.0339 21.1037C20.2063 21.1726 19.9994 22.1381 19.9994 22.1381L19.9304 23.1037Z" fill="#F1EFE2"/>
<path d="M23.4462 11.3105L21.791 13.9312H25.0324L23.4462 11.3105Z" fill="#F4D6C5"/>
<path d="M22.7584 2.55176H22.6895V4.62072H22.7584V2.55176Z" fill="#565253"/>
<path d="M17.9303 2.68994H17.8613V4.62098H17.9303V2.68994Z" fill="#565253"/>
<path d="M18.1373 2.62061H18.0684V4.55164H18.1373V2.62061Z" fill="#565253"/>
<path d="M18.4108 2.62061H18.3418V4.55164H18.4108V2.62061Z" fill="#565253"/>
<path d="M19.0319 2.62061H18.9629V4.55164H19.0319V2.62061Z" fill="#565253"/>
<path d="M19.2408 2.55176H19.1719V4.48279H19.2408V2.55176Z" fill="#565253"/>
<path d="M19.5162 2.55176H19.4473V4.48279H19.5162V2.55176Z" fill="#565253"/>
<path d="M20.067 2.62061H19.998V4.55164H20.067V2.62061Z" fill="#565253"/>
<path d="M20.276 2.55176H20.207V4.48279H20.276V2.55176Z" fill="#565253"/>
<path d="M20.5514 2.55176H20.4824V4.48279H20.5514V2.55176Z" fill="#565253"/>
<path d="M21.1686 2.62061H21.0996V4.55164H21.1686V2.62061Z" fill="#565253"/>
<path d="M21.3776 2.55176H21.3086V4.48279H21.3776V2.55176Z" fill="#565253"/>
<path d="M21.653 2.55176H21.584V4.48279H21.653V2.55176Z" fill="#565253"/>
<path d="M22.2037 2.62061H22.1348V4.55164H22.2037V2.62061Z" fill="#565253"/>
<path d="M22.4127 2.55176H22.3438V4.48279H22.4127V2.55176Z" fill="#565253"/>
<path d="M22.7584 2.55176H22.6895V4.48279H22.7584V2.55176Z" fill="#565253"/>
<path d="M22.688 3.79321H17.5156V3.86218H22.688V3.79321Z" fill="#565253"/>
<path d="M22.6191 4.41382H17.5156V4.48278H22.6191V4.41382Z" fill="#565253"/>
<path d="M17.5846 2.55176H17.5156V4.62072H17.5846V2.55176Z" fill="#565253"/>
<path d="M18.6197 2.48291H18.5508V4.55188H18.6197V2.48291Z" fill="#565253"/>
<path d="M19.7213 2.48291H19.6523V4.55188H19.7213V2.48291Z" fill="#565253"/>
<path d="M20.7565 2.48291H20.6875V4.55188H20.7565V2.48291Z" fill="#565253"/>
<path d="M21.86 2.48291H21.791V4.55188H21.86V2.48291Z" fill="#565253"/>
<path d="M22.688 2.75854H17.5156V2.82751H22.688V2.75854Z" fill="#565253"/>
<path d="M10.2738 18.5518V22.7587L9.79102 23.2414V26.6897H13.3083V23.4483L12.8945 22.6207L13.0324 18.5518H10.2738Z" fill="#A59397"/>
<path d="M30.1371 18.5518H28.7578V22.6897H30.1371V18.5518Z" fill="#C0AAAF"/>
<path d="M12.2055 18.5518H10.8262V22.6897H12.2055V18.5518Z" fill="#C0AAAF"/>
<path d="M12.3428 18.5518H10.8945V22.6897H12.3428V18.5518Z" fill="#C0AAAF"/>
<path d="M13.8613 18.6897H27.0337V20H26.6889V19.5862L26.3441 19.0345L25.9993 19.5862L26.0682 20H25.7234V19.6552L25.3786 19.0345L25.1027 19.5862L25.0337 20H24.7579V19.6552L24.4131 18.9656L24.0682 19.6552V20H23.7234V19.6552L23.4475 19.0345L23.1027 19.5862V20H22.7579V19.6552L22.4131 18.9656L22.1372 19.5862V20H21.7924V19.5862L21.4475 18.9656L21.1717 19.6552V20H20.8268V19.5862L20.4131 18.9656L20.1372 19.6552V20H19.8613V19.5862L19.5165 18.9656L19.1717 19.6552V20H18.8958V19.5862L18.551 19.0345L18.1372 19.5862L18.2062 20H17.8613V19.5862L17.5165 18.9656L17.2406 19.5862V20H16.8958V19.5173L16.551 18.8966L16.2062 19.6552V20H15.9303L15.8613 19.5173L15.5855 18.9656L15.2406 19.5862V20H14.9648V19.5173L14.6199 18.9656L14.2751 19.5862V20H13.8613V18.6897Z" fill="#F4D6C5"/>
<path d="M21.0339 23.1033L20.8959 22.2067C20.8959 22.1378 20.689 21.1033 19.9304 21.1033C19.1028 21.1033 18.8959 22.0688 18.8959 22.1378L18.758 22.8274L18.5511 22.2067C18.5511 22.2067 18.2063 21.2412 17.4477 21.1723C16.689 21.1033 16.4132 22.2757 16.4132 22.2757L16.0684 22.2067C16.0684 22.1378 16.4132 20.7585 17.4477 20.8274C18.0684 20.8964 18.4822 21.3102 18.689 21.655C18.8959 21.2412 19.2408 20.7585 19.9304 20.8274C20.5511 20.8274 20.8959 21.2412 21.1028 21.724C21.3097 21.3102 21.6546 20.8274 22.2063 20.8274C22.827 20.8274 23.3097 21.4481 23.5166 21.8619C23.7235 21.4481 24.1373 20.8964 24.4822 20.8274C24.6201 20.8274 24.758 20.8274 24.827 20.8274C24.8959 20.8274 25.0339 20.8274 25.1028 20.9654C25.1028 21.0343 25.1028 21.1723 24.9649 21.1723L24.827 20.8274C24.758 20.8274 24.6891 20.8964 24.758 21.0343C24.758 21.1033 24.827 21.1723 24.8959 21.1723C24.8959 21.1723 24.827 21.1723 24.5511 21.1723C24.2753 21.1723 23.8615 21.8619 23.6546 22.2757L23.5166 22.6895L23.3787 22.2757C23.3787 22.2757 22.8959 21.1723 22.2063 21.1723C21.5166 21.1723 21.2408 22.2757 21.2408 22.2757L21.0339 23.1033Z" fill="#F1EFE2"/>
<path d="M19.4483 29.7241L19.3104 30.2758C19.3104 30.2758 19.1035 30.2758 19.1035 30.4138C19.1035 30.6207 19.1035 30.6207 19.1035 30.6207V33.0345H19.9311V30.8965C19.9311 30.8965 20.0001 30.8965 19.9311 30.6207C19.8621 30.3448 19.8621 30.4138 19.7242 30.3448C19.5863 30.2758 19.4483 29.7241 19.4483 29.7241Z" fill="#A59397"/>
<path d="M20.8253 29.7241L20.6874 30.2758C20.6874 30.2758 20.4805 30.2758 20.4805 30.4138C20.4805 30.6207 20.4805 30.6207 20.4805 30.6207V33.0345H21.3081V30.8965C21.3081 30.8965 21.377 30.8965 21.3081 30.6896C21.2391 30.4138 21.2391 30.4138 21.1012 30.3448C20.9632 30.2758 20.8253 29.7241 20.8253 29.7241Z" fill="#A59397"/>
<path d="M22.2062 29.7241L22.0682 30.2758C22.0682 30.2758 21.8613 30.2758 21.8613 30.4138C21.8613 30.5517 21.8613 30.6207 21.8613 30.6207V33.0345H22.6889V30.8965C22.6889 30.8965 22.7579 30.8965 22.6889 30.6207C22.6199 30.3448 22.6199 30.4138 22.482 30.3448C22.3441 30.3448 22.2062 29.7241 22.2062 29.7241Z" fill="#A59397"/>
<path d="M23.5831 29.5864L23.4452 30.1381C23.4452 30.1381 23.2383 30.1381 23.2383 30.2761C23.2383 30.483 23.2383 30.483 23.2383 30.483V32.8968H24.0659V30.7588C24.0659 30.7588 24.0659 30.7588 24.0659 30.483C24.0659 30.2071 24.0659 30.2071 23.9279 30.2071C23.721 30.2071 23.5831 29.5864 23.5831 29.5864Z" fill="#A59397"/>
<path d="M19.3788 28.2758C19.5167 28.2068 19.7236 28.4827 19.6546 28.6206C19.6546 28.7585 19.5167 28.8965 19.3788 28.8965C19.2408 28.8965 19.1719 28.6896 19.1719 28.6206C19.1719 28.4827 19.3098 28.3447 19.3788 28.2758Z" fill="#A59397"/>
<path d="M20.7577 28.2758C20.8956 28.2068 21.1025 28.4827 21.0335 28.6206C21.0335 28.7585 20.8956 28.8965 20.7577 28.8965C20.6197 28.8965 20.5508 28.6896 20.5508 28.6206C20.5508 28.4827 20.6887 28.3447 20.7577 28.2758Z" fill="#A59397"/>
<path d="M22.1366 28.2758C22.2745 28.2068 22.4814 28.4827 22.4124 28.6206C22.4124 28.7585 22.2745 28.8965 22.1366 28.8965C21.9987 28.8965 21.9297 28.6896 21.9297 28.6206C21.9297 28.5516 22.0676 28.3447 22.1366 28.2758Z" fill="#A59397"/>
<path d="M23.5866 28.2758C23.7245 28.2068 23.9314 28.4827 23.8624 28.6206C23.8624 28.7585 23.7245 28.8965 23.5866 28.8965C23.4486 28.8965 23.3797 28.6896 23.3797 28.6206C23.3107 28.4827 23.4486 28.3447 23.5866 28.2758Z" fill="#A59397"/>
<path d="M26.4797 26.6897H31.859V28.138L32.4108 28.2759L32.2728 34.069L26.3418 34.2759L26.4797 26.6897Z" fill="#C0AAAF"/>
<path d="M8.20703 26.6897V26.8276V34.138L15.6553 33.8621L15.7932 27.1035L8.20703 26.6897Z" fill="#C0AAAF"/>
<path d="M6.34382 15.5175V14.483C6.34382 14.483 6.27485 14.414 6.13692 13.7244C6.06795 13.0347 6.34382 12.7588 6.13692 12.5519C5.93002 12.345 5.99899 12.414 6.13692 12.0002C6.27485 11.5864 6.34382 11.6554 6.48175 11.4485C6.61968 11.3106 6.89554 11.4485 6.89554 11.5864C6.89554 11.7244 7.1714 11.7244 7.1714 12.1381C7.1714 12.5519 6.96451 12.483 6.96451 13.0347C6.96451 13.5864 6.75761 14.483 6.89554 14.6209C7.03347 14.7588 7.10244 14.9657 7.10244 15.0347C7.10244 15.1726 6.89554 15.6554 6.89554 15.6554L9.5852 25.5175C9.5852 25.5175 7.3783 25.1726 6.48175 25.1726C5.5852 25.1726 3.44727 25.5864 3.44727 25.5864L3.5852 25.1037L6.34382 15.5175Z" fill="#C0AAAF"/>
<path d="M4.13719 34.1378L3.86133 25.1033C3.86133 25.1033 6.61995 24.6205 7.79236 24.8274C8.96478 25.0343 9.24064 25.586 9.24064 25.586L9.5165 34.1378H4.13719Z" fill="#F4D6C5"/>
<path d="M31.9297 25.5174L34.4814 16.0002V14.6208C34.4814 14.6208 34.8262 13.4484 34.6193 13.1036C34.4124 12.7588 34.4814 12.6898 34.4124 12.345C34.4124 11.9312 34.6193 12.276 34.6883 11.8622C34.7573 11.4484 34.6883 11.2415 34.8952 11.3795C35.0331 11.5174 34.9642 11.7243 35.1021 11.8622C35.1711 12.0002 35.4469 12.1381 35.4469 12.276C35.4469 12.414 35.24 12.5519 35.24 13.1036C35.24 13.6553 35.24 14.0691 35.24 14.276C35.24 14.4829 35.24 14.6208 35.24 14.7588C35.24 14.8967 35.309 15.3105 35.24 15.3795C35.24 15.5174 35.309 15.9312 35.309 15.9312L38.1366 25.4484C38.1366 25.4484 37.0331 24.9657 35.309 25.1726C33.5849 25.4484 31.9297 25.5174 31.9297 25.5174Z" fill="#C0AAAF"/>
<path d="M32.4133 24.6897L32.2754 34.2759L38.0685 34L37.9306 24.8966L32.4133 24.6897Z" fill="#F4D6C5"/>
</g>
</svg>
