<svg id="Layer_1" data-name="Layer 1" xmlns="http://www.w3.org/2000/svg" viewBox="0 0 2272 1603.38"><defs><style>.cls-1{fill:#f67c87;}</style></defs><rect class="cls-1" x="2204.25" y="85.66" width="56.82" height="1466.67" rx="28.41"/><rect class="cls-1" x="2128.59" y="85.66" width="56.82" height="1466.67" rx="28.41"/><rect class="cls-1" x="2052.92" y="85.66" width="56.82" height="1466.67" rx="28.41"/><rect class="cls-1" x="1977.26" y="85.66" width="56.82" height="1466.67" rx="28.41"/><rect class="cls-1" x="1901.6" y="85.66" width="56.82" height="1466.67" rx="28.41"/><rect class="cls-1" x="1825.93" y="85.66" width="56.82" height="1466.67" rx="28.41"/><rect class="cls-1" x="1750.27" y="85.66" width="56.82" height="1466.67" rx="28.41"/><rect class="cls-1" x="1674.61" y="85.66" width="56.82" height="1466.67" rx="28.41"/><rect class="cls-1" x="1598.94" y="85.66" width="56.82" height="1466.67" rx="28.41"/><rect class="cls-1" x="1523.28" y="85.66" width="56.82" height="1466.67" rx="28.41"/><rect class="cls-1" x="1447.61" y="85.66" width="56.82" height="1466.67" rx="28.41"/><rect class="cls-1" x="1371.95" y="85.66" width="56.82" height="1466.67" rx="28.41"/><rect class="cls-1" x="1296.29" y="85.66" width="56.82" height="1466.67" rx="28.41"/><rect class="cls-1" x="1220.62" y="85.66" width="56.82" height="1466.67" rx="28.41"/><rect class="cls-1" x="1144.96" y="85.66" width="56.82" height="1466.67" rx="28.41"/><rect class="cls-1" x="1069.29" y="85.66" width="56.82" height="1466.67" rx="28.41"/><rect class="cls-1" x="993.63" y="85.66" width="56.82" height="1466.67" rx="28.41"/><rect class="cls-1" x="917.97" y="85.66" width="56.82" height="1466.67" rx="28.41"/><rect class="cls-1" x="842.3" y="85.66" width="56.82" height="1466.67" rx="28.41"/><rect class="cls-1" x="766.64" y="85.66" width="56.82" height="1466.67" rx="28.41"/><rect class="cls-1" x="690.97" y="85.66" width="56.82" height="1466.67" rx="28.41"/><rect class="cls-1" x="615.31" y="85.66" width="56.82" height="1466.67" rx="28.41"/><rect class="cls-1" x="539.65" y="85.66" width="56.82" height="1466.67" rx="28.41"/><rect class="cls-1" x="463.98" y="85.66" width="56.82" height="1466.67" rx="28.41"/><rect class="cls-1" x="388.32" y="85.66" width="56.82" height="1466.67" rx="28.41"/><rect class="cls-1" x="312.66" y="85.66" width="56.82" height="1466.67" rx="28.41"/><rect class="cls-1" x="236.99" y="85.66" width="56.82" height="1466.67" rx="28.41"/><rect class="cls-1" x="161.33" y="85.66" width="56.82" height="1466.67" rx="28.41"/><rect class="cls-1" x="85.66" y="85.66" width="56.82" height="1466.67" rx="28.41"/><rect class="cls-1" x="10" y="85.66" width="56.82" height="1466.67" rx="28.41"/></svg>