<svg width="43" height="41" viewBox="0 0 43 41" fill="none" xmlns="http://www.w3.org/2000/svg">
<path d="M43 20C43 31.8571 35.4286 40.1429 23.5714 40.1429C11.7143 40.1429 0 31.8571 0 20C0 8.14286 7.5 0 19.4286 0C31.3571 0 43 8.07143 43 20Z" fill="#F4D6C5"/>
<mask id="mask0_1863_6950" style="mask-type:luminance" maskUnits="userSpaceOnUse" x="0" y="0" width="43" height="41">
<path d="M43 20C43 31.8571 35.4286 40.1429 23.5714 40.1429C11.7143 40.1429 0 31.8571 0 20C0 8.14286 7.5 0 19.4286 0C31.3571 0 43 8.07143 43 20Z" fill="white"/>
</mask>
<g mask="url(#mask0_1863_6950)">
<path d="M28.7151 15.7144L30.858 15.5715L30.5723 23.8572L28.0723 23.643L28.7151 15.7144Z" fill="#575E5E"/>
<path d="M10.9297 15.5715L13.3583 15.7144L13.5011 22.8572L10.9297 23.2144V15.5715Z" fill="#575E5E"/>
<path d="M29.9302 14.5L29.6445 26.5L30.8588 26.5714V29.2143H63.0731L62.2874 14.5H29.9302Z" fill="#A2B2B2"/>
<path d="M11.2868 14.5V29.2143H-20.0703L-19.5703 14.8571L11.2868 14.5Z" fill="#A2B2B2"/>
<path d="M61.8577 19.5715H30.7148V19.643H61.8577V19.5715Z" fill="#F1EFE2"/>
<path d="M61.4291 17.2856H30.7148V17.3571H61.4291V17.2856Z" fill="#F1EFE2"/>
<path d="M30.6627 15.9505L30.6621 16.022L61.3764 16.273L61.377 16.2016L30.6627 15.9505Z" fill="#F1EFE2"/>
<path d="M30.8245 20.6935L30.8242 20.7649L61.3957 20.8995L61.396 20.828L30.8245 20.6935Z" fill="#F1EFE2"/>
<path d="M61.8605 22.8616L33.2891 23.1406L33.2898 23.2121L61.8612 22.9331L61.8605 22.8616Z" fill="#F1EFE2"/>
<path d="M61.4322 24.0351L33.6465 24.2522L33.647 24.3236L61.4328 24.1066L61.4322 24.0351Z" fill="#F1EFE2"/>
<path d="M61.4294 26.6431H34.0723V26.7145H61.4294V26.6431Z" fill="#F1EFE2"/>
<path d="M40.5734 14.7859H40.502V28.7859H40.5734V14.7859Z" fill="#F1EFE2"/>
<path d="M12.4322 9.14282L28.8608 9.35711V22.8571H33.5036L33.8608 29.7143L29.6465 26.5L13.0036 26.4285L8.00363 29.2857L7.64648 23.2143L12.7893 22.7143L12.4322 9.14282Z" fill="#8EA3A2"/>
<path d="M28.7866 19.2417L12.7168 19.4731L12.7199 19.6874L28.7897 19.4559L28.7866 19.2417Z" fill="#F1EFE2"/>
<path d="M12.6214 15.672L12.6191 15.8862L28.689 16.0562L28.6912 15.8419L12.6214 15.672Z" fill="#F1EFE2"/>
<path d="M24.5039 12.7856H16.6468L16.5039 22.8571H18.1468V26.4285H24.0753V22.8571H24.5039V12.7856Z" fill="#575E5E"/>
<path d="M18.7182 19.2856L18.5039 26.4285H23.361V19.2856H18.7182Z" fill="#A2B2B2"/>
<path d="M11.2879 17.2856H-19.6406V17.3571H11.2879V17.2856Z" fill="#F1EFE2"/>
<path d="M-19.4451 16.2076L-19.4453 16.2791L11.1261 16.3787L11.1263 16.3073L-19.4451 16.2076Z" fill="#F1EFE2"/>
<path d="M11.0742 19.5715H-19.4258V19.643H11.0742V19.5715Z" fill="#F1EFE2"/>
<path d="M-19.4095 20.5409L-19.4102 20.6123L11.0898 20.8817L11.0905 20.8102L-19.4095 20.5409Z" fill="#F1EFE2"/>
<path d="M-19.6054 22.7833L-19.6055 22.8547L11.1088 22.9025L11.1089 22.8311L-19.6054 22.7833Z" fill="#F1EFE2"/>
<path d="M-19.454 23.8668L-19.4551 23.9382L7.54222 24.3554L7.54332 24.284L-19.454 23.8668Z" fill="#F1EFE2"/>
<path d="M-19.6495 26.2621L-19.6504 26.3335L7.63259 26.6925L7.63353 26.6211L-19.6495 26.2621Z" fill="#F1EFE2"/>
<path d="M7.59891 15.5631L7.52148 28.7773L7.59291 28.7778L7.67034 15.5635L7.59891 15.5631Z" fill="#F1EFE2"/>
<path d="M33.6445 17.1428V19.1428L36.6445 19L36.5017 16.8571C36.5017 16.8571 35.7874 16.1428 35.1445 16.2142C34.5017 16.2857 33.6445 17.1428 33.6445 17.1428Z" fill="#575E5E"/>
<path d="M37.7871 17.0001V19.1429L40.5014 19.0001V16.9286C40.5014 16.9286 39.8585 16.2144 39.1443 16.2144C38.43 16.2144 37.7871 17.0001 37.7871 17.0001Z" fill="#575E5E"/>
<path d="M33.9297 20.2141V22.5713H36.144V20.0713L33.9297 20.2141Z" fill="#575E5E"/>
<path d="M40.3569 20.0713H38.1426V22.5713H40.3569V20.0713Z" fill="#575E5E"/>
<path d="M34.0723 23.4999V26.1428H36.2866V23.4285L34.0723 23.4999Z" fill="#575E5E"/>
<path d="M38.1426 23.5713V25.9284H40.4997L40.4283 23.5713H38.1426Z" fill="#575E5E"/>
<path d="M35.6434 27.2856H34.7148V28.2142H35.6434V27.2856Z" fill="#575E5E"/>
<path d="M39.8574 27.2856H38.8574V28.3571H39.8574V27.2856Z" fill="#575E5E"/>
<path d="M0.42885 18.9999L0.357422 17.2856C0.357422 17.2856 1.14314 16.0713 1.92885 16.357C2.71456 16.6427 3.28599 17.2856 3.28599 17.2856V18.9999H0.42885Z" fill="#575E5E"/>
<path d="M4.78627 19.0714L4.71484 17.0714C4.71484 17.0714 5.50056 16.2857 6.28627 16.3571C7.07199 16.4286 7.57199 17.3571 7.57199 17.3571V19.1428L4.78627 19.0714Z" fill="#575E5E"/>
<path d="M0.857422 20.2856V22.4999H2.92885V20.0713L0.857422 20.2856Z" fill="#575E5E"/>
<path d="M5.07227 19.9998V22.4998H7.21512V20.0712L5.07227 19.9998Z" fill="#575E5E"/>
<path d="M0.785156 23.5714V25.9286H2.85659V23.5L0.785156 23.5714Z" fill="#575E5E"/>
<path d="M5.07227 23.7142V26L7.14369 25.9285L7.07227 23.6428L5.07227 23.7142Z" fill="#575E5E"/>
<path d="M1.21484 27.4286V28.2857H2.28627V27.3572L1.21484 27.4286Z" fill="#575E5E"/>
<path d="M5.42969 27.5001L5.50112 28.2859H6.42969V27.4287L5.42969 27.5001Z" fill="#575E5E"/>
<path d="M8.28711 24.0713V24.7856H9.35854L9.28711 24.0713H8.28711Z" fill="#575E5E"/>
<path d="M24.502 12.0713H16.502V12.2856H24.502V12.0713Z" fill="#F1EFE2"/>
<path d="M11.6429 25.9287L30.0714 26.0001L33.8571 29.7144L8 29.2859L11.6429 25.9287Z" fill="#F1EFE2"/>
<path d="M15.6445 10.7144V11.3572H16.2874V10.7144H15.6445Z" fill="#A2B2B2"/>
<path d="M18.714 10.7144H18.1426V11.3572H18.714V10.7144Z" fill="#A2B2B2"/>
<path d="M20.5723 10.7858V11.3572H21.1437V10.7144L20.5723 10.7858Z" fill="#A2B2B2"/>
<path d="M23.1437 10.7144L23.0723 11.3572H23.6437V10.7144H23.1437Z" fill="#A2B2B2"/>
<path d="M25.1426 10.643V11.3572L25.6426 11.2858V10.5715L25.1426 10.643Z" fill="#A2B2B2"/>
<path d="M11.1648 26.3006L11.1641 26.3721L30.6621 26.5845L30.6629 26.5131L11.1648 26.3006Z" fill="#8EA3A2"/>
<path d="M10.7357 26.7572L10.7344 26.8286L31.3731 27.2106L31.3744 27.1392L10.7357 26.7572Z" fill="#8EA3A2"/>
<path d="M9.91325 27.4742L9.91211 27.5457L31.9813 27.8985L31.9825 27.827L9.91325 27.4742Z" fill="#8EA3A2"/>
<path d="M9.2741 28.0719L9.27344 28.1433L32.4877 28.3599L32.4884 28.2885L9.2741 28.0719Z" fill="#8EA3A2"/>
<path d="M8.65559 28.6317L8.6543 28.7031L33.2208 29.1491L33.2221 29.0777L8.65559 28.6317Z" fill="#8EA3A2"/>
</g>
</svg>
