<svg width="4135" height="590" viewBox="0 0 4135 590" fill="none" xmlns="http://www.w3.org/2000/svg">
<path opacity="0.3" d="M4133.5 304.5C4110 323 4064.5 324 4048.5 325.5C4032.5 327 3959.5 335.769 3874 286C3847.2 270.4 3795.5 266.261 3773 266.142C3676.2 260.55 3603 296.929 3578.5 315.817C3538.17 341.135 3435.7 392.145 3348.5 393.636C3239.5 395.5 3236.5 335.573 2985.5 322.06C2822.05 313.259 2751.5 205.565 2590.5 205.565C2499.98 205.565 2523 374.715 2392 374.715C2315.5 374.715 2295 251.046 2162 251.046C2029 251.046 2075.5 345.824 1937.5 337.903C1799.5 329.981 1772 302.77 1564 264.094C1356 225.417 1282.5 216.098 1114 251.046C945.5 285.995 883.022 231.44 867.5 219.078C840 197.177 790.309 177.977 738.5 193.916C686.691 209.854 723.5 276.86 673 282.452C622.5 288.043 641.982 268.163 557 264.094C357.282 254.531 68.5 308.677 108.5 338.5C148.5 368.323 135.5 274.064 100.5 282.452C65.5 290.839 80.4998 329.18 69 338.5C39.4996 362.407 29.1 321.594 23.5 317.866" stroke="#403F3C" stroke-width="3"/>
<path d="M298 55H271.225V501.407H247" stroke="#D9D7CB" stroke-width="2"/>
<path d="M1150 202.302V442.748H1126" stroke="#D9D7CB" stroke-width="2"/>
<path d="M1271 185.527V483.754H1247" stroke="#D9D7CB" stroke-width="2"/>
<path d="M1353 87.6719V370.521" stroke="#D9D7CB" stroke-width="2"/>
<path d="M718 93.7292V446.475" stroke="#D9D7CB" stroke-width="2"/>
<path d="M1492 27.0945V335.5M1492 483.5V335.5M1492 335.5H1464" stroke="#D9D7CB" stroke-width="2"/>
<path d="M823 151.045V513.111" stroke="#D9D7CB" stroke-width="2"/>
<path d="M318.5 274.199L318.5 590" stroke="#D9D7CB" stroke-width="2"/>
<path d="M45 346.781L45 446.5" stroke="#D9D7CB" stroke-width="2"/>
<line x1="60" y1="244" x2="60" y2="343.719" stroke="#D9D7CB" stroke-width="2"/>
<path d="M433 264.745L433 353.747" stroke="#D9D7CB" stroke-width="2"/>
<path d="M155 102.5L155 142.5M155 306L155 142.5M155 142.5L136 142.5" stroke="#D9D7CB" stroke-width="2"/>
<path d="M141 310L141 376.169" stroke="#D9D7CB" stroke-width="2"/>
<path d="M390 239.581L390 265.21" stroke="#D9D7CB" stroke-width="2"/>
<path d="M234 289L234 323.482L234 357.965" stroke="#D9D7CB" stroke-width="2"/>
<path d="M477 96.0601L477 261.016" stroke="#D9D7CB" stroke-width="2"/>
<path d="M539 195.78L539 260.551" stroke="#D9D7CB" stroke-width="2"/>
<path d="M576.5 61.5764L576.5 479.559" stroke="#D9D7CB" stroke-width="2"/>
<path d="M504 261.016L504 469.5M504 519L504 469.5M504 469.5L488.5 469.5" stroke="#D9D7CB" stroke-width="2"/>
<path d="M650.5 282.446L650.5 334.174" stroke="#D9D7CB" stroke-width="2"/>
<path d="M1006.5 261.943L1006.5 309.011" stroke="#D9D7CB" stroke-width="2"/>
<path d="M875.072 224.67L875.072 322.52" stroke="#D9D7CB" stroke-width="2"/>
<path d="M1412 205.099L1412 235.853" stroke="#D9D7CB" stroke-width="2"/>
<path d="M936 218.145L936 295" stroke="#D9D7CB" stroke-width="2"/>
<path d="M1075.52 95.1277L1075.52 255.424" stroke="#D9D7CB" stroke-width="2"/>
<path d="M1271.5 368.187L1241 368.186" stroke="#D9D7CB" stroke-width="2"/>
<path d="M1688 61.5764V379.84M1688 473.036V379.84M1688 379.84H1660" stroke="#D9D7CB" stroke-width="2"/>
<path d="M3034 94V404M3034 532.02V404M3034 404H3006" stroke="#D9D7CB" stroke-width="2"/>
<path d="M1975 60.1787V117.96M1975 402.673H1947M1975 402.673V529.419M1975 402.673V135.201M1975 117.96H1947M1975 117.96V135.201M1975 135.201H2004.5" stroke="#D9D7CB" stroke-width="2"/>
<path d="M2377.24 40.6079V249.832M2377.24 458.5H2349M2377.24 458.5V101.494M2377.24 458.5V479.094M2377.24 528.487V479.094M2377.24 249.832H2404M2377.24 249.832L2377.24 101.494M2377.24 101.494H2407M2377.24 479.094H2404" stroke="#D9D7CB" stroke-width="2"/>
<path d="M3242.24 31.2883V130.076M3242.24 378.5H3214M3242.24 378.5V255M3242.24 378.5V440.418M3242.24 515.44V440.418M3242.24 130.076H3214M3242.24 130.076V255M3242.24 255H3334M3242.24 440.418H3299.5" stroke="#D9D7CB" stroke-width="2"/>
<path d="M2739.74 0V48M2739.74 469.288H2672M2739.74 469.288L2739.74 536.389L2739.74 548.97M2739.74 469.288L2739.74 375.5M2739.74 32H2645M2739.74 32V48M2739.74 32L2739.74 65.9862V128M2739.74 128H2781M2739.74 128V139.812M2739.74 263.791H2606M2739.74 263.791V331.358M2739.74 263.791L2739.74 224M2739.74 331.358H2838M2739.74 331.358V375.5M2739.74 375.5H2632M2739.74 375.5V415H2799M2739.74 224H2913M2739.74 224L2739.74 139.812M2739.74 139.812H2664.5M2739.74 48H2838" stroke="#D9D7CB" stroke-width="2"/>
<path d="M3615.74 54.7544V108.342M3615.74 440H3521M3615.74 440L3615.74 547.76M3615.74 440L3615.74 498.863V422.767V370.688M3615.74 131.921H3587.5M3615.74 131.921V108.342M3615.74 131.921V179.605M3615.74 179.605H3659.5M3615.74 179.605V222.762M3615.74 370.688H3654.5M3615.74 370.688V222.762M3615.74 222.762H3568M3615.74 108.342H3645.5" stroke="#D9D7CB" stroke-width="2"/>
<path d="M3934 572.56L3934 495.382M3934 125.687H3978M3934 125.687V94M3934 125.687L3934 159.373V232.955M3978 476.568H3934V495.382M3934 403H3849M3934 403L3934 374.519M3934 403L3934 495.382M3934 287.847V232.955M3934 287.847L3934 374.519M3934 287.847H3849M3934 232.955H3978M3934 374.519H4045.5M3934 495.382H3798" stroke="#D9D7CB" stroke-width="2"/>
<path d="M2111 308.683H2145M2111 308.683V422.245M2111 308.683V69.0332" stroke="#D9D7CB" stroke-width="2"/>
<path d="M2247 373L2247 186" stroke="#D9D7CB" stroke-width="2"/>
<line y1="-1" x2="31.6863" y2="-1" transform="matrix(0.000644001 1 -1 0.000559344 1873 296.431)" stroke="#D9D7CB" stroke-width="2"/>
<line x1="1573" y1="254.493" x2="1573" y2="262.88" stroke="#D9D7CB" stroke-width="2"/>
<path d="M6 310H42V330H4L6 310Z" fill="#F3BEF1"/>
<path d="M11.3359 315.013V325H9.68848V316.968L7.24805 317.795V316.435L11.1377 315.013H11.3359ZM16.1211 323.701H16.2578C16.8867 323.701 17.4108 323.619 17.8301 323.455C18.2539 323.286 18.5911 323.054 18.8418 322.758C19.0924 322.462 19.2725 322.113 19.3818 321.712C19.4912 321.311 19.5459 320.876 19.5459 320.406V318.69C19.5459 318.285 19.5026 317.929 19.416 317.624C19.334 317.314 19.2155 317.057 19.0605 316.852C18.9102 316.642 18.7347 316.485 18.5342 316.38C18.3382 316.275 18.1263 316.223 17.8984 316.223C17.6478 316.223 17.4222 316.28 17.2217 316.394C17.0257 316.503 16.8594 316.656 16.7227 316.852C16.5905 317.043 16.488 317.269 16.415 317.528C16.3467 317.784 16.3125 318.057 16.3125 318.349C16.3125 318.622 16.3444 318.886 16.4082 319.142C16.4766 319.392 16.5768 319.616 16.709 319.812C16.8411 320.007 17.0075 320.162 17.208 320.276C17.4085 320.39 17.6432 320.447 17.9121 320.447C18.1673 320.447 18.402 320.399 18.6162 320.304C18.8304 320.203 19.0173 320.069 19.1768 319.9C19.3363 319.732 19.4616 319.543 19.5527 319.333C19.6439 319.123 19.694 318.909 19.7031 318.69L20.332 318.882C20.332 319.228 20.2591 319.57 20.1133 319.907C19.972 320.24 19.7738 320.545 19.5186 320.823C19.2679 321.097 18.974 321.315 18.6367 321.479C18.304 321.644 17.9417 321.726 17.5498 321.726C17.0758 321.726 16.6566 321.637 16.292 321.459C15.932 321.277 15.6312 321.031 15.3896 320.721C15.1527 320.411 14.9749 320.055 14.8564 319.654C14.738 319.253 14.6787 318.832 14.6787 318.39C14.6787 317.911 14.7516 317.462 14.8975 317.043C15.0433 316.624 15.2552 316.255 15.5332 315.936C15.8112 315.612 16.1484 315.361 16.5449 315.184C16.946 315.001 17.3994 314.91 17.9053 314.91C18.443 314.91 18.9147 315.015 19.3203 315.225C19.7259 315.434 20.0677 315.724 20.3457 316.093C20.6237 316.462 20.8333 316.89 20.9746 317.378C21.1159 317.866 21.1865 318.39 21.1865 318.95V319.531C21.1865 320.119 21.1341 320.687 21.0293 321.233C20.9245 321.776 20.7536 322.279 20.5166 322.744C20.2842 323.204 19.9766 323.61 19.5938 323.961C19.2155 324.307 18.7507 324.578 18.1992 324.774C17.6523 324.966 17.0098 325.062 16.2715 325.062H16.1211V323.701ZM27.7285 314.985H27.9336V316.332H27.8174C27.2295 316.332 26.7214 316.423 26.293 316.605C25.8691 316.788 25.5205 317.038 25.2471 317.357C24.9736 317.676 24.7686 318.05 24.6318 318.479C24.4997 318.902 24.4336 319.354 24.4336 319.832V321.397C24.4336 321.794 24.4769 322.145 24.5635 322.45C24.6501 322.751 24.7708 323.004 24.9258 323.209C25.0853 323.41 25.2676 323.562 25.4727 323.667C25.6777 323.772 25.8988 323.824 26.1357 323.824C26.3818 323.824 26.6051 323.774 26.8057 323.674C27.0062 323.569 27.1771 323.425 27.3184 323.243C27.4596 323.061 27.5667 322.844 27.6396 322.594C27.7126 322.343 27.749 322.07 27.749 321.773C27.749 321.491 27.7126 321.227 27.6396 320.98C27.5713 320.73 27.4688 320.511 27.332 320.324C27.1953 320.133 27.0244 319.985 26.8193 319.88C26.6188 319.771 26.3864 319.716 26.1221 319.716C25.7939 319.716 25.4954 319.793 25.2266 319.948C24.9622 320.103 24.748 320.306 24.584 320.557C24.4245 320.803 24.3379 321.065 24.3242 321.343L23.6953 321.138C23.7318 320.714 23.8252 320.333 23.9756 319.996C24.1305 319.659 24.3333 319.372 24.584 319.135C24.8346 318.898 25.124 318.718 25.4521 318.595C25.7848 318.467 26.1494 318.403 26.5459 318.403C27.029 318.403 27.4482 318.494 27.8037 318.677C28.1592 318.859 28.4531 319.107 28.6855 319.422C28.9225 319.732 29.098 320.087 29.2119 320.488C29.3304 320.885 29.3896 321.299 29.3896 321.732C29.3896 322.211 29.3167 322.658 29.1709 323.072C29.0251 323.482 28.8109 323.842 28.5283 324.152C28.2503 324.462 27.9108 324.704 27.5098 324.877C27.1133 325.05 26.6621 325.137 26.1562 325.137C25.623 325.137 25.1468 325.034 24.7275 324.829C24.3128 324.624 23.9596 324.341 23.668 323.981C23.3809 323.621 23.1621 323.207 23.0117 322.737C22.8613 322.268 22.7861 321.771 22.7861 321.247V320.563C22.7861 319.807 22.8818 319.094 23.0732 318.424C23.2646 317.749 23.5586 317.155 23.9551 316.64C24.3561 316.125 24.8688 315.721 25.4932 315.43C26.1175 315.133 26.8626 314.985 27.7285 314.985ZM37.1963 319.189V320.816C37.1963 321.596 37.1188 322.261 36.9639 322.812C36.8135 323.359 36.5947 323.804 36.3076 324.146C36.0205 324.487 35.6764 324.738 35.2754 324.897C34.8789 325.057 34.4346 325.137 33.9424 325.137C33.5505 325.137 33.1859 325.087 32.8486 324.986C32.516 324.886 32.2152 324.729 31.9463 324.515C31.6774 324.3 31.4473 324.025 31.2559 323.688C31.069 323.346 30.9232 322.938 30.8184 322.464C30.7181 321.99 30.668 321.441 30.668 320.816V319.189C30.668 318.406 30.7454 317.745 30.9004 317.207C31.0553 316.665 31.2764 316.225 31.5635 315.888C31.8506 315.546 32.1924 315.298 32.5889 315.143C32.9899 314.988 33.4365 314.91 33.9287 314.91C34.3252 314.91 34.6898 314.96 35.0225 315.061C35.3597 315.156 35.6605 315.309 35.9248 315.519C36.1937 315.728 36.4215 316.002 36.6084 316.339C36.7998 316.672 36.9456 317.075 37.0459 317.549C37.1462 318.018 37.1963 318.565 37.1963 319.189ZM35.5488 321.049V318.943C35.5488 318.547 35.526 318.198 35.4805 317.897C35.4349 317.592 35.3665 317.335 35.2754 317.125C35.1888 316.911 35.0794 316.738 34.9473 316.605C34.8151 316.469 34.6647 316.371 34.4961 316.312C34.3275 316.248 34.1383 316.216 33.9287 316.216C33.6735 316.216 33.4456 316.266 33.2451 316.366C33.0446 316.462 32.876 316.617 32.7393 316.831C32.6025 317.045 32.4977 317.328 32.4248 317.679C32.3564 318.025 32.3223 318.447 32.3223 318.943V321.049C32.3223 321.45 32.3451 321.803 32.3906 322.108C32.4362 322.414 32.5046 322.676 32.5957 322.895C32.6868 323.109 32.7962 323.286 32.9238 323.428C33.056 323.564 33.2064 323.665 33.375 323.729C33.5482 323.792 33.7373 323.824 33.9424 323.824C34.2021 323.824 34.4323 323.774 34.6328 323.674C34.8333 323.574 35.002 323.414 35.1387 323.195C35.2754 322.972 35.3779 322.683 35.4463 322.327C35.5146 321.972 35.5488 321.546 35.5488 321.049Z" fill="#3A3A3A"/>
<path d="M78 277H117.5V297H78V277Z" fill="#F3BEF1"/>
<path d="M86.3359 281.013V291H84.6885V282.968L82.248 283.795V282.435L86.1377 281.013H86.3359ZM91.1211 289.701H91.2578C91.8867 289.701 92.4108 289.619 92.8301 289.455C93.2539 289.286 93.5911 289.054 93.8418 288.758C94.0924 288.462 94.2725 288.113 94.3818 287.712C94.4912 287.311 94.5459 286.876 94.5459 286.406V284.69C94.5459 284.285 94.5026 283.929 94.416 283.624C94.334 283.314 94.2155 283.057 94.0605 282.852C93.9102 282.642 93.7347 282.485 93.5342 282.38C93.3382 282.275 93.1263 282.223 92.8984 282.223C92.6478 282.223 92.4222 282.28 92.2217 282.394C92.0257 282.503 91.8594 282.656 91.7227 282.852C91.5905 283.043 91.488 283.269 91.415 283.528C91.3467 283.784 91.3125 284.057 91.3125 284.349C91.3125 284.622 91.3444 284.886 91.4082 285.142C91.4766 285.392 91.5768 285.616 91.709 285.812C91.8411 286.007 92.0075 286.162 92.208 286.276C92.4085 286.39 92.6432 286.447 92.9121 286.447C93.1673 286.447 93.402 286.399 93.6162 286.304C93.8304 286.203 94.0173 286.069 94.1768 285.9C94.3363 285.732 94.4616 285.543 94.5527 285.333C94.6439 285.123 94.694 284.909 94.7031 284.69L95.332 284.882C95.332 285.228 95.2591 285.57 95.1133 285.907C94.972 286.24 94.7738 286.545 94.5186 286.823C94.2679 287.097 93.974 287.315 93.6367 287.479C93.304 287.644 92.9417 287.726 92.5498 287.726C92.0758 287.726 91.6566 287.637 91.292 287.459C90.932 287.277 90.6312 287.031 90.3896 286.721C90.1527 286.411 89.9749 286.055 89.8564 285.654C89.738 285.253 89.6787 284.832 89.6787 284.39C89.6787 283.911 89.7516 283.462 89.8975 283.043C90.0433 282.624 90.2552 282.255 90.5332 281.936C90.8112 281.612 91.1484 281.361 91.5449 281.184C91.946 281.001 92.3994 280.91 92.9053 280.91C93.443 280.91 93.9147 281.015 94.3203 281.225C94.7259 281.434 95.0677 281.724 95.3457 282.093C95.6237 282.462 95.8333 282.89 95.9746 283.378C96.1159 283.866 96.1865 284.39 96.1865 284.95V285.531C96.1865 286.119 96.1341 286.687 96.0293 287.233C95.9245 287.776 95.7536 288.279 95.5166 288.744C95.2842 289.204 94.9766 289.61 94.5938 289.961C94.2155 290.307 93.7507 290.578 93.1992 290.774C92.6523 290.966 92.0098 291.062 91.2715 291.062H91.1211V289.701ZM104.362 281.047V281.949L100.384 291H98.6475L102.619 282.359H97.4648V281.047H104.362ZM112.196 285.189V286.816C112.196 287.596 112.119 288.261 111.964 288.812C111.813 289.359 111.595 289.804 111.308 290.146C111.021 290.487 110.676 290.738 110.275 290.897C109.879 291.057 109.435 291.137 108.942 291.137C108.55 291.137 108.186 291.087 107.849 290.986C107.516 290.886 107.215 290.729 106.946 290.515C106.677 290.3 106.447 290.025 106.256 289.688C106.069 289.346 105.923 288.938 105.818 288.464C105.718 287.99 105.668 287.441 105.668 286.816V285.189C105.668 284.406 105.745 283.745 105.9 283.207C106.055 282.665 106.276 282.225 106.563 281.888C106.851 281.546 107.192 281.298 107.589 281.143C107.99 280.988 108.437 280.91 108.929 280.91C109.325 280.91 109.69 280.96 110.022 281.061C110.36 281.156 110.66 281.309 110.925 281.519C111.194 281.728 111.422 282.002 111.608 282.339C111.8 282.672 111.946 283.075 112.046 283.549C112.146 284.018 112.196 284.565 112.196 285.189ZM110.549 287.049V284.943C110.549 284.547 110.526 284.198 110.48 283.897C110.435 283.592 110.367 283.335 110.275 283.125C110.189 282.911 110.079 282.738 109.947 282.605C109.815 282.469 109.665 282.371 109.496 282.312C109.327 282.248 109.138 282.216 108.929 282.216C108.674 282.216 108.446 282.266 108.245 282.366C108.045 282.462 107.876 282.617 107.739 282.831C107.603 283.045 107.498 283.328 107.425 283.679C107.356 284.025 107.322 284.447 107.322 284.943V287.049C107.322 287.45 107.345 287.803 107.391 288.108C107.436 288.414 107.505 288.676 107.596 288.895C107.687 289.109 107.796 289.286 107.924 289.428C108.056 289.564 108.206 289.665 108.375 289.729C108.548 289.792 108.737 289.824 108.942 289.824C109.202 289.824 109.432 289.774 109.633 289.674C109.833 289.574 110.002 289.414 110.139 289.195C110.275 288.972 110.378 288.683 110.446 288.327C110.515 287.972 110.549 287.546 110.549 287.049Z" fill="#3A3A3A"/>
<path d="M181 287H221.5V305.5L181 307V287Z" fill="#F3BEF1"/>
<path d="M189.336 292.013V302H187.688V293.968L185.248 294.795V293.435L189.138 292.013H189.336ZM194.121 300.701H194.258C194.887 300.701 195.411 300.619 195.83 300.455C196.254 300.286 196.591 300.054 196.842 299.758C197.092 299.462 197.272 299.113 197.382 298.712C197.491 298.311 197.546 297.876 197.546 297.406V295.69C197.546 295.285 197.503 294.929 197.416 294.624C197.334 294.314 197.215 294.057 197.061 293.852C196.91 293.642 196.735 293.485 196.534 293.38C196.338 293.275 196.126 293.223 195.898 293.223C195.648 293.223 195.422 293.28 195.222 293.394C195.026 293.503 194.859 293.656 194.723 293.852C194.59 294.043 194.488 294.269 194.415 294.528C194.347 294.784 194.312 295.057 194.312 295.349C194.312 295.622 194.344 295.886 194.408 296.142C194.477 296.392 194.577 296.616 194.709 296.812C194.841 297.007 195.007 297.162 195.208 297.276C195.409 297.39 195.643 297.447 195.912 297.447C196.167 297.447 196.402 297.399 196.616 297.304C196.83 297.203 197.017 297.069 197.177 296.9C197.336 296.732 197.462 296.543 197.553 296.333C197.644 296.123 197.694 295.909 197.703 295.69L198.332 295.882C198.332 296.228 198.259 296.57 198.113 296.907C197.972 297.24 197.774 297.545 197.519 297.823C197.268 298.097 196.974 298.315 196.637 298.479C196.304 298.644 195.942 298.726 195.55 298.726C195.076 298.726 194.657 298.637 194.292 298.459C193.932 298.277 193.631 298.031 193.39 297.721C193.153 297.411 192.975 297.055 192.856 296.654C192.738 296.253 192.679 295.832 192.679 295.39C192.679 294.911 192.752 294.462 192.897 294.043C193.043 293.624 193.255 293.255 193.533 292.936C193.811 292.612 194.148 292.361 194.545 292.184C194.946 292.001 195.399 291.91 195.905 291.91C196.443 291.91 196.915 292.015 197.32 292.225C197.726 292.434 198.068 292.724 198.346 293.093C198.624 293.462 198.833 293.89 198.975 294.378C199.116 294.866 199.187 295.39 199.187 295.95V296.531C199.187 297.119 199.134 297.687 199.029 298.233C198.924 298.776 198.754 299.279 198.517 299.744C198.284 300.204 197.977 300.61 197.594 300.961C197.215 301.307 196.751 301.578 196.199 301.774C195.652 301.966 195.01 302.062 194.271 302.062H194.121V300.701ZM207.26 299.286C207.26 299.906 207.116 300.428 206.829 300.852C206.542 301.275 206.15 301.597 205.653 301.815C205.161 302.03 204.605 302.137 203.985 302.137C203.366 302.137 202.807 302.03 202.311 301.815C201.814 301.597 201.422 301.275 201.135 300.852C200.848 300.428 200.704 299.906 200.704 299.286C200.704 298.876 200.784 298.505 200.943 298.172C201.103 297.835 201.328 297.545 201.62 297.304C201.916 297.058 202.263 296.868 202.659 296.736C203.06 296.604 203.498 296.538 203.972 296.538C204.601 296.538 205.163 296.654 205.66 296.887C206.157 297.119 206.547 297.44 206.829 297.851C207.116 298.261 207.26 298.739 207.26 299.286ZM205.605 299.204C205.605 298.871 205.537 298.58 205.4 298.329C205.264 298.078 205.072 297.885 204.826 297.748C204.58 297.611 204.295 297.543 203.972 297.543C203.644 297.543 203.359 297.611 203.117 297.748C202.876 297.885 202.687 298.078 202.55 298.329C202.418 298.58 202.352 298.871 202.352 299.204C202.352 299.541 202.418 299.833 202.55 300.079C202.682 300.321 202.871 300.505 203.117 300.633C203.363 300.76 203.653 300.824 203.985 300.824C204.318 300.824 204.605 300.76 204.847 300.633C205.088 300.505 205.275 300.321 205.407 300.079C205.539 299.833 205.605 299.541 205.605 299.204ZM207.034 294.665C207.034 295.162 206.902 295.604 206.638 295.991C206.378 296.379 206.018 296.684 205.558 296.907C205.097 297.126 204.573 297.235 203.985 297.235C203.393 297.235 202.864 297.126 202.399 296.907C201.939 296.684 201.577 296.379 201.312 295.991C201.053 295.604 200.923 295.162 200.923 294.665C200.923 294.073 201.053 293.574 201.312 293.168C201.577 292.758 201.939 292.446 202.399 292.231C202.86 292.017 203.386 291.91 203.979 291.91C204.571 291.91 205.097 292.017 205.558 292.231C206.018 292.446 206.378 292.758 206.638 293.168C206.902 293.574 207.034 294.073 207.034 294.665ZM205.387 294.72C205.387 294.424 205.327 294.164 205.209 293.94C205.095 293.713 204.933 293.535 204.724 293.407C204.514 293.28 204.266 293.216 203.979 293.216C203.691 293.216 203.443 293.277 203.233 293.4C203.024 293.523 202.862 293.697 202.748 293.92C202.634 294.143 202.577 294.41 202.577 294.72C202.577 295.025 202.634 295.292 202.748 295.52C202.862 295.743 203.024 295.918 203.233 296.046C203.448 296.174 203.698 296.237 203.985 296.237C204.272 296.237 204.521 296.174 204.73 296.046C204.94 295.918 205.102 295.743 205.216 295.52C205.33 295.292 205.387 295.025 205.387 294.72ZM215.196 296.189V297.816C215.196 298.596 215.119 299.261 214.964 299.812C214.813 300.359 214.595 300.804 214.308 301.146C214.021 301.487 213.676 301.738 213.275 301.897C212.879 302.057 212.435 302.137 211.942 302.137C211.55 302.137 211.186 302.087 210.849 301.986C210.516 301.886 210.215 301.729 209.946 301.515C209.677 301.3 209.447 301.025 209.256 300.688C209.069 300.346 208.923 299.938 208.818 299.464C208.718 298.99 208.668 298.441 208.668 297.816V296.189C208.668 295.406 208.745 294.745 208.9 294.207C209.055 293.665 209.276 293.225 209.563 292.888C209.851 292.546 210.192 292.298 210.589 292.143C210.99 291.988 211.437 291.91 211.929 291.91C212.325 291.91 212.69 291.96 213.022 292.061C213.36 292.156 213.66 292.309 213.925 292.519C214.194 292.728 214.422 293.002 214.608 293.339C214.8 293.672 214.946 294.075 215.046 294.549C215.146 295.018 215.196 295.565 215.196 296.189ZM213.549 298.049V295.943C213.549 295.547 213.526 295.198 213.48 294.897C213.435 294.592 213.367 294.335 213.275 294.125C213.189 293.911 213.079 293.738 212.947 293.605C212.815 293.469 212.665 293.371 212.496 293.312C212.327 293.248 212.138 293.216 211.929 293.216C211.674 293.216 211.446 293.266 211.245 293.366C211.045 293.462 210.876 293.617 210.739 293.831C210.603 294.045 210.498 294.328 210.425 294.679C210.356 295.025 210.322 295.447 210.322 295.943V298.049C210.322 298.45 210.345 298.803 210.391 299.108C210.436 299.414 210.505 299.676 210.596 299.895C210.687 300.109 210.796 300.286 210.924 300.428C211.056 300.564 211.206 300.665 211.375 300.729C211.548 300.792 211.737 300.824 211.942 300.824C212.202 300.824 212.432 300.774 212.633 300.674C212.833 300.574 213.002 300.414 213.139 300.195C213.275 299.972 213.378 299.683 213.446 299.327C213.515 298.972 213.549 298.546 213.549 298.049Z" fill="#3A3A3A"/>
<path d="M459 236.539L497.5 235.039L497 255.039H459V236.539Z" fill="#F3BEF1"/>
<path d="M465.336 240.013V250H463.688V241.968L461.248 242.795V241.435L465.138 240.013H465.336ZM470.121 248.701H470.258C470.887 248.701 471.411 248.619 471.83 248.455C472.254 248.286 472.591 248.054 472.842 247.758C473.092 247.462 473.272 247.113 473.382 246.712C473.491 246.311 473.546 245.876 473.546 245.406V243.69C473.546 243.285 473.503 242.929 473.416 242.624C473.334 242.314 473.215 242.057 473.061 241.852C472.91 241.642 472.735 241.485 472.534 241.38C472.338 241.275 472.126 241.223 471.898 241.223C471.648 241.223 471.422 241.28 471.222 241.394C471.026 241.503 470.859 241.656 470.723 241.852C470.59 242.043 470.488 242.269 470.415 242.528C470.347 242.784 470.312 243.057 470.312 243.349C470.312 243.622 470.344 243.886 470.408 244.142C470.477 244.392 470.577 244.616 470.709 244.812C470.841 245.007 471.007 245.162 471.208 245.276C471.409 245.39 471.643 245.447 471.912 245.447C472.167 245.447 472.402 245.399 472.616 245.304C472.83 245.203 473.017 245.069 473.177 244.9C473.336 244.732 473.462 244.543 473.553 244.333C473.644 244.123 473.694 243.909 473.703 243.69L474.332 243.882C474.332 244.228 474.259 244.57 474.113 244.907C473.972 245.24 473.774 245.545 473.519 245.823C473.268 246.097 472.974 246.315 472.637 246.479C472.304 246.644 471.942 246.726 471.55 246.726C471.076 246.726 470.657 246.637 470.292 246.459C469.932 246.277 469.631 246.031 469.39 245.721C469.153 245.411 468.975 245.055 468.856 244.654C468.738 244.253 468.679 243.832 468.679 243.39C468.679 242.911 468.752 242.462 468.897 242.043C469.043 241.624 469.255 241.255 469.533 240.936C469.811 240.612 470.148 240.361 470.545 240.184C470.946 240.001 471.399 239.91 471.905 239.91C472.443 239.91 472.915 240.015 473.32 240.225C473.726 240.434 474.068 240.724 474.346 241.093C474.624 241.462 474.833 241.89 474.975 242.378C475.116 242.866 475.187 243.39 475.187 243.95V244.531C475.187 245.119 475.134 245.687 475.029 246.233C474.924 246.776 474.754 247.279 474.517 247.744C474.284 248.204 473.977 248.61 473.594 248.961C473.215 249.307 472.751 249.578 472.199 249.774C471.652 249.966 471.01 250.062 470.271 250.062H470.121V248.701ZM478.078 248.701H478.215C478.844 248.701 479.368 248.619 479.787 248.455C480.211 248.286 480.548 248.054 480.799 247.758C481.049 247.462 481.229 247.113 481.339 246.712C481.448 246.311 481.503 245.876 481.503 245.406V243.69C481.503 243.285 481.46 242.929 481.373 242.624C481.291 242.314 481.173 242.057 481.018 241.852C480.867 241.642 480.692 241.485 480.491 241.38C480.295 241.275 480.083 241.223 479.855 241.223C479.605 241.223 479.379 241.28 479.179 241.394C478.983 241.503 478.816 241.656 478.68 241.852C478.548 242.043 478.445 242.269 478.372 242.528C478.304 242.784 478.27 243.057 478.27 243.349C478.27 243.622 478.301 243.886 478.365 244.142C478.434 244.392 478.534 244.616 478.666 244.812C478.798 245.007 478.965 245.162 479.165 245.276C479.366 245.39 479.6 245.447 479.869 245.447C480.124 245.447 480.359 245.399 480.573 245.304C480.787 245.203 480.974 245.069 481.134 244.9C481.293 244.732 481.419 244.543 481.51 244.333C481.601 244.123 481.651 243.909 481.66 243.69L482.289 243.882C482.289 244.228 482.216 244.57 482.07 244.907C481.929 245.24 481.731 245.545 481.476 245.823C481.225 246.097 480.931 246.315 480.594 246.479C480.261 246.644 479.899 246.726 479.507 246.726C479.033 246.726 478.614 246.637 478.249 246.459C477.889 246.277 477.588 246.031 477.347 245.721C477.11 245.411 476.932 245.055 476.813 244.654C476.695 244.253 476.636 243.832 476.636 243.39C476.636 242.911 476.709 242.462 476.854 242.043C477 241.624 477.212 241.255 477.49 240.936C477.768 240.612 478.105 240.361 478.502 240.184C478.903 240.001 479.356 239.91 479.862 239.91C480.4 239.91 480.872 240.015 481.277 240.225C481.683 240.434 482.025 240.724 482.303 241.093C482.581 241.462 482.79 241.89 482.932 242.378C483.073 242.866 483.144 243.39 483.144 243.95V244.531C483.144 245.119 483.091 245.687 482.986 246.233C482.882 246.776 482.711 247.279 482.474 247.744C482.241 248.204 481.934 248.61 481.551 248.961C481.173 249.307 480.708 249.578 480.156 249.774C479.609 249.966 478.967 250.062 478.229 250.062H478.078V248.701ZM491.196 244.189V245.816C491.196 246.596 491.119 247.261 490.964 247.812C490.813 248.359 490.595 248.804 490.308 249.146C490.021 249.487 489.676 249.738 489.275 249.897C488.879 250.057 488.435 250.137 487.942 250.137C487.55 250.137 487.186 250.087 486.849 249.986C486.516 249.886 486.215 249.729 485.946 249.515C485.677 249.3 485.447 249.025 485.256 248.688C485.069 248.346 484.923 247.938 484.818 247.464C484.718 246.99 484.668 246.441 484.668 245.816V244.189C484.668 243.406 484.745 242.745 484.9 242.207C485.055 241.665 485.276 241.225 485.563 240.888C485.851 240.546 486.192 240.298 486.589 240.143C486.99 239.988 487.437 239.91 487.929 239.91C488.325 239.91 488.69 239.96 489.022 240.061C489.36 240.156 489.66 240.309 489.925 240.519C490.194 240.728 490.422 241.002 490.608 241.339C490.8 241.672 490.946 242.075 491.046 242.549C491.146 243.018 491.196 243.565 491.196 244.189ZM489.549 246.049V243.943C489.549 243.547 489.526 243.198 489.48 242.897C489.435 242.592 489.367 242.335 489.275 242.125C489.189 241.911 489.079 241.738 488.947 241.605C488.815 241.469 488.665 241.371 488.496 241.312C488.327 241.248 488.138 241.216 487.929 241.216C487.674 241.216 487.446 241.266 487.245 241.366C487.045 241.462 486.876 241.617 486.739 241.831C486.603 242.045 486.498 242.328 486.425 242.679C486.356 243.025 486.322 243.447 486.322 243.943V246.049C486.322 246.45 486.345 246.803 486.391 247.108C486.436 247.414 486.505 247.676 486.596 247.895C486.687 248.109 486.796 248.286 486.924 248.428C487.056 248.564 487.206 248.665 487.375 248.729C487.548 248.792 487.737 248.824 487.942 248.824C488.202 248.824 488.432 248.774 488.633 248.674C488.833 248.574 489.002 248.414 489.139 248.195C489.275 247.972 489.378 247.683 489.446 247.327C489.515 246.972 489.549 246.546 489.549 246.049Z" fill="#3A3A3A"/>
<path d="M855 240H893V258H852L855 240Z" fill="#F3BEF1"/>
<path d="M865.51 253.688V255H858.838V253.872L862.078 250.338C862.434 249.937 862.714 249.59 862.919 249.299C863.124 249.007 863.268 248.745 863.35 248.513C863.436 248.276 863.479 248.046 863.479 247.822C863.479 247.508 863.42 247.232 863.302 246.995C863.188 246.754 863.019 246.564 862.796 246.428C862.573 246.286 862.301 246.216 861.982 246.216C861.613 246.216 861.303 246.296 861.053 246.455C860.802 246.615 860.613 246.836 860.485 247.118C860.358 247.396 860.294 247.715 860.294 248.075H858.646C858.646 247.496 858.779 246.968 859.043 246.489C859.307 246.006 859.69 245.623 860.191 245.341C860.693 245.054 861.297 244.91 862.003 244.91C862.668 244.91 863.233 245.022 863.698 245.245C864.163 245.468 864.516 245.785 864.758 246.195C865.004 246.605 865.127 247.091 865.127 247.651C865.127 247.961 865.077 248.269 864.977 248.574C864.876 248.88 864.733 249.185 864.546 249.49C864.364 249.791 864.147 250.094 863.896 250.399C863.646 250.7 863.37 251.006 863.069 251.315L860.916 253.688H865.51ZM873.282 249.189V250.816C873.282 251.596 873.205 252.261 873.05 252.812C872.899 253.359 872.681 253.804 872.394 254.146C872.106 254.487 871.762 254.738 871.361 254.897C870.965 255.057 870.521 255.137 870.028 255.137C869.636 255.137 869.272 255.087 868.935 254.986C868.602 254.886 868.301 254.729 868.032 254.515C867.763 254.3 867.533 254.025 867.342 253.688C867.155 253.346 867.009 252.938 866.904 252.464C866.804 251.99 866.754 251.441 866.754 250.816V249.189C866.754 248.406 866.831 247.745 866.986 247.207C867.141 246.665 867.362 246.225 867.649 245.888C867.937 245.546 868.278 245.298 868.675 245.143C869.076 244.988 869.522 244.91 870.015 244.91C870.411 244.91 870.776 244.96 871.108 245.061C871.446 245.156 871.746 245.309 872.011 245.519C872.28 245.728 872.507 246.002 872.694 246.339C872.886 246.672 873.032 247.075 873.132 247.549C873.232 248.018 873.282 248.565 873.282 249.189ZM871.635 251.049V248.943C871.635 248.547 871.612 248.198 871.566 247.897C871.521 247.592 871.452 247.335 871.361 247.125C871.275 246.911 871.165 246.738 871.033 246.605C870.901 246.469 870.751 246.371 870.582 246.312C870.413 246.248 870.224 246.216 870.015 246.216C869.759 246.216 869.532 246.266 869.331 246.366C869.131 246.462 868.962 246.617 868.825 246.831C868.688 247.045 868.584 247.328 868.511 247.679C868.442 248.025 868.408 248.447 868.408 248.943V251.049C868.408 251.45 868.431 251.803 868.477 252.108C868.522 252.414 868.59 252.676 868.682 252.895C868.773 253.109 868.882 253.286 869.01 253.428C869.142 253.564 869.292 253.665 869.461 253.729C869.634 253.792 869.823 253.824 870.028 253.824C870.288 253.824 870.518 253.774 870.719 253.674C870.919 253.574 871.088 253.414 871.225 253.195C871.361 252.972 871.464 252.683 871.532 252.327C871.601 251.972 871.635 251.546 871.635 251.049ZM881.239 249.189V250.816C881.239 251.596 881.162 252.261 881.007 252.812C880.856 253.359 880.638 253.804 880.351 254.146C880.063 254.487 879.719 254.738 879.318 254.897C878.922 255.057 878.478 255.137 877.985 255.137C877.593 255.137 877.229 255.087 876.892 254.986C876.559 254.886 876.258 254.729 875.989 254.515C875.72 254.3 875.49 254.025 875.299 253.688C875.112 253.346 874.966 252.938 874.861 252.464C874.761 251.99 874.711 251.441 874.711 250.816V249.189C874.711 248.406 874.788 247.745 874.943 247.207C875.098 246.665 875.319 246.225 875.606 245.888C875.894 245.546 876.235 245.298 876.632 245.143C877.033 244.988 877.479 244.91 877.972 244.91C878.368 244.91 878.733 244.96 879.065 245.061C879.403 245.156 879.703 245.309 879.968 245.519C880.237 245.728 880.465 246.002 880.651 246.339C880.843 246.672 880.989 247.075 881.089 247.549C881.189 248.018 881.239 248.565 881.239 249.189ZM879.592 251.049V248.943C879.592 248.547 879.569 248.198 879.523 247.897C879.478 247.592 879.41 247.335 879.318 247.125C879.232 246.911 879.122 246.738 878.99 246.605C878.858 246.469 878.708 246.371 878.539 246.312C878.37 246.248 878.181 246.216 877.972 246.216C877.716 246.216 877.489 246.266 877.288 246.366C877.088 246.462 876.919 246.617 876.782 246.831C876.646 247.045 876.541 247.328 876.468 247.679C876.399 248.025 876.365 248.447 876.365 248.943V251.049C876.365 251.45 876.388 251.803 876.434 252.108C876.479 252.414 876.548 252.676 876.639 252.895C876.73 253.109 876.839 253.286 876.967 253.428C877.099 253.564 877.249 253.665 877.418 253.729C877.591 253.792 877.78 253.824 877.985 253.824C878.245 253.824 878.475 253.774 878.676 253.674C878.876 253.574 879.045 253.414 879.182 253.195C879.318 252.972 879.421 252.683 879.489 252.327C879.558 251.972 879.592 251.546 879.592 251.049ZM889.196 249.189V250.816C889.196 251.596 889.119 252.261 888.964 252.812C888.813 253.359 888.595 253.804 888.308 254.146C888.021 254.487 887.676 254.738 887.275 254.897C886.879 255.057 886.435 255.137 885.942 255.137C885.55 255.137 885.186 255.087 884.849 254.986C884.516 254.886 884.215 254.729 883.946 254.515C883.677 254.3 883.447 254.025 883.256 253.688C883.069 253.346 882.923 252.938 882.818 252.464C882.718 251.99 882.668 251.441 882.668 250.816V249.189C882.668 248.406 882.745 247.745 882.9 247.207C883.055 246.665 883.276 246.225 883.563 245.888C883.851 245.546 884.192 245.298 884.589 245.143C884.99 244.988 885.437 244.91 885.929 244.91C886.325 244.91 886.69 244.96 887.022 245.061C887.36 245.156 887.66 245.309 887.925 245.519C888.194 245.728 888.422 246.002 888.608 246.339C888.8 246.672 888.946 247.075 889.046 247.549C889.146 248.018 889.196 248.565 889.196 249.189ZM887.549 251.049V248.943C887.549 248.547 887.526 248.198 887.48 247.897C887.435 247.592 887.367 247.335 887.275 247.125C887.189 246.911 887.079 246.738 886.947 246.605C886.815 246.469 886.665 246.371 886.496 246.312C886.327 246.248 886.138 246.216 885.929 246.216C885.674 246.216 885.446 246.266 885.245 246.366C885.045 246.462 884.876 246.617 884.739 246.831C884.603 247.045 884.498 247.328 884.425 247.679C884.356 248.025 884.322 248.447 884.322 248.943V251.049C884.322 251.45 884.345 251.803 884.391 252.108C884.436 252.414 884.505 252.676 884.596 252.895C884.687 253.109 884.796 253.286 884.924 253.428C885.056 253.564 885.206 253.665 885.375 253.729C885.548 253.792 885.737 253.824 885.942 253.824C886.202 253.824 886.432 253.774 886.633 253.674C886.833 253.574 887.002 253.414 887.139 253.195C887.275 252.972 887.378 252.683 887.446 252.327C887.515 251.972 887.549 251.546 887.549 251.049Z" fill="#3A3A3A"/>
<path d="M1554 281H1592V299H1551L1554 281Z" fill="#F3BEF1"/>
<path d="M1564.51 293.688V295H1557.84V293.872L1561.08 290.338C1561.43 289.937 1561.71 289.59 1561.92 289.299C1562.12 289.007 1562.27 288.745 1562.35 288.513C1562.44 288.276 1562.48 288.046 1562.48 287.822C1562.48 287.508 1562.42 287.232 1562.3 286.995C1562.19 286.754 1562.02 286.564 1561.8 286.428C1561.57 286.286 1561.3 286.216 1560.98 286.216C1560.61 286.216 1560.3 286.296 1560.05 286.455C1559.8 286.615 1559.61 286.836 1559.49 287.118C1559.36 287.396 1559.29 287.715 1559.29 288.075H1557.65C1557.65 287.496 1557.78 286.968 1558.04 286.489C1558.31 286.006 1558.69 285.623 1559.19 285.341C1559.69 285.054 1560.3 284.91 1561 284.91C1561.67 284.91 1562.23 285.022 1562.7 285.245C1563.16 285.468 1563.52 285.785 1563.76 286.195C1564 286.605 1564.13 287.091 1564.13 287.651C1564.13 287.961 1564.08 288.269 1563.98 288.574C1563.88 288.88 1563.73 289.185 1563.55 289.49C1563.36 289.791 1563.15 290.094 1562.9 290.399C1562.65 290.7 1562.37 291.006 1562.07 291.315L1559.92 293.688H1564.51ZM1572.28 289.189V290.816C1572.28 291.596 1572.2 292.261 1572.05 292.812C1571.9 293.359 1571.68 293.804 1571.39 294.146C1571.11 294.487 1570.76 294.738 1570.36 294.897C1569.96 295.057 1569.52 295.137 1569.03 295.137C1568.64 295.137 1568.27 295.087 1567.93 294.986C1567.6 294.886 1567.3 294.729 1567.03 294.515C1566.76 294.3 1566.53 294.025 1566.34 293.688C1566.15 293.346 1566.01 292.938 1565.9 292.464C1565.8 291.99 1565.75 291.441 1565.75 290.816V289.189C1565.75 288.406 1565.83 287.745 1565.99 287.207C1566.14 286.665 1566.36 286.225 1566.65 285.888C1566.94 285.546 1567.28 285.298 1567.67 285.143C1568.08 284.988 1568.52 284.91 1569.01 284.91C1569.41 284.91 1569.78 284.96 1570.11 285.061C1570.45 285.156 1570.75 285.309 1571.01 285.519C1571.28 285.728 1571.51 286.002 1571.69 286.339C1571.89 286.672 1572.03 287.075 1572.13 287.549C1572.23 288.018 1572.28 288.565 1572.28 289.189ZM1570.63 291.049V288.943C1570.63 288.547 1570.61 288.198 1570.57 287.897C1570.52 287.592 1570.45 287.335 1570.36 287.125C1570.27 286.911 1570.17 286.738 1570.03 286.605C1569.9 286.469 1569.75 286.371 1569.58 286.312C1569.41 286.248 1569.22 286.216 1569.01 286.216C1568.76 286.216 1568.53 286.266 1568.33 286.366C1568.13 286.462 1567.96 286.617 1567.83 286.831C1567.69 287.045 1567.58 287.328 1567.51 287.679C1567.44 288.025 1567.41 288.447 1567.41 288.943V291.049C1567.41 291.45 1567.43 291.803 1567.48 292.108C1567.52 292.414 1567.59 292.676 1567.68 292.895C1567.77 293.109 1567.88 293.286 1568.01 293.428C1568.14 293.564 1568.29 293.665 1568.46 293.729C1568.63 293.792 1568.82 293.824 1569.03 293.824C1569.29 293.824 1569.52 293.774 1569.72 293.674C1569.92 293.574 1570.09 293.414 1570.22 293.195C1570.36 292.972 1570.46 292.683 1570.53 292.327C1570.6 291.972 1570.63 291.546 1570.63 291.049ZM1578.25 285.013V295H1576.6V286.968L1574.16 287.795V286.435L1578.05 285.013H1578.25ZM1588.2 289.189V290.816C1588.2 291.596 1588.12 292.261 1587.96 292.812C1587.81 293.359 1587.59 293.804 1587.31 294.146C1587.02 294.487 1586.68 294.738 1586.28 294.897C1585.88 295.057 1585.43 295.137 1584.94 295.137C1584.55 295.137 1584.19 295.087 1583.85 294.986C1583.52 294.886 1583.22 294.729 1582.95 294.515C1582.68 294.3 1582.45 294.025 1582.26 293.688C1582.07 293.346 1581.92 292.938 1581.82 292.464C1581.72 291.99 1581.67 291.441 1581.67 290.816V289.189C1581.67 288.406 1581.75 287.745 1581.9 287.207C1582.06 286.665 1582.28 286.225 1582.56 285.888C1582.85 285.546 1583.19 285.298 1583.59 285.143C1583.99 284.988 1584.44 284.91 1584.93 284.91C1585.33 284.91 1585.69 284.96 1586.02 285.061C1586.36 285.156 1586.66 285.309 1586.92 285.519C1587.19 285.728 1587.42 286.002 1587.61 286.339C1587.8 286.672 1587.95 287.075 1588.05 287.549C1588.15 288.018 1588.2 288.565 1588.2 289.189ZM1586.55 291.049V288.943C1586.55 288.547 1586.53 288.198 1586.48 287.897C1586.43 287.592 1586.37 287.335 1586.28 287.125C1586.19 286.911 1586.08 286.738 1585.95 286.605C1585.82 286.469 1585.66 286.371 1585.5 286.312C1585.33 286.248 1585.14 286.216 1584.93 286.216C1584.67 286.216 1584.45 286.266 1584.25 286.366C1584.04 286.462 1583.88 286.617 1583.74 286.831C1583.6 287.045 1583.5 287.328 1583.42 287.679C1583.36 288.025 1583.32 288.447 1583.32 288.943V291.049C1583.32 291.45 1583.35 291.803 1583.39 292.108C1583.44 292.414 1583.5 292.676 1583.6 292.895C1583.69 293.109 1583.8 293.286 1583.92 293.428C1584.06 293.564 1584.21 293.665 1584.38 293.729C1584.55 293.792 1584.74 293.824 1584.94 293.824C1585.2 293.824 1585.43 293.774 1585.63 293.674C1585.83 293.574 1586 293.414 1586.14 293.195C1586.28 292.972 1586.38 292.683 1586.45 292.327C1586.51 291.972 1586.55 291.546 1586.55 291.049Z" fill="#3A3A3A"/>
<path d="M3224 334H3258.5L3262 354H3224V334Z" fill="#F3BEF1"/>
<path d="M3234.51 347.688V349H3227.84V347.872L3231.08 344.338C3231.43 343.937 3231.71 343.59 3231.92 343.299C3232.12 343.007 3232.27 342.745 3232.35 342.513C3232.44 342.276 3232.48 342.046 3232.48 341.822C3232.48 341.508 3232.42 341.232 3232.3 340.995C3232.19 340.754 3232.02 340.564 3231.8 340.428C3231.57 340.286 3231.3 340.216 3230.98 340.216C3230.61 340.216 3230.3 340.296 3230.05 340.455C3229.8 340.615 3229.61 340.836 3229.49 341.118C3229.36 341.396 3229.29 341.715 3229.29 342.075H3227.65C3227.65 341.496 3227.78 340.968 3228.04 340.489C3228.31 340.006 3228.69 339.623 3229.19 339.341C3229.69 339.054 3230.3 338.91 3231 338.91C3231.67 338.91 3232.23 339.022 3232.7 339.245C3233.16 339.468 3233.52 339.785 3233.76 340.195C3234 340.605 3234.13 341.091 3234.13 341.651C3234.13 341.961 3234.08 342.269 3233.98 342.574C3233.88 342.88 3233.73 343.185 3233.55 343.49C3233.36 343.791 3233.15 344.094 3232.9 344.399C3232.65 344.7 3232.37 345.006 3232.07 345.315L3229.92 347.688H3234.51ZM3242.28 343.189V344.816C3242.28 345.596 3242.2 346.261 3242.05 346.812C3241.9 347.359 3241.68 347.804 3241.39 348.146C3241.11 348.487 3240.76 348.738 3240.36 348.897C3239.96 349.057 3239.52 349.137 3239.03 349.137C3238.64 349.137 3238.27 349.087 3237.93 348.986C3237.6 348.886 3237.3 348.729 3237.03 348.515C3236.76 348.3 3236.53 348.025 3236.34 347.688C3236.15 347.346 3236.01 346.938 3235.9 346.464C3235.8 345.99 3235.75 345.441 3235.75 344.816V343.189C3235.75 342.406 3235.83 341.745 3235.99 341.207C3236.14 340.665 3236.36 340.225 3236.65 339.888C3236.94 339.546 3237.28 339.298 3237.67 339.143C3238.08 338.988 3238.52 338.91 3239.01 338.91C3239.41 338.91 3239.78 338.96 3240.11 339.061C3240.45 339.156 3240.75 339.309 3241.01 339.519C3241.28 339.728 3241.51 340.002 3241.69 340.339C3241.89 340.672 3242.03 341.075 3242.13 341.549C3242.23 342.018 3242.28 342.565 3242.28 343.189ZM3240.63 345.049V342.943C3240.63 342.547 3240.61 342.198 3240.57 341.897C3240.52 341.592 3240.45 341.335 3240.36 341.125C3240.27 340.911 3240.17 340.738 3240.03 340.605C3239.9 340.469 3239.75 340.371 3239.58 340.312C3239.41 340.248 3239.22 340.216 3239.01 340.216C3238.76 340.216 3238.53 340.266 3238.33 340.366C3238.13 340.462 3237.96 340.617 3237.83 340.831C3237.69 341.045 3237.58 341.328 3237.51 341.679C3237.44 342.025 3237.41 342.447 3237.41 342.943V345.049C3237.41 345.45 3237.43 345.803 3237.48 346.108C3237.52 346.414 3237.59 346.676 3237.68 346.895C3237.77 347.109 3237.88 347.286 3238.01 347.428C3238.14 347.564 3238.29 347.665 3238.46 347.729C3238.63 347.792 3238.82 347.824 3239.03 347.824C3239.29 347.824 3239.52 347.774 3239.72 347.674C3239.92 347.574 3240.09 347.414 3240.22 347.195C3240.36 346.972 3240.46 346.683 3240.53 346.327C3240.6 345.972 3240.63 345.546 3240.63 345.049ZM3250.42 347.688V349H3243.75V347.872L3246.99 344.338C3247.35 343.937 3247.63 343.59 3247.83 343.299C3248.04 343.007 3248.18 342.745 3248.26 342.513C3248.35 342.276 3248.39 342.046 3248.39 341.822C3248.39 341.508 3248.33 341.232 3248.22 340.995C3248.1 340.754 3247.93 340.564 3247.71 340.428C3247.49 340.286 3247.22 340.216 3246.9 340.216C3246.53 340.216 3246.22 340.296 3245.97 340.455C3245.72 340.615 3245.53 340.836 3245.4 341.118C3245.27 341.396 3245.21 341.715 3245.21 342.075H3243.56C3243.56 341.496 3243.69 340.968 3243.96 340.489C3244.22 340.006 3244.6 339.623 3245.11 339.341C3245.61 339.054 3246.21 338.91 3246.92 338.91C3247.58 338.91 3248.15 339.022 3248.61 339.245C3249.08 339.468 3249.43 339.785 3249.67 340.195C3249.92 340.605 3250.04 341.091 3250.04 341.651C3250.04 341.961 3249.99 342.269 3249.89 342.574C3249.79 342.88 3249.65 343.185 3249.46 343.49C3249.28 343.791 3249.06 344.094 3248.81 344.399C3248.56 344.7 3248.28 345.006 3247.98 345.315L3245.83 347.688H3250.42ZM3258.2 343.189V344.816C3258.2 345.596 3258.12 346.261 3257.96 346.812C3257.81 347.359 3257.59 347.804 3257.31 348.146C3257.02 348.487 3256.68 348.738 3256.28 348.897C3255.88 349.057 3255.43 349.137 3254.94 349.137C3254.55 349.137 3254.19 349.087 3253.85 348.986C3253.52 348.886 3253.22 348.729 3252.95 348.515C3252.68 348.3 3252.45 348.025 3252.26 347.688C3252.07 347.346 3251.92 346.938 3251.82 346.464C3251.72 345.99 3251.67 345.441 3251.67 344.816V343.189C3251.67 342.406 3251.75 341.745 3251.9 341.207C3252.06 340.665 3252.28 340.225 3252.56 339.888C3252.85 339.546 3253.19 339.298 3253.59 339.143C3253.99 338.988 3254.44 338.91 3254.93 338.91C3255.33 338.91 3255.69 338.96 3256.02 339.061C3256.36 339.156 3256.66 339.309 3256.92 339.519C3257.19 339.728 3257.42 340.002 3257.61 340.339C3257.8 340.672 3257.95 341.075 3258.05 341.549C3258.15 342.018 3258.2 342.565 3258.2 343.189ZM3256.55 345.049V342.943C3256.55 342.547 3256.53 342.198 3256.48 341.897C3256.43 341.592 3256.37 341.335 3256.28 341.125C3256.19 340.911 3256.08 340.738 3255.95 340.605C3255.82 340.469 3255.66 340.371 3255.5 340.312C3255.33 340.248 3255.14 340.216 3254.93 340.216C3254.67 340.216 3254.45 340.266 3254.25 340.366C3254.04 340.462 3253.88 340.617 3253.74 340.831C3253.6 341.045 3253.5 341.328 3253.42 341.679C3253.36 342.025 3253.32 342.447 3253.32 342.943V345.049C3253.32 345.45 3253.35 345.803 3253.39 346.108C3253.44 346.414 3253.5 346.676 3253.6 346.895C3253.69 347.109 3253.8 347.286 3253.92 347.428C3254.06 347.564 3254.21 347.665 3254.38 347.729C3254.55 347.792 3254.74 347.824 3254.94 347.824C3255.2 347.824 3255.43 347.774 3255.63 347.674C3255.83 347.574 3256 347.414 3256.14 347.195C3256.28 346.972 3256.38 346.683 3256.45 346.327C3256.51 345.972 3256.55 345.546 3256.55 345.049Z" fill="#3A3A3A"/>
<path d="M1696.88 290.901C1696.88 295.257 1692.95 299.438 1688.26 298.773C1685.58 298.388 1680 295.467 1680 291.111C1680 286.755 1683.51 282.766 1688.26 283.011C1698.7 283.571 1696.88 289.116 1696.88 290.901Z" fill="#F67C87"/>
<path d="M2747.88 240.901C2747.88 245.257 2743.95 249.438 2739.26 248.773C2736.58 248.388 2731 245.467 2731 241.111C2731 236.755 2734.51 232.766 2739.26 233.011C2749.7 233.571 2747.88 239.116 2747.88 240.901Z" fill="#F67C87"/>
<path d="M3250.88 370.901C3250.88 375.257 3246.95 379.438 3242.26 378.773C3239.58 378.388 3234 375.467 3234 371.111C3234 366.755 3237.51 362.766 3242.26 363.011C3252.7 363.571 3250.88 369.116 3250.88 370.901Z" fill="#F67C87"/>
<path d="M3943.88 315.901C3943.88 320.257 3939.95 324.438 3935.26 323.773C3932.58 323.388 3927 320.467 3927 316.111C3927 311.755 3930.51 307.766 3935.26 308.011C3945.7 308.571 3943.88 314.116 3943.88 315.901Z" fill="#F67C87"/>
<path d="M2383.88 374.901C2383.88 379.257 2379.95 383.438 2375.26 382.773C2372.58 382.388 2367 379.467 2367 375.111C2367 370.755 2370.51 366.766 2375.26 367.011C2385.7 367.571 2383.88 373.116 2383.88 374.901Z" fill="#F67C87"/>
<path d="M49.9428 346.718C49.9428 348.768 48.0946 350.736 45.8857 350.423C44.6235 350.242 42 348.867 42 346.817C42 344.767 43.6499 342.89 45.8857 343.005C50.7993 343.268 49.9428 345.878 49.9428 346.718Z" fill="#F7B289"/>
<path d="M158.943 306.718C158.943 308.768 157.095 310.736 154.886 310.423C153.624 310.242 151 308.867 151 306.817C151 304.767 152.65 302.89 154.886 303.005C159.799 303.268 158.943 305.878 158.943 306.718Z" fill="#F67C87"/>
<path d="M144.943 309.718C144.943 311.768 143.095 313.736 140.886 313.423C139.624 313.242 137 311.867 137 309.817C137 307.767 138.65 305.89 140.886 306.005C145.799 306.268 144.943 308.878 144.943 309.718Z" fill="#F67C87"/>
<path d="M63.9428 343.718C63.9428 345.768 62.0946 347.736 59.8857 347.423C58.6235 347.242 56 345.867 56 343.817C56 341.767 57.6499 339.89 59.8857 340.005C64.7993 340.268 63.9428 342.878 63.9428 343.718Z" fill="#F67C87"/>
<path d="M393.613 268.401C393.613 270.451 391.764 272.419 389.556 272.106C388.293 271.925 385.67 270.55 385.67 268.5C385.67 266.45 387.32 264.573 389.556 264.688C394.469 264.952 393.613 267.562 393.613 268.401Z" fill="#F67C87"/>
<path d="M827.943 195.77C827.943 197.819 826.095 199.787 823.886 199.474C822.624 199.293 820 197.918 820 195.868C820 193.818 821.65 191.941 823.886 192.057C828.799 192.32 827.943 194.93 827.943 195.77Z" fill="#F67C87"/>
<path d="M721.943 207.885C721.943 209.934 720.095 211.902 717.886 211.589C716.624 211.408 714 210.033 714 207.983C714 205.933 715.65 204.056 717.886 204.172C722.799 204.435 721.943 207.045 721.943 207.885Z" fill="#F67C87"/>
<path d="M507.943 263.718C507.943 265.768 506.095 267.736 503.886 267.423C502.624 267.242 500 265.867 500 263.817C500 261.767 501.65 259.89 503.886 260.005C508.799 260.268 507.943 262.878 507.943 263.718Z" fill="#F67C87"/>
<path d="M1010.94 261.006C1010.94 263.056 1009.09 265.024 1006.89 264.711C1005.62 264.53 1003 263.155 1003 261.105C1003 259.055 1004.65 257.178 1006.89 257.293C1011.8 257.557 1010.94 260.166 1010.94 261.006Z" fill="#F67C87"/>
<path d="M879.943 224.66C879.943 226.71 878.095 228.677 875.886 228.364C874.624 228.183 872 226.808 872 224.758C872 222.708 873.65 220.831 875.886 220.947C880.799 221.21 879.943 223.82 879.943 224.66Z" fill="#F67C87"/>
<path d="M939.943 252.619C939.943 254.669 938.095 256.636 935.886 256.324C934.624 256.142 932 254.768 932 252.718C932 250.668 933.65 248.791 935.886 248.906C940.799 249.169 939.943 251.779 939.943 252.619Z" fill="#F67C87"/>
<path d="M1079.94 258.211C1079.94 260.261 1078.09 262.228 1075.89 261.915C1074.62 261.734 1072 260.359 1072 258.309C1072 256.26 1073.65 254.382 1075.89 254.498C1080.8 254.761 1079.94 257.371 1079.94 258.211Z" fill="#F67C87"/>
<path d="M1154.94 243.299C1154.94 245.349 1153.09 247.316 1150.89 247.004C1149.62 246.822 1147 245.448 1147 243.398C1147 241.348 1148.65 239.471 1150.89 239.586C1155.8 239.849 1154.94 242.459 1154.94 243.299Z" fill="#F67C87"/>
<path d="M1357.94 232.116C1357.94 234.166 1356.09 236.134 1353.89 235.821C1352.62 235.64 1350 234.265 1350 232.215C1350 230.165 1351.65 228.288 1353.89 228.403C1358.8 228.667 1357.94 231.277 1357.94 232.116Z" fill="#F67C87"/>
<path d="M1495.94 250.754C1495.94 252.804 1494.09 254.772 1491.89 254.459C1490.62 254.278 1488 252.903 1488 250.853C1488 248.803 1489.65 246.926 1491.89 247.041C1496.8 247.305 1495.94 249.914 1495.94 250.754Z" fill="#F67C87"/>
<path d="M237.943 288.718C237.943 290.768 236.095 292.736 233.886 292.423C232.624 292.242 230 290.867 230 288.817C230 286.767 231.65 284.89 233.886 285.005C238.799 285.268 237.943 287.878 237.943 288.718Z" fill="#F67C87"/>
<path d="M584.878 267.054C584.878 271.41 580.951 275.591 576.257 274.926C573.575 274.541 568 271.62 568 267.264C568 262.907 571.506 258.919 576.257 259.164C586.698 259.723 584.878 265.269 584.878 267.054Z" fill="#F67C87"/>
<path d="M280.878 281.911C280.878 286.267 276.951 290.448 272.257 289.784C269.575 289.399 264 286.477 264 282.121C264 277.765 267.506 273.776 272.257 274.021C282.698 274.581 280.878 280.127 280.878 281.911Z" fill="#F7B289"/>
<path d="M440.878 262.393C440.878 266.75 436.951 270.931 432.257 270.266C429.575 269.881 424 266.959 424 262.603C424 258.247 427.506 254.258 432.257 254.503C442.698 255.063 440.878 260.609 440.878 262.393Z" fill="#F7B289"/>
<path d="M321.943 274.718C321.943 276.768 320.095 278.736 317.886 278.423C316.624 278.242 314 276.867 314 274.817C314 272.767 315.65 270.89 317.886 271.005C322.799 271.268 321.943 273.878 321.943 274.718Z" fill="#F67C87"/>
<path d="M1416.94 238.639C1416.94 240.689 1415.09 242.656 1412.89 242.344C1411.62 242.162 1409 240.788 1409 238.738C1409 236.688 1410.65 234.811 1412.89 234.926C1417.8 235.189 1416.94 237.799 1416.94 238.639Z" fill="#F7B289"/>
<path d="M543.943 263.802C543.943 265.852 542.095 267.82 539.886 267.507C538.624 267.326 536 265.951 536 263.901C536 261.851 537.65 259.974 539.886 260.089C544.799 260.352 543.943 262.962 543.943 263.802Z" fill="#F7B289"/>
<path d="M654.943 282.441C654.943 284.491 653.095 286.458 650.886 286.146C649.624 285.964 647 284.59 647 282.54C647 280.49 648.65 278.613 650.886 278.728C655.799 278.991 654.943 281.601 654.943 282.441Z" fill="#F7B289"/>
<path d="M480.943 263.718C480.943 265.768 479.095 267.736 476.886 267.423C475.624 267.242 473 265.867 473 263.817C473 261.767 474.65 259.89 476.886 260.005C481.799 260.268 480.943 262.878 480.943 263.718Z" fill="#F7B289"/>
<path d="M1876.94 330.903C1876.94 332.953 1875.09 334.921 1872.89 334.608C1871.62 334.427 1869 333.052 1869 331.002C1869 328.952 1870.65 327.075 1872.89 327.19C1877.8 327.454 1876.94 330.064 1876.94 330.903Z" fill="#F67C87"/>
<path d="M1979.94 337.427C1979.94 339.477 1978.09 341.445 1975.89 341.132C1974.62 340.951 1972 339.576 1972 337.526C1972 335.476 1973.65 333.599 1975.89 333.714C1980.8 333.977 1979.94 336.587 1979.94 337.427Z" fill="#F67C87"/>
<path d="M2115.94 257.278C2115.94 259.328 2114.09 261.296 2111.89 260.983C2110.62 260.802 2108 259.427 2108 257.377C2108 255.327 2109.65 253.45 2111.89 253.565C2116.8 253.829 2115.94 256.438 2115.94 257.278Z" fill="#F67C87"/>
<path d="M2251.94 272.189C2251.94 274.239 2250.09 276.207 2247.89 275.894C2246.62 275.713 2244 274.338 2244 272.288C2244 270.238 2245.65 268.361 2247.89 268.476C2252.8 268.74 2251.94 271.35 2251.94 272.189Z" fill="#F67C87"/>
<path d="M1576.94 265.665C1576.94 267.715 1575.09 269.683 1572.89 269.37C1571.62 269.189 1569 267.814 1569 265.764C1569 263.714 1570.65 261.837 1572.89 261.952C1577.8 262.216 1576.94 264.826 1576.94 265.665Z" fill="#F67C87"/>
<path d="M3620.94 294.718C3620.94 296.768 3619.09 298.736 3616.89 298.423C3615.62 298.242 3613 296.867 3613 294.817C3613 292.767 3614.65 290.89 3616.89 291.005C3621.8 291.268 3620.94 293.878 3620.94 294.718Z" fill="#F67C87"/>
<path d="M1279.88 227.911C1279.88 232.267 1275.95 236.448 1271.26 235.783C1268.58 235.398 1263 232.477 1263 228.12C1263 223.764 1266.51 219.776 1271.26 220.02C1281.7 220.58 1279.88 226.126 1279.88 227.911Z" fill="#F67C87"/>
<path d="M3037.94 324.718C3037.94 326.768 3036.09 328.736 3033.89 328.423C3032.62 328.242 3030 326.867 3030 324.817C3030 322.767 3031.65 320.89 3033.89 321.005C3038.8 321.268 3037.94 323.878 3037.94 324.718Z" fill="#F7B289"/>
</svg>
