<svg width="3703" height="644" viewBox="0 0 3703 644" fill="none" xmlns="http://www.w3.org/2000/svg">
<path opacity="0.3" d="M47.5004 330.866C59.0002 321.546 24.0004 289.86 59.0004 281.472C94.0004 273.085 106.5 365.348 66.5004 335.526C26.5004 305.703 286.282 267.531 486 277.094C570.982 281.163 551.5 301.043 602 295.452C652.5 289.86 615.691 222.854 667.5 206.916C719.309 190.977 769 210.177 796.5 232.078C812.022 244.44 874.5 298.995 1043 264.046C1211.5 229.098 1285 238.417 1493 277.094C1701 315.77 1728.5 342.981 1866.5 350.903C2004.5 358.824 1958 264.046 2091 264.046C2224 264.046 2244.5 387.715 2321 387.715C2452 387.715 2428.98 218.565 2519.5 218.565C2680.5 218.565 2751.05 326.259 2914.5 335.06C3165.5 348.573 3168.5 408.5 3277.5 406.636C3364.7 405.145 3467.17 354.135 3507.5 328.817C3532 309.929 3605.2 273.55 3702 279.142" stroke="#403F3C" stroke-width="3"/>
<path d="M247 59.6653H220.225V506.073H196" stroke="#D9D7CB" stroke-width="2"/>
<path d="M1079 215.302V455.748H1055" stroke="#D9D7CB" stroke-width="2"/>
<path d="M1200 198.527V496.754H1176" stroke="#D9D7CB" stroke-width="2"/>
<path d="M1282 100.672V383.521" stroke="#D9D7CB" stroke-width="2"/>
<path d="M647 106.729V459.475" stroke="#D9D7CB" stroke-width="2"/>
<path d="M1421 40.0945V488.366M1421 558.263V488.366M1421 488.366H1393" stroke="#D9D7CB" stroke-width="2"/>
<path d="M752 164.045V526.111" stroke="#D9D7CB" stroke-width="2"/>
<path d="M247 285.199L247 554.535" stroke="#D9D7CB" stroke-width="2"/>
<line x1="49" y1="329.933" x2="49" y2="429.653" stroke="#D9D7CB" stroke-width="2"/>
<path d="M362 277.745L362 366.747" stroke="#D9D7CB" stroke-width="2"/>
<path d="M156 228.349L156 294.518" stroke="#D9D7CB" stroke-width="2"/>
<path d="M319 252.581L319 278.21" stroke="#D9D7CB" stroke-width="2"/>
<path d="M199 293.587L199 328.07L199 362.552" stroke="#D9D7CB" stroke-width="2"/>
<path d="M406 109.06L406 274.016" stroke="#D9D7CB" stroke-width="2"/>
<path d="M468 208.78L468 273.551" stroke="#D9D7CB" stroke-width="2"/>
<path d="M505.5 74.5764L505.5 492.559" stroke="#D9D7CB" stroke-width="2"/>
<path d="M433 274.016L433 318.284" stroke="#D9D7CB" stroke-width="2"/>
<path d="M579.5 295.446L579.5 347.174" stroke="#D9D7CB" stroke-width="2"/>
<path d="M935.5 274.943L935.5 322.011" stroke="#D9D7CB" stroke-width="2"/>
<path d="M804.072 237.67L804.072 335.52" stroke="#D9D7CB" stroke-width="2"/>
<path d="M1341 218.099L1341 248.853" stroke="#D9D7CB" stroke-width="2"/>
<line y1="-1" x2="31.6863" y2="-1" transform="matrix(0.000644001 1 -1 0.000559343 864 231.146)" stroke="#D9D7CB" stroke-width="2"/>
<path d="M1004.52 108.128L1004.52 268.424" stroke="#D9D7CB" stroke-width="2"/>
<path d="M1200.5 381.187L1170 381.186" stroke="#D9D7CB" stroke-width="2"/>
<path d="M1617 74.5764V392.84M1617 486.036V392.84M1617 392.84H1589" stroke="#D9D7CB" stroke-width="2"/>
<path d="M2909 104V452.5M2909 542.02V452.5M2909 452.5H2881" stroke="#D9D7CB" stroke-width="2"/>
<path d="M1904 73.1787V130.96M1904 415.673H1876M1904 415.673V542.419M1904 415.673V148.201M1904 130.96H1876M1904 130.96V148.201M1904 148.201H1933.5" stroke="#D9D7CB" stroke-width="2"/>
<path d="M2306.24 53.6079V262.832M2306.24 471.5H2278M2306.24 471.5V114.494M2306.24 471.5V492.094M2306.24 541.487V492.094M2306.24 262.832H2333M2306.24 262.832L2306.24 114.494M2306.24 114.494H2336M2306.24 492.094H2333" stroke="#D9D7CB" stroke-width="2"/>
<path d="M3082.24 44.2883V143.076M3082.24 391.5H3054M3082.24 391.5V268M3082.24 391.5V453.418M3082.24 528.44V453.418M3082.24 143.076H3054M3082.24 143.076V268M3082.24 268H3112M3082.24 453.418H3105.5" stroke="#D9D7CB" stroke-width="2"/>
<path d="M2638.74 0L2638.74 37.7443M2638.74 482.288H2571M2638.74 482.288L2638.74 549.389L2638.74 561.97M2638.74 482.288L2638.74 388.5M2638.74 45H2595.5M2638.74 45V37.7443M2638.74 45L2638.74 78.9862V122.494M2638.74 122.494H2723.5M2638.74 122.494V152.812M2638.74 276.791H2505M2638.74 276.791V344.358M2638.74 276.791V203.5M2638.74 344.358H2737M2638.74 344.358V388.5M2638.74 388.5H2531M2638.74 388.5V413.789H2672M2638.74 203.5H2770M2638.74 203.5V152.812M2638.74 152.812H2563.5M2638.74 37.7443H2668.5" stroke="#D9D7CB" stroke-width="2"/>
<path d="M3377.74 44.7544V98.3419M3377.74 462.737H3349.5M3377.74 462.737V537.76M3377.74 462.737V488.863V412.767V360.688M3377.74 121.921H3349.5M3377.74 121.921V98.3419M3377.74 121.921V169.605M3377.74 169.605H3421.5M3377.74 169.605V212.762M3377.74 360.688H3330M3377.74 360.688V212.762M3377.74 212.762H3330M3377.74 98.3419H3407.5" stroke="#D9D7CB" stroke-width="2"/>
<path d="M3606 570.56L3606 493.382M3606 123.687H3630.49M3606 123.687V92M3606 123.687L3606 157.373V230.955M3650 474.568H3606V493.382M3606.01 415.5H3558M3606.01 415.5L3606 372.519M3606.01 415.5L3606 493.382M3606 285.847L3606 230.955M3606 285.847L3606 372.519M3606 285.847H3568.5M3606 230.955H3650M3606 372.519H3650M3606 493.382H3558" stroke="#D9D7CB" stroke-width="2"/>
<path d="M2040 321.683H2074M2040 321.683V435.245M2040 321.683V82.0332" stroke="#D9D7CB" stroke-width="2"/>
<path d="M2176 386L2176 199" stroke="#D9D7CB" stroke-width="2"/>
<line y1="-1" x2="31.6863" y2="-1" transform="matrix(0.000644001 1 -1 0.000559344 1802 309.431)" stroke="#D9D7CB" stroke-width="2"/>
<line x1="1502" y1="267.493" x2="1502" y2="275.88" stroke="#D9D7CB" stroke-width="2"/>
<path d="M12.0977 619.515V628.789H10.5679V621.331L8.30176 622.099V620.835L11.9136 619.515H12.0977ZM16.541 627.583H16.668C17.252 627.583 17.7386 627.507 18.1279 627.354C18.5215 627.198 18.8346 626.982 19.0674 626.707C19.3001 626.432 19.4673 626.108 19.5688 625.736C19.6704 625.363 19.7212 624.959 19.7212 624.523V622.93C19.7212 622.554 19.681 622.223 19.6006 621.94C19.5244 621.652 19.4144 621.413 19.2705 621.223C19.1309 621.028 18.9679 620.882 18.7817 620.785C18.5998 620.687 18.403 620.639 18.1914 620.639C17.9587 620.639 17.7492 620.692 17.563 620.797C17.381 620.899 17.2266 621.041 17.0996 621.223C16.9769 621.4 16.8817 621.61 16.814 621.851C16.7505 622.088 16.7188 622.342 16.7188 622.613C16.7188 622.867 16.7484 623.112 16.8076 623.349C16.8711 623.582 16.9642 623.789 17.0869 623.971C17.2096 624.153 17.3641 624.297 17.5503 624.403C17.7365 624.509 17.9544 624.562 18.2041 624.562C18.4411 624.562 18.659 624.517 18.8579 624.428C19.0568 624.335 19.2303 624.21 19.3784 624.054C19.5265 623.897 19.6429 623.722 19.7275 623.527C19.8122 623.332 19.8587 623.133 19.8672 622.93L20.4512 623.108C20.4512 623.43 20.3835 623.747 20.248 624.06C20.1169 624.369 19.9328 624.653 19.6958 624.911C19.4631 625.165 19.1901 625.368 18.877 625.52C18.568 625.672 18.2316 625.749 17.8677 625.749C17.4276 625.749 17.0382 625.666 16.6997 625.501C16.3654 625.332 16.0861 625.103 15.8618 624.815C15.6418 624.528 15.4767 624.198 15.3667 623.825C15.2567 623.453 15.2017 623.061 15.2017 622.651C15.2017 622.207 15.2694 621.79 15.4048 621.4C15.5402 621.011 15.737 620.668 15.9951 620.372C16.2533 620.072 16.5664 619.839 16.9346 619.674C17.307 619.505 17.728 619.42 18.1978 619.42C18.6971 619.42 19.1351 619.517 19.5117 619.712C19.8883 619.907 20.2057 620.175 20.4639 620.518C20.722 620.861 20.9167 621.259 21.0479 621.711C21.179 622.164 21.2446 622.651 21.2446 623.171V623.711C21.2446 624.257 21.196 624.784 21.0986 625.292C21.0013 625.795 20.8426 626.263 20.6226 626.694C20.4067 627.122 20.1211 627.498 19.7656 627.824C19.4144 628.146 18.9827 628.398 18.4707 628.58C17.9629 628.757 17.3662 628.846 16.6807 628.846H16.541V627.583ZM27.3193 619.49H27.5098V620.74H27.4019C26.856 620.74 26.3841 620.825 25.9863 620.994C25.5928 621.163 25.269 621.396 25.0151 621.692C24.7612 621.989 24.5708 622.336 24.4438 622.733C24.3211 623.127 24.2598 623.546 24.2598 623.99V625.444C24.2598 625.812 24.3 626.138 24.3804 626.421C24.4608 626.701 24.5729 626.936 24.7168 627.126C24.8649 627.312 25.0342 627.454 25.2246 627.551C25.415 627.649 25.6203 627.697 25.8403 627.697C26.0688 627.697 26.2762 627.651 26.4624 627.558C26.6486 627.46 26.8073 627.327 26.9385 627.158C27.0697 626.988 27.1691 626.787 27.2368 626.555C27.3045 626.322 27.3384 626.068 27.3384 625.793C27.3384 625.531 27.3045 625.285 27.2368 625.057C27.1733 624.824 27.0781 624.621 26.9512 624.447C26.8242 624.27 26.6655 624.132 26.4751 624.035C26.2889 623.933 26.0731 623.882 25.8276 623.882C25.5229 623.882 25.2458 623.954 24.9961 624.098C24.7507 624.242 24.5518 624.43 24.3994 624.663C24.2513 624.892 24.1709 625.135 24.1582 625.393L23.5742 625.203C23.6081 624.809 23.6948 624.456 23.8345 624.143C23.9784 623.829 24.1667 623.563 24.3994 623.343C24.6322 623.123 24.9009 622.956 25.2056 622.841C25.5145 622.723 25.853 622.664 26.2212 622.664C26.6698 622.664 27.0591 622.748 27.3892 622.917C27.7192 623.087 27.9922 623.317 28.208 623.609C28.4281 623.897 28.591 624.227 28.6968 624.6C28.8068 624.968 28.8618 625.353 28.8618 625.755C28.8618 626.199 28.7941 626.614 28.6587 626.999C28.5233 627.38 28.3244 627.714 28.062 628.002C27.8039 628.29 27.4886 628.514 27.1162 628.675C26.748 628.836 26.3291 628.916 25.8594 628.916C25.3643 628.916 24.922 628.821 24.5327 628.63C24.1476 628.44 23.8197 628.178 23.5488 627.843C23.2822 627.509 23.0791 627.124 22.9395 626.688C22.7998 626.252 22.73 625.791 22.73 625.304V624.669C22.73 623.967 22.8188 623.305 22.9966 622.683C23.1743 622.056 23.4473 621.504 23.8154 621.026C24.1878 620.548 24.6639 620.173 25.2437 619.902C25.8234 619.627 26.5153 619.49 27.3193 619.49ZM36.1108 623.394V624.904C36.1108 625.628 36.0389 626.246 35.895 626.758C35.7554 627.266 35.5522 627.678 35.2856 627.996C35.019 628.313 34.6995 628.546 34.3271 628.694C33.959 628.842 33.5464 628.916 33.0894 628.916C32.7254 628.916 32.3869 628.869 32.0737 628.776C31.7648 628.683 31.4855 628.537 31.2358 628.338C30.9862 628.139 30.7725 627.883 30.5947 627.57C30.4212 627.253 30.2858 626.874 30.1885 626.434C30.0954 625.994 30.0488 625.484 30.0488 624.904V623.394C30.0488 622.666 30.1208 622.052 30.2646 621.553C30.4085 621.049 30.6138 620.641 30.8804 620.328C31.147 620.01 31.4644 619.78 31.8325 619.636C32.2049 619.492 32.6196 619.42 33.0767 619.42C33.4448 619.42 33.7834 619.466 34.0923 619.56C34.4054 619.648 34.6847 619.79 34.9302 619.985C35.1799 620.18 35.3914 620.433 35.5649 620.747C35.7427 621.056 35.8781 621.43 35.9712 621.87C36.0643 622.306 36.1108 622.814 36.1108 623.394ZM34.5811 625.12V623.165C34.5811 622.797 34.5599 622.473 34.5176 622.194C34.4753 621.91 34.4118 621.671 34.3271 621.477C34.2467 621.278 34.1452 621.117 34.0225 620.994C33.8997 620.867 33.7601 620.776 33.6035 620.721C33.4469 620.662 33.2713 620.632 33.0767 620.632C32.8397 620.632 32.6281 620.679 32.4419 620.772C32.2557 620.861 32.0991 621.005 31.9722 621.204C31.8452 621.403 31.7479 621.665 31.6802 621.991C31.6167 622.312 31.585 622.704 31.585 623.165V625.12C31.585 625.493 31.6061 625.82 31.6484 626.104C31.6908 626.388 31.7542 626.631 31.8389 626.834C31.9235 627.033 32.0251 627.198 32.1436 627.329C32.2663 627.456 32.4059 627.549 32.5625 627.608C32.7233 627.668 32.8989 627.697 33.0894 627.697C33.3306 627.697 33.5443 627.651 33.7305 627.558C33.9167 627.465 34.0732 627.316 34.2002 627.113C34.3271 626.906 34.4224 626.637 34.4858 626.307C34.5493 625.977 34.5811 625.581 34.5811 625.12Z" fill="#3A3A3A"/>
<path d="M79.0977 619.515V628.789H77.5679V621.331L75.3018 622.099V620.835L78.9136 619.515H79.0977ZM83.541 627.583H83.668C84.252 627.583 84.7386 627.507 85.1279 627.354C85.5215 627.198 85.8346 626.982 86.0674 626.707C86.3001 626.432 86.4673 626.108 86.5688 625.736C86.6704 625.363 86.7212 624.959 86.7212 624.523V622.93C86.7212 622.554 86.681 622.223 86.6006 621.94C86.5244 621.652 86.4144 621.413 86.2705 621.223C86.1309 621.028 85.9679 620.882 85.7817 620.785C85.5998 620.687 85.403 620.639 85.1914 620.639C84.9587 620.639 84.7492 620.692 84.563 620.797C84.381 620.899 84.2266 621.041 84.0996 621.223C83.9769 621.4 83.8817 621.61 83.814 621.851C83.7505 622.088 83.7188 622.342 83.7188 622.613C83.7188 622.867 83.7484 623.112 83.8076 623.349C83.8711 623.582 83.9642 623.789 84.0869 623.971C84.2096 624.153 84.3641 624.297 84.5503 624.403C84.7365 624.509 84.9544 624.562 85.2041 624.562C85.4411 624.562 85.659 624.517 85.8579 624.428C86.0568 624.335 86.2303 624.21 86.3784 624.054C86.5265 623.897 86.6429 623.722 86.7275 623.527C86.8122 623.332 86.8587 623.133 86.8672 622.93L87.4512 623.108C87.4512 623.43 87.3835 623.747 87.248 624.06C87.1169 624.369 86.9328 624.653 86.6958 624.911C86.4631 625.165 86.1901 625.368 85.877 625.52C85.568 625.672 85.2316 625.749 84.8677 625.749C84.4276 625.749 84.0382 625.666 83.6997 625.501C83.3654 625.332 83.0861 625.103 82.8618 624.815C82.6418 624.528 82.4767 624.198 82.3667 623.825C82.2567 623.453 82.2017 623.061 82.2017 622.651C82.2017 622.207 82.2694 621.79 82.4048 621.4C82.5402 621.011 82.737 620.668 82.9951 620.372C83.2533 620.072 83.5664 619.839 83.9346 619.674C84.307 619.505 84.728 619.42 85.1978 619.42C85.6971 619.42 86.1351 619.517 86.5117 619.712C86.8883 619.907 87.2057 620.175 87.4639 620.518C87.722 620.861 87.9167 621.259 88.0479 621.711C88.179 622.164 88.2446 622.651 88.2446 623.171V623.711C88.2446 624.257 88.196 624.784 88.0986 625.292C88.0013 625.795 87.8426 626.263 87.6226 626.694C87.4067 627.122 87.1211 627.498 86.7656 627.824C86.4144 628.146 85.9827 628.398 85.4707 628.58C84.9629 628.757 84.3662 628.846 83.6807 628.846H83.541V627.583ZM95.8364 619.547V620.385L92.1421 628.789H90.5298L94.2178 620.766H89.4316V619.547H95.8364ZM103.111 623.394V624.904C103.111 625.628 103.039 626.246 102.895 626.758C102.755 627.266 102.552 627.678 102.286 627.996C102.019 628.313 101.7 628.546 101.327 628.694C100.959 628.842 100.546 628.916 100.089 628.916C99.7254 628.916 99.3869 628.869 99.0737 628.776C98.7648 628.683 98.4855 628.537 98.2358 628.338C97.9862 628.139 97.7725 627.883 97.5947 627.57C97.4212 627.253 97.2858 626.874 97.1885 626.434C97.0954 625.994 97.0488 625.484 97.0488 624.904V623.394C97.0488 622.666 97.1208 622.052 97.2646 621.553C97.4085 621.049 97.6138 620.641 97.8804 620.328C98.147 620.01 98.4644 619.78 98.8325 619.636C99.2049 619.492 99.6196 619.42 100.077 619.42C100.445 619.42 100.783 619.466 101.092 619.56C101.405 619.648 101.685 619.79 101.93 619.985C102.18 620.18 102.391 620.433 102.565 620.747C102.743 621.056 102.878 621.43 102.971 621.87C103.064 622.306 103.111 622.814 103.111 623.394ZM101.581 625.12V623.165C101.581 622.797 101.56 622.473 101.518 622.194C101.475 621.91 101.412 621.671 101.327 621.477C101.247 621.278 101.145 621.117 101.022 620.994C100.9 620.867 100.76 620.776 100.604 620.721C100.447 620.662 100.271 620.632 100.077 620.632C99.8397 620.632 99.6281 620.679 99.4419 620.772C99.2557 620.861 99.0991 621.005 98.9722 621.204C98.8452 621.403 98.7479 621.665 98.6802 621.991C98.6167 622.312 98.585 622.704 98.585 623.165V625.12C98.585 625.493 98.6061 625.82 98.6484 626.104C98.6908 626.388 98.7542 626.631 98.8389 626.834C98.9235 627.033 99.0251 627.198 99.1436 627.329C99.2663 627.456 99.4059 627.549 99.5625 627.608C99.7233 627.668 99.8989 627.697 100.089 627.697C100.331 627.697 100.544 627.651 100.73 627.558C100.917 627.465 101.073 627.316 101.2 627.113C101.327 626.906 101.422 626.637 101.486 626.307C101.549 625.977 101.581 625.581 101.581 625.12Z" fill="#3A3A3A"/>
<path d="M151.098 619.515V628.789H149.568V621.331L147.302 622.099V620.835L150.914 619.515H151.098ZM155.541 627.583H155.668C156.252 627.583 156.739 627.507 157.128 627.354C157.521 627.198 157.835 626.982 158.067 626.707C158.3 626.432 158.467 626.108 158.569 625.736C158.67 625.363 158.721 624.959 158.721 624.523V622.93C158.721 622.554 158.681 622.223 158.601 621.94C158.524 621.652 158.414 621.413 158.271 621.223C158.131 621.028 157.968 620.882 157.782 620.785C157.6 620.687 157.403 620.639 157.191 620.639C156.959 620.639 156.749 620.692 156.563 620.797C156.381 620.899 156.227 621.041 156.1 621.223C155.977 621.4 155.882 621.61 155.814 621.851C155.75 622.088 155.719 622.342 155.719 622.613C155.719 622.867 155.748 623.112 155.808 623.349C155.871 623.582 155.964 623.789 156.087 623.971C156.21 624.153 156.364 624.297 156.55 624.403C156.736 624.509 156.954 624.562 157.204 624.562C157.441 624.562 157.659 624.517 157.858 624.428C158.057 624.335 158.23 624.21 158.378 624.054C158.527 623.897 158.643 623.722 158.728 623.527C158.812 623.332 158.859 623.133 158.867 622.93L159.451 623.108C159.451 623.43 159.383 623.747 159.248 624.06C159.117 624.369 158.933 624.653 158.696 624.911C158.463 625.165 158.19 625.368 157.877 625.52C157.568 625.672 157.232 625.749 156.868 625.749C156.428 625.749 156.038 625.666 155.7 625.501C155.365 625.332 155.086 625.103 154.862 624.815C154.642 624.528 154.477 624.198 154.367 623.825C154.257 623.453 154.202 623.061 154.202 622.651C154.202 622.207 154.269 621.79 154.405 621.4C154.54 621.011 154.737 620.668 154.995 620.372C155.253 620.072 155.566 619.839 155.935 619.674C156.307 619.505 156.728 619.42 157.198 619.42C157.697 619.42 158.135 619.517 158.512 619.712C158.888 619.907 159.206 620.175 159.464 620.518C159.722 620.861 159.917 621.259 160.048 621.711C160.179 622.164 160.245 622.651 160.245 623.171V623.711C160.245 624.257 160.196 624.784 160.099 625.292C160.001 625.795 159.843 626.263 159.623 626.694C159.407 627.122 159.121 627.498 158.766 627.824C158.414 628.146 157.983 628.398 157.471 628.58C156.963 628.757 156.366 628.846 155.681 628.846H155.541V627.583ZM167.741 626.269C167.741 626.845 167.608 627.329 167.341 627.723C167.075 628.116 166.711 628.415 166.25 628.618C165.792 628.817 165.276 628.916 164.701 628.916C164.125 628.916 163.607 628.817 163.146 628.618C162.684 628.415 162.32 628.116 162.054 627.723C161.787 627.329 161.654 626.845 161.654 626.269C161.654 625.888 161.728 625.543 161.876 625.234C162.024 624.921 162.234 624.653 162.504 624.428C162.779 624.2 163.101 624.024 163.469 623.901C163.842 623.779 164.248 623.717 164.688 623.717C165.272 623.717 165.795 623.825 166.256 624.041C166.717 624.257 167.079 624.555 167.341 624.936C167.608 625.317 167.741 625.761 167.741 626.269ZM166.205 626.193C166.205 625.884 166.142 625.613 166.015 625.38C165.888 625.148 165.71 624.968 165.481 624.841C165.253 624.714 164.988 624.65 164.688 624.65C164.383 624.65 164.119 624.714 163.895 624.841C163.67 624.968 163.495 625.148 163.368 625.38C163.245 625.613 163.184 625.884 163.184 626.193C163.184 626.506 163.245 626.777 163.368 627.005C163.49 627.23 163.666 627.401 163.895 627.52C164.123 627.638 164.392 627.697 164.701 627.697C165.01 627.697 165.276 627.638 165.5 627.52C165.725 627.401 165.898 627.23 166.021 627.005C166.144 626.777 166.205 626.506 166.205 626.193ZM167.532 621.978C167.532 622.439 167.409 622.85 167.164 623.209C166.922 623.569 166.588 623.853 166.161 624.06C165.733 624.263 165.247 624.365 164.701 624.365C164.151 624.365 163.66 624.263 163.228 624.06C162.801 623.853 162.464 623.569 162.219 623.209C161.978 622.85 161.857 622.439 161.857 621.978C161.857 621.428 161.978 620.965 162.219 620.588C162.464 620.207 162.801 619.917 163.228 619.718C163.655 619.519 164.144 619.42 164.694 619.42C165.244 619.42 165.733 619.519 166.161 619.718C166.588 619.917 166.922 620.207 167.164 620.588C167.409 620.965 167.532 621.428 167.532 621.978ZM166.002 622.029C166.002 621.754 165.947 621.513 165.837 621.305C165.731 621.094 165.581 620.929 165.386 620.81C165.192 620.692 164.961 620.632 164.694 620.632C164.428 620.632 164.197 620.689 164.002 620.804C163.808 620.918 163.658 621.079 163.552 621.286C163.446 621.493 163.393 621.741 163.393 622.029C163.393 622.312 163.446 622.56 163.552 622.771C163.658 622.979 163.808 623.142 164.002 623.26C164.201 623.379 164.434 623.438 164.701 623.438C164.967 623.438 165.198 623.379 165.393 623.26C165.587 623.142 165.737 622.979 165.843 622.771C165.949 622.56 166.002 622.312 166.002 622.029ZM175.111 623.394V624.904C175.111 625.628 175.039 626.246 174.895 626.758C174.755 627.266 174.552 627.678 174.286 627.996C174.019 628.313 173.7 628.546 173.327 628.694C172.959 628.842 172.546 628.916 172.089 628.916C171.725 628.916 171.387 628.869 171.074 628.776C170.765 628.683 170.486 628.537 170.236 628.338C169.986 628.139 169.772 627.883 169.595 627.57C169.421 627.253 169.286 626.874 169.188 626.434C169.095 625.994 169.049 625.484 169.049 624.904V623.394C169.049 622.666 169.121 622.052 169.265 621.553C169.409 621.049 169.614 620.641 169.88 620.328C170.147 620.01 170.464 619.78 170.833 619.636C171.205 619.492 171.62 619.42 172.077 619.42C172.445 619.42 172.783 619.466 173.092 619.56C173.405 619.648 173.685 619.79 173.93 619.985C174.18 620.18 174.391 620.433 174.565 620.747C174.743 621.056 174.878 621.43 174.971 621.87C175.064 622.306 175.111 622.814 175.111 623.394ZM173.581 625.12V623.165C173.581 622.797 173.56 622.473 173.518 622.194C173.475 621.91 173.412 621.671 173.327 621.477C173.247 621.278 173.145 621.117 173.022 620.994C172.9 620.867 172.76 620.776 172.604 620.721C172.447 620.662 172.271 620.632 172.077 620.632C171.84 620.632 171.628 620.679 171.442 620.772C171.256 620.861 171.099 621.005 170.972 621.204C170.845 621.403 170.748 621.665 170.68 621.991C170.617 622.312 170.585 622.704 170.585 623.165V625.12C170.585 625.493 170.606 625.82 170.648 626.104C170.691 626.388 170.754 626.631 170.839 626.834C170.924 627.033 171.025 627.198 171.144 627.329C171.266 627.456 171.406 627.549 171.562 627.608C171.723 627.668 171.899 627.697 172.089 627.697C172.331 627.697 172.544 627.651 172.73 627.558C172.917 627.465 173.073 627.316 173.2 627.113C173.327 626.906 173.422 626.637 173.486 626.307C173.549 625.977 173.581 625.581 173.581 625.12Z" fill="#3A3A3A"/>
<path d="M395.098 619.515V628.789H393.568V621.331L391.302 622.099V620.835L394.914 619.515H395.098ZM399.541 627.583H399.668C400.252 627.583 400.739 627.507 401.128 627.354C401.521 627.198 401.835 626.982 402.067 626.707C402.3 626.432 402.467 626.108 402.569 625.736C402.67 625.363 402.721 624.959 402.721 624.523V622.93C402.721 622.554 402.681 622.223 402.601 621.94C402.524 621.652 402.414 621.413 402.271 621.223C402.131 621.028 401.968 620.882 401.782 620.785C401.6 620.687 401.403 620.639 401.191 620.639C400.959 620.639 400.749 620.692 400.563 620.797C400.381 620.899 400.227 621.041 400.1 621.223C399.977 621.4 399.882 621.61 399.814 621.851C399.75 622.088 399.719 622.342 399.719 622.613C399.719 622.867 399.748 623.112 399.808 623.349C399.871 623.582 399.964 623.789 400.087 623.971C400.21 624.153 400.364 624.297 400.55 624.403C400.736 624.509 400.954 624.562 401.204 624.562C401.441 624.562 401.659 624.517 401.858 624.428C402.057 624.335 402.23 624.21 402.378 624.054C402.527 623.897 402.643 623.722 402.728 623.527C402.812 623.332 402.859 623.133 402.867 622.93L403.451 623.108C403.451 623.43 403.383 623.747 403.248 624.06C403.117 624.369 402.933 624.653 402.696 624.911C402.463 625.165 402.19 625.368 401.877 625.52C401.568 625.672 401.232 625.749 400.868 625.749C400.428 625.749 400.038 625.666 399.7 625.501C399.365 625.332 399.086 625.103 398.862 624.815C398.642 624.528 398.477 624.198 398.367 623.825C398.257 623.453 398.202 623.061 398.202 622.651C398.202 622.207 398.269 621.79 398.405 621.4C398.54 621.011 398.737 620.668 398.995 620.372C399.253 620.072 399.566 619.839 399.935 619.674C400.307 619.505 400.728 619.42 401.198 619.42C401.697 619.42 402.135 619.517 402.512 619.712C402.888 619.907 403.206 620.175 403.464 620.518C403.722 620.861 403.917 621.259 404.048 621.711C404.179 622.164 404.245 622.651 404.245 623.171V623.711C404.245 624.257 404.196 624.784 404.099 625.292C404.001 625.795 403.843 626.263 403.623 626.694C403.407 627.122 403.121 627.498 402.766 627.824C402.414 628.146 401.983 628.398 401.471 628.58C400.963 628.757 400.366 628.846 399.681 628.846H399.541V627.583ZM406.93 627.583H407.057C407.641 627.583 408.127 627.507 408.517 627.354C408.91 627.198 409.223 626.982 409.456 626.707C409.689 626.432 409.856 626.108 409.958 625.736C410.059 625.363 410.11 624.959 410.11 624.523V622.93C410.11 622.554 410.07 622.223 409.989 621.94C409.913 621.652 409.803 621.413 409.659 621.223C409.52 621.028 409.357 620.882 409.17 620.785C408.988 620.687 408.792 620.639 408.58 620.639C408.347 620.639 408.138 620.692 407.952 620.797C407.77 620.899 407.615 621.041 407.488 621.223C407.366 621.4 407.27 621.61 407.203 621.851C407.139 622.088 407.107 622.342 407.107 622.613C407.107 622.867 407.137 623.112 407.196 623.349C407.26 623.582 407.353 623.789 407.476 623.971C407.598 624.153 407.753 624.297 407.939 624.403C408.125 624.509 408.343 624.562 408.593 624.562C408.83 624.562 409.048 624.517 409.247 624.428C409.445 624.335 409.619 624.21 409.767 624.054C409.915 623.897 410.032 623.722 410.116 623.527C410.201 623.332 410.247 623.133 410.256 622.93L410.84 623.108C410.84 623.43 410.772 623.747 410.637 624.06C410.506 624.369 410.321 624.653 410.084 624.911C409.852 625.165 409.579 625.368 409.266 625.52C408.957 625.672 408.62 625.749 408.256 625.749C407.816 625.749 407.427 625.666 407.088 625.501C406.754 625.332 406.475 625.103 406.25 624.815C406.03 624.528 405.865 624.198 405.755 623.825C405.645 623.453 405.59 623.061 405.59 622.651C405.59 622.207 405.658 621.79 405.793 621.4C405.929 621.011 406.126 620.668 406.384 620.372C406.642 620.072 406.955 619.839 407.323 619.674C407.696 619.505 408.117 619.42 408.586 619.42C409.086 619.42 409.524 619.517 409.9 619.712C410.277 619.907 410.594 620.175 410.853 620.518C411.111 620.861 411.305 621.259 411.437 621.711C411.568 622.164 411.633 622.651 411.633 623.171V623.711C411.633 624.257 411.585 624.784 411.487 625.292C411.39 625.795 411.231 626.263 411.011 626.694C410.795 627.122 410.51 627.498 410.154 627.824C409.803 628.146 409.371 628.398 408.859 628.58C408.352 628.757 407.755 628.846 407.069 628.846H406.93V627.583ZM419.111 623.394V624.904C419.111 625.628 419.039 626.246 418.895 626.758C418.755 627.266 418.552 627.678 418.286 627.996C418.019 628.313 417.7 628.546 417.327 628.694C416.959 628.842 416.546 628.916 416.089 628.916C415.725 628.916 415.387 628.869 415.074 628.776C414.765 628.683 414.486 628.537 414.236 628.338C413.986 628.139 413.772 627.883 413.595 627.57C413.421 627.253 413.286 626.874 413.188 626.434C413.095 625.994 413.049 625.484 413.049 624.904V623.394C413.049 622.666 413.121 622.052 413.265 621.553C413.409 621.049 413.614 620.641 413.88 620.328C414.147 620.01 414.464 619.78 414.833 619.636C415.205 619.492 415.62 619.42 416.077 619.42C416.445 619.42 416.783 619.466 417.092 619.56C417.405 619.648 417.685 619.79 417.93 619.985C418.18 620.18 418.391 620.433 418.565 620.747C418.743 621.056 418.878 621.43 418.971 621.87C419.064 622.306 419.111 622.814 419.111 623.394ZM417.581 625.12V623.165C417.581 622.797 417.56 622.473 417.518 622.194C417.475 621.91 417.412 621.671 417.327 621.477C417.247 621.278 417.145 621.117 417.022 620.994C416.9 620.867 416.76 620.776 416.604 620.721C416.447 620.662 416.271 620.632 416.077 620.632C415.84 620.632 415.628 620.679 415.442 620.772C415.256 620.861 415.099 621.005 414.972 621.204C414.845 621.403 414.748 621.665 414.68 621.991C414.617 622.312 414.585 622.704 414.585 623.165V625.12C414.585 625.493 414.606 625.82 414.648 626.104C414.691 626.388 414.754 626.631 414.839 626.834C414.924 627.033 415.025 627.198 415.144 627.329C415.266 627.456 415.406 627.549 415.562 627.608C415.723 627.668 415.899 627.697 416.089 627.697C416.331 627.697 416.544 627.651 416.73 627.558C416.917 627.465 417.073 627.316 417.2 627.113C417.327 626.906 417.422 626.637 417.486 626.307C417.549 625.977 417.581 625.581 417.581 625.12Z" fill="#3A3A3A"/>
<path d="M796.116 627.57V628.789H789.921V627.742L792.93 624.46C793.26 624.088 793.52 623.766 793.71 623.495C793.901 623.224 794.034 622.981 794.11 622.765C794.191 622.545 794.231 622.331 794.231 622.124C794.231 621.832 794.176 621.576 794.066 621.356C793.96 621.132 793.804 620.956 793.596 620.829C793.389 620.698 793.137 620.632 792.841 620.632C792.498 620.632 792.21 620.706 791.978 620.854C791.745 621.003 791.569 621.208 791.451 621.47C791.332 621.728 791.273 622.025 791.273 622.359H789.743C789.743 621.821 789.866 621.331 790.111 620.886C790.357 620.438 790.712 620.082 791.178 619.82C791.643 619.553 792.204 619.42 792.86 619.42C793.478 619.42 794.002 619.524 794.434 619.731C794.866 619.938 795.194 620.232 795.418 620.613C795.646 620.994 795.761 621.445 795.761 621.965C795.761 622.253 795.714 622.539 795.621 622.822C795.528 623.106 795.395 623.389 795.221 623.673C795.052 623.952 794.851 624.234 794.618 624.517C794.385 624.796 794.129 625.08 793.85 625.368L791.851 627.57H796.116ZM803.333 623.394V624.904C803.333 625.628 803.262 626.246 803.118 626.758C802.978 627.266 802.775 627.678 802.508 627.996C802.242 628.313 801.922 628.546 801.55 628.694C801.182 628.842 800.769 628.916 800.312 628.916C799.948 628.916 799.61 628.869 799.296 628.776C798.987 628.683 798.708 628.537 798.458 628.338C798.209 628.139 797.995 627.883 797.817 627.57C797.644 627.253 797.508 626.874 797.411 626.434C797.318 625.994 797.271 625.484 797.271 624.904V623.394C797.271 622.666 797.343 622.052 797.487 621.553C797.631 621.049 797.836 620.641 798.103 620.328C798.37 620.01 798.687 619.78 799.055 619.636C799.428 619.492 799.842 619.42 800.299 619.42C800.667 619.42 801.006 619.466 801.315 619.56C801.628 619.648 801.907 619.79 802.153 619.985C802.403 620.18 802.614 620.433 802.788 620.747C802.965 621.056 803.101 621.43 803.194 621.87C803.287 622.306 803.333 622.814 803.333 623.394ZM801.804 625.12V623.165C801.804 622.797 801.783 622.473 801.74 622.194C801.698 621.91 801.634 621.671 801.55 621.477C801.469 621.278 801.368 621.117 801.245 620.994C801.122 620.867 800.983 620.776 800.826 620.721C800.67 620.662 800.494 620.632 800.299 620.632C800.062 620.632 799.851 620.679 799.665 620.772C799.478 620.861 799.322 621.005 799.195 621.204C799.068 621.403 798.971 621.665 798.903 621.991C798.839 622.312 798.808 622.704 798.808 623.165V625.12C798.808 625.493 798.829 625.82 798.871 626.104C798.913 626.388 798.977 626.631 799.062 626.834C799.146 627.033 799.248 627.198 799.366 627.329C799.489 627.456 799.629 627.549 799.785 627.608C799.946 627.668 800.122 627.697 800.312 627.697C800.553 627.697 800.767 627.651 800.953 627.558C801.139 627.465 801.296 627.316 801.423 627.113C801.55 626.906 801.645 626.637 801.708 626.307C801.772 625.977 801.804 625.581 801.804 625.12ZM810.722 623.394V624.904C810.722 625.628 810.65 626.246 810.506 626.758C810.367 627.266 810.164 627.678 809.897 627.996C809.63 628.313 809.311 628.546 808.938 628.694C808.57 628.842 808.158 628.916 807.701 628.916C807.337 628.916 806.998 628.869 806.685 628.776C806.376 628.683 806.097 628.537 805.847 628.338C805.597 628.139 805.384 627.883 805.206 627.57C805.033 627.253 804.897 626.874 804.8 626.434C804.707 625.994 804.66 625.484 804.66 624.904V623.394C804.66 622.666 804.732 622.052 804.876 621.553C805.02 621.049 805.225 620.641 805.492 620.328C805.758 620.01 806.076 619.78 806.444 619.636C806.816 619.492 807.231 619.42 807.688 619.42C808.056 619.42 808.395 619.466 808.704 619.56C809.017 619.648 809.296 619.79 809.542 619.985C809.791 620.18 810.003 620.433 810.176 620.747C810.354 621.056 810.489 621.43 810.583 621.87C810.676 622.306 810.722 622.814 810.722 623.394ZM809.192 625.12V623.165C809.192 622.797 809.171 622.473 809.129 622.194C809.087 621.91 809.023 621.671 808.938 621.477C808.858 621.278 808.757 621.117 808.634 620.994C808.511 620.867 808.371 620.776 808.215 620.721C808.058 620.662 807.883 620.632 807.688 620.632C807.451 620.632 807.239 620.679 807.053 620.772C806.867 620.861 806.71 621.005 806.583 621.204C806.457 621.403 806.359 621.665 806.292 621.991C806.228 622.312 806.196 622.704 806.196 623.165V625.12C806.196 625.493 806.217 625.82 806.26 626.104C806.302 626.388 806.366 626.631 806.45 626.834C806.535 627.033 806.636 627.198 806.755 627.329C806.878 627.456 807.017 627.549 807.174 627.608C807.335 627.668 807.51 627.697 807.701 627.697C807.942 627.697 808.156 627.651 808.342 627.558C808.528 627.465 808.685 627.316 808.812 627.113C808.938 626.906 809.034 626.637 809.097 626.307C809.161 625.977 809.192 625.581 809.192 625.12ZM818.111 623.394V624.904C818.111 625.628 818.039 626.246 817.895 626.758C817.755 627.266 817.552 627.678 817.286 627.996C817.019 628.313 816.7 628.546 816.327 628.694C815.959 628.842 815.546 628.916 815.089 628.916C814.725 628.916 814.387 628.869 814.074 628.776C813.765 628.683 813.486 628.537 813.236 628.338C812.986 628.139 812.772 627.883 812.595 627.57C812.421 627.253 812.286 626.874 812.188 626.434C812.095 625.994 812.049 625.484 812.049 624.904V623.394C812.049 622.666 812.121 622.052 812.265 621.553C812.409 621.049 812.614 620.641 812.88 620.328C813.147 620.01 813.464 619.78 813.833 619.636C814.205 619.492 814.62 619.42 815.077 619.42C815.445 619.42 815.783 619.466 816.092 619.56C816.405 619.648 816.685 619.79 816.93 619.985C817.18 620.18 817.391 620.433 817.565 620.747C817.743 621.056 817.878 621.43 817.971 621.87C818.064 622.306 818.111 622.814 818.111 623.394ZM816.581 625.12V623.165C816.581 622.797 816.56 622.473 816.518 622.194C816.475 621.91 816.412 621.671 816.327 621.477C816.247 621.278 816.145 621.117 816.022 620.994C815.9 620.867 815.76 620.776 815.604 620.721C815.447 620.662 815.271 620.632 815.077 620.632C814.84 620.632 814.628 620.679 814.442 620.772C814.256 620.861 814.099 621.005 813.972 621.204C813.845 621.403 813.748 621.665 813.68 621.991C813.617 622.312 813.585 622.704 813.585 623.165V625.12C813.585 625.493 813.606 625.82 813.648 626.104C813.691 626.388 813.754 626.631 813.839 626.834C813.924 627.033 814.025 627.198 814.144 627.329C814.266 627.456 814.406 627.549 814.562 627.608C814.723 627.668 814.899 627.697 815.089 627.697C815.331 627.697 815.544 627.651 815.73 627.558C815.917 627.465 816.073 627.316 816.2 627.113C816.327 626.906 816.422 626.637 816.486 626.307C816.549 625.977 816.581 625.581 816.581 625.12Z" fill="#3A3A3A"/>
<path d="M1494.12 627.57V628.789H1487.92V627.742L1490.93 624.46C1491.26 624.088 1491.52 623.766 1491.71 623.495C1491.9 623.224 1492.03 622.981 1492.11 622.765C1492.19 622.545 1492.23 622.331 1492.23 622.124C1492.23 621.832 1492.18 621.576 1492.07 621.356C1491.96 621.132 1491.8 620.956 1491.6 620.829C1491.39 620.698 1491.14 620.632 1490.84 620.632C1490.5 620.632 1490.21 620.706 1489.98 620.854C1489.74 621.003 1489.57 621.208 1489.45 621.47C1489.33 621.728 1489.27 622.025 1489.27 622.359H1487.74C1487.74 621.821 1487.87 621.331 1488.11 620.886C1488.36 620.438 1488.71 620.082 1489.18 619.82C1489.64 619.553 1490.2 619.42 1490.86 619.42C1491.48 619.42 1492 619.524 1492.43 619.731C1492.87 619.938 1493.19 620.232 1493.42 620.613C1493.65 620.994 1493.76 621.445 1493.76 621.965C1493.76 622.253 1493.71 622.539 1493.62 622.822C1493.53 623.106 1493.39 623.389 1493.22 623.673C1493.05 623.952 1492.85 624.234 1492.62 624.517C1492.39 624.796 1492.13 625.08 1491.85 625.368L1489.85 627.57H1494.12ZM1501.33 623.394V624.904C1501.33 625.628 1501.26 626.246 1501.12 626.758C1500.98 627.266 1500.77 627.678 1500.51 627.996C1500.24 628.313 1499.92 628.546 1499.55 628.694C1499.18 628.842 1498.77 628.916 1498.31 628.916C1497.95 628.916 1497.61 628.869 1497.3 628.776C1496.99 628.683 1496.71 628.537 1496.46 628.338C1496.21 628.139 1496 627.883 1495.82 627.57C1495.64 627.253 1495.51 626.874 1495.41 626.434C1495.32 625.994 1495.27 625.484 1495.27 624.904V623.394C1495.27 622.666 1495.34 622.052 1495.49 621.553C1495.63 621.049 1495.84 620.641 1496.1 620.328C1496.37 620.01 1496.69 619.78 1497.06 619.636C1497.43 619.492 1497.84 619.42 1498.3 619.42C1498.67 619.42 1499.01 619.466 1499.31 619.56C1499.63 619.648 1499.91 619.79 1500.15 619.985C1500.4 620.18 1500.61 620.433 1500.79 620.747C1500.97 621.056 1501.1 621.43 1501.19 621.87C1501.29 622.306 1501.33 622.814 1501.33 623.394ZM1499.8 625.12V623.165C1499.8 622.797 1499.78 622.473 1499.74 622.194C1499.7 621.91 1499.63 621.671 1499.55 621.477C1499.47 621.278 1499.37 621.117 1499.25 620.994C1499.12 620.867 1498.98 620.776 1498.83 620.721C1498.67 620.662 1498.49 620.632 1498.3 620.632C1498.06 620.632 1497.85 620.679 1497.66 620.772C1497.48 620.861 1497.32 621.005 1497.19 621.204C1497.07 621.403 1496.97 621.665 1496.9 621.991C1496.84 622.312 1496.81 622.704 1496.81 623.165V625.12C1496.81 625.493 1496.83 625.82 1496.87 626.104C1496.91 626.388 1496.98 626.631 1497.06 626.834C1497.15 627.033 1497.25 627.198 1497.37 627.329C1497.49 627.456 1497.63 627.549 1497.79 627.608C1497.95 627.668 1498.12 627.697 1498.31 627.697C1498.55 627.697 1498.77 627.651 1498.95 627.558C1499.14 627.465 1499.3 627.316 1499.42 627.113C1499.55 626.906 1499.65 626.637 1499.71 626.307C1499.77 625.977 1499.8 625.581 1499.8 625.12ZM1506.88 619.515V628.789H1505.35V621.331L1503.08 622.099V620.835L1506.69 619.515H1506.88ZM1516.11 623.394V624.904C1516.11 625.628 1516.04 626.246 1515.9 626.758C1515.76 627.266 1515.55 627.678 1515.29 627.996C1515.02 628.313 1514.7 628.546 1514.33 628.694C1513.96 628.842 1513.55 628.916 1513.09 628.916C1512.73 628.916 1512.39 628.869 1512.07 628.776C1511.76 628.683 1511.49 628.537 1511.24 628.338C1510.99 628.139 1510.77 627.883 1510.59 627.57C1510.42 627.253 1510.29 626.874 1510.19 626.434C1510.1 625.994 1510.05 625.484 1510.05 624.904V623.394C1510.05 622.666 1510.12 622.052 1510.26 621.553C1510.41 621.049 1510.61 620.641 1510.88 620.328C1511.15 620.01 1511.46 619.78 1511.83 619.636C1512.2 619.492 1512.62 619.42 1513.08 619.42C1513.44 619.42 1513.78 619.466 1514.09 619.56C1514.41 619.648 1514.68 619.79 1514.93 619.985C1515.18 620.18 1515.39 620.433 1515.56 620.747C1515.74 621.056 1515.88 621.43 1515.97 621.87C1516.06 622.306 1516.11 622.814 1516.11 623.394ZM1514.58 625.12V623.165C1514.58 622.797 1514.56 622.473 1514.52 622.194C1514.48 621.91 1514.41 621.671 1514.33 621.477C1514.25 621.278 1514.15 621.117 1514.02 620.994C1513.9 620.867 1513.76 620.776 1513.6 620.721C1513.45 620.662 1513.27 620.632 1513.08 620.632C1512.84 620.632 1512.63 620.679 1512.44 620.772C1512.26 620.861 1512.1 621.005 1511.97 621.204C1511.85 621.403 1511.75 621.665 1511.68 621.991C1511.62 622.312 1511.58 622.704 1511.58 623.165V625.12C1511.58 625.493 1511.61 625.82 1511.65 626.104C1511.69 626.388 1511.75 626.631 1511.84 626.834C1511.92 627.033 1512.03 627.198 1512.14 627.329C1512.27 627.456 1512.41 627.549 1512.56 627.608C1512.72 627.668 1512.9 627.697 1513.09 627.697C1513.33 627.697 1513.54 627.651 1513.73 627.558C1513.92 627.465 1514.07 627.316 1514.2 627.113C1514.33 626.906 1514.42 626.637 1514.49 626.307C1514.55 625.977 1514.58 625.581 1514.58 625.12Z" fill="#3A3A3A"/>
<path d="M3075.12 627.57V628.789H3068.92V627.742L3071.93 624.46C3072.26 624.088 3072.52 623.766 3072.71 623.495C3072.9 623.224 3073.03 622.981 3073.11 622.765C3073.19 622.545 3073.23 622.331 3073.23 622.124C3073.23 621.832 3073.18 621.576 3073.07 621.356C3072.96 621.132 3072.8 620.956 3072.6 620.829C3072.39 620.698 3072.14 620.632 3071.84 620.632C3071.5 620.632 3071.21 620.706 3070.98 620.854C3070.74 621.003 3070.57 621.208 3070.45 621.47C3070.33 621.728 3070.27 622.025 3070.27 622.359H3068.74C3068.74 621.821 3068.87 621.331 3069.11 620.886C3069.36 620.438 3069.71 620.082 3070.18 619.82C3070.64 619.553 3071.2 619.42 3071.86 619.42C3072.48 619.42 3073 619.524 3073.43 619.731C3073.87 619.938 3074.19 620.232 3074.42 620.613C3074.65 620.994 3074.76 621.445 3074.76 621.965C3074.76 622.253 3074.71 622.539 3074.62 622.822C3074.53 623.106 3074.39 623.389 3074.22 623.673C3074.05 623.952 3073.85 624.234 3073.62 624.517C3073.39 624.796 3073.13 625.08 3072.85 625.368L3070.85 627.57H3075.12ZM3082.33 623.394V624.904C3082.33 625.628 3082.26 626.246 3082.12 626.758C3081.98 627.266 3081.77 627.678 3081.51 627.996C3081.24 628.313 3080.92 628.546 3080.55 628.694C3080.18 628.842 3079.77 628.916 3079.31 628.916C3078.95 628.916 3078.61 628.869 3078.3 628.776C3077.99 628.683 3077.71 628.537 3077.46 628.338C3077.21 628.139 3077 627.883 3076.82 627.57C3076.64 627.253 3076.51 626.874 3076.41 626.434C3076.32 625.994 3076.27 625.484 3076.27 624.904V623.394C3076.27 622.666 3076.34 622.052 3076.49 621.553C3076.63 621.049 3076.84 620.641 3077.1 620.328C3077.37 620.01 3077.69 619.78 3078.06 619.636C3078.43 619.492 3078.84 619.42 3079.3 619.42C3079.67 619.42 3080.01 619.466 3080.31 619.56C3080.63 619.648 3080.91 619.79 3081.15 619.985C3081.4 620.18 3081.61 620.433 3081.79 620.747C3081.97 621.056 3082.1 621.43 3082.19 621.87C3082.29 622.306 3082.33 622.814 3082.33 623.394ZM3080.8 625.12V623.165C3080.8 622.797 3080.78 622.473 3080.74 622.194C3080.7 621.91 3080.63 621.671 3080.55 621.477C3080.47 621.278 3080.37 621.117 3080.25 620.994C3080.12 620.867 3079.98 620.776 3079.83 620.721C3079.67 620.662 3079.49 620.632 3079.3 620.632C3079.06 620.632 3078.85 620.679 3078.66 620.772C3078.48 620.861 3078.32 621.005 3078.19 621.204C3078.07 621.403 3077.97 621.665 3077.9 621.991C3077.84 622.312 3077.81 622.704 3077.81 623.165V625.12C3077.81 625.493 3077.83 625.82 3077.87 626.104C3077.91 626.388 3077.98 626.631 3078.06 626.834C3078.15 627.033 3078.25 627.198 3078.37 627.329C3078.49 627.456 3078.63 627.549 3078.79 627.608C3078.95 627.668 3079.12 627.697 3079.31 627.697C3079.55 627.697 3079.77 627.651 3079.95 627.558C3080.14 627.465 3080.3 627.316 3080.42 627.113C3080.55 626.906 3080.65 626.637 3080.71 626.307C3080.77 625.977 3080.8 625.581 3080.8 625.12ZM3089.89 627.57V628.789H3083.7V627.742L3086.71 624.46C3087.04 624.088 3087.3 623.766 3087.49 623.495C3087.68 623.224 3087.81 622.981 3087.89 622.765C3087.97 622.545 3088.01 622.331 3088.01 622.124C3088.01 621.832 3087.95 621.576 3087.84 621.356C3087.74 621.132 3087.58 620.956 3087.37 620.829C3087.17 620.698 3086.91 620.632 3086.62 620.632C3086.28 620.632 3085.99 620.706 3085.75 620.854C3085.52 621.003 3085.35 621.208 3085.23 621.47C3085.11 621.728 3085.05 622.025 3085.05 622.359H3083.52C3083.52 621.821 3083.64 621.331 3083.89 620.886C3084.13 620.438 3084.49 620.082 3084.96 619.82C3085.42 619.553 3085.98 619.42 3086.64 619.42C3087.26 619.42 3087.78 619.524 3088.21 619.731C3088.64 619.938 3088.97 620.232 3089.2 620.613C3089.42 620.994 3089.54 621.445 3089.54 621.965C3089.54 622.253 3089.49 622.539 3089.4 622.822C3089.31 623.106 3089.17 623.389 3089 623.673C3088.83 623.952 3088.63 624.234 3088.4 624.517C3088.16 624.796 3087.91 625.08 3087.63 625.368L3085.63 627.57H3089.89ZM3097.11 623.394V624.904C3097.11 625.628 3097.04 626.246 3096.9 626.758C3096.76 627.266 3096.55 627.678 3096.29 627.996C3096.02 628.313 3095.7 628.546 3095.33 628.694C3094.96 628.842 3094.55 628.916 3094.09 628.916C3093.73 628.916 3093.39 628.869 3093.07 628.776C3092.76 628.683 3092.49 628.537 3092.24 628.338C3091.99 628.139 3091.77 627.883 3091.59 627.57C3091.42 627.253 3091.29 626.874 3091.19 626.434C3091.1 625.994 3091.05 625.484 3091.05 624.904V623.394C3091.05 622.666 3091.12 622.052 3091.26 621.553C3091.41 621.049 3091.61 620.641 3091.88 620.328C3092.15 620.01 3092.46 619.78 3092.83 619.636C3093.2 619.492 3093.62 619.42 3094.08 619.42C3094.44 619.42 3094.78 619.466 3095.09 619.56C3095.41 619.648 3095.68 619.79 3095.93 619.985C3096.18 620.18 3096.39 620.433 3096.56 620.747C3096.74 621.056 3096.88 621.43 3096.97 621.87C3097.06 622.306 3097.11 622.814 3097.11 623.394ZM3095.58 625.12V623.165C3095.58 622.797 3095.56 622.473 3095.52 622.194C3095.48 621.91 3095.41 621.671 3095.33 621.477C3095.25 621.278 3095.15 621.117 3095.02 620.994C3094.9 620.867 3094.76 620.776 3094.6 620.721C3094.45 620.662 3094.27 620.632 3094.08 620.632C3093.84 620.632 3093.63 620.679 3093.44 620.772C3093.26 620.861 3093.1 621.005 3092.97 621.204C3092.85 621.403 3092.75 621.665 3092.68 621.991C3092.62 622.312 3092.58 622.704 3092.58 623.165V625.12C3092.58 625.493 3092.61 625.82 3092.65 626.104C3092.69 626.388 3092.75 626.631 3092.84 626.834C3092.92 627.033 3093.03 627.198 3093.14 627.329C3093.27 627.456 3093.41 627.549 3093.56 627.608C3093.72 627.668 3093.9 627.697 3094.09 627.697C3094.33 627.697 3094.54 627.651 3094.73 627.558C3094.92 627.465 3095.07 627.316 3095.2 627.113C3095.33 626.906 3095.42 626.637 3095.49 626.307C3095.55 625.977 3095.58 625.581 3095.58 625.12Z" fill="#3A3A3A"/>
<line x1="21" y1="613.385" x2="21" y2="41.9547" stroke="#F7B289" stroke-width="2" stroke-dasharray="2 2"/>
<line x1="84" y1="613.385" x2="84" y2="41.9547" stroke="#F7B289" stroke-width="2" stroke-dasharray="2 2"/>
<line x1="165" y1="613.385" x2="165" y2="41.9547" stroke="#F7B289" stroke-width="2" stroke-dasharray="2 2"/>
<line x1="405" y1="613.385" x2="405" y2="41.9547" stroke="#F7B289" stroke-width="2" stroke-dasharray="2 2"/>
<line x1="804" y1="613.385" x2="804" y2="41.9547" stroke="#F7B289" stroke-width="2" stroke-dasharray="2 2"/>
<line x1="1501" y1="613.385" x2="1501" y2="41.9547" stroke="#F7B289" stroke-width="2" stroke-dasharray="2 2"/>
<line x1="3082" y1="610.431" x2="3082" y2="39.0004" stroke="#F7B289" stroke-width="2" stroke-dasharray="2 2"/>
<path d="M52.9428 330.856C52.9428 332.906 51.0946 334.873 48.8857 334.56C47.6235 334.379 45 333.004 45 330.954C45 328.905 46.6499 327.027 48.8857 327.143C53.7993 327.406 52.9428 330.016 52.9428 330.856Z" fill="#F7B289"/>
<path d="M159.943 295.441C159.943 297.491 158.095 299.458 155.886 299.146C154.624 298.964 152 297.59 152 295.54C152 293.49 153.65 291.613 155.886 291.728C160.799 291.991 159.943 294.601 159.943 295.441Z" fill="#F67C87"/>
<path d="M322.943 278.665C322.943 280.715 321.095 282.683 318.886 282.37C317.624 282.189 315 280.814 315 278.764C315 276.714 316.65 274.837 318.886 274.952C323.799 275.216 322.943 277.826 322.943 278.665Z" fill="#F67C87"/>
<path d="M756.943 208.77C756.943 210.819 755.095 212.787 752.886 212.474C751.624 212.293 749 210.918 749 208.868C749 206.818 750.65 204.941 752.886 205.057C757.799 205.32 756.943 207.93 756.943 208.77Z" fill="#F67C87"/>
<path d="M650.943 220.885C650.943 222.934 649.095 224.902 646.886 224.589C645.624 224.408 643 223.033 643 220.983C643 218.933 644.65 217.056 646.886 217.172C651.799 217.435 650.943 220.045 650.943 220.885Z" fill="#F67C87"/>
<path d="M939.943 274.006C939.943 276.056 938.095 278.024 935.886 277.711C934.624 277.53 932 276.155 932 274.105C932 272.055 933.65 270.178 935.886 270.293C940.799 270.557 939.943 273.166 939.943 274.006Z" fill="#F67C87"/>
<path d="M808.943 237.66C808.943 239.71 807.095 241.677 804.886 241.364C803.624 241.183 801 239.808 801 237.758C801 235.708 802.65 233.831 804.886 233.947C809.799 234.21 808.943 236.82 808.943 237.66Z" fill="#F67C87"/>
<path d="M868.943 265.619C868.943 267.669 867.095 269.636 864.886 269.324C863.624 269.142 861 267.768 861 265.718C861 263.668 862.65 261.791 864.886 261.906C869.799 262.169 868.943 264.779 868.943 265.619Z" fill="#F67C87"/>
<path d="M1008.94 271.211C1008.94 273.261 1007.09 275.228 1004.89 274.915C1003.62 274.734 1001 273.359 1001 271.309C1001 269.26 1002.65 267.382 1004.89 267.498C1009.8 267.761 1008.94 270.371 1008.94 271.211Z" fill="#F67C87"/>
<path d="M1083.94 256.299C1083.94 258.349 1082.09 260.316 1079.89 260.004C1078.62 259.822 1076 258.448 1076 256.398C1076 254.348 1077.65 252.471 1079.89 252.586C1084.8 252.849 1083.94 255.459 1083.94 256.299Z" fill="#F67C87"/>
<path d="M1286.94 245.116C1286.94 247.166 1285.09 249.134 1282.89 248.821C1281.62 248.64 1279 247.265 1279 245.215C1279 243.165 1280.65 241.288 1282.89 241.403C1287.8 241.667 1286.94 244.277 1286.94 245.116Z" fill="#F67C87"/>
<path d="M1424.94 263.754C1424.94 265.804 1423.09 267.772 1420.89 267.459C1419.62 267.278 1417 265.903 1417 263.853C1417 261.803 1418.65 259.926 1420.89 260.041C1425.8 260.305 1424.94 262.914 1424.94 263.754Z" fill="#F67C87"/>
<path d="M202.943 288.917C202.943 290.967 201.095 292.935 198.886 292.622C197.624 292.441 195 291.066 195 289.016C195 286.966 196.65 285.089 198.886 285.204C203.799 285.468 202.943 288.077 202.943 288.917Z" fill="#F67C87"/>
<path d="M513.878 280.054C513.878 284.41 509.951 288.591 505.257 287.926C502.575 287.541 497 284.62 497 280.264C497 275.907 500.506 271.919 505.257 272.164C515.698 272.723 513.878 278.269 513.878 280.054Z" fill="#F67C87"/>
<path d="M229.878 286.576C229.878 290.932 225.951 295.114 221.257 294.449C218.575 294.064 213 291.142 213 286.786C213 282.43 216.506 278.441 221.257 278.686C231.698 279.246 229.878 284.792 229.878 286.576Z" fill="#F7B289"/>
<path d="M369.878 275.393C369.878 279.75 365.951 283.931 361.257 283.266C358.575 282.881 353 279.959 353 275.603C353 271.247 356.506 267.258 361.257 267.503C371.698 268.063 369.878 273.609 369.878 275.393Z" fill="#F7B289"/>
<path d="M250.943 285.189C250.943 287.239 249.095 289.207 246.886 288.894C245.624 288.713 243 287.338 243 285.288C243 283.238 244.65 281.361 246.886 281.476C251.799 281.74 250.943 284.35 250.943 285.189Z" fill="#F67C87"/>
<path d="M1345.94 251.639C1345.94 253.689 1344.09 255.656 1341.89 255.344C1340.62 255.162 1338 253.788 1338 251.738C1338 249.688 1339.65 247.811 1341.89 247.926C1346.8 248.189 1345.94 250.799 1345.94 251.639Z" fill="#F7B289"/>
<path d="M437.943 275.871C437.943 277.921 436.095 279.888 433.886 279.576C432.624 279.394 430 278.02 430 275.97C430 273.92 431.65 272.043 433.886 272.158C438.799 272.421 437.943 275.031 437.943 275.871Z" fill="#F7B289"/>
<path d="M472.943 276.802C472.943 278.852 471.095 280.82 468.886 280.507C467.624 280.326 465 278.951 465 276.901C465 274.851 466.65 272.974 468.886 273.089C473.799 273.352 472.943 275.962 472.943 276.802Z" fill="#F7B289"/>
<path d="M583.943 295.441C583.943 297.491 582.095 299.458 579.886 299.146C578.624 298.964 576 297.59 576 295.54C576 293.49 577.65 291.613 579.886 291.728C584.799 291.991 583.943 294.601 583.943 295.441Z" fill="#F7B289"/>
<path d="M407.943 275.871C407.943 277.921 406.095 279.888 403.886 279.576C402.624 279.394 400 278.02 400 275.97C400 273.92 401.65 272.043 403.886 272.158C408.799 272.421 407.943 275.031 407.943 275.871Z" fill="#F7B289"/>
<path d="M1805.94 343.903C1805.94 345.953 1804.09 347.921 1801.89 347.608C1800.62 347.427 1798 346.052 1798 344.002C1798 341.952 1799.65 340.075 1801.89 340.19C1806.8 340.454 1805.94 343.064 1805.94 343.903Z" fill="#F67C87"/>
<path d="M1908.94 350.427C1908.94 352.477 1907.09 354.445 1904.89 354.132C1903.62 353.951 1901 352.576 1901 350.526C1901 348.476 1902.65 346.599 1904.89 346.714C1909.8 346.977 1908.94 349.587 1908.94 350.427Z" fill="#F67C87"/>
<path d="M2044.94 270.278C2044.94 272.328 2043.09 274.296 2040.89 273.983C2039.62 273.802 2037 272.427 2037 270.377C2037 268.327 2038.65 266.45 2040.89 266.565C2045.8 266.829 2044.94 269.438 2044.94 270.278Z" fill="#F67C87"/>
<path d="M2180.94 285.189C2180.94 287.239 2179.09 289.207 2176.89 288.894C2175.62 288.713 2173 287.338 2173 285.288C2173 283.238 2174.65 281.361 2176.89 281.476C2181.8 281.74 2180.94 284.35 2180.94 285.189Z" fill="#F67C87"/>
<path d="M1505.94 278.665C1505.94 280.715 1504.09 282.683 1501.89 282.37C1500.62 282.189 1498 280.814 1498 278.764C1498 276.714 1499.65 274.837 1501.89 274.952C1506.8 275.216 1505.94 277.826 1505.94 278.665Z" fill="#F67C87"/>
<path d="M3085.94 356.718C3085.94 358.768 3084.09 360.736 3081.89 360.423C3080.62 360.242 3078 358.867 3078 356.817C3078 354.767 3079.65 352.89 3081.89 353.005C3086.8 353.268 3085.94 355.878 3085.94 356.718Z" fill="#F67C87"/>
<path d="M3382.94 386.773C3382.94 388.823 3381.09 390.791 3378.89 390.478C3377.62 390.297 3375 388.922 3375 386.872C3375 384.822 3376.65 382.945 3378.89 383.06C3383.8 383.324 3382.94 385.933 3382.94 386.773Z" fill="#F67C87"/>
<path d="M1208.88 240.911C1208.88 245.267 1204.95 249.448 1200.26 248.783C1197.58 248.398 1192 245.477 1192 241.12C1192 236.764 1195.51 232.776 1200.26 233.02C1210.7 233.58 1208.88 239.126 1208.88 240.911Z" fill="#F67C87"/>
<path d="M2912.94 334.718C2912.94 336.768 2911.09 338.736 2908.89 338.423C2907.62 338.242 2905 336.867 2905 334.817C2905 332.767 2906.65 330.89 2908.89 331.005C2913.8 331.268 2912.94 333.878 2912.94 334.718Z" fill="#F7B289"/>
<path d="M1625.88 303.901C1625.88 308.257 1621.95 312.438 1617.26 311.773C1614.58 311.388 1609 308.467 1609 304.111C1609 299.755 1612.51 295.766 1617.26 296.011C1627.7 296.571 1625.88 302.116 1625.88 303.901Z" fill="#F67C87"/>
<path d="M2647.88 238.901C2647.88 243.257 2643.95 247.438 2639.26 246.773C2636.58 246.388 2631 243.467 2631 239.111C2631 234.755 2634.51 230.766 2639.26 231.011C2649.7 231.571 2647.88 237.116 2647.88 238.901Z" fill="#F67C87"/>
<path d="M3614.88 287.901C3614.88 292.257 3610.95 296.438 3606.26 295.773C3603.58 295.388 3598 292.467 3598 288.111C3598 283.755 3601.51 279.766 3606.26 280.011C3616.7 280.571 3614.88 286.116 3614.88 287.901Z" fill="#F67C87"/>
<path d="M2312.88 387.901C2312.88 392.257 2308.95 396.438 2304.26 395.773C2301.58 395.388 2296 392.467 2296 388.111C2296 383.755 2299.51 379.766 2304.26 380.011C2314.7 380.571 2312.88 386.116 2312.88 387.901Z" fill="#F67C87"/>
</svg>
