<svg width="4134" height="793" viewBox="0 0 4134 793" fill="none" xmlns="http://www.w3.org/2000/svg">
<path d="M47.5004 425C59.0002 415 24.0004 381 59.0004 372C94.0004 363 106.5 462 66.5004 430C26.5004 398 286.282 357.041 486 367.302C570.982 371.668 551.5 393 602 387C652.5 381 615.691 309.102 667.5 292C719.309 274.898 769 295.5 796.5 319C812.022 332.264 874.5 390.802 1043 353.302C1211.5 315.802 1285 325.802 1493 367.302C1701 408.802 1728.5 438 1866.5 446.5C2004.5 455 1958 353.302 2091 353.302C2224 353.302 2244.5 486 2321 486C2452 486 2428.98 304.5 2519.5 304.5C2680.5 304.5 2751.05 420.057 2914.5 429.5C3165.5 444 3168.5 508.302 3277.5 506.302C3364.7 504.702 3467.17 449.969 3507.5 422.802C3532 402.535 3605.2 363.5 3702 369.5C3823 377 3943.5 449.667 4054.5 422.802C4112 408.886 4120 398.333 4132.5 391" stroke="#D9D7CB" stroke-width="4"/>
<path d="M233 133H206.225V612H182" stroke="#D9D7CB" stroke-width="2"/>
<path d="M1079 302V605.5H1055" stroke="#D9D7CB" stroke-width="2"/>
<path d="M1200 284V604H1176" stroke="#D9D7CB" stroke-width="2"/>
<path d="M1282 179V482.5" stroke="#D9D7CB" stroke-width="2"/>
<path d="M674 1H647V564" stroke="#D9D7CB" stroke-width="2"/>
<path d="M1421 114V595M1421 670V595M1421 595H1393" stroke="#D9D7CB" stroke-width="2"/>
<path d="M752 247V635.5" stroke="#D9D7CB" stroke-width="2"/>
<path d="M223.5 341L223.5 665" stroke="#D9D7CB" stroke-width="2"/>
<line x1="49" y1="425" x2="49" y2="532" stroke="#D9D7CB" stroke-width="2"/>
<path d="M330 372L330 467.5" stroke="#D9D7CB" stroke-width="2"/>
<path d="M165 314L165 385" stroke="#D9D7CB" stroke-width="2"/>
<path d="M288 341.5L288 369" stroke="#D9D7CB" stroke-width="2"/>
<path d="M192 385L192 459" stroke="#D9D7CB" stroke-width="2"/>
<path d="M395 191.5L395 368.5" stroke="#D9D7CB" stroke-width="2"/>
<path d="M468 295L468 364.5" stroke="#D9D7CB" stroke-width="2"/>
<path d="M505.5 151L505.5 599.5" stroke="#D9D7CB" stroke-width="2"/>
<path d="M433 365L433 412.5" stroke="#D9D7CB" stroke-width="2"/>
<path d="M579.5 387.995L579.5 443.5" stroke="#D9D7CB" stroke-width="2"/>
<path d="M935.5 365.995L935.5 416.5" stroke="#D9D7CB" stroke-width="2"/>
<path d="M800.52 322L800.519 426.995" stroke="#D9D7CB" stroke-width="2"/>
<path d="M1341 305L1341 338" stroke="#D9D7CB" stroke-width="2"/>
<line x1="865" y1="318.999" x2="865.02" y2="352.999" stroke="#D9D7CB" stroke-width="2"/>
<path d="M1004.52 187L1004.52 358.999" stroke="#D9D7CB" stroke-width="2"/>
<path d="M1200.5 479.994L1170 479.994" stroke="#D9D7CB" stroke-width="2"/>
<path d="M1617 151V492.5M1617 592.5V492.5M1617 492.5H1589" stroke="#D9D7CB" stroke-width="2"/>
<path d="M2943 183V577.631M2943 653V577.631M2943 577.631H2915" stroke="#D9D7CB" stroke-width="2"/>
<path d="M1904 96V168.5M1904 517H1876M1904 517V653M1904 517V230M1904 168.5H1876M1904 168.5V230M1904 230H1933.5" stroke="#D9D7CB" stroke-width="2"/>
<path d="M2306.24 30V118.64M2306.24 544.724H2278M2306.24 544.724V193.831M2306.24 544.724V599M2306.24 652V599M2306.24 118.64H2278M2306.24 118.64V193.831M2306.24 193.831H2336M2306.24 599H2333" stroke="#D9D7CB" stroke-width="2"/>
<path d="M3104.24 118.5V224.5M3104.24 515.5H3076M3104.24 515.5V385M3104.24 515.5V557.5M3104.24 638V557.5M3104.24 224.5H3076M3104.24 224.5V385M3104.24 385H3134M3104.24 557.5H3127.5" stroke="#D9D7CB" stroke-width="2"/>
<path d="M2673.74 14V55.5M2673.74 603.5H2645.5M2673.74 603.5L2673.74 675.5L2673.74 689M2673.74 603.5L2673.74 530M2673.74 108H2645.5M2673.74 108V55.5M2673.74 108V170.753V217.437M2673.74 217.437H2758.5M2673.74 217.437V249.969M2673.74 383H2540M2673.74 383V455.5M2673.74 383V282.5M2673.74 455.5H2772M2673.74 455.5V530M2673.74 530H2566M2673.74 530H2707M2673.74 282.5H2805M2673.74 282.5V249.969M2673.74 249.969H2626M2673.74 55.5H2703.5" stroke="#D9D7CB" stroke-width="2"/>
<path d="M3377.74 30V75.4837M3377.74 567.5H3349.5M3377.74 567.5V648M3377.74 567.5V595.533V513.881V458M3377.74 133.023H3349.5M3377.74 133.023V75.4837M3377.74 133.023V201.8V252.966M3377.74 252.966H3421.5M3377.74 252.966V299.274M3377.74 458H3330M3377.74 458V299.274M3377.74 299.274H3330M3377.74 75.4837H3407.5" stroke="#D9D7CB" stroke-width="2"/>
<path d="M3630.01 677.5L3630.01 614.874M3630.01 156.251H3601.61M3630.01 156.251V93M3630.01 156.251L3630.01 234.146V313.101M3674 574.5H3630.01V614.874M3630 534.5H3582M3630 534.5L3630.01 465M3630 534.5L3630.01 614.874M3630.01 372L3630.01 313.101M3630.01 372L3630.01 465M3630.01 372H3592.5M3630.01 313.101H3674M3630.01 465H3674M3630.01 614.874H3582" stroke="#D9D7CB" stroke-width="2"/>
<path d="M2040 416.147H2074M2040 416.147V538M2040 416.147V159" stroke="#D9D7CB" stroke-width="2"/>
<path d="M2176 649.5L2176 305" stroke="#D9D7CB" stroke-width="2"/>
<line x1="1802" y1="402.999" x2="1802.02" y2="436.999" stroke="#D9D7CB" stroke-width="2"/>
<line x1="1502" y1="358" x2="1502" y2="367" stroke="#D9D7CB" stroke-width="2"/>
<path d="M12.0977 763.726V773H10.5679V765.542L8.30176 766.31V765.046L11.9136 763.726H12.0977ZM16.541 771.794H16.668C17.252 771.794 17.7386 771.718 18.1279 771.565C18.5215 771.409 18.8346 771.193 19.0674 770.918C19.3001 770.643 19.4673 770.319 19.5688 769.947C19.6704 769.574 19.7212 769.17 19.7212 768.734V767.141C19.7212 766.764 19.681 766.434 19.6006 766.151C19.5244 765.863 19.4144 765.624 19.2705 765.434C19.1309 765.239 18.9679 765.093 18.7817 764.996C18.5998 764.898 18.403 764.85 18.1914 764.85C17.9587 764.85 17.7492 764.903 17.563 765.008C17.381 765.11 17.2266 765.252 17.0996 765.434C16.9769 765.611 16.8817 765.821 16.814 766.062C16.7505 766.299 16.7188 766.553 16.7188 766.824C16.7188 767.078 16.7484 767.323 16.8076 767.56C16.8711 767.793 16.9642 768 17.0869 768.182C17.2096 768.364 17.3641 768.508 17.5503 768.614C17.7365 768.72 17.9544 768.772 18.2041 768.772C18.4411 768.772 18.659 768.728 18.8579 768.639C19.0568 768.546 19.2303 768.421 19.3784 768.265C19.5265 768.108 19.6429 767.932 19.7275 767.738C19.8122 767.543 19.8587 767.344 19.8672 767.141L20.4512 767.319C20.4512 767.64 20.3835 767.958 20.248 768.271C20.1169 768.58 19.9328 768.863 19.6958 769.122C19.4631 769.375 19.1901 769.579 18.877 769.731C18.568 769.883 18.2316 769.959 17.8677 769.959C17.4276 769.959 17.0382 769.877 16.6997 769.712C16.3654 769.543 16.0861 769.314 15.8618 769.026C15.6418 768.739 15.4767 768.409 15.3667 768.036C15.2567 767.664 15.2017 767.272 15.2017 766.862C15.2017 766.417 15.2694 766.001 15.4048 765.611C15.5402 765.222 15.737 764.879 15.9951 764.583C16.2533 764.283 16.5664 764.05 16.9346 763.885C17.307 763.715 17.728 763.631 18.1978 763.631C18.6971 763.631 19.1351 763.728 19.5117 763.923C19.8883 764.118 20.2057 764.386 20.4639 764.729C20.722 765.072 20.9167 765.47 21.0479 765.922C21.179 766.375 21.2446 766.862 21.2446 767.382V767.922C21.2446 768.468 21.196 768.995 21.0986 769.502C21.0013 770.006 20.8426 770.474 20.6226 770.905C20.4067 771.333 20.1211 771.709 19.7656 772.035C19.4144 772.357 18.9827 772.609 18.4707 772.791C17.9629 772.968 17.3662 773.057 16.6807 773.057H16.541V771.794ZM27.3193 763.701H27.5098V764.951H27.4019C26.856 764.951 26.3841 765.036 25.9863 765.205C25.5928 765.374 25.269 765.607 25.0151 765.903C24.7612 766.2 24.5708 766.547 24.4438 766.944C24.3211 767.338 24.2598 767.757 24.2598 768.201V769.655C24.2598 770.023 24.3 770.349 24.3804 770.632C24.4608 770.912 24.5729 771.146 24.7168 771.337C24.8649 771.523 25.0342 771.665 25.2246 771.762C25.415 771.86 25.6203 771.908 25.8403 771.908C26.0688 771.908 26.2762 771.862 26.4624 771.769C26.6486 771.671 26.8073 771.538 26.9385 771.369C27.0697 771.199 27.1691 770.998 27.2368 770.766C27.3045 770.533 27.3384 770.279 27.3384 770.004C27.3384 769.742 27.3045 769.496 27.2368 769.268C27.1733 769.035 27.0781 768.832 26.9512 768.658C26.8242 768.48 26.6655 768.343 26.4751 768.246C26.2889 768.144 26.0731 768.093 25.8276 768.093C25.5229 768.093 25.2458 768.165 24.9961 768.309C24.7507 768.453 24.5518 768.641 24.3994 768.874C24.2513 769.103 24.1709 769.346 24.1582 769.604L23.5742 769.414C23.6081 769.02 23.6948 768.667 23.8345 768.354C23.9784 768.04 24.1667 767.774 24.3994 767.554C24.6322 767.334 24.9009 767.167 25.2056 767.052C25.5145 766.934 25.853 766.875 26.2212 766.875C26.6698 766.875 27.0591 766.959 27.3892 767.128C27.7192 767.298 27.9922 767.528 28.208 767.82C28.4281 768.108 28.591 768.438 28.6968 768.811C28.8068 769.179 28.8618 769.564 28.8618 769.966C28.8618 770.41 28.7941 770.825 28.6587 771.21C28.5233 771.591 28.3244 771.925 28.062 772.213C27.8039 772.501 27.4886 772.725 27.1162 772.886C26.748 773.047 26.3291 773.127 25.8594 773.127C25.3643 773.127 24.922 773.032 24.5327 772.841C24.1476 772.651 23.8197 772.389 23.5488 772.054C23.2822 771.72 23.0791 771.335 22.9395 770.899C22.7998 770.463 22.73 770.002 22.73 769.515V768.88C22.73 768.178 22.8188 767.516 22.9966 766.894C23.1743 766.267 23.4473 765.715 23.8154 765.237C24.1878 764.759 24.6639 764.384 25.2437 764.113C25.8234 763.838 26.5153 763.701 27.3193 763.701ZM36.1108 767.604V769.115C36.1108 769.839 36.0389 770.457 35.895 770.969C35.7554 771.477 35.5522 771.889 35.2856 772.207C35.019 772.524 34.6995 772.757 34.3271 772.905C33.959 773.053 33.5464 773.127 33.0894 773.127C32.7254 773.127 32.3869 773.08 32.0737 772.987C31.7648 772.894 31.4855 772.748 31.2358 772.549C30.9862 772.35 30.7725 772.094 30.5947 771.781C30.4212 771.464 30.2858 771.085 30.1885 770.645C30.0954 770.205 30.0488 769.695 30.0488 769.115V767.604C30.0488 766.877 30.1208 766.263 30.2646 765.764C30.4085 765.26 30.6138 764.852 30.8804 764.539C31.147 764.221 31.4644 763.991 31.8325 763.847C32.2049 763.703 32.6196 763.631 33.0767 763.631C33.4448 763.631 33.7834 763.677 34.0923 763.771C34.4054 763.859 34.6847 764.001 34.9302 764.196C35.1799 764.39 35.3914 764.644 35.5649 764.958C35.7427 765.266 35.8781 765.641 35.9712 766.081C36.0643 766.517 36.1108 767.025 36.1108 767.604ZM34.5811 769.331V767.376C34.5811 767.008 34.5599 766.684 34.5176 766.405C34.4753 766.121 34.4118 765.882 34.3271 765.688C34.2467 765.489 34.1452 765.328 34.0225 765.205C33.8997 765.078 33.7601 764.987 33.6035 764.932C33.4469 764.873 33.2713 764.843 33.0767 764.843C32.8397 764.843 32.6281 764.89 32.4419 764.983C32.2557 765.072 32.0991 765.216 31.9722 765.415C31.8452 765.613 31.7479 765.876 31.6802 766.202C31.6167 766.523 31.585 766.915 31.585 767.376V769.331C31.585 769.703 31.6061 770.031 31.6484 770.315C31.6908 770.598 31.7542 770.842 31.8389 771.045C31.9235 771.244 32.0251 771.409 32.1436 771.54C32.2663 771.667 32.4059 771.76 32.5625 771.819C32.7233 771.879 32.8989 771.908 33.0894 771.908C33.3306 771.908 33.5443 771.862 33.7305 771.769C33.9167 771.675 34.0732 771.527 34.2002 771.324C34.3271 771.117 34.4224 770.848 34.4858 770.518C34.5493 770.188 34.5811 769.792 34.5811 769.331Z" fill="#3A3A3A"/>
<path d="M79.0977 763.726V773H77.5679V765.542L75.3018 766.31V765.046L78.9136 763.726H79.0977ZM83.541 771.794H83.668C84.252 771.794 84.7386 771.718 85.1279 771.565C85.5215 771.409 85.8346 771.193 86.0674 770.918C86.3001 770.643 86.4673 770.319 86.5688 769.947C86.6704 769.574 86.7212 769.17 86.7212 768.734V767.141C86.7212 766.764 86.681 766.434 86.6006 766.151C86.5244 765.863 86.4144 765.624 86.2705 765.434C86.1309 765.239 85.9679 765.093 85.7817 764.996C85.5998 764.898 85.403 764.85 85.1914 764.85C84.9587 764.85 84.7492 764.903 84.563 765.008C84.381 765.11 84.2266 765.252 84.0996 765.434C83.9769 765.611 83.8817 765.821 83.814 766.062C83.7505 766.299 83.7188 766.553 83.7188 766.824C83.7188 767.078 83.7484 767.323 83.8076 767.56C83.8711 767.793 83.9642 768 84.0869 768.182C84.2096 768.364 84.3641 768.508 84.5503 768.614C84.7365 768.72 84.9544 768.772 85.2041 768.772C85.4411 768.772 85.659 768.728 85.8579 768.639C86.0568 768.546 86.2303 768.421 86.3784 768.265C86.5265 768.108 86.6429 767.932 86.7275 767.738C86.8122 767.543 86.8587 767.344 86.8672 767.141L87.4512 767.319C87.4512 767.64 87.3835 767.958 87.248 768.271C87.1169 768.58 86.9328 768.863 86.6958 769.122C86.4631 769.375 86.1901 769.579 85.877 769.731C85.568 769.883 85.2316 769.959 84.8677 769.959C84.4276 769.959 84.0382 769.877 83.6997 769.712C83.3654 769.543 83.0861 769.314 82.8618 769.026C82.6418 768.739 82.4767 768.409 82.3667 768.036C82.2567 767.664 82.2017 767.272 82.2017 766.862C82.2017 766.417 82.2694 766.001 82.4048 765.611C82.5402 765.222 82.737 764.879 82.9951 764.583C83.2533 764.283 83.5664 764.05 83.9346 763.885C84.307 763.715 84.728 763.631 85.1978 763.631C85.6971 763.631 86.1351 763.728 86.5117 763.923C86.8883 764.118 87.2057 764.386 87.4639 764.729C87.722 765.072 87.9167 765.47 88.0479 765.922C88.179 766.375 88.2446 766.862 88.2446 767.382V767.922C88.2446 768.468 88.196 768.995 88.0986 769.502C88.0013 770.006 87.8426 770.474 87.6226 770.905C87.4067 771.333 87.1211 771.709 86.7656 772.035C86.4144 772.357 85.9827 772.609 85.4707 772.791C84.9629 772.968 84.3662 773.057 83.6807 773.057H83.541V771.794ZM95.8364 763.758V764.596L92.1421 773H90.5298L94.2178 764.977H89.4316V763.758H95.8364ZM103.111 767.604V769.115C103.111 769.839 103.039 770.457 102.895 770.969C102.755 771.477 102.552 771.889 102.286 772.207C102.019 772.524 101.7 772.757 101.327 772.905C100.959 773.053 100.546 773.127 100.089 773.127C99.7254 773.127 99.3869 773.08 99.0737 772.987C98.7648 772.894 98.4855 772.748 98.2358 772.549C97.9862 772.35 97.7725 772.094 97.5947 771.781C97.4212 771.464 97.2858 771.085 97.1885 770.645C97.0954 770.205 97.0488 769.695 97.0488 769.115V767.604C97.0488 766.877 97.1208 766.263 97.2646 765.764C97.4085 765.26 97.6138 764.852 97.8804 764.539C98.147 764.221 98.4644 763.991 98.8325 763.847C99.2049 763.703 99.6196 763.631 100.077 763.631C100.445 763.631 100.783 763.677 101.092 763.771C101.405 763.859 101.685 764.001 101.93 764.196C102.18 764.39 102.391 764.644 102.565 764.958C102.743 765.266 102.878 765.641 102.971 766.081C103.064 766.517 103.111 767.025 103.111 767.604ZM101.581 769.331V767.376C101.581 767.008 101.56 766.684 101.518 766.405C101.475 766.121 101.412 765.882 101.327 765.688C101.247 765.489 101.145 765.328 101.022 765.205C100.9 765.078 100.76 764.987 100.604 764.932C100.447 764.873 100.271 764.843 100.077 764.843C99.8397 764.843 99.6281 764.89 99.4419 764.983C99.2557 765.072 99.0991 765.216 98.9722 765.415C98.8452 765.613 98.7479 765.876 98.6802 766.202C98.6167 766.523 98.585 766.915 98.585 767.376V769.331C98.585 769.703 98.6061 770.031 98.6484 770.315C98.6908 770.598 98.7542 770.842 98.8389 771.045C98.9235 771.244 99.0251 771.409 99.1436 771.54C99.2663 771.667 99.4059 771.76 99.5625 771.819C99.7233 771.879 99.8989 771.908 100.089 771.908C100.331 771.908 100.544 771.862 100.73 771.769C100.917 771.675 101.073 771.527 101.2 771.324C101.327 771.117 101.422 770.848 101.486 770.518C101.549 770.188 101.581 769.792 101.581 769.331Z" fill="#3A3A3A"/>
<path d="M151.098 763.726V773H149.568V765.542L147.302 766.31V765.046L150.914 763.726H151.098ZM155.541 771.794H155.668C156.252 771.794 156.739 771.718 157.128 771.565C157.521 771.409 157.835 771.193 158.067 770.918C158.3 770.643 158.467 770.319 158.569 769.947C158.67 769.574 158.721 769.17 158.721 768.734V767.141C158.721 766.764 158.681 766.434 158.601 766.151C158.524 765.863 158.414 765.624 158.271 765.434C158.131 765.239 157.968 765.093 157.782 764.996C157.6 764.898 157.403 764.85 157.191 764.85C156.959 764.85 156.749 764.903 156.563 765.008C156.381 765.11 156.227 765.252 156.1 765.434C155.977 765.611 155.882 765.821 155.814 766.062C155.75 766.299 155.719 766.553 155.719 766.824C155.719 767.078 155.748 767.323 155.808 767.56C155.871 767.793 155.964 768 156.087 768.182C156.21 768.364 156.364 768.508 156.55 768.614C156.736 768.72 156.954 768.772 157.204 768.772C157.441 768.772 157.659 768.728 157.858 768.639C158.057 768.546 158.23 768.421 158.378 768.265C158.527 768.108 158.643 767.932 158.728 767.738C158.812 767.543 158.859 767.344 158.867 767.141L159.451 767.319C159.451 767.64 159.383 767.958 159.248 768.271C159.117 768.58 158.933 768.863 158.696 769.122C158.463 769.375 158.19 769.579 157.877 769.731C157.568 769.883 157.232 769.959 156.868 769.959C156.428 769.959 156.038 769.877 155.7 769.712C155.365 769.543 155.086 769.314 154.862 769.026C154.642 768.739 154.477 768.409 154.367 768.036C154.257 767.664 154.202 767.272 154.202 766.862C154.202 766.417 154.269 766.001 154.405 765.611C154.54 765.222 154.737 764.879 154.995 764.583C155.253 764.283 155.566 764.05 155.935 763.885C156.307 763.715 156.728 763.631 157.198 763.631C157.697 763.631 158.135 763.728 158.512 763.923C158.888 764.118 159.206 764.386 159.464 764.729C159.722 765.072 159.917 765.47 160.048 765.922C160.179 766.375 160.245 766.862 160.245 767.382V767.922C160.245 768.468 160.196 768.995 160.099 769.502C160.001 770.006 159.843 770.474 159.623 770.905C159.407 771.333 159.121 771.709 158.766 772.035C158.414 772.357 157.983 772.609 157.471 772.791C156.963 772.968 156.366 773.057 155.681 773.057H155.541V771.794ZM167.741 770.48C167.741 771.056 167.608 771.54 167.341 771.934C167.075 772.327 166.711 772.625 166.25 772.829C165.792 773.028 165.276 773.127 164.701 773.127C164.125 773.127 163.607 773.028 163.146 772.829C162.684 772.625 162.32 772.327 162.054 771.934C161.787 771.54 161.654 771.056 161.654 770.48C161.654 770.099 161.728 769.754 161.876 769.445C162.024 769.132 162.234 768.863 162.504 768.639C162.779 768.411 163.101 768.235 163.469 768.112C163.842 767.99 164.248 767.928 164.688 767.928C165.272 767.928 165.795 768.036 166.256 768.252C166.717 768.468 167.079 768.766 167.341 769.147C167.608 769.528 167.741 769.972 167.741 770.48ZM166.205 770.404C166.205 770.095 166.142 769.824 166.015 769.591C165.888 769.359 165.71 769.179 165.481 769.052C165.253 768.925 164.988 768.861 164.688 768.861C164.383 768.861 164.119 768.925 163.895 769.052C163.67 769.179 163.495 769.359 163.368 769.591C163.245 769.824 163.184 770.095 163.184 770.404C163.184 770.717 163.245 770.988 163.368 771.216C163.49 771.441 163.666 771.612 163.895 771.73C164.123 771.849 164.392 771.908 164.701 771.908C165.01 771.908 165.276 771.849 165.5 771.73C165.725 771.612 165.898 771.441 166.021 771.216C166.144 770.988 166.205 770.717 166.205 770.404ZM167.532 766.189C167.532 766.65 167.409 767.061 167.164 767.42C166.922 767.78 166.588 768.064 166.161 768.271C165.733 768.474 165.247 768.576 164.701 768.576C164.151 768.576 163.66 768.474 163.228 768.271C162.801 768.064 162.464 767.78 162.219 767.42C161.978 767.061 161.857 766.65 161.857 766.189C161.857 765.639 161.978 765.175 162.219 764.799C162.464 764.418 162.801 764.128 163.228 763.929C163.655 763.73 164.144 763.631 164.694 763.631C165.244 763.631 165.733 763.73 166.161 763.929C166.588 764.128 166.922 764.418 167.164 764.799C167.409 765.175 167.532 765.639 167.532 766.189ZM166.002 766.24C166.002 765.965 165.947 765.723 165.837 765.516C165.731 765.305 165.581 765.139 165.386 765.021C165.192 764.903 164.961 764.843 164.694 764.843C164.428 764.843 164.197 764.9 164.002 765.015C163.808 765.129 163.658 765.29 163.552 765.497C163.446 765.704 163.393 765.952 163.393 766.24C163.393 766.523 163.446 766.771 163.552 766.982C163.658 767.19 163.808 767.353 164.002 767.471C164.201 767.59 164.434 767.649 164.701 767.649C164.967 767.649 165.198 767.59 165.393 767.471C165.587 767.353 165.737 767.19 165.843 766.982C165.949 766.771 166.002 766.523 166.002 766.24ZM175.111 767.604V769.115C175.111 769.839 175.039 770.457 174.895 770.969C174.755 771.477 174.552 771.889 174.286 772.207C174.019 772.524 173.7 772.757 173.327 772.905C172.959 773.053 172.546 773.127 172.089 773.127C171.725 773.127 171.387 773.08 171.074 772.987C170.765 772.894 170.486 772.748 170.236 772.549C169.986 772.35 169.772 772.094 169.595 771.781C169.421 771.464 169.286 771.085 169.188 770.645C169.095 770.205 169.049 769.695 169.049 769.115V767.604C169.049 766.877 169.121 766.263 169.265 765.764C169.409 765.26 169.614 764.852 169.88 764.539C170.147 764.221 170.464 763.991 170.833 763.847C171.205 763.703 171.62 763.631 172.077 763.631C172.445 763.631 172.783 763.677 173.092 763.771C173.405 763.859 173.685 764.001 173.93 764.196C174.18 764.39 174.391 764.644 174.565 764.958C174.743 765.266 174.878 765.641 174.971 766.081C175.064 766.517 175.111 767.025 175.111 767.604ZM173.581 769.331V767.376C173.581 767.008 173.56 766.684 173.518 766.405C173.475 766.121 173.412 765.882 173.327 765.688C173.247 765.489 173.145 765.328 173.022 765.205C172.9 765.078 172.76 764.987 172.604 764.932C172.447 764.873 172.271 764.843 172.077 764.843C171.84 764.843 171.628 764.89 171.442 764.983C171.256 765.072 171.099 765.216 170.972 765.415C170.845 765.613 170.748 765.876 170.68 766.202C170.617 766.523 170.585 766.915 170.585 767.376V769.331C170.585 769.703 170.606 770.031 170.648 770.315C170.691 770.598 170.754 770.842 170.839 771.045C170.924 771.244 171.025 771.409 171.144 771.54C171.266 771.667 171.406 771.76 171.562 771.819C171.723 771.879 171.899 771.908 172.089 771.908C172.331 771.908 172.544 771.862 172.73 771.769C172.917 771.675 173.073 771.527 173.2 771.324C173.327 771.117 173.422 770.848 173.486 770.518C173.549 770.188 173.581 769.792 173.581 769.331Z" fill="#3A3A3A"/>
<path d="M395.098 763.726V773H393.568V765.542L391.302 766.31V765.046L394.914 763.726H395.098ZM399.541 771.794H399.668C400.252 771.794 400.739 771.718 401.128 771.565C401.521 771.409 401.835 771.193 402.067 770.918C402.3 770.643 402.467 770.319 402.569 769.947C402.67 769.574 402.721 769.17 402.721 768.734V767.141C402.721 766.764 402.681 766.434 402.601 766.151C402.524 765.863 402.414 765.624 402.271 765.434C402.131 765.239 401.968 765.093 401.782 764.996C401.6 764.898 401.403 764.85 401.191 764.85C400.959 764.85 400.749 764.903 400.563 765.008C400.381 765.11 400.227 765.252 400.1 765.434C399.977 765.611 399.882 765.821 399.814 766.062C399.75 766.299 399.719 766.553 399.719 766.824C399.719 767.078 399.748 767.323 399.808 767.56C399.871 767.793 399.964 768 400.087 768.182C400.21 768.364 400.364 768.508 400.55 768.614C400.736 768.72 400.954 768.772 401.204 768.772C401.441 768.772 401.659 768.728 401.858 768.639C402.057 768.546 402.23 768.421 402.378 768.265C402.527 768.108 402.643 767.932 402.728 767.738C402.812 767.543 402.859 767.344 402.867 767.141L403.451 767.319C403.451 767.64 403.383 767.958 403.248 768.271C403.117 768.58 402.933 768.863 402.696 769.122C402.463 769.375 402.19 769.579 401.877 769.731C401.568 769.883 401.232 769.959 400.868 769.959C400.428 769.959 400.038 769.877 399.7 769.712C399.365 769.543 399.086 769.314 398.862 769.026C398.642 768.739 398.477 768.409 398.367 768.036C398.257 767.664 398.202 767.272 398.202 766.862C398.202 766.417 398.269 766.001 398.405 765.611C398.54 765.222 398.737 764.879 398.995 764.583C399.253 764.283 399.566 764.05 399.935 763.885C400.307 763.715 400.728 763.631 401.198 763.631C401.697 763.631 402.135 763.728 402.512 763.923C402.888 764.118 403.206 764.386 403.464 764.729C403.722 765.072 403.917 765.47 404.048 765.922C404.179 766.375 404.245 766.862 404.245 767.382V767.922C404.245 768.468 404.196 768.995 404.099 769.502C404.001 770.006 403.843 770.474 403.623 770.905C403.407 771.333 403.121 771.709 402.766 772.035C402.414 772.357 401.983 772.609 401.471 772.791C400.963 772.968 400.366 773.057 399.681 773.057H399.541V771.794ZM406.93 771.794H407.057C407.641 771.794 408.127 771.718 408.517 771.565C408.91 771.409 409.223 771.193 409.456 770.918C409.689 770.643 409.856 770.319 409.958 769.947C410.059 769.574 410.11 769.17 410.11 768.734V767.141C410.11 766.764 410.07 766.434 409.989 766.151C409.913 765.863 409.803 765.624 409.659 765.434C409.52 765.239 409.357 765.093 409.17 764.996C408.988 764.898 408.792 764.85 408.58 764.85C408.347 764.85 408.138 764.903 407.952 765.008C407.77 765.11 407.615 765.252 407.488 765.434C407.366 765.611 407.27 765.821 407.203 766.062C407.139 766.299 407.107 766.553 407.107 766.824C407.107 767.078 407.137 767.323 407.196 767.56C407.26 767.793 407.353 768 407.476 768.182C407.598 768.364 407.753 768.508 407.939 768.614C408.125 768.72 408.343 768.772 408.593 768.772C408.83 768.772 409.048 768.728 409.247 768.639C409.445 768.546 409.619 768.421 409.767 768.265C409.915 768.108 410.032 767.932 410.116 767.738C410.201 767.543 410.247 767.344 410.256 767.141L410.84 767.319C410.84 767.64 410.772 767.958 410.637 768.271C410.506 768.58 410.321 768.863 410.084 769.122C409.852 769.375 409.579 769.579 409.266 769.731C408.957 769.883 408.62 769.959 408.256 769.959C407.816 769.959 407.427 769.877 407.088 769.712C406.754 769.543 406.475 769.314 406.25 769.026C406.03 768.739 405.865 768.409 405.755 768.036C405.645 767.664 405.59 767.272 405.59 766.862C405.59 766.417 405.658 766.001 405.793 765.611C405.929 765.222 406.126 764.879 406.384 764.583C406.642 764.283 406.955 764.05 407.323 763.885C407.696 763.715 408.117 763.631 408.586 763.631C409.086 763.631 409.524 763.728 409.9 763.923C410.277 764.118 410.594 764.386 410.853 764.729C411.111 765.072 411.305 765.47 411.437 765.922C411.568 766.375 411.633 766.862 411.633 767.382V767.922C411.633 768.468 411.585 768.995 411.487 769.502C411.39 770.006 411.231 770.474 411.011 770.905C410.795 771.333 410.51 771.709 410.154 772.035C409.803 772.357 409.371 772.609 408.859 772.791C408.352 772.968 407.755 773.057 407.069 773.057H406.93V771.794ZM419.111 767.604V769.115C419.111 769.839 419.039 770.457 418.895 770.969C418.755 771.477 418.552 771.889 418.286 772.207C418.019 772.524 417.7 772.757 417.327 772.905C416.959 773.053 416.546 773.127 416.089 773.127C415.725 773.127 415.387 773.08 415.074 772.987C414.765 772.894 414.486 772.748 414.236 772.549C413.986 772.35 413.772 772.094 413.595 771.781C413.421 771.464 413.286 771.085 413.188 770.645C413.095 770.205 413.049 769.695 413.049 769.115V767.604C413.049 766.877 413.121 766.263 413.265 765.764C413.409 765.26 413.614 764.852 413.88 764.539C414.147 764.221 414.464 763.991 414.833 763.847C415.205 763.703 415.62 763.631 416.077 763.631C416.445 763.631 416.783 763.677 417.092 763.771C417.405 763.859 417.685 764.001 417.93 764.196C418.18 764.39 418.391 764.644 418.565 764.958C418.743 765.266 418.878 765.641 418.971 766.081C419.064 766.517 419.111 767.025 419.111 767.604ZM417.581 769.331V767.376C417.581 767.008 417.56 766.684 417.518 766.405C417.475 766.121 417.412 765.882 417.327 765.688C417.247 765.489 417.145 765.328 417.022 765.205C416.9 765.078 416.76 764.987 416.604 764.932C416.447 764.873 416.271 764.843 416.077 764.843C415.84 764.843 415.628 764.89 415.442 764.983C415.256 765.072 415.099 765.216 414.972 765.415C414.845 765.613 414.748 765.876 414.68 766.202C414.617 766.523 414.585 766.915 414.585 767.376V769.331C414.585 769.703 414.606 770.031 414.648 770.315C414.691 770.598 414.754 770.842 414.839 771.045C414.924 771.244 415.025 771.409 415.144 771.54C415.266 771.667 415.406 771.76 415.562 771.819C415.723 771.879 415.899 771.908 416.089 771.908C416.331 771.908 416.544 771.862 416.73 771.769C416.917 771.675 417.073 771.527 417.2 771.324C417.327 771.117 417.422 770.848 417.486 770.518C417.549 770.188 417.581 769.792 417.581 769.331Z" fill="#3A3A3A"/>
<path d="M796.116 771.781V773H789.921V771.953L792.93 768.671C793.26 768.299 793.52 767.977 793.71 767.706C793.901 767.435 794.034 767.192 794.11 766.976C794.191 766.756 794.231 766.542 794.231 766.335C794.231 766.043 794.176 765.787 794.066 765.567C793.96 765.343 793.804 765.167 793.596 765.04C793.389 764.909 793.137 764.843 792.841 764.843C792.498 764.843 792.21 764.917 791.978 765.065C791.745 765.214 791.569 765.419 791.451 765.681C791.332 765.939 791.273 766.236 791.273 766.57H789.743C789.743 766.032 789.866 765.542 790.111 765.097C790.357 764.649 790.712 764.293 791.178 764.031C791.643 763.764 792.204 763.631 792.86 763.631C793.478 763.631 794.002 763.735 794.434 763.942C794.866 764.149 795.194 764.443 795.418 764.824C795.646 765.205 795.761 765.656 795.761 766.176C795.761 766.464 795.714 766.75 795.621 767.033C795.528 767.317 795.395 767.6 795.221 767.884C795.052 768.163 794.851 768.444 794.618 768.728C794.385 769.007 794.129 769.291 793.85 769.579L791.851 771.781H796.116ZM803.333 767.604V769.115C803.333 769.839 803.262 770.457 803.118 770.969C802.978 771.477 802.775 771.889 802.508 772.207C802.242 772.524 801.922 772.757 801.55 772.905C801.182 773.053 800.769 773.127 800.312 773.127C799.948 773.127 799.61 773.08 799.296 772.987C798.987 772.894 798.708 772.748 798.458 772.549C798.209 772.35 797.995 772.094 797.817 771.781C797.644 771.464 797.508 771.085 797.411 770.645C797.318 770.205 797.271 769.695 797.271 769.115V767.604C797.271 766.877 797.343 766.263 797.487 765.764C797.631 765.26 797.836 764.852 798.103 764.539C798.37 764.221 798.687 763.991 799.055 763.847C799.428 763.703 799.842 763.631 800.299 763.631C800.667 763.631 801.006 763.677 801.315 763.771C801.628 763.859 801.907 764.001 802.153 764.196C802.403 764.39 802.614 764.644 802.788 764.958C802.965 765.266 803.101 765.641 803.194 766.081C803.287 766.517 803.333 767.025 803.333 767.604ZM801.804 769.331V767.376C801.804 767.008 801.783 766.684 801.74 766.405C801.698 766.121 801.634 765.882 801.55 765.688C801.469 765.489 801.368 765.328 801.245 765.205C801.122 765.078 800.983 764.987 800.826 764.932C800.67 764.873 800.494 764.843 800.299 764.843C800.062 764.843 799.851 764.89 799.665 764.983C799.478 765.072 799.322 765.216 799.195 765.415C799.068 765.613 798.971 765.876 798.903 766.202C798.839 766.523 798.808 766.915 798.808 767.376V769.331C798.808 769.703 798.829 770.031 798.871 770.315C798.913 770.598 798.977 770.842 799.062 771.045C799.146 771.244 799.248 771.409 799.366 771.54C799.489 771.667 799.629 771.76 799.785 771.819C799.946 771.879 800.122 771.908 800.312 771.908C800.553 771.908 800.767 771.862 800.953 771.769C801.139 771.675 801.296 771.527 801.423 771.324C801.55 771.117 801.645 770.848 801.708 770.518C801.772 770.188 801.804 769.792 801.804 769.331ZM810.722 767.604V769.115C810.722 769.839 810.65 770.457 810.506 770.969C810.367 771.477 810.164 771.889 809.897 772.207C809.63 772.524 809.311 772.757 808.938 772.905C808.57 773.053 808.158 773.127 807.701 773.127C807.337 773.127 806.998 773.08 806.685 772.987C806.376 772.894 806.097 772.748 805.847 772.549C805.597 772.35 805.384 772.094 805.206 771.781C805.033 771.464 804.897 771.085 804.8 770.645C804.707 770.205 804.66 769.695 804.66 769.115V767.604C804.66 766.877 804.732 766.263 804.876 765.764C805.02 765.26 805.225 764.852 805.492 764.539C805.758 764.221 806.076 763.991 806.444 763.847C806.816 763.703 807.231 763.631 807.688 763.631C808.056 763.631 808.395 763.677 808.704 763.771C809.017 763.859 809.296 764.001 809.542 764.196C809.791 764.39 810.003 764.644 810.176 764.958C810.354 765.266 810.489 765.641 810.583 766.081C810.676 766.517 810.722 767.025 810.722 767.604ZM809.192 769.331V767.376C809.192 767.008 809.171 766.684 809.129 766.405C809.087 766.121 809.023 765.882 808.938 765.688C808.858 765.489 808.757 765.328 808.634 765.205C808.511 765.078 808.371 764.987 808.215 764.932C808.058 764.873 807.883 764.843 807.688 764.843C807.451 764.843 807.239 764.89 807.053 764.983C806.867 765.072 806.71 765.216 806.583 765.415C806.457 765.613 806.359 765.876 806.292 766.202C806.228 766.523 806.196 766.915 806.196 767.376V769.331C806.196 769.703 806.217 770.031 806.26 770.315C806.302 770.598 806.366 770.842 806.45 771.045C806.535 771.244 806.636 771.409 806.755 771.54C806.878 771.667 807.017 771.76 807.174 771.819C807.335 771.879 807.51 771.908 807.701 771.908C807.942 771.908 808.156 771.862 808.342 771.769C808.528 771.675 808.685 771.527 808.812 771.324C808.938 771.117 809.034 770.848 809.097 770.518C809.161 770.188 809.192 769.792 809.192 769.331ZM818.111 767.604V769.115C818.111 769.839 818.039 770.457 817.895 770.969C817.755 771.477 817.552 771.889 817.286 772.207C817.019 772.524 816.7 772.757 816.327 772.905C815.959 773.053 815.546 773.127 815.089 773.127C814.725 773.127 814.387 773.08 814.074 772.987C813.765 772.894 813.486 772.748 813.236 772.549C812.986 772.35 812.772 772.094 812.595 771.781C812.421 771.464 812.286 771.085 812.188 770.645C812.095 770.205 812.049 769.695 812.049 769.115V767.604C812.049 766.877 812.121 766.263 812.265 765.764C812.409 765.26 812.614 764.852 812.88 764.539C813.147 764.221 813.464 763.991 813.833 763.847C814.205 763.703 814.62 763.631 815.077 763.631C815.445 763.631 815.783 763.677 816.092 763.771C816.405 763.859 816.685 764.001 816.93 764.196C817.18 764.39 817.391 764.644 817.565 764.958C817.743 765.266 817.878 765.641 817.971 766.081C818.064 766.517 818.111 767.025 818.111 767.604ZM816.581 769.331V767.376C816.581 767.008 816.56 766.684 816.518 766.405C816.475 766.121 816.412 765.882 816.327 765.688C816.247 765.489 816.145 765.328 816.022 765.205C815.9 765.078 815.76 764.987 815.604 764.932C815.447 764.873 815.271 764.843 815.077 764.843C814.84 764.843 814.628 764.89 814.442 764.983C814.256 765.072 814.099 765.216 813.972 765.415C813.845 765.613 813.748 765.876 813.68 766.202C813.617 766.523 813.585 766.915 813.585 767.376V769.331C813.585 769.703 813.606 770.031 813.648 770.315C813.691 770.598 813.754 770.842 813.839 771.045C813.924 771.244 814.025 771.409 814.144 771.54C814.266 771.667 814.406 771.76 814.562 771.819C814.723 771.879 814.899 771.908 815.089 771.908C815.331 771.908 815.544 771.862 815.73 771.769C815.917 771.675 816.073 771.527 816.2 771.324C816.327 771.117 816.422 770.848 816.486 770.518C816.549 770.188 816.581 769.792 816.581 769.331Z" fill="#3A3A3A"/>
<path d="M1494.12 769.781V771H1487.92V769.953L1490.93 766.671C1491.26 766.299 1491.52 765.977 1491.71 765.706C1491.9 765.435 1492.03 765.192 1492.11 764.976C1492.19 764.756 1492.23 764.542 1492.23 764.335C1492.23 764.043 1492.18 763.787 1492.07 763.567C1491.96 763.343 1491.8 763.167 1491.6 763.04C1491.39 762.909 1491.14 762.843 1490.84 762.843C1490.5 762.843 1490.21 762.917 1489.98 763.065C1489.74 763.214 1489.57 763.419 1489.45 763.681C1489.33 763.939 1489.27 764.236 1489.27 764.57H1487.74C1487.74 764.032 1487.87 763.542 1488.11 763.097C1488.36 762.649 1488.71 762.293 1489.18 762.031C1489.64 761.764 1490.2 761.631 1490.86 761.631C1491.48 761.631 1492 761.735 1492.43 761.942C1492.87 762.149 1493.19 762.443 1493.42 762.824C1493.65 763.205 1493.76 763.656 1493.76 764.176C1493.76 764.464 1493.71 764.75 1493.62 765.033C1493.53 765.317 1493.39 765.6 1493.22 765.884C1493.05 766.163 1492.85 766.444 1492.62 766.728C1492.39 767.007 1492.13 767.291 1491.85 767.579L1489.85 769.781H1494.12ZM1501.33 765.604V767.115C1501.33 767.839 1501.26 768.457 1501.12 768.969C1500.98 769.477 1500.77 769.889 1500.51 770.207C1500.24 770.524 1499.92 770.757 1499.55 770.905C1499.18 771.053 1498.77 771.127 1498.31 771.127C1497.95 771.127 1497.61 771.08 1497.3 770.987C1496.99 770.894 1496.71 770.748 1496.46 770.549C1496.21 770.35 1496 770.094 1495.82 769.781C1495.64 769.464 1495.51 769.085 1495.41 768.645C1495.32 768.205 1495.27 767.695 1495.27 767.115V765.604C1495.27 764.877 1495.34 764.263 1495.49 763.764C1495.63 763.26 1495.84 762.852 1496.1 762.539C1496.37 762.221 1496.69 761.991 1497.06 761.847C1497.43 761.703 1497.84 761.631 1498.3 761.631C1498.67 761.631 1499.01 761.677 1499.31 761.771C1499.63 761.859 1499.91 762.001 1500.15 762.196C1500.4 762.39 1500.61 762.644 1500.79 762.958C1500.97 763.266 1501.1 763.641 1501.19 764.081C1501.29 764.517 1501.33 765.025 1501.33 765.604ZM1499.8 767.331V765.376C1499.8 765.008 1499.78 764.684 1499.74 764.405C1499.7 764.121 1499.63 763.882 1499.55 763.688C1499.47 763.489 1499.37 763.328 1499.25 763.205C1499.12 763.078 1498.98 762.987 1498.83 762.932C1498.67 762.873 1498.49 762.843 1498.3 762.843C1498.06 762.843 1497.85 762.89 1497.66 762.983C1497.48 763.072 1497.32 763.216 1497.19 763.415C1497.07 763.613 1496.97 763.876 1496.9 764.202C1496.84 764.523 1496.81 764.915 1496.81 765.376V767.331C1496.81 767.703 1496.83 768.031 1496.87 768.315C1496.91 768.598 1496.98 768.842 1497.06 769.045C1497.15 769.244 1497.25 769.409 1497.37 769.54C1497.49 769.667 1497.63 769.76 1497.79 769.819C1497.95 769.879 1498.12 769.908 1498.31 769.908C1498.55 769.908 1498.77 769.862 1498.95 769.769C1499.14 769.675 1499.3 769.527 1499.42 769.324C1499.55 769.117 1499.65 768.848 1499.71 768.518C1499.77 768.188 1499.8 767.792 1499.8 767.331ZM1506.88 761.726V771H1505.35V763.542L1503.08 764.31V763.046L1506.69 761.726H1506.88ZM1516.11 765.604V767.115C1516.11 767.839 1516.04 768.457 1515.9 768.969C1515.76 769.477 1515.55 769.889 1515.29 770.207C1515.02 770.524 1514.7 770.757 1514.33 770.905C1513.96 771.053 1513.55 771.127 1513.09 771.127C1512.73 771.127 1512.39 771.08 1512.07 770.987C1511.76 770.894 1511.49 770.748 1511.24 770.549C1510.99 770.35 1510.77 770.094 1510.59 769.781C1510.42 769.464 1510.29 769.085 1510.19 768.645C1510.1 768.205 1510.05 767.695 1510.05 767.115V765.604C1510.05 764.877 1510.12 764.263 1510.26 763.764C1510.41 763.26 1510.61 762.852 1510.88 762.539C1511.15 762.221 1511.46 761.991 1511.83 761.847C1512.2 761.703 1512.62 761.631 1513.08 761.631C1513.44 761.631 1513.78 761.677 1514.09 761.771C1514.41 761.859 1514.68 762.001 1514.93 762.196C1515.18 762.39 1515.39 762.644 1515.56 762.958C1515.74 763.266 1515.88 763.641 1515.97 764.081C1516.06 764.517 1516.11 765.025 1516.11 765.604ZM1514.58 767.331V765.376C1514.58 765.008 1514.56 764.684 1514.52 764.405C1514.48 764.121 1514.41 763.882 1514.33 763.688C1514.25 763.489 1514.15 763.328 1514.02 763.205C1513.9 763.078 1513.76 762.987 1513.6 762.932C1513.45 762.873 1513.27 762.843 1513.08 762.843C1512.84 762.843 1512.63 762.89 1512.44 762.983C1512.26 763.072 1512.1 763.216 1511.97 763.415C1511.85 763.613 1511.75 763.876 1511.68 764.202C1511.62 764.523 1511.58 764.915 1511.58 765.376V767.331C1511.58 767.703 1511.61 768.031 1511.65 768.315C1511.69 768.598 1511.75 768.842 1511.84 769.045C1511.92 769.244 1512.03 769.409 1512.14 769.54C1512.27 769.667 1512.41 769.76 1512.56 769.819C1512.72 769.879 1512.9 769.908 1513.09 769.908C1513.33 769.908 1513.54 769.862 1513.73 769.769C1513.92 769.675 1514.07 769.527 1514.2 769.324C1514.33 769.117 1514.42 768.848 1514.49 768.518C1514.55 768.188 1514.58 767.792 1514.58 767.331Z" fill="#3A3A3A"/>
<path d="M3097.12 752.781V754H3090.92V752.953L3093.93 749.671C3094.26 749.299 3094.52 748.977 3094.71 748.706C3094.9 748.435 3095.03 748.192 3095.11 747.976C3095.19 747.756 3095.23 747.542 3095.23 747.335C3095.23 747.043 3095.18 746.787 3095.07 746.567C3094.96 746.343 3094.8 746.167 3094.6 746.04C3094.39 745.909 3094.14 745.843 3093.84 745.843C3093.5 745.843 3093.21 745.917 3092.98 746.065C3092.74 746.214 3092.57 746.419 3092.45 746.681C3092.33 746.939 3092.27 747.236 3092.27 747.57H3090.74C3090.74 747.032 3090.87 746.542 3091.11 746.097C3091.36 745.649 3091.71 745.293 3092.18 745.031C3092.64 744.764 3093.2 744.631 3093.86 744.631C3094.48 744.631 3095 744.735 3095.43 744.942C3095.87 745.149 3096.19 745.443 3096.42 745.824C3096.65 746.205 3096.76 746.656 3096.76 747.176C3096.76 747.464 3096.71 747.75 3096.62 748.033C3096.53 748.317 3096.39 748.6 3096.22 748.884C3096.05 749.163 3095.85 749.444 3095.62 749.728C3095.39 750.007 3095.13 750.291 3094.85 750.579L3092.85 752.781H3097.12ZM3104.33 748.604V750.115C3104.33 750.839 3104.26 751.457 3104.12 751.969C3103.98 752.477 3103.77 752.889 3103.51 753.207C3103.24 753.524 3102.92 753.757 3102.55 753.905C3102.18 754.053 3101.77 754.127 3101.31 754.127C3100.95 754.127 3100.61 754.08 3100.3 753.987C3099.99 753.894 3099.71 753.748 3099.46 753.549C3099.21 753.35 3099 753.094 3098.82 752.781C3098.64 752.464 3098.51 752.085 3098.41 751.645C3098.32 751.205 3098.27 750.695 3098.27 750.115V748.604C3098.27 747.877 3098.34 747.263 3098.49 746.764C3098.63 746.26 3098.84 745.852 3099.1 745.539C3099.37 745.221 3099.69 744.991 3100.06 744.847C3100.43 744.703 3100.84 744.631 3101.3 744.631C3101.67 744.631 3102.01 744.677 3102.31 744.771C3102.63 744.859 3102.91 745.001 3103.15 745.196C3103.4 745.39 3103.61 745.644 3103.79 745.958C3103.97 746.266 3104.1 746.641 3104.19 747.081C3104.29 747.517 3104.33 748.025 3104.33 748.604ZM3102.8 750.331V748.376C3102.8 748.008 3102.78 747.684 3102.74 747.405C3102.7 747.121 3102.63 746.882 3102.55 746.688C3102.47 746.489 3102.37 746.328 3102.25 746.205C3102.12 746.078 3101.98 745.987 3101.83 745.932C3101.67 745.873 3101.49 745.843 3101.3 745.843C3101.06 745.843 3100.85 745.89 3100.66 745.983C3100.48 746.072 3100.32 746.216 3100.19 746.415C3100.07 746.613 3099.97 746.876 3099.9 747.202C3099.84 747.523 3099.81 747.915 3099.81 748.376V750.331C3099.81 750.703 3099.83 751.031 3099.87 751.315C3099.91 751.598 3099.98 751.842 3100.06 752.045C3100.15 752.244 3100.25 752.409 3100.37 752.54C3100.49 752.667 3100.63 752.76 3100.79 752.819C3100.95 752.879 3101.12 752.908 3101.31 752.908C3101.55 752.908 3101.77 752.862 3101.95 752.769C3102.14 752.675 3102.3 752.527 3102.42 752.324C3102.55 752.117 3102.65 751.848 3102.71 751.518C3102.77 751.188 3102.8 750.792 3102.8 750.331ZM3111.89 752.781V754H3105.7V752.953L3108.71 749.671C3109.04 749.299 3109.3 748.977 3109.49 748.706C3109.68 748.435 3109.81 748.192 3109.89 747.976C3109.97 747.756 3110.01 747.542 3110.01 747.335C3110.01 747.043 3109.95 746.787 3109.84 746.567C3109.74 746.343 3109.58 746.167 3109.37 746.04C3109.17 745.909 3108.91 745.843 3108.62 745.843C3108.28 745.843 3107.99 745.917 3107.75 746.065C3107.52 746.214 3107.35 746.419 3107.23 746.681C3107.11 746.939 3107.05 747.236 3107.05 747.57H3105.52C3105.52 747.032 3105.64 746.542 3105.89 746.097C3106.13 745.649 3106.49 745.293 3106.96 745.031C3107.42 744.764 3107.98 744.631 3108.64 744.631C3109.26 744.631 3109.78 744.735 3110.21 744.942C3110.64 745.149 3110.97 745.443 3111.2 745.824C3111.42 746.205 3111.54 746.656 3111.54 747.176C3111.54 747.464 3111.49 747.75 3111.4 748.033C3111.31 748.317 3111.17 748.6 3111 748.884C3110.83 749.163 3110.63 749.444 3110.4 749.728C3110.16 750.007 3109.91 750.291 3109.63 750.579L3107.63 752.781H3111.89ZM3119.11 748.604V750.115C3119.11 750.839 3119.04 751.457 3118.9 751.969C3118.76 752.477 3118.55 752.889 3118.29 753.207C3118.02 753.524 3117.7 753.757 3117.33 753.905C3116.96 754.053 3116.55 754.127 3116.09 754.127C3115.73 754.127 3115.39 754.08 3115.07 753.987C3114.76 753.894 3114.49 753.748 3114.24 753.549C3113.99 753.35 3113.77 753.094 3113.59 752.781C3113.42 752.464 3113.29 752.085 3113.19 751.645C3113.1 751.205 3113.05 750.695 3113.05 750.115V748.604C3113.05 747.877 3113.12 747.263 3113.26 746.764C3113.41 746.26 3113.61 745.852 3113.88 745.539C3114.15 745.221 3114.46 744.991 3114.83 744.847C3115.2 744.703 3115.62 744.631 3116.08 744.631C3116.44 744.631 3116.78 744.677 3117.09 744.771C3117.41 744.859 3117.68 745.001 3117.93 745.196C3118.18 745.39 3118.39 745.644 3118.56 745.958C3118.74 746.266 3118.88 746.641 3118.97 747.081C3119.06 747.517 3119.11 748.025 3119.11 748.604ZM3117.58 750.331V748.376C3117.58 748.008 3117.56 747.684 3117.52 747.405C3117.48 747.121 3117.41 746.882 3117.33 746.688C3117.25 746.489 3117.15 746.328 3117.02 746.205C3116.9 746.078 3116.76 745.987 3116.6 745.932C3116.45 745.873 3116.27 745.843 3116.08 745.843C3115.84 745.843 3115.63 745.89 3115.44 745.983C3115.26 746.072 3115.1 746.216 3114.97 746.415C3114.85 746.613 3114.75 746.876 3114.68 747.202C3114.62 747.523 3114.58 747.915 3114.58 748.376V750.331C3114.58 750.703 3114.61 751.031 3114.65 751.315C3114.69 751.598 3114.75 751.842 3114.84 752.045C3114.92 752.244 3115.03 752.409 3115.14 752.54C3115.27 752.667 3115.41 752.76 3115.56 752.819C3115.72 752.879 3115.9 752.908 3116.09 752.908C3116.33 752.908 3116.54 752.862 3116.73 752.769C3116.92 752.675 3117.07 752.527 3117.2 752.324C3117.33 752.117 3117.42 751.848 3117.49 751.518C3117.55 751.188 3117.58 750.792 3117.58 750.331Z" fill="#3A3A3A"/>
<line x1="21" y1="757" x2="21" y2="85" stroke="#F7B289" stroke-width="2" stroke-dasharray="2 2"/>
<line x1="84" y1="757" x2="84" y2="85" stroke="#F7B289" stroke-width="2" stroke-dasharray="2 2"/>
<line x1="165" y1="757" x2="165" y2="85" stroke="#F7B289" stroke-width="2" stroke-dasharray="2 2"/>
<line x1="405" y1="757" x2="405" y2="85" stroke="#F7B289" stroke-width="2" stroke-dasharray="2 2"/>
<line x1="804" y1="757" x2="804" y2="85" stroke="#F7B289" stroke-width="2" stroke-dasharray="2 2"/>
<line x1="1501" y1="757" x2="1501" y2="85" stroke="#F7B289" stroke-width="2" stroke-dasharray="2 2"/>
<line x1="3104" y1="741" x2="3104" y2="69" stroke="#F7B289" stroke-width="2" stroke-dasharray="2 2"/>
<path d="M52.9428 424.989C52.9428 427.189 51.0946 429.3 48.8857 428.965C47.6235 428.77 45 427.295 45 425.095C45 422.896 46.6499 420.882 48.8857 421.005C53.7993 421.288 52.9428 424.088 52.9428 424.989Z" fill="#F7B289"/>
<path d="M211.943 379.989C211.943 382.189 210.095 384.3 207.886 383.965C206.624 383.77 204 382.295 204 380.095C204 377.896 205.65 375.882 207.886 376.005C212.799 376.288 211.943 379.088 211.943 379.989Z" fill="#F7B289"/>
<path d="M169.943 385.989C169.943 388.189 168.095 390.3 165.886 389.965C164.624 389.77 162 388.295 162 386.095C162 383.896 163.65 381.882 165.886 382.005C170.799 382.288 169.943 385.088 169.943 385.989Z" fill="#F67C87"/>
<path d="M292.943 369.989C292.943 372.189 291.095 374.3 288.886 373.965C287.624 373.77 285 372.295 285 370.095C285 367.896 286.65 365.882 288.886 366.005C293.799 366.288 292.943 369.088 292.943 369.989Z" fill="#F67C87"/>
<path d="M756.943 293.989C756.943 296.189 755.095 298.3 752.886 297.965C751.624 297.77 749 296.295 749 294.095C749 291.896 750.65 289.882 752.886 290.005C757.799 290.288 756.943 293.088 756.943 293.989Z" fill="#F67C87"/>
<path d="M939.943 363.989C939.943 366.189 938.095 368.3 935.886 367.965C934.624 367.77 932 366.295 932 364.095C932 361.896 933.65 359.882 935.886 360.005C940.799 360.288 939.943 363.088 939.943 363.989Z" fill="#F67C87"/>
<path d="M804.943 322.989C804.943 325.189 803.095 327.3 800.886 326.965C799.624 326.77 797 325.295 797 323.095C797 320.896 798.65 318.882 800.886 319.005C805.799 319.288 804.943 322.088 804.943 322.989Z" fill="#F67C87"/>
<path d="M868.943 354.989C868.943 357.189 867.095 359.3 864.886 358.965C863.624 358.77 861 357.295 861 355.095C861 352.896 862.65 350.882 864.886 351.005C869.799 351.288 868.943 354.088 868.943 354.989Z" fill="#F67C87"/>
<path d="M1008.94 360.989C1008.94 363.189 1007.09 365.3 1004.89 364.965C1003.62 364.77 1001 363.295 1001 361.095C1001 358.896 1002.65 356.882 1004.89 357.005C1009.8 357.288 1008.94 360.088 1008.94 360.989Z" fill="#F67C87"/>
<path d="M1286.94 332.989C1286.94 335.189 1285.09 337.3 1282.89 336.965C1281.62 336.77 1279 335.295 1279 333.095C1279 330.896 1280.65 328.882 1282.89 329.005C1287.8 329.288 1286.94 332.088 1286.94 332.989Z" fill="#F67C87"/>
<path d="M196.943 382.989C196.943 385.189 195.095 387.3 192.886 386.965C191.624 386.77 189 385.295 189 383.095C189 380.896 190.65 378.882 192.886 379.005C197.799 379.288 196.943 382.088 196.943 382.989Z" fill="#F67C87"/>
<path d="M654.878 306.478C654.878 311.152 650.951 315.638 646.257 314.925C643.575 314.512 638 311.377 638 306.703C638 302.029 641.506 297.749 646.257 298.012C655.539 298.545 655.131 303.307 654.926 305.703C654.901 306.002 654.878 306.265 654.878 306.478Z" fill="#F67C87"/>
<path d="M654.878 306.478C654.878 311.152 650.951 315.638 646.257 314.925C643.575 314.512 638 311.377 638 306.703C638 302.029 641.506 297.749 646.257 298.012C655.539 298.545 655.131 303.307 654.926 305.703C654.901 306.002 654.878 306.265 654.878 306.478Z" stroke="#3A3A3A"/>
<path d="M1086.88 345.478C1086.88 350.152 1082.95 354.638 1078.26 353.925C1075.58 353.512 1070 350.377 1070 345.703C1070 341.029 1073.51 336.749 1078.26 337.012C1087.54 337.545 1087.13 342.307 1086.93 344.703C1086.9 345.002 1086.88 345.265 1086.88 345.478Z" fill="#F67C87"/>
<path d="M1086.88 345.478C1086.88 350.152 1082.95 354.638 1078.26 353.925C1075.58 353.512 1070 350.377 1070 345.703C1070 341.029 1073.51 336.749 1078.26 337.012C1087.54 337.545 1087.13 342.307 1086.93 344.703C1086.9 345.002 1086.88 345.265 1086.88 345.478Z" stroke="#3A3A3A"/>
<path d="M1428.88 351.478C1428.88 356.152 1424.95 360.638 1420.26 359.925C1417.58 359.512 1412 356.377 1412 351.703C1412 347.029 1415.51 342.749 1420.26 343.012C1429.54 343.545 1429.13 348.307 1428.93 350.703C1428.9 351.002 1428.88 351.265 1428.88 351.478Z" fill="#F7B289"/>
<path d="M1428.88 351.478C1428.88 356.152 1424.95 360.638 1420.26 359.925C1417.58 359.512 1412 356.377 1412 351.703C1412 347.029 1415.51 342.749 1420.26 343.012C1429.54 343.545 1429.13 348.307 1428.93 350.703C1428.9 351.002 1428.88 351.265 1428.88 351.478Z" stroke="#3A3A3A"/>
<path d="M227.943 377.989C227.943 380.189 226.095 382.3 223.886 381.965C222.624 381.77 220 380.295 220 378.095C220 375.896 221.65 373.882 223.886 374.005C228.799 374.288 227.943 377.088 227.943 377.989Z" fill="#F67C87"/>
<path d="M334.943 369.989C334.943 372.189 333.095 374.3 330.886 373.965C329.624 373.77 327 372.295 327 370.095C327 367.896 328.65 365.882 330.886 366.005C335.799 366.288 334.943 369.088 334.943 369.989Z" fill="#F7B289"/>
<path d="M1345.94 339.989C1345.94 342.189 1344.09 344.3 1341.89 343.965C1340.62 343.77 1338 342.295 1338 340.095C1338 337.896 1339.65 335.882 1341.89 336.005C1346.8 336.288 1345.94 339.088 1345.94 339.989Z" fill="#F7B289"/>
<path d="M437.943 365.989C437.943 368.189 436.095 370.3 433.886 369.965C432.624 369.77 430 368.295 430 366.095C430 363.896 431.65 361.882 433.886 362.005C438.799 362.288 437.943 365.088 437.943 365.989Z" fill="#F7B289"/>
<path d="M472.943 366.989C472.943 369.189 471.095 371.3 468.886 370.965C467.624 370.77 465 369.295 465 367.095C465 364.896 466.65 362.882 468.886 363.005C473.799 363.288 472.943 366.088 472.943 366.989Z" fill="#F7B289"/>
<path d="M583.943 386.989C583.943 389.189 582.095 391.3 579.886 390.965C578.624 390.77 576 389.295 576 387.095C576 384.896 577.65 382.882 579.886 383.005C584.799 383.288 583.943 386.088 583.943 386.989Z" fill="#F7B289"/>
<path d="M509.943 369.989C509.943 372.189 508.095 374.3 505.886 373.965C504.624 373.77 502 372.295 502 370.095C502 367.896 503.65 365.882 505.886 366.005C510.799 366.288 509.943 369.088 509.943 369.989Z" fill="#F67C87"/>
<path d="M399.943 366.489C399.943 368.689 398.095 370.8 395.886 370.465C394.624 370.27 392 368.795 392 366.595C392 364.396 393.65 362.382 395.886 362.505C400.799 362.788 399.943 365.588 399.943 366.489Z" fill="#F7B289"/>
<path d="M1621.94 394.989C1621.94 397.189 1620.09 399.3 1617.89 398.965C1616.62 398.77 1614 397.295 1614 395.095C1614 392.896 1615.65 390.882 1617.89 391.005C1622.8 391.288 1621.94 394.088 1621.94 394.989Z" fill="#F67C87"/>
<path d="M1805.94 438.989C1805.94 441.189 1804.09 443.3 1801.89 442.965C1800.62 442.77 1798 441.295 1798 439.095C1798 436.896 1799.65 434.882 1801.89 435.005C1806.8 435.288 1805.94 438.088 1805.94 438.989Z" fill="#F67C87"/>
<path d="M1908.94 445.989C1908.94 448.189 1907.09 450.3 1904.89 449.965C1903.62 449.77 1901 448.295 1901 446.095C1901 443.896 1902.65 441.882 1904.89 442.005C1909.8 442.288 1908.94 445.088 1908.94 445.989Z" fill="#F67C87"/>
<path d="M2044.94 359.989C2044.94 362.189 2043.09 364.3 2040.89 363.965C2039.62 363.77 2037 362.295 2037 360.095C2037 357.896 2038.65 355.882 2040.89 356.005C2045.8 356.288 2044.94 359.088 2044.94 359.989Z" fill="#F67C87"/>
<path d="M2180.94 375.989C2180.94 378.189 2179.09 380.3 2176.89 379.965C2175.62 379.77 2173 378.295 2173 376.095C2173 373.896 2174.65 371.882 2176.89 372.005C2181.8 372.288 2180.94 375.088 2180.94 375.989Z" fill="#F67C87"/>
<path d="M2310.94 484.989C2310.94 487.189 2309.09 489.3 2306.89 488.965C2305.62 488.77 2303 487.295 2303 485.095C2303 482.896 2304.65 480.882 2306.89 481.005C2311.8 481.288 2310.94 484.088 2310.94 484.989Z" fill="#F67C87"/>
<path d="M2678.94 341.989C2678.94 344.189 2677.09 346.3 2674.89 345.965C2673.62 345.77 2671 344.295 2671 342.095C2671 339.896 2672.65 337.882 2674.89 338.005C2679.8 338.288 2678.94 341.088 2678.94 341.989Z" fill="#F67C87"/>
<path d="M1505.94 368.989C1505.94 371.189 1504.09 373.3 1501.89 372.965C1500.62 372.77 1498 371.295 1498 369.095C1498 366.896 1499.65 364.882 1501.89 365.005C1506.8 365.288 1505.94 368.088 1505.94 368.989Z" fill="#F67C87"/>
<path d="M3109.94 459.989C3109.94 462.189 3108.09 464.3 3105.89 463.965C3104.62 463.77 3102 462.295 3102 460.095C3102 457.896 3103.65 455.882 3105.89 456.005C3110.8 456.288 3109.94 459.088 3109.94 459.989Z" fill="#F67C87"/>
<path d="M3382.94 484.989C3382.94 487.189 3381.09 489.3 3378.89 488.965C3377.62 488.77 3375 487.295 3375 485.095C3375 482.896 3376.65 480.882 3378.89 481.005C3383.8 481.288 3382.94 484.088 3382.94 484.989Z" fill="#F67C87"/>
<path d="M3634.94 372.989C3634.94 375.189 3633.09 377.3 3630.89 376.965C3629.62 376.77 3627 375.295 3627 373.095C3627 370.896 3628.65 368.882 3630.89 369.005C3635.8 369.288 3634.94 372.088 3634.94 372.989Z" fill="#F67C87"/>
<path d="M1208.88 328.478C1208.88 333.152 1204.95 337.638 1200.26 336.925C1197.58 336.512 1192 333.377 1192 328.703C1192 324.029 1195.51 319.749 1200.26 320.012C1209.54 320.545 1209.13 325.307 1208.93 327.703C1208.9 328.002 1208.88 328.265 1208.88 328.478Z" fill="#F67C87"/>
<path d="M1208.88 328.478C1208.88 333.152 1204.95 337.638 1200.26 336.925C1197.58 336.512 1192 333.377 1192 328.703C1192 324.029 1195.51 319.749 1200.26 320.012C1209.54 320.545 1209.13 325.307 1208.93 327.703C1208.9 328.002 1208.88 328.265 1208.88 328.478Z" stroke="#3A3A3A"/>
<path d="M2947.94 430.989C2947.94 433.189 2946.09 435.3 2943.89 434.965C2942.62 434.77 2940 433.295 2940 431.095C2940 428.896 2941.65 426.882 2943.89 427.005C2948.8 427.288 2947.94 430.088 2947.94 430.989Z" fill="#F7B289"/>
</svg>
