<svg width="46" height="47" viewBox="0 0 46 47" fill="none" xmlns="http://www.w3.org/2000/svg">
<path d="M45.6709 23.2536C45.6709 36.0746 35.0437 48.3808 22.343 46.4242C15.0854 45.2914 0 36.6925 0 23.8715C0 11.0504 9.48669 -0.689304 22.343 0.0315581C47.4578 1.49624 46.3556 14.5569 45.801 21.1292C45.7317 21.9504 45.6709 22.6703 45.6709 23.2536Z" fill="#CADEAD"/>
<path d="M45.6709 23.2536C45.6709 36.0746 35.0437 48.3808 22.343 46.4242C15.0854 45.2914 0 36.6925 0 23.8715C0 11.0504 9.48669 -0.689304 22.343 0.0315581C47.4578 1.49624 46.3556 14.5569 45.801 21.1292C45.7317 21.9504 45.6709 22.6703 45.6709 23.2536Z" stroke="#3A3A3A"/>
</svg>
