<svg width="41" height="42" viewBox="0 0 41 42" fill="none" xmlns="http://www.w3.org/2000/svg">
<path d="M41 20.4646C41 32.1485 39.5838 40.4335 21.1019 41.3541C9.48878 41.9206 0 31.8653 0 20.1813C0 8.49741 9.55959 0 21.2435 0C32.9275 0 41 8.78066 41 20.4646Z" fill="#F4D6C5"/>
<mask id="mask0_1815_2392" style="mask-type:luminance" maskUnits="userSpaceOnUse" x="0" y="0" width="41" height="42">
<path d="M41 20.4646C41 32.1485 39.5838 40.4335 21.1019 41.3541C9.48878 41.9206 0 31.8653 0 20.1813C0 8.49741 9.55959 0 21.2435 0C32.9275 0 41 8.78066 41 20.4646Z" fill="white"/>
</mask>
<g mask="url(#mask0_1815_2392)">
<path d="M15.0113 15.0828L8.49658 17.4904L5.66411 17.986L5.38086 34.7684L16.0734 35.4057L15.0113 15.0828Z" fill="#79A5AE"/>
<path d="M28.748 16.0032L29.1729 35.4056L38.5201 34.9808L37.8828 30.7321L37.3163 24.6423L37.8828 19.0481L32.9259 17.1362L32.5719 15.6492L28.748 16.0032Z" fill="#79A5AE"/>
<path d="M17.8438 6.7268L21.0303 2.05322L24.5709 7.01005L17.8438 6.7268Z" fill="#D08C87"/>
<path d="M14.7284 7.15189C14.7284 7.15189 14.7284 7.01027 14.7284 7.64758C14.7284 8.35569 14.87 8.49732 14.87 8.49732C14.87 8.49732 14.2327 9.20543 14.5159 9.77193C14.7992 10.3384 14.87 10.9049 14.87 10.9049L14.4451 16.0742L27.6869 16.2158L27.4745 10.9049C27.4745 10.9049 27.5453 10.9049 27.6869 10.2676C27.8285 9.6303 27.4037 8.92219 27.4037 8.92219V8.00163L27.6869 7.50595C27.6869 7.50595 26.8372 6.65621 26.0582 6.72702C25.3501 6.79783 24.0755 6.93946 24.0755 6.93946L21.243 3.75293L18.0565 6.79783L16.0738 6.37296L14.7284 7.15189Z" fill="#79A5AE"/>
<path d="M17.0645 11.6128L25.2078 11.4712L25.5619 16.074L17.0645 15.9323V11.6128Z" fill="#A3C9CC"/>
<path d="M17.4902 7.2227L17.7734 15.5785L14.8701 15.7201L14.7993 10.5509L14.8701 8.49731C14.8701 8.49731 14.7285 7.7892 14.7285 7.43514C14.7285 7.08108 14.9409 6.86864 15.5074 6.79783C16.0739 6.72702 16.6404 6.65621 16.9237 6.79783C17.2069 6.93945 17.4902 7.2227 17.4902 7.2227Z" fill="#BED6F3"/>
<path d="M24.854 7.43515L24.7832 15.7201L27.8281 15.7909L27.6157 10.9049C27.6157 10.9049 27.8989 10.4092 27.8281 9.91356C27.7573 9.48869 27.5449 8.9222 27.5449 8.9222V8.00165L27.8281 7.50596C27.8281 7.50596 27.2616 6.86866 26.4827 7.01028C25.7038 7.1519 24.854 7.43515 24.854 7.43515Z" fill="#BED6F3"/>
<path d="M17.4184 6.51438L17.9849 6.58519L21.2422 3.54028L24.4287 6.79762H24.9244C24.9244 6.79762 24.9244 6.656 25.6325 6.58519C26.3406 6.51438 27.0488 6.37275 27.4028 6.79762C27.7569 7.29331 27.8277 7.43493 27.8277 7.43493C27.8277 7.43493 26.978 6.72681 26.0574 7.01006C25.066 7.22249 24.9244 7.43493 24.9244 7.43493H24.3579L21.313 4.17759L18.4805 7.15168L17.6308 7.22249C17.6308 7.22249 17.1351 6.58519 16.3562 6.656C15.5773 6.72681 14.8691 7.08087 14.8691 7.08087C14.8691 7.08087 14.8691 6.58519 15.5064 6.44356C16.0729 6.37275 17.4184 6.51438 17.4184 6.51438Z" fill="#4C5E60"/>
<path d="M25.4211 6.79763V6.37276C25.4211 6.37276 25.1378 6.58519 25.2086 6.08951C25.2794 5.59383 25.9167 1.62837 25.9167 1.62837L25.6335 1.48675L25.9167 0.35376L26.2 1.55756L27.1205 6.0187L26.8373 6.23114V6.72682H25.4211V6.79763Z" fill="#4E5460"/>
<path d="M17.2054 6.51444L16.9929 6.08957L17.2054 5.80632L16.5681 1.62843V1.27437H16.7097L16.4265 -0.000244141L16.0724 1.20356L16.2848 1.27437L15.2935 5.52307L15.5059 5.80632L15.2227 6.302L15.2935 6.51444H17.2054Z" fill="#4E5460"/>
<path d="M17.6319 7.00996H18.4108L21.2433 4.17749L24.2173 7.15158H24.8547V7.43483H24.2173L21.2433 4.38993L18.4108 7.15158L17.4902 7.2224L17.6319 7.00996Z" fill="#A3C9CC"/>
<path d="M20.1812 8.00153C19.7563 8.63883 19.6855 9.41776 19.9688 9.91344C20.252 10.4091 20.5353 10.6216 21.5266 10.5508C22.4472 10.4799 22.6596 10.1259 22.6596 9.0637C22.6596 8.00153 22.0931 7.36422 21.385 7.43503C20.6769 7.50585 20.1812 8.00153 20.1812 8.00153Z" stroke="#F1EFE2" stroke-miterlimit="10"/>
<path d="M20.6767 8.56808C20.3934 8.78052 20.1102 9.77188 20.6767 10.0551C21.1724 10.3384 21.7389 10.3384 21.8805 9.55945C22.0221 8.78052 21.7389 8.49727 21.4556 8.42646C21.2432 8.35565 20.8183 8.42646 20.6767 8.56808Z" fill="#4E5460"/>
<path d="M24.7832 9.06382C25.6329 8.70976 25.2789 8.49732 26.2702 8.70976C27.1908 8.92219 27.3324 8.85138 27.5449 9.06382C27.7573 9.34706 27.8989 10.2676 27.6865 10.6217C27.474 10.9049 27.6865 10.5509 26.4827 10.3384C25.2081 10.126 24.854 10.5509 24.854 10.5509L24.7832 9.06382Z" fill="#A3C9CC"/>
<path d="M14.8702 8.49714C15.5784 8.2847 15.8616 8.00146 16.5697 8.2847C17.2778 8.49714 17.6319 9.13445 17.6319 9.13445V10.7631C17.6319 10.7631 17.207 10.1258 16.4281 10.1258C15.5784 10.1258 14.7994 10.5507 14.7994 10.5507C14.7994 10.5507 14.3037 9.98419 14.4454 9.4885C14.587 8.99282 14.8702 8.49714 14.8702 8.49714Z" fill="#A3C9CC"/>
<path d="M18.4805 11.1879V8.63865C18.4805 8.63865 18.6929 7.22241 19.401 6.51429C20.1091 5.80618 20.8173 5.16887 21.9502 5.80618C23.0832 6.44348 23.7913 7.93053 23.8622 8.63865C23.8622 9.34676 23.8622 11.4003 23.8622 11.4003H22.8L22.8708 9.13433H23.6497C23.6497 9.13433 23.6497 7.50566 22.8 6.79754C21.9502 6.08942 21.7378 5.23968 20.8173 5.80618C19.8967 6.37267 19.2594 6.93916 18.9762 7.57647C18.6929 8.21378 18.6929 8.78027 18.6929 8.78027L19.5426 8.85108V11.4003L18.4805 11.1879Z" fill="#4C5E60"/>
<path d="M23.0851 10.5505H19.332V11.4003H23.0851V10.5505Z" fill="#9D958A"/>
<path d="M18.3403 8.49707H19.615V8.85113H18.2695L18.3403 8.49707Z" fill="#BED6F3"/>
<path d="M17.9859 10.7632L17.4902 11.6837H24.9963L24.6422 10.7632H17.9859Z" fill="#4C5E60"/>
<path d="M22.8008 8.56812H24.0046L24.2878 9.13461H22.8008V8.56812Z" fill="#BED6F3"/>
<path d="M18.4805 13.7372L19.3302 12.675L20.2508 13.7372L21.2421 12.8167L22.0919 13.7372L23.0832 12.8167L24.0038 13.9497V14.2329L23.0832 13.0999L22.1627 14.0205L21.1713 13.1707L20.2508 14.0205L19.3302 13.0291L18.4805 14.0205V13.7372Z" fill="#4C5E60"/>
<path d="M15.2227 15.7908V35.264H29.8807L29.1726 15.7908H15.2227Z" fill="#79A5AE"/>
<path d="M16.6392 15.5076L27.7566 15.7908V16.4281L16.5684 16.2157L16.6392 15.5076Z" fill="#4E5460"/>
<path d="M24.7114 18.1276C24.7114 18.1276 25.3487 16.9946 25.9152 16.853C26.4817 16.7822 27.9688 18.1276 27.9688 18.1276V17.7027C27.9688 17.7027 26.9066 16.4281 26.3401 16.4989C25.7736 16.5698 24.6406 17.7027 24.6406 17.7027L24.7114 18.1276Z" fill="#4C5E60"/>
<path d="M24.3566 18.0568C24.3566 18.0568 23.2944 16.3574 22.4447 16.4282C21.5949 16.499 20.3203 17.986 20.3203 17.986V18.3401C20.3203 18.3401 20.816 17.2071 21.4533 16.9947C22.0198 16.7114 22.2322 16.4282 22.7987 16.7822C23.3652 17.1363 24.3566 18.4109 24.3566 18.4109V18.0568Z" fill="#4C5E60"/>
<path d="M20.1085 18.1276C20.1085 18.1276 19.542 16.6406 18.6923 16.4282C18.4798 16.3574 18.1258 16.4282 17.8425 16.6406C17.0636 16.9947 16.3555 17.8444 16.3555 17.8444L16.7095 17.9152C16.7095 17.9152 17.4176 16.853 18.1258 16.7114C18.7631 16.5698 18.9047 16.6406 19.3296 16.9947C19.7544 17.3487 20.1793 18.4109 20.1793 18.4109V18.1276H20.1085Z" fill="#4C5E60"/>
<path d="M19.8262 14.9412V34.9809H20.3219L20.5343 14.9412H19.8262Z" fill="#BED6F3"/>
<path d="M24.1465 15.0828H24.713L24.8546 35.2641H24.2173L24.1465 15.0828Z" fill="#BED6F3"/>
<path d="M14.7285 12.1085L15.5074 8.143L15.2242 8.00137L15.6491 7.01001L16.0739 8.00137L15.7907 8.143L16.5696 12.2501L14.7285 12.1085Z" fill="#4E5460"/>
<path d="M27.7578 12.6043L28.6076 8.85127L28.2535 8.70965L28.6076 7.57666L29.0324 8.70965L28.82 8.85127L29.8114 12.6751L27.7578 12.6043Z" fill="#4E5460"/>
<path d="M28.1119 13.2417C28.1119 13.2417 28.3951 13.2417 29.0324 13.2417C29.6697 13.2417 30.0946 13.5958 29.8114 13.0293C29.5281 12.392 29.953 11.8255 29.0324 12.2504C28.1119 12.6044 27.7578 12.6044 27.7578 12.6044L28.1119 13.2417Z" fill="#A3C9CC"/>
<path d="M14.7285 12.0379C15.3658 11.7546 16.4988 11.8962 16.4988 11.8962L16.5696 12.746L14.941 13.0292L14.7285 12.0379Z" fill="#A3C9CC"/>
<path d="M19.8965 14.9409L20.2505 13.7371L20.5338 14.9409H19.8965Z" fill="#4E5460"/>
<path d="M24.1465 15.0825L24.2881 13.7371L24.5714 15.0825H24.1465Z" fill="#4E5460"/>
<path d="M16.7832 23.7926V19.0482C16.7832 19.0482 16.9956 18.4817 17.2789 18.4817C17.6329 18.4817 17.8454 18.9774 17.8454 18.9774L17.6329 23.7926H16.7832Z" fill="#4C5E60"/>
<path d="M18.4805 23.7926L18.6221 19.119C18.6221 19.119 18.5513 18.6233 18.9053 18.5525C19.3302 18.5525 19.401 19.0482 19.401 19.0482L19.4718 23.7926H18.4805Z" fill="#4C5E60"/>
<path d="M20.8887 23.7923V19.1188C20.8887 19.1188 20.9595 18.5523 21.3844 18.6231C21.8092 18.6231 21.88 19.1188 21.88 19.1188V23.8631L20.8887 23.7923Z" fill="#4C5E60"/>
<path d="M22.6587 23.7925V19.119C22.6587 19.119 22.5879 18.6941 23.0128 18.6233C23.4377 18.6233 23.5085 19.0482 23.5085 19.0482V23.8634L22.6587 23.7925Z" fill="#4C5E60"/>
<path d="M25.0674 23.8633L24.9258 19.119C24.9258 19.119 24.9258 18.6941 25.3507 18.6941C25.7047 18.6941 25.9171 19.119 25.9171 19.119V23.8633H25.0674Z" fill="#4C5E60"/>
<path d="M26.6939 23.7925L26.623 19.2606C26.623 19.2606 26.6939 18.6233 27.0479 18.6233C27.402 18.6233 27.6144 19.1898 27.6144 19.1898V23.8634L26.6939 23.7925Z" fill="#4C5E60"/>
<path d="M16.2852 23.9341H19.9674L19.8966 26.2001H16.356L16.2852 23.9341Z" fill="#A3C9CC"/>
<path d="M20.3208 23.9341H24.3571V26.2001L20.25 26.1292L20.3208 23.9341Z" fill="#A3C9CC"/>
<path d="M24.6426 23.9341H28.3248V26.1292H24.7134L24.6426 23.9341Z" fill="#A3C9CC"/>
<path d="M16.002 25.917L28.5356 25.9878V26.4835L16.002 26.4127V25.917Z" fill="#4C5E60"/>
<path d="M16.3555 29.3865C16.3555 29.3865 17.3468 27.8994 17.9841 27.8994C18.6214 27.8994 20.0377 29.2448 20.0377 29.2448L19.9669 30.7319C19.9669 30.7319 19.0463 29.1032 18.2674 29.1032C17.4885 29.1032 16.3555 30.9443 16.3555 30.9443V29.3865Z" fill="#4C5E60"/>
<path d="M20.3931 29.5282C20.3931 29.5282 21.3844 28.0412 22.0926 28.0412C22.8007 27.9703 24.4293 29.5282 24.4293 29.5282V30.9444C24.4293 30.9444 23.2964 28.8201 22.5174 28.8909C21.7385 28.8909 20.3223 31.1569 20.3223 31.1569L20.3931 29.5282Z" fill="#4C5E60"/>
<path d="M24.7129 29.3867C24.7129 29.3867 25.8459 27.6164 26.4832 27.7581C27.1205 27.8997 28.3243 29.3867 28.3243 29.3867L28.3951 30.9446C28.3951 30.9446 27.687 28.8911 26.8372 28.8911C25.9875 28.8911 24.7837 30.8738 24.7837 30.8738L24.7129 29.3867Z" fill="#4C5E60"/>
<path d="M25.8457 31.2278V34.6268H27.1911L27.0495 31.157L25.8457 31.2278Z" fill="#4C5E60"/>
<path d="M20.9595 31.2986L20.8887 35.2641L23.7211 35.1224V31.2278L20.9595 31.2986Z" fill="#4C5E60"/>
<path d="M17.3482 31.2986H18.6936L18.6228 34.9808H17.2773L17.3482 31.2986Z" fill="#4C5E60"/>
<path d="M17.915 29.9531C17.915 29.9531 17.6317 30.3072 17.915 30.378C18.1982 30.4488 18.4106 30.4488 18.3398 30.1656C18.1982 29.9531 17.915 29.9531 17.915 29.9531Z" fill="#4C5E60"/>
<path d="M22.3762 30.0238C22.3054 30.3071 22.2346 30.8028 22.5886 30.6612C22.9427 30.5195 23.2259 30.6612 23.0135 30.3071C22.8719 29.953 22.3762 30.0238 22.3762 30.0238Z" fill="#4C5E60"/>
<path d="M26.7662 30.024C26.6954 30.2364 26.5538 30.5197 26.9079 30.5197C27.2619 30.5197 27.5452 30.7321 27.4744 30.3073C27.4036 29.8824 27.1203 29.7408 26.9787 29.8116C26.7662 29.9532 26.7662 30.024 26.7662 30.024Z" fill="#4C5E60"/>
<path d="M17.3482 25.9877C17.5437 25.9877 17.7023 25.7658 17.7023 25.492C17.7023 25.2183 17.5437 24.9963 17.3482 24.9963C17.1527 24.9963 16.9941 25.2183 16.9941 25.492C16.9941 25.7658 17.1527 25.9877 17.3482 25.9877Z" fill="#4C5E60"/>
<path d="M18.9063 25.8461C19.0627 25.8461 19.1895 25.6559 19.1895 25.4212C19.1895 25.1866 19.0627 24.9963 18.9063 24.9963C18.7499 24.9963 18.623 25.1866 18.623 25.4212C18.623 25.6559 18.7499 25.8461 18.9063 25.8461Z" fill="#4C5E60"/>
<path d="M21.3848 25.8461C21.5412 25.8461 21.6681 25.6559 21.6681 25.4212C21.6681 25.1866 21.5412 24.9963 21.3848 24.9963C21.2284 24.9963 21.1016 25.1866 21.1016 25.4212C21.1016 25.6559 21.2284 25.8461 21.3848 25.8461Z" fill="#4C5E60"/>
<path d="M23.3677 25.8461C23.5633 25.8461 23.7218 25.6559 23.7218 25.4212C23.7218 25.1866 23.5633 24.9963 23.3677 24.9963C23.1722 24.9963 23.0137 25.1866 23.0137 25.4212C23.0137 25.6559 23.1722 25.8461 23.3677 25.8461Z" fill="#4C5E60"/>
<path d="M25.5625 25.9169C25.719 25.9169 25.8458 25.7267 25.8458 25.492C25.8458 25.2574 25.719 25.0671 25.5625 25.0671C25.4061 25.0671 25.2793 25.2574 25.2793 25.492C25.2793 25.7267 25.4061 25.9169 25.5625 25.9169Z" fill="#4C5E60"/>
<path d="M27.334 25.9169C27.4905 25.9169 27.6173 25.695 27.6173 25.4212C27.6173 25.1475 27.4905 24.9255 27.334 24.9255C27.1776 24.9255 27.0508 25.1475 27.0508 25.4212C27.0508 25.695 27.1776 25.9169 27.334 25.9169Z" fill="#4C5E60"/>
<path d="M15.9331 30.6612C16.0505 30.6612 16.1456 30.5661 16.1456 30.4488C16.1456 30.3314 16.0505 30.2363 15.9331 30.2363C15.8158 30.2363 15.7207 30.3314 15.7207 30.4488C15.7207 30.5661 15.8158 30.6612 15.9331 30.6612Z" fill="#BED6F3"/>
<path d="M28.8907 30.5196C29.0471 30.5196 29.1739 30.3928 29.1739 30.2364C29.1739 30.0799 29.0471 29.9531 28.8907 29.9531C28.7342 29.9531 28.6074 30.0799 28.6074 30.2364C28.6074 30.3928 28.7342 30.5196 28.8907 30.5196Z" fill="#BED6F3"/>
<path d="M19.543 15.2242C19.6994 15.2242 19.8263 15.0974 19.8263 14.941C19.8263 14.7845 19.6994 14.6577 19.543 14.6577C19.3866 14.6577 19.2598 14.7845 19.2598 14.941C19.2598 15.0974 19.3866 15.2242 19.543 15.2242Z" fill="#4E5460"/>
<path d="M21.313 15.3658C21.5086 15.3658 21.6671 15.2073 21.6671 15.0118C21.6671 14.8162 21.5086 14.6577 21.313 14.6577C21.1175 14.6577 20.959 14.8162 20.959 15.0118C20.959 15.2073 21.1175 15.3658 21.313 15.3658Z" fill="#4E5460"/>
<path d="M23.084 15.3658C23.2405 15.3658 23.3673 15.239 23.3673 15.0826C23.3673 14.9261 23.2405 14.7993 23.084 14.7993C22.9276 14.7993 22.8008 14.9261 22.8008 15.0826C22.8008 15.239 22.9276 15.3658 23.084 15.3658Z" fill="#4E5460"/>
<path d="M12.2494 29.6698L10.904 27.8995L10.125 29.5282L9.8418 29.3865L10.8332 27.4038L12.2494 29.2449L13.5948 27.6162L14.7278 29.1741L14.5154 29.3865L13.5948 28.0411L12.2494 29.6698Z" fill="#4E5460"/>
<path d="M28.6075 30.6613L29.0324 30.5197L28.5367 29.3867L15.7906 29.4575L15.2949 30.803L16.4987 30.5197C16.2863 30.7321 16.1447 30.9446 16.1447 30.9446L16.3571 31.4403C16.3571 31.4403 16.782 30.6613 17.4193 30.7321C17.9858 30.803 17.9858 31.4403 17.9858 31.4403H18.4106C18.4106 31.4403 18.5523 30.6613 19.0479 30.5905C19.5436 30.5197 19.8269 31.3694 19.8269 31.3694H20.535C20.535 31.3694 21.0307 30.6613 21.5264 30.4489C22.022 30.2365 22.7302 31.3694 22.7302 31.3694H23.155C23.155 31.3694 23.2967 30.5905 23.7215 30.4489C23.7923 30.4489 23.8631 30.4489 23.934 30.4489L24.0756 30.5905C24.288 30.8738 24.5004 31.3694 24.5004 31.3694L24.9253 31.2986C24.9253 31.2986 25.421 30.5905 25.9167 30.4489C26.4124 30.3073 26.9789 31.3694 26.9789 31.3694H27.4037C27.4037 31.3694 27.4745 31.157 27.5454 31.0154C27.5454 31.0154 27.9702 30.5197 28.1827 30.5197C28.4659 30.5905 28.8908 31.157 28.8908 31.157L29.2448 31.0862C29.174 31.157 28.9616 30.8738 28.6075 30.6613Z" fill="#A3C9CC"/>
<path d="M14.8702 12.9583H12.1793L11.4004 16.7113H15.2242L14.8702 12.9583Z" fill="#D08C87"/>
<path d="M29.0312 13.2415L32.0762 12.9583L32.7843 16.7113L29.2437 16.5697L29.0312 13.2415Z" fill="#D08C87"/>
<path d="M24.5003 28.9616L22.3052 26.6248L20.11 28.82L18.1273 26.7665L16.357 28.5367L16.1445 28.3243L18.1273 26.3416L20.11 28.4659L22.376 26.2708L24.5003 28.5367L26.1998 26.1292L28.5366 28.6784L28.3242 28.82L26.1998 26.554L24.5003 28.9616Z" fill="#4E5460"/>
<path d="M14.8702 12.9583L14.4453 15.7908L16.4989 15.3659L16.5697 12.7458L14.8702 12.9583Z" fill="#4C5E60"/>
<path d="M28.1119 13.0291L29.8114 13.0999L29.953 16.074L27.7578 15.9323L28.1119 13.0291Z" fill="#4C5E60"/>
<path d="M11.4708 16.2156L6.23073 16.4988L4.53125 20.2518L11.4708 20.181V16.2156Z" fill="#AF7574"/>
<path d="M10.4093 16.9236L9.70117 18.6939L15.0121 18.269L14.9412 16.9236H10.4093Z" fill="#D08C87"/>
<path d="M10.0548 18.6941L9.48828 34.3435H9.84234L10.4796 18.4817L10.0548 18.6941Z" fill="#BED6F3"/>
<path d="M12.1797 18.6941L11.8965 34.7684H12.463L12.6046 18.4817L12.1797 18.6941Z" fill="#BED6F3"/>
<path d="M10.7622 20.4643L10.6914 25.5628H11.8244L11.8952 20.2519C11.8952 20.2519 12.0368 19.6146 11.4703 19.4729C10.9038 19.3313 10.7622 20.4643 10.7622 20.4643Z" fill="#4C5E60"/>
<path d="M13.0298 19.6854L12.959 25.4212H14.1628L14.2336 19.6854C14.2336 19.6854 14.446 19.2605 13.9503 19.1897C13.4547 19.1189 13.0298 19.6854 13.0298 19.6854Z" fill="#4C5E60"/>
<path d="M37.1758 21.385V31.7943H38.238L38.0964 20.1812H36.8926L37.1758 21.385Z" fill="#BED6F3"/>
<path d="M10.125 27.4038H12.0369V25.7043H10.125V27.4038Z" fill="#A3C9CC"/>
<path d="M12.5332 25.563L14.5159 25.7046V27.4041H12.5332V25.563Z" fill="#A3C9CC"/>
<path d="M10.3379 29.599V34.2018H11.4709C11.4709 34.2018 11.4709 29.7407 11.4709 29.599C11.4709 29.4574 11.1168 28.6785 10.9044 28.8201C10.6919 28.9617 10.3379 29.599 10.3379 29.599Z" fill="#4C5E60"/>
<path d="M32.5018 29.6698L31.1564 28.0411L30.2359 29.3865L30.0234 29.1741L31.1564 27.6162L32.5018 29.2449L33.8473 27.4038L34.8386 29.3865L34.6262 29.5282L33.8473 27.8995L32.5018 29.6698Z" fill="#4E5460"/>
<path d="M7.43459 26.7666H9.70057V28.3953H7.29297L7.43459 26.7666Z" fill="#A3C9CC"/>
<path d="M12.8872 29.5991L12.8164 34.3435H14.091L14.1618 29.4575C14.1618 29.4575 13.737 28.6786 13.4537 28.8202C13.1705 28.9618 12.8872 29.5991 12.8872 29.5991Z" fill="#4C5E60"/>
<path d="M7.57635 21.385V31.7943H6.44336L6.58498 20.1812H7.78878L7.57635 21.385Z" fill="#BED6F3"/>
<path d="M8.07227 23.0135V26.7666H9.4885L9.70094 22.1638C9.70094 22.1638 9.55931 21.6681 9.06363 21.8806C8.63876 22.1638 8.07227 23.0135 8.07227 23.0135Z" fill="#4C5E60"/>
<path d="M32.7852 16.5698V20.3937L39.6539 20.4645L36.8922 16.499L32.7852 16.5698Z" fill="#AF7574"/>
<path d="M7.36428 30.378L7.22266 30.1656L9.06376 28.3245L9.84269 29.3158L9.63026 29.4575L9.06376 28.7493L7.36428 30.378Z" fill="#4E5460"/>
<path d="M34.3435 16.9236L34.9808 18.6939L29.6699 18.269L29.8115 16.9236H34.3435Z" fill="#D08C87"/>
<path d="M7.78906 30.5904V34.131H9.2053L9.27611 29.8823C9.27611 29.8823 8.92205 29.8823 8.42637 30.1656C7.93069 30.4488 7.78906 30.5904 7.78906 30.5904Z" fill="#4C5E60"/>
<path d="M34.6964 18.6941L35.192 34.3435H34.838L34.2715 18.4817L34.6964 18.6941Z" fill="#BED6F3"/>
<path d="M28.253 30.8029L27.8281 16.4281C27.8281 16.4281 27.8989 15.366 28.6779 15.366C29.5276 15.366 30.0233 16.3573 30.0233 16.3573L30.3773 34.5559H28.3238V30.8029H28.253Z" fill="#A3C9CC"/>
<path d="M16.4984 34.7684L16.7108 16.3574C16.7108 16.3574 16.9941 15.7201 16.4984 15.4368C16.0027 15.0828 15.2946 15.012 15.0114 15.1536C14.7989 15.2244 14.5157 15.8617 14.5157 15.8617V16.4282L14.2324 34.9809L16.4984 34.7684Z" fill="#A3C9CC"/>
<path d="M32.5025 18.6941L32.8566 34.7684H32.2901L32.1484 18.4817L32.5025 18.6941Z" fill="#BED6F3"/>
<path d="M33.9886 20.4643L34.0594 25.5628H32.9264L32.8556 20.2519C32.8556 20.2519 32.714 19.6146 33.2805 19.4729C33.8469 19.3313 33.9886 20.4643 33.9886 20.4643Z" fill="#4C5E60"/>
<path d="M31.7237 19.6854L31.7945 25.4212H30.5907L30.5199 19.6854C30.5199 19.6854 30.3074 19.2605 30.8031 19.1897C31.2988 19.1189 31.7237 19.6854 31.7237 19.6854Z" fill="#4C5E60"/>
<path d="M34.6253 27.4038H32.7134L32.6426 25.7043H34.6253V27.4038Z" fill="#A3C9CC"/>
<path d="M32.2191 25.563L30.2363 25.7046V27.4041H32.2191V25.563Z" fill="#A3C9CC"/>
<path d="M34.3439 29.599V34.2018H33.2109C33.2109 34.2018 33.2109 29.7407 33.2109 29.599C33.2109 29.4574 33.565 28.6785 33.7774 28.8201C34.0607 28.9617 34.3439 29.599 34.3439 29.599Z" fill="#4C5E60"/>
<path d="M37.3173 26.7666H34.9805V28.3953H37.4589L37.3173 26.7666Z" fill="#A3C9CC"/>
<path d="M31.8645 29.5991L31.9353 34.3435H30.6607L30.5898 29.4575C30.5898 29.4575 31.0147 28.6786 31.298 28.8202C31.5812 28.9618 31.8645 29.5991 31.8645 29.5991Z" fill="#4C5E60"/>
<path d="M36.6091 23.0135V26.7666H35.1929L34.9805 22.1638C34.9805 22.1638 35.1221 21.6681 35.6178 21.8806C36.0426 22.1638 36.6091 23.0135 36.6091 23.0135Z" fill="#4C5E60"/>
<path d="M37.3178 30.378L35.6891 28.7493L35.1226 29.4575L34.9102 29.3158L35.6183 28.3245L37.5302 30.1656L37.3178 30.378Z" fill="#4E5460"/>
<path d="M36.8913 30.5904V34.131H35.4751L35.4043 29.8823C35.4043 29.8823 35.7584 29.8823 36.254 30.1656C36.7497 30.4488 36.8913 30.5904 36.8913 30.5904Z" fill="#4C5E60"/>
</g>
</svg>
