<svg width="41" height="39" viewBox="0 0 41 39" fill="none" xmlns="http://www.w3.org/2000/svg">
<path d="M40.6366 19.6942C40.6366 30.6508 31.7603 37.1693 20.9424 38.5562C10.4019 39.8738 0 30.7895 0 19.8329C0 8.87625 8.11345 0 19.0007 0C29.888 0 40.6366 8.73756 40.6366 19.6942Z" fill="#F67C87"/>
<mask id="mask0_1864_7068" style="mask-type:luminance" maskUnits="userSpaceOnUse" x="0" y="0" width="41" height="39">
<path d="M40.6366 19.6942C40.6366 30.6508 31.7603 37.1693 20.9424 38.5562C10.4019 39.8738 0 30.7895 0 19.8329C0 8.87625 8.11345 0 19.0007 0C29.888 0 40.6366 8.73756 40.6366 19.6942Z" fill="white"/>
</mask>
<g mask="url(#mask0_1864_7068)">
<path d="M12.6211 14.7707C12.6211 14.7707 14.8402 5.47832 19.7637 5.61702C24.6873 5.75571 27.253 14.7707 27.253 14.7707H12.6211Z" fill="#F4D6C5"/>
<path d="M18.3077 5.82498V4.99283H17.9609C17.9609 4.99283 18.585 3.8833 19.6252 3.8833C20.6654 3.8833 21.775 4.85414 21.775 4.85414H21.4282V5.96367L18.3077 5.82498Z" fill="#D4BFA4"/>
<path d="M11.9971 11.5807C11.9971 11.5807 16.5046 10.8179 19.9025 10.8179C23.3004 10.8179 28.0159 11.5113 28.0159 11.5113L27.8773 14.7706H11.9277L11.9971 11.5807Z" fill="#E0C2B3"/>
<path d="M-22.6758 15.6027C-22.6758 15.6027 13.592 14.7705 19.0704 14.7705C24.5487 14.7705 62.5501 15.1866 62.5501 15.1866V24.5483C62.5501 24.5483 51.5935 28.4316 20.7346 28.709C-10.1242 28.9864 -22.6758 25.9352 -22.6758 25.9352V15.6027Z" fill="#F4D6C5"/>
<path d="M17.0605 12.7595L23.9258 12.8982V16.7122H23.7871L23.9258 25.8659H17.0605V16.6429L17.2686 16.5735L17.0605 12.7595Z" fill="#F7E1D5"/>
<path d="M26.4212 16.3655H24.1328V19.7634H26.4212V16.3655Z" fill="#C0AAAF"/>
<path d="M24.1328 21.2197H26.4212V24.4096H24.2715L24.1328 21.2197Z" fill="#C0AAAF"/>
<path d="M29.4036 16.2961H27.2539V19.6941H29.4036V16.2961Z" fill="#C0AAAF"/>
<path d="M27.2539 21.0811H29.4036V24.271H27.3926L27.2539 21.0811Z" fill="#C0AAAF"/>
<path d="M32.5247 16.2961H30.2363V19.6941H32.5247V16.2961Z" fill="#C0AAAF"/>
<path d="M30.2363 21.1504H32.5247V24.3403H30.375L30.2363 21.1504Z" fill="#C0AAAF"/>
<path d="M35.5755 16.2268H33.4258V19.6247H35.5755V16.2268Z" fill="#C0AAAF"/>
<path d="M33.4258 21.0811H35.5755V24.271H33.4951L33.4258 21.0811Z" fill="#C0AAAF"/>
<path d="M37.9319 16.3655H35.9902V19.5554H37.9319V16.3655Z" fill="#C0AAAF"/>
<path d="M35.9902 20.873H37.9319V23.8549H36.1289L35.9902 20.873Z" fill="#C0AAAF"/>
<path d="M40.428 16.2961H38.625V19.486H40.428V16.2961Z" fill="#C0AAAF"/>
<path d="M38.625 20.8037H40.428V23.7856H38.7637L38.625 20.8037Z" fill="#C0AAAF"/>
<path d="M16.5628 16.9807L14.2051 17.0002L14.2327 20.3288L16.5905 20.3092L16.5628 16.9807Z" fill="#C0AAAF"/>
<path d="M16.5755 21.7051L14.2871 21.7744V24.8256H16.5062L16.5755 21.7051Z" fill="#C0AAAF"/>
<path d="M13.3714 16.9811L11.1523 16.9995L11.18 20.3281L13.3991 20.3097L13.3714 16.9811Z" fill="#C0AAAF"/>
<path d="M13.386 21.7051H11.2363V24.8256H13.3167L13.386 21.7051Z" fill="#C0AAAF"/>
<path d="M10.3206 17.05L7.96289 17.0696L7.99055 20.3982L10.3483 20.3786L10.3206 17.05Z" fill="#C0AAAF"/>
<path d="M10.3353 21.7744H8.04688V24.895L10.2659 24.8256L10.3353 21.7744Z" fill="#C0AAAF"/>
<path d="M7.13117 16.9811L4.91211 16.9995L4.93977 20.3281L7.15883 20.3097L7.13117 16.9811Z" fill="#C0AAAF"/>
<path d="M7.14386 21.7051H4.99414V24.8256H7.07451L7.14386 21.7051Z" fill="#C0AAAF"/>
<path d="M4.4241 17.1211L2.48242 17.1372L2.50835 20.2578L4.45003 20.2416L4.4241 17.1211Z" fill="#C0AAAF"/>
<path d="M4.50712 21.4971L2.49609 21.5664L2.56544 24.4789L4.36843 24.4096L4.50712 21.4971Z" fill="#C0AAAF"/>
<path d="M1.7903 17.0518L-0.0820312 17.0674L-0.0561013 20.1879L1.81623 20.1724L1.7903 17.0518Z" fill="#C0AAAF"/>
<path d="M1.80202 21.4971H-0.0703125L-0.00096683 24.4096H1.73268L1.80202 21.4971Z" fill="#C0AAAF"/>
<path d="M22.6754 25.6579H22.19V19.6248C22.0513 19.6248 21.9126 19.6248 21.7739 19.5554C21.4965 19.4167 21.3579 19.0007 21.3579 18.862V18.3072H19.5549C19.5549 18.5152 19.4855 18.7926 19.4162 19.0007C19.2775 19.278 19.0001 19.4167 18.7921 19.4861V25.5885H18.3066V19.0007H18.584C18.584 19.0007 18.8614 19.0007 19.0001 18.7233C19.1388 18.3766 19.1388 18.0298 19.1388 18.0298V17.7524H19.4162H21.982V18.7233C22.0513 18.862 22.1207 19.07 22.19 19.07C22.2593 19.07 22.398 19.07 22.6061 19.07L22.8835 19.0007V19.3474V25.6579H22.6754Z" fill="#C0AAAF"/>
<path d="M20.4577 19.0701C20.4577 19.0701 21.1511 19.3475 21.4285 19.7635C21.7059 20.1796 21.6366 21.4972 21.6366 21.4972H19.2788C19.2788 21.4972 19.1401 20.3183 19.4175 19.9022C19.7642 19.4861 20.4577 19.0701 20.4577 19.0701Z" fill="#F1EFE2"/>
<path d="M19.2793 21.4971H21.7064V25.3111H19.2793V21.4971Z" fill="#D08C87"/>
<path d="M17.0592 25.866L16.5738 27.3222L14.2854 27.669V29.1252L12.6211 30.7202H28.9173L25.7968 28.7091L25.3114 27.1142H23.5084L23.439 25.866H17.0592Z" fill="#E0C2B3"/>
</g>
</svg>
