<svg width="46" height="48" viewBox="0 0 46 48" fill="none" xmlns="http://www.w3.org/2000/svg">
<path d="M45.6709 23.2536C45.6709 36.0746 35.0437 48.3808 22.343 46.4242C15.0854 45.2914 0 36.6925 0 23.8715C0 11.0504 9.48669 -0.689304 22.343 0.0315581C50.5957 1.67924 45.6709 18.0016 45.6709 23.2536Z" fill="#CADEAD"/>
<mask id="mask0_1431_26460" style="mask-type:alpha" maskUnits="userSpaceOnUse" x="0" y="0" width="46" height="48">
<path d="M45.6709 23.8837C45.6709 36.7048 35.0437 49.0109 22.343 47.0543C15.0854 45.9215 0 37.3226 0 24.5016C0 11.6806 9.48669 -0.0591767 22.343 0.661685C50.5957 2.30937 45.6709 18.6317 45.6709 23.8837Z" fill="#F67C87"/>
</mask>
<g mask="url(#mask0_1431_26460)">
<path d="M22.6346 1.38124L22.6094 2.53565L22.9018 2.5054L22.7959 1.38124L22.6951 1.26025L22.6346 1.38124Z" fill="#937F74"/>
<path d="M21.4702 2.64658C21.7525 2.4903 22.5439 2.35923 22.9825 2.40965C23.416 2.46006 23.7639 2.63649 23.8899 2.69699C24.0159 2.75748 23.9302 2.9188 23.8899 3.04482C23.8496 3.17085 23.8445 3.24143 23.9252 3.36241C24.0058 3.4834 24.026 3.72537 24.026 3.72537L21.2786 3.63463C21.2786 3.63463 21.1022 3.55901 21.2786 3.36241C21.4551 3.16581 21.5861 3.21622 21.4702 3.0297C21.3542 2.84822 21.4702 2.64658 21.4702 2.64658Z" fill="#A5706F"/>
<path d="M16.7168 9.97122C16.7168 9.97122 17.0495 6.82053 18.3753 5.48968C19.7011 4.15884 20.5732 3.31697 22.5292 3.36234C24.4801 3.40771 26.2243 4.47138 27.0964 6.02404C27.9685 7.5767 29.007 10.4501 29.007 10.4501L16.7168 9.97122Z" fill="#F4D6C5"/>
<path d="M16.4036 11.2366C16.4036 11.2366 16.207 10.6064 16.5095 10.1931C16.812 9.78473 18.9091 9.06385 21.3893 9.02856C23.8695 8.99327 25.2508 8.96303 26.4001 9.15963C27.5545 9.36127 28.7997 9.83514 28.9761 10.1779C29.1526 10.5207 29.1223 11.1307 29.1223 11.1307L29.1929 16.3734C29.1929 16.3734 22.9571 14.9771 21.1372 15.2442C19.3224 15.5114 16.3835 16.5095 16.3835 16.5095L16.4036 11.2366Z" fill="#D08C87"/>
<path d="M16.4648 13.2128C16.4648 13.2128 15.0835 12.9708 14.8869 12.6482C14.6903 12.3255 14.8365 11.9827 15.3003 11.7609C15.7641 11.5391 17.5839 10.8737 18.9853 10.662C20.3868 10.4502 24.5255 10.4049 25.6295 10.5057C26.7335 10.6065 28.9516 11.0501 29.5817 11.3173C30.2169 11.5845 30.7462 11.5946 30.6202 12.0029C30.4942 12.4112 29.0927 13.0363 29.0927 13.0363L29.0625 12.018C29.0625 12.018 28.2509 11.4282 26.552 11.3072C24.8532 11.1862 21.1883 11.0753 19.8978 11.2417C18.6123 11.4081 16.616 11.6752 16.3993 12.0634C16.1875 12.4465 16.4648 13.2128 16.4648 13.2128Z" fill="#A5706F"/>
<path d="M16.2373 12.1339L16.3381 14.7301L29.1879 15.1636L29.1476 11.5844C29.1476 11.5844 24.9534 10.8636 23.6477 10.8736C22.3421 10.8837 18.8335 11.0954 17.8252 11.3727C16.817 11.6449 16.2373 12.1339 16.2373 12.1339Z" fill="#F4D6C5"/>
<path d="M16.5195 12.1994V14.241L17.1295 14.0091V12.0229L16.5195 12.1994Z" fill="#937F74"/>
<path d="M17.7549 11.8315V14.0194L18.7177 13.8883V11.5593L17.7549 11.8315Z" fill="#937F74"/>
<path d="M19.5391 11.4584V13.7774L21.0111 13.6967V11.3123L19.5391 11.4584Z" fill="#937F74"/>
<path d="M23.6176 11.2568H21.9238V13.7068H23.6176V11.2568Z" fill="#937F74"/>
<path d="M24.54 11.3123V13.6412L26.0574 13.8429V11.3123H24.54Z" fill="#937F74"/>
<path d="M16.2375 16.182L16.1367 21.0365H29.6317L29.178 15.4561L16.2375 16.182Z" fill="#F4D6C5"/>
<path d="M26.8135 11.4585V13.8429L27.9578 14.1303V11.5593L26.8135 11.4585Z" fill="#937F74"/>
<path d="M28.4619 11.9373V14.241L29.0064 14.3973L28.9509 12.1591L28.4619 11.9373Z" fill="#937F74"/>
<path d="M16.2373 14.332C16.2373 14.332 18.3848 13.6111 19.0402 13.5455C19.6955 13.48 22.6647 13.359 23.7737 13.3792C24.8828 13.3994 27.0656 13.601 27.7159 13.7119C28.3712 13.8228 29.1576 14.2463 29.1576 14.2463L29.1879 16.7517C29.1879 16.7517 25.5129 16.1871 23.4814 16.2325C21.4448 16.2778 19.6804 16.4089 18.5814 16.5198C17.4825 16.6307 16.2877 16.8071 16.2877 16.8071L16.2373 14.332Z" fill="#D08C87"/>
<path d="M15.7836 15.2291C15.8844 15.1283 15.8945 14.5486 15.9399 14.5486C15.9852 14.5486 16.0357 15.219 16.0357 15.219C16.0357 15.219 16.2877 15.2493 16.3028 15.577C16.318 15.8694 15.587 15.708 15.587 15.708C15.587 15.708 15.5618 15.582 15.592 15.4056C15.6172 15.2291 15.7433 15.2695 15.7836 15.2291Z" fill="#937F74"/>
<path d="M29.4799 15.1434C29.5807 15.0426 29.5908 14.4629 29.6362 14.4629C29.6815 14.4629 29.7319 15.1334 29.7319 15.1334C29.7319 15.1334 29.984 15.1636 29.9991 15.4913C30.0142 15.7837 29.2833 15.6223 29.2833 15.6223C29.2833 15.6223 29.2581 15.4963 29.2883 15.3199C29.3135 15.1384 29.4396 15.1787 29.4799 15.1434Z" fill="#937F74"/>
<path d="M14.6289 17.4776C14.6289 17.4776 14.8154 16.1013 15.254 15.8241C15.3498 15.7636 15.4657 15.7081 15.5867 15.6678C16.0152 15.5216 16.5445 15.5216 16.7764 15.8947C17.0789 16.3736 17.2452 17.8002 17.2452 17.8002L14.6289 17.8909V17.4776Z" fill="#F4D6C5"/>
<path d="M13.6104 17.5229H17.9205L18.1272 18.2438H13.7868L13.6104 17.5229Z" fill="#A5706F"/>
<path d="M14.6289 17.9565V20.6586L15.375 20.6031L15.4304 17.9565H14.6289Z" fill="#D08C87"/>
<path d="M16.4336 17.9565V20.6939L17.2452 20.6586V17.9565H16.4336Z" fill="#D08C87"/>
<path d="M28.3916 17.3364C28.3916 17.3364 28.4571 16.1971 28.8151 15.8593C29.173 15.5216 29.3343 15.3804 29.7073 15.4913C30.0804 15.6022 30.5189 15.8039 30.7256 16.3332C30.9323 16.8675 31.1188 17.4523 31.1188 17.4523L28.3916 17.3364Z" fill="#F4D6C5"/>
<path d="M27.7811 17.4574L27.3828 18.143L31.5972 18.0674L31.9904 17.3364L27.7811 17.4574Z" fill="#A5706F"/>
<path d="M29.1878 17.8203H28.4619V20.4165H29.1878V17.8203Z" fill="#D08C87"/>
<path d="M22.458 18.6067V20.8651L23.2595 20.6937L23.1789 18.6067H22.458Z" fill="#937F74"/>
<path d="M30.2168 17.8859L30.2924 20.4166H31.0587V17.7397H30.2168V17.8859Z" fill="#D08C87"/>
<path d="M14.417 20.4165V23.174L31.3299 22.9824V20.2603L14.417 20.4165Z" fill="#D08C87"/>
<path d="M23.108 17.054H22.8711V22.9823H23.108V17.054Z" fill="#F1EFE2"/>
<path d="M22.9922 18.6068C22.9922 18.6068 23.6072 18.4808 23.955 18.5362C24.3079 18.5917 24.9431 18.5413 25.3262 18.6068C25.7043 18.6723 25.8656 18.7429 25.8656 18.7429L25.785 18.1128C25.785 18.1128 25.3565 17.891 25.1246 17.8456C24.8927 17.8002 23.7332 17.6691 23.4308 17.6944C23.1283 17.7196 22.9922 17.7448 22.9922 17.7448V18.6068Z" fill="white"/>
<path d="M22.9922 19.1159C22.9922 19.1159 23.7685 18.9798 24.1063 19.0454C24.444 19.1109 25.3111 19.2067 25.5127 19.2268C25.7144 19.252 25.9513 19.3125 25.9513 19.3125C25.9513 19.3125 25.8707 19.1311 25.8656 18.9647C25.8606 18.7983 25.8656 18.7379 25.8656 18.7379C25.8656 18.7379 25.6337 18.5362 25.3061 18.506C24.9784 18.4757 24.6104 18.3547 24.1365 18.3598C23.6627 18.3699 22.9922 18.4908 22.9922 18.4908V19.1159Z" fill="#457545"/>
<path d="M22.9922 17.1396C22.9922 17.1396 23.5921 17.301 23.945 17.3363C24.2978 17.3715 24.8725 17.5278 25.1649 17.5228C25.4573 17.5177 25.79 17.5429 25.79 17.5429V18.1075C25.79 18.1075 25.4522 18.0168 24.9985 17.9412C24.5448 17.8656 23.7282 17.8202 23.4408 17.8252C23.1535 17.8353 22.9922 17.8252 22.9922 17.8252V17.1396Z" fill="#F49519"/>
<path d="M24.455 17.9059C24.339 18.0016 24.2836 18.0319 24.3138 18.2134C24.3441 18.3848 24.6314 18.4453 24.7221 18.3444C24.8431 18.2134 24.833 18.1125 24.7574 17.9865C24.6616 17.8202 24.455 17.9059 24.455 17.9059Z" fill="#2A2AD1"/>
<path d="M24.3496 18.0926L24.5613 18.1379L24.3496 18.0371V18.0926Z" fill="white"/>
<path d="M24.3493 18.1931L24.561 18.1377L24.3291 18.1427L24.3493 18.1931Z" fill="white"/>
<path d="M24.3999 18.2839L24.5612 18.1377L24.3545 18.2486L24.3999 18.2839Z" fill="white"/>
<path d="M24.4803 18.3446L24.5609 18.1379L24.4248 18.3295L24.4803 18.3446Z" fill="white"/>
<path d="M24.5807 18.3547L24.5605 18.1379L24.5303 18.3698L24.5807 18.3547Z" fill="white"/>
<path d="M24.6765 18.3245L24.5605 18.1379L24.6362 18.3597L24.6765 18.3245Z" fill="white"/>
<path d="M24.7471 18.2488L24.5605 18.1379L24.7269 18.2993L24.7471 18.2488Z" fill="white"/>
<path d="M24.7773 18.1531L24.5605 18.1379L24.7824 18.2085L24.7773 18.1531Z" fill="white"/>
<path d="M24.7572 18.0522L24.5605 18.1379L24.7874 18.0976L24.7572 18.0522Z" fill="white"/>
<path d="M24.6967 17.9717L24.5605 18.138L24.7471 17.9969L24.6967 17.9717Z" fill="white"/>
<path d="M24.6059 17.9263L24.5605 18.138L24.6614 17.9313L24.6059 17.9263Z" fill="white"/>
<path d="M24.5059 17.9262L24.5613 18.1379L24.5563 17.906L24.5059 17.9262Z" fill="white"/>
<path d="M24.4141 17.9765L24.5603 18.1378L24.4494 17.9312L24.4141 17.9765Z" fill="white"/>
<path d="M2.16211 23.1738L44.5728 22.6545V34.859L2.16211 35.5295V23.1738Z" fill="#F4D6C5"/>
<path d="M43.9439 24.1267H2.56152V24.8627H43.9439V24.1267Z" fill="#D08C87"/>
<path d="M1.89062 25.6137L45.0222 25.4978L44.9113 24.4946H1.89062V25.6137Z" fill="#FCE9E0"/>
<path d="M4.47168 25.7298V33.0646H5.28834V25.387L4.47168 25.7298Z" fill="#FCE9E0"/>
<path d="M8.53906 25.2256V32.8578L9.48679 32.7419V25.0542L8.53906 25.2256Z" fill="#FCE9E0"/>
<path d="M12.1748 25.1552V33.1806L13.1881 32.9739L13.0822 24.8325L12.1748 25.1552Z" fill="#FCE9E0"/>
<path d="M16.716 25.0542H15.8691V32.6965H16.716V25.0542Z" fill="#FCE9E0"/>
<path d="M20.7646 25.0542L20.8503 32.8578H21.7779L21.6468 25.0542H20.7646Z" fill="#FCE9E0"/>
<path d="M24.429 25.0542L24.3887 33.1804H25.2608L25.1549 25.0542H24.429Z" fill="#FCE9E0"/>
<path d="M28.1035 25.271V33.4325H29.1117L28.9857 25.271H28.1035Z" fill="#FCE9E0"/>
<path d="M33.0947 25.0542V33.5686L34.1282 33.1804L33.8408 24.9231L33.0947 25.0542Z" fill="#FCE9E0"/>
<path d="M35.9688 24.9233V33.5687L37.1736 33.4326V24.8325L35.9688 24.9233Z" fill="#FCE9E0"/>
<path d="M40.6716 24.9231V33.0645L39.8096 32.8578V25.0542L40.6716 24.9231Z" fill="#FCE9E0"/>
<path d="M6.66504 29.3191V32.122H8.69156V29.178L6.66504 29.3191Z" fill="#937F74"/>
<path d="M10.1992 29.178H12.1753V32.49H10.2849L10.1992 29.178Z" fill="#937F74"/>
<path d="M13.833 29.2939V32.49H15.7083V29.178L13.833 29.2939Z" fill="#937F74"/>
<path d="M18.3301 29.0066L18.4158 33.0647L20.2911 32.858V29.1175L18.3301 29.0066Z" fill="#937F74"/>
<path d="M22.0352 28.8755V32.5605H24.0365L23.9256 28.8755H22.0352Z" fill="#937F74"/>
<path d="M25.5645 29.0923V32.6967H27.5002V29.1175L25.5645 29.0923Z" fill="#937F74"/>
<path d="M30.2168 29.2486L30.3428 32.6967L32.1475 32.5606L31.9913 29.0923L30.2168 29.2486Z" fill="#937F74"/>
<path d="M33.7656 29.1174L33.8513 32.6966H35.5955V29.1779L33.7656 29.1174Z" fill="#937F74"/>
<path d="M37.4453 29.178V32.5606H39.0131V29.0923L37.4453 29.178Z" fill="#937F74"/>
<path d="M37.5723 27.338V28.4218L38.7771 28.3261V27.2725L37.5723 27.338Z" fill="#937F74"/>
<path d="M33.9219 27.2725L33.9622 28.4218H35.3334V27.2725H33.9219Z" fill="#937F74"/>
<path d="M31.9909 27.2725H30.3828V28.6084H31.9909V27.2725Z" fill="#937F74"/>
<path d="M22.3379 26.9951L22.4589 27.9378H23.457V26.8792L22.3379 26.9951Z" fill="#937F74"/>
<path d="M15.1644 27.2725H13.9395V28.4218H15.1644V27.2725Z" fill="#937F74"/>
<path d="M10.4355 27.2723V28.3258H11.6404V27.1311L10.4355 27.2723Z" fill="#937F74"/>
<path d="M6.8816 27.2723L6.7959 28.4216H8.21749V27.1311L6.8816 27.2723Z" fill="#937F74"/>
<path d="M1.94531 31.6077H44.6232V34.8693L1.94531 35.5296V31.6077Z" fill="#A5706F"/>
</g>
</svg>
