<svg id="Layer_1" data-name="Layer 1" xmlns="http://www.w3.org/2000/svg" viewBox="0 0 1920 188.44"><defs><style>.cls-1{fill:#f7b289;}.cls-2{fill:#937cb9;}.cls-3{fill:#fff;}.cls-4{fill:#395caa;}</style></defs><rect class="cls-1" x="6.32" y="15.27" width="1904.79" height="152.73"/><rect class="cls-2" x="-4.52" y="122.29" width="21.68" height="30.66"/><rect class="cls-3" x="-0.19" y="122.29" width="13.01" height="30.66"/><rect class="cls-4" x="5.78" y="122.29" width="1.08" height="30.66"/><rect class="cls-2" x="-4.52" y="91.63" width="21.68" height="30.66"/><rect class="cls-3" x="-0.19" y="91.63" width="13.01" height="30.66"/><rect class="cls-4" x="5.78" y="91.63" width="1.08" height="30.66"/><rect class="cls-2" x="-4.52" y="60.97" width="21.68" height="30.66"/><rect class="cls-3" x="-0.19" y="60.97" width="13.01" height="30.66"/><rect class="cls-4" x="5.78" y="60.97" width="1.08" height="30.66"/><rect class="cls-2" x="-4.52" y="30.31" width="21.68" height="30.66"/><rect class="cls-3" x="-0.19" y="30.31" width="13.01" height="30.66"/><rect class="cls-4" x="5.78" y="30.31" width="1.08" height="30.66"/><rect class="cls-2" x="21.36" y="4.42" width="27.57" height="21.68"/><rect class="cls-3" x="21.36" y="8.76" width="27.57" height="13.01"/><rect class="cls-4" x="21.36" y="14.72" width="27.57" height="1.08"/><rect class="cls-2" x="48.93" y="4.42" width="27.57" height="21.68"/><rect class="cls-3" x="48.93" y="8.76" width="27.57" height="13.01"/><rect class="cls-4" x="48.93" y="14.72" width="27.57" height="1.08"/><rect class="cls-2" x="76.5" y="4.42" width="27.57" height="21.68"/><rect class="cls-3" x="76.5" y="8.76" width="27.57" height="13.01"/><rect class="cls-4" x="76.5" y="14.72" width="27.57" height="1.08"/><rect class="cls-2" x="104.07" y="4.42" width="27.57" height="21.68"/><rect class="cls-3" x="104.07" y="8.76" width="27.57" height="13.01"/><rect class="cls-4" x="104.07" y="14.72" width="27.57" height="1.08"/><rect class="cls-2" x="131.64" y="4.42" width="27.57" height="21.68"/><rect class="cls-3" x="131.64" y="8.76" width="27.57" height="13.01"/><rect class="cls-4" x="131.64" y="14.72" width="27.57" height="1.08"/><rect class="cls-2" x="159.21" y="4.42" width="27.57" height="21.68"/><rect class="cls-3" x="159.21" y="8.76" width="27.57" height="13.01"/><rect class="cls-4" x="159.21" y="14.72" width="27.57" height="1.08"/><rect class="cls-2" x="186.78" y="4.42" width="27.57" height="21.68"/><rect class="cls-3" x="186.78" y="8.76" width="27.57" height="13.01"/><rect class="cls-4" x="186.78" y="14.72" width="27.57" height="1.08"/><rect class="cls-2" x="214.35" y="4.42" width="27.57" height="21.68"/><rect class="cls-3" x="214.35" y="8.76" width="27.57" height="13.01"/><rect class="cls-4" x="214.35" y="14.72" width="27.57" height="1.08"/><rect class="cls-2" x="241.92" y="4.42" width="27.57" height="21.68"/><rect class="cls-3" x="241.92" y="8.76" width="27.57" height="13.01"/><rect class="cls-4" x="241.92" y="14.72" width="27.57" height="1.08"/><rect class="cls-2" x="269.49" y="4.42" width="27.57" height="21.68"/><rect class="cls-3" x="269.49" y="8.76" width="27.57" height="13.01"/><rect class="cls-4" x="269.49" y="14.72" width="27.57" height="1.08"/><rect class="cls-2" x="297.06" y="4.42" width="27.57" height="21.68"/><rect class="cls-3" x="297.06" y="8.76" width="27.57" height="13.01"/><rect class="cls-4" x="297.06" y="14.72" width="27.57" height="1.08"/><rect class="cls-2" x="324.63" y="4.42" width="27.57" height="21.68"/><rect class="cls-3" x="324.63" y="8.76" width="27.57" height="13.01"/><rect class="cls-4" x="324.63" y="14.72" width="27.57" height="1.08"/><rect class="cls-2" x="352.19" y="4.42" width="27.57" height="21.68"/><rect class="cls-3" x="352.19" y="8.76" width="27.57" height="13.01"/><rect class="cls-4" x="352.19" y="14.72" width="27.57" height="1.08"/><rect class="cls-2" x="379.76" y="4.42" width="27.57" height="21.68"/><rect class="cls-3" x="379.76" y="8.76" width="27.57" height="13.01"/><rect class="cls-4" x="379.76" y="14.72" width="27.57" height="1.08"/><rect class="cls-2" x="407.33" y="4.42" width="27.57" height="21.68"/><rect class="cls-3" x="407.33" y="8.76" width="27.57" height="13.01"/><rect class="cls-4" x="407.33" y="14.72" width="27.57" height="1.08"/><rect class="cls-2" x="434.9" y="4.42" width="27.57" height="21.68"/><rect class="cls-3" x="434.9" y="8.76" width="27.57" height="13.01"/><rect class="cls-4" x="434.9" y="14.72" width="27.57" height="1.08"/><rect class="cls-2" x="462.47" y="4.42" width="27.57" height="21.68"/><rect class="cls-3" x="462.47" y="8.76" width="27.57" height="13.01"/><rect class="cls-4" x="462.47" y="14.72" width="27.57" height="1.08"/><rect class="cls-2" x="490.04" y="4.42" width="27.57" height="21.68"/><rect class="cls-3" x="490.04" y="8.76" width="27.57" height="13.01"/><rect class="cls-4" x="490.04" y="14.72" width="27.57" height="1.08"/><rect class="cls-2" x="517.61" y="4.42" width="27.57" height="21.68"/><rect class="cls-3" x="517.61" y="8.76" width="27.57" height="13.01"/><rect class="cls-4" x="517.61" y="14.72" width="27.57" height="1.08"/><rect class="cls-2" x="545.18" y="4.42" width="27.57" height="21.68"/><rect class="cls-3" x="545.18" y="8.76" width="27.57" height="13.01"/><rect class="cls-4" x="545.18" y="14.72" width="27.57" height="1.08"/><rect class="cls-2" x="572.75" y="4.42" width="27.57" height="21.68"/><rect class="cls-3" x="572.75" y="8.76" width="27.57" height="13.01"/><rect class="cls-4" x="572.75" y="14.72" width="27.57" height="1.08"/><rect class="cls-2" x="600.32" y="4.42" width="27.57" height="21.68"/><rect class="cls-3" x="600.32" y="8.76" width="27.57" height="13.01"/><rect class="cls-4" x="600.32" y="14.72" width="27.57" height="1.08"/><rect class="cls-2" x="627.89" y="4.42" width="27.57" height="21.68"/><rect class="cls-3" x="627.89" y="8.76" width="27.57" height="13.01"/><rect class="cls-4" x="627.89" y="14.72" width="27.57" height="1.08"/><rect class="cls-2" x="655.46" y="4.42" width="27.57" height="21.68"/><rect class="cls-3" x="655.46" y="8.76" width="27.57" height="13.01"/><rect class="cls-4" x="655.46" y="14.72" width="27.57" height="1.08"/><rect class="cls-2" x="683.02" y="4.42" width="27.57" height="21.68"/><rect class="cls-3" x="683.02" y="8.76" width="27.57" height="13.01"/><rect class="cls-4" x="683.02" y="14.72" width="27.57" height="1.08"/><rect class="cls-2" x="710.59" y="4.42" width="27.57" height="21.68"/><rect class="cls-3" x="710.59" y="8.76" width="27.57" height="13.01"/><rect class="cls-4" x="710.59" y="14.72" width="27.57" height="1.08"/><rect class="cls-2" x="738.16" y="4.42" width="27.57" height="21.68"/><rect class="cls-3" x="738.16" y="8.76" width="27.57" height="13.01"/><rect class="cls-4" x="738.16" y="14.72" width="27.57" height="1.08"/><rect class="cls-2" x="765.73" y="4.42" width="27.57" height="21.68"/><rect class="cls-3" x="765.73" y="8.76" width="27.57" height="13.01"/><rect class="cls-4" x="765.73" y="14.72" width="27.57" height="1.08"/><rect class="cls-2" x="793.3" y="4.42" width="27.57" height="21.68"/><rect class="cls-3" x="793.3" y="8.76" width="27.57" height="13.01"/><rect class="cls-4" x="793.3" y="14.72" width="27.57" height="1.08"/><rect class="cls-2" x="820.87" y="4.42" width="27.57" height="21.68"/><rect class="cls-3" x="820.87" y="8.76" width="27.57" height="13.01"/><rect class="cls-4" x="820.87" y="14.72" width="27.57" height="1.08"/><rect class="cls-2" x="848.44" y="4.42" width="27.57" height="21.68"/><rect class="cls-3" x="848.44" y="8.76" width="27.57" height="13.01"/><rect class="cls-4" x="848.44" y="14.72" width="27.57" height="1.08"/><rect class="cls-2" x="876.01" y="4.42" width="27.57" height="21.68"/><rect class="cls-3" x="876.01" y="8.76" width="27.57" height="13.01"/><rect class="cls-4" x="876.01" y="14.72" width="27.57" height="1.08"/><rect class="cls-2" x="903.58" y="4.42" width="27.57" height="21.68"/><rect class="cls-3" x="903.58" y="8.76" width="27.57" height="13.01"/><rect class="cls-4" x="903.58" y="14.72" width="27.57" height="1.08"/><rect class="cls-2" x="931.15" y="4.42" width="27.57" height="21.68"/><rect class="cls-3" x="931.15" y="8.76" width="27.57" height="13.01"/><rect class="cls-4" x="931.15" y="14.72" width="27.57" height="1.08"/><rect class="cls-2" x="958.72" y="4.42" width="27.57" height="21.68"/><rect class="cls-3" x="958.72" y="8.76" width="27.57" height="13.01"/><rect class="cls-4" x="958.72" y="14.72" width="27.57" height="1.08"/><rect class="cls-2" x="986.29" y="4.42" width="27.57" height="21.68"/><rect class="cls-3" x="986.29" y="8.76" width="27.57" height="13.01"/><rect class="cls-4" x="986.29" y="14.72" width="27.57" height="1.08"/><rect class="cls-2" x="1013.85" y="4.42" width="27.57" height="21.68"/><rect class="cls-3" x="1013.85" y="8.76" width="27.57" height="13.01"/><rect class="cls-4" x="1013.85" y="14.72" width="27.57" height="1.08"/><rect class="cls-2" x="1041.42" y="4.42" width="27.57" height="21.68"/><rect class="cls-3" x="1041.42" y="8.76" width="27.57" height="13.01"/><rect class="cls-4" x="1041.42" y="14.72" width="27.57" height="1.08"/><rect class="cls-2" x="1068.99" y="4.42" width="27.57" height="21.68"/><rect class="cls-3" x="1068.99" y="8.76" width="27.57" height="13.01"/><rect class="cls-4" x="1068.99" y="14.72" width="27.57" height="1.08"/><rect class="cls-2" x="1096.56" y="4.42" width="27.57" height="21.68"/><rect class="cls-3" x="1096.56" y="8.76" width="27.57" height="13.01"/><rect class="cls-4" x="1096.56" y="14.72" width="27.57" height="1.08"/><rect class="cls-2" x="1124.13" y="4.42" width="27.57" height="21.68"/><rect class="cls-3" x="1124.13" y="8.76" width="27.57" height="13.01"/><rect class="cls-4" x="1124.13" y="14.72" width="27.57" height="1.08"/><rect class="cls-2" x="1151.7" y="4.42" width="27.57" height="21.68"/><rect class="cls-3" x="1151.7" y="8.76" width="27.57" height="13.01"/><rect class="cls-4" x="1151.7" y="14.72" width="27.57" height="1.08"/><rect class="cls-2" x="1179.27" y="4.42" width="27.57" height="21.68"/><rect class="cls-3" x="1179.27" y="8.76" width="27.57" height="13.01"/><rect class="cls-4" x="1179.27" y="14.72" width="27.57" height="1.08"/><rect class="cls-2" x="1206.84" y="4.42" width="27.57" height="21.68"/><rect class="cls-3" x="1206.84" y="8.76" width="27.57" height="13.01"/><rect class="cls-4" x="1206.84" y="14.72" width="27.57" height="1.08"/><rect class="cls-2" x="1234.41" y="4.42" width="27.57" height="21.68"/><rect class="cls-3" x="1234.41" y="8.76" width="27.57" height="13.01"/><rect class="cls-4" x="1234.41" y="14.72" width="27.57" height="1.08"/><rect class="cls-2" x="1261.98" y="4.42" width="27.57" height="21.68"/><rect class="cls-3" x="1261.98" y="8.76" width="27.57" height="13.01"/><rect class="cls-4" x="1261.98" y="14.72" width="27.57" height="1.08"/><rect class="cls-2" x="1289.55" y="4.42" width="27.57" height="21.68"/><rect class="cls-3" x="1289.55" y="8.76" width="27.57" height="13.01"/><rect class="cls-4" x="1289.55" y="14.72" width="27.57" height="1.08"/><rect class="cls-2" x="1317.12" y="4.42" width="27.57" height="21.68"/><rect class="cls-3" x="1317.12" y="8.76" width="27.57" height="13.01"/><rect class="cls-4" x="1317.12" y="14.72" width="27.57" height="1.08"/><rect class="cls-2" x="1344.69" y="4.42" width="27.57" height="21.68"/><rect class="cls-3" x="1344.69" y="8.76" width="27.57" height="13.01"/><rect class="cls-4" x="1344.69" y="14.72" width="27.57" height="1.08"/><rect class="cls-2" x="1372.25" y="4.42" width="27.57" height="21.68"/><rect class="cls-3" x="1372.25" y="8.76" width="27.57" height="13.01"/><rect class="cls-4" x="1372.25" y="14.72" width="27.57" height="1.08"/><rect class="cls-2" x="1399.82" y="4.42" width="27.57" height="21.68"/><rect class="cls-3" x="1399.82" y="8.76" width="27.57" height="13.01"/><rect class="cls-4" x="1399.82" y="14.72" width="27.57" height="1.08"/><rect class="cls-2" x="1427.39" y="4.42" width="27.57" height="21.68"/><rect class="cls-3" x="1427.39" y="8.76" width="27.57" height="13.01"/><rect class="cls-4" x="1427.39" y="14.72" width="27.57" height="1.08"/><rect class="cls-2" x="1454.96" y="4.42" width="27.57" height="21.68"/><rect class="cls-3" x="1454.96" y="8.76" width="27.57" height="13.01"/><rect class="cls-4" x="1454.96" y="14.72" width="27.57" height="1.08"/><rect class="cls-2" x="1482.53" y="4.42" width="27.57" height="21.68"/><rect class="cls-3" x="1482.53" y="8.76" width="27.57" height="13.01"/><rect class="cls-4" x="1482.53" y="14.72" width="27.57" height="1.08"/><rect class="cls-2" x="1510.1" y="4.42" width="27.57" height="21.68"/><rect class="cls-3" x="1510.1" y="8.76" width="27.57" height="13.01"/><rect class="cls-4" x="1510.1" y="14.72" width="27.57" height="1.08"/><rect class="cls-2" x="1537.67" y="4.42" width="27.57" height="21.68"/><rect class="cls-3" x="1537.67" y="8.76" width="27.57" height="13.01"/><rect class="cls-4" x="1537.67" y="14.72" width="27.57" height="1.08"/><rect class="cls-2" x="1565.24" y="4.42" width="27.57" height="21.68"/><rect class="cls-3" x="1565.24" y="8.76" width="27.57" height="13.01"/><rect class="cls-4" x="1565.24" y="14.72" width="27.57" height="1.08"/><rect class="cls-2" x="1592.81" y="4.42" width="27.57" height="21.68"/><rect class="cls-3" x="1592.81" y="8.76" width="27.57" height="13.01"/><rect class="cls-4" x="1592.81" y="14.72" width="27.57" height="1.08"/><rect class="cls-2" x="1620.38" y="4.42" width="27.57" height="21.68"/><rect class="cls-3" x="1620.38" y="8.76" width="27.57" height="13.01"/><rect class="cls-4" x="1620.38" y="14.72" width="27.57" height="1.08"/><rect class="cls-2" x="1647.95" y="4.42" width="27.57" height="21.68"/><rect class="cls-3" x="1647.95" y="8.76" width="27.57" height="13.01"/><rect class="cls-4" x="1647.95" y="14.72" width="27.57" height="1.08"/><rect class="cls-2" x="1675.52" y="4.42" width="27.57" height="21.68"/><rect class="cls-3" x="1675.52" y="8.76" width="27.57" height="13.01"/><rect class="cls-4" x="1675.52" y="14.72" width="27.57" height="1.08"/><rect class="cls-2" x="1703.08" y="4.42" width="27.57" height="21.68"/><rect class="cls-3" x="1703.08" y="8.76" width="27.57" height="13.01"/><rect class="cls-4" x="1703.08" y="14.72" width="27.57" height="1.08"/><rect class="cls-2" x="1730.65" y="4.42" width="27.57" height="21.68"/><rect class="cls-3" x="1730.65" y="8.76" width="27.57" height="13.01"/><rect class="cls-4" x="1730.65" y="14.72" width="27.57" height="1.08"/><rect class="cls-2" x="1758.22" y="4.42" width="27.57" height="21.68"/><rect class="cls-3" x="1758.22" y="8.76" width="27.57" height="13.01"/><rect class="cls-4" x="1758.22" y="14.72" width="27.57" height="1.08"/><rect class="cls-2" x="1785.79" y="4.42" width="27.57" height="21.68"/><rect class="cls-3" x="1785.79" y="8.76" width="27.57" height="13.01"/><rect class="cls-4" x="1785.79" y="14.72" width="27.57" height="1.08"/><rect class="cls-2" x="1813.36" y="4.42" width="27.57" height="21.68"/><rect class="cls-3" x="1813.36" y="8.76" width="27.57" height="13.01"/><rect class="cls-4" x="1813.36" y="14.72" width="27.57" height="1.08"/><rect class="cls-2" x="1840.93" y="4.42" width="27.57" height="21.68"/><rect class="cls-3" x="1840.93" y="8.76" width="27.57" height="13.01"/><rect class="cls-4" x="1840.93" y="14.72" width="27.57" height="1.08"/><rect class="cls-2" x="1868.5" y="4.42" width="27.57" height="21.68"/><rect class="cls-3" x="1868.5" y="8.76" width="27.57" height="13.01"/><rect class="cls-4" x="1868.5" y="14.72" width="27.57" height="1.08"/><rect class="cls-2" x="1900.27" y="30.31" width="21.68" height="30.66"/><rect class="cls-3" x="1904.61" y="30.31" width="13.01" height="30.66"/><rect class="cls-4" x="1910.57" y="30.31" width="1.08" height="30.66"/><rect class="cls-2" x="1900.27" y="60.97" width="21.68" height="30.66"/><rect class="cls-3" x="1904.61" y="60.97" width="13.01" height="30.66"/><rect class="cls-4" x="1910.57" y="60.97" width="1.08" height="30.66"/><rect class="cls-2" x="1900.27" y="91.63" width="21.68" height="30.66"/><rect class="cls-3" x="1904.61" y="91.63" width="13.01" height="30.66"/><rect class="cls-4" x="1910.57" y="91.63" width="1.08" height="30.66"/><rect class="cls-2" x="1900.27" y="122.3" width="21.68" height="30.66"/><rect class="cls-3" x="1904.61" y="122.3" width="13.01" height="30.66"/><rect class="cls-4" x="1910.57" y="122.3" width="1.08" height="30.66"/><rect class="cls-2" x="1868.49" y="157.16" width="27.57" height="21.68"/><rect class="cls-3" x="1868.49" y="161.5" width="27.57" height="13.01"/><rect class="cls-4" x="1868.49" y="167.46" width="27.57" height="1.08"/><rect class="cls-2" x="1840.92" y="157.16" width="27.57" height="21.68"/><rect class="cls-3" x="1840.92" y="161.5" width="27.57" height="13.01"/><rect class="cls-4" x="1840.92" y="167.46" width="27.57" height="1.08"/><rect class="cls-2" x="1813.35" y="157.16" width="27.57" height="21.68"/><rect class="cls-3" x="1813.35" y="161.5" width="27.57" height="13.01"/><rect class="cls-4" x="1813.35" y="167.46" width="27.57" height="1.08"/><rect class="cls-2" x="1785.79" y="157.16" width="27.57" height="21.68"/><rect class="cls-3" x="1785.79" y="161.5" width="27.57" height="13.01"/><rect class="cls-4" x="1785.79" y="167.46" width="27.57" height="1.08"/><rect class="cls-2" x="1758.22" y="157.16" width="27.57" height="21.68"/><rect class="cls-3" x="1758.22" y="161.5" width="27.57" height="13.01"/><rect class="cls-4" x="1758.22" y="167.46" width="27.57" height="1.08"/><rect class="cls-2" x="1730.65" y="157.16" width="27.57" height="21.68"/><rect class="cls-3" x="1730.65" y="161.5" width="27.57" height="13.01"/><rect class="cls-4" x="1730.65" y="167.46" width="27.57" height="1.08"/><rect class="cls-2" x="1703.08" y="157.16" width="27.57" height="21.68"/><rect class="cls-3" x="1703.08" y="161.5" width="27.57" height="13.01"/><rect class="cls-4" x="1703.08" y="167.46" width="27.57" height="1.08"/><rect class="cls-2" x="1675.51" y="157.16" width="27.57" height="21.68"/><rect class="cls-3" x="1675.51" y="161.5" width="27.57" height="13.01"/><rect class="cls-4" x="1675.51" y="167.46" width="27.57" height="1.08"/><rect class="cls-2" x="1647.94" y="157.16" width="27.57" height="21.68"/><rect class="cls-3" x="1647.94" y="161.5" width="27.57" height="13.01"/><rect class="cls-4" x="1647.94" y="167.46" width="27.57" height="1.08"/><rect class="cls-2" x="1620.37" y="157.16" width="27.57" height="21.68"/><rect class="cls-3" x="1620.37" y="161.5" width="27.57" height="13.01"/><rect class="cls-4" x="1620.37" y="167.46" width="27.57" height="1.08"/><rect class="cls-2" x="1592.8" y="157.16" width="27.57" height="21.68"/><rect class="cls-3" x="1592.8" y="161.5" width="27.57" height="13.01"/><rect class="cls-4" x="1592.8" y="167.46" width="27.57" height="1.08"/><rect class="cls-2" x="1565.23" y="157.16" width="27.57" height="21.68"/><rect class="cls-3" x="1565.23" y="161.5" width="27.57" height="13.01"/><rect class="cls-4" x="1565.23" y="167.46" width="27.57" height="1.08"/><rect class="cls-2" x="1537.66" y="157.16" width="27.57" height="21.68"/><rect class="cls-3" x="1537.66" y="161.5" width="27.57" height="13.01"/><rect class="cls-4" x="1537.66" y="167.46" width="27.57" height="1.08"/><rect class="cls-2" x="1510.09" y="157.16" width="27.57" height="21.68"/><rect class="cls-3" x="1510.09" y="161.5" width="27.57" height="13.01"/><rect class="cls-4" x="1510.09" y="167.46" width="27.57" height="1.08"/><rect class="cls-2" x="1482.52" y="157.16" width="27.57" height="21.68"/><rect class="cls-3" x="1482.52" y="161.5" width="27.57" height="13.01"/><rect class="cls-4" x="1482.52" y="167.46" width="27.57" height="1.08"/><rect class="cls-2" x="1454.96" y="157.16" width="27.57" height="21.68"/><rect class="cls-3" x="1454.96" y="161.5" width="27.57" height="13.01"/><rect class="cls-4" x="1454.96" y="167.46" width="27.57" height="1.08"/><rect class="cls-2" x="1427.39" y="157.16" width="27.57" height="21.68"/><rect class="cls-3" x="1427.39" y="161.5" width="27.57" height="13.01"/><rect class="cls-4" x="1427.39" y="167.46" width="27.57" height="1.08"/><rect class="cls-2" x="1399.82" y="157.16" width="27.57" height="21.68"/><rect class="cls-3" x="1399.82" y="161.5" width="27.57" height="13.01"/><rect class="cls-4" x="1399.82" y="167.46" width="27.57" height="1.08"/><rect class="cls-2" x="1372.25" y="157.16" width="27.57" height="21.68"/><rect class="cls-3" x="1372.25" y="161.5" width="27.57" height="13.01"/><rect class="cls-4" x="1372.25" y="167.46" width="27.57" height="1.08"/><rect class="cls-2" x="1344.68" y="157.16" width="27.57" height="21.68"/><rect class="cls-3" x="1344.68" y="161.5" width="27.57" height="13.01"/><rect class="cls-4" x="1344.68" y="167.46" width="27.57" height="1.08"/><rect class="cls-2" x="1317.11" y="157.16" width="27.57" height="21.68"/><rect class="cls-3" x="1317.11" y="161.5" width="27.57" height="13.01"/><rect class="cls-4" x="1317.11" y="167.46" width="27.57" height="1.08"/><rect class="cls-2" x="1289.54" y="157.16" width="27.57" height="21.68"/><rect class="cls-3" x="1289.54" y="161.5" width="27.57" height="13.01"/><rect class="cls-4" x="1289.54" y="167.46" width="27.57" height="1.08"/><rect class="cls-2" x="1261.97" y="157.16" width="27.57" height="21.68"/><rect class="cls-3" x="1261.97" y="161.5" width="27.57" height="13.01"/><rect class="cls-4" x="1261.97" y="167.46" width="27.57" height="1.08"/><rect class="cls-2" x="1234.4" y="157.16" width="27.57" height="21.68"/><rect class="cls-3" x="1234.4" y="161.5" width="27.57" height="13.01"/><rect class="cls-4" x="1234.4" y="167.46" width="27.57" height="1.08"/><rect class="cls-2" x="1206.83" y="157.16" width="27.57" height="21.68"/><rect class="cls-3" x="1206.83" y="161.5" width="27.57" height="13.01"/><rect class="cls-4" x="1206.83" y="167.46" width="27.57" height="1.08"/><rect class="cls-2" x="1179.26" y="157.16" width="27.57" height="21.68"/><rect class="cls-3" x="1179.26" y="161.5" width="27.57" height="13.01"/><rect class="cls-4" x="1179.26" y="167.46" width="27.57" height="1.08"/><rect class="cls-2" x="1151.69" y="157.16" width="27.57" height="21.68"/><rect class="cls-3" x="1151.69" y="161.5" width="27.57" height="13.01"/><rect class="cls-4" x="1151.69" y="167.46" width="27.57" height="1.08"/><rect class="cls-2" x="1124.13" y="157.16" width="27.57" height="21.68"/><rect class="cls-3" x="1124.13" y="161.5" width="27.57" height="13.01"/><rect class="cls-4" x="1124.13" y="167.46" width="27.57" height="1.08"/><rect class="cls-2" x="1096.56" y="157.16" width="27.57" height="21.68"/><rect class="cls-3" x="1096.56" y="161.5" width="27.57" height="13.01"/><rect class="cls-4" x="1096.56" y="167.46" width="27.57" height="1.08"/><rect class="cls-2" x="1068.99" y="157.16" width="27.57" height="21.68"/><rect class="cls-3" x="1068.99" y="161.5" width="27.57" height="13.01"/><rect class="cls-4" x="1068.99" y="167.46" width="27.57" height="1.08"/><rect class="cls-2" x="1041.42" y="157.16" width="27.57" height="21.68"/><rect class="cls-3" x="1041.42" y="161.5" width="27.57" height="13.01"/><rect class="cls-4" x="1041.42" y="167.46" width="27.57" height="1.08"/><rect class="cls-2" x="1013.85" y="157.16" width="27.57" height="21.68"/><rect class="cls-3" x="1013.85" y="161.5" width="27.57" height="13.01"/><rect class="cls-4" x="1013.85" y="167.46" width="27.57" height="1.08"/><rect class="cls-2" x="986.28" y="157.16" width="27.57" height="21.68"/><rect class="cls-3" x="986.28" y="161.5" width="27.57" height="13.01"/><rect class="cls-4" x="986.28" y="167.46" width="27.57" height="1.08"/><rect class="cls-2" x="958.71" y="157.16" width="27.57" height="21.68"/><rect class="cls-3" x="958.71" y="161.5" width="27.57" height="13.01"/><rect class="cls-4" x="958.71" y="167.46" width="27.57" height="1.08"/><rect class="cls-2" x="931.14" y="157.16" width="27.57" height="21.68"/><rect class="cls-3" x="931.14" y="161.5" width="27.57" height="13.01"/><rect class="cls-4" x="931.14" y="167.46" width="27.57" height="1.08"/><rect class="cls-2" x="903.57" y="157.16" width="27.57" height="21.68"/><rect class="cls-3" x="903.57" y="161.5" width="27.57" height="13.01"/><rect class="cls-4" x="903.57" y="167.46" width="27.57" height="1.08"/><rect class="cls-2" x="876" y="157.16" width="27.57" height="21.68"/><rect class="cls-3" x="876" y="161.5" width="27.57" height="13.01"/><rect class="cls-4" x="876" y="167.46" width="27.57" height="1.08"/><rect class="cls-2" x="848.43" y="157.16" width="27.57" height="21.68"/><rect class="cls-3" x="848.43" y="161.5" width="27.57" height="13.01"/><rect class="cls-4" x="848.43" y="167.46" width="27.57" height="1.08"/><rect class="cls-2" x="820.86" y="157.16" width="27.57" height="21.68"/><rect class="cls-3" x="820.86" y="161.5" width="27.57" height="13.01"/><rect class="cls-4" x="820.86" y="167.46" width="27.57" height="1.08"/><rect class="cls-2" x="793.3" y="157.16" width="27.57" height="21.68"/><rect class="cls-3" x="793.3" y="161.5" width="27.57" height="13.01"/><rect class="cls-4" x="793.3" y="167.46" width="27.57" height="1.08"/><rect class="cls-2" x="765.73" y="157.16" width="27.57" height="21.68"/><rect class="cls-3" x="765.73" y="161.5" width="27.57" height="13.01"/><rect class="cls-4" x="765.73" y="167.46" width="27.57" height="1.08"/><rect class="cls-2" x="738.16" y="157.16" width="27.57" height="21.68"/><rect class="cls-3" x="738.16" y="161.5" width="27.57" height="13.01"/><rect class="cls-4" x="738.16" y="167.46" width="27.57" height="1.08"/><rect class="cls-2" x="710.59" y="157.16" width="27.57" height="21.68"/><rect class="cls-3" x="710.59" y="161.5" width="27.57" height="13.01"/><rect class="cls-4" x="710.59" y="167.46" width="27.57" height="1.08"/><rect class="cls-2" x="683.02" y="157.16" width="27.57" height="21.68"/><rect class="cls-3" x="683.02" y="161.5" width="27.57" height="13.01"/><rect class="cls-4" x="683.02" y="167.46" width="27.57" height="1.08"/><rect class="cls-2" x="655.45" y="157.16" width="27.57" height="21.68"/><rect class="cls-3" x="655.45" y="161.5" width="27.57" height="13.01"/><rect class="cls-4" x="655.45" y="167.46" width="27.57" height="1.08"/><rect class="cls-2" x="627.88" y="157.16" width="27.57" height="21.68"/><rect class="cls-3" x="627.88" y="161.5" width="27.57" height="13.01"/><rect class="cls-4" x="627.88" y="167.46" width="27.57" height="1.08"/><rect class="cls-2" x="600.31" y="157.16" width="27.57" height="21.68"/><rect class="cls-3" x="600.31" y="161.5" width="27.57" height="13.01"/><rect class="cls-4" x="600.31" y="167.46" width="27.57" height="1.08"/><rect class="cls-2" x="572.74" y="157.16" width="27.57" height="21.68"/><rect class="cls-3" x="572.74" y="161.5" width="27.57" height="13.01"/><rect class="cls-4" x="572.74" y="167.46" width="27.57" height="1.08"/><rect class="cls-2" x="545.17" y="157.16" width="27.57" height="21.68"/><rect class="cls-3" x="545.17" y="161.5" width="27.57" height="13.01"/><rect class="cls-4" x="545.17" y="167.46" width="27.57" height="1.08"/><rect class="cls-2" x="517.6" y="157.16" width="27.57" height="21.68"/><rect class="cls-3" x="517.6" y="161.5" width="27.57" height="13.01"/><rect class="cls-4" x="517.6" y="167.46" width="27.57" height="1.08"/><rect class="cls-2" x="490.03" y="157.16" width="27.57" height="21.68"/><rect class="cls-3" x="490.03" y="161.5" width="27.57" height="13.01"/><rect class="cls-4" x="490.03" y="167.46" width="27.57" height="1.08"/><rect class="cls-2" x="462.47" y="157.16" width="27.57" height="21.68"/><rect class="cls-3" x="462.47" y="161.5" width="27.57" height="13.01"/><rect class="cls-4" x="462.47" y="167.46" width="27.57" height="1.08"/><rect class="cls-2" x="434.9" y="157.16" width="27.57" height="21.68"/><rect class="cls-3" x="434.9" y="161.5" width="27.57" height="13.01"/><rect class="cls-4" x="434.9" y="167.46" width="27.57" height="1.08"/><rect class="cls-2" x="407.33" y="157.16" width="27.57" height="21.68"/><rect class="cls-3" x="407.33" y="161.5" width="27.57" height="13.01"/><rect class="cls-4" x="407.33" y="167.46" width="27.57" height="1.08"/><rect class="cls-2" x="379.76" y="157.16" width="27.57" height="21.68"/><rect class="cls-3" x="379.76" y="161.5" width="27.57" height="13.01"/><rect class="cls-4" x="379.76" y="167.46" width="27.57" height="1.08"/><rect class="cls-2" x="352.19" y="157.16" width="27.57" height="21.68"/><rect class="cls-3" x="352.19" y="161.5" width="27.57" height="13.01"/><rect class="cls-4" x="352.19" y="167.46" width="27.57" height="1.08"/><rect class="cls-2" x="324.62" y="157.16" width="27.57" height="21.68"/><rect class="cls-3" x="324.62" y="161.5" width="27.57" height="13.01"/><rect class="cls-4" x="324.62" y="167.46" width="27.57" height="1.08"/><rect class="cls-2" x="297.05" y="157.16" width="27.57" height="21.68"/><rect class="cls-3" x="297.05" y="161.5" width="27.57" height="13.01"/><rect class="cls-4" x="297.05" y="167.46" width="27.57" height="1.08"/><rect class="cls-2" x="269.48" y="157.16" width="27.57" height="21.68"/><rect class="cls-3" x="269.48" y="161.5" width="27.57" height="13.01"/><rect class="cls-4" x="269.48" y="167.46" width="27.57" height="1.08"/><rect class="cls-2" x="241.91" y="157.16" width="27.57" height="21.68"/><rect class="cls-3" x="241.91" y="161.5" width="27.57" height="13.01"/><rect class="cls-4" x="241.91" y="167.46" width="27.57" height="1.08"/><rect class="cls-2" x="214.34" y="157.16" width="27.57" height="21.68"/><rect class="cls-3" x="214.34" y="161.5" width="27.57" height="13.01"/><rect class="cls-4" x="214.34" y="167.46" width="27.57" height="1.08"/><rect class="cls-2" x="186.77" y="157.16" width="27.57" height="21.68"/><rect class="cls-3" x="186.77" y="161.5" width="27.57" height="13.01"/><rect class="cls-4" x="186.77" y="167.46" width="27.57" height="1.08"/><rect class="cls-2" x="159.2" y="157.16" width="27.57" height="21.68"/><rect class="cls-3" x="159.2" y="161.5" width="27.57" height="13.01"/><rect class="cls-4" x="159.2" y="167.46" width="27.57" height="1.08"/><rect class="cls-2" x="131.64" y="157.16" width="27.57" height="21.68"/><rect class="cls-3" x="131.64" y="161.5" width="27.57" height="13.01"/><rect class="cls-4" x="131.64" y="167.46" width="27.57" height="1.08"/><rect class="cls-2" x="104.07" y="157.16" width="27.57" height="21.68"/><rect class="cls-3" x="104.07" y="161.5" width="27.57" height="13.01"/><rect class="cls-4" x="104.07" y="167.46" width="27.57" height="1.08"/><rect class="cls-2" x="76.5" y="157.16" width="27.57" height="21.68"/><rect class="cls-3" x="76.5" y="161.5" width="27.57" height="13.01"/><rect class="cls-4" x="76.5" y="167.46" width="27.57" height="1.08"/><rect class="cls-2" x="48.93" y="157.16" width="27.57" height="21.68"/><rect class="cls-3" x="48.93" y="161.5" width="27.57" height="13.01"/><rect class="cls-4" x="48.93" y="167.46" width="27.57" height="1.08"/><rect class="cls-2" x="21.36" y="157.16" width="27.57" height="21.68"/><rect class="cls-3" x="21.36" y="161.5" width="27.57" height="13.01"/><rect class="cls-4" x="21.36" y="167.46" width="27.57" height="1.08"/><polygon class="cls-2" points="21.37 4.42 -4.52 4.42 -4.52 30.27 17.16 30.27 17.16 26.11 21.37 26.11 21.37 4.42"/><polygon class="cls-3" points="21.37 8.76 -0.19 8.76 -0.19 30.27 12.82 30.27 12.82 21.77 21.37 21.77 21.37 8.76"/><polygon class="cls-4" points="21.37 14.72 5.78 14.72 5.78 30.27 6.86 30.27 6.86 15.81 21.37 15.81 21.37 14.72"/><polygon class="cls-2" points="1921.95 30.32 1921.95 4.42 1896.1 4.42 1896.1 26.11 1900.27 26.11 1900.27 30.32 1921.95 30.32"/><polygon class="cls-3" points="1917.62 30.32 1917.62 8.76 1896.1 8.76 1896.1 21.77 1904.61 21.77 1904.61 30.32 1917.62 30.32"/><polygon class="cls-4" points="1911.65 30.32 1911.65 14.72 1896.1 14.72 1896.1 15.81 1910.57 15.81 1910.57 30.32 1911.65 30.32"/><polygon class="cls-2" points="1896.06 178.84 1921.95 178.84 1921.95 152.99 1900.27 152.99 1900.27 157.16 1896.06 157.16 1896.06 178.84"/><polygon class="cls-3" points="1896.06 174.5 1917.62 174.5 1917.62 152.99 1904.61 152.99 1904.61 161.49 1896.06 161.49 1896.06 174.5"/><polygon class="cls-4" points="1896.06 168.54 1911.65 168.54 1911.65 152.99 1910.57 152.99 1910.57 167.46 1896.06 167.46 1896.06 168.54"/><polygon class="cls-2" points="-4.52 152.95 -4.52 178.84 21.33 178.84 21.33 157.16 17.16 157.16 17.16 152.95 -4.52 152.95"/><polygon class="cls-3" points="-0.18 152.95 -0.18 174.5 21.33 174.5 21.33 161.5 12.82 161.5 12.82 152.95 -0.18 152.95"/><polygon class="cls-4" points="5.78 152.95 5.78 168.54 21.33 168.54 21.33 167.46 6.86 167.46 6.86 152.95 5.78 152.95"/></svg>