<svg id="Layer_1" data-name="Layer 1" xmlns="http://www.w3.org/2000/svg" viewBox="0 0 326.14 153.78"><defs><style>.cls-1{fill:#f3df8c;}.cls-2{fill:#f7b289;}.cls-3{fill:#cc2f46;}</style></defs><rect class="cls-1" x="27.51" y="18.52" width="271.11" height="116.74" rx="12.3"/><path class="cls-2" d="M286.33,137.26H39.81A14.32,14.32,0,0,1,25.51,123V30.81a14.31,14.31,0,0,1,14.3-14.29H286.33a14.31,14.31,0,0,1,14.29,14.29V123A14.31,14.31,0,0,1,286.33,137.26ZM39.81,20.52a10.31,10.31,0,0,0-10.3,10.29V123a10.31,10.31,0,0,0,10.3,10.3H286.33A10.31,10.31,0,0,0,296.62,123V30.81a10.31,10.31,0,0,0-10.29-10.29Z"/><path class="cls-3" d="M111.09,57.37h13.75q6.39,0,9.59,1.73a6.08,6.08,0,0,1,3.2,5.82q0,6.3-7.59,7.54v.09q9.19,1.15,9.2,8,0,5-3.77,7t-10.86,2H111.09V88.7h3V58.25h-3Zm12,.88V72.42h1.19A3.69,3.69,0,0,0,127.58,71a8.29,8.29,0,0,0,.94-4.44V64.37a9.74,9.74,0,0,0-.83-4.77c-.55-.9-1.61-1.35-3.17-1.35Zm0,15V88.7h2.16A3.73,3.73,0,0,0,128.75,87a10.4,10.4,0,0,0,1-5.15V79.36a7.06,7.06,0,0,0-1.24-4.55c-.83-1-2.3-1.52-4.41-1.52Z"/><path class="cls-3" d="M144.21,87.09c-2-2-3-4.78-3-8.44s1.05-6.49,3.15-8.46,5.06-3,8.86-3,6.64.91,8.51,2.74,2.81,4.6,2.81,8.34Q164.59,90,152.9,90,147.15,90,144.21,87.09Zm11.54-6.58V76.6a31.54,31.54,0,0,0-.48-6.51c-.32-1.36-1.07-2-2.23-2a2.3,2.3,0,0,0-1.63.57,3.45,3.45,0,0,0-.9,1.91,34.69,34.69,0,0,0-.41,6.3v3.59a33.15,33.15,0,0,0,.29,6A9.91,9.91,0,0,0,151,88.1a1.94,1.94,0,0,0,2,1.11,2.35,2.35,0,0,0,2.35-2.07A31.61,31.61,0,0,0,155.75,80.51Z"/><path class="cls-3" d="M181.51,89.57l-.5-3.22c-1,2.46-3.16,3.68-6.35,3.68a7.28,7.28,0,0,1-6.14-2.85q-2.19-2.85-2.19-8.51,0-11.44,9.11-11.45,4,0,5.34,2.25V55.9H178v-.83h11.5V88.75h2.25v.82Zm-5.79-3.1a1.9,1.9,0,0,0,1.86,1.59,3,3,0,0,0,2.35-1.2,5.51,5.51,0,0,0,1-3.54v-10a6.73,6.73,0,0,0-.78-3.36,2.5,2.5,0,0,0-2.3-1.38c-1,0-1.7.68-2.07,2a31.29,31.29,0,0,0-.55,7.08v2.39A25.56,25.56,0,0,0,175.72,86.47Z"/><path class="cls-3" d="M191.77,68.51v-.83h13.34v.83h-2.48l5,15.27L213,68.51h-3.09v-.83h6.49v.83h-2.3l-8.6,24.79a15.06,15.06,0,0,1-3.4,6,7.45,7.45,0,0,1-8.88.48,3.86,3.86,0,0,1-1.57-3.17,4,4,0,0,1,1-3,3.64,3.64,0,0,1,2.67-1q3.83,0,3.82,3.18a6.25,6.25,0,0,1-.27,1.65h-1.62a2.56,2.56,0,0,0-.09,1.75,1.19,1.19,0,0,0,1.24.69,4.24,4.24,0,0,0,3.36-1.86,20.14,20.14,0,0,0,2.81-5.68l1-2.86h-4l-7.86-21.06Z"/></svg>