<svg id="Layer_1" data-name="Layer 1" xmlns="http://www.w3.org/2000/svg" viewBox="0 0 499.56 600.89"><defs><style>.cls-1,.cls-2{fill:#a8dcc6;}.cls-2{opacity:0.63;}</style></defs><path class="cls-1" d="M99.45,48c4.93,4.11,115.88,81.36,118.34,91.22s-30.4,59.17-41.09,66.57-81.36,41.09-87.93,56.71-16.44,115.05-22.19,143-17.26,64.1,0,44.38S134.79,344.71,143,343.06s29.58-15.61,37.8-7.39S200.53,451.54,203,509.89s-2.47,90.4,9.86,75.61S261.35,408,269.57,378.4s-2.47-63.28,11.09-88.75,46.43-53.42,54.65-48.49,115.88,64.1,125.74,65.74-83-63.28-92-78.07-1.65-36.16-27.12-49.31-37-45.2-55.89-58.35-166-74-176.69-77.25S99.45,48,99.45,48Z"/><ellipse class="cls-1" cx="355.45" cy="120.35" rx="46.84" ry="39.04" transform="translate(45.23 331.52) rotate(-52.95)"/><path class="cls-2" d="M127.39,83.37c1.65-6.58,9.86-37,17.26-37S272.72,102.7,277,110.49s54.79,61.91,64.93,69,37.18,39.45,47.66,58.35,58.29,37.66,55.06,44.38-4.1,27.94-19.72,23.83S341.07,243.62,329.56,251s-48.49,47.07-48.9,55.59,7.73,47.1,0,47.14-163.47-103.6-167-112.2,40.85-40.66,49.89-48.06,24.66-10.68-2.46-57.52S127.39,83.37,127.39,83.37Z"/></svg>