<?xml version="1.0" encoding="utf-8"?>
<!-- Generator: Adobe Illustrator 25.3.0, SVG Export Plug-In . SVG Version: 6.00 Build 0)  -->
<svg version="1.1" id="Layer_1" xmlns="http://www.w3.org/2000/svg" xmlns:xlink="http://www.w3.org/1999/xlink" x="0px" y="0px"
	 viewBox="0 0 359 430.2" style="enable-background:new 0 0 359 430.2;" xml:space="preserve">
<style type="text/css">
	.st0{fill:#A8DCC6;}
	.st1{opacity:0.63;fill:#A8DCC6;enable-background:new    ;}
</style>
<path class="st0" d="M82,37.5c3.5,2.9,81.6,57.3,83.3,64.3c1.7,7-21.4,41.6-28.9,46.8c-7.5,5.2-57.3,28.9-61.9,39.9
	c-4.6,11-11.6,81-15.6,100.7c-4,19.7-12.1,45.1,0,31.2s48-74.1,53.8-75.2c5.8-1.2,20.8-11,26.6-5.2s13.9,81.6,15.6,122.6
	c1.7,41-1.7,63.7,6.9,53.2c8.7-10.4,34.1-124.9,39.9-145.7c5.8-20.8-1.7-44.5,7.8-62.5c9.5-17.9,32.7-37.6,38.5-34.1
	c5.8,3.5,81.6,45.1,88.5,46.3c6.9,1.2-58.5-44.5-64.8-55c-6.3-10.4-1.2-25.4-19.1-34.7s-26-31.8-39.3-41S96.4,37.1,88.9,34.8
	C81.4,32.4,82,37.5,82,37.5z"/>
<ellipse transform="matrix(0.6025 -0.7981 0.7981 0.6025 33.6619 244.4305)" class="st0" cx="262.2" cy="88.4" rx="32.9" ry="27.5"/>
<path class="st1" d="M101.7,62.4c1.2-4.6,6.9-26,12.1-26c5.2,0,90.1,39.7,93.2,45.1c3.1,5.5,38.6,43.6,45.7,48.6
	c7.2,4.9,26.2,27.7,33.5,41c7.3,13.3,41,26.5,38.7,31.2c-2.3,4.7-2.9,19.6-13.9,16.8c-11-2.9-59.1-43.9-67.2-38.7
	c-8.1,5.2-34.1,33.1-34.4,39.2c-0.3,6,5.5,33.2,0,33.2c-5.5,0-115.1-73-117.6-79c-2.5-6.1,28.8-28.6,35.2-33.8
	c6.4-5.2,17.3-7.5-1.7-40.5S101.7,62.4,101.7,62.4z"/>
</svg>
