<svg id="Layer_1" data-name="Layer 1" xmlns="http://www.w3.org/2000/svg" viewBox="0 0 499.56 600.89"><defs><style>.cls-1,.cls-2{fill:#f67c87;}.cls-2{opacity:0.62;}</style></defs><path class="cls-1" d="M129.39,147.76c4.13,3.44,97,68.13,99.11,76.39S203,273.71,194.08,279.9,126,314.32,120.44,327.39s-13.77,96.36-18.58,119.76-14.46,53.69,0,37.17,57.12-88.1,64-89.48,24.78-13.07,31.67-6.19S214,485.7,216.11,534.56s-2.07,75.71,8.26,63.32S265,449.22,271.86,424.44s-2.07-53,9.29-74.33S320,305.37,326.92,309.5s97.05,53.68,105.3,55.06-69.51-53-77.08-65.39-1.38-30.28-22.71-41.29S301.45,220,285.62,209s-139-61.94-148-64.7S129.39,147.76,129.39,147.76Z"/><ellipse class="cls-1" cx="343.78" cy="208.32" rx="39.23" ry="32.69" transform="translate(-29.62 357.17) rotate(-52.95)"/><path class="cls-2" d="M152.79,177.35c1.37-5.5,8.26-31,14.45-31s107.26,47.16,110.81,53.68,45.89,51.86,54.38,57.82,31.14,33,39.92,48.87,48.81,31.54,46.11,37.16-3.44,23.4-16.52,20-70.2-52.31-79.84-46.11-40.61,39.42-41,46.55,6.47,39.45,0,39.48-136.9-86.76-139.86-94,34.21-34.05,41.78-40.24,20.65-8.95-2.06-48.18S152.79,177.35,152.79,177.35Z"/></svg>