<svg id="Layer_1" data-name="Layer 1" xmlns="http://www.w3.org/2000/svg" viewBox="0 0 499.56 600.89"><defs><style>.cls-1{fill:#b2a367;opacity:0.4;}.cls-2{fill:#f3df8c;}</style></defs><path class="cls-1" d="M198.37,90.5s-24.07,7.29-23.27,25.15c.19,4.33,1.05,6.76-.27,13.82s14.85,22.48,18.9,34.69,22.2,14,26.61,17.76S272,172.24,272,172.24s32.93,1.92,22.52-14.32,2.18,6.84-4.15-42.6-16.15-54-63.57-53.88C209.81,61.49,198.37,90.5,198.37,90.5Z"/><ellipse class="cls-2" cx="235.46" cy="119.92" rx="30.23" ry="34.81" transform="matrix(0.97, -0.22, 0.22, 0.97, -20.77, 55.37)"/><path class="cls-2" d="M293.3,254.08c2.68,6.7,12.32,75.78,16.07,79s46.05,20.35,50.34,19.82S319,324.5,317.4,320.22s-.54-56.77-7-68-4.29-66.41-9.64-72.3-38-22.25-49.27-20.88c-11.77,1.42-45.52,12.85-50.34,7.49S128.35,48.16,123.53,42.27,80.69,31.56,80.69,31.56,115,44.94,120.85,52.44s31.07,80.33,38.56,97.47,20.83,70.71,26.18,92.67c2.62,10.72-13.86,54.61-16.54,69.6s-2.14,72.84-2.14,86.23-20.35,146.2-17.14,155.84c1.08,3.23,21,4.47,47.09,4.52-2.07,15.6-5.19,41-3.71,42.08,1.66,1.24,13-24.83,17.48-42.15,24.12-.29,51.26-1.38,73.21-2.75,10,13.45,21.68,40.62,24.69,39.87s-1.85-26.94-8.95-41c15.78-1.26,26.4-2.62,26.92-3.8,2.15-4.82-3.74-33.74-7.49-65.34s-15-128.53-19.82-142.45S285.27,279,279.91,262.91,281,210.43,281,210.43,290.62,247.38,293.3,254.08Z"/></svg>