<svg id="Layer_1" data-name="Layer 1" xmlns="http://www.w3.org/2000/svg" viewBox="0 0 499.56 600.89"><defs><style>.cls-1,.cls-2{fill:#d08c87;}.cls-2{opacity:0.82;}</style></defs><ellipse class="cls-1" cx="241.29" cy="111.08" rx="28.27" ry="32.56" transform="translate(-18.66 56.44) rotate(-12.85)"/><path class="cls-2" d="M206.6,83.57s-22.51,6.82-21.76,23.52c.18,4,1,6.32-.25,12.92s13.89,21,17.67,32.45,20.76,13.1,24.89,16.61S275.49,160,275.49,160s30.79,1.8,21.06-13.39,2,6.4-3.88-39.83-15.1-50.52-59.45-50.4C217.3,56.44,206.6,83.57,206.6,83.57Z"/><path class="cls-1" d="M295.38,236.55c2.51,6.27,11.52,70.87,15,73.87s43.07,19,47.08,18.53-38.07-26.54-39.57-30.55-.5-53.09-6.51-63.61-4-62.1-9-67.61-35.53-20.81-46.07-19.53c-11,1.33-42.58,12-47.08,7S141.12,44,136.61,38.46s-40.07-10-40.07-10S128.6,41,134.11,48s29,75.13,36.06,91.15,19.48,66.13,24.48,86.66c2.45,10-13,51.08-15.47,65.1s-2,68.12-2,80.64-19,136.73-16,145.74c1,3,19.64,4.19,44,4.23-1.94,14.59-4.85,38.31-3.47,39.35,1.56,1.16,12.14-23.22,16.35-39.42,22.56-.27,47.94-1.28,68.47-2.57,9.36,12.58,20.27,38,23.09,37.29s-1.74-25.2-8.38-38.33c14.76-1.17,24.7-2.45,25.19-3.55,2-4.51-3.51-31.55-7-61.1S305.4,333,300.89,319.94s-13-60.1-18-75.13,1-49.08,1-49.08S292.88,230.29,295.38,236.55Z"/></svg>