<svg id="Layer_1" data-name="Layer 1" xmlns="http://www.w3.org/2000/svg" viewBox="0 0 499.56 600.89"><defs><style>.cls-1,.cls-2{fill:#f3bef1;}.cls-2{opacity:0.79;}</style></defs><path class="cls-1" d="M329.71,93.17c8.3-6.23,94.82-5,99.26,0s8.44,62.37,0,70.81S334.6,171.54,327,164,315.54,103.79,329.71,93.17Z"/><path class="cls-1" d="M433.91,116.4v26.67s26.67,15.41,29.34,14.52,5-56.59,0-56.3S433.91,116.4,433.91,116.4Z"/><ellipse class="cls-1" cx="265.78" cy="116.26" rx="47.59" ry="39.56" transform="translate(91.37 348.08) rotate(-76.67)"/><path class="cls-1" d="M388,362.94c-3.24-2.71-77.3-5.72-117.23-7.15.38-21.9,1.93-87.71,7-106.63,4.89-18.22,30.66,21,58.66-7.55,3.73-3.8,40.63-84,40.63-84s-57.51,71.09-62.85,68.42c-1.4-.7-3.85-3.5-7-7.43l47.86-66.14L296.58,204.8c-7.46-9.61-16-20-23.25-25.2-15.11-10.9-46.28-13.39-65.77,4.23-7.43,6.72-11.56,25.33-13.34,37.78s-16,136-16,136S156,474.94,149.78,491.83s-136,40-136,40,157.33-10.67,164.44-14.22,47.11-124.45,47.11-124.45,125.89-.62,128.74,2.23c3.12,3.11,12.6,136.44,12.6,136.44S392.44,366.65,388,362.94Z"/><path class="cls-1" d="M240.89,350.67c6.22,0,128.65-1.37,140.77,2s3.07-1.38,6.34,10.29-4,142.86-10.93,144.6-18,0-18,0S344,409.33,339.56,404s-104-10.67-107.56-6.22-37.33,128-53.33,129.78-109.34,4.27-109.34,4.27V515.11s72.89-9.78,73.78-23.11,35-146,37.63-144.89S240.89,350.67,240.89,350.67Z"/><path class="cls-2" d="M388.52,356c-7-10.67-79.57,1.28-101-9-20.12-9.63-.11-68-2.4-91.07,14.79,1.77,40.5,4.67,45.51,4,7.11-.89,40.89-67.56,40.89-74.67s-20.45-8-20.45-8-10.05,9.46-19.81,19.28c2.89-4.78,5.28-8.88,6.48-10.39,3.55-4.44-9-10.16-17.56-16.08s-12.66,5.42-12.66,5.42S277,190.25,267.48,198.91c-7-13.3-16.56-24.67-29.22-27.7-35.07-8.38-52,34.12-56,61.67S136.89,481.33,139,500s35.25,0,91.25-26.67,160-52,158.3-57.45S395.56,366.67,388.52,356Z"/></svg>