<svg id="Layer_1" data-name="Layer 1" xmlns="http://www.w3.org/2000/svg" viewBox="0 0 89.93 285.33"><defs><style>.cls-1{fill:#eae6d6;stroke:#ccc08f;stroke-miterlimit:10;}.cls-2{fill:#c9c097;}.cls-3{fill:#eddfa6;}.cls-4{fill:#7c7c7c;}</style></defs><path class="cls-1" d="M20.67,11.26S38.86,24,50.61,24s39.32-9.11,39.32-9.11V268.2H54.43c-14.2,0-33.76,5.88-33.76,5.88Z"/><path class="cls-2" d="M39.34,14.89s-14.67,106.67-14.67,136S37.12,276.71,37.12,276.71H2s9.77-75.15,9.77-125.82S2,14.89,2,14.89Z"/><path class="cls-3" d="M2,13.33C2,6,10.23,0,20.67,0,32.89,0,39.34,4.89,39.34,11.56,39.34,20.67,28.23,24,19.56,24S2,18.47,2,13.33Z"/><path class="cls-3" d="M2,274.67c0-7.34,8.22-13.34,18.66-13.34,12.22,0,18.67,4.89,18.67,11.56,0,9.11-11.11,12.44-19.78,12.44S2,279.8,2,274.67Z"/><path class="cls-2" d="M9.23,17c4-.62,7.94-1,11.76-1.66A38,38,0,0,0,26.45,14c.43-.13.79-.32,1.19-.46A9.52,9.52,0,0,0,28.69,13,3.35,3.35,0,0,0,30,11.73a1,1,0,0,0,0-1A3.4,3.4,0,0,0,28.63,9.5a7.71,7.71,0,0,0-2.25-.79,16.39,16.39,0,0,0-2.66-.33A17.44,17.44,0,0,0,21,8.44a6.89,6.89,0,0,0-1.26.22c-.38.07-.72.32-.71.23S19,8.61,19,8.76a1.44,1.44,0,0,0,.23.44,3.64,3.64,0,0,0,1,.84,12,12,0,0,0,2.67,1.19,8.64,8.64,0,0,1-3.11-.17,4.4,4.4,0,0,1-1.57-.71,3.2,3.2,0,0,1-.7-.72,1.63,1.63,0,0,1-.21-1.54,2.36,2.36,0,0,1,.78-1,4.53,4.53,0,0,1,.82-.53,9.71,9.71,0,0,1,1.58-.67,15.45,15.45,0,0,1,3.19-.65,17.11,17.11,0,0,1,3.28,0,12.67,12.67,0,0,1,1.69.28,10.7,10.7,0,0,1,1.75.61,7,7,0,0,1,3.05,2.66,5.08,5.08,0,0,1,.7,2.3,5.2,5.2,0,0,1-.49,2.42,7.08,7.08,0,0,1-2.85,2.87,13,13,0,0,1-1.59.78c-.54.18-1.1.41-1.63.53a27.34,27.34,0,0,1-6.26.74A45,45,0,0,1,9.23,17Z"/><path class="cls-2" d="M9.23,268.33a45,45,0,0,1,12-1.45,27.34,27.34,0,0,1,6.26.74,15.34,15.34,0,0,1,1.63.52,14.57,14.57,0,0,1,1.59.78,7.11,7.11,0,0,1,2.85,2.88,5.16,5.16,0,0,1,.49,2.41,5,5,0,0,1-.7,2.3,6.88,6.88,0,0,1-3.05,2.66,10.75,10.75,0,0,1-1.75.62,11.2,11.2,0,0,1-1.69.27,15.63,15.63,0,0,1-3.28,0,15.45,15.45,0,0,1-3.19-.65,9.64,9.64,0,0,1-1.58-.66,4.53,4.53,0,0,1-.82-.53,2.4,2.4,0,0,1-.78-1,1.64,1.64,0,0,1,.21-1.54,3.15,3.15,0,0,1,.7-.71,4.4,4.4,0,0,1,1.57-.71,8.65,8.65,0,0,1,3.11-.18,12,12,0,0,0-2.67,1.2,3.81,3.81,0,0,0-1,.83,1.44,1.44,0,0,0-.23.44c0,.15.08-.06.06-.12s.33.16.71.23a9.16,9.16,0,0,0,1.26.22,20.32,20.32,0,0,0,2.71.06,17.58,17.58,0,0,0,2.66-.34,7.43,7.43,0,0,0,2.25-.78A3.47,3.47,0,0,0,30,274.55a1.05,1.05,0,0,0,0-1,3.34,3.34,0,0,0-1.32-1.26,11.53,11.53,0,0,0-1.05-.59c-.4-.14-.76-.32-1.19-.45A36.69,36.69,0,0,0,21,270C17.17,269.35,13.23,269,9.23,268.33Z"/><path class="cls-4" d="M70.1,85.44V99.12h-.84v-4H44.34v1.36a6.86,6.86,0,0,0,2,5.15,23.67,23.67,0,0,0,6.08,3.9v.8l-8.89-.73V85.44h.84v2.25H69.26V85.44Z"/><path class="cls-4" d="M45.65,112.59a9.69,9.69,0,0,1,7-2.45,8.61,8.61,0,0,1,6.89,2.76,10.27,10.27,0,0,1,2.4,7q0,8.63-8.67,8.28V117.48H51.82a12.9,12.9,0,0,0-5.62,1,3.37,3.37,0,0,0-1.9,3.3q0,4.41,4.71,5.78l-.11.68a7.84,7.84,0,0,1-4.26-2.6A8.85,8.85,0,0,1,43.12,120Q43.12,115,45.65,112.59Zm8.41,4.93v3.91h1.87a16.12,16.12,0,0,0,4.2-.36,1.43,1.43,0,0,0,1.12-1.45,1.68,1.68,0,0,0-1.2-1.59,11.62,11.62,0,0,0-4.12-.51Z"/><path class="cls-4" d="M63.56,147.08l.65,1.06c.79.16,1.18-.15,1.18-.91,0-1.09-.84-1.63-2.51-1.63a12,12,0,0,0-2.28.26,5.77,5.77,0,0,1-5,2.89A5.67,5.67,0,0,1,51,146.66,8.77,8.77,0,0,1,49.28,141a16.63,16.63,0,0,1,.3-3.08c-.71-1.11-1.24-1.67-1.6-1.67s-.53.81-.53,2.43v3.88q0,8.63-6.19,8.62a6.26,6.26,0,0,1-5.3-2.6q-2-2.61-2-8.11,0-9.39,4.07-9.39c1.47,0,2.48,1,3,2.93l-1,2.28A7.56,7.56,0,0,0,38,136q-3.27,0-3.27,4.87a8,8,0,0,0,1.1,4.56A3.26,3.26,0,0,0,38.56,147a2.3,2.3,0,0,0,2.19-1,9,9,0,0,0,.55-3.85v-3.69a7.38,7.38,0,0,1,1-4.41,3.12,3.12,0,0,1,2.53-1.33,3.53,3.53,0,0,1,2.51.95,17.48,17.48,0,0,1,2.49,3.39,5.49,5.49,0,0,1,5.77-4.41,5.73,5.73,0,0,1,4.6,2Q62,136.79,62,140.88A8.74,8.74,0,0,1,61,145.1a8.67,8.67,0,0,1,1.86-.22A3.79,3.79,0,0,1,66,146a3.87,3.87,0,0,1,1,2.54,3.34,3.34,0,0,1-.74,2.26,2.56,2.56,0,0,1-2,.86,2.44,2.44,0,0,1-1.91-.69,2.33,2.33,0,0,1-.63-1.65,2.45,2.45,0,0,1,.51-1.6A1.89,1.89,0,0,1,63.56,147.08ZM56.46,139H54.41a9.14,9.14,0,0,0-3.46.44,1.4,1.4,0,0,0-.91,1.33,1.33,1.33,0,0,0,.89,1.29,10.61,10.61,0,0,0,3.67.4h1.86a12.62,12.62,0,0,0,3.89-.38,1.31,1.31,0,0,0,.93-1.27,1.44,1.44,0,0,0-1-1.35A10.48,10.48,0,0,0,56.46,139Z"/><path class="cls-4" d="M45.65,155.46a9.64,9.64,0,0,1,7-2.45c3,0,5.3.91,6.89,2.75a10.29,10.29,0,0,1,2.4,7q0,8.63-8.67,8.29V160.34H51.82a13.05,13.05,0,0,0-5.62.95,3.38,3.38,0,0,0-1.9,3.31c0,2.93,1.57,4.86,4.71,5.77l-.11.69a7.86,7.86,0,0,1-4.26-2.61,8.85,8.85,0,0,1-1.52-5.64Q43.12,157.9,45.65,155.46Zm8.41,4.92v3.91h1.87a16.12,16.12,0,0,0,4.2-.36,1.43,1.43,0,0,0,1.12-1.44,1.69,1.69,0,0,0-1.2-1.6,11.62,11.62,0,0,0-4.12-.51Z"/><path class="cls-4" d="M61.59,174.78v9.16h-3.5a6.15,6.15,0,0,1,2.81,1.86A5.76,5.76,0,0,1,62,189.6q0,5.9-6.35,5.89H44.18v2.13H43.5V186.86h.68v1.56H56.53a8.9,8.9,0,0,0,2.95-.3,1.1,1.1,0,0,0,.66-1.1,2.61,2.61,0,0,0-1.59-2.15,7.61,7.61,0,0,0-3.88-.93H44.18v1.63H43.5V174.78h.68v2.09H60.9v-2.09Z"/><path class="cls-4" d="M43.5,213.31l2.66-.42q-3-1.29-3-5.24a6,6,0,0,1,2.36-5.07q2.35-1.82,7-1.81,9.45,0,9.46,7.53,0,3.33-1.86,4.4H71.32v-2.31H72v9.5H44.18v1.86H43.5Zm2.57-4.79a1.59,1.59,0,0,0-1.32,1.54,2.44,2.44,0,0,0,1,1.94,4.49,4.49,0,0,0,2.93.82H57a5.58,5.58,0,0,0,2.78-.65,2.06,2.06,0,0,0,1.14-1.9q0-1.25-1.68-1.71a25.7,25.7,0,0,0-5.85-.45h-2A21.27,21.27,0,0,0,46.07,208.52Z"/></svg>