<svg id="Layer_1" data-name="Layer 1" xmlns="http://www.w3.org/2000/svg" viewBox="0 0 499.56 600.89"><defs><style>.cls-1,.cls-2{fill:#d08c87;}.cls-2{opacity:0.44;}</style></defs><ellipse class="cls-1" cx="230.87" cy="178.47" rx="34.68" ry="28.28" transform="translate(-50.3 256.57) rotate(-53.23)"/><rect class="cls-2" x="281.57" y="131.36" width="155.85" height="239.1"/><rect class="cls-2" x="290.84" y="140.63" width="137.31" height="220.55"/><path class="cls-1" d="M101.49,561.92c-1.06-6.36-24-119.53-23.47-128.6s55.49-58.69,60.83-68.83,2.66-122.73,2.66-129.13S122.84,193.74,118,191.6,75.35,198,72.15,203.34c-2.49,4.15-11.76,16-15.76,21.13a.64.64,0,0,1-1.12-.54c1.66-6.88,5.11-21.88,7.8-25.92,3.21-4.81,44.83-33.62,49.63-33.62s143,74.17,149.94,79,10.14,5.34,10.14,5.34,27.21,16,31.48,13.87,63-56.56,64.57-55-53.9,77.91-58.17,79-59.23-20.27-67.23-19.21S212,309.53,211.7,317s10.87,26.15,19.17,43.75,134.22,192.1,140.62,201.7,15.66,26.86,13.52,25.79-23.25-19-29.17-24.9c-48-47.66-158.12-164.7-164-169s-81.29,35.22-85,44.82,4.51,120,4.27,125.22c-.54,11.74.17,34.6.17,34.6a2,2,0,0,1-4,.4S103.82,575.76,101.49,561.92Z"/><path class="cls-2" d="M136.48,172.26a6.45,6.45,0,0,0-8.79,3c-3.76,8.08-10.06,21-8.77,22.28,1.78,1.78,17.79,34.15,17.44,49.09S132.44,355.48,130,361.55s-51.58,56.22-54.78,61.91-2.49,49.45,0,64.39,41.63-13.52,61.19-7.47,84.3-9.61,104.58,1.07,90.71,8.89,90,7.82-113.17-180-110.65-184.62,20.65-32.73,24.56-32.73,34.87,13.87,37.36,11.74,9.6-28.5,5.69-32.39C284.46,247.84,165.18,186.9,136.48,172.26Z"/></svg>