<svg id="Layer_1" data-name="Layer 1" xmlns="http://www.w3.org/2000/svg" viewBox="0 0 1920 202.33"><defs><style>.cls-1{fill:#eae6d6;stroke:#a09877;stroke-miterlimit:10;stroke-width:2px;}.cls-2{fill:#c9c097;}.cls-3{fill:#eddfa6;}.cls-4{fill:#7c7c7c;}</style></defs><path class="cls-1" d="M57.78,48.4s565.31.43,874.79.43,950.56,1.7,950.56,1.7v148H947.5C573.24,198.53,57.78,202,57.78,202Z"/><path class="cls-2" d="M1878.77,73.26S1128.22,64.45,922,64.45,38.33,70.54,38.33,70.54V27.63s528.3,12,884.45,12,956-11.95,956-11.95Z"/><path class="cls-3" d="M1849.94,54c0-27.95,14.62-50.83,33.19-50.83,21.73,0,33.19,18.63,33.19,44.05,0,34.73-19.76,47.44-35.17,47.44S1849.94,73.57,1849.94,54Z"/><path class="cls-3" d="M3.88,56.42c0-30.83,13.57-56,30.8-56C54.84.37,65.47,20.9,65.47,48.94c0,38.3-18.33,52.32-32.63,52.32S3.88,78,3.88,56.42Z"/><path class="cls-2" d="M1867.21,64.63c7.11-2.37,14.12-3.88,20.92-6.35a40.37,40.37,0,0,0,9.71-4.77c.76-.5,1.39-1.2,2.1-1.74a18.47,18.47,0,0,0,1.88-2.23,12.7,12.7,0,0,0,2.34-4.81,8.14,8.14,0,0,0-.07-3.79,12.23,12.23,0,0,0-2.38-4.73,10.49,10.49,0,0,0-4-3,15.52,15.52,0,0,0-4.73-1.27,15.34,15.34,0,0,0-4.83.23,7.87,7.87,0,0,0-2.23.83c-.67.27-1.28,1.22-1.26.88s-.16-1-.11-.48a9.42,9.42,0,0,0,.41,1.69,12.49,12.49,0,0,0,1.7,3.16,20.26,20.26,0,0,0,4.75,4.57,7.47,7.47,0,0,1-5.52-.67,7.33,7.33,0,0,1-2.8-2.72,12.1,12.1,0,0,1-1.62-8.58,11.42,11.42,0,0,1,1.4-3.88,12.49,12.49,0,0,1,1.44-2,16,16,0,0,1,2.82-2.53A15.63,15.63,0,0,1,1892.8,20a13.64,13.64,0,0,1,5.83,0,10.93,10.93,0,0,1,3,1.05,14,14,0,0,1,3.11,2.35,23,23,0,0,1,5.43,10.13,37.31,37.31,0,0,1,1.23,8.77,39.18,39.18,0,0,1-.86,9.21,26.79,26.79,0,0,1-5.08,10.95,23.94,23.94,0,0,1-2.82,3,20.58,20.58,0,0,1-2.9,2,24.58,24.58,0,0,1-11.13,2.84A41.15,41.15,0,0,1,1867.21,64.63Z"/><path class="cls-2" d="M16.75,29.42A33.5,33.5,0,0,1,36.61,23.3a20,20,0,0,1,10.33,3.13,19,19,0,0,1,2.69,2.19,25.39,25.39,0,0,1,2.62,3.29A32,32,0,0,1,57,44a51,51,0,0,1,.8,10.15,48.14,48.14,0,0,1-1.14,9.67c-1.32,5.49-3.17,8.89-5,11.18a13.26,13.26,0,0,1-2.89,2.58,9,9,0,0,1-2.79,1.17,10.73,10.73,0,0,1-5.4,0A13.48,13.48,0,0,1,35.23,76a15.75,15.75,0,0,1-2.61-2.78,14.35,14.35,0,0,1-1.34-2.24A14,14,0,0,1,30,66.67a16.5,16.5,0,0,1,.34-6.48,15,15,0,0,1,1.17-3,7.46,7.46,0,0,1,2.59-3,6,6,0,0,1,5.12-.74,20.84,20.84,0,0,0-4.41,5A15.43,15.43,0,0,0,33.22,62a11.94,11.94,0,0,0-.38,1.85c0,.62.14-.24.1-.53s.55.68,1.17,1a6.38,6.38,0,0,0,2.07.91,11.86,11.86,0,0,0,4.48.26,12.87,12.87,0,0,0,4.39-1.4,10,10,0,0,0,3.7-3.31A14.21,14.21,0,0,0,51,55.54,10.34,10.34,0,0,0,51,51.37a15.27,15.27,0,0,0-2.17-5.32,21.09,21.09,0,0,0-1.74-2.45c-.66-.6-1.24-1.37-1.95-1.92a35.49,35.49,0,0,0-9-5.26C29.85,33.69,23.35,32,16.75,29.42Z"/><path class="cls-4" d="M820.09,99.42h30.27v1.85h-8.91v55.15h3q7.14,0,11.39-4.37t8.62-13.45h1.77l-1.6,19.67H820.09v-1.85h5V101.27h-5Z"/><path class="cls-4" d="M880.17,153.52q-5.42-5.6-5.42-15.55t6.09-15.26q6.1-5.29,15.52-5.3,19.08,0,18.33,19.17H891v3.28q0,8.23,2.11,12.44t7.31,4.21q9.75,0,12.78-10.43l1.52.25a17.42,17.42,0,0,1-5.76,9.42q-4.17,3.36-12.49,3.36Q885.6,159.11,880.17,153.52Zm10.89-18.62h8.66v-4.12q0-6.81-.8-9.29a3.14,3.14,0,0,0-3.19-2.48,3.74,3.74,0,0,0-3.54,2.65q-1.12,2.64-1.13,9.12Z"/><path class="cls-4" d="M956.47,113.88l2.36-1.43c.33-1.74-.34-2.61-2-2.61q-3.62,0-3.61,5.55a25.55,25.55,0,0,0,.58,5q6.39,4.28,6.39,11t-4.62,10.38q-4.62,3.71-12.53,3.7a36.18,36.18,0,0,1-6.81-.67q-3.71,2.35-3.7,3.53t5.38,1.18h8.58q19.08,0,19.09,13.7A13.91,13.91,0,0,1,959.8,175q-5.77,4.33-18,4.33-20.76,0-20.76-9,0-4.89,6.47-6.73l5.05,2.27a17.34,17.34,0,0,0-.68,4.62q0,7.23,10.77,7.24,6.55,0,10.08-2.44t3.54-6.06q0-3.62-2.15-4.83t-8.53-1.22h-8.16q-6.81,0-9.75-2.27a6.83,6.83,0,0,1-2.94-5.59,7.76,7.76,0,0,1,2.1-5.55,38.07,38.07,0,0,1,7.48-5.51q-9.75-2.78-9.75-12.78a12.7,12.7,0,0,1,4.54-10.17c3-2.58,7.56-3.87,13.62-3.87a19.31,19.31,0,0,1,9.33,2.1,19.45,19.45,0,0,1-.5-4.12q0-4.71,2.52-6.81a8.58,8.58,0,0,1,5.63-2.1,7.34,7.34,0,0,1,5,1.64,5.64,5.64,0,0,1,1.89,4.5,5.51,5.51,0,0,1-1.51,4.24,5.21,5.21,0,0,1-3.66,1.39,5.36,5.36,0,0,1-3.53-1.14A4.15,4.15,0,0,1,956.47,113.88ZM938.65,129.6v4.54q0,5.64,1,7.65a3.11,3.11,0,0,0,2.94,2,3,3,0,0,0,2.86-2c.59-1.31.88-4,.88-8.11V129.6q0-6.55-.84-8.62a2.9,2.9,0,0,0-2.82-2.06,3.21,3.21,0,0,0-3,2.15C939,122.5,938.65,125.34,938.65,129.6Z"/><path class="cls-4" d="M975,153.52q-5.41-5.6-5.42-15.55t6.1-15.26q6.09-5.29,15.51-5.3,19.08,0,18.33,19.17H985.82v3.28q0,8.23,2.1,12.44t7.31,4.21q9.76,0,12.78-10.43l1.52.25a17.42,17.42,0,0,1-5.76,9.42q-4.17,3.36-12.49,3.36Q980.44,159.11,975,153.52ZM985.9,134.9h8.66v-4.12q0-6.81-.8-9.29a3.14,3.14,0,0,0-3.19-2.48,3.72,3.72,0,0,0-3.53,2.65q-1.14,2.64-1.14,9.12Z"/><path class="cls-4" d="M1017.77,118.25H1038V126a14,14,0,0,1,4.12-6.23c1.85-1.56,4.65-2.35,8.41-2.35q13,0,13,14v25.31h4.71v1.51h-23.79v-1.51H1048V129.43q0-5-.67-6.51a2.45,2.45,0,0,0-2.44-1.47c-1.79,0-3.38,1.17-4.75,3.53a16.76,16.76,0,0,0-2.06,8.57v23.21h3.62v1.51h-23.88v-1.51h4.62v-37h-4.62Z"/><path class="cls-4" d="M1103,158.27l-.93-5.88q-2.86,6.72-11.6,6.72-7.23,0-11.23-5.21t-4-15.55q0-20.94,16.65-20.94,7.39,0,9.75,4.12V96.73h-5.13V95.21h21v61.55h4.12v1.51Zm-10.6-5.67c.62,1.93,1.75,2.9,3.41,2.9a5.39,5.39,0,0,0,4.28-2.19q1.82-2.17,1.81-6.47V128.51a12.2,12.2,0,0,0-1.43-6.14,4.56,4.56,0,0,0-4.2-2.52q-2.77,0-3.78,3.7t-1,13v4.37Q1091.51,149.69,1092.43,152.6Z"/></svg>