<svg id="Layer_1" data-name="Layer 1" xmlns="http://www.w3.org/2000/svg" viewBox="0 0 1920 764.83"><defs><style>.cls-1{fill:#eae6d6;stroke:#ccc08f;stroke-miterlimit:10;}.cls-2{fill:#c9c097;}.cls-3{fill:#eddfa6;}.cls-4{fill:#af9ca1;}.cls-5{fill:#c2df97;}.cls-6{fill:#f67c87;}.cls-7{fill:#4c4c4c;}.cls-8{fill:#f7b289;}.cls-9{fill:#bdc1ae;}.cls-10{fill:#d08c87;}.cls-11{fill:#867888;}.cls-12{fill:#99ad77;}.cls-13{fill:#c0aaaf;}.cls-14{fill:#79a5ae;}.cls-15{fill:#55774d;}.cls-16{fill:#d1bb80;}.cls-17{fill:#c65c7f;}.cls-18{fill:#f3bef1;}.cls-19{fill:#a9aedb;}.cls-20{fill:#f3df8c;}.cls-21{fill:#a8dcc6;}.cls-22{fill:#373e7a;}</style></defs><path class="cls-1" d="M57.46,52.79s565.31,2,874.79,2,950.56,7.87,950.56,7.87V748.91H947.18c-374.26,0-889.72,15.92-889.72,15.92Z"/><path class="cls-2" d="M1878.45,77.65s-750.56-8.81-956.75-8.81S38,74.94,38,74.94V32S566.31,44,922.46,44s956-11.95,956-11.95Z"/><path class="cls-3" d="M1849.62,58.38c0-27.95,14.62-50.82,33.19-50.82,21.73,0,33.19,18.62,33.19,44,0,34.74-19.76,47.44-35.17,47.44S1849.62,78,1849.62,58.38Z"/><path class="cls-3" d="M3.56,60.81c0-30.83,13.57-56,30.8-56,20.16,0,30.79,20.53,30.79,48.57,0,38.31-18.33,52.32-32.63,52.32S3.56,82.4,3.56,60.81Z"/><path class="cls-2" d="M1866.88,69c7.12-2.36,14.13-3.88,20.92-6.35a40.25,40.25,0,0,0,9.72-4.77c.76-.5,1.39-1.2,2.1-1.74a19.09,19.09,0,0,0,1.87-2.22,12.69,12.69,0,0,0,2.35-4.82,8,8,0,0,0-.08-3.79,12,12,0,0,0-2.38-4.73,10.48,10.48,0,0,0-4-3,15.81,15.81,0,0,0-4.73-1.27,15.34,15.34,0,0,0-4.83.23,7.87,7.87,0,0,0-2.23.83c-.67.27-1.28,1.22-1.26.88s-.16-1-.11-.47a9.53,9.53,0,0,0,.41,1.68,12.73,12.73,0,0,0,1.7,3.17,20.41,20.41,0,0,0,4.75,4.56,7.46,7.46,0,0,1-5.52-.67,7.37,7.37,0,0,1-2.8-2.71,12.18,12.18,0,0,1-1.25-2.72,12.38,12.38,0,0,1-.37-5.87,11.21,11.21,0,0,1,1.4-3.88,12.49,12.49,0,0,1,1.44-2,16,16,0,0,1,2.82-2.53,15.8,15.8,0,0,1,5.67-2.47,13.64,13.64,0,0,1,5.83,0,11.27,11.27,0,0,1,3,1.05,14.22,14.22,0,0,1,3.11,2.35,23.11,23.11,0,0,1,5.43,10.13,37.93,37.93,0,0,1,1.23,8.78,39.09,39.09,0,0,1-.86,9.2,26.72,26.72,0,0,1-5.08,11,24.73,24.73,0,0,1-2.82,3,20.32,20.32,0,0,1-2.9,2,24.61,24.61,0,0,1-11.13,2.84A41.21,41.21,0,0,1,1866.88,69Z"/><path class="cls-2" d="M16.42,33.81a33.6,33.6,0,0,1,19.87-6.12,20.07,20.07,0,0,1,10.33,3.13A19.14,19.14,0,0,1,49.31,33a25.25,25.25,0,0,1,2.62,3.28,32.4,32.4,0,0,1,4.71,12.08,51.09,51.09,0,0,1,.8,10.15,48.1,48.1,0,0,1-1.15,9.67c-1.31,5.49-3.16,8.89-5,11.18A13.8,13.8,0,0,1,48.37,82a9.16,9.16,0,0,1-2.79,1.16,10.77,10.77,0,0,1-5.41,0,13.62,13.62,0,0,1-5.26-2.72,15.82,15.82,0,0,1-2.61-2.79A13.07,13.07,0,0,1,31,75.34a14.17,14.17,0,0,1-1.3-4.28A16.24,16.24,0,0,1,30,64.59a15.83,15.83,0,0,1,1.16-3,7.47,7.47,0,0,1,2.6-3,6,6,0,0,1,5.12-.74,21,21,0,0,0-4.41,5,15.65,15.65,0,0,0-1.58,3.5,11.87,11.87,0,0,0-.37,1.85c-.05.63.14-.24.1-.52s.54.67,1.17,1a6.18,6.18,0,0,0,2.07.91,11.86,11.86,0,0,0,4.48.26,12.72,12.72,0,0,0,4.39-1.4,10,10,0,0,0,3.7-3.31,14.4,14.4,0,0,0,2.21-5.21,10.57,10.57,0,0,0,.07-4.18,15.11,15.11,0,0,0-2.18-5.32A20.69,20.69,0,0,0,46.8,48c-.66-.6-1.24-1.37-1.95-1.92a35.54,35.54,0,0,0-9-5.26C29.53,38.09,23,36.42,16.42,33.81Z"/><polygon class="cls-4" points="218.84 106.47 217.52 137.12 242.02 155.59 212.46 163.8 202.47 192.81 185.53 167.23 154.85 166.69 173.94 142.68 164.97 113.34 193.71 124.07 218.84 106.47"/><polygon class="cls-5" points="223.63 255.43 214.56 284.73 233.56 308.82 202.88 309.25 185.85 334.76 175.96 305.72 146.44 297.4 171 279.02 169.79 248.37 194.85 266.05 223.63 255.43"/><polygon class="cls-6" points="227.21 414 200.57 429.21 198 459.78 175.3 439.15 145.43 446.15 158.04 418.18 142.16 391.94 172.65 395.29 192.7 372.07 198.93 402.11 227.21 414"/><path class="cls-7" d="M260.32,116.14h12.22q5.67,0,8.52,1.53a5.41,5.41,0,0,1,2.84,5.17q0,5.59-6.74,6.7v.08q8.16,1,8.17,7.11c0,3-1.12,5-3.35,6.23s-5.45,1.78-9.65,1.78h-12V144H263V116.91h-2.66Zm10.63.77V129.5H272a3.26,3.26,0,0,0,3-1.29,7.33,7.33,0,0,0,.84-3.94v-1.92a8.67,8.67,0,0,0-.74-4.23,3,3,0,0,0-2.82-1.21Zm0,13.36V144h1.92a3.34,3.34,0,0,0,3.14-1.55,9.32,9.32,0,0,0,.9-4.58v-2.16a6.33,6.33,0,0,0-1.1-4c-.74-.9-2.05-1.35-3.92-1.35Z"/><path class="cls-7" d="M289.74,142.53c-1.74-1.74-2.62-4.24-2.62-7.5s.94-5.76,2.8-7.51,4.49-2.64,7.87-2.64,5.89.81,7.56,2.43,2.49,4.09,2.49,7.42q0,10.41-10.38,10.41C294.06,145.14,291.48,144.27,289.74,142.53ZM300,136.69v-3.47a27.58,27.58,0,0,0-.43-5.79c-.28-1.21-.94-1.81-2-1.81a2.05,2.05,0,0,0-1.45.51,3.07,3.07,0,0,0-.79,1.69,30.62,30.62,0,0,0-.37,5.6v3.19a30,30,0,0,0,.26,5.35,8.45,8.45,0,0,0,.56,1.47,1.73,1.73,0,0,0,1.75,1,2.1,2.1,0,0,0,2.09-1.84A28.76,28.76,0,0,0,300,136.69Z"/><path class="cls-7" d="M308.82,114.1h10V144h2.29v.74H309V144h2.25V114.83h-2.41Z"/><path class="cls-7" d="M321.73,114.1h10V144H334v.74H321.89V144h2.25V114.83h-2.41Z"/><path class="cls-7" d="M334,126v-.74h11.85V126h-2.2l4.45,13.56L352.82,126h-2.74v-.74h5.76V126h-2l-7.64,22a13.37,13.37,0,0,1-3,5.37,5.85,5.85,0,0,1-4.09,1.53,6,6,0,0,1-3.8-1.1,3.45,3.45,0,0,1-1.39-2.82,3.54,3.54,0,0,1,.9-2.62,3.24,3.24,0,0,1,2.37-.9q3.39,0,3.39,2.82a5.57,5.57,0,0,1-.24,1.47h-1.43a2.26,2.26,0,0,0-.09,1.56,1.06,1.06,0,0,0,1.11.61,3.76,3.76,0,0,0,3-1.66,17.78,17.78,0,0,0,2.49-5l.9-2.53h-3.59l-7-18.71Z"/><path class="cls-7" d="M369.9,126v-.74h10.54V126h-1.68l3.68,13.76L386.07,126h-2.82v-.74h5.52V126h-1.72l-4.9,18.71h-5.6L373,132.19l-3.84,12.55h-5.47L357.64,126H355.8v-.74h12.38V126h-2.45l3.76,13.89,2.94-9.56-1-4.33Z"/><path class="cls-7" d="M391.51,142.53q-2.62-2.61-2.62-7.5c0-3.25.94-5.76,2.8-7.51s4.49-2.64,7.87-2.64,5.89.81,7.55,2.43,2.5,4.09,2.5,7.42q0,10.41-10.38,10.41Q394.12,145.14,391.51,142.53Zm10.25-5.84v-3.47a27.58,27.58,0,0,0-.43-5.79c-.28-1.21-.94-1.81-2-1.81a2.05,2.05,0,0,0-1.45.51,3.14,3.14,0,0,0-.8,1.69,31.77,31.77,0,0,0-.36,5.6v3.19A30,30,0,0,0,397,142a9.42,9.42,0,0,0,.55,1.47,1.75,1.75,0,0,0,1.76,1,2.08,2.08,0,0,0,2.08-1.84A27.76,27.76,0,0,0,401.76,136.69Z"/><path class="cls-7" d="M413.69,142.53q-2.61-2.61-2.61-7.5c0-3.25.93-5.76,2.8-7.51s4.48-2.64,7.86-2.64,5.9.81,7.56,2.43,2.49,4.09,2.49,7.42q0,10.41-10.38,10.41C418,145.14,415.43,144.27,413.69,142.53ZM424,136.69v-3.47a28.29,28.29,0,0,0-.43-5.79c-.29-1.21-.95-1.81-2-1.81a2,2,0,0,0-1.45.51,3.07,3.07,0,0,0-.8,1.69,30.62,30.62,0,0,0-.37,5.6v3.19a28.55,28.55,0,0,0,.27,5.35,8.51,8.51,0,0,0,.55,1.47,1.74,1.74,0,0,0,1.76,1c1.06,0,1.75-.61,2.08-1.84A28.49,28.49,0,0,0,424,136.69Z"/><path class="cls-7" d="M446.83,144.74l-.45-2.86c-.93,2.18-2.81,3.26-5.64,3.26a6.49,6.49,0,0,1-5.46-2.53q-1.93-2.54-1.94-7.56,0-10.17,8.09-10.17,3.6,0,4.74,2v-12h-2.49v-.73h10.21V144h2v.74ZM441.68,142a1.7,1.7,0,0,0,1.65,1.41,2.66,2.66,0,0,0,2.09-1.06,4.89,4.89,0,0,0,.87-3.15v-8.91a6,6,0,0,0-.69-3,2.2,2.2,0,0,0-2-1.22c-.9,0-1.51.6-1.84,1.79a27.25,27.25,0,0,0-.49,6.3v2.12A22.81,22.81,0,0,0,441.68,142Z"/><path class="cls-7" d="M273.76,185.59l-.44-2.86q-1.4,3.27-5.64,3.27a6.48,6.48,0,0,1-5.46-2.53q-1.94-2.53-1.94-7.56,0-10.17,8.09-10.17c2.4,0,4,.66,4.74,2V155.69h-2.49V155h10.21v29.91h2v.73Zm-5.14-2.76a1.7,1.7,0,0,0,1.65,1.41,2.65,2.65,0,0,0,2.09-1.06,4.89,4.89,0,0,0,.87-3.15v-8.9a6,6,0,0,0-.69-3,2.22,2.22,0,0,0-2-1.23c-.9,0-1.52.6-1.84,1.8a27.15,27.15,0,0,0-.49,6.29v2.13A22.77,22.77,0,0,0,268.62,182.83Z"/><path class="cls-7" d="M293.7,176h1.19v-3.15a20.49,20.49,0,0,0-.43-5.2,1.66,1.66,0,0,0-1.66-1.33,2.33,2.33,0,0,0-1.32.39,1.2,1.2,0,0,0-.6,1.06,4,4,0,0,0,.25,1.37h1a5.74,5.74,0,0,1,.33,2.06,2.67,2.67,0,0,1-1,2.08,3.77,3.77,0,0,1-2.57.88q-3.51,0-3.51-3.39,0-5,8.54-5,4.86,0,6.72,1.65c1.24,1.1,1.86,3.13,1.86,6.07v8.29c0,1.42.39,2.13,1.18,2.13s1.47-1.41,1.63-4.21l.62,0c-.11,2.4-.56,4-1.35,4.94a4.92,4.92,0,0,1-3.88,1.35q-4.9,0-5.64-3a4.42,4.42,0,0,1-1.59,2.28,5.47,5.47,0,0,1-3.11.74q-6,0-6.05-4.94a4,4,0,0,1,2.31-4A17.59,17.59,0,0,1,293.7,176Zm-1.41,7.76a.86.86,0,0,0,.86.62c.42,0,.82-.35,1.18-1.05a6.16,6.16,0,0,0,.56-2.88v-3.79h-.29c-1.69,0-2.53,1.23-2.53,3.71V181A10.14,10.14,0,0,0,292.29,183.75Z"/><path class="cls-7" d="M306.41,166.14h9.84v3.76a6.82,6.82,0,0,1,2-3,6.19,6.19,0,0,1,4.08-1.14q6.33,0,6.33,6.82v12.3H331v.73H319.4v-.73h1.67V171.58a9.73,9.73,0,0,0-.32-3.17,1.21,1.21,0,0,0-1.19-.71,2.81,2.81,0,0,0-2.31,1.71,8.25,8.25,0,0,0-1,4.17v11.28H318v.73h-11.6v-.73h2.24v-18h-2.24Z"/><path class="cls-7" d="M342.93,166.47a2.66,2.66,0,0,0-2.57,2,19.29,19.29,0,0,0-.78,6.5v2.12a13.59,13.59,0,0,0,.9,5.8,3.36,3.36,0,0,0,3.31,1.76,4.83,4.83,0,0,0,3.84-1.63,7.87,7.87,0,0,0,1.84-3.72l.73.08a8.24,8.24,0,0,1-2.86,5.07A9.53,9.53,0,0,1,341.5,186q-4.74,0-7.27-2.55T331.7,176q0-4.92,2.88-7.58t8-2.65a9.29,9.29,0,0,1,5.56,1.41,4.23,4.23,0,0,1,1.92,3.53,4.46,4.46,0,0,1-.92,3.11,3.31,3.31,0,0,1-2.53,1,3.83,3.83,0,0,1-2.6-.86,3.22,3.22,0,0,1-1-2.54,5.33,5.33,0,0,1,.21-1.47h1.35a4.46,4.46,0,0,0,.28-1.47A1.73,1.73,0,0,0,342.93,166.47Z"/><path class="cls-7" d="M354.06,183.28a10.43,10.43,0,0,1-2.63-7.56q0-4.83,3-7.41a11.05,11.05,0,0,1,7.54-2.57q9.27,0,8.9,9.31H359.31v1.6a14,14,0,0,0,1,6,3.66,3.66,0,0,0,3.56,2c3.16,0,5.23-1.68,6.21-5.06l.73.12a8.46,8.46,0,0,1-2.79,4.58Q366,186,362,186,356.7,186,354.06,183.28Zm5.29-9.05h4.21v-2a17.14,17.14,0,0,0-.39-4.51,1.52,1.52,0,0,0-1.55-1.21,1.81,1.81,0,0,0-1.71,1.29,12.32,12.32,0,0,0-.56,4.43Z"/><path class="cls-7" d="M282.06,251.85q-6.33,0-6.33,12.22v3.23c0,3.86.55,6.89,1.67,9.09a5.33,5.33,0,0,0,4.94,3.29q4.5,0,8.26-8.75h.73l-.28,9.11h-.45a2.71,2.71,0,0,0-.45-.63.89.89,0,0,0-.59-.18,24.51,24.51,0,0,0-3,.63,21.89,21.89,0,0,1-5.23.63q-6.66,0-10.31-3.59t-3.66-10.81q0-7.21,3.82-11.13T281.49,251a19,19,0,0,1,4.88.63,19.62,19.62,0,0,0,2.8.63.91.91,0,0,0,.61-.18,2.16,2.16,0,0,0,.45-.64h.45l.33,8.87h-.74a25.08,25.08,0,0,0-3.78-6.31A5.79,5.79,0,0,0,282.06,251.85Z"/><path class="cls-7" d="M294.15,249.44h10v29.91h2.29v.73H294.31v-.73h2.25V250.18h-2.41Z"/><path class="cls-7" d="M317,270.48h1.18v-3.14a20.68,20.68,0,0,0-.42-5.21,1.66,1.66,0,0,0-1.66-1.33,2.38,2.38,0,0,0-1.33.39,1.21,1.21,0,0,0-.59,1.06,3.94,3.94,0,0,0,.25,1.37h1a6,6,0,0,1,.32,2.06,2.68,2.68,0,0,1-1,2.09,3.83,3.83,0,0,1-2.57.87c-2.34,0-3.52-1.12-3.52-3.39q0-5,8.54-5,4.86,0,6.72,1.65t1.86,6.07v8.29c0,1.42.4,2.13,1.19,2.13s1.47-1.41,1.63-4.21l.61,0q-.15,3.6-1.34,4.94a4.93,4.93,0,0,1-3.88,1.35c-3.27,0-5.15-1-5.64-3a4.46,4.46,0,0,1-1.6,2.29,5.42,5.42,0,0,1-3.1.73q-6,0-6.05-4.94a4,4,0,0,1,2.31-4A17.39,17.39,0,0,1,317,270.48Zm-1.41,7.77a.86.86,0,0,0,.86.61c.42,0,.82-.35,1.18-1a6.23,6.23,0,0,0,.55-2.88v-3.8h-.28q-2.54,0-2.54,3.71v.66A10,10,0,0,0,315.62,278.25Z"/><path class="cls-7" d="M330.59,280.49v-7.31h.49a9.77,9.77,0,0,0,2.86,5,7,7,0,0,0,4.5,1.43c2.78,0,4.16-.88,4.16-2.65a1.86,1.86,0,0,0-1-1.72,13.78,13.78,0,0,0-4.08-1.39,15.91,15.91,0,0,1-4.66-2,5.16,5.16,0,0,1-2.25-4.66,6.76,6.76,0,0,1,2-5.08,7.19,7.19,0,0,1,5.23-1.9,10.12,10.12,0,0,1,4.13.94,3.31,3.31,0,0,0,1.18.32.94.94,0,0,0,.7-.28,4.81,4.81,0,0,0,.69-1.06h.45v6.25h-.49q-2.08-5.31-6.45-5.31a4.93,4.93,0,0,0-2.86.67,2,2,0,0,0-.94,1.7,1.48,1.48,0,0,0,.28,1c.2.23.34.4.45.51a2.11,2.11,0,0,0,.53.34c.25.13.45.22.62.29s.41.16.75.27.6.17.76.2a32.23,32.23,0,0,1,4,1.2,14.08,14.08,0,0,1,2.33,1.25,5.65,5.65,0,0,1,2.25,5,6.54,6.54,0,0,1-2,5.22,8.24,8.24,0,0,1-5.6,1.78,10.81,10.81,0,0,1-4.9-1.18,1.59,1.59,0,0,0-.78-.33c-.6,0-1.18.51-1.76,1.51Z"/><path class="cls-7" d="M348.32,280.49v-7.31h.49a9.84,9.84,0,0,0,2.86,5,7,7,0,0,0,4.5,1.43c2.78,0,4.16-.88,4.16-2.65a1.86,1.86,0,0,0-1-1.72,13.78,13.78,0,0,0-4.08-1.39,15.91,15.91,0,0,1-4.66-2,5.16,5.16,0,0,1-2.25-4.66,6.76,6.76,0,0,1,2-5.08,7.2,7.2,0,0,1,5.23-1.9,10.12,10.12,0,0,1,4.13.94,3.3,3.3,0,0,0,1.19.32.94.94,0,0,0,.69-.28,4.81,4.81,0,0,0,.69-1.06h.45v6.25h-.49q-2.09-5.31-6.45-5.31a4.93,4.93,0,0,0-2.86.67,2,2,0,0,0-.94,1.7,1.43,1.43,0,0,0,.29,1l.44.51a2,2,0,0,0,.54.34,6.24,6.24,0,0,0,.61.29q.24.1.75.27c.34.1.6.17.76.2a32.23,32.23,0,0,1,4,1.2,14.08,14.08,0,0,1,2.33,1.25,5.65,5.65,0,0,1,2.25,5,6.54,6.54,0,0,1-2,5.22,8.24,8.24,0,0,1-5.6,1.78,10.81,10.81,0,0,1-4.9-1.18,1.59,1.59,0,0,0-.78-.33c-.6,0-1.18.51-1.76,1.51Z"/><path class="cls-7" d="M365,260.64h10v18.71h2.29v.73H365.12v-.73h2.24v-18H365Zm6.17-2.82a3.79,3.79,0,0,1-3.08-1.11,4.06,4.06,0,0,1-.92-2.73,3.77,3.77,0,0,1,1-2.7,4,4,0,0,1,3-1.06,4.51,4.51,0,0,1,3.11,1,3.53,3.53,0,0,1,1.06,2.74,3.94,3.94,0,0,1-1,2.84A4.29,4.29,0,0,1,371.12,257.82Z"/><path class="cls-7" d="M389.51,261a2.68,2.68,0,0,0-2.58,2,19.24,19.24,0,0,0-.77,6.49v2.12a13.67,13.67,0,0,0,.89,5.81,3.38,3.38,0,0,0,3.31,1.75,4.83,4.83,0,0,0,3.84-1.63,7.78,7.78,0,0,0,1.84-3.72l.74.08a8.26,8.26,0,0,1-2.86,5.07,9.58,9.58,0,0,1-5.85,1.59c-3.15,0-5.58-.85-7.27-2.55s-2.53-4.2-2.53-7.48,1-5.8,2.88-7.58,4.6-2.65,8-2.65a9.28,9.28,0,0,1,5.55,1.41,4.24,4.24,0,0,1,1.92,3.53,4.41,4.41,0,0,1-.92,3.11,3.3,3.3,0,0,1-2.53,1,3.8,3.8,0,0,1-2.59-.86,3.16,3.16,0,0,1-1-2.53,5.31,5.31,0,0,1,.2-1.47h1.35a4.59,4.59,0,0,0,.29-1.47A1.74,1.74,0,0,0,389.51,261Z"/><path class="cls-7" d="M407.6,270.48h1.19v-3.14a20.53,20.53,0,0,0-.43-5.21,1.66,1.66,0,0,0-1.66-1.33,2.33,2.33,0,0,0-1.32.39,1.2,1.2,0,0,0-.6,1.06,4.18,4.18,0,0,0,.25,1.37h1a5.74,5.74,0,0,1,.33,2.06,2.68,2.68,0,0,1-1,2.09,3.85,3.85,0,0,1-2.58.87c-2.34,0-3.51-1.12-3.51-3.39q0-5,8.54-5,4.86,0,6.72,1.65t1.86,6.07v8.29c0,1.42.39,2.13,1.18,2.13s1.47-1.41,1.64-4.21l.61,0q-.17,3.6-1.35,4.94a4.92,4.92,0,0,1-3.88,1.35c-3.27,0-5.15-1-5.64-3a4.39,4.39,0,0,1-1.59,2.29,5.48,5.48,0,0,1-3.11.73q-6,0-6-4.94a4,4,0,0,1,2.3-4A17.42,17.42,0,0,1,407.6,270.48Zm-1.41,7.77a.86.86,0,0,0,.86.61c.42,0,.82-.35,1.19-1a6.36,6.36,0,0,0,.55-2.88v-3.8h-.29q-2.53,0-2.53,3.71v.66A10.18,10.18,0,0,0,406.19,278.25Z"/><path class="cls-7" d="M420.06,249.44h10v29.91h2.29v.73H420.23v-.73h2.24V250.18h-2.41Z"/><path class="cls-7" d="M280,320.94l-.45-2.86q-1.4,3.27-5.64,3.27a6.5,6.5,0,0,1-5.46-2.54q-1.94-2.52-1.94-7.55,0-10.18,8.09-10.18,3.6,0,4.74,2V291h-2.49v-.73h10.21v29.9h2v.74Zm-5.15-2.76a1.7,1.7,0,0,0,1.65,1.41,2.63,2.63,0,0,0,2.09-1.06,4.89,4.89,0,0,0,.87-3.15v-8.9a6,6,0,0,0-.69-3,2.22,2.22,0,0,0-2-1.22c-.9,0-1.51.6-1.84,1.8a27.09,27.09,0,0,0-.49,6.29v2.12A22.81,22.81,0,0,0,274.87,318.18Z"/><path class="cls-7" d="M300,311.34h1.19v-3.15a20.59,20.59,0,0,0-.43-5.21,1.66,1.66,0,0,0-1.66-1.32,2.4,2.4,0,0,0-1.32.38,1.21,1.21,0,0,0-.6,1.06,4.14,4.14,0,0,0,.25,1.37h1a5.8,5.8,0,0,1,.33,2.07,2.67,2.67,0,0,1-1,2.08,3.79,3.79,0,0,1-2.58.88q-3.51,0-3.51-3.39,0-5,8.54-5,4.86,0,6.72,1.66t1.86,6.06v8.3c0,1.42.39,2.12,1.18,2.12s1.47-1.4,1.64-4.21l.61.05q-.17,3.58-1.35,4.94a4.92,4.92,0,0,1-3.88,1.35q-4.9,0-5.64-3a4.35,4.35,0,0,1-1.59,2.29,5.47,5.47,0,0,1-3.11.74q-6,0-6-5a4,4,0,0,1,2.3-4A17.62,17.62,0,0,1,300,311.34Zm-1.41,7.76a.85.85,0,0,0,.86.61c.42,0,.82-.34,1.19-1a6.3,6.3,0,0,0,.55-2.88V312h-.29q-2.53,0-2.53,3.72v.65A10.18,10.18,0,0,0,298.54,319.1Z"/><path class="cls-7" d="M312.66,301.49h9.85v3.76a6.72,6.72,0,0,1,2-3,6.13,6.13,0,0,1,4.08-1.15q6.33,0,6.33,6.83V320.2h2.29v.74H325.65v-.74h1.68V306.92a9.32,9.32,0,0,0-.33-3.16,1.19,1.19,0,0,0-1.19-.72c-.87,0-1.64.58-2.3,1.72a8.1,8.1,0,0,0-1,4.17V320.2h1.75v.74h-11.6v-.74h2.25v-18h-2.25Z"/><path class="cls-7" d="M349.18,301.82a2.66,2.66,0,0,0-2.57,2,19.22,19.22,0,0,0-.78,6.49v2.13a13.59,13.59,0,0,0,.9,5.8A3.38,3.38,0,0,0,350,320a4.84,4.84,0,0,0,3.84-1.64,7.88,7.88,0,0,0,1.84-3.71l.73.08a8.18,8.18,0,0,1-2.86,5.06,9.47,9.47,0,0,1-5.84,1.6q-4.74,0-7.27-2.56T338,311.32c0-3.29,1-5.81,2.88-7.58s4.59-2.66,8-2.66a9.28,9.28,0,0,1,5.55,1.41,4.24,4.24,0,0,1,1.92,3.54,4.39,4.39,0,0,1-.92,3.1,3.3,3.3,0,0,1-2.53,1,3.73,3.73,0,0,1-2.59-.86,3.15,3.15,0,0,1-1-2.53,5.31,5.31,0,0,1,.2-1.47h1.35a4.5,4.5,0,0,0,.28-1.47A1.73,1.73,0,0,0,349.18,301.82Z"/><path class="cls-7" d="M360.31,318.63a10.43,10.43,0,0,1-2.63-7.56q0-4.85,3-7.41a11.08,11.08,0,0,1,7.54-2.58q9.27,0,8.91,9.32H365.57V312a13.86,13.86,0,0,0,1,6.05,3.63,3.63,0,0,0,3.55,2q4.74,0,6.21-5.07l.74.13a8.44,8.44,0,0,1-2.8,4.57q-2,1.64-6.07,1.64Q363,321.35,360.31,318.63Zm5.3-9.05h4.2v-2a17.83,17.83,0,0,0-.38-4.52,1.53,1.53,0,0,0-1.56-1.2,1.81,1.81,0,0,0-1.71,1.29,12.34,12.34,0,0,0-.55,4.43Z"/><path class="cls-7" d="M285.65,386.79q-6.33,0-6.33,12.22v3.22q0,5.81,1.67,9.09a5.31,5.31,0,0,0,4.95,3.29c3,0,5.75-2.91,8.25-8.74h.74l-.29,9.11h-.45a2.23,2.23,0,0,0-.45-.63.81.81,0,0,0-.59-.19,23.13,23.13,0,0,0-3,.64,22,22,0,0,1-5.23.63q-6.66,0-10.32-3.6c-2.44-2.39-3.65-6-3.65-10.8s1.27-8.52,3.82-11.14,6-3.92,10.27-3.92a18.62,18.62,0,0,1,4.88.64,20.26,20.26,0,0,0,2.8.63.89.89,0,0,0,.61-.18,2.47,2.47,0,0,0,.45-.64h.45l.33,8.87h-.74a24.62,24.62,0,0,0-3.77-6.31A5.83,5.83,0,0,0,285.65,386.79Z"/><path class="cls-7" d="M300.44,412.81q-2.61-2.61-2.61-7.49c0-3.26.93-5.76,2.8-7.52s4.48-2.63,7.86-2.63,5.9.81,7.56,2.43,2.49,4.09,2.49,7.41q0,10.42-10.38,10.42C304.76,415.43,302.18,414.56,300.44,412.81ZM310.7,407V403.5a28.18,28.18,0,0,0-.43-5.78c-.29-1.21-.95-1.82-2-1.82a2,2,0,0,0-1.45.51,3.11,3.11,0,0,0-.8,1.7,30.5,30.5,0,0,0-.37,5.59v3.19a28.55,28.55,0,0,0,.27,5.35,8.51,8.51,0,0,0,.55,1.47,1.73,1.73,0,0,0,1.76,1,2.09,2.09,0,0,0,2.08-1.83A28.68,28.68,0,0,0,310.7,407Z"/><path class="cls-7" d="M319.77,395.57h9.84v3.76a6.89,6.89,0,0,1,2-3,6.24,6.24,0,0,1,4.09-1.14q6.33,0,6.33,6.82v12.3h2.29V415H332.76v-.73h1.67V401a9.73,9.73,0,0,0-.32-3.17,1.19,1.19,0,0,0-1.19-.71,2.81,2.81,0,0,0-2.31,1.71,8.22,8.22,0,0,0-1,4.17v11.28h1.76V415h-11.6v-.73H322v-18h-2.24Z"/><path class="cls-7" d="M346.69,409.18V396.31h-2.25v-.74h2.25V390.3l7.6-1.88v7.15h5.31v.74h-5.31v13.77a7.56,7.56,0,0,0,.39,2.82,1.57,1.57,0,0,0,1.61.9,2.66,2.66,0,0,0,2.15-1.23,7.12,7.12,0,0,0,1.2-3.35l.7.08a7.92,7.92,0,0,1-1.8,4.47q-1.47,1.67-4.86,1.66a8.54,8.54,0,0,1-5.19-1.35Q346.69,412.73,346.69,409.18Z"/><path class="cls-7" d="M363.58,412.71a10.43,10.43,0,0,1-2.63-7.56c0-3.22,1-5.7,3-7.41a11.05,11.05,0,0,1,7.54-2.57q9.27,0,8.9,9.31H368.83v1.59a14,14,0,0,0,1,6.05,3.66,3.66,0,0,0,3.56,2q4.74,0,6.21-5.06l.73.12a8.46,8.46,0,0,1-2.79,4.58c-1.35,1.08-3.37,1.63-6.07,1.63C368,415.43,365.34,414.52,363.58,412.71Zm5.29-9h4.21v-2a17.09,17.09,0,0,0-.39-4.51,1.52,1.52,0,0,0-1.55-1.21,1.81,1.81,0,0,0-1.71,1.29,12.32,12.32,0,0,0-.56,4.43Z"/><path class="cls-7" d="M381.83,395.57h9.84v3.76c.9-2.78,2.88-4.16,5.95-4.16s4.92,1.47,5.57,4.41a5.8,5.8,0,0,1,6-4.41q6,0,6,6.82v12.3h2.29V415H406.17v-.73h1.43V401c0-2.07-.17-3.28-.53-3.64a.88.88,0,0,0-.65-.24c-.79,0-1.49.53-2.08,1.59a8.13,8.13,0,0,0-.9,4v11.53h1.47V415h-10.5v-.73h1.43V401c0-2.07-.18-3.28-.53-3.64a.91.91,0,0,0-.66-.24c-.76,0-1.45.58-2.06,1.73a8.8,8.8,0,0,0-.92,4.15v11.28h1.47V415H381.83v-.73h2.24v-18h-2.24Z"/><path class="cls-7" d="M427.87,395.57v3.23a5.68,5.68,0,0,1,5.64-3.63A6.46,6.46,0,0,1,439,397.7q1.94,2.54,1.94,7.68t-2.1,7.6c-1.41,1.63-3.51,2.45-6.32,2.45a6.81,6.81,0,0,1-2.94-.49,3.9,3.9,0,0,1-1.59-1.51V424h5.27v.73H418.1V424h2.25v-27.7h-2.16v-.74Zm4.74,2.8c-.28-1-.81-1.45-1.6-1.45a2.6,2.6,0,0,0-2.12,1.53,7.79,7.79,0,0,0-.94,4.11V410a6,6,0,0,0,.69,3,2.22,2.22,0,0,0,2.05,1.22c.9,0,1.51-.59,1.84-1.79a27.84,27.84,0,0,0,.49-6.3V404A25.3,25.3,0,0,0,432.61,398.37Z"/><path class="cls-7" d="M445.07,412.81q-2.62-2.61-2.62-7.49c0-3.26.93-5.76,2.8-7.52s4.49-2.63,7.87-2.63,5.89.81,7.55,2.43,2.5,4.09,2.5,7.41q0,10.42-10.38,10.42Q447.67,415.43,445.07,412.81ZM455.32,407V403.5a27.47,27.47,0,0,0-.43-5.78c-.28-1.21-.94-1.82-2-1.82a2.05,2.05,0,0,0-1.45.51,3.18,3.18,0,0,0-.8,1.7,31.64,31.64,0,0,0-.36,5.59v3.19a30,30,0,0,0,.26,5.35,9.42,9.42,0,0,0,.55,1.47,1.74,1.74,0,0,0,1.76,1,2.08,2.08,0,0,0,2.08-1.83A28,28,0,0,0,455.32,407Z"/><path class="cls-7" d="M478,396.72c-1,0-1.9.65-2.66,2a9.12,9.12,0,0,0-1.14,4.66v11h2.9V415H464.31v-.73h2.25v-18h-2.25v-.74h9.85v3.93a5.52,5.52,0,0,1,2-3.21,5.6,5.6,0,0,1,3.43-1.12,4.53,4.53,0,0,1,3.13,1.08,3.9,3.9,0,0,1,1.2,3.06,4.61,4.61,0,0,1-.9,3.05,3.43,3.43,0,0,1-2.75,1.06,3.13,3.13,0,0,1-2.74-1.23,3.78,3.78,0,0,1-.23-3.39h1.47C479.49,397.41,479.21,396.72,478,396.72Z"/><path class="cls-7" d="M493.73,405.42h1.18v-3.15a20.17,20.17,0,0,0-.43-5.21,1.65,1.65,0,0,0-1.65-1.32,2.43,2.43,0,0,0-1.33.38,1.21,1.21,0,0,0-.59,1.07,4.21,4.21,0,0,0,.24,1.37h1a5.74,5.74,0,0,1,.33,2.06,2.66,2.66,0,0,1-1,2.08,3.79,3.79,0,0,1-2.58.88q-3.51,0-3.51-3.39,0-5,8.54-5,4.86,0,6.72,1.65c1.24,1.1,1.86,3.13,1.86,6.07v8.29c0,1.42.39,2.12,1.18,2.12s1.47-1.4,1.64-4.2l.61,0q-.17,3.58-1.35,4.94a4.92,4.92,0,0,1-3.88,1.35q-4.9,0-5.64-3a4.36,4.36,0,0,1-1.59,2.28,5.44,5.44,0,0,1-3.1.74c-4,0-6.05-1.65-6.05-4.94a4,4,0,0,1,2.31-4A17.59,17.59,0,0,1,493.73,405.42Zm-1.41,7.76a.84.84,0,0,0,.85.62c.43,0,.82-.35,1.19-1.05a6.17,6.17,0,0,0,.55-2.88v-3.8h-.29c-1.68,0-2.53,1.24-2.53,3.72v.65A10,10,0,0,0,492.32,413.18Z"/><path class="cls-7" d="M520,396.72c-1,0-1.89.65-2.65,2a9.12,9.12,0,0,0-1.14,4.66v11h2.9V415H506.35v-.73h2.25v-18h-2.25v-.74h9.85v3.93a5.52,5.52,0,0,1,2-3.21,5.6,5.6,0,0,1,3.43-1.12,4.53,4.53,0,0,1,3.13,1.08,3.9,3.9,0,0,1,1.2,3.06,4.61,4.61,0,0,1-.9,3.05,3.44,3.44,0,0,1-2.76,1.06,3.11,3.11,0,0,1-2.73-1.23,3.78,3.78,0,0,1-.23-3.39h1.47C521.53,397.41,521.25,396.72,520,396.72Z"/><path class="cls-7" d="M525.76,396.31v-.74H537.6v.74h-2.2l4.45,13.56,4.74-13.56h-2.74v-.74h5.76v.74h-2l-7.64,22a13.37,13.37,0,0,1-3,5.37,5.85,5.85,0,0,1-4.09,1.53,5.93,5.93,0,0,1-3.8-1.1,3.45,3.45,0,0,1-1.39-2.82,3.53,3.53,0,0,1,.9-2.61,3.2,3.2,0,0,1,2.37-.9q3.39,0,3.39,2.82a5.57,5.57,0,0,1-.24,1.47h-1.43a2.17,2.17,0,0,0-.08,1.55,1,1,0,0,0,1.1.61,3.77,3.77,0,0,0,3-1.65,17.86,17.86,0,0,0,2.49-5.05L538,415h-3.59l-7-18.71Z"/><path class="cls-7" d="M283.61,455.88l-.45-2.86c-.93,2.17-2.8,3.26-5.64,3.26a6.46,6.46,0,0,1-5.45-2.53q-1.94-2.53-1.94-7.56,0-10.17,8.09-10.17,3.58,0,4.74,2V426h-2.5v-.74h10.22v29.91h2v.74Zm-5.15-2.76a1.7,1.7,0,0,0,1.66,1.41,2.66,2.66,0,0,0,2.08-1.06,4.83,4.83,0,0,0,.88-3.15v-8.91a5.89,5.89,0,0,0-.7-3,2.21,2.21,0,0,0-2-1.23c-.9,0-1.51.6-1.84,1.8a27.79,27.79,0,0,0-.49,6.29v2.13A22.81,22.81,0,0,0,278.46,453.12Z"/><path class="cls-7" d="M303.55,446.27h1.18v-3.14a20.06,20.06,0,0,0-.43-5.21,1.64,1.64,0,0,0-1.65-1.33,2.36,2.36,0,0,0-1.33.39,1.19,1.19,0,0,0-.59,1.06,4.16,4.16,0,0,0,.24,1.37h1a6,6,0,0,1,.32,2.06,2.68,2.68,0,0,1-1,2.09,3.83,3.83,0,0,1-2.57.88q-3.53,0-3.52-3.4,0-5,8.54-5,4.86,0,6.72,1.65t1.86,6.07V452c0,1.41.4,2.12,1.19,2.12s1.47-1.4,1.63-4.21l.61,0q-.17,3.6-1.35,4.95a5,5,0,0,1-3.88,1.34c-3.27,0-5.15-1-5.64-3a4.35,4.35,0,0,1-1.59,2.29,5.44,5.44,0,0,1-3.1.73c-4,0-6.05-1.64-6.05-4.94a4,4,0,0,1,2.31-4A17.56,17.56,0,0,1,303.55,446.27ZM302.14,454a.84.84,0,0,0,.86.61c.42,0,.81-.35,1.18-1a6.23,6.23,0,0,0,.55-2.88v-3.8h-.28q-2.54,0-2.54,3.72v.65A10,10,0,0,0,302.14,454Z"/><path class="cls-7" d="M316.25,436.43h9.85v3.76a6.75,6.75,0,0,1,2-3,6.22,6.22,0,0,1,4.09-1.14q6.33,0,6.33,6.82v12.3h2.29v.74H329.24v-.74h1.68V441.86a9.28,9.28,0,0,0-.33-3.16,1.19,1.19,0,0,0-1.18-.72c-.87,0-1.64.57-2.31,1.72a8.09,8.09,0,0,0-1,4.16v11.28h1.76v.74H316.25v-.74h2.25v-18h-2.25Z"/><path class="cls-7" d="M352.78,436.76a2.67,2.67,0,0,0-2.58,2,19.24,19.24,0,0,0-.77,6.49v2.13a13.62,13.62,0,0,0,.9,5.8,3.36,3.36,0,0,0,3.3,1.75,4.83,4.83,0,0,0,3.84-1.63,7.78,7.78,0,0,0,1.84-3.72l.74.08a8.23,8.23,0,0,1-2.86,5.07,9.55,9.55,0,0,1-5.84,1.59c-3.16,0-5.59-.85-7.27-2.55s-2.54-4.19-2.54-7.48,1-5.8,2.88-7.57,4.6-2.66,8-2.66a9.31,9.31,0,0,1,5.56,1.41,4.24,4.24,0,0,1,1.92,3.53,4.46,4.46,0,0,1-.92,3.11,3.32,3.32,0,0,1-2.54,1,3.8,3.8,0,0,1-2.59-.86,3.2,3.2,0,0,1-1-2.53,5.72,5.72,0,0,1,.2-1.47h1.35a4.59,4.59,0,0,0,.29-1.47A1.73,1.73,0,0,0,352.78,436.76Z"/><path class="cls-7" d="M363.91,453.57q-2.64-2.71-2.64-7.56t3-7.42a11.08,11.08,0,0,1,7.53-2.57q9.28,0,8.91,9.31H369.16v1.6a14,14,0,0,0,1,6,3.63,3.63,0,0,0,3.55,2q4.74,0,6.21-5.07l.74.12a8.43,8.43,0,0,1-2.8,4.58q-2,1.64-6.06,1.63C368.3,456.28,365.67,455.38,363.91,453.57Zm5.29-9.05h4.21v-2A17.18,17.18,0,0,0,373,438a1.53,1.53,0,0,0-1.55-1.2,1.81,1.81,0,0,0-1.72,1.28,12.44,12.44,0,0,0-.55,4.44Z"/><polygon class="cls-8" points="702.6 617.43 701.28 648.08 725.77 666.55 696.22 674.76 686.23 703.77 669.28 678.19 638.61 677.66 657.69 653.64 648.73 624.3 677.47 635.03 702.6 617.43"/><polygon class="cls-9" points="1149.37 109.24 1140.29 138.54 1159.29 162.63 1128.62 163.06 1111.58 188.57 1101.69 159.53 1072.17 151.21 1096.73 132.84 1095.52 102.18 1120.59 119.86 1149.37 109.24"/><polygon class="cls-10" points="1172.37 262.06 1145.73 277.27 1143.16 307.84 1120.46 287.21 1090.59 294.21 1103.2 266.24 1087.31 240 1117.81 243.35 1137.86 220.13 1144.09 250.17 1172.37 262.06"/><path class="cls-7" d="M755.63,648.87h21.24l.41,8.5h-.73q-1.51-4.41-3.5-6c-1.32-1.06-3.28-1.6-5.9-1.6H766v13.28h1.84a4.21,4.21,0,0,0,3.26-1.43,7.9,7.9,0,0,0,1.8-3.92h.61v12.09h-.69a9.71,9.71,0,0,0-1.82-4.37,4,4,0,0,0-3.16-1.31H766v12.46h5.06v.9H755.63v-.9H758v-26.8h-2.41Z"/><path class="cls-7" d="M780.26,675.27c-1.74-1.75-2.61-4.24-2.61-7.5s.93-5.76,2.8-7.52,4.49-2.63,7.86-2.63,5.9.81,7.56,2.43,2.49,4.09,2.49,7.41q0,10.42-10.37,10.42C784.58,677.88,782,677,780.26,675.27Zm10.26-5.85V666a27.47,27.47,0,0,0-.43-5.78c-.29-1.21-1-1.82-2-1.82a2.05,2.05,0,0,0-1.45.51,3.22,3.22,0,0,0-.8,1.7,31.56,31.56,0,0,0-.37,5.6v3.18a28.69,28.69,0,0,0,.27,5.36,9.42,9.42,0,0,0,.55,1.47,1.75,1.75,0,0,0,1.76,1,2.09,2.09,0,0,0,2.08-1.84A27.82,27.82,0,0,0,790.52,669.42Z"/><path class="cls-7" d="M799.34,646.83h10v29.91h2.29v.73H799.51v-.73h2.24V647.57h-2.41Z"/><path class="cls-7" d="M825.78,677.47v-.73h1.88L823,667.26l-.78.2v9.28h1.88v.73H812.42v-.73h2.24V647.57h-2.41v-.74h10v19.82l.66-.25,9.19-7.64h-3.84V658h8.05v.73h-2.86l-4.86,4.13,7.06,13.85h1.47v.73Z"/><path class="cls-7" d="M859,677.47l-.45-2.86q-1.38,3.27-5.64,3.27a6.46,6.46,0,0,1-5.45-2.53q-1.94-2.54-1.94-7.56,0-10.17,8.09-10.17,3.6,0,4.74,2v-12h-2.49v-.74h10.21v29.91h2v.73Zm-5.15-2.75a1.71,1.71,0,0,0,1.66,1.41,2.62,2.62,0,0,0,2.08-1.07,4.8,4.8,0,0,0,.88-3.14V663a6,6,0,0,0-.69-3,2.23,2.23,0,0,0-2-1.23q-1.35,0-1.83,1.8a27.05,27.05,0,0,0-.5,6.29V669A22.81,22.81,0,0,0,853.84,674.72Z"/><path class="cls-7" d="M878.93,667.87h1.18v-3.14a20.06,20.06,0,0,0-.43-5.21,1.64,1.64,0,0,0-1.65-1.33,2.38,2.38,0,0,0-1.33.39,1.21,1.21,0,0,0-.59,1.06,4.16,4.16,0,0,0,.24,1.37h1a6,6,0,0,1,.32,2.06,2.68,2.68,0,0,1-1,2.09,3.83,3.83,0,0,1-2.57.87c-2.34,0-3.52-1.13-3.52-3.39q0-5,8.54-5,4.86,0,6.72,1.65t1.86,6.07v8.29c0,1.42.4,2.13,1.19,2.13s1.47-1.41,1.63-4.21l.61,0q-.15,3.6-1.34,4.94a4.93,4.93,0,0,1-3.88,1.35c-3.27,0-5.15-1-5.64-3a4.46,4.46,0,0,1-1.6,2.29,5.42,5.42,0,0,1-3.1.73q-6,0-6.05-4.94a4,4,0,0,1,2.31-4A17.39,17.39,0,0,1,878.93,667.87Zm-1.41,7.77a.86.86,0,0,0,.86.61c.42,0,.81-.35,1.18-1a6.23,6.23,0,0,0,.55-2.88v-3.8h-.28q-2.54,0-2.54,3.71v.66A10.08,10.08,0,0,0,877.52,675.64Z"/><path class="cls-7" d="M891.63,658h9.85v3.76a6.78,6.78,0,0,1,2-3,6.22,6.22,0,0,1,4.09-1.14q6.33,0,6.33,6.82v12.3h2.29v.73H904.63v-.73h1.67V663.46a9.77,9.77,0,0,0-.32-3.17,1.21,1.21,0,0,0-1.19-.71c-.87,0-1.64.57-2.31,1.72a8.09,8.09,0,0,0-1,4.16v11.28h1.76v.73H891.63v-.73h2.25v-18h-2.25Z"/><path class="cls-7" d="M928.16,658.35a2.66,2.66,0,0,0-2.57,2,19.18,19.18,0,0,0-.78,6.49v2.12a13.64,13.64,0,0,0,.9,5.81,3.37,3.37,0,0,0,3.31,1.75,4.86,4.86,0,0,0,3.84-1.63,8,8,0,0,0,1.84-3.72l.73.08a8.26,8.26,0,0,1-2.86,5.07,9.53,9.53,0,0,1-5.84,1.59q-4.74,0-7.27-2.55c-1.69-1.7-2.54-4.2-2.54-7.48s1-5.8,2.88-7.58,4.6-2.65,8-2.65a9.29,9.29,0,0,1,5.56,1.41,4.24,4.24,0,0,1,1.92,3.53,4.46,4.46,0,0,1-.92,3.11,3.31,3.31,0,0,1-2.53,1,3.83,3.83,0,0,1-2.6-.86,3.2,3.2,0,0,1-1-2.53,5.33,5.33,0,0,1,.21-1.47h1.34a4.59,4.59,0,0,0,.29-1.47A1.74,1.74,0,0,0,928.16,658.35Z"/><path class="cls-7" d="M939.29,675.17c-1.76-1.82-2.63-4.33-2.63-7.56s1-5.7,3-7.42a11.1,11.1,0,0,1,7.54-2.57q9.27,0,8.9,9.31H944.54v1.6a14,14,0,0,0,1,6,3.64,3.64,0,0,0,3.56,2q4.74,0,6.21-5.07l.73.12a8.47,8.47,0,0,1-2.8,4.58c-1.34,1.09-3.37,1.63-6.06,1.63C943.68,677.88,941.05,677,939.29,675.17Zm5.29-9h4.21v-2a17.14,17.14,0,0,0-.39-4.51,1.53,1.53,0,0,0-1.55-1.21,1.82,1.82,0,0,0-1.72,1.29,12.65,12.65,0,0,0-.55,4.43Z"/><path class="cls-7" d="M1188.38,100.43h12.46v.78h-2.25v27h2.25V129h-12.46v-.78h2.24v-27h-2.24Z"/><path class="cls-7" d="M1202.27,109.58h9.84v3.76q1.35-4.17,6-4.17t5.57,4.42a5.81,5.81,0,0,1,6-4.42q6,0,6,6.83v12.29h2.29V129h-11.31v-.74h1.43V115c0-2.07-.18-3.29-.54-3.64a.89.89,0,0,0-.65-.25c-.79,0-1.48.54-2.08,1.6a8.13,8.13,0,0,0-.9,4v11.52h1.47V129h-10.5v-.74h1.43V115c0-2.07-.18-3.29-.53-3.64a.91.91,0,0,0-.66-.25c-.76,0-1.45.58-2.06,1.74a8.8,8.8,0,0,0-.92,4.15v11.27h1.47V129h-11.31v-.74h2.24v-18h-2.24Z"/><path class="cls-7" d="M1238.54,109.58h9.85v3.76q1.35-4.17,5.95-4.17t5.57,4.42a5.8,5.8,0,0,1,6-4.42q6,0,6,6.83v12.29h2.29V129h-11.32v-.74h1.43V115c0-2.07-.17-3.29-.53-3.64a.89.89,0,0,0-.65-.25c-.79,0-1.49.54-2.08,1.6a8.13,8.13,0,0,0-.9,4v11.52h1.47V129h-10.5v-.74h1.43V115c0-2.07-.18-3.29-.53-3.64a.93.93,0,0,0-.66-.25c-.76,0-1.45.58-2.06,1.74a8.8,8.8,0,0,0-.92,4.15v11.27h1.47V129h-11.32v-.74h2.25v-18h-2.25Z"/><path class="cls-7" d="M1277.66,126.72a10.43,10.43,0,0,1-2.63-7.56c0-3.23,1-5.7,3-7.41a11.06,11.06,0,0,1,7.54-2.58q9.27,0,8.9,9.32h-11.52v1.59a14,14,0,0,0,1,6,3.65,3.65,0,0,0,3.56,2q4.74,0,6.21-5.07l.73.13a8.38,8.38,0,0,1-2.8,4.57c-1.34,1.09-3.37,1.64-6.06,1.64C1282.05,129.44,1279.42,128.53,1277.66,126.72Zm5.29-9h4.21v-2a17.23,17.23,0,0,0-.39-4.52,1.52,1.52,0,0,0-1.55-1.2,1.82,1.82,0,0,0-1.72,1.29,12.57,12.57,0,0,0-.55,4.43Z"/><path class="cls-7" d="M1309.55,110.73c-1,0-1.89.65-2.66,2a9.08,9.08,0,0,0-1.14,4.65v10.95h2.9V129H1295.9v-.74h2.25v-18h-2.25v-.74h9.85v3.92a5.52,5.52,0,0,1,2-3.2,5.61,5.61,0,0,1,3.43-1.13,4.47,4.47,0,0,1,3.13,1.09,3.91,3.91,0,0,1,1.21,3.06,4.56,4.56,0,0,1-.9,3,3.42,3.42,0,0,1-2.76,1.07,3.14,3.14,0,0,1-2.74-1.23,3.79,3.79,0,0,1-.22-3.39h1.47C1311.09,111.42,1310.8,110.73,1309.55,110.73Z"/><path class="cls-7" d="M1316.58,129.44v-7.32h.49a9.73,9.73,0,0,0,2.86,5,7,7,0,0,0,4.49,1.43q4.17,0,4.17-2.66a1.84,1.84,0,0,0-1-1.71,13.67,13.67,0,0,0-4.09-1.39,16.3,16.3,0,0,1-4.66-2,5.16,5.16,0,0,1-2.24-4.66,6.76,6.76,0,0,1,2-5.09,7.21,7.21,0,0,1,5.23-1.9,10.24,10.24,0,0,1,4.12.94,3.41,3.41,0,0,0,1.19.33.94.94,0,0,0,.69-.29,4.87,4.87,0,0,0,.7-1.06h.45v6.25h-.49Q1328.34,110,1324,110a4.92,4.92,0,0,0-2.86.68,2,2,0,0,0-.94,1.69,1.47,1.47,0,0,0,.29,1q.29.35.45.51a1.93,1.93,0,0,0,.53.35c.24.12.45.22.61.28s.42.16.76.27a6.85,6.85,0,0,0,.75.21,31.34,31.34,0,0,1,4,1.2,13.65,13.65,0,0,1,2.32,1.25,5.63,5.63,0,0,1,2.25,5,6.56,6.56,0,0,1-2,5.23,8.27,8.27,0,0,1-5.6,1.78,10.83,10.83,0,0,1-4.9-1.19,1.55,1.55,0,0,0-.78-.32c-.6,0-1.18.5-1.75,1.51Z"/><path class="cls-7" d="M1333.2,109.58h10v18.71h2.29V129h-12.13v-.74h2.24v-18h-2.41Zm6.17-2.82a3.82,3.82,0,0,1-3.08-1.1,4.16,4.16,0,0,1-.92-2.74,3.73,3.73,0,0,1,1-2.69,4,4,0,0,1,3-1.07,4.49,4.49,0,0,1,3.11,1,3.51,3.51,0,0,1,1.06,2.74,3.92,3.92,0,0,1-1,2.84A4.23,4.23,0,0,1,1339.37,106.76Z"/><path class="cls-7" d="M1344.68,110.32v-.74h12.22v.74h-2.57l4.9,13.56,4.41-13.56h-2.74v-.74h5.52v.74h-1.8l-6,18.71h-4.65l-7.56-18.71Z"/><path class="cls-7" d="M1368.65,126.72Q1366,124,1366,119.16t3-7.41a11.08,11.08,0,0,1,7.54-2.58q9.27,0,8.91,9.32H1373.9v1.59a14,14,0,0,0,1,6,3.63,3.63,0,0,0,3.55,2q4.74,0,6.21-5.07l.74.13a8.44,8.44,0,0,1-2.8,4.57q-2,1.63-6.07,1.64C1373,129.44,1370.4,128.53,1368.65,126.72Zm5.29-9h4.2v-2a17.83,17.83,0,0,0-.38-4.52,1.53,1.53,0,0,0-1.56-1.2,1.82,1.82,0,0,0-1.71,1.29,12.34,12.34,0,0,0-.55,4.43Z"/><path class="cls-7" d="M1189.81,164V151.17h-2.25v-.73h2.25v-5.27l7.59-1.88v7.15h5.32v.73h-5.32v13.77a7.56,7.56,0,0,0,.39,2.82,1.58,1.58,0,0,0,1.62.9,2.65,2.65,0,0,0,2.14-1.23,7.12,7.12,0,0,0,1.21-3.35l.69.08a8,8,0,0,1-1.8,4.48q-1.47,1.65-4.86,1.65a8.54,8.54,0,0,1-5.19-1.35C1190.4,168.05,1189.81,166.41,1189.81,164Z"/><path class="cls-7" d="M1203.86,139.24h9.84v15a6.8,6.8,0,0,1,2-3,6.21,6.21,0,0,1,4.08-1.14q6.33,0,6.33,6.82v12.3h2.29v.73h-11.56v-.73h1.68V155.87a9.4,9.4,0,0,0-.33-3.17A1.2,1.2,0,0,0,1217,152c-.87,0-1.64.57-2.3,1.72a8.09,8.09,0,0,0-1,4.16v11.28h1.76v.73h-11.6v-.73h2.25V140h-2.25Z"/><path class="cls-7" d="M1231.87,167.58a10.42,10.42,0,0,1-2.64-7.56q0-4.85,3-7.42a11.12,11.12,0,0,1,7.54-2.57q9.27,0,8.91,9.31h-11.52v1.6a13.81,13.81,0,0,0,1,6,3.63,3.63,0,0,0,3.55,2.05q4.74,0,6.21-5.07l.74.12a8.47,8.47,0,0,1-2.8,4.58q-2,1.64-6.07,1.63C1236.26,170.29,1233.62,169.39,1231.87,167.58Zm5.29-9.05h4.2v-2A17.73,17.73,0,0,0,1241,152a1.54,1.54,0,0,0-1.56-1.21,1.81,1.81,0,0,0-1.71,1.29,12.41,12.41,0,0,0-.55,4.43Z"/><path class="cls-7" d="M1259.91,160.28h1.19v-3.14a20.53,20.53,0,0,0-.43-5.21,1.66,1.66,0,0,0-1.66-1.33,2.33,2.33,0,0,0-1.32.39,1.2,1.2,0,0,0-.6,1.06,3.94,3.94,0,0,0,.25,1.37h1a5.74,5.74,0,0,1,.33,2.06,2.69,2.69,0,0,1-1,2.09,3.81,3.81,0,0,1-2.57.87q-3.51,0-3.51-3.39,0-5,8.54-5,4.86,0,6.72,1.65t1.86,6.07V166c0,1.42.39,2.13,1.18,2.13s1.47-1.4,1.63-4.21l.62,0q-.17,3.6-1.35,4.94a4.92,4.92,0,0,1-3.88,1.35c-3.27,0-5.15-1-5.64-3a4.44,4.44,0,0,1-1.59,2.29,5.48,5.48,0,0,1-3.11.73q-6,0-6-4.94a4,4,0,0,1,2.31-4A17.39,17.39,0,0,1,1259.91,160.28Zm-1.41,7.77a.86.86,0,0,0,.86.61c.42,0,.82-.35,1.18-1a6.22,6.22,0,0,0,.56-2.88v-3.8h-.29q-2.54,0-2.53,3.71v.66A10.23,10.23,0,0,0,1258.5,168.05Z"/><path class="cls-7" d="M1274,164V151.17h-2.25v-.73H1274v-5.27l7.59-1.88v7.15h5.32v.73h-5.32v13.77a7.56,7.56,0,0,0,.39,2.82,1.58,1.58,0,0,0,1.62.9,2.65,2.65,0,0,0,2.14-1.23,7.12,7.12,0,0,0,1.21-3.35l.69.08a8,8,0,0,1-1.8,4.48q-1.47,1.65-4.86,1.65a8.54,8.54,0,0,1-5.19-1.35C1274.56,168.05,1274,166.41,1274,164Z"/><path class="cls-7" d="M1301.66,151.58c-1,0-1.89.65-2.65,2a9.12,9.12,0,0,0-1.14,4.66v11h2.9v.73H1288v-.73h2.25v-18H1288v-.73h9.85v3.92a5.52,5.52,0,0,1,2-3.21,5.6,5.6,0,0,1,3.43-1.12,4.49,4.49,0,0,1,3.12,1.08,3.88,3.88,0,0,1,1.21,3.06,4.59,4.59,0,0,1-.9,3.05,3.41,3.41,0,0,1-2.76,1.06,3.13,3.13,0,0,1-2.73-1.22,3.8,3.8,0,0,1-.23-3.4h1.47C1303.2,152.28,1302.92,151.58,1301.66,151.58Z"/><path class="cls-7" d="M1310.88,167.58a10.42,10.42,0,0,1-2.64-7.56q0-4.85,3-7.42a11.12,11.12,0,0,1,7.54-2.57q9.27,0,8.91,9.31h-11.52v1.6a14,14,0,0,0,1,6,3.63,3.63,0,0,0,3.55,2.05q4.74,0,6.21-5.07l.74.12a8.47,8.47,0,0,1-2.8,4.58q-2,1.64-6.07,1.63C1315.27,170.29,1312.63,169.39,1310.88,167.58Zm5.29-9.05h4.21v-2A17.14,17.14,0,0,0,1320,152a1.54,1.54,0,0,0-1.55-1.21,1.82,1.82,0,0,0-1.72,1.29,12.41,12.41,0,0,0-.55,4.43Z"/><path class="cls-7" d="M1204.89,245.68h10.91v.78h-2.25v27h2.25v.78h-12.47v-.78h2.25V248h-.16l-6.13,26.31h-5.11L1187,247.85h-.16V273.5h2.25v.78h-5.56v-.78h2.25v-27h-2.25v-.78h11l5.43,21Z"/><path class="cls-7" d="M1217.06,254.83h10v18.72h2.29v.73h-12.13v-.73h2.24v-18h-2.41Zm6.17-2.81a3.79,3.79,0,0,1-3.08-1.11,4.09,4.09,0,0,1-.92-2.74,3.77,3.77,0,0,1,1-2.69,4,4,0,0,1,3-1.06,4.51,4.51,0,0,1,3.11,1,3.48,3.48,0,0,1,1.06,2.73,3.92,3.92,0,0,1-1,2.84A4.25,4.25,0,0,1,1223.23,252Z"/><path class="cls-7" d="M1244.35,262.23l4.82-6.66h-2.94v-.74h6.09v.74h-2.13l-5.31,7.52,6.66,10.46h2.13v.73H1240v-.73h2.9l-4.49-7.36-4.66,7.36h2.7v.73h-6.42v-.73h2.7l5.19-8.18-6.21-9.8h-2.37v-.74h13.81v.74h-2.86Z"/><path class="cls-7" d="M1255.49,272q-2.64-2.72-2.64-7.56t3-7.41a11.07,11.07,0,0,1,7.54-2.57q9.27,0,8.91,9.31h-11.52v1.59a14,14,0,0,0,1,6.05,3.63,3.63,0,0,0,3.55,2q4.74,0,6.21-5.06l.74.12a8.47,8.47,0,0,1-2.8,4.58c-1.35,1.08-3.37,1.63-6.07,1.63C1259.88,274.69,1257.24,273.78,1255.49,272Zm5.29-9.05h4.2v-2a17.73,17.73,0,0,0-.38-4.51,1.53,1.53,0,0,0-1.56-1.21,1.82,1.82,0,0,0-1.71,1.29,12.37,12.37,0,0,0-.55,4.43Z"/><path class="cls-7" d="M1287.62,274.28l-.45-2.86q-1.39,3.27-5.64,3.27a6.46,6.46,0,0,1-5.45-2.53c-1.3-1.69-1.94-4.21-1.94-7.56q0-10.17,8.08-10.17c2.4,0,4,.66,4.74,2V244.38h-2.49v-.74h10.22v29.91h2v.73Zm-5.15-2.76a1.7,1.7,0,0,0,1.65,1.41,2.63,2.63,0,0,0,2.09-1.06,4.89,4.89,0,0,0,.88-3.15v-8.9a6,6,0,0,0-.7-3,2.21,2.21,0,0,0-2-1.23c-.9,0-1.51.6-1.84,1.8a27.15,27.15,0,0,0-.49,6.29v2.12A22.81,22.81,0,0,0,1282.47,271.52Z"/><path class="cls-7" d="M1305.1,254.83H1315v3.76c.9-2.78,2.88-4.16,5.94-4.16s4.93,1.47,5.58,4.41a5.8,5.8,0,0,1,6-4.41q6,0,6,6.82v12.3h2.29v.73h-11.32v-.73h1.43V260.27c0-2.07-.18-3.28-.53-3.64a.88.88,0,0,0-.65-.24c-.79,0-1.49.53-2.09,1.59a8.13,8.13,0,0,0-.9,4v11.53h1.48v.73h-10.5v-.73h1.43V260.27c0-2.07-.18-3.28-.54-3.64a.88.88,0,0,0-.65-.24c-.76,0-1.45.58-2.06,1.73a8.68,8.68,0,0,0-.92,4.15v11.28h1.47v.73H1305.1v-.73h2.25v-18h-2.25Z"/><path class="cls-7" d="M1344.22,272c-1.76-1.81-2.63-4.33-2.63-7.56s1-5.69,3-7.41a11.05,11.05,0,0,1,7.54-2.57q9.27,0,8.9,9.31h-11.52v1.59a14,14,0,0,0,1,6.05,3.65,3.65,0,0,0,3.56,2q4.74,0,6.21-5.06l.73.12a8.47,8.47,0,0,1-2.8,4.58c-1.34,1.08-3.37,1.63-6.06,1.63C1348.61,274.69,1346,273.78,1344.22,272Zm5.29-9.05h4.21v-2a17.14,17.14,0,0,0-.39-4.51,1.52,1.52,0,0,0-1.55-1.21,1.82,1.82,0,0,0-1.72,1.29,12.61,12.61,0,0,0-.55,4.43Z"/><path class="cls-7" d="M1376.35,274.28l-.45-2.86q-1.38,3.27-5.63,3.27a6.47,6.47,0,0,1-5.46-2.53q-1.93-2.54-1.94-7.56,0-10.17,8.09-10.17c2.4,0,4,.66,4.74,2V244.38h-2.49v-.74h10.21v29.91h2v.73Zm-5.14-2.76a1.69,1.69,0,0,0,1.65,1.41,2.61,2.61,0,0,0,2.08-1.06,4.83,4.83,0,0,0,.88-3.15v-8.9a6,6,0,0,0-.69-3,2.23,2.23,0,0,0-2.05-1.23c-.89,0-1.51.6-1.83,1.8a27.15,27.15,0,0,0-.49,6.29v2.12A22.81,22.81,0,0,0,1371.21,271.52Z"/><path class="cls-7" d="M1386.32,254.83h10v18.72h2.29v.73h-12.14v-.73h2.25v-18h-2.41Zm6.17-2.81a3.79,3.79,0,0,1-3.08-1.11,4.09,4.09,0,0,1-.92-2.74,3.77,3.77,0,0,1,1-2.69,4,4,0,0,1,3-1.06,4.51,4.51,0,0,1,3.11,1,3.52,3.52,0,0,1,1.06,2.73,3.92,3.92,0,0,1-1,2.84A4.25,4.25,0,0,1,1392.49,252Z"/><path class="cls-7" d="M1409.24,264.68h1.19v-3.15a20.64,20.64,0,0,0-.43-5.21,1.66,1.66,0,0,0-1.66-1.32,2.38,2.38,0,0,0-1.33.39,1.2,1.2,0,0,0-.59,1.06,4,4,0,0,0,.25,1.37h1a5.74,5.74,0,0,1,.33,2.06,2.67,2.67,0,0,1-1,2.08,3.78,3.78,0,0,1-2.57.88q-3.51,0-3.51-3.39,0-5,8.54-5,4.86,0,6.72,1.65c1.23,1.1,1.85,3.13,1.85,6.07v8.29c0,1.42.4,2.13,1.19,2.13s1.47-1.41,1.63-4.21l.62,0q-.17,3.59-1.35,4.94a4.93,4.93,0,0,1-3.88,1.35q-4.9,0-5.64-3A4.47,4.47,0,0,1,1409,274a5.47,5.47,0,0,1-3.11.74q-6,0-6.05-4.94a4,4,0,0,1,2.31-4A17.59,17.59,0,0,1,1409.24,264.68Zm-1.41,7.76a.86.86,0,0,0,.86.62c.42,0,.82-.35,1.18-1.05a6.16,6.16,0,0,0,.56-2.88v-3.8h-.29q-2.54,0-2.53,3.72v.65A10.18,10.18,0,0,0,1407.83,272.44Z"/><polygon class="cls-11" points="1153.97 348.3 1152.65 378.95 1177.15 397.41 1147.59 405.63 1137.6 434.63 1120.66 409.06 1089.99 408.52 1109.07 384.5 1100.1 355.17 1128.84 365.89 1153.97 348.3"/><polygon class="cls-12" points="1169.7 488.62 1160.63 517.92 1179.63 542.01 1148.95 542.44 1131.92 567.95 1122.03 538.91 1092.5 530.59 1117.07 512.21 1115.86 481.56 1140.92 499.24 1169.7 488.62"/><polygon class="cls-13" points="1175.93 661.25 1149.29 676.46 1146.72 707.03 1124.02 686.39 1094.15 693.4 1106.77 665.43 1090.88 639.19 1121.37 642.54 1141.42 619.32 1147.65 649.36 1175.93 661.25"/><path class="cls-7" d="M1214.13,378H1225v.78h-2.25v27.05H1225v.77h-12.46v-.77h2.25V380.27h-.17l-6.13,26.31h-5.1l-7.19-26.43h-.17v25.66h2.25v.77h-5.55v-.77H1195V378.76h-2.24V378h11l5.43,21Z"/><path class="cls-7" d="M1250,406.58h-9.31l-.45-3a5.32,5.32,0,0,1-1.94,2.51,6.76,6.76,0,0,1-3.82.88q-6.33,0-6.34-6.82v-12.3h-2.28v-.73h9.88v14a9.55,9.55,0,0,0,.35,3.23,1.38,1.38,0,0,0,1.39.77,2.29,2.29,0,0,0,1.86-1.26,6.52,6.52,0,0,0,.82-3.52v-12.5h-1.88v-.73h9.48v18.71H1250Z"/><path class="cls-7" d="M1250.62,375.94h10v29.91h2.29v.73h-12.13v-.73H1253V376.68h-2.41Z"/><path class="cls-7" d="M1265.73,400.74V387.87h-2.25v-.73h2.25v-5.27l7.6-1.88v7.15h5.31v.73h-5.31v13.77a7.56,7.56,0,0,0,.39,2.82,1.57,1.57,0,0,0,1.61.9,2.66,2.66,0,0,0,2.15-1.23,7.12,7.12,0,0,0,1.2-3.35l.7.08a8,8,0,0,1-1.8,4.48q-1.47,1.65-4.86,1.65a8.54,8.54,0,0,1-5.19-1.35Q1265.73,404.29,1265.73,400.74Z"/><path class="cls-7" d="M1279.62,387.14h10v18.71h2.29v.73h-12.14v-.73H1282v-18h-2.41Zm6.17-2.82a3.79,3.79,0,0,1-3.08-1.11,4.06,4.06,0,0,1-.92-2.73,3.77,3.77,0,0,1,1-2.7,4,4,0,0,1,3-1.06,4.51,4.51,0,0,1,3.11,1,3.53,3.53,0,0,1,1.06,2.74,3.9,3.9,0,0,1-1,2.83A4.25,4.25,0,0,1,1285.79,384.32Z"/><path class="cls-7" d="M1292.73,387.14h9.85v3.75q1.35-4.15,6-4.16t5.57,4.41a5.81,5.81,0,0,1,6-4.41q6,0,6,6.82v12.3h2.29v.73h-11.32v-.73h1.43V392.57c0-2.07-.17-3.28-.53-3.64a.88.88,0,0,0-.65-.24c-.79,0-1.49.53-2.08,1.59a8.15,8.15,0,0,0-.9,4.05v11.52h1.47v.73h-10.5v-.73h1.43V392.57c0-2.07-.18-3.28-.53-3.64a.91.91,0,0,0-.66-.24c-.76,0-1.45.58-2.06,1.73a8.8,8.8,0,0,0-.92,4.15v11.28h1.47v.73h-11.32v-.73H1295v-18h-2.25Z"/><path class="cls-7" d="M1331.85,404.27a10.42,10.42,0,0,1-2.63-7.55c0-3.23,1-5.7,3-7.42a11.1,11.1,0,0,1,7.54-2.57q9.27,0,8.9,9.31H1337.1v1.6a14,14,0,0,0,1,6,3.65,3.65,0,0,0,3.56,2c3.16,0,5.23-1.68,6.21-5.06l.73.12a8.46,8.46,0,0,1-2.79,4.58q-2,1.63-6.07,1.63C1336.24,407,1333.61,406.09,1331.85,404.27Zm5.29-9h4.21v-2a17.14,17.14,0,0,0-.39-4.51,1.53,1.53,0,0,0-1.55-1.21,1.81,1.81,0,0,0-1.71,1.29,12.36,12.36,0,0,0-.56,4.43Z"/><path class="cls-7" d="M1364,406.58l-.44-2.86q-1.39,3.27-5.64,3.27a6.49,6.49,0,0,1-5.46-2.53q-1.93-2.54-1.94-7.56,0-10.17,8.09-10.17,3.6,0,4.74,2V376.68h-2.49v-.74h10.21v29.91h2v.73Zm-5.14-2.76a1.7,1.7,0,0,0,1.65,1.41,2.63,2.63,0,0,0,2.09-1.06,4.86,4.86,0,0,0,.87-3.14v-8.91a6,6,0,0,0-.69-3,2.21,2.21,0,0,0-2-1.23c-.9,0-1.52.6-1.84,1.8a27.21,27.21,0,0,0-.49,6.29v2.13A22.66,22.66,0,0,0,1358.84,403.82Z"/><path class="cls-7" d="M1374,387.14h10v18.71h2.29v.73h-12.13v-.73h2.24v-18H1374Zm6.17-2.82a3.79,3.79,0,0,1-3.08-1.11,4.06,4.06,0,0,1-.92-2.73,3.77,3.77,0,0,1,1-2.7,4,4,0,0,1,3-1.06,4.49,4.49,0,0,1,3.11,1,3.49,3.49,0,0,1,1.06,2.74,3.9,3.9,0,0,1-1,2.83A4.24,4.24,0,0,1,1380.12,384.32Z"/><path class="cls-7" d="M1396.87,397h1.19v-3.14a20.53,20.53,0,0,0-.43-5.21,1.66,1.66,0,0,0-1.66-1.33,2.33,2.33,0,0,0-1.32.39,1.2,1.2,0,0,0-.6,1.06,3.94,3.94,0,0,0,.25,1.37h1a5.74,5.74,0,0,1,.33,2.06,2.69,2.69,0,0,1-1,2.09,3.85,3.85,0,0,1-2.58.87q-3.51,0-3.51-3.39,0-5,8.54-5,4.86,0,6.72,1.65t1.86,6.07v8.29c0,1.42.39,2.13,1.18,2.13s1.47-1.41,1.64-4.21l.61,0c-.11,2.4-.56,4-1.35,4.94a4.92,4.92,0,0,1-3.88,1.35q-4.9,0-5.64-3a4.39,4.39,0,0,1-1.59,2.29,5.48,5.48,0,0,1-3.11.73q-6,0-6-4.94a4,4,0,0,1,2.3-4A17.62,17.62,0,0,1,1396.87,397Zm-1.41,7.76a.86.86,0,0,0,.86.62c.42,0,.82-.35,1.19-1a6.36,6.36,0,0,0,.55-2.88v-3.8h-.29q-2.54,0-2.53,3.71V402A10.09,10.09,0,0,0,1395.46,404.74Z"/><path class="cls-7" d="M1247.86,514.79h10.91v.77h-2.25v27.05h2.25v.78h-12.46v-.78h2.25V517.07h-.17l-6.12,26.32h-5.11L1230,517h-.17v25.66h2.25v.78h-5.55v-.78h2.24V515.56h-2.24v-.77h11l5.43,21Z"/><path class="cls-7" d="M1283.69,543.39h-9.31l-.45-3a5.4,5.4,0,0,1-1.94,2.52,6.85,6.85,0,0,1-3.82.87q-6.33,0-6.33-6.82v-12.3h-2.29v-.73h9.88v14a9.51,9.51,0,0,0,.35,3.23,1.37,1.37,0,0,0,1.39.78,2.29,2.29,0,0,0,1.86-1.27,6.49,6.49,0,0,0,.82-3.51V524.67H1272v-.73h9.48v18.71h2.24Z"/><path class="cls-7" d="M1285.45,543.79v-7.31h.49a9.85,9.85,0,0,0,2.86,5,7,7,0,0,0,4.49,1.43q4.17,0,4.17-2.66a1.87,1.87,0,0,0-1-1.72,14.14,14.14,0,0,0-4.09-1.39,15.84,15.84,0,0,1-4.65-2,5.15,5.15,0,0,1-2.25-4.65,6.75,6.75,0,0,1,2-5.09,7.19,7.19,0,0,1,5.23-1.9,10.16,10.16,0,0,1,4.13.94,3.32,3.32,0,0,0,1.18.33,1,1,0,0,0,.7-.29,4.57,4.57,0,0,0,.69-1.06h.45v6.25h-.49q-2.08-5.31-6.46-5.31a4.93,4.93,0,0,0-2.86.67,2,2,0,0,0-.94,1.7,1.47,1.47,0,0,0,.29,1q.29.35.45.51a2.41,2.41,0,0,0,.53.35l.61.28c.17.07.42.16.76.27a5.86,5.86,0,0,0,.76.2,30.72,30.72,0,0,1,4,1.21,13.69,13.69,0,0,1,2.33,1.24,5.66,5.66,0,0,1,2.24,5,6.57,6.57,0,0,1-2,5.23,8.26,8.26,0,0,1-5.59,1.77,10.86,10.86,0,0,1-4.91-1.18,1.53,1.53,0,0,0-.77-.33c-.6,0-1.19.51-1.76,1.51Z"/><path class="cls-7" d="M1302.08,523.94h10v18.71h2.28v.74h-12.13v-.74h2.25v-18h-2.41Zm6.17-2.82a3.83,3.83,0,0,1-3.09-1.1,4.16,4.16,0,0,1-.92-2.74,3.82,3.82,0,0,1,1-2.7,4,4,0,0,1,3-1.06,4.48,4.48,0,0,1,3.1,1,3.49,3.49,0,0,1,1.06,2.74,3.94,3.94,0,0,1-1,2.84A4.22,4.22,0,0,1,1308.25,521.12Z"/><path class="cls-7" d="M1326.63,524.27a2.65,2.65,0,0,0-2.57,2,19.18,19.18,0,0,0-.78,6.49v2.13a13.62,13.62,0,0,0,.9,5.8,3.38,3.38,0,0,0,3.31,1.76,4.87,4.87,0,0,0,3.84-1.64,8,8,0,0,0,1.84-3.72l.73.08a8.23,8.23,0,0,1-2.86,5.07,9.53,9.53,0,0,1-5.84,1.59q-4.74,0-7.27-2.55t-2.54-7.48c0-3.28,1-5.8,2.89-7.57s4.59-2.66,8-2.66a9.29,9.29,0,0,1,5.56,1.41,4.24,4.24,0,0,1,1.92,3.53,4.46,4.46,0,0,1-.92,3.11,3.31,3.31,0,0,1-2.53,1,3.83,3.83,0,0,1-2.6-.86,3.18,3.18,0,0,1-1-2.53,5.33,5.33,0,0,1,.21-1.47h1.35a4.55,4.55,0,0,0,.28-1.47A1.73,1.73,0,0,0,1326.63,524.27Z"/><path class="cls-7" d="M1215.62,659.22V687h-5.72l-14-26.43v25.66h2.24V687h-5.59v-.77h2.24v-27h-2.24v-.78h11.27L1214.52,679V659.22h-2.25v-.78h5.6v.78Z"/><path class="cls-7" d="M1228.49,677.44h1.18V674.3a20.06,20.06,0,0,0-.43-5.21,1.64,1.64,0,0,0-1.65-1.33,2.38,2.38,0,0,0-1.33.39,1.21,1.21,0,0,0-.59,1.06,4.16,4.16,0,0,0,.24,1.37h1a6,6,0,0,1,.32,2.06,2.68,2.68,0,0,1-1,2.09,3.83,3.83,0,0,1-2.57.87q-3.53,0-3.52-3.39,0-5,8.54-5,4.86,0,6.72,1.65t1.86,6.07v8.29c0,1.42.4,2.13,1.19,2.13s1.47-1.41,1.63-4.21l.61,0q-.17,3.6-1.34,4.94a5,5,0,0,1-3.89,1.35q-4.89,0-5.63-3a4.46,4.46,0,0,1-1.6,2.29,5.44,5.44,0,0,1-3.1.73q-6,0-6.05-4.94a4,4,0,0,1,2.31-4A17.39,17.39,0,0,1,1228.49,677.44Zm-1.41,7.77a.85.85,0,0,0,.86.61c.42,0,.81-.35,1.18-1a6.23,6.23,0,0,0,.55-2.88v-3.8h-.28q-2.54,0-2.54,3.71v.66A10.08,10.08,0,0,0,1227.08,685.21Z"/><path class="cls-7" d="M1264.6,687h-9.31l-.45-3a5.32,5.32,0,0,1-1.94,2.51,6.76,6.76,0,0,1-3.82.88q-6.33,0-6.33-6.82v-12.3h-2.29v-.73h9.89v14a9.63,9.63,0,0,0,.34,3.23,1.38,1.38,0,0,0,1.39.77,2.27,2.27,0,0,0,1.86-1.26,6.43,6.43,0,0,0,.82-3.52v-12.5h-1.88v-.73h9.48v18.71h2.24Z"/><path class="cls-7" d="M1267.46,681.2V668.33h-2.24v-.73h2.24v-5.27l7.6-1.88v7.15h5.31v.73h-5.31V682.1a7.56,7.56,0,0,0,.39,2.82,1.57,1.57,0,0,0,1.61.9,2.65,2.65,0,0,0,2.15-1.23,7.12,7.12,0,0,0,1.2-3.35l.7.08a8,8,0,0,1-1.8,4.48q-1.47,1.65-4.86,1.65a8.54,8.54,0,0,1-5.19-1.35C1268.06,685.21,1267.46,683.57,1267.46,681.2Z"/><path class="cls-7" d="M1291.32,677.44h1.19V674.3a20.53,20.53,0,0,0-.43-5.21,1.66,1.66,0,0,0-1.66-1.33,2.33,2.33,0,0,0-1.32.39,1.2,1.2,0,0,0-.6,1.06,4.18,4.18,0,0,0,.25,1.37h1a5.74,5.74,0,0,1,.33,2.06,2.68,2.68,0,0,1-1,2.09,3.85,3.85,0,0,1-2.58.87q-3.51,0-3.51-3.39,0-5,8.54-5,4.86,0,6.72,1.65t1.86,6.07v8.29c0,1.42.39,2.13,1.18,2.13s1.47-1.41,1.64-4.21l.61,0q-.16,3.6-1.35,4.94a4.92,4.92,0,0,1-3.88,1.35q-4.9,0-5.64-3a4.39,4.39,0,0,1-1.59,2.29,5.48,5.48,0,0,1-3.11.73q-6,0-6-4.94a4,4,0,0,1,2.3-4A17.42,17.42,0,0,1,1291.32,677.44Zm-1.41,7.77a.86.86,0,0,0,.86.61c.42,0,.82-.35,1.19-1a6.36,6.36,0,0,0,.55-2.88v-3.8h-.29q-2.54,0-2.53,3.71v.66A10.23,10.23,0,0,0,1289.91,685.21Z"/><path class="cls-7" d="M1304,667.6h9.84v3.76a6.8,6.8,0,0,1,2-3,6.19,6.19,0,0,1,4.08-1.14q6.33,0,6.33,6.82v12.3h2.29V687H1317v-.73h1.68V673a9.4,9.4,0,0,0-.33-3.17,1.2,1.2,0,0,0-1.19-.71,2.79,2.79,0,0,0-2.3,1.71,8.15,8.15,0,0,0-1,4.17v11.28h1.76V687H1304v-.73h2.25v-18H1304Z"/><path class="cls-7" d="M1342.47,687v-.73h1.88l-4.61-9.48-.78.2v9.28h1.88V687h-11.73v-.73h2.25V657.14H1329v-.74h10v19.82l.65-.25,9.19-7.64H1345v-.73h8v.73h-2.86l-4.86,4.13,7.07,13.85h1.47V687Z"/><path class="cls-7" d="M1354.28,667.6h10v18.71h2.29V687h-12.14v-.73h2.25v-18h-2.41Zm6.17-2.82a3.81,3.81,0,0,1-3.09-1.11,4.12,4.12,0,0,1-.92-2.73,3.78,3.78,0,0,1,1-2.7,4,4,0,0,1,3-1.06,4.46,4.46,0,0,1,3.1,1,3.5,3.5,0,0,1,1.07,2.74,3.94,3.94,0,0,1-1,2.84A4.3,4.3,0,0,1,1360.45,664.78Z"/><polygon class="cls-14" points="1553.29 113.62 1551.97 144.27 1576.47 162.73 1546.91 170.95 1536.92 199.95 1519.97 174.38 1489.3 173.84 1508.38 149.82 1499.42 120.48 1528.16 131.21 1553.29 113.62"/><polygon class="cls-15" points="1561.78 316.3 1552.71 345.61 1571.7 369.7 1541.03 370.12 1523.99 395.63 1514.11 366.59 1484.58 358.27 1509.14 339.9 1507.93 309.25 1533 326.93 1561.78 316.3"/><polygon class="cls-16" points="1599.63 519.07 1572.99 534.28 1570.42 564.85 1547.72 544.22 1517.85 551.22 1530.46 523.25 1514.58 497.01 1545.07 500.36 1565.12 477.14 1571.35 507.18 1599.63 519.07"/><path class="cls-7" d="M1594.15,107.73h12c4.12,0,7.18.59,9.2,1.78s3,3.3,3,6.35c0,3.38-1.23,5.7-3.68,7-2.28,1.18-5.49,1.76-9.6,1.76h-.32v11h5.1v.78h-15.73v-.78h2.66v-27h-2.66Zm10.63.78v15.32h.85a3.53,3.53,0,0,0,3.39-1.68,11.65,11.65,0,0,0,.94-5.43v-2a9.8,9.8,0,0,0-.87-4.87,3.52,3.52,0,0,0-3.21-1.38Z"/><path class="cls-7" d="M1621.57,134.12q-2.62-2.61-2.62-7.5c0-3.25.93-5.76,2.8-7.51s4.49-2.64,7.86-2.64,5.9.81,7.56,2.43,2.49,4.09,2.49,7.42q0,10.41-10.37,10.42C1625.88,136.74,1623.31,135.86,1621.57,134.12Zm10.25-5.84v-3.47a27.41,27.41,0,0,0-.43-5.78c-.28-1.22-.94-1.82-2-1.82a2.05,2.05,0,0,0-1.45.51,3.14,3.14,0,0,0-.8,1.69,31.77,31.77,0,0,0-.36,5.6v3.19a29,29,0,0,0,.26,5.35,9.42,9.42,0,0,0,.55,1.47,1.75,1.75,0,0,0,1.76,1,2.08,2.08,0,0,0,2.08-1.84A27.76,27.76,0,0,0,1631.82,128.28Z"/><path class="cls-7" d="M1643.65,134q-2.64-2.72-2.64-7.56t3-7.41a11,11,0,0,1,7.53-2.58q9.27,0,8.91,9.32H1648.9v1.59a14,14,0,0,0,1,6.05,3.63,3.63,0,0,0,3.55,2q4.74,0,6.21-5.07l.74.13a8.44,8.44,0,0,1-2.8,4.57q-2,1.64-6.07,1.64Q1646.29,136.74,1643.65,134Zm5.29-9.05h4.21v-2a17.23,17.23,0,0,0-.39-4.52,1.53,1.53,0,0,0-1.55-1.2,1.82,1.82,0,0,0-1.72,1.28,12.44,12.44,0,0,0-.55,4.44Z"/><path class="cls-7" d="M1663.93,130.48V117.62h-2.24v-.74h2.24v-5.27l7.6-1.88v7.15h5.31v.74h-5.31v13.76a7.56,7.56,0,0,0,.39,2.82,1.57,1.57,0,0,0,1.61.9,2.66,2.66,0,0,0,2.15-1.22,7.16,7.16,0,0,0,1.2-3.35l.7.08a7.92,7.92,0,0,1-1.8,4.47c-1,1.1-2.6,1.66-4.86,1.66a8.54,8.54,0,0,1-5.19-1.35Q1663.93,134,1663.93,130.48Z"/><path class="cls-7" d="M1691.63,118c-1,0-1.89.66-2.65,2a9,9,0,0,0-1.15,4.66v11h2.9v.74H1678v-.74h2.24v-18H1678v-.74h9.84v3.92a5.56,5.56,0,0,1,2-3.2,5.63,5.63,0,0,1,3.44-1.13,4.49,4.49,0,0,1,3.12,1.08,4,4,0,0,1,1.21,3.07,4.58,4.58,0,0,1-.9,3,3.41,3.41,0,0,1-2.76,1.06,3.14,3.14,0,0,1-2.74-1.22,3.79,3.79,0,0,1-.22-3.39h1.47C1693.17,118.72,1692.88,118,1691.63,118Z"/><path class="cls-7" d="M1697.39,117.62v-.74h11.85v.74H1707l4.46,13.56,4.74-13.56h-2.74v-.74h5.76v.74h-2l-7.64,22a13.25,13.25,0,0,1-3,5.37,5.83,5.83,0,0,1-4.08,1.53,6,6,0,0,1-3.8-1.1,3.45,3.45,0,0,1-1.39-2.82,3.54,3.54,0,0,1,.9-2.62,3.2,3.2,0,0,1,2.37-.9q3.39,0,3.39,2.82a5.37,5.37,0,0,1-.25,1.48h-1.43a2.22,2.22,0,0,0-.08,1.55,1,1,0,0,0,1.1.61,3.79,3.79,0,0,0,3-1.65,18,18,0,0,0,2.49-5l.9-2.53h-3.6l-7-18.71Z"/><path class="cls-7" d="M1718,140.29l12-36.44h1.64l-12,36.44Z"/><path class="cls-7" d="M1745.44,121.86h-2.17v13.69h2.66v.78h-13.28v-.78h2.65v-27h-2.65v-.78H1745a35.23,35.23,0,0,1,7.53.55,7.8,7.8,0,0,1,3.13,1.33q2,1.59,2,5.06c0,2.32-.57,4-1.71,5a9,9,0,0,1-5.23,1.77v.13q3.3.45,4.61,2t1.31,5.06v2.17a11.75,11.75,0,0,0,.22,2.86.93.93,0,0,0,1,.73,1.32,1.32,0,0,0,1.17-.67,9.17,9.17,0,0,0,.8-2.84l.69.08q-.45,3.48-1.57,4.66c-.75.79-2.24,1.19-4.48,1.19s-3.82-.53-4.76-1.58-1.41-3-1.41-5.9v-3a7.11,7.11,0,0,0-.59-3.35A2.27,2.27,0,0,0,1745.44,121.86Zm-2.17-13.35v12.58h1.31a4.13,4.13,0,0,0,3.45-1.43c.75-1,1.12-2.51,1.12-4.66v-1.18c0-2.16-.36-3.58-1.08-4.27a4.81,4.81,0,0,0-3.45-1Z"/><path class="cls-7" d="M1771.5,126.73h1.19v-3.15a20.59,20.59,0,0,0-.43-5.21,1.67,1.67,0,0,0-1.66-1.33,2.33,2.33,0,0,0-1.32.39,1.2,1.2,0,0,0-.6,1.06,3.94,3.94,0,0,0,.25,1.37h1a5.76,5.76,0,0,1,.33,2.07,2.68,2.68,0,0,1-1,2.08,3.82,3.82,0,0,1-2.57.88q-3.51,0-3.51-3.39,0-5,8.54-5,4.86,0,6.72,1.66t1.86,6.06v8.3c0,1.41.39,2.12,1.18,2.12s1.47-1.4,1.63-4.21l.62,0q-.17,3.6-1.35,4.95a4.92,4.92,0,0,1-3.88,1.35q-4.9,0-5.64-3a4.4,4.4,0,0,1-1.59,2.29,5.47,5.47,0,0,1-3.11.74q-6,0-6-5a4,4,0,0,1,2.3-4A17.59,17.59,0,0,1,1771.5,126.73Zm-1.41,7.76a.85.85,0,0,0,.86.61c.42,0,.82-.35,1.19-1a6.33,6.33,0,0,0,.55-2.88v-3.8h-.29q-2.54,0-2.53,3.72v.65A10.18,10.18,0,0,0,1770.09,134.49Z"/><path class="cls-7" d="M1793.48,116.88v3.23a5.67,5.67,0,0,1,5.64-3.64,6.49,6.49,0,0,1,5.45,2.53c1.3,1.69,1.94,4.25,1.94,7.69s-.7,6-2.1,7.59-3.51,2.46-6.31,2.46a6.73,6.73,0,0,1-2.94-.5,3.8,3.8,0,0,1-1.6-1.51v10.59h5.27v.73h-15.11v-.73H1786v-27.7h-2.16v-.74Zm4.74,2.8c-.27-1-.8-1.45-1.59-1.45a2.62,2.62,0,0,0-2.13,1.53,7.86,7.86,0,0,0-.94,4.11v7.47a5.87,5.87,0,0,0,.7,3,2.21,2.21,0,0,0,2,1.23c.9,0,1.51-.6,1.84-1.8a27.09,27.09,0,0,0,.49-6.29v-2.12A25.24,25.24,0,0,0,1798.22,119.68Z"/><path class="cls-7" d="M1807.66,140.29l12-36.44h1.63l-12,36.44Z"/><path class="cls-7" d="M1606.82,176.73a6.14,6.14,0,0,0,3.61-1.1,3.81,3.81,0,0,0,1.58-3.33,3.91,3.91,0,0,0-1.7-3.41,16.31,16.31,0,0,0-4.82-2.07,31.85,31.85,0,0,1-4.53-1.53,11.67,11.67,0,0,1-2.68-1.71q-2.54-2.13-2.53-6.58a8.56,8.56,0,0,1,2.59-6.25,9.55,9.55,0,0,1,7.09-2.62,17.4,17.4,0,0,1,4.51.64,16.83,16.83,0,0,0,2.92.63c.39,0,.73-.27,1-.82h.45l.28,8.26H1614a25.42,25.42,0,0,0-4.11-5.7,6.5,6.5,0,0,0-4.66-2.15,5.89,5.89,0,0,0-3.9,1.17,3.85,3.85,0,0,0-1.39,3.1,3.33,3.33,0,0,0,1.66,3,14.94,14.94,0,0,0,4.06,1.7c1.61.44,2.67.73,3.17.9s1.13.39,1.88.67a10.19,10.19,0,0,1,1.84.9,12.76,12.76,0,0,1,1.51,1.19,5.37,5.37,0,0,1,1.24,1.57,10.41,10.41,0,0,1-1.65,11.74,10,10,0,0,1-7.25,2.68A26.87,26.87,0,0,1,1601,177c-2-.41-3.11-.62-3.33-.62q-.57,0-1.11,1.23H1596l-.41-9.72h.7a22.56,22.56,0,0,0,4.59,6.21A8.53,8.53,0,0,0,1606.82,176.73Z"/><path class="cls-7" d="M1628.23,157.73V161a5.67,5.67,0,0,1,5.63-3.63,6.48,6.48,0,0,1,5.46,2.53q1.93,2.53,1.94,7.68t-2.11,7.6q-2.1,2.45-6.31,2.45a6.78,6.78,0,0,1-2.94-.49,3.9,3.9,0,0,1-1.59-1.51v10.58h5.27v.74h-15.12v-.74h2.25v-27.7h-2.17v-.74Zm4.74,2.8c-.28-1-.81-1.45-1.6-1.45a2.59,2.59,0,0,0-2.12,1.54,7.75,7.75,0,0,0-.94,4.1v7.48a6,6,0,0,0,.69,3,2.22,2.22,0,0,0,2,1.23c.9,0,1.52-.6,1.84-1.8a27.21,27.21,0,0,0,.49-6.29v-2.13A25.49,25.49,0,0,0,1633,160.53Z"/><path class="cls-7" d="M1645.43,175q-2.62-2.62-2.62-7.5c0-3.26.93-5.76,2.8-7.52s4.49-2.63,7.86-2.63,5.9.81,7.56,2.43,2.49,4.09,2.49,7.41q0,10.43-10.37,10.42Q1648,177.59,1645.43,175Zm10.25-5.85v-3.47a27.47,27.47,0,0,0-.43-5.78c-.29-1.21-1-1.82-2-1.82a2.05,2.05,0,0,0-1.45.51,3.18,3.18,0,0,0-.8,1.7,31.48,31.48,0,0,0-.37,5.6v3.18a28.55,28.55,0,0,0,.27,5.35,9.42,9.42,0,0,0,.55,1.47,1.74,1.74,0,0,0,1.76,1,2.08,2.08,0,0,0,2.08-1.83A27.88,27.88,0,0,0,1655.68,169.13Z"/><path class="cls-7" d="M1678,177.18v-.73h1.88l-4.62-9.48-.78.2v9.28h1.88v.73h-11.72v-.73h2.24V147.28h-2.41v-.74h10v19.82l.66-.25,9.19-7.64h-3.84v-.74h8v.74h-2.86l-4.86,4.13,7.06,13.85h1.48v.73Z"/><path class="cls-7" d="M1691.82,174.87q-2.64-2.72-2.64-7.56t3-7.41a11.07,11.07,0,0,1,7.54-2.57q9.27,0,8.91,9.31h-11.52v1.59a14,14,0,0,0,1,6.05,3.63,3.63,0,0,0,3.55,2c3.16,0,5.23-1.68,6.21-5.06l.74.12a8.47,8.47,0,0,1-2.8,4.58q-2,1.64-6.07,1.63C1696.21,177.59,1693.57,176.69,1691.82,174.87Zm5.29-9.05h4.2v-2a17.27,17.27,0,0,0-.38-4.51,1.53,1.53,0,0,0-1.56-1.21,1.82,1.82,0,0,0-1.71,1.29,12.41,12.41,0,0,0-.55,4.43Z"/><path class="cls-7" d="M1710.14,157.73H1720v3.76a6.72,6.72,0,0,1,2-3,6.21,6.21,0,0,1,4.08-1.14q6.33,0,6.34,6.82v12.3h2.28v.73h-11.56v-.73h1.68V163.17a9.36,9.36,0,0,0-.33-3.17,1.2,1.2,0,0,0-1.19-.71A2.79,2.79,0,0,0,1721,161a8.15,8.15,0,0,0-1,4.17v11.28h1.75v.73h-11.6v-.73h2.25v-18h-2.25Z"/><path class="cls-7" d="M1756.55,158.47v-.74h10.54v.74h-1.67l3.67,13.77,3.64-13.77h-2.82v-.74h5.52v.74h-1.72l-4.9,18.71h-5.6l-3.55-12.54-3.85,12.54h-5.47l-6-18.71h-1.83v-.74h12.37v.74h-2.45l3.76,13.89,2.94-9.56-1-4.33Z"/><path class="cls-7" d="M1778.16,175q-2.61-2.62-2.61-7.5c0-3.26.93-5.76,2.8-7.52s4.48-2.63,7.86-2.63,5.9.81,7.56,2.43,2.49,4.09,2.49,7.41q0,10.43-10.38,10.42C1782.48,177.59,1779.9,176.72,1778.16,175Zm10.26-5.85v-3.47a28.18,28.18,0,0,0-.43-5.78c-.29-1.21-1-1.82-2-1.82a2,2,0,0,0-1.45.51,3.11,3.11,0,0,0-.8,1.7,30.55,30.55,0,0,0-.37,5.6v3.18a28.55,28.55,0,0,0,.27,5.35,8.51,8.51,0,0,0,.55,1.47,1.73,1.73,0,0,0,1.76,1,2.09,2.09,0,0,0,2.08-1.83A28.62,28.62,0,0,0,1788.42,169.13Z"/><path class="cls-7" d="M1811.05,158.88c-1,0-1.89.65-2.65,2a9,9,0,0,0-1.15,4.66v10.95h2.9v.73H1797.4v-.73h2.25v-18h-2.25v-.74h9.85v3.93a5.49,5.49,0,0,1,5.48-4.33,4.49,4.49,0,0,1,3.12,1.08,3.91,3.91,0,0,1,1.21,3.06,4.61,4.61,0,0,1-.9,3.05,3.41,3.41,0,0,1-2.76,1.06,3.14,3.14,0,0,1-2.74-1.23,3.78,3.78,0,0,1-.22-3.39h1.47C1812.59,159.57,1812.3,158.88,1811.05,158.88Z"/><path class="cls-7" d="M1831.52,177.18l-.45-2.86q-1.39,3.27-5.64,3.27a6.46,6.46,0,0,1-5.45-2.53c-1.3-1.69-1.94-4.21-1.94-7.56q0-10.17,8.09-10.17c2.39,0,4,.66,4.74,2V147.28h-2.5v-.74h10.22v29.91h2v.73Zm-5.15-2.76a1.7,1.7,0,0,0,1.66,1.41,2.63,2.63,0,0,0,2.08-1.06,4.88,4.88,0,0,0,.88-3.14v-8.91a5.87,5.87,0,0,0-.7-3,2.21,2.21,0,0,0-2-1.23c-.9,0-1.51.6-1.84,1.8a27.73,27.73,0,0,0-.49,6.29v2.12A22.81,22.81,0,0,0,1826.37,174.42Z"/><path class="cls-7" d="M1609.17,362.2a6.07,6.07,0,0,0,3.61-1.1,3.79,3.79,0,0,0,1.58-3.33,3.91,3.91,0,0,0-1.7-3.41,16.07,16.07,0,0,0-4.82-2.06,34.66,34.66,0,0,1-4.53-1.53,12.07,12.07,0,0,1-2.68-1.72q-2.54-2.13-2.53-6.58a8.56,8.56,0,0,1,2.59-6.25,9.54,9.54,0,0,1,7.09-2.61,17.37,17.37,0,0,1,4.51.63,16.67,16.67,0,0,0,2.93.63q.57,0,1-.81h.45l.28,8.25h-.65a25.42,25.42,0,0,0-4.11-5.7,6.5,6.5,0,0,0-4.66-2.15,5.89,5.89,0,0,0-3.9,1.17,3.85,3.85,0,0,0-1.39,3.1,3.35,3.35,0,0,0,1.66,3,14.94,14.94,0,0,0,4.06,1.69c1.61.44,2.67.74,3.17.9s1.13.39,1.88.67a10.19,10.19,0,0,1,1.84.9,13.89,13.89,0,0,1,1.51,1.19,5.58,5.58,0,0,1,1.25,1.57,10.46,10.46,0,0,1-1.66,11.75,10,10,0,0,1-7.25,2.67,26.87,26.87,0,0,1-5.33-.61c-2-.41-3.11-.61-3.33-.61-.38,0-.75.41-1.11,1.22h-.57l-.41-9.72h.7a22.4,22.4,0,0,0,4.6,6.21A8.49,8.49,0,0,0,1609.17,362.2Z"/><path class="cls-7" d="M1622.85,356.81V343.94h-2.24v-.73h2.24v-5.27l7.6-1.88v7.15h5.31v.73h-5.31v13.77a7.56,7.56,0,0,0,.39,2.82,1.57,1.57,0,0,0,1.61.9,2.65,2.65,0,0,0,2.15-1.23,7.23,7.23,0,0,0,1.21-3.35l.69.08a8,8,0,0,1-1.8,4.48q-1.47,1.65-4.86,1.65a8.54,8.54,0,0,1-5.19-1.35C1623.45,360.82,1622.85,359.18,1622.85,356.81Z"/><path class="cls-7" d="M1639.85,360.45c-1.74-1.75-2.62-4.24-2.62-7.5s.94-5.76,2.8-7.52,4.49-2.63,7.87-2.63,5.89.81,7.56,2.43,2.49,4.09,2.49,7.41q0,10.42-10.38,10.42C1644.17,363.06,1641.59,362.19,1639.85,360.45Zm10.25-5.84v-3.48a27.47,27.47,0,0,0-.43-5.78c-.28-1.21-.94-1.82-2-1.82a2.05,2.05,0,0,0-1.45.51,3.21,3.21,0,0,0-.79,1.7,30.62,30.62,0,0,0-.37,5.6v3.18a30.13,30.13,0,0,0,.26,5.36,8.45,8.45,0,0,0,.56,1.47,1.74,1.74,0,0,0,1.75,1,2.1,2.1,0,0,0,2.09-1.84A28.76,28.76,0,0,0,1650.1,354.61Z"/><path class="cls-7" d="M1672.74,344.35c-1,0-1.9.65-2.66,2a9.12,9.12,0,0,0-1.14,4.66v10.95h2.9v.73h-12.75v-.73h2.25v-18h-2.25v-.73h9.85v3.92a5.52,5.52,0,0,1,2-3.21,5.6,5.6,0,0,1,3.43-1.12,4.53,4.53,0,0,1,3.13,1.08,3.9,3.9,0,0,1,1.2,3.06,4.59,4.59,0,0,1-.9,3.05,3.38,3.38,0,0,1-2.75,1.06,3.15,3.15,0,0,1-2.74-1.22,3.8,3.8,0,0,1-.23-3.4h1.48C1674.28,345.05,1674,344.35,1672.74,344.35Z"/><path class="cls-7" d="M1678.5,343.94v-.73h11.85v.73h-2.21l4.45,13.57,4.74-13.57h-2.74v-.73h5.77v.73h-2l-7.64,22a13.37,13.37,0,0,1-3,5.38,5.85,5.85,0,0,1-4.09,1.53,6,6,0,0,1-3.8-1.11,3.43,3.43,0,0,1-1.38-2.81,3.58,3.58,0,0,1,.89-2.62,3.2,3.2,0,0,1,2.37-.9c2.26,0,3.4.94,3.4,2.82a5.64,5.64,0,0,1-.25,1.47h-1.43a2.22,2.22,0,0,0-.08,1.55,1,1,0,0,0,1.1.62,3.74,3.74,0,0,0,3-1.66,17.76,17.76,0,0,0,2.5-5l.89-2.54h-3.59l-7-18.71Z"/><path class="cls-7" d="M1702.48,356.81V343.94h-2.25v-.73h2.25v-5.27l7.6-1.88v7.15h5.31v.73h-5.31v13.77a7.56,7.56,0,0,0,.39,2.82,1.57,1.57,0,0,0,1.61.9,2.66,2.66,0,0,0,2.15-1.23,7.12,7.12,0,0,0,1.2-3.35l.7.08a8,8,0,0,1-1.8,4.48q-1.47,1.65-4.86,1.65a8.54,8.54,0,0,1-5.19-1.35C1703.08,360.82,1702.48,359.18,1702.48,356.81Z"/><path class="cls-7" d="M1719.37,360.35a10.44,10.44,0,0,1-2.63-7.56c0-3.23,1-5.7,3-7.42a11.1,11.1,0,0,1,7.54-2.57q9.27,0,8.9,9.31h-11.52v1.6a14,14,0,0,0,1,6,3.64,3.64,0,0,0,3.56,2.05q4.74,0,6.21-5.07l.73.12a8.41,8.41,0,0,1-2.8,4.58c-1.34,1.09-3.37,1.63-6.06,1.63C1723.76,363.06,1721.13,362.16,1719.37,360.35Zm5.29-9.05h4.21v-2a17.14,17.14,0,0,0-.39-4.51,1.53,1.53,0,0,0-1.55-1.21,1.8,1.8,0,0,0-1.71,1.29,12.36,12.36,0,0,0-.56,4.43Z"/><path class="cls-7" d="M1737.45,332h10v29.91h2.29v.73h-12.14v-.73h2.25V332.75h-2.41Z"/><path class="cls-7" d="M1750.36,332h10v29.91h2.29v.73h-12.14v-.73h2.25V332.75h-2.41Z"/><path class="cls-7" d="M1763.27,343.21h10v18.71h2.29v.73h-12.14v-.73h2.25v-18h-2.41Zm6.17-2.82a3.81,3.81,0,0,1-3.09-1.11,4.12,4.12,0,0,1-.92-2.73,3.78,3.78,0,0,1,1-2.7,4,4,0,0,1,3-1.06,4.46,4.46,0,0,1,3.1,1,3.5,3.5,0,0,1,1.07,2.74,3.94,3.94,0,0,1-1,2.84A4.3,4.3,0,0,1,1769.44,340.39Z"/><path class="cls-7" d="M1776.47,343.21h9.84V347a6.78,6.78,0,0,1,2-3,6.22,6.22,0,0,1,4.09-1.14q6.33,0,6.33,6.82v12.3H1801v.73h-11.56v-.73h1.67V348.64a9.77,9.77,0,0,0-.32-3.17,1.21,1.21,0,0,0-1.19-.71c-.87,0-1.64.57-2.31,1.72a8.09,8.09,0,0,0-1,4.16v11.28h1.76v.73h-11.6v-.73h2.24v-18h-2.24Z"/><path class="cls-7" d="M1817.93,341.08l1.15-.69c.16-.85-.17-1.27-1-1.27-1.17,0-1.76.9-1.76,2.7a11.71,11.71,0,0,0,.29,2.45,6.24,6.24,0,0,1,3.1,5.33,6.1,6.1,0,0,1-2.25,5,9.49,9.49,0,0,1-6.08,1.79,18.25,18.25,0,0,1-3.31-.32q-1.8,1.14-1.8,1.71t2.61.57h4.17c6.18,0,9.28,2.23,9.28,6.66a6.77,6.77,0,0,1-2.8,5.7q-2.8,2.12-8.73,2.11-10.08,0-10.09-4.37,0-2.37,3.15-3.27l2.45,1.1a8.39,8.39,0,0,0-.33,2.25c0,2.34,1.75,3.51,5.23,3.51a8.61,8.61,0,0,0,4.91-1.18,3.49,3.49,0,0,0,1.71-2.94,2.46,2.46,0,0,0-1-2.35,9.46,9.46,0,0,0-4.15-.6h-4c-2.21,0-3.79-.36-4.74-1.1a3.33,3.33,0,0,1-1.43-2.72,3.77,3.77,0,0,1,1-2.69,18.37,18.37,0,0,1,3.64-2.68,5.91,5.91,0,0,1-4.74-6.21,6.15,6.15,0,0,1,2.21-4.94q2.21-1.87,6.61-1.88a9.4,9.4,0,0,1,4.54,1,9,9,0,0,1-.25-2,4.06,4.06,0,0,1,1.23-3.31,4.18,4.18,0,0,1,2.74-1,3.61,3.61,0,0,1,2.43.79,2.77,2.77,0,0,1,.92,2.19,2.66,2.66,0,0,1-.74,2.06,2.54,2.54,0,0,1-1.78.68,2.66,2.66,0,0,1-1.71-.55A2.06,2.06,0,0,1,1817.93,341.08Zm-8.66,7.64v2.21a9.93,9.93,0,0,0,.47,3.72,1.52,1.52,0,0,0,1.43,1,1.45,1.45,0,0,0,1.39-1,11.46,11.46,0,0,0,.43-3.95v-2a13.58,13.58,0,0,0-.41-4.19,1.42,1.42,0,0,0-1.37-1,1.56,1.56,0,0,0-1.45,1.05A11.48,11.48,0,0,0,1809.27,348.72Z"/><path class="cls-7" d="M1647.18,507.51l.41,10.26h-.78a31.75,31.75,0,0,0-3.18-7.42,4.6,4.6,0,0,0-4-2h-.49v26.89h3.48v.85h-14.92v-.85h3.48V508.37h-.53a4.63,4.63,0,0,0-4.05,2.07,30.69,30.69,0,0,0-3.14,7.33h-.78l.41-10.26Z"/><path class="cls-7" d="M1649.51,505.47h9.85v15a6.7,6.7,0,0,1,2-3,6.21,6.21,0,0,1,4.08-1.14q6.35,0,6.34,6.82v12.3h2.28v.73H1662.5v-.73h1.68V522.1a9.4,9.4,0,0,0-.33-3.17,1.19,1.19,0,0,0-1.18-.71c-.88,0-1.64.57-2.31,1.72a8.09,8.09,0,0,0-1,4.16v11.28h1.75v.73h-11.6v-.73h2.25V506.21h-2.25Z"/><path class="cls-7" d="M1677.52,533.81a10.42,10.42,0,0,1-2.64-7.56q0-4.85,3-7.42a11.12,11.12,0,0,1,7.54-2.57q9.27,0,8.91,9.31h-11.52v1.6a14,14,0,0,0,1,6,3.64,3.64,0,0,0,3.55,2q4.74,0,6.21-5.07l.74.12a8.47,8.47,0,0,1-2.8,4.58q-2,1.64-6.07,1.63C1681.91,536.52,1679.27,535.62,1677.52,533.81Zm5.29-9H1687v-2a17.14,17.14,0,0,0-.39-4.51,1.54,1.54,0,0,0-1.56-1.21,1.82,1.82,0,0,0-1.71,1.29,12.41,12.41,0,0,0-.55,4.43Z"/><path class="cls-7" d="M1705.56,526.51h1.19v-3.14a20.53,20.53,0,0,0-.43-5.21,1.66,1.66,0,0,0-1.66-1.33,2.33,2.33,0,0,0-1.32.39,1.2,1.2,0,0,0-.6,1.06,4.18,4.18,0,0,0,.25,1.37h1a5.74,5.74,0,0,1,.33,2.06,2.68,2.68,0,0,1-1,2.09,3.84,3.84,0,0,1-2.58.87q-3.51,0-3.51-3.39,0-5,8.54-5,4.86,0,6.72,1.65t1.86,6.07v8.29c0,1.42.39,2.13,1.18,2.13s1.47-1.41,1.64-4.21l.61,0q-.16,3.6-1.35,4.94a4.92,4.92,0,0,1-3.88,1.35q-4.9,0-5.64-3a4.39,4.39,0,0,1-1.59,2.29,5.48,5.48,0,0,1-3.11.73q-6,0-6-4.94a4,4,0,0,1,2.31-4A17.33,17.33,0,0,1,1705.56,526.51Zm-1.41,7.77a.86.86,0,0,0,.86.61c.42,0,.82-.35,1.19-1a6.28,6.28,0,0,0,.55-2.87v-3.8h-.29q-2.54,0-2.53,3.71v.66A10.23,10.23,0,0,0,1704.15,534.28Z"/><path class="cls-7" d="M1719.62,530.27V517.4h-2.25v-.73h2.25V511.4l7.6-1.88v7.15h5.31v.73h-5.31v13.77a7.81,7.81,0,0,0,.38,2.82,1.58,1.58,0,0,0,1.62.9,2.63,2.63,0,0,0,2.14-1.23,7,7,0,0,0,1.21-3.35l.69.08a8,8,0,0,1-1.79,4.48q-1.48,1.65-4.87,1.65a8.48,8.48,0,0,1-5.18-1.35C1720.22,534.28,1719.62,532.64,1719.62,530.27Z"/><path class="cls-7" d="M1747.32,517.81c-1,0-1.9.65-2.66,2a9.12,9.12,0,0,0-1.14,4.66v11h2.9v.73h-12.75v-.73h2.25v-18h-2.25v-.73h9.85v3.92a5.52,5.52,0,0,1,2-3.21,5.6,5.6,0,0,1,3.43-1.12,4.53,4.53,0,0,1,3.13,1.08,3.9,3.9,0,0,1,1.2,3.06,4.59,4.59,0,0,1-.9,3.05,3.39,3.39,0,0,1-2.75,1.06,3.13,3.13,0,0,1-2.74-1.23,3.77,3.77,0,0,1-.23-3.39h1.47C1748.86,518.5,1748.57,517.81,1747.32,517.81Z"/><path class="cls-7" d="M1756.53,533.81a10.42,10.42,0,0,1-2.64-7.56q0-4.85,3-7.42a11.08,11.08,0,0,1,7.53-2.57q9.28,0,8.91,9.31h-11.52v1.6a14,14,0,0,0,1,6,3.66,3.66,0,0,0,3.56,2q4.73,0,6.2-5.07l.74.12a8.47,8.47,0,0,1-2.8,4.58q-2,1.64-6.06,1.63C1760.92,536.52,1758.29,535.62,1756.53,533.81Zm5.29-9H1766v-2a17.14,17.14,0,0,0-.39-4.51,1.54,1.54,0,0,0-1.55-1.21,1.82,1.82,0,0,0-1.72,1.29,12.41,12.41,0,0,0-.55,4.43Z"/><polygon class="cls-17" points="710.33 371.1 701.26 400.4 720.25 424.49 689.58 424.92 672.54 450.43 662.66 421.39 633.13 413.07 657.7 394.69 656.48 364.04 681.55 381.72 710.33 371.1"/><polygon class="cls-18" points="731.85 529.01 705.21 544.23 702.64 574.8 679.94 554.16 650.07 561.16 662.68 533.2 646.79 506.96 677.29 510.31 697.34 487.09 703.57 517.12 731.85 529.01"/><path class="cls-7" d="M733.42,229.55h21.24l.41,8.09h-.73a14.64,14.64,0,0,0-3.6-5.66,8.56,8.56,0,0,0-5.51-1.53H743.8v12.62h1.38a4.17,4.17,0,0,0,3.23-1.45,8.35,8.35,0,0,0,1.84-3.9h.61v12.09h-.69a9.63,9.63,0,0,0-2-4.37,4.5,4.5,0,0,0-3.41-1.31h-1v13.12h1.55a9.52,9.52,0,0,0,6.39-2.25,11.45,11.45,0,0,0,3.62-5.76h.81l-.32,8.91H733.42v-.9h2.41v-26.8h-2.41Z"/><path class="cls-7" d="M772.43,246.09l4.83-6.66h-3v-.73h6.09v.73h-2.12L773,247l6.65,10.46h2.13v.74H768.1v-.74H771l-4.49-7.35-4.66,7.35h2.7v.74h-6.41v-.74h2.69l5.19-8.17-6.21-9.81h-2.37v-.73h13.81v.73h-2.86Z"/><path class="cls-7" d="M791.92,238.7v3.23a5.67,5.67,0,0,1,5.64-3.64,6.46,6.46,0,0,1,5.45,2.53c1.3,1.69,1.94,4.25,1.94,7.68s-.7,6-2.1,7.6-3.51,2.45-6.31,2.45a6.75,6.75,0,0,1-2.94-.49,3.8,3.8,0,0,1-1.6-1.51v10.58h5.27v.74H782.16v-.74h2.24v-27.7h-2.16v-.73Zm4.74,2.8c-.27-1-.8-1.45-1.59-1.45a2.62,2.62,0,0,0-2.13,1.53,7.85,7.85,0,0,0-.94,4.1v7.48a5.87,5.87,0,0,0,.7,3,2.21,2.21,0,0,0,2,1.23c.9,0,1.51-.6,1.84-1.8a27.15,27.15,0,0,0,.49-6.29v-2.13A25.13,25.13,0,0,0,796.66,241.5Z"/><path class="cls-7" d="M809,255.84q-2.64-2.72-2.64-7.56t3-7.42a11.08,11.08,0,0,1,7.53-2.57q9.29,0,8.91,9.31H814.27v1.6a14,14,0,0,0,1,6,3.63,3.63,0,0,0,3.55,2.05q4.74,0,6.21-5.07l.74.12a8.43,8.43,0,0,1-2.8,4.58q-2,1.63-6.07,1.63Q811.66,258.55,809,255.84Zm5.29-9.05h4.21v-2a17.18,17.18,0,0,0-.39-4.52,1.53,1.53,0,0,0-1.55-1.2,1.81,1.81,0,0,0-1.72,1.28,12.44,12.44,0,0,0-.55,4.44Z"/><path class="cls-7" d="M840.91,239.84c-1,0-1.9.66-2.66,2a9.12,9.12,0,0,0-1.14,4.66v11H840v.74H827.26v-.74h2.25v-18h-2.25v-.73h9.85v3.92a5.52,5.52,0,0,1,2-3.21,5.6,5.6,0,0,1,3.43-1.12,4.53,4.53,0,0,1,3.13,1.08,3.93,3.93,0,0,1,1.2,3.07,4.58,4.58,0,0,1-.9,3,3.4,3.4,0,0,1-2.75,1.06,3.15,3.15,0,0,1-2.74-1.22,3.78,3.78,0,0,1-.23-3.39h1.47C842.44,240.54,842.16,239.84,840.91,239.84Z"/><path class="cls-7" d="M847.32,238.7h10v18.71h2.29v.74H847.48v-.74h2.25v-18h-2.41Zm6.17-2.82a3.84,3.84,0,0,1-3.09-1.1,4.16,4.16,0,0,1-.92-2.74,3.78,3.78,0,0,1,1-2.7,4,4,0,0,1,3-1.06,4.46,4.46,0,0,1,3.1,1A3.5,3.5,0,0,1,857.7,232a3.94,3.94,0,0,1-1,2.84A4.26,4.26,0,0,1,853.49,235.88Z"/><path class="cls-7" d="M860.43,238.7h9.85v3.76q1.35-4.17,5.94-4.17t5.58,4.41a5.8,5.8,0,0,1,6-4.41q6,0,6,6.82v12.3h2.29v.74H884.78v-.74h1.43V244.13c0-2.07-.18-3.28-.53-3.63a.85.85,0,0,0-.65-.25c-.79,0-1.49.53-2.09,1.59a8.29,8.29,0,0,0-.89,4v11.52h1.47v.74H873v-.74h1.43V244.13c0-2.07-.18-3.28-.53-3.63a.89.89,0,0,0-.66-.25c-.76,0-1.45.58-2.06,1.74a8.78,8.78,0,0,0-.92,4.14v11.28h1.47v.74H860.43v-.74h2.25v-18h-2.25Z"/><path class="cls-7" d="M899.55,255.84c-1.76-1.81-2.63-4.33-2.63-7.56s1-5.7,3-7.42a11.1,11.1,0,0,1,7.54-2.57q9.27,0,8.9,9.31H904.8v1.6a14,14,0,0,0,1,6,3.64,3.64,0,0,0,3.56,2.05q4.74,0,6.21-5.07l.73.12a8.43,8.43,0,0,1-2.8,4.58c-1.34,1.09-3.37,1.63-6.06,1.63C903.94,258.55,901.31,257.65,899.55,255.84Zm5.29-9.05h4.21v-2a17.18,17.18,0,0,0-.39-4.52,1.52,1.52,0,0,0-1.55-1.2,1.81,1.81,0,0,0-1.72,1.28,12.68,12.68,0,0,0-.55,4.44Z"/><path class="cls-7" d="M917.87,238.7h9.85v3.76a6.84,6.84,0,0,1,2-3,6.22,6.22,0,0,1,4.09-1.14q6.33,0,6.33,6.82v12.3h2.29v.74H930.87v-.74h1.67V244.13a9.28,9.28,0,0,0-.33-3.16,1.18,1.18,0,0,0-1.18-.72c-.87,0-1.64.57-2.31,1.72a8.09,8.09,0,0,0-1,4.16v11.28h1.76v.74H917.87v-.74h2.25v-18h-2.25Z"/><path class="cls-7" d="M944.8,252.3V239.43h-2.25v-.73h2.25v-5.27l7.6-1.88v7.15h5.31v.73H952.4V253.2a7.81,7.81,0,0,0,.38,2.82,1.58,1.58,0,0,0,1.62.9,2.63,2.63,0,0,0,2.14-1.23,7,7,0,0,0,1.21-3.35l.69.09a7.85,7.85,0,0,1-1.79,4.47c-1,1.1-2.61,1.65-4.87,1.65a8.56,8.56,0,0,1-5.18-1.34Q944.8,255.86,944.8,252.3Z"/><path class="cls-7" d="M968.66,248.54h1.18V245.4a20.06,20.06,0,0,0-.43-5.21,1.65,1.65,0,0,0-1.65-1.33,2.36,2.36,0,0,0-1.33.39,1.21,1.21,0,0,0-.59,1.06,4.16,4.16,0,0,0,.24,1.37h1a5.74,5.74,0,0,1,.33,2.06,2.68,2.68,0,0,1-1,2.09,3.83,3.83,0,0,1-2.57.88q-3.52,0-3.52-3.4,0-5,8.54-5,4.86,0,6.72,1.65t1.86,6.07v8.3c0,1.41.4,2.12,1.19,2.12s1.47-1.4,1.63-4.21l.61,0q-.17,3.6-1.35,4.95a5,5,0,0,1-3.88,1.34c-3.27,0-5.15-1-5.64-3a4.35,4.35,0,0,1-1.59,2.29,5.44,5.44,0,0,1-3.1.73c-4,0-6-1.64-6-4.94a4,4,0,0,1,2.31-4A17.56,17.56,0,0,1,968.66,248.54Zm-1.41,7.77a.84.84,0,0,0,.86.61c.42,0,.81-.35,1.18-1a6.23,6.23,0,0,0,.55-2.88v-3.8h-.28q-2.53,0-2.54,3.72v.65A10,10,0,0,0,967.25,256.31Z"/><path class="cls-7" d="M981.12,227.5h10v29.91h2.29v.74H981.28v-.74h2.25V228.24h-2.41Z"/><path class="cls-7" d="M746.86,299l-.45-2.86q-1.39,3.27-5.64,3.27a6.49,6.49,0,0,1-5.45-2.53c-1.3-1.69-1.94-4.21-1.94-7.56q0-10.17,8.09-10.18,3.59,0,4.74,2V269.09h-2.5v-.73h10.22v29.9h2V299Zm-5.15-2.76a1.7,1.7,0,0,0,1.66,1.41,2.63,2.63,0,0,0,2.08-1.06,4.83,4.83,0,0,0,.88-3.15v-8.9a5.93,5.93,0,0,0-.7-3,2.22,2.22,0,0,0-2-1.22c-.9,0-1.51.6-1.84,1.8a27.73,27.73,0,0,0-.49,6.29v2.12A22.81,22.81,0,0,0,741.71,296.24Z"/><path class="cls-7" d="M766.8,289.4H768v-3.15a20.17,20.17,0,0,0-.43-5.21,1.65,1.65,0,0,0-1.65-1.32,2.43,2.43,0,0,0-1.33.38,1.21,1.21,0,0,0-.59,1.07,4.21,4.21,0,0,0,.24,1.37h1a5.74,5.74,0,0,1,.33,2.06,2.66,2.66,0,0,1-1,2.08,3.78,3.78,0,0,1-2.57.88q-3.53,0-3.52-3.39,0-5,8.54-5c3.24,0,5.48.56,6.72,1.66s1.86,3.12,1.86,6.07v8.29c0,1.42.39,2.12,1.18,2.12s1.48-1.4,1.64-4.2l.61,0q-.16,3.58-1.35,4.94a4.92,4.92,0,0,1-3.88,1.35q-4.9,0-5.64-3a4.36,4.36,0,0,1-1.59,2.28,5.44,5.44,0,0,1-3.1.74q-6,0-6.05-4.94a4,4,0,0,1,2.31-4A17.59,17.59,0,0,1,766.8,289.4Zm-1.41,7.76a.84.84,0,0,0,.85.61c.43,0,.82-.34,1.19-1a6.17,6.17,0,0,0,.55-2.88v-3.8h-.28q-2.54,0-2.54,3.72v.65A10,10,0,0,0,765.39,297.16Z"/><path class="cls-7" d="M779.5,279.55h9.85v3.76a6.72,6.72,0,0,1,2-3,6.22,6.22,0,0,1,4.09-1.15q6.33,0,6.33,6.83v12.29h2.29V299H792.49v-.74h1.68V285a9.36,9.36,0,0,0-.33-3.17,1.18,1.18,0,0,0-1.18-.71,2.81,2.81,0,0,0-2.31,1.71,8.12,8.12,0,0,0-1,4.17v11.27h1.76V299H779.5v-.74h2.25v-18H779.5Z"/><path class="cls-7" d="M816,279.88a2.67,2.67,0,0,0-2.58,2,19.31,19.31,0,0,0-.77,6.5v2.12a13.59,13.59,0,0,0,.9,5.8,3.36,3.36,0,0,0,3.3,1.76,4.86,4.86,0,0,0,3.84-1.63,7.78,7.78,0,0,0,1.84-3.72l.74.08a8.29,8.29,0,0,1-2.86,5.07,9.57,9.57,0,0,1-5.84,1.59q-4.74,0-7.28-2.56c-1.68-1.7-2.53-4.19-2.53-7.47s1-5.81,2.88-7.58,4.6-2.66,8-2.66a9.31,9.31,0,0,1,5.56,1.41,4.24,4.24,0,0,1,1.92,3.54,4.43,4.43,0,0,1-.92,3.1,3.3,3.3,0,0,1-2.54,1,3.8,3.8,0,0,1-2.59-.85,3.22,3.22,0,0,1-1-2.54,5.72,5.72,0,0,1,.2-1.47h1.35a4.49,4.49,0,0,0,.29-1.47A1.73,1.73,0,0,0,816,279.88Z"/><path class="cls-7" d="M827.16,296.69q-2.64-2.71-2.64-7.56c0-3.22,1-5.7,3-7.41a11,11,0,0,1,7.53-2.58q9.29,0,8.91,9.32H832.41v1.59a14,14,0,0,0,1,6.05,3.63,3.63,0,0,0,3.55,2q4.74,0,6.21-5.06l.74.12a8.41,8.41,0,0,1-2.8,4.57q-2,1.64-6.07,1.64Q829.8,299.41,827.16,296.69Zm5.29-9.05h4.21v-2a17.09,17.09,0,0,0-.39-4.51,1.53,1.53,0,0,0-1.55-1.21,1.82,1.82,0,0,0-1.72,1.29,12.37,12.37,0,0,0-.55,4.43Z"/><path class="cls-7" d="M746.29,372.94h21.25l.41,8.49h-.74c-1-2.94-2.17-4.94-3.49-6s-3.29-1.59-5.9-1.59h-1.15v13.27h1.84a4.22,4.22,0,0,0,3.27-1.43,8,8,0,0,0,1.8-3.92h.61v12.09h-.7a9.72,9.72,0,0,0-1.81-4.37,4,4,0,0,0-3.17-1.3h-1.84v12.46h5.07v.9H746.29v-.9h2.42v-26.8h-2.42Z"/><path class="cls-7" d="M770.83,399.23q-2.64-2.72-2.64-7.56t3-7.42a11.08,11.08,0,0,1,7.53-2.57q9.28,0,8.91,9.31H776.08v1.6a14,14,0,0,0,1,6,3.63,3.63,0,0,0,3.55,2.05q4.74,0,6.21-5.07l.74.12a8.43,8.43,0,0,1-2.8,4.58q-2,1.63-6.07,1.63Q773.47,401.94,770.83,399.23Zm5.29-9.05h4.21v-2a17.23,17.23,0,0,0-.39-4.52,1.53,1.53,0,0,0-1.55-1.2,1.82,1.82,0,0,0-1.72,1.28,12.44,12.44,0,0,0-.55,4.44Z"/><path class="cls-7" d="M789.07,382.09h9.84v3.76c.9-2.78,2.89-4.17,6-4.17s4.92,1.47,5.58,4.41a5.79,5.79,0,0,1,6-4.41q6,0,6,6.82v12.3h2.29v.74H813.42v-.74h1.43V387.52c0-2.07-.18-3.28-.53-3.63a.87.87,0,0,0-.66-.25c-.79,0-1.48.53-2.08,1.59a8.17,8.17,0,0,0-.9,4V400.8h1.47v.74h-10.5v-.74h1.43V387.52c0-2.07-.18-3.28-.53-3.63a.85.85,0,0,0-.65-.25c-.77,0-1.45.58-2.07,1.74a8.78,8.78,0,0,0-.92,4.14V400.8h1.48v.74H789.07v-.74h2.25v-18h-2.25Z"/><path class="cls-7" d="M825.19,382.09h10V400.8h2.29v.74H825.35v-.74h2.25v-18h-2.41Zm6.16-2.82a3.82,3.82,0,0,1-3.08-1.1,4.16,4.16,0,0,1-.92-2.74,3.77,3.77,0,0,1,1-2.7,4,4,0,0,1,3-1.06,4.49,4.49,0,0,1,3.11,1,3.49,3.49,0,0,1,1.06,2.74,3.94,3.94,0,0,1-1,2.84A4.23,4.23,0,0,1,831.35,379.27Z"/><path class="cls-7" d="M838.38,382.09h9.85v3.76a6.81,6.81,0,0,1,2-3,6.21,6.21,0,0,1,4.08-1.14q6.33,0,6.34,6.82v12.3h2.28v.74H851.37v-.74h1.68V387.52a9.28,9.28,0,0,0-.33-3.16,1.19,1.19,0,0,0-1.18-.72,2.78,2.78,0,0,0-2.31,1.72,8.09,8.09,0,0,0-1,4.16V400.8H850v.74h-11.6v-.74h2.25v-18h-2.25Z"/><path class="cls-7" d="M863.3,382.09h10V400.8h2.29v.74H863.46v-.74h2.25v-18H863.3Zm6.17-2.82a3.82,3.82,0,0,1-3.08-1.1,4.11,4.11,0,0,1-.92-2.74,3.77,3.77,0,0,1,1-2.7,4,4,0,0,1,3-1.06,4.51,4.51,0,0,1,3.11,1,3.53,3.53,0,0,1,1.06,2.74,3.94,3.94,0,0,1-1,2.84A4.25,4.25,0,0,1,869.47,379.27Z"/><path class="cls-7" d="M877.35,401.94v-7.31h.5a9.7,9.7,0,0,0,2.86,5,6.93,6.93,0,0,0,4.49,1.44q4.17,0,4.17-2.66a1.87,1.87,0,0,0-1-1.72,14.25,14.25,0,0,0-4.09-1.39,15.91,15.91,0,0,1-4.66-2,5.15,5.15,0,0,1-2.25-4.65,6.76,6.76,0,0,1,2-5.09,7.17,7.17,0,0,1,5.23-1.9,10.08,10.08,0,0,1,4.12.94,3.36,3.36,0,0,0,1.19.33.94.94,0,0,0,.69-.29,4.87,4.87,0,0,0,.7-1.06h.45v6.25h-.5c-1.38-3.54-3.54-5.31-6.45-5.31a4.93,4.93,0,0,0-2.86.67,2,2,0,0,0-.94,1.7,1.47,1.47,0,0,0,.29,1q.28.35.45.51a2,2,0,0,0,.53.35l.61.28c.16.07.41.16.76.27a6.27,6.27,0,0,0,.75.2,31,31,0,0,1,4,1.21,13.6,13.6,0,0,1,2.32,1.24,5.66,5.66,0,0,1,2.25,5,6.57,6.57,0,0,1-2,5.23,8.27,8.27,0,0,1-5.6,1.77,10.81,10.81,0,0,1-4.9-1.18,1.59,1.59,0,0,0-.78-.33c-.6,0-1.18.51-1.75,1.51Z"/><path class="cls-7" d="M895.78,395.69V382.82h-2.25v-.73h2.25v-5.27l7.6-1.88v7.15h5.31v.73h-5.31v13.77a7.56,7.56,0,0,0,.39,2.82,1.57,1.57,0,0,0,1.61.9,2.66,2.66,0,0,0,2.15-1.23,7.08,7.08,0,0,0,1.2-3.35l.7.09a7.92,7.92,0,0,1-1.8,4.47q-1.47,1.65-4.86,1.65a8.61,8.61,0,0,1-5.19-1.34Q895.78,399.25,895.78,395.69Z"/><path class="cls-7" d="M747.89,436.55V423.68h-2.25v-.74h2.25v-5.27l7.6-1.88v7.15h5.31v.74h-5.31v13.77a7.56,7.56,0,0,0,.39,2.82,1.56,1.56,0,0,0,1.61.89,2.62,2.62,0,0,0,2.14-1.22,7.05,7.05,0,0,0,1.21-3.35l.69.08a7.85,7.85,0,0,1-1.79,4.47c-1,1.11-2.61,1.66-4.87,1.66a8.48,8.48,0,0,1-5.18-1.35Q747.89,440.1,747.89,436.55Z"/><path class="cls-7" d="M761.94,411.75h9.85V426.7a6.72,6.72,0,0,1,2-3,6.22,6.22,0,0,1,4.09-1.15q6.33,0,6.33,6.83v12.3h2.29v.73H774.93v-.73h1.68V428.38a9.36,9.36,0,0,0-.33-3.17,1.18,1.18,0,0,0-1.18-.71,2.81,2.81,0,0,0-2.31,1.71,8.1,8.1,0,0,0-1,4.17v11.28h1.75v.73h-11.6v-.73h2.25V412.48h-2.25Z"/><path class="cls-7" d="M790,440.08q-2.64-2.71-2.64-7.56c0-3.22,1-5.7,3-7.41a11,11,0,0,1,7.53-2.58q9.27,0,8.91,9.32H795.2v1.59a14,14,0,0,0,1,6.05,3.63,3.63,0,0,0,3.55,2q4.74,0,6.21-5.06l.74.12a8.44,8.44,0,0,1-2.8,4.57q-2,1.63-6.07,1.64Q792.59,442.8,790,440.08Zm5.29-9.05h4.21v-2a17.09,17.09,0,0,0-.39-4.51,1.53,1.53,0,0,0-1.55-1.21,1.82,1.82,0,0,0-1.72,1.29,12.37,12.37,0,0,0-.55,4.43Z"/><path class="cls-7" d="M818,432.79h1.19v-3.15a20.17,20.17,0,0,0-.43-5.21,1.66,1.66,0,0,0-1.65-1.32,2.43,2.43,0,0,0-1.33.38,1.21,1.21,0,0,0-.59,1.07,4.21,4.21,0,0,0,.24,1.37h1a5.74,5.74,0,0,1,.33,2.06,2.66,2.66,0,0,1-1,2.08,3.79,3.79,0,0,1-2.58.88q-3.51,0-3.51-3.39,0-5,8.54-5c3.24,0,5.48.56,6.72,1.66s1.86,3.12,1.86,6.07v8.29c0,1.42.39,2.12,1.18,2.12s1.47-1.4,1.64-4.2l.61,0q-.16,3.58-1.35,4.94A4.92,4.92,0,0,1,825,442.8q-4.9,0-5.64-3a4.36,4.36,0,0,1-1.59,2.28,5.45,5.45,0,0,1-3.11.74q-6,0-6-4.95a4,4,0,0,1,2.31-4A17.54,17.54,0,0,1,818,432.79Zm-1.4,7.76a.83.83,0,0,0,.85.61c.42,0,.82-.34,1.19-1a6.17,6.17,0,0,0,.55-2.88v-3.8h-.29q-2.53,0-2.53,3.72v.65A9.63,9.63,0,0,0,816.59,440.55Z"/><path class="cls-7" d="M832.05,436.55V423.68H829.8v-.74h2.25v-5.27l7.6-1.88v7.15H845v.74h-5.31v13.77a7.56,7.56,0,0,0,.39,2.82,1.56,1.56,0,0,0,1.61.89,2.62,2.62,0,0,0,2.14-1.22,7.05,7.05,0,0,0,1.21-3.35l.69.08a7.85,7.85,0,0,1-1.79,4.47q-1.47,1.67-4.87,1.66a8.48,8.48,0,0,1-5.18-1.35Q832.05,440.1,832.05,436.55Z"/><path class="cls-7" d="M859.75,424.09c-1,0-1.9.65-2.66,2a9.09,9.09,0,0,0-1.14,4.66v11h2.9v.73H846.1v-.73h2.25v-18H846.1v-.74H856v3.92a5.52,5.52,0,0,1,2-3.2,5.61,5.61,0,0,1,3.43-1.13,4.54,4.54,0,0,1,3.13,1.09,3.9,3.9,0,0,1,1.2,3.06,4.56,4.56,0,0,1-.9,3,3.38,3.38,0,0,1-2.75,1.07,3.13,3.13,0,0,1-2.74-1.23,3.78,3.78,0,0,1-.23-3.39h1.48C861.29,424.78,861,424.09,859.75,424.09Z"/><path class="cls-7" d="M869,440.08c-1.76-1.81-2.63-4.33-2.63-7.56s1-5.7,3-7.41a11,11,0,0,1,7.54-2.58q9.27,0,8.9,9.32H874.21v1.59a14,14,0,0,0,1,6.05,3.65,3.65,0,0,0,3.56,2q4.74,0,6.21-5.06l.73.12a8.44,8.44,0,0,1-2.8,4.57q-2,1.63-6.06,1.64C873.35,442.8,870.72,441.89,869,440.08Zm5.29-9.05h4.21v-2a17.09,17.09,0,0,0-.39-4.51,1.52,1.52,0,0,0-1.55-1.21,1.82,1.82,0,0,0-1.72,1.29,12.61,12.61,0,0,0-.55,4.43Z"/><path class="cls-7" d="M765.91,530h21.24l.41,8.5h-.74c-1-2.95-2.17-4.95-3.49-6s-3.29-1.59-5.9-1.59h-1.15V544.2h1.84a4.25,4.25,0,0,0,3.27-1.43,8.07,8.07,0,0,0,1.8-3.93h.61v12.1h-.69a9.87,9.87,0,0,0-1.82-4.38,4,4,0,0,0-3.17-1.3h-1.84v12.46h5.07v.9H765.91v-.9h2.41v-26.8h-2.41Z"/><path class="cls-7" d="M789.48,539.17h10v18.71h2.29v.74H789.64v-.74h2.25v-18h-2.41Zm6.17-2.82a3.84,3.84,0,0,1-3.09-1.1,4.16,4.16,0,0,1-.92-2.74,3.82,3.82,0,0,1,1-2.7,4,4,0,0,1,3.05-1.06,4.48,4.48,0,0,1,3.1,1,3.5,3.5,0,0,1,1.07,2.74,4,4,0,0,1-1,2.84A4.22,4.22,0,0,1,795.65,536.35Z"/><path class="cls-7" d="M802.43,528h10v29.9h2.29v.74H802.59v-.74h2.25V528.71h-2.41Z"/><path class="cls-7" d="M815.5,539.17h9.85v3.76q1.35-4.17,5.94-4.17t5.58,4.41a5.79,5.79,0,0,1,6-4.41q6,0,6,6.82v12.3h2.29v.74H839.85v-.74h1.43V544.6c0-2.07-.18-3.28-.53-3.63a.85.85,0,0,0-.65-.25c-.79,0-1.49.53-2.09,1.6a8.13,8.13,0,0,0-.9,4v11.52h1.47v.74h-10.5v-.74h1.43V544.6c0-2.07-.17-3.28-.53-3.63a.85.85,0,0,0-.65-.25c-.76,0-1.45.58-2.06,1.74a8.68,8.68,0,0,0-.92,4.15v11.27h1.47v.74H815.5v-.74h2.25v-18H815.5Z"/><polygon class="cls-19" points="716.27 255.85 689.63 271.06 687.06 301.63 664.36 281 634.49 288 647.1 260.03 631.21 233.79 661.71 237.14 681.75 213.92 687.99 243.96 716.27 255.85"/><polygon class="cls-20" points="693.24 93.12 691.92 123.77 716.42 142.24 686.86 150.45 676.87 179.45 659.92 153.88 629.25 153.34 648.34 129.32 639.37 99.99 668.11 110.72 693.24 93.12"/><polygon class="cls-21" points="191.86 521.69 190.54 552.34 215.04 570.8 185.48 579.01 175.49 608.02 158.54 582.45 127.87 581.91 146.96 557.89 137.99 528.55 166.73 539.28 191.86 521.69"/><polygon class="cls-22" points="204.37 656.24 195.29 685.54 214.29 709.63 183.62 710.05 166.58 735.57 156.7 706.53 127.17 698.21 151.73 679.83 150.52 649.18 175.59 666.86 204.37 656.24"/><path class="cls-7" d="M270,537.76q0,8.41-4.74,11.73-4.38,3.06-12,3.06H241.65v-.77h2.7v-27h-2.7V524h12.63q7.84,0,11.76,3.21T270,537.76Zm-17.65,14h1.55q4.13,0,5.9-2.93t1.78-9.78V536.7q0-9.19-3.51-11.07a10.19,10.19,0,0,0-4.74-.9h-1Z"/><path class="cls-7" d="M281.65,543h1.18v-3.14a20.68,20.68,0,0,0-.42-5.21,1.66,1.66,0,0,0-1.66-1.33,2.38,2.38,0,0,0-1.33.39,1.21,1.21,0,0,0-.59,1.06,4,4,0,0,0,.25,1.37h1a6,6,0,0,1,.32,2.06,2.66,2.66,0,0,1-1,2.08,3.78,3.78,0,0,1-2.57.88q-3.51,0-3.51-3.39,0-5,8.53-5c3.25,0,5.48.55,6.72,1.65s1.86,3.13,1.86,6.07v8.29c0,1.42.4,2.13,1.19,2.13s1.47-1.41,1.63-4.21l.62,0c-.11,2.4-.56,4-1.35,4.94a4.93,4.93,0,0,1-3.88,1.35q-4.9,0-5.64-3a4.43,4.43,0,0,1-1.6,2.28,5.41,5.41,0,0,1-3.1.74q-6,0-6.05-4.94a4,4,0,0,1,2.31-4A17.59,17.59,0,0,1,281.65,543Zm-1.41,7.76a.86.86,0,0,0,.86.62c.42,0,.82-.35,1.18-1.05a6.17,6.17,0,0,0,.55-2.88v-3.8h-.28q-2.54,0-2.53,3.72V548A10.14,10.14,0,0,0,280.24,550.71Z"/><path class="cls-7" d="M294.36,533.1h9.84v3.76a6.8,6.8,0,0,1,2-3,6.22,6.22,0,0,1,4.09-1.14q6.33,0,6.33,6.82v12.3h2.29v.73H307.35v-.73H309V538.54a9.73,9.73,0,0,0-.32-3.17,1.21,1.21,0,0,0-1.19-.71,2.81,2.81,0,0,0-2.31,1.71,8.15,8.15,0,0,0-1,4.17v11.28H306v.73h-11.6v-.73h2.24v-18h-2.24Z"/><path class="cls-7" d="M330.88,533.43a2.66,2.66,0,0,0-2.57,2,19.29,19.29,0,0,0-.78,6.5V544a13.59,13.59,0,0,0,.9,5.8,3.36,3.36,0,0,0,3.31,1.76,4.86,4.86,0,0,0,3.84-1.63,8,8,0,0,0,1.84-3.72l.73.08a8.29,8.29,0,0,1-2.86,5.07,9.53,9.53,0,0,1-5.84,1.59q-4.74,0-7.27-2.55c-1.69-1.7-2.54-4.2-2.54-7.48s1-5.81,2.88-7.58,4.6-2.65,8-2.65a9.29,9.29,0,0,1,5.56,1.41,4.23,4.23,0,0,1,1.92,3.53,4.46,4.46,0,0,1-.92,3.11,3.31,3.31,0,0,1-2.53,1,3.83,3.83,0,0,1-2.6-.86,3.21,3.21,0,0,1-1-2.54,5.33,5.33,0,0,1,.21-1.47h1.34a4.24,4.24,0,0,0,.29-1.47A1.73,1.73,0,0,0,330.88,533.43Z"/><path class="cls-7" d="M342,550.24a10.42,10.42,0,0,1-2.63-7.55c0-3.23,1-5.7,3-7.42a11.05,11.05,0,0,1,7.54-2.57q9.27,0,8.9,9.31H347.26v1.59a14,14,0,0,0,1,6,3.65,3.65,0,0,0,3.56,2c3.16,0,5.23-1.68,6.21-5.06l.73.12a8.41,8.41,0,0,1-2.8,4.58c-1.34,1.09-3.37,1.63-6.06,1.63C346.4,553,343.77,552.06,342,550.24Zm5.29-9h4.21v-2a17.14,17.14,0,0,0-.39-4.51,1.52,1.52,0,0,0-1.55-1.21,1.82,1.82,0,0,0-1.72,1.29,12.65,12.65,0,0,0-.55,4.43Z"/><path class="cls-7" d="M377.41,543h1.19v-3.14a20.53,20.53,0,0,0-.43-5.21,1.66,1.66,0,0,0-1.66-1.33,2.38,2.38,0,0,0-1.33.39,1.21,1.21,0,0,0-.59,1.06,4,4,0,0,0,.25,1.37h1a5.74,5.74,0,0,1,.33,2.06,2.67,2.67,0,0,1-1,2.08,3.77,3.77,0,0,1-2.57.88q-3.51,0-3.51-3.39,0-5,8.54-5,4.86,0,6.72,1.65c1.24,1.1,1.86,3.13,1.86,6.07v8.29c0,1.42.39,2.13,1.18,2.13s1.47-1.41,1.63-4.21l.62,0c-.11,2.4-.56,4-1.35,4.94A4.92,4.92,0,0,1,384.4,553q-4.9,0-5.64-3a4.42,4.42,0,0,1-1.59,2.28,5.47,5.47,0,0,1-3.11.74q-6,0-6.05-4.94a4,4,0,0,1,2.31-4A17.59,17.59,0,0,1,377.41,543ZM376,550.71a.86.86,0,0,0,.86.62c.42,0,.82-.35,1.18-1.05a6.16,6.16,0,0,0,.56-2.88v-3.8h-.29q-2.54,0-2.53,3.72V548A10.14,10.14,0,0,0,376,550.71Z"/><path class="cls-7" d="M391,553v-7.31h.49a9.7,9.7,0,0,0,2.86,5,7,7,0,0,0,4.49,1.43q4.17,0,4.17-2.65a1.85,1.85,0,0,0-1-1.72,14,14,0,0,0-4.09-1.39,15.91,15.91,0,0,1-4.66-2,5.15,5.15,0,0,1-2.24-4.66,6.73,6.73,0,0,1,2-5.08,7.17,7.17,0,0,1,5.23-1.9,10.08,10.08,0,0,1,4.12.94,3.52,3.52,0,0,0,1.19.32.94.94,0,0,0,.69-.28,5,5,0,0,0,.7-1.07h.45v6.26h-.49c-1.39-3.54-3.55-5.32-6.46-5.32a4.92,4.92,0,0,0-2.86.68,2,2,0,0,0-.94,1.69,1.47,1.47,0,0,0,.29,1,4.59,4.59,0,0,0,.45.51,1.78,1.78,0,0,0,.53.35l.61.29a6.3,6.3,0,0,0,.76.26,6.85,6.85,0,0,0,.75.21,31.34,31.34,0,0,1,4,1.2,13.65,13.65,0,0,1,2.32,1.25,5.63,5.63,0,0,1,2.25,5,6.54,6.54,0,0,1-2,5.23,8.22,8.22,0,0,1-5.6,1.78,10.81,10.81,0,0,1-4.9-1.18,1.59,1.59,0,0,0-.78-.33c-.6,0-1.18.5-1.75,1.51Z"/><path class="cls-7" d="M424.88,533.1v3.23a5.7,5.7,0,0,1,5.64-3.63,6.49,6.49,0,0,1,5.46,2.53q1.93,2.53,1.94,7.68t-2.11,7.6q-2.1,2.44-6.31,2.45a6.75,6.75,0,0,1-2.94-.49A3.78,3.78,0,0,1,425,551v10.58h5.27v.74H415.12v-.74h2.25v-27.7H415.2v-.74Zm4.74,2.8c-.27-1-.8-1.45-1.59-1.45A2.62,2.62,0,0,0,425.9,536a7.85,7.85,0,0,0-.93,4.1v7.48a6,6,0,0,0,.69,3,2.21,2.21,0,0,0,2,1.23c.9,0,1.51-.6,1.84-1.8a27.21,27.21,0,0,0,.49-6.29v-2.13A25.3,25.3,0,0,0,429.62,535.9Z"/><path class="cls-7" d="M442.08,550.35q-2.61-2.62-2.61-7.5c0-3.26.93-5.76,2.8-7.52s4.48-2.63,7.86-2.63,5.9.81,7.56,2.43,2.49,4.09,2.49,7.41q0,10.43-10.38,10.42Q444.7,553,442.08,550.35Zm10.26-5.85V541a27.47,27.47,0,0,0-.43-5.78c-.29-1.21-1-1.82-2-1.82a2.05,2.05,0,0,0-1.45.51,3.11,3.11,0,0,0-.8,1.7,31.48,31.48,0,0,0-.37,5.6v3.18a28.55,28.55,0,0,0,.27,5.35,9.42,9.42,0,0,0,.55,1.47,1.73,1.73,0,0,0,1.76,1,2.09,2.09,0,0,0,2.08-1.83A27.88,27.88,0,0,0,452.34,544.5Z"/><path class="cls-7" d="M461.16,521.91h10v29.91h2.29v.73H461.33v-.73h2.24V522.65h-2.41Z"/><path class="cls-7" d="M474.07,533.1h10v18.72h2.29v.73H474.24v-.73h2.24v-18h-2.41Zm6.17-2.81a3.79,3.79,0,0,1-3.08-1.11,4.06,4.06,0,0,1-.92-2.73,3.77,3.77,0,0,1,1-2.7,4,4,0,0,1,3-1.06,4.51,4.51,0,0,1,3.11,1,3.48,3.48,0,0,1,1.06,2.73,3.91,3.91,0,0,1-1,2.84A4.25,4.25,0,0,1,480.24,530.29Z"/><path class="cls-7" d="M489.23,546.71V533.84H487v-.74h2.25v-5.27l7.6-1.87v7.14h5.31v.74h-5.31v13.77a7.56,7.56,0,0,0,.39,2.82,1.56,1.56,0,0,0,1.61.9A2.63,2.63,0,0,0,501,550.1a7,7,0,0,0,1.21-3.35l.69.08a7.91,7.91,0,0,1-1.79,4.48q-1.47,1.65-4.87,1.65a8.48,8.48,0,0,1-5.18-1.35Q489.23,550.26,489.23,546.71Z"/><path class="cls-7" d="M503.12,533.1h10v18.72h2.29v.73H503.28v-.73h2.25v-18h-2.41Zm6.17-2.81a3.81,3.81,0,0,1-3.09-1.11,4.12,4.12,0,0,1-.92-2.73,3.82,3.82,0,0,1,1-2.7,4,4,0,0,1,3.05-1.06,4.46,4.46,0,0,1,3.1,1,3.49,3.49,0,0,1,1.07,2.73,3.87,3.87,0,0,1-1,2.84A4.23,4.23,0,0,1,509.29,530.29Z"/><path class="cls-7" d="M527.67,533.43a2.67,2.67,0,0,0-2.57,2,19.29,19.29,0,0,0-.78,6.5V544a13.59,13.59,0,0,0,.9,5.8,3.36,3.36,0,0,0,3.31,1.76,4.83,4.83,0,0,0,3.84-1.63,7.87,7.87,0,0,0,1.84-3.72l.73.08a8.24,8.24,0,0,1-2.86,5.07,9.53,9.53,0,0,1-5.84,1.59q-4.74,0-7.27-2.55c-1.69-1.7-2.53-4.2-2.53-7.48s1-5.81,2.88-7.58,4.59-2.65,8-2.65a9.29,9.29,0,0,1,5.56,1.41,4.23,4.23,0,0,1,1.92,3.53,4.41,4.41,0,0,1-.92,3.11,3.31,3.31,0,0,1-2.53,1,3.83,3.83,0,0,1-2.6-.86,3.21,3.21,0,0,1-1-2.54,5.33,5.33,0,0,1,.21-1.47h1.35a4.46,4.46,0,0,0,.28-1.47A1.73,1.73,0,0,0,527.67,533.43Z"/><path class="cls-7" d="M545.77,543H547v-3.14a20.68,20.68,0,0,0-.42-5.21,1.66,1.66,0,0,0-1.66-1.33,2.38,2.38,0,0,0-1.33.39,1.21,1.21,0,0,0-.59,1.06,4,4,0,0,0,.25,1.37h1a6,6,0,0,1,.32,2.06,2.66,2.66,0,0,1-1,2.08,3.78,3.78,0,0,1-2.57.88q-3.51,0-3.51-3.39,0-5,8.53-5c3.25,0,5.48.55,6.72,1.65s1.86,3.13,1.86,6.07v8.29c0,1.42.4,2.13,1.19,2.13s1.47-1.41,1.63-4.21l.62,0c-.11,2.4-.56,4-1.35,4.94a4.93,4.93,0,0,1-3.88,1.35q-4.9,0-5.64-3a4.43,4.43,0,0,1-1.6,2.28,5.41,5.41,0,0,1-3.1.74q-6,0-6-4.94a4,4,0,0,1,2.31-4A17.59,17.59,0,0,1,545.77,543Zm-1.41,7.76a.86.86,0,0,0,.86.62c.42,0,.82-.35,1.18-1.05a6.17,6.17,0,0,0,.55-2.88v-3.8h-.28q-2.53,0-2.53,3.72V548A10.14,10.14,0,0,0,544.36,550.71Z"/><path class="cls-7" d="M558.23,521.91h10v29.91h2.29v.73H558.39v-.73h2.25V522.65h-2.41Z"/><path class="cls-7" d="M255.09,593.41l-.45-2.86c-.92,2.18-2.8,3.26-5.63,3.26a6.48,6.48,0,0,1-5.46-2.53q-1.94-2.53-1.94-7.56,0-10.17,8.09-10.17,3.6,0,4.74,2v-12H252v-.73h10.21v29.9h2v.74ZM250,590.65a1.7,1.7,0,0,0,1.65,1.41,2.64,2.64,0,0,0,2.08-1.06,4.83,4.83,0,0,0,.88-3.15v-8.91a6,6,0,0,0-.69-3,2.21,2.21,0,0,0-2-1.22c-.9,0-1.52.6-1.84,1.79a27.25,27.25,0,0,0-.49,6.3V585A22.81,22.81,0,0,0,250,590.65Z"/><path class="cls-7" d="M265.06,574h10v18.71h2.29v.74H265.23v-.74h2.24v-18h-2.41Zm6.17-2.82a3.82,3.82,0,0,1-3.08-1.1,4.11,4.11,0,0,1-.92-2.74,3.77,3.77,0,0,1,1-2.7,4,4,0,0,1,3-1.06,4.51,4.51,0,0,1,3.11,1,3.49,3.49,0,0,1,1.06,2.74,3.94,3.94,0,0,1-1,2.84A4.25,4.25,0,0,1,271.23,571.14Z"/><path class="cls-7" d="M279.12,593.81V586.5h.49a9.78,9.78,0,0,0,2.86,5,7,7,0,0,0,4.49,1.43q4.17,0,4.17-2.66a1.87,1.87,0,0,0-1-1.72,14,14,0,0,0-4.09-1.38,15.91,15.91,0,0,1-4.66-2,5.14,5.14,0,0,1-2.24-4.65,6.75,6.75,0,0,1,2-5.09,7.17,7.17,0,0,1,5.23-1.9,10.08,10.08,0,0,1,4.12.94,3.36,3.36,0,0,0,1.19.33.94.94,0,0,0,.69-.29,4.87,4.87,0,0,0,.7-1.06h.45v6.25H293c-1.39-3.54-3.55-5.31-6.46-5.31a4.93,4.93,0,0,0-2.86.67,2,2,0,0,0-.94,1.7,1.47,1.47,0,0,0,.29,1q.28.35.45.51a2,2,0,0,0,.53.35l.61.28c.16.07.42.16.76.27a4.78,4.78,0,0,0,.75.2,32.69,32.69,0,0,1,4,1.21,13.6,13.6,0,0,1,2.32,1.24,5.66,5.66,0,0,1,2.25,5,6.57,6.57,0,0,1-2,5.23,8.27,8.27,0,0,1-5.6,1.77,10.81,10.81,0,0,1-4.9-1.18,1.59,1.59,0,0,0-.78-.33c-.6,0-1.18.51-1.75,1.51Z"/><path class="cls-7" d="M307.35,574.29a2.67,2.67,0,0,0-2.58,2,19.28,19.28,0,0,0-.77,6.49v2.13a13.81,13.81,0,0,0,.89,5.8,3.39,3.39,0,0,0,3.31,1.76,4.84,4.84,0,0,0,3.84-1.64,7.78,7.78,0,0,0,1.84-3.72l.74.09a8.23,8.23,0,0,1-2.86,5.06,9.57,9.57,0,0,1-5.84,1.59q-4.74,0-7.28-2.55c-1.68-1.7-2.53-4.19-2.53-7.48s1-5.8,2.88-7.57,4.6-2.66,8-2.66a9.34,9.34,0,0,1,5.56,1.41,4.24,4.24,0,0,1,1.92,3.53,4.45,4.45,0,0,1-.92,3.11,3.34,3.34,0,0,1-2.54,1,3.8,3.8,0,0,1-2.59-.86,3.18,3.18,0,0,1-1-2.53,5.72,5.72,0,0,1,.2-1.47H309a4.59,4.59,0,0,0,.29-1.47A1.73,1.73,0,0,0,307.35,574.29Z"/><path class="cls-7" d="M318.58,591.2q-2.61-2.61-2.61-7.5c0-3.25.93-5.76,2.79-7.51s4.49-2.64,7.87-2.64,5.89.81,7.56,2.43,2.49,4.09,2.49,7.42q0,10.41-10.38,10.41C322.9,593.81,320.32,592.94,318.58,591.2Zm10.26-5.84v-3.47a28.29,28.29,0,0,0-.43-5.79c-.29-1.21-1-1.81-2-1.81a2.07,2.07,0,0,0-1.45.51,3.14,3.14,0,0,0-.79,1.69,30.62,30.62,0,0,0-.37,5.6v3.19a28.55,28.55,0,0,0,.27,5.35,8.51,8.51,0,0,0,.55,1.47,1.74,1.74,0,0,0,1.75,1,2.09,2.09,0,0,0,2.09-1.84A28.49,28.49,0,0,0,328.84,585.36Z"/><path class="cls-7" d="M361.72,593.41h-9.31l-.45-3a5.4,5.4,0,0,1-1.94,2.52,6.85,6.85,0,0,1-3.82.87q-6.33,0-6.33-6.82v-12.3h-2.29V574h9.89v14a9.59,9.59,0,0,0,.34,3.23,1.37,1.37,0,0,0,1.39.78,2.29,2.29,0,0,0,1.86-1.27,6.46,6.46,0,0,0,.82-3.51V574.69H350V574h9.48v18.71h2.24Z"/><path class="cls-7" d="M376.19,575.1c-1,0-1.9.66-2.66,2a9.12,9.12,0,0,0-1.14,4.66v10.95h2.9v.74H362.54v-.74h2.25v-18h-2.25V574h9.85v3.92a5.52,5.52,0,0,1,2-3.21,5.66,5.66,0,0,1,3.43-1.12,4.53,4.53,0,0,1,3.13,1.08,3.94,3.94,0,0,1,1.2,3.07,4.58,4.58,0,0,1-.9,3,3.41,3.41,0,0,1-2.76,1.06,3.12,3.12,0,0,1-2.73-1.22,3.78,3.78,0,0,1-.23-3.39H377C377.72,575.8,377.44,575.1,376.19,575.1Z"/><path class="cls-7" d="M383.21,593.81V586.5h.49a9.85,9.85,0,0,0,2.86,5,7,7,0,0,0,4.5,1.43q4.15,0,4.16-2.66a1.87,1.87,0,0,0-1-1.72,13.79,13.79,0,0,0-4.08-1.38,15.79,15.79,0,0,1-4.66-2,5.15,5.15,0,0,1-2.25-4.65,6.79,6.79,0,0,1,2-5.09,7.19,7.19,0,0,1,5.23-1.9,10.12,10.12,0,0,1,4.13.94,3.37,3.37,0,0,0,1.18.33,1,1,0,0,0,.7-.29,4.57,4.57,0,0,0,.69-1.06h.45v6.25h-.49q-2.08-5.31-6.45-5.31a4.91,4.91,0,0,0-2.86.67,2,2,0,0,0-.94,1.7,1.46,1.46,0,0,0,.28,1q.29.35.45.51a2.41,2.41,0,0,0,.53.35l.62.28q.24.11.75.27a4.83,4.83,0,0,0,.76.2,31.85,31.85,0,0,1,4,1.21,13.33,13.33,0,0,1,2.33,1.24,5.66,5.66,0,0,1,2.25,5,6.57,6.57,0,0,1-2,5.23,8.28,8.28,0,0,1-5.6,1.77,10.81,10.81,0,0,1-4.9-1.18,1.59,1.59,0,0,0-.78-.33c-.6,0-1.19.51-1.76,1.51Z"/><path class="cls-7" d="M402.84,591.1a10.43,10.43,0,0,1-2.63-7.56c0-3.23,1-5.7,3-7.42a11.1,11.1,0,0,1,7.54-2.57q9.27,0,8.9,9.32H408.09v1.59a14,14,0,0,0,1,6,3.65,3.65,0,0,0,3.56,2q4.74,0,6.21-5.07l.73.12a8.38,8.38,0,0,1-2.8,4.58c-1.34,1.09-3.37,1.63-6.06,1.63C407.23,593.81,404.6,592.91,402.84,591.1Zm5.29-9.05h4.21v-2a17.23,17.23,0,0,0-.39-4.52,1.52,1.52,0,0,0-1.55-1.2,1.8,1.8,0,0,0-1.71,1.28,12.39,12.39,0,0,0-.56,4.44Z"/><path class="cls-7" d="M289.25,671.66q0,8.42-4.74,11.72-4.38,3.07-12,3.07H260.94v-.78h2.69v-27h-2.69v-.78h12.62q7.85,0,11.77,3.21T289.25,671.66Zm-17.65,14h1.55q4.13,0,5.9-2.92t1.78-9.79V670.6q0-9.2-3.51-11.08a10.33,10.33,0,0,0-4.74-.89h-1Z"/><path class="cls-7" d="M300.93,676.85h1.19V673.7a20.59,20.59,0,0,0-.43-5.21,1.67,1.67,0,0,0-1.66-1.33,2.33,2.33,0,0,0-1.32.39,1.21,1.21,0,0,0-.6,1.06,4.18,4.18,0,0,0,.25,1.37h1a5.76,5.76,0,0,1,.33,2.07,2.67,2.67,0,0,1-1,2.08,3.81,3.81,0,0,1-2.58.88q-3.51,0-3.51-3.39,0-5,8.54-5,4.86,0,6.72,1.66t1.86,6.06v8.3c0,1.41.39,2.12,1.18,2.12s1.47-1.4,1.64-4.21l.61,0q-.16,3.6-1.35,5a4.92,4.92,0,0,1-3.88,1.35q-4.91,0-5.64-3a4.35,4.35,0,0,1-1.59,2.29,5.47,5.47,0,0,1-3.11.74q-6,0-6-5a4,4,0,0,1,2.3-4A17.62,17.62,0,0,1,300.93,676.85Zm-1.41,7.76a.85.85,0,0,0,.86.61c.42,0,.82-.35,1.19-1a6.3,6.3,0,0,0,.55-2.88v-3.8h-.29q-2.54,0-2.53,3.72v.65A10.18,10.18,0,0,0,299.52,684.61Z"/><path class="cls-7" d="M313.64,667h9.84v3.76a6.82,6.82,0,0,1,2-3,6.15,6.15,0,0,1,4.08-1.15q6.33,0,6.33,6.82v12.3h2.29v.74H326.63v-.74h1.68V672.43a9.28,9.28,0,0,0-.33-3.16,1.19,1.19,0,0,0-1.19-.72c-.87,0-1.64.57-2.3,1.72a8.1,8.1,0,0,0-1,4.17v11.27h1.76v.74h-11.6v-.74h2.25v-18h-2.25Z"/><path class="cls-7" d="M350.16,667.33a2.66,2.66,0,0,0-2.57,2,19.22,19.22,0,0,0-.78,6.49v2.13a13.59,13.59,0,0,0,.9,5.8,3.38,3.38,0,0,0,3.31,1.76,4.84,4.84,0,0,0,3.84-1.64,7.88,7.88,0,0,0,1.84-3.71l.74.08a8.28,8.28,0,0,1-2.86,5.06,9.58,9.58,0,0,1-5.85,1.6c-3.16,0-5.58-.86-7.27-2.56s-2.53-4.19-2.53-7.47,1-5.81,2.88-7.58,4.59-2.66,8-2.66a9.28,9.28,0,0,1,5.55,1.41,4.24,4.24,0,0,1,1.92,3.54,4.39,4.39,0,0,1-.92,3.1,3.3,3.3,0,0,1-2.53,1,3.78,3.78,0,0,1-2.59-.86,3.15,3.15,0,0,1-1-2.53,5.31,5.31,0,0,1,.2-1.47h1.35a4.55,4.55,0,0,0,.28-1.47A1.73,1.73,0,0,0,350.16,667.33Z"/><path class="cls-7" d="M361.3,684.14q-2.64-2.71-2.64-7.56t3-7.41a11.08,11.08,0,0,1,7.54-2.58q9.27,0,8.91,9.32H366.55v1.59a13.89,13.89,0,0,0,1,6,3.63,3.63,0,0,0,3.55,2q4.74,0,6.21-5.07l.74.13a8.44,8.44,0,0,1-2.8,4.57q-2,1.63-6.07,1.64C365.69,686.86,363.05,686,361.3,684.14Zm5.29-9h4.2v-2a17.83,17.83,0,0,0-.38-4.52,1.53,1.53,0,0,0-1.56-1.2,1.81,1.81,0,0,0-1.71,1.29,12.34,12.34,0,0,0-.55,4.43Z"/><path class="cls-7" d="M262.53,721.46V708.59h-2.25v-.74h2.25v-5.26l7.6-1.88v7.14h5.31v.74h-5.31v13.77a7.56,7.56,0,0,0,.39,2.82,1.56,1.56,0,0,0,1.61.9,2.66,2.66,0,0,0,2.15-1.23,7.12,7.12,0,0,0,1.2-3.35l.7.08a8,8,0,0,1-1.8,4.48q-1.47,1.65-4.86,1.65a8.52,8.52,0,0,1-5.19-1.35Q262.53,725,262.53,721.46Z"/><path class="cls-7" d="M276.58,696.66h9.85v15a6.72,6.72,0,0,1,2-3,6.22,6.22,0,0,1,4.09-1.14q6.33,0,6.33,6.82v12.3h2.29v.73H289.57v-.73h1.68V713.29a9.36,9.36,0,0,0-.33-3.17,1.19,1.19,0,0,0-1.18-.71,2.81,2.81,0,0,0-2.31,1.71,8.15,8.15,0,0,0-1,4.17v11.28h1.76v.73H276.58v-.73h2.25V697.4h-2.25Z"/><path class="cls-7" d="M304.59,725a10.38,10.38,0,0,1-2.64-7.55q0-4.85,3-7.42a11,11,0,0,1,7.53-2.57q9.29,0,8.91,9.31H309.84v1.6a14,14,0,0,0,1,6,3.64,3.64,0,0,0,3.55,2c3.16,0,5.23-1.68,6.21-5.06l.74.12a8.47,8.47,0,0,1-2.8,4.58q-2,1.63-6.07,1.63C309,727.71,306.35,726.81,304.59,725Zm5.29-9h4.21v-2a17.14,17.14,0,0,0-.39-4.51,1.54,1.54,0,0,0-1.55-1.21,1.82,1.82,0,0,0-1.72,1.29,12.41,12.41,0,0,0-.55,4.43Z"/><path class="cls-7" d="M332.64,717.7h1.18v-3.14a20.06,20.06,0,0,0-.43-5.21,1.66,1.66,0,0,0-1.65-1.33,2.36,2.36,0,0,0-1.33.39,1.19,1.19,0,0,0-.59,1.06,4.21,4.21,0,0,0,.24,1.37h1a5.74,5.74,0,0,1,.33,2.06,2.66,2.66,0,0,1-1,2.08,3.79,3.79,0,0,1-2.58.88q-3.51,0-3.51-3.39,0-5,8.54-5,4.86,0,6.72,1.65c1.24,1.1,1.86,3.13,1.86,6.07v8.29c0,1.42.39,2.13,1.18,2.13s1.47-1.41,1.64-4.21l.61,0c-.11,2.4-.56,4-1.35,4.94a4.92,4.92,0,0,1-3.88,1.35q-4.9,0-5.64-3a4.36,4.36,0,0,1-1.59,2.28,5.36,5.36,0,0,1-3.1.74c-4,0-6.05-1.65-6.05-4.94a4,4,0,0,1,2.31-4A17.59,17.59,0,0,1,332.64,717.7Zm-1.41,7.76a.84.84,0,0,0,.85.62c.43,0,.82-.35,1.19-1.05a6.17,6.17,0,0,0,.55-2.88v-3.79h-.29c-1.68,0-2.53,1.23-2.53,3.71v.66A10,10,0,0,0,331.23,725.46Z"/><path class="cls-7" d="M346.69,721.46V708.59h-2.25v-.74h2.25v-5.26l7.6-1.88v7.14h5.31v.74h-5.31v13.77a7.56,7.56,0,0,0,.39,2.82,1.57,1.57,0,0,0,1.61.9,2.66,2.66,0,0,0,2.15-1.23,7.12,7.12,0,0,0,1.2-3.35l.7.08a8,8,0,0,1-1.8,4.48q-1.47,1.65-4.86,1.65a8.52,8.52,0,0,1-5.19-1.35Q346.69,725,346.69,721.46Z"/><path class="cls-7" d="M374.39,709c-1,0-1.89.65-2.66,2a9.12,9.12,0,0,0-1.14,4.66v11h2.9v.73H360.74v-.73H363v-18h-2.25v-.74h9.85v3.93a5.52,5.52,0,0,1,2-3.21,5.6,5.6,0,0,1,3.43-1.12,4.51,4.51,0,0,1,3.13,1.08,3.9,3.9,0,0,1,1.2,3.06,4.66,4.66,0,0,1-.89,3,3.41,3.41,0,0,1-2.76,1.06,3.14,3.14,0,0,1-2.74-1.23,3.75,3.75,0,0,1-.22-3.39h1.47C375.93,709.69,375.64,709,374.39,709Z"/><path class="cls-7" d="M383.6,725c-1.76-1.81-2.63-4.33-2.63-7.55s1-5.7,3-7.42a11.05,11.05,0,0,1,7.54-2.57q9.27,0,8.9,9.31H388.85v1.6a14,14,0,0,0,1,6,3.65,3.65,0,0,0,3.56,2c3.16,0,5.23-1.68,6.21-5.06l.73.12a8.47,8.47,0,0,1-2.8,4.58c-1.34,1.09-3.37,1.63-6.06,1.63C388,727.71,385.36,726.81,383.6,725Zm5.29-9h4.21v-2a17.14,17.14,0,0,0-.39-4.51,1.53,1.53,0,0,0-1.55-1.21,1.82,1.82,0,0,0-1.72,1.29,12.65,12.65,0,0,0-.55,4.43Z"/><path class="cls-7" d="M784.83,130.69q0,8.42-4.74,11.73-4.38,3.06-12,3.06H756.52v-.78h2.69v-27h-2.69v-.78h12.62q7.85,0,11.77,3.21T784.83,130.69Zm-17.65,14h1.55q4.13,0,5.9-2.92c1.19-1.94,1.78-5.21,1.78-9.78v-2.37q0-9.19-3.51-11.07a10.19,10.19,0,0,0-4.74-.9h-1Z"/><path class="cls-7" d="M800.56,127.18c-1,0-1.9.65-2.66,2a9.12,9.12,0,0,0-1.14,4.66v10.95h2.9v.73H786.91v-.73h2.25v-18h-2.25V126h9.85V130a5.52,5.52,0,0,1,2-3.21,5.6,5.6,0,0,1,3.43-1.12,4.53,4.53,0,0,1,3.13,1.08,3.9,3.9,0,0,1,1.2,3.06,4.61,4.61,0,0,1-.9,3,3.42,3.42,0,0,1-2.75,1.06,3.13,3.13,0,0,1-2.74-1.23,3.77,3.77,0,0,1-.23-3.39h1.48C802.1,127.87,801.81,127.18,800.56,127.18Z"/><path class="cls-7" d="M816.33,135.88h1.18v-3.15a20.17,20.17,0,0,0-.43-5.21,1.65,1.65,0,0,0-1.65-1.32,2.43,2.43,0,0,0-1.33.38,1.21,1.21,0,0,0-.59,1.07,4.21,4.21,0,0,0,.24,1.37h1a5.74,5.74,0,0,1,.33,2.06,2.66,2.66,0,0,1-1,2.08,3.78,3.78,0,0,1-2.57.88q-3.53,0-3.52-3.39,0-5,8.54-5,4.86,0,6.72,1.65c1.24,1.1,1.86,3.13,1.86,6.07v8.29c0,1.42.4,2.13,1.19,2.13s1.47-1.41,1.63-4.21l.61,0q-.16,3.59-1.35,4.94a4.92,4.92,0,0,1-3.88,1.35q-4.9,0-5.64-3a4.36,4.36,0,0,1-1.59,2.28,5.44,5.44,0,0,1-3.1.74q-6,0-6.05-4.94a4,4,0,0,1,2.31-4A17.59,17.59,0,0,1,816.33,135.88Zm-1.41,7.76a.85.85,0,0,0,.86.62c.42,0,.81-.35,1.18-1a6.17,6.17,0,0,0,.55-2.88v-3.8h-.28q-2.54,0-2.54,3.72v.65A10,10,0,0,0,814.92,143.64Z"/><path class="cls-7" d="M845.13,123.91l1.14-.69c.17-.85-.16-1.27-1-1.27-1.17,0-1.75.9-1.75,2.69a12.43,12.43,0,0,0,.28,2.46,6.22,6.22,0,0,1,3.11,5.33,6.08,6.08,0,0,1-2.25,5,9.48,9.48,0,0,1-6.09,1.8,17.59,17.59,0,0,1-3.31-.33c-1.19.77-1.79,1.34-1.79,1.72s.87.57,2.61.57h4.17q9.27,0,9.27,6.66a6.74,6.74,0,0,1-2.8,5.7q-2.79,2.1-8.72,2.1-10.1,0-10.09-4.37,0-2.37,3.15-3.27l2.45,1.11a8.38,8.38,0,0,0-.33,2.24q0,3.53,5.23,3.52a8.57,8.57,0,0,0,4.9-1.19,3.48,3.48,0,0,0,1.72-2.94,2.48,2.48,0,0,0-1-2.35,9.69,9.69,0,0,0-4.15-.59h-4c-2.21,0-3.79-.37-4.74-1.1a3.31,3.31,0,0,1-1.43-2.72,3.8,3.8,0,0,1,1-2.7,18.42,18.42,0,0,1,3.64-2.67,5.91,5.91,0,0,1-4.74-6.21,6.2,6.2,0,0,1,2.2-4.95q2.21-1.87,6.62-1.87a9.36,9.36,0,0,1,4.53,1,9.59,9.59,0,0,1-.24-2,4.05,4.05,0,0,1,1.23-3.3,4.17,4.17,0,0,1,2.73-1,3.58,3.58,0,0,1,2.43.8,2.72,2.72,0,0,1,.92,2.19,2.67,2.67,0,0,1-.73,2.06,2.53,2.53,0,0,1-1.78.67,2.63,2.63,0,0,1-1.72-.55A2.06,2.06,0,0,1,845.13,123.91Zm-8.66,7.64v2.21a9.63,9.63,0,0,0,.47,3.71,1.51,1.51,0,0,0,1.43,1,1.45,1.45,0,0,0,1.39-1,11.66,11.66,0,0,0,.43-3.94v-2a13.54,13.54,0,0,0-.41-4.19,1.4,1.4,0,0,0-1.37-1,1.57,1.57,0,0,0-1.45,1A11.35,11.35,0,0,0,836.47,131.55Z"/></svg>