<svg id="Layer_1" data-name="Layer 1" xmlns="http://www.w3.org/2000/svg" viewBox="0 0 499.56 600.89"><defs><style>.cls-1{fill:#a8dcc6;}.cls-2{fill:#b9edd6;}</style></defs><path class="cls-1" d="M220.94,188.2c-5.82,5.15-57.35,60-62.08,63.13s-62.61,48.4-57.87,48.4,120.47-78.91,124.15-74.18,25.78,51.56,25.78,59.45S212,420.21,205.68,425.47,74.15,481.76,76.26,483.87,234,453.35,234,453.35s42.21-85.23,43.78-82.07,25.78,76.81,25.26,81-68.64,100-69,103.64,98-93.12,100.6-98.91S315.11,309.73,313,297.63s2.11-68.92,2.11-68.92,25.25,27.36,32.09,24.73-1.58-87.86-3.16-87.86S335.62,214.51,333,215s-26.83-32.09-33.67-35.25-58.63-.52-65.35-.52S223.89,185.58,220.94,188.2Z"/><ellipse class="cls-1" cx="253.54" cy="132.64" rx="29.86" ry="40.8" transform="translate(-25.45 69.08) rotate(-14.78)"/><path class="cls-1" d="M307.91,161.5c2.77,8.47,8.57,7.82,10.56,7.82s39.32-9.64,43.76-9.8,27.23,2.61,27.23,2.61l-13.62-47s-11.62,14.23-20.35,17.6-44.57,15.35-45.94,16.88S305.47,154,307.91,161.5Z"/><ellipse class="cls-2" cx="382.89" cy="138.11" rx="8.26" ry="24.95" transform="translate(-21.43 91.18) rotate(-13.21)"/><path class="cls-2" d="M250.92,285c-4.21,11.58-51,130.55-52.61,137.84S97.7,444.61,102.56,461.77s2.11,34.72,10.53,33.67,121-23.15,131.52-35.77,36.83-73.61,35.77-69.43,14.73,44.61,7.37,59.65-46.3,75-46.3,75l27.36,16.84s80-85.85,81-91.85S313,297.63,313,297.63Z"/></svg>