<svg id="Layer_1" data-name="Layer 1" xmlns="http://www.w3.org/2000/svg" viewBox="0 0 499.56 600.89"><defs><style>.cls-1,.cls-2{fill:#f67c87;}.cls-2{opacity:0.44;}</style></defs><ellipse class="cls-1" cx="242.63" cy="141.59" rx="35.14" ry="28.67" transform="translate(76.39 368.04) rotate(-83.98)"/><path class="cls-1" d="M270.22,205.78c5.39,5.2,50.69,5,62.22,6.66,16,2.36,76.64-3.94,77.34,2.67.89,8.45-88,15.11-134.22,21.33-4.12.56,5.15,53.63,7.54,66.35s63.59,13.2,61.79,30.54-8,85.34-8,85.34c-1.2,20.81-3.78,55.92-7.11,56-4.45.1-13.65-119.11-19.11-126.67-1.55-2.14-50.46-3.31-53.75-3.31S213.08,455.34,205.3,466.32s-126.12.11-126.19-5c-.17-13.4,96.23,2.68,102.22-20.44s21.5-113.24,25.09-140.41S206.18,192.9,212,187.56c6.86-6.31,58.22-9.78,96-11.56,40.94-1.93,90.67-5.78,92.89,0C402.81,181,270.22,205.78,270.22,205.78Z"/><path class="cls-2" d="M206.52,193.78c-2.08,15.7-6.22,116.15-11.56,136.29s-50.37,83.26-60.44,94.23,19,21.33,27.26,22.51,46.52,4.15,60.44.6,28.74,6.22,43.85,3.85,53.9-5.5,68.73-3.64,53.05,13.42,54.83-4.06-35-119.71-40.89-129.49-56.3-11.26-59-22.51S280,242.67,288,242.37s101-8.59,104.3-13,4.74-23.4-2.67-23.11-96.05,1-86.52-3.85,88-12.44,88.89-15.41,14.81-21.92-9.48-20.15-153,7.71-164.74,14.82S206.52,193.78,206.52,193.78Z"/></svg>