<svg id="Layer_1" data-name="Layer 1" xmlns="http://www.w3.org/2000/svg" viewBox="0 0 499.56 600.89"><defs><style>.cls-1,.cls-2{fill:#d1bb80;}.cls-2{opacity:0.82;}</style></defs><ellipse class="cls-1" cx="245.91" cy="147.87" rx="37.37" ry="30.5" transform="translate(73.08 376.93) rotate(-83.98)"/><path class="cls-1" d="M275.26,216.14c5.73,5.54,53.91,5.29,66.18,7.09,17,2.51,81.5-4.2,82.24,2.84.95,9-93.59,16.07-142.75,22.69-4.38.59,5.48,57,8,70.56s67.62,14,65.71,32.49-8.51,90.75-8.51,90.75c-1.27,22.14-4,59.48-7.56,59.56-4.73.11-14.52-126.67-20.33-134.72-1.64-2.27-53.66-3.51-57.16-3.51s-46.62,117.68-54.9,129.36S72.07,493.36,72,487.94c-.18-14.25,102.35,2.85,108.72-21.74s22.86-120.44,26.68-149.34-.25-114.41,5.94-120.1c7.3-6.7,61.92-10.4,102.1-12.29,43.55-2.05,96.43-6.14,98.79,0C416.27,189.78,275.26,216.14,275.26,216.14Z"/><path class="cls-2" d="M207.51,203.38c-2.21,16.7-6.62,123.53-12.29,145s-53.58,88.55-64.29,100.21,20.17,22.69,29,23.95,49.48,4.41,64.29.63,30.57,6.62,46.64,4.1,57.32-5.85,73.09-3.87,56.42,14.27,58.32-4.33-37.19-127.31-43.49-137.71-59.88-12-62.71-23.95-10.4-52-1.89-52.31,107.46-9.14,110.92-13.86,5-24.9-2.83-24.58-102.15,1-92-4.1,93.59-13.24,94.54-16.39,15.75-23.32-10.09-21.43-162.76,8.2-175.21,15.76S207.51,203.38,207.51,203.38Z"/></svg>