<svg width="47" height="43" viewBox="0 0 47 43" fill="none" xmlns="http://www.w3.org/2000/svg">
<path d="M47 23.3816C47 35.3883 33.2554 42.3396 21.3277 42.3396C9.39991 42.3396 2.05367 36.0203 0.157872 23.0656C-1.50096 11.2168 10.1898 0 22.1966 0C34.2033 0 47 11.3748 47 23.3816Z" fill="#A8DCC6"/>
<mask id="mask0_1862_3465" style="mask-type:luminance" maskUnits="userSpaceOnUse" x="0" y="0" width="47" height="43">
<path d="M47 23.3816C47 35.3883 33.2554 42.3396 21.3277 42.3396C9.39991 42.3396 2.05367 36.0203 0.157872 23.0656C-1.50096 11.2168 10.1898 0 22.1966 0C34.2033 0 47 11.3748 47 23.3816Z" fill="white"/>
</mask>
<g mask="url(#mask0_1862_3465)">
<path d="M-19.2715 19.59H61.2211L60.1942 16.9043L58.7724 16.5883L57.2715 15.4824L55.2968 16.7463H-13.7421L-15.5589 15.4824L-17.6127 16.7463L-18.5606 17.0623L-19.2715 19.59Z" fill="#F67C87"/>
<path d="M-19.2724 20.3799L-19.9043 30.5698L61.2203 28.911V20.3799H-19.2724Z" fill="#F4D6C5"/>
<path d="M61.2211 19.5898H-19.2715V20.3798H61.2211V19.5898Z" fill="#D8BDAF"/>
<path d="M19.5134 10.7429H22.1201V11.2959C22.1201 11.2959 23.147 11.5328 24.0159 11.9278C24.8848 12.3228 24.8848 12.5597 24.8848 12.5597H25.6747V13.2707C25.6747 13.2707 25.8327 13.3497 26.1487 13.8236C26.4647 14.2976 26.4646 15.0875 26.4646 15.0875L14.3789 15.4824C14.3789 15.4824 14.9318 14.2976 15.4058 13.8236C15.8797 13.3497 16.0377 13.1127 16.0377 13.1127L16.1167 12.1648L16.7487 12.3228C16.7487 12.3228 17.6966 11.8488 18.3285 11.6118C18.9604 11.3749 19.4344 11.1379 19.4344 11.1379L19.5134 10.7429Z" fill="#F4D6C5"/>
<path d="M13.9021 15.4827L13.3492 18.9584L13.0332 29.8592L28.4366 29.5433V18.8794L27.8837 16.7466V15.1667L13.9021 15.4827Z" fill="#F7E5DC"/>
<path d="M13.9047 14.6136L26.5434 14.4556L26.9384 14.9295H28.4392L27.8863 16.0354H13.8257L13.5098 15.2455L13.9837 14.9295L13.9047 14.6136Z" fill="#B79F92"/>
<path d="M29.2295 19.3533H12.4043V19.7482H29.2295V19.3533Z" fill="#B79F92"/>
<path d="M17.8539 24.0139H13.1934V24.3299H17.8539V24.0139Z" fill="#B79F92"/>
<path d="M13.1942 19.2741L12.4043 19.3531L21.0144 14.2976L29.2295 19.3531L28.5186 19.2741L21.0144 15.0085L13.1942 19.2741Z" fill="#B79F92"/>
<path d="M28.2818 24.0139H23.7793V24.3299H28.2818V24.0139Z" fill="#B79F92"/>
<path d="M16.75 29.859L24.8862 29.622L25.1231 24.4875L20.7786 22.1968L16.75 24.4875V29.859Z" fill="#F4D6C5"/>
<path d="M19.1992 22.1968H22.7538V20.617H21.8849C21.8849 20.617 21.569 19.6691 21.016 19.7481C20.4631 19.7481 20.0681 20.538 20.0681 20.538H19.2782V22.1968H19.1992Z" fill="#89766E"/>
<path d="M23.0698 25.4355H19.1992V29.6221H23.0698V25.4355Z" fill="#89766E"/>
<path d="M16.1196 20.9331H15.7246V22.197H16.1196V20.9331Z" fill="#89766E"/>
<path d="M25.9917 20.9331H25.6758V22.197H25.9917V20.9331Z" fill="#89766E"/>
<path d="M29.0723 22.5126H31.284V21.4067C31.284 21.4067 30.8101 20.8538 30.0992 20.9328C29.3882 21.0118 29.1513 21.3277 29.1513 21.3277V22.5126H29.0723Z" fill="#89766E"/>
<path d="M32.7051 22.5129H35.0748V21.4071C35.0748 21.4071 35.0748 20.9331 34.2849 20.9331C33.495 20.9331 32.7051 21.4071 32.7051 21.4071V22.5129Z" fill="#89766E"/>
<path d="M38.7113 22.513L36.1836 22.6709V21.4861C36.1836 21.4861 36.4206 21.0911 37.2105 21.0121C38.0004 20.9331 38.7113 21.4861 38.7113 21.4861V22.513Z" fill="#89766E"/>
<path d="M39.8945 22.5126H42.1063V21.4067C42.1063 21.4067 41.6323 20.8538 40.9214 20.9328C40.2105 21.0118 39.9735 21.3277 39.9735 21.3277V22.5126H39.8945Z" fill="#89766E"/>
<path d="M43.5273 22.5129H45.8971V21.4071C45.8971 21.4071 45.8971 20.9331 45.1072 20.9331C44.3173 20.9331 43.5273 21.4071 43.5273 21.4071V22.5129Z" fill="#89766E"/>
<path d="M2.05899 22.5916L-0.46875 22.7496V21.5647C-0.46875 21.5647 -0.231774 21.1697 0.558143 21.0907C1.34806 21.0117 2.05899 21.5647 2.05899 21.5647V22.5916Z" fill="#89766E"/>
<path d="M3.40039 22.5126H5.61216V21.4067C5.61216 21.4067 5.13821 20.8538 4.42728 20.9328C3.71636 21.0118 3.47938 21.3277 3.47938 21.3277V22.5126H3.40039Z" fill="#89766E"/>
<path d="M7.03516 22.5129H9.40491V21.4071C9.40491 21.4071 9.40491 20.9331 8.61499 20.9331C7.82507 20.9331 7.03516 21.4071 7.03516 21.4071V22.5129Z" fill="#89766E"/>
<path d="M13.0355 22.513L10.5078 22.6709V21.4861C10.5078 21.4861 10.7448 21.0911 11.5347 21.0121C12.3246 20.9331 13.0355 21.4861 13.0355 21.4861V22.513Z" fill="#89766E"/>
<path d="M32.7051 28.4369H35.0748V25.8302C35.0748 25.8302 34.9958 25.0403 34.1269 24.8033C33.258 24.5663 32.7051 25.7512 32.7051 25.7512V28.4369Z" fill="#89766E"/>
<path d="M36.2617 28.4369H38.6315V25.8302C38.6315 25.8302 38.5525 25.0403 37.6836 24.8033C36.8147 24.5663 36.2617 25.7512 36.2617 25.7512V28.4369Z" fill="#89766E"/>
<path d="M39.8164 28.4369H42.1862V25.8302C42.1862 25.8302 42.1072 25.0403 41.2383 24.8033C40.3693 24.5663 39.8164 25.7512 39.8164 25.7512V28.4369Z" fill="#89766E"/>
<path d="M43.5273 28.1215H45.8971V25.5148C45.8971 25.5148 45.8181 24.7249 44.9492 24.4879C44.0803 24.2509 43.5273 25.4358 43.5273 25.4358V28.1215Z" fill="#89766E"/>
<path d="M3.00586 28.279H5.37561V25.6722C5.37561 25.6722 5.29662 24.8823 4.42771 24.6453C3.5588 24.4084 3.00586 25.5932 3.00586 25.5932V28.279Z" fill="#89766E"/>
<path d="M6.64062 28.279H9.01038V25.6722C9.01038 25.6722 8.93139 24.8823 8.06248 24.6453C7.19357 24.4084 6.64062 25.5932 6.64062 25.5932V28.279Z" fill="#89766E"/>
<path d="M10.5078 28.279H12.8776V25.6722C12.8776 25.6722 12.7986 24.8823 11.9297 24.6453C11.0608 24.4084 10.5078 25.5932 10.5078 25.5932V28.279Z" fill="#89766E"/>
<path d="M28.8359 28.279H31.2057V25.6722C31.2057 25.6722 31.1267 24.8823 30.2578 24.6453C29.3889 24.4084 28.8359 25.5932 28.8359 25.5932V28.279Z" fill="#89766E"/>
<path d="M-0.707031 28.279H1.66272V25.6722C1.66272 25.6722 1.58373 24.8823 0.714821 24.6453C-0.154089 24.4084 -0.707031 25.5932 -0.707031 25.5932V28.279Z" fill="#89766E"/>
<path d="M32.3105 17.8522H34.2853C34.2853 17.8522 33.6534 17.0623 33.2584 17.1413C32.9425 17.2203 32.3105 17.8522 32.3105 17.8522Z" fill="#89766E"/>
<path d="M42.7383 17.8522H44.6341C44.6341 17.8522 44.6341 17.0623 44.0021 17.1413C43.3702 17.2203 42.7383 17.8522 42.7383 17.8522Z" fill="#89766E"/>
<path d="M9.71704 17.9313H7.11031C7.11031 17.9313 6.95233 17.1414 7.97922 17.2204C9.0851 17.2204 9.71704 17.9313 9.71704 17.9313Z" fill="#89766E"/>
<path d="M20.9358 14.7717L12.7207 19.3533H28.835L20.9358 14.7717Z" fill="#F4D6C5"/>
<path d="M25.0441 24.4875H16.75V25.1195H25.0441V24.4875Z" fill="#B79F92"/>
</g>
</svg>
