<svg width="43" height="42" viewBox="0 0 43 42" fill="none" xmlns="http://www.w3.org/2000/svg">
<path d="M43 22.4384C43 34.8307 36.7572 42 20.8739 42C8.65398 42 -2.38807 34.5205 0.449792 22.4384C3.28766 10.3562 8.65398 0 20.8739 0C33.0938 0 43 10.046 43 22.4384Z" fill="#F7B289"/>
<path d="M43 22.4384C43 34.8307 36.7572 42 20.8739 42C8.65398 42 -2.38807 34.5205 0.449792 22.4384C3.28766 10.3562 8.65398 0 20.8739 0C33.0938 0 43 10.046 43 22.4384Z" fill="#F7B289"/>
<mask id="mask0_1789_14" style="mask-type:alpha" maskUnits="userSpaceOnUse" x="0" y="0" width="43" height="42">
<path d="M43 22.4384C43 34.8307 36.7572 42 20.8739 42C8.65398 42 -2.38807 34.5205 0.449792 22.4384C3.28766 10.3562 8.65398 0 20.8739 0C33.0938 0 43 10.046 43 22.4384Z" fill="#F7B289"/>
<path d="M43 22.4384C43 34.8307 36.7572 42 20.8739 42C8.65398 42 -2.38807 34.5205 0.449792 22.4384C3.28766 10.3562 8.65398 0 20.8739 0C33.0938 0 43 10.046 43 22.4384Z" fill="#F7B289"/>
</mask>
<g mask="url(#mask0_1789_14)">
<path d="M40.0123 13.3423C39.7796 13.3423 36.9336 13 36.9336 13L37.3408 18.4994L40.3031 18.359L40.0123 13.3423Z" fill="#B5B4B4"/>
<path d="M10.1427 19.1579V21.664L-3.9082 21.2075L-3.80528 17.929L10.1427 19.1579Z" fill="white" stroke="#020101" stroke-miterlimit="10"/>
<path d="M-6.65039 16.5332L42.5724 18.4995L40.0128 19.3246L-3.80442 17.9289L-3.86259 20.1805H-4.21163L-6.65039 16.5332Z" fill="#665F59"/>
<path d="M34.9023 13.7417L36.9339 13L37.3411 18.4994L35.1306 18.201L34.9023 13.7417Z" fill="#665F59"/>
<path d="M40.6519 23.7839L40.3028 19.2325L-3.80526 17.929L-4.1543 28.7742L41.1173 27.4224L40.6519 23.7839Z" fill="#B5B4B4"/>
<path d="M-3.99974 18.4124L-4.00586 18.5879L30.8901 19.7588L30.8962 19.5833L-3.99974 18.4124Z" fill="#CCC8C4"/>
<path d="M15.6641 22.6602H28.7976L29.3212 27.8655L15.6641 28.2737V22.6602Z" fill="#849CA0"/>
<path d="M12.2637 19.1577L30.0823 19.7985L30.1987 21.9755L12.4113 21.3522L12.2637 19.1577Z" fill="#665F59"/>
<path d="M29.4126 19.6628L29.2344 19.679L29.9947 27.7601L30.1729 27.744L29.4126 19.6628Z" fill="#CCC8C4"/>
<path d="M26.0383 19.6663L25.8594 19.6724L26.15 27.8705L26.3289 27.8644L26.0383 19.6663Z" fill="#CCC8C4"/>
<path d="M22.5499 19.6665L22.3711 19.6738L22.7197 27.8695L22.8986 27.8622L22.5499 19.6665Z" fill="#CCC8C4"/>
<path d="M19.1809 19.6667H19.002V28.1726H19.1809V19.6667Z" fill="#CCC8C4"/>
<path d="M15.5208 19.1577H15.3418V26.167H15.5208V19.1577Z" fill="#CCC8C4"/>
<path d="M26.7051 23.4897L42.8054 23.8277L43.1544 28.2167L26.9959 28.8443L26.7051 23.4897Z" fill="#B5B4B4"/>
<path d="M-7 20.1804L15.6649 20.6369V28.2737L-7 28.8443V20.1804Z" fill="#C4C2C2"/>
<path d="M25.4863 23.9418L26.7035 23.4897L26.9943 28.8443H25.4863V23.9418Z" fill="#665F59"/>
<path d="M0.961434 22.2915H-0.318359V23.7662H0.961434V22.2915Z" fill="#849CA0"/>
<path d="M2.82207 22.2915H1.7168V23.7662H2.82207V22.2915Z" fill="#849CA0"/>
<path d="M5.02826 22.2915H3.80664V23.7662H5.02826V22.2915Z" fill="#849CA0"/>
<path d="M6.89043 22.2915H5.78516V23.7662H6.89043V22.2915Z" fill="#849CA0"/>
<path d="M8.92586 22.2915H7.58789V23.7662H8.92586V22.2915Z" fill="#849CA0"/>
<path d="M9.44531 22.2915H10.6088V23.7662L9.44531 23.7092V22.2915Z" fill="#849CA0"/>
<path d="M12.4115 22.2915H11.248V23.7662H12.4115V22.2915Z" fill="#849CA0"/>
<path d="M14.3279 22.6602H13.2539V23.7662H14.3279V22.6602Z" fill="#849CA0"/>
<path d="M0.961434 25.197H-0.318359V27.4179H0.961434V25.197Z" fill="#849CA0"/>
<path d="M1.7168 25.197L2.82207 24.9688V27.4222H1.7168V25.197Z" fill="#849CA0"/>
<path d="M4.79557 25.197H3.80664V27.4179H4.79557V25.197Z" fill="#849CA0"/>
<path d="M6.65774 24.9688H5.78516V27.4178H6.65774V24.9688Z" fill="#849CA0"/>
<path d="M8.92586 24.9688H7.58789V27.4178H8.92586V24.9688Z" fill="#849CA0"/>
<path d="M10.6088 24.9688H9.44531V27.4178H10.6088V24.9688Z" fill="#849CA0"/>
<path d="M12.4115 24.9688H11.248V27.4178H12.4115V24.9688Z" fill="#849CA0"/>
<path d="M14.3279 24.9688H13.2539V27.4178H14.3279V24.9688Z" fill="#849CA0"/>
<path d="M1.31942 19.4211H-0.318359V20.1848H1.31942V19.4211Z" fill="#849CA0"/>
<path d="M3.80664 19.667H5.02826V20.4219L3.80664 20.4V19.667Z" fill="#849CA0"/>
<path d="M7.58789 19.667L8.59919 19.6362V20.457L7.58789 20.4219V19.667Z" fill="#849CA0"/>
<path d="M36.3026 25.7104H35.627V26.7945H36.3026V25.7104Z" fill="#849CA0"/>
<path d="M37.6361 25.7104H36.9336V26.7945H37.6361V25.7104Z" fill="#849CA0"/>
<path d="M38.9694 25.7104H38.334V26.9481H38.9694V25.7104Z" fill="#849CA0"/>
<path d="M39.5469 25.7104H40.2807L40.3837 26.9481H39.5469V25.7104Z" fill="#849CA0"/>
<path d="M40.8984 25.7104H41.695L41.6144 26.9481H40.8984V25.7104Z" fill="#849CA0"/>
<path d="M34.0781 25.7104H34.9283V26.8691L34.0781 26.9481V25.7104Z" fill="#849CA0"/>
</g>
</svg>
