<svg width="44" height="42" viewBox="0 0 44 42" fill="none" xmlns="http://www.w3.org/2000/svg">
<path d="M44 20.8413C44 32.1632 34.8218 41.3413 23.5 41.3413C12.1782 41.3413 0 32.1632 0 20.8413C0 9.51948 11.5 2.84132 23.5 0.341318C35.5 -2.15869 44 9.51948 44 20.8413Z" fill="#F3DF8C"/>
<mask id="mask0_1810_321" style="mask-type:alpha" maskUnits="userSpaceOnUse" x="0" y="0" width="44" height="42">
<path d="M44 20.8413C44 32.1632 34.8218 41.3413 23.5 41.3413C12.1782 41.3413 0 32.1632 0 20.8413C0 9.51948 11.5 2.84132 23.5 0.341318C35.5 -2.15869 44 9.51948 44 20.8413Z" fill="#849CA0"/>
<path d="M44 20.8413C44 32.1632 34.8218 41.3413 23.5 41.3413C12.1782 41.3413 0 32.1632 0 20.8413C0 9.51948 11.5 2.84132 23.5 0.341318C35.5 -2.15869 44 9.51948 44 20.8413Z" fill="#849CA0"/>
</mask>
<g mask="url(#mask0_1810_321)">
<path d="M13.7422 16.5408V18.4547H15.7373V16.5408" fill="white"/>
<path d="M13.7422 16.5408V18.4547H15.7373V16.5408" stroke="black" stroke-miterlimit="10"/>
<path d="M0.0332031 15.5071H45.5852V18.8277L0.0332031 19.0813V15.5071Z" fill="#C9AE90"/>
<path d="M45.5901 15.2678H0.0332031V15.5071H45.5901V15.2678Z" fill="#4E4234"/>
<path d="M13.6621 14.4163L13.8208 14.5885V15.5072H32.657V14.6986L33.0416 14.4163H13.6621Z" fill="#C9AE90"/>
<path d="M9.60547 14.9616L9.7545 15.0621V15.3875H14.1775V14.8516L9.60547 14.9616Z" fill="#C9AE90"/>
<path d="M32.4267 14.9617H36.5276L36.3353 15.1196V15.3875H32.3594L32.4267 14.9617Z" fill="#C9AE90"/>
<path d="M33.0438 14H13.5586V14.4163H33.0438V14Z" fill="#4E4234"/>
<path d="M9.5 14.6797V14.962L13.822 14.8519V14.6797H9.5Z" fill="#4E4234"/>
<path d="M32.6582 14.6985L36.5283 14.8229V14.9616H32.6582V14.6985Z" fill="#4E4234"/>
<path d="M3.99414 17.0289V18.4548H6.39794V16.9858L3.99414 17.0289Z" fill="#3B3A36"/>
<path d="M10.3457 16.9236H9.1582V18.4021H10.3457V16.9236Z" fill="#3B3A36"/>
<path d="M37.1035 16.9236H35.916V18.4021H37.1035V16.9236Z" fill="#3B3A36"/>
<path d="M13.7812 16.9235L15.5841 16.8708V18.335L13.8197 18.402L13.7812 16.9235Z" fill="#3B3A36"/>
<path d="M21.0368 16.8804L22.9791 16.9139L22.9166 18.378L21.0176 18.3589L21.0368 16.8804Z" fill="#3B3A36"/>
<path d="M24.2871 16.9187L26.2294 16.8708L26.2246 18.3398L24.3256 18.3972L24.2871 16.9187Z" fill="#3B3A36"/>
<path d="M31.4453 16.938L33.3876 16.8901L33.3828 18.3591L31.4838 18.4165L31.4453 16.938Z" fill="#3B3A36"/>
<path d="M19.6328 16.8708H19.0703V18.3589H19.6328V16.8708Z" fill="#3B3A36"/>
<path d="M19.5291 14.459H19.332V14.6599H19.5291V14.459Z" fill="#F1EFE2"/>
<path d="M19.5538 14.6839H19.3086V14.4351H19.5538V14.6839ZM19.3567 14.636H19.5057V14.4829H19.3567V14.636Z" fill="#4E4234"/>
<path d="M19.5291 14.8616H19.332V15.0625H19.5291V14.8616Z" fill="#F1EFE2"/>
<path d="M19.5538 15.0865H19.3086V14.8376H19.5538V15.0865ZM19.3567 15.0386H19.5057V14.8855H19.3567V15.0386Z" fill="#4E4234"/>
<path d="M19.5291 15.062H19.332V15.263H19.5291V15.062Z" fill="#F1EFE2"/>
<path d="M19.5538 15.2869H19.3086V15.0381H19.5538V15.2869ZM19.3567 15.239H19.5057V15.0859H19.3567V15.239Z" fill="#4E4234"/>
<path d="M19.5291 14.6602H19.332V14.8611H19.5291V14.6602Z" fill="#F1EFE2"/>
<path d="M19.5538 14.885H19.3086V14.6362H19.5538V14.885ZM19.3567 14.8372H19.5057V14.6841H19.3567V14.8372Z" fill="#4E4234"/>
<path d="M19.7303 14.459H19.5332V14.6599H19.7303V14.459Z" fill="#F1EFE2"/>
<path d="M19.755 14.6839H19.5098V14.4351H19.755V14.6839ZM19.5578 14.636H19.7069V14.4829H19.5578V14.636Z" fill="#4E4234"/>
<path d="M19.7303 14.6602H19.5332V14.8611H19.7303V14.6602Z" fill="#F1EFE2"/>
<path d="M19.755 14.885H19.5098V14.6362H19.755V14.885ZM19.5578 14.8372H19.7069V14.6841H19.5578V14.8372Z" fill="#4E4234"/>
<path d="M19.7303 14.8611H19.5332V15.062H19.7303V14.8611Z" fill="#F1EFE2"/>
<path d="M19.755 15.086H19.5098V14.8372H19.755V15.086ZM19.5578 15.0381H19.7069V14.885H19.5578V15.0381Z" fill="#4E4234"/>
<path d="M19.7303 15.0618H19.5332V15.2627H19.7303V15.0618Z" fill="#F1EFE2"/>
<path d="M19.755 15.2866H19.5098V15.0378H19.755V15.2866ZM19.5578 15.2388H19.7069V15.0857H19.5578V15.2388Z" fill="#4E4234"/>
<path d="M19.0155 14.4399H18.8184V14.6409H19.0155V14.4399Z" fill="#F1EFE2"/>
<path d="M19.0449 14.6648H18.7949V14.416H19.0401V14.6648H19.0449ZM18.843 14.617H18.992V14.4639H18.843V14.617Z" fill="#4E4234"/>
<path d="M19.0155 14.8423H18.8184V15.0432H19.0155V14.8423Z" fill="#F1EFE2"/>
<path d="M19.0449 15.0672H18.7949V14.8184H19.0401V15.0672H19.0449ZM18.843 15.0193H18.992V14.8662H18.843V15.0193Z" fill="#4E4234"/>
<path d="M19.0155 15.0427H18.8184V15.2437H19.0155V15.0427Z" fill="#F1EFE2"/>
<path d="M19.0449 15.2676H18.7949V15.0188H19.0401V15.2676H19.0449ZM18.843 15.2198H18.992V15.0666H18.843V15.2198Z" fill="#4E4234"/>
<path d="M19.0155 14.6409H18.8184V14.8418H19.0155V14.6409Z" fill="#F1EFE2"/>
<path d="M19.0449 14.8658H18.7949V14.6169H19.0401V14.8658H19.0449ZM18.843 14.8179H18.992V14.6648H18.843V14.8179Z" fill="#4E4234"/>
<path d="M19.2166 14.4399H19.0195V14.6409H19.2166V14.4399Z" fill="#F1EFE2"/>
<path d="M19.2413 14.6648H18.9961V14.416H19.2413V14.6648ZM19.0442 14.617H19.1932V14.4639H19.0442V14.617Z" fill="#4E4234"/>
<path d="M19.2166 14.6409H19.0195V14.8418H19.2166V14.6409Z" fill="#F1EFE2"/>
<path d="M19.2413 14.8658H18.9961V14.6169H19.2413V14.8658ZM19.0442 14.8179H19.1932V14.6648H19.0442V14.8179Z" fill="#4E4234"/>
<path d="M19.2166 14.8418H19.0195V15.0428H19.2166V14.8418Z" fill="#F1EFE2"/>
<path d="M19.2413 15.0667H18.9961V14.8179H19.2413V15.0667ZM19.0442 15.0188H19.1932V14.8657H19.0442V15.0188Z" fill="#4E4234"/>
<path d="M19.2166 15.0427H19.0195V15.2437H19.2166V15.0427Z" fill="#F1EFE2"/>
<path d="M19.2413 15.2676H18.9961V15.0188H19.2413V15.2676ZM19.0442 15.2198H19.1932V15.0666H19.0442V15.2198Z" fill="#4E4234"/>
<path d="M20.6596 14.416H20.4336V14.617H20.6596V14.416Z" fill="#F1EFE2"/>
<path d="M20.6783 14.6409H20.4043V14.3921H20.6783V14.6409ZM20.4572 14.593H20.6351V14.4399H20.4572V14.593Z" fill="#4E4234"/>
<path d="M20.6596 14.8181H20.4336V15.0191H20.6596V14.8181Z" fill="#F1EFE2"/>
<path d="M20.6783 15.043H20.4043V14.7942H20.6783V15.043ZM20.4572 14.9951H20.6351V14.842H20.4572V14.9951Z" fill="#4E4234"/>
<path d="M20.6596 15.0188H20.4336V15.2198H20.6596V15.0188Z" fill="#F1EFE2"/>
<path d="M20.6783 15.2437H20.4043V14.9949H20.6783V15.2437ZM20.4572 15.1958H20.6351V15.0427H20.4572V15.1958Z" fill="#4E4234"/>
<path d="M20.6596 14.6169H20.4336V14.8179H20.6596V14.6169Z" fill="#F1EFE2"/>
<path d="M20.6783 14.8418H20.4043V14.593H20.6783V14.8418ZM20.4572 14.794H20.6351V14.6409H20.4572V14.794Z" fill="#4E4234"/>
<path d="M20.8803 14.416H20.6543V14.617H20.8803V14.416Z" fill="#F1EFE2"/>
<path d="M20.9049 14.6409H20.6309V14.3921H20.9049V14.6409ZM20.6789 14.593H20.8568V14.4399H20.6789V14.593Z" fill="#4E4234"/>
<path d="M20.8803 14.6169H20.6543V14.8179H20.8803V14.6169Z" fill="#F1EFE2"/>
<path d="M20.9049 14.8418H20.6309V14.593H20.9049V14.8418ZM20.6789 14.794H20.8568V14.6409H20.6789V14.794Z" fill="#4E4234"/>
<path d="M20.8803 14.8184H20.6543V15.0193H20.8803V14.8184Z" fill="#F1EFE2"/>
<path d="M20.9049 15.043H20.6309V14.7942H20.9049V15.043ZM20.6789 14.9951H20.8568V14.842H20.6789V14.9951Z" fill="#4E4234"/>
<path d="M20.8803 15.0188H20.6543V15.2198H20.8803V15.0188Z" fill="#F1EFE2"/>
<path d="M20.9049 15.2437H20.6309V14.9949H20.9049V15.2437ZM20.6789 15.1958H20.8568V15.0427H20.6789V15.1958Z" fill="#4E4234"/>
<path d="M21.2728 14.416H21.0469V14.6265H21.2728V14.416Z" fill="#F1EFE2"/>
<path d="M21.2975 14.6505H21.0234V14.3921H21.2975V14.6505ZM21.0715 14.6026H21.2494V14.4399H21.0715V14.6026Z" fill="#4E4234"/>
<path d="M21.2728 14.8418H21.0469V15.0523H21.2728V14.8418Z" fill="#F1EFE2"/>
<path d="M21.2975 15.0765H21.0234V14.8181H21.2975V15.0765ZM21.0715 15.0286H21.2494V14.866H21.0715V15.0286Z" fill="#4E4234"/>
<path d="M21.2728 15.0525H21.0469V15.263H21.2728V15.0525Z" fill="#F1EFE2"/>
<path d="M21.2975 15.2869H21.0234V15.0286H21.2975V15.2869ZM21.0715 15.2391H21.2494V15.0764H21.0715V15.2391Z" fill="#4E4234"/>
<path d="M21.2728 14.6267H21.0469V14.8372H21.2728V14.6267Z" fill="#F1EFE2"/>
<path d="M21.2975 14.8658H21.0234V14.6074H21.2975V14.8658ZM21.0715 14.818H21.2494V14.6553H21.0715V14.818Z" fill="#4E4234"/>
<path d="M21.5013 14.416H21.2754V14.6265H21.5013V14.416Z" fill="#F1EFE2"/>
<path d="M21.5201 14.6505H21.2461V14.3921H21.5201V14.6505ZM21.299 14.6026H21.4769V14.4399H21.299V14.6026Z" fill="#4E4234"/>
<path d="M21.5013 14.6267H21.2754V14.8372H21.5013V14.6267Z" fill="#F1EFE2"/>
<path d="M21.5201 14.8658H21.2461V14.6074H21.5201V14.8658ZM21.299 14.818H21.4769V14.6553H21.299V14.818Z" fill="#4E4234"/>
<path d="M21.5013 14.8416H21.2754V15.0521H21.5013V14.8416Z" fill="#F1EFE2"/>
<path d="M21.5201 15.076H21.2461V14.8176H21.5201V15.076ZM21.299 15.0282H21.4769V14.8655H21.299V15.0282Z" fill="#4E4234"/>
<path d="M21.5013 15.0525H21.2754V15.263H21.5013V15.0525Z" fill="#F1EFE2"/>
<path d="M21.5201 15.2869H21.2461V15.0286H21.5201V15.2869ZM21.299 15.2391H21.4769V15.0764H21.299V15.2391Z" fill="#4E4234"/>
<path d="M22.4193 14.4163H22.1934V14.6268H22.4193V14.4163Z" fill="#F1EFE2"/>
<path d="M22.4381 14.6507H22.1641V14.3923H22.4381V14.6507ZM22.2169 14.6029H22.3948V14.4402H22.2169V14.6029Z" fill="#4E4234"/>
<path d="M22.4193 14.8423H22.1934V15.0528H22.4193V14.8423Z" fill="#F1EFE2"/>
<path d="M22.4381 15.0767H22.1641V14.8184H22.4381V15.0767ZM22.2169 15.0289H22.3948V14.8662H22.2169V15.0289Z" fill="#4E4234"/>
<path d="M22.4193 15.0527H22.1934V15.2633H22.4193V15.0527Z" fill="#F1EFE2"/>
<path d="M22.4381 15.2872H22.1641V15.0288H22.4381V15.2872ZM22.2169 15.2393H22.3948V15.0767H22.2169V15.2393Z" fill="#4E4234"/>
<path d="M22.4193 14.6267H22.1934V14.8372H22.4193V14.6267Z" fill="#F1EFE2"/>
<path d="M22.4381 14.8658H22.1641V14.6074H22.4381V14.8658ZM22.2169 14.818H22.3948V14.6553H22.2169V14.818Z" fill="#4E4234"/>
<path d="M22.64 14.4163H22.4141V14.6268H22.64V14.4163Z" fill="#F1EFE2"/>
<path d="M22.6647 14.6507H22.3906V14.3923H22.6647V14.6507ZM22.4387 14.6029H22.6166V14.4402H22.4387V14.6029Z" fill="#4E4234"/>
<path d="M22.64 14.627H22.4141V14.8375H22.64V14.627Z" fill="#F1EFE2"/>
<path d="M22.6647 14.866H22.3906V14.6077H22.6647V14.866ZM22.4387 14.8182H22.6166V14.6555H22.4387V14.8182Z" fill="#4E4234"/>
<path d="M22.64 14.842H22.4141V15.0526H22.64V14.842Z" fill="#F1EFE2"/>
<path d="M22.6647 15.0765H22.3906V14.8181H22.6647V15.0765ZM22.4387 15.0286H22.6166V14.866H22.4387V15.0286Z" fill="#4E4234"/>
<path d="M22.64 15.0525H22.4141V15.263H22.64V15.0525Z" fill="#F1EFE2"/>
<path d="M22.6647 15.2869H22.3906V15.0286H22.6647V15.2869ZM22.4387 15.2391H22.6166V15.0764H22.4387V15.2391Z" fill="#4E4234"/>
<path d="M21.8568 14.4209H21.6309V14.6314H21.8568V14.4209Z" fill="#F1EFE2"/>
<path d="M21.8815 14.6556H21.6074V14.3972H21.8815V14.6556ZM21.6555 14.6077H21.8334V14.4451H21.6555V14.6077Z" fill="#4E4234"/>
<path d="M21.8568 14.8418H21.6309V15.0523H21.8568V14.8418Z" fill="#F1EFE2"/>
<path d="M21.8815 15.0765H21.6074V14.8181H21.8815V15.0765ZM21.6555 15.0286H21.8334V14.866H21.6555V15.0286Z" fill="#4E4234"/>
<path d="M21.8568 15.0525H21.6309V15.263H21.8568V15.0525Z" fill="#F1EFE2"/>
<path d="M21.8815 15.2869H21.6074V15.0286H21.8815V15.2869ZM21.6555 15.2391H21.8334V15.0764H21.6555V15.2391Z" fill="#4E4234"/>
<path d="M21.8568 14.6316H21.6309V14.8421H21.8568V14.6316Z" fill="#F1EFE2"/>
<path d="M21.8815 14.866H21.6074V14.6077H21.8815V14.866ZM21.6555 14.8182H21.8334V14.6555H21.6555V14.8182Z" fill="#4E4234"/>
<path d="M22.0834 14.4209H21.8574V14.6314H22.0834V14.4209Z" fill="#F1EFE2"/>
<path d="M22.108 14.6553H21.834V14.397H22.108V14.6553ZM21.8821 14.6075H22.0599V14.4448H21.8821V14.6075Z" fill="#4E4234"/>
<path d="M22.0834 14.6316H21.8574V14.8421H22.0834V14.6316Z" fill="#F1EFE2"/>
<path d="M22.108 14.866H21.834V14.6077H22.108V14.866ZM21.8821 14.8182H22.0599V14.6555H21.8821V14.8182Z" fill="#4E4234"/>
<path d="M22.0834 14.8423H21.8574V15.0528H22.0834V14.8423Z" fill="#F1EFE2"/>
<path d="M22.108 15.0767H21.834V14.8184H22.108V15.0767ZM21.8821 15.0289H22.0599V14.8662H21.8821V15.0289Z" fill="#4E4234"/>
<path d="M22.0834 15.0525H21.8574V15.263H22.0834V15.0525Z" fill="#F1EFE2"/>
<path d="M22.108 15.2869H21.834V15.0286H22.108V15.2869ZM21.8821 15.2391H22.0599V15.0764H21.8821V15.2391Z" fill="#4E4234"/>
<path d="M20.1053 14.4307H19.9082V14.6316H20.1053V14.4307Z" fill="#F1EFE2"/>
<path d="M20.13 14.6555H19.8848V14.4067H20.13V14.6555ZM19.9328 14.6077H20.0819V14.4546H19.9328V14.6077Z" fill="#4E4234"/>
<path d="M20.1053 14.8328H19.9082V15.0337H20.1053V14.8328Z" fill="#F1EFE2"/>
<path d="M20.13 15.0576H19.8848V14.8088H20.13V15.0576ZM19.9328 15.0098H20.0819V14.8567H19.9328V15.0098Z" fill="#4E4234"/>
<path d="M20.1053 15.0334H19.9082V15.2344H20.1053V15.0334Z" fill="#F1EFE2"/>
<path d="M20.13 15.2583H19.8848V15.0095H20.13V15.2583ZM19.9328 15.2105H20.0819V15.0574H19.9328V15.2105Z" fill="#4E4234"/>
<path d="M20.1053 14.6316H19.9082V14.8326H20.1053V14.6316Z" fill="#F1EFE2"/>
<path d="M20.13 14.8565H19.8848V14.6077H20.13V14.8565ZM19.9328 14.8086H20.0819V14.6555H19.9328V14.8086Z" fill="#4E4234"/>
<path d="M20.3026 14.4307H20.1055V14.6316H20.3026V14.4307Z" fill="#F1EFE2"/>
<path d="M20.3311 14.6555H20.0859V14.4067H20.3311V14.6555ZM20.1292 14.6077H20.2782V14.4546H20.1292V14.6077Z" fill="#4E4234"/>
<path d="M20.3026 14.6316H20.1055V14.8326H20.3026V14.6316Z" fill="#F1EFE2"/>
<path d="M20.3311 14.8565H20.0859V14.6077H20.3311V14.8565ZM20.1292 14.8086H20.2782V14.6555H20.1292V14.8086Z" fill="#4E4234"/>
<path d="M20.3026 14.833H20.1055V15.034H20.3026V14.833Z" fill="#F1EFE2"/>
<path d="M20.3311 15.0576H20.0859V14.8088H20.3311V15.0576ZM20.1292 15.0098H20.2782V14.8567H20.1292V15.0098Z" fill="#4E4234"/>
<path d="M20.3026 15.0334H20.1055V15.2344H20.3026V15.0334Z" fill="#F1EFE2"/>
<path d="M20.3311 15.2583H20.0859V15.0095H20.3311V15.2583ZM20.1292 15.2105H20.2782V15.0574H20.1292V15.2105Z" fill="#4E4234"/>
<path d="M23.5398 14.4353H23.3379V14.6363H23.5398V14.4353Z" fill="#F1EFE2"/>
<path d="M23.5644 14.6602H23.3145V14.4114H23.5644V14.6602ZM23.3625 14.6123H23.5164V14.4592H23.3625V14.6123Z" fill="#4E4234"/>
<path d="M23.5398 14.8376H23.3379V15.0386H23.5398V14.8376Z" fill="#F1EFE2"/>
<path d="M23.5644 15.0625H23.3145V14.8137H23.5644V15.0625ZM23.3625 15.0147H23.5164V14.8616H23.3625V15.0147Z" fill="#4E4234"/>
<path d="M23.5398 15.0381H23.3379V15.239H23.5398V15.0381Z" fill="#F1EFE2"/>
<path d="M23.5644 15.263H23.3145V15.0142H23.5644V15.263ZM23.3625 15.2151H23.5164V15.062H23.3625V15.2151Z" fill="#4E4234"/>
<path d="M23.5398 14.6362H23.3379V14.8372H23.5398V14.6362Z" fill="#F1EFE2"/>
<path d="M23.5644 14.8611H23.3145V14.6123H23.5644V14.8611ZM23.3625 14.8133H23.5164V14.6602H23.3625V14.8133Z" fill="#4E4234"/>
<path d="M23.7429 14.4355H23.541V14.6365H23.7429V14.4355Z" fill="#F1EFE2"/>
<path d="M23.7676 14.6602H23.5176V14.4114H23.7676V14.6602ZM23.5657 14.6123H23.7195V14.4592H23.5657V14.6123Z" fill="#4E4234"/>
<path d="M23.7429 14.6362H23.541V14.8372H23.7429V14.6362Z" fill="#F1EFE2"/>
<path d="M23.7676 14.8611H23.5176V14.6123H23.7676V14.8611ZM23.5657 14.8133H23.7195V14.6602H23.5657V14.8133Z" fill="#4E4234"/>
<path d="M23.7429 14.8376H23.541V15.0386H23.7429V14.8376Z" fill="#F1EFE2"/>
<path d="M23.7676 15.0625H23.5176V14.8137H23.7676V15.0625ZM23.5657 15.0147H23.7195V14.8616H23.5657V15.0147Z" fill="#4E4234"/>
<path d="M23.7429 15.0381H23.541V15.239H23.7429V15.0381Z" fill="#F1EFE2"/>
<path d="M23.7676 15.263H23.5176V15.0142H23.7676V15.263ZM23.5657 15.2151H23.7195V15.062H23.5657V15.2151Z" fill="#4E4234"/>
<path d="M27.616 14.416H27.4141V14.617H27.616V14.416Z" fill="#F1EFE2"/>
<path d="M27.6406 14.6409H27.3906V14.3921H27.6406V14.6409ZM27.4387 14.593H27.5925V14.4399H27.4387V14.593Z" fill="#4E4234"/>
<path d="M27.616 14.8181H27.4141V15.0191H27.616V14.8181Z" fill="#F1EFE2"/>
<path d="M27.6406 15.043H27.3906V14.7942H27.6406V15.043ZM27.4387 14.9951H27.5925V14.842H27.4387V14.9951Z" fill="#4E4234"/>
<path d="M27.616 15.019H27.4141V15.22H27.616V15.019Z" fill="#F1EFE2"/>
<path d="M27.6406 15.2439H27.3906V14.9951H27.6406V15.2439ZM27.4387 15.1961H27.5925V15.043H27.4387V15.1961Z" fill="#4E4234"/>
<path d="M27.616 14.6172H27.4141V14.8181H27.616V14.6172Z" fill="#F1EFE2"/>
<path d="M27.6406 14.8421H27.3906V14.5933H27.6406V14.8421ZM27.4387 14.7942H27.5925V14.6411H27.4387V14.7942Z" fill="#4E4234"/>
<path d="M27.8191 14.416H27.6172V14.617H27.8191V14.416Z" fill="#F1EFE2"/>
<path d="M27.8437 14.6409H27.5938V14.3921H27.8437V14.6409ZM27.6418 14.593H27.7957V14.4399H27.6418V14.593Z" fill="#4E4234"/>
<path d="M27.8191 14.6172H27.6172V14.8181H27.8191V14.6172Z" fill="#F1EFE2"/>
<path d="M27.8437 14.8421H27.5938V14.5933H27.8437V14.8421ZM27.6418 14.7942H27.7957V14.6411H27.6418V14.7942Z" fill="#4E4234"/>
<path d="M27.8191 14.8181H27.6172V15.0191H27.8191V14.8181Z" fill="#F1EFE2"/>
<path d="M27.8437 15.043H27.5938V14.7942H27.8437V15.043ZM27.6418 14.9951H27.7957V14.842H27.6418V14.9951Z" fill="#4E4234"/>
<path d="M27.8191 15.0188H27.6172V15.2198H27.8191V15.0188Z" fill="#F1EFE2"/>
<path d="M27.8437 15.2437H27.5938V14.9949H27.8437V15.2437ZM27.6418 15.1958H27.7957V15.0427H27.6418V15.1958Z" fill="#4E4234"/>
<path d="M23.0164 14.416H22.8145V14.617H23.0164V14.416Z" fill="#F1EFE2"/>
<path d="M23.041 14.6409H22.791V14.3921H23.041V14.6409ZM22.8391 14.593H22.9929V14.4399H22.8391V14.593Z" fill="#4E4234"/>
<path d="M23.0164 14.8181H22.8145V15.0191H23.0164V14.8181Z" fill="#F1EFE2"/>
<path d="M23.041 15.043H22.791V14.7942H23.041V15.043ZM22.8391 14.9951H22.9929V14.842H22.8391V14.9951Z" fill="#4E4234"/>
<path d="M23.0164 15.019H22.8145V15.22H23.0164V15.019Z" fill="#F1EFE2"/>
<path d="M23.041 15.2439H22.791V14.9951H23.041V15.2439ZM22.8391 15.1961H22.9929V15.043H22.8391V15.1961Z" fill="#4E4234"/>
<path d="M23.0164 14.6172H22.8145V14.8181H23.0164V14.6172Z" fill="#F1EFE2"/>
<path d="M23.041 14.8421H22.791V14.5933H23.041V14.8421ZM22.8391 14.7942H22.9929V14.6411H22.8391V14.7942Z" fill="#4E4234"/>
<path d="M23.2175 14.416H23.0156V14.617H23.2175V14.416Z" fill="#F1EFE2"/>
<path d="M23.2422 14.6409H22.9922V14.3921H23.2422V14.6409ZM23.0403 14.593H23.1941V14.4399H23.0403V14.593Z" fill="#4E4234"/>
<path d="M23.2175 14.6172H23.0156V14.8181H23.2175V14.6172Z" fill="#F1EFE2"/>
<path d="M23.2422 14.8421H22.9922V14.5933H23.2422V14.8421ZM23.0403 14.7942H23.1941V14.6411H23.0403V14.7942Z" fill="#4E4234"/>
<path d="M23.2175 14.8181H23.0156V15.0191H23.2175V14.8181Z" fill="#F1EFE2"/>
<path d="M23.2422 15.043H22.9922V14.7942H23.2422V15.043ZM23.0403 14.9951H23.1941V14.842H23.0403V14.9951Z" fill="#4E4234"/>
<path d="M23.2175 15.0188H23.0156V15.2198H23.2175V15.0188Z" fill="#F1EFE2"/>
<path d="M23.2422 15.2437H22.9922V14.9949H23.2422V15.2437ZM23.0403 15.1958H23.1941V15.0427H23.0403V15.1958Z" fill="#4E4234"/>
<path d="M27.0691 14.416H26.8672V14.617H27.0691V14.416Z" fill="#F1EFE2"/>
<path d="M27.0937 14.6409H26.8438V14.3921H27.0937V14.6409ZM26.8918 14.593H27.0457V14.4399H26.8918V14.593Z" fill="#4E4234"/>
<path d="M27.0691 14.8181H26.8672V15.0191H27.0691V14.8181Z" fill="#F1EFE2"/>
<path d="M27.0937 15.043H26.8438V14.7942H27.0937V15.043ZM26.8918 14.9951H27.0457V14.842H26.8918V14.9951Z" fill="#4E4234"/>
<path d="M27.0691 15.019H26.8672V15.22H27.0691V15.019Z" fill="#F1EFE2"/>
<path d="M27.0937 15.2439H26.8438V14.9951H27.0937V15.2439ZM26.8918 15.1961H27.0457V15.043H26.8918V15.1961Z" fill="#4E4234"/>
<path d="M27.0691 14.6172H26.8672V14.8181H27.0691V14.6172Z" fill="#F1EFE2"/>
<path d="M27.0937 14.8421H26.8438V14.5933H27.0937V14.8421ZM26.8918 14.7942H27.0457V14.6411H26.8918V14.7942Z" fill="#4E4234"/>
<path d="M27.2722 14.416H27.0703V14.617H27.2722V14.416Z" fill="#F1EFE2"/>
<path d="M27.2969 14.6409H27.0469V14.3921H27.2969V14.6409ZM27.095 14.593H27.2488V14.4399H27.095V14.593Z" fill="#4E4234"/>
<path d="M27.2722 14.6172H27.0703V14.8181H27.2722V14.6172Z" fill="#F1EFE2"/>
<path d="M27.2969 14.8421H27.0469V14.5933H27.2969V14.8421ZM27.095 14.7942H27.2488V14.6411H27.095V14.7942Z" fill="#4E4234"/>
<path d="M27.2722 14.8181H27.0703V15.0191H27.2722V14.8181Z" fill="#F1EFE2"/>
<path d="M27.2969 15.043H27.0469V14.7942H27.2969V15.043ZM27.095 14.9951H27.2488V14.842H27.095V14.9951Z" fill="#4E4234"/>
<path d="M27.2722 15.0188H27.0703V15.2198H27.2722V15.0188Z" fill="#F1EFE2"/>
<path d="M27.2969 15.2437H27.0469V14.9949H27.2969V15.2437ZM27.095 15.1958H27.2488V15.0427H27.095V15.1958Z" fill="#4E4234"/>
<path d="M24.6878 14.3926H24.457V14.5935H24.6878V14.3926Z" fill="#F1EFE2"/>
<path d="M24.7124 14.6175H24.4336V14.3687H24.7124V14.6175ZM24.4817 14.5696H24.6644V14.4165H24.4817V14.5696Z" fill="#4E4234"/>
<path d="M24.6878 14.7944H24.457V14.9954H24.6878V14.7944Z" fill="#F1EFE2"/>
<path d="M24.7124 15.0193H24.4336V14.7705H24.7124V15.0193ZM24.4817 14.9715H24.6644V14.8184H24.4817V14.9715Z" fill="#4E4234"/>
<path d="M24.6878 14.9954H24.457V15.1963H24.6878V14.9954Z" fill="#F1EFE2"/>
<path d="M24.7124 15.2202H24.4336V14.9714H24.7124V15.2202ZM24.4817 15.1724H24.6644V15.0193H24.4817V15.1724Z" fill="#4E4234"/>
<path d="M24.6878 14.5935H24.457V14.7945H24.6878V14.5935Z" fill="#F1EFE2"/>
<path d="M24.7124 14.8184H24.4336V14.5696H24.7124V14.8184ZM24.4817 14.7705H24.6644V14.6174H24.4817V14.7705Z" fill="#4E4234"/>
<path d="M24.9202 14.3923H24.6895V14.5933H24.9202V14.3923Z" fill="#F1EFE2"/>
<path d="M24.939 14.6172H24.6602V14.3684H24.939V14.6172ZM24.713 14.5694H24.8957V14.4163H24.713V14.5694Z" fill="#4E4234"/>
<path d="M24.9202 14.5935H24.6895V14.7945H24.9202V14.5935Z" fill="#F1EFE2"/>
<path d="M24.939 14.8184H24.6602V14.5696H24.939V14.8184ZM24.713 14.7705H24.8957V14.6174H24.713V14.7705Z" fill="#4E4234"/>
<path d="M24.9202 14.7944H24.6895V14.9954H24.9202V14.7944Z" fill="#F1EFE2"/>
<path d="M24.939 15.0193H24.6602V14.7705H24.939V15.0193ZM24.713 14.9715H24.8957V14.8184H24.713V14.9715Z" fill="#4E4234"/>
<path d="M24.9202 14.9954H24.6895V15.1963H24.9202V14.9954Z" fill="#F1EFE2"/>
<path d="M24.939 15.2202H24.6602V14.9714H24.939V15.2202ZM24.713 15.1724H24.8957V15.0193H24.713V15.1724Z" fill="#4E4234"/>
<path d="M25.3167 14.3926H25.0859V14.6031H25.3167V14.3926Z" fill="#F1EFE2"/>
<path d="M25.3413 14.6317H25.0625V14.3733H25.3413V14.6317ZM25.1106 14.5838H25.2933V14.4211H25.1106V14.5838Z" fill="#4E4234"/>
<path d="M25.3167 14.8181H25.0859V15.0286H25.3167V14.8181Z" fill="#F1EFE2"/>
<path d="M25.3413 15.0526H25.0625V14.7942H25.3413V15.0526ZM25.1106 15.0047H25.2933V14.842H25.1106V15.0047Z" fill="#4E4234"/>
<path d="M25.3167 15.0286H25.0859V15.2391H25.3167V15.0286Z" fill="#F1EFE2"/>
<path d="M25.3413 15.263H25.0625V15.0046H25.3413V15.263ZM25.1106 15.2152H25.2933V15.0525H25.1106V15.2152Z" fill="#4E4234"/>
<path d="M25.3167 14.6079H25.0859V14.8184H25.3167V14.6079Z" fill="#F1EFE2"/>
<path d="M25.3413 14.8424H25.0625V14.584H25.3413V14.8424ZM25.1106 14.7945H25.2933V14.6318H25.1106V14.7945Z" fill="#4E4234"/>
<path d="M25.5491 14.3926H25.3184V14.6031H25.5491V14.3926Z" fill="#F1EFE2"/>
<path d="M25.5679 14.6317H25.2891V14.3733H25.5679V14.6317ZM25.3419 14.5838H25.5246V14.4211H25.3419V14.5838Z" fill="#4E4234"/>
<path d="M25.5491 14.6077H25.3184V14.8182H25.5491V14.6077Z" fill="#F1EFE2"/>
<path d="M25.5679 14.8421H25.2891V14.5837H25.5679V14.8421ZM25.3419 14.7943H25.5246V14.6316H25.3419V14.7943Z" fill="#4E4234"/>
<path d="M25.5491 14.8181H25.3184V15.0286H25.5491V14.8181Z" fill="#F1EFE2"/>
<path d="M25.5679 15.0526H25.2891V14.7942H25.5679V15.0526ZM25.3419 15.0047H25.5246V14.842H25.3419V15.0047Z" fill="#4E4234"/>
<path d="M25.5491 15.0288H25.3184V15.2393H25.5491V15.0288Z" fill="#F1EFE2"/>
<path d="M25.5679 15.2633H25.2891V15.0049H25.5679V15.2633ZM25.3419 15.2154H25.5246V15.0527H25.3419V15.2154Z" fill="#4E4234"/>
<path d="M26.4847 14.3926H26.2539V14.6031H26.4847V14.3926Z" fill="#F1EFE2"/>
<path d="M26.5093 14.6317H26.2305V14.3733H26.5093V14.6317ZM26.2785 14.5838H26.4612V14.4211H26.2785V14.5838Z" fill="#4E4234"/>
<path d="M26.4847 14.8181H26.2539V15.0286H26.4847V14.8181Z" fill="#F1EFE2"/>
<path d="M26.5093 15.0526H26.2305V14.7942H26.5093V15.0526ZM26.2785 15.0047H26.4612V14.842H26.2785V15.0047Z" fill="#4E4234"/>
<path d="M26.4847 15.0288H26.2539V15.2393H26.4847V15.0288Z" fill="#F1EFE2"/>
<path d="M26.5093 15.2633H26.2305V15.0049H26.5093V15.2633ZM26.2785 15.2154H26.4612V15.0527H26.2785V15.2154Z" fill="#4E4234"/>
<path d="M26.4847 14.6079H26.2539V14.8184H26.4847V14.6079Z" fill="#F1EFE2"/>
<path d="M26.5093 14.8424H26.2305V14.584H26.5093V14.8424ZM26.2785 14.7945H26.4612V14.6318H26.2785V14.7945Z" fill="#4E4234"/>
<path d="M26.7171 14.3926H26.4863V14.6031H26.7171V14.3926Z" fill="#F1EFE2"/>
<path d="M26.7359 14.6317H26.457V14.3733H26.7359V14.6317ZM26.5099 14.5838H26.6926V14.4211H26.5099V14.5838Z" fill="#4E4234"/>
<path d="M26.7171 14.6077H26.4863V14.8182H26.7171V14.6077Z" fill="#F1EFE2"/>
<path d="M26.7359 14.8421H26.457V14.5837H26.7359V14.8421ZM26.5099 14.7943H26.6926V14.6316H26.5099V14.7943Z" fill="#4E4234"/>
<path d="M26.7171 14.8181H26.4863V15.0286H26.7171V14.8181Z" fill="#F1EFE2"/>
<path d="M26.7359 15.0526H26.457V14.7942H26.7359V15.0526ZM26.5099 15.0047H26.6926V14.842H26.5099V15.0047Z" fill="#4E4234"/>
<path d="M26.7171 15.0286H26.4863V15.2391H26.7171V15.0286Z" fill="#F1EFE2"/>
<path d="M26.7359 15.263H26.457V15.0046H26.7359V15.263ZM26.5099 15.2152H26.6926V15.0525H26.5099V15.2152Z" fill="#4E4234"/>
<path d="M25.9124 14.3972H25.6816V14.6077H25.9124V14.3972Z" fill="#F1EFE2"/>
<path d="M25.937 14.6317H25.6582V14.3733H25.937V14.6317ZM25.7063 14.5838H25.889V14.4211H25.7063V14.5838Z" fill="#4E4234"/>
<path d="M25.9124 14.8181H25.6816V15.0286H25.9124V14.8181Z" fill="#F1EFE2"/>
<path d="M25.937 15.0572H25.6582V14.7988H25.937V15.0572ZM25.7063 15.0094H25.889V14.8467H25.7063V15.0094Z" fill="#4E4234"/>
<path d="M25.9124 15.0337H25.6816V15.2442H25.9124V15.0337Z" fill="#F1EFE2"/>
<path d="M25.937 15.2681H25.6582V15.0098H25.937V15.2681ZM25.7063 15.2203H25.889V15.0576H25.7063V15.2203Z" fill="#4E4234"/>
<path d="M25.9124 14.6079H25.6816V14.8184H25.9124V14.6079Z" fill="#F1EFE2"/>
<path d="M25.937 14.8424H25.6582V14.584H25.937V14.8424ZM25.7063 14.7945H25.889V14.6318H25.7063V14.7945Z" fill="#4E4234"/>
<path d="M26.1448 14.3972H25.9141V14.6077H26.1448V14.3972Z" fill="#F1EFE2"/>
<path d="M26.1636 14.6317H25.8848V14.3733H26.1636V14.6317ZM25.9376 14.5838H26.1203V14.4211H25.9376V14.5838Z" fill="#4E4234"/>
<path d="M26.1448 14.6079H25.9141V14.8184H26.1448V14.6079Z" fill="#F1EFE2"/>
<path d="M26.1636 14.8424H25.8848V14.584H26.1636V14.8424ZM25.9376 14.7945H26.1203V14.6318H25.9376V14.7945Z" fill="#4E4234"/>
<path d="M26.1448 14.8184H25.9141V15.0289H26.1448V14.8184Z" fill="#F1EFE2"/>
<path d="M26.1636 15.0574H25.8848V14.7991H26.1636V15.0574ZM25.9376 15.0096H26.1203V14.8469H25.9376V15.0096Z" fill="#4E4234"/>
<path d="M26.1448 15.0337H25.9141V15.2442H26.1448V15.0337Z" fill="#F1EFE2"/>
<path d="M26.1636 15.2681H25.8848V15.0098H26.1636V15.2681ZM25.9376 15.2203H26.1203V15.0576H25.9376V15.2203Z" fill="#4E4234"/>
<path d="M24.1218 14.407H23.9199V14.6079H24.1218V14.407Z" fill="#F1EFE2"/>
<path d="M24.1465 14.6319H23.8965V14.3831H24.1465V14.6319ZM23.9446 14.584H24.0984V14.4309H23.9446V14.584Z" fill="#4E4234"/>
<path d="M24.1218 14.8088H23.9199V15.0098H24.1218V14.8088Z" fill="#F1EFE2"/>
<path d="M24.1465 15.0337H23.8965V14.7849H24.1465V15.0337ZM23.9446 14.9859H24.0984V14.8328H23.9446V14.9859Z" fill="#4E4234"/>
<path d="M24.1218 15.0098H23.9199V15.2107H24.1218V15.0098Z" fill="#F1EFE2"/>
<path d="M24.1465 15.2346H23.8965V14.9858H24.1465V15.2346ZM23.9446 15.1868H24.0984V15.0337H23.9446V15.1868Z" fill="#4E4234"/>
<path d="M24.1218 14.6082H23.9199V14.8091H24.1218V14.6082Z" fill="#F1EFE2"/>
<path d="M24.1465 14.833H23.8965V14.5842H24.1465V14.833ZM23.9446 14.7852H24.0984V14.6321H23.9446V14.7852Z" fill="#4E4234"/>
<path d="M24.325 14.407H24.123V14.6079H24.325V14.407Z" fill="#F1EFE2"/>
<path d="M24.3535 14.6319H24.1035V14.3831H24.3535V14.6319ZM24.1468 14.584H24.3006V14.4309H24.1468V14.584Z" fill="#4E4234"/>
<path d="M24.325 14.6082H24.123V14.8091H24.325V14.6082Z" fill="#F1EFE2"/>
<path d="M24.3535 14.833H24.1035V14.5842H24.3535V14.833ZM24.1468 14.7852H24.3006V14.6321H24.1468V14.7852Z" fill="#4E4234"/>
<path d="M24.325 14.8088H24.123V15.0098H24.325V14.8088Z" fill="#F1EFE2"/>
<path d="M24.3535 15.0337H24.1035V14.7849H24.3535V15.0337ZM24.1468 14.9859H24.3006V14.8328H24.1468V14.9859Z" fill="#4E4234"/>
<path d="M24.325 15.0098H24.123V15.2107H24.325V15.0098Z" fill="#F1EFE2"/>
<path d="M24.3535 15.2346H24.1035V14.9858H24.3535V15.2346ZM24.1468 15.1868H24.3006V15.0337H24.1468V15.1868Z" fill="#4E4234"/>
<path d="M0.0332031 16.7846L45.5852 16.4019V16.7846L0.0332031 17.1244V16.7846Z" fill="#4E4234"/>
<path d="M-0.140625 16.4018L45.5845 16.1482" stroke="#4E4234" stroke-width="4" stroke-miterlimit="10"/>
<path d="M5.72476 19.7894L42.3347 19.5693L42.6471 25.5503L5.60938 25.6316L5.72476 19.7894Z" fill="#A09F9A"/>
<path d="M14.582 20.4403V22.0384H17.8945L17.981 20.3015L14.582 20.4403Z" fill="#59503F"/>
<path d="M8.04294 20.7847H6.29297V21.555H8.04294V20.7847Z" fill="#3B3A36"/>
<path d="M9.75481 21.4258H13.0336L13.1105 20.7847L9.75 20.9617L9.75481 21.4258Z" fill="#3B3A36"/>
<path d="M9.75481 24.5743H13.0336V24.0193H9.75L9.75481 24.5743Z" fill="#3B3A36"/>
<path d="M37.6864 21.4258H40.9652L41.0422 20.7847L37.6816 20.9617L37.6864 21.4258Z" fill="#3B3A36"/>
<path d="M37.6864 24.5743H40.9652V24.0193H37.6816L37.6864 24.5743Z" fill="#3B3A36"/>
<path d="M6.29297 24.6604H7.90832V24.0193H6.34585L6.29297 24.6604Z" fill="#3B3A36"/>
<path d="M36.6146 20.646H33.8262V21.4163H36.6146V20.646Z" fill="#3B3A36"/>
<path d="M22.7251 20.646H19.2637V21.4163H22.7251V20.646Z" fill="#3B3A36"/>
<path d="M28.0853 20.5791H23.9219V21.3494H28.0853V20.5791Z" fill="#3B3A36"/>
<path d="M33.8262 24.4354H36.6146V23.7991H33.9175L33.8262 24.4354Z" fill="#3B3A36"/>
<path d="M19.4319 23.6316L19.3262 25.4642L23.2155 25.5455V23.5024L19.4319 23.6316Z" fill="#3B3A36"/>
<path d="M23.8691 23.6316V25.3589H27.4172V23.5024L23.8691 23.6316Z" fill="#3B3A36"/>
<path d="M6.39874 19.7896L6.29297 25.6174" stroke="#D3D3D3" stroke-miterlimit="10"/>
<path d="M6.91406 25.5456V19.7896" stroke="#D3D3D3" stroke-miterlimit="10"/>
<path d="M7.50977 25.5456V19.7896" stroke="#D3D3D3" stroke-miterlimit="10"/>
<path d="M9.75391 19.7896V25.5456" stroke="#D3D3D3" stroke-miterlimit="10"/>
<path d="M10.3398 19.7896V25.5456" stroke="#D3D3D3" stroke-miterlimit="10"/>
<path d="M10.9512 19.7896V25.5456" stroke="#D3D3D3" stroke-miterlimit="10"/>
<path d="M11.5469 19.7896V25.6078" stroke="#D3D3D3" stroke-miterlimit="10"/>
<path d="M12.1484 19.7896V25.5456" stroke="#D3D3D3" stroke-miterlimit="10"/>
<path d="M12.7461 19.7896V25.5456" stroke="#D3D3D3" stroke-miterlimit="10"/>
<path d="M22.7266 19.7896V22.3542" stroke="#D3D3D3" stroke-miterlimit="10"/>
<path d="M19.2168 19.7896V22.3542" stroke="#D3D3D3" stroke-miterlimit="10"/>
<path d="M19.8164 19.7896V22.3542" stroke="#D3D3D3" stroke-miterlimit="10"/>
<path d="M20.4336 19.7896V22.3542" stroke="#D3D3D3" stroke-miterlimit="10"/>
<path d="M20.9277 19.7896L21.0479 22.3781" stroke="#D3D3D3" stroke-miterlimit="10"/>
<path d="M21.6172 19.7896V22.3781" stroke="#D3D3D3" stroke-miterlimit="10"/>
<path d="M22.1934 19.7896V22.3542" stroke="#D3D3D3" stroke-miterlimit="10"/>
<path d="M19.2168 20.5933H22.7263" stroke="#D3D3D3" stroke-miterlimit="10"/>
<path d="M8.04264 20.7847H6.39844" stroke="#D3D3D3" stroke-miterlimit="10"/>
<path d="M27.4375 19.6792V22.2438" stroke="#D3D3D3" stroke-miterlimit="10"/>
<path d="M23.9297 19.6792V22.2438" stroke="#D3D3D3" stroke-miterlimit="10"/>
<path d="M24.5352 19.6792V22.2438" stroke="#D3D3D3" stroke-miterlimit="10"/>
<path d="M25.1465 19.6792V22.2438" stroke="#D3D3D3" stroke-miterlimit="10"/>
<path d="M25.6465 19.6792L25.7619 22.2678" stroke="#D3D3D3" stroke-miterlimit="10"/>
<path d="M26.334 19.6792V22.2678" stroke="#D3D3D3" stroke-miterlimit="10"/>
<path d="M26.9062 19.6792V22.2438" stroke="#D3D3D3" stroke-miterlimit="10"/>
<path d="M23.9297 20.4829H27.9729" stroke="#D3D3D3" stroke-miterlimit="10"/>
<path d="M28.0586 19.7893L28.1836 25.3588" stroke="#D3D3D3" stroke-miterlimit="10"/>
<path d="M9.75 20.7847L13.0336 20.6794" stroke="#D3D3D3" stroke-miterlimit="10"/>
<path d="M9.75391 23.9141H13.0327" stroke="#D3D3D3" stroke-miterlimit="10"/>
<path d="M6.29297 23.9141H8.04294" stroke="#D3D3D3" stroke-miterlimit="10"/>
<path d="M37.6855 19.7896V25.5456" stroke="#D3D3D3" stroke-miterlimit="10"/>
<path d="M38.2734 19.7896V25.5456" stroke="#D3D3D3" stroke-miterlimit="10"/>
<path d="M38.8848 19.7896V25.5456" stroke="#D3D3D3" stroke-miterlimit="10"/>
<path d="M39.4785 19.7896V25.6078" stroke="#D3D3D3" stroke-miterlimit="10"/>
<path d="M40.0801 19.7896V25.5456" stroke="#D3D3D3" stroke-miterlimit="10"/>
<path d="M40.6777 19.7896V25.5456" stroke="#D3D3D3" stroke-miterlimit="10"/>
<path d="M37.6816 20.7847L40.9652 20.6794" stroke="#D3D3D3" stroke-miterlimit="10"/>
<path d="M37.6855 23.9141H40.9643" stroke="#D3D3D3" stroke-miterlimit="10"/>
<path d="M36.6663 19.7847L36.5605 25.6125" stroke="#D3D3D3" stroke-miterlimit="10"/>
<path d="M34.2793 25.3254V19.5693" stroke="#D3D3D3" stroke-miterlimit="10"/>
<path d="M36.0137 25.4545V19.6985" stroke="#D3D3D3" stroke-miterlimit="10"/>
<path d="M34.873 25.3637V19.6077" stroke="#D3D3D3" stroke-miterlimit="10"/>
<path d="M35.4902 25.4545V19.6985" stroke="#D3D3D3" stroke-miterlimit="10"/>
<path d="M33.8262 23.6938H36.6146" stroke="#D3D3D3" stroke-miterlimit="10"/>
<path d="M33.8262 20.5454H36.6146" stroke="#D3D3D3" stroke-miterlimit="10"/>
<path d="M23.0946 18.5263L20.9023 18.4354L20.9841 16.4976H21.0321L20.9504 18.3875L23.0513 18.4784L23.1283 16.5885L23.1763 16.5933L23.0946 18.5263Z" fill="#4E4234"/>
<path d="M26.4139 18.4785L24.2168 18.4737L24.2216 16.5359H24.2697L24.2649 18.4259L26.3658 18.4307L26.3706 16.5407H26.4187L26.4139 18.4785Z" fill="#4E4234"/>
<path d="M33.5653 18.4975L31.373 18.4928L31.3779 16.5549H31.4259L31.4211 18.4449L33.5172 18.4497L33.522 16.5597H33.5701L33.5653 18.4975Z" fill="#4E4234"/>
<path d="M3.95628 16.6555H3.9082V18.6555H3.95628V16.6555Z" fill="#4E4234"/>
<path d="M4.63011 16.6555H4.58203V18.6555H4.63011V16.6555Z" fill="#4E4234"/>
<path d="M5.25901 16.6555H5.21094V18.6555H5.25901V16.6555Z" fill="#4E4234"/>
<path d="M5.89769 16.6028H5.84961V18.6554H5.89769V16.6028Z" fill="#4E4234"/>
<path d="M6.56175 16.6028H6.51367V18.6554H6.56175V16.6028Z" fill="#4E4234"/>
<path d="M9.0969 16.5408H9.04883V18.5599H9.0969V16.5408Z" fill="#4E4234"/>
<path d="M9.77854 16.5408H9.73047V18.5599H9.77854V16.5408Z" fill="#4E4234"/>
<path d="M10.4362 16.5408L10.3926 18.5596L10.4406 18.5606L10.4842 16.5418L10.4362 16.5408Z" fill="#4E4234"/>
<path d="M14.4035 16.6028H14.3555V18.4545H14.4035V16.6028Z" fill="#4E4234"/>
<path d="M15.0481 16.5408H15V18.4547H15.0481V16.5408Z" fill="#4E4234"/>
<path d="M6.53736 18.5359H3.93164V18.5837H6.53736V18.5359Z" fill="#4E4234"/>
<path d="M10.4376 18.4307H9.07227V18.4785H10.4376V18.4307Z" fill="#4E4234"/>
<path d="M35.8547 16.5408H35.8066V18.5599H35.8547V16.5408Z" fill="#4E4234"/>
<path d="M36.5422 16.5408H36.4941V18.5599H36.5422V16.5408Z" fill="#4E4234"/>
<path d="M37.1998 16.5386L37.1562 18.5574L37.2043 18.5584L37.2479 16.5396L37.1998 16.5386Z" fill="#4E4234"/>
<path d="M37.1954 18.4307H35.8301V18.4785H37.1954V18.4307Z" fill="#4E4234"/>
<path d="M21.6737 16.5894L21.5938 18.4395L21.6418 18.4415L21.7217 16.5915L21.6737 16.5894Z" fill="#4E4234"/>
<path d="M22.3619 16.5556L22.2793 18.4678L22.3273 18.4698L22.41 16.5577L22.3619 16.5556Z" fill="#4E4234"/>
<path d="M24.9078 16.6031L24.9023 18.4548L24.9504 18.455L24.9559 16.6033L24.9078 16.6031Z" fill="#4E4234"/>
<path d="M25.5974 16.5409L25.5918 18.4548L25.6399 18.455L25.6455 16.5411L25.5974 16.5409Z" fill="#4E4234"/>
<path d="M32.066 16.6214L32.0605 18.4731L32.1086 18.4733L32.1141 16.6216L32.066 16.6214Z" fill="#4E4234"/>
<path d="M32.7576 16.5592L32.752 18.4731L32.8 18.4733L32.8057 16.5594L32.7576 16.5592Z" fill="#4E4234"/>
<path d="M19.0422 16.5408H18.9941V18.4547H19.0422V16.5408Z" fill="#4E4234"/>
<path d="M19.7551 16.4976H19.707V18.4976H19.7551V16.4976Z" fill="#4E4234"/>
<path d="M19.7305 18.335H18.918V18.3828H19.7305V18.335Z" fill="#4E4234"/>
<path d="M-0.140625 19.0815L4.38814 20.4403H43.4499L45.5845 18.8279L-0.140625 19.0815Z" fill="#4E4234"/>
<path d="M8.42758 19.335H8.04297V25.6317H8.42758V19.335Z" fill="#9D4E41"/>
<path d="M13.1113 19.3351V25.6318H13.4719V19.2107L13.1113 19.3351Z" fill="#9D4E41"/>
<path d="M18.2598 19.3351V25.6318H18.6876V19.2107L18.2598 19.3351Z" fill="#9D4E41"/>
<path d="M23.3555 19.2107L23.4372 25.5457H23.9228L23.7401 19.2107H23.3555Z" fill="#9D4E41"/>
<path d="M28.4277 19.2107C28.4277 19.2968 28.62 25.6318 28.62 25.6318H29.0239L28.8748 19.2107H28.4277Z" fill="#9D4E41"/>
<path d="M33.5469 19.2107C33.4892 19.2729 33.7055 25.6318 33.7055 25.6318H34.1094L33.9171 19.2107H33.5469Z" fill="#9D4E41"/>
<path d="M40.7363 19.2107L40.9527 25.5457H41.3805L41.294 19.2107H40.7363Z" fill="#9D4E41"/>
<path d="M2.42893 19.4833L2.31836 25.6317H3.93371L4.1164 19.4833L3.42892 19.335L3.21738 19.6364L2.42893 19.4833Z" fill="#C9AE90"/>
<path d="M8.42773 19.335L8.94215 19.6364L8.81234 25.6317H8.42773V19.335Z" fill="#C9AE90"/>
<path d="M13.4707 19.2107L13.8217 19.4643L13.7832 25.6318H13.4707V19.2107Z" fill="#C9AE90"/>
<path d="M33.0425 19.4021C33.0233 19.4643 33.1916 25.6318 33.1916 25.6318H33.706L33.5473 19.2107L33.0425 19.4021Z" fill="#C9AE90"/>
<path d="M4.43224 20.1006V21.1006H4.2207V25.6318H5.6101L5.71587 20.1006H4.43224Z" fill="#C9AE90"/>
<path d="M0.586472 25.6318V25.9715H-0.822156L-1.26926 26.7371H-1.84618L-3 27.694L47.576 27.182L46.1625 26.6605L45.0087 26.3543L44.2732 25.9093L43.2588 25.8854L42.9366 25.5457L0.586472 25.6318Z" fill="#C9AE90"/>
<path d="M3.08564 19.335L3.00391 25.6317H3.42697V19.335H3.08564Z" fill="#9D4E41"/>
<path d="M15.4375 23.6318V22.7035C15.4375 22.7035 15.6106 22.3542 16.1875 22.3542C16.7644 22.3542 17.0432 22.7035 17.0432 22.7035V23.6318H15.4375Z" fill="#59503F"/>
<path d="M15.0245 23.5027H13.9668V25.1199H15.0245V23.5027Z" fill="#59503F"/>
<path d="M17.043 23.7371V25.2252L18.2545 25.1199L18.2353 23.5027L17.043 23.7371Z" fill="#59503F"/>
<path d="M29.5625 20.6174V22.1533H32.4134L32.4855 20.4834L29.5625 20.6174Z" fill="#59503F"/>
<path d="M29.9219 23.6892V22.7944C29.9219 22.7944 30.0709 22.4595 30.5661 22.4595C31.0613 22.4595 31.3017 22.7944 31.3017 22.7944V23.6892H29.9219Z" fill="#59503F"/>
<path d="M29.936 23.5696H29.0273V25.1294H29.936V23.5696Z" fill="#59503F"/>
<path d="M31.5703 23.512V24.9474L32.6136 24.8469L32.5943 23.2871L31.5703 23.512Z" fill="#59503F"/>
<path d="M42.8815 25.7484L4.21875 25.9175L4.21896 25.9653L42.8817 25.7962L42.8815 25.7484Z" fill="#4E4234"/>
<path d="M43.0492 25.8385L3.99219 26.0283L3.99242 26.0762L43.0494 25.8864L43.0492 25.8385Z" fill="#4E4234"/>
<path d="M44.2174 26.0265L3.92969 26.2615L3.92997 26.3093L44.2177 26.0744L44.2174 26.0265Z" fill="#4E4234"/>
<path d="M44.387 26.1546L3.70508 26.3918L3.70536 26.4397L44.3873 26.2025L44.387 26.1546Z" fill="#4E4234"/>
<path d="M44.7908 26.3914L-1.10742 26.7483L-1.10705 26.7961L44.7911 26.4393L44.7908 26.3914Z" fill="#4E4234"/>
<path d="M45.5836 26.5952L-1.82422 26.9177L-1.82389 26.9656L45.5839 26.643L45.5836 26.5952Z" fill="#4E4234"/>
<path d="M46.162 26.739L-2.16406 27.1382L-2.16366 27.186L46.1624 26.7868L46.162 26.739Z" fill="#4E4234"/>
<path d="M46.6088 26.941L-2.62109 27.3477L-2.62069 27.3955L46.6092 26.9888L46.6088 26.941Z" fill="#4E4234"/>
</g>
</svg>
