<svg width="46" height="46" viewBox="0 0 46 46" fill="none" xmlns="http://www.w3.org/2000/svg">
<path d="M45.567 23.2388C45.567 35.6343 37.1939 45.5672 24.7983 45.5672C12.4028 45.5672 0.746094 38.4254 0.746094 26.0298C0.746094 13.6343 10.1864 0.171631 22.5819 0.171631C34.9774 0.171631 45.567 10.8433 45.567 23.2388Z" fill="#79A5AE"/>
<mask id="mask0_1816_2740" style="mask-type:luminance" maskUnits="userSpaceOnUse" x="0" y="0" width="46" height="46">
<path d="M45.567 23.2388C45.567 35.6343 37.1939 45.5672 24.7983 45.5672C12.4028 45.5672 0.746094 38.4254 0.746094 26.0298C0.746094 13.6343 10.1864 0.171631 22.5819 0.171631C34.9774 0.171631 45.567 10.8433 45.567 23.2388Z" fill="white"/>
</mask>
<g mask="url(#mask0_1816_2740)">
<path d="M3.29137 23.4851L43.5973 24.5523L44.172 37.4403L2.79883 36.5373L3.29137 23.4851Z" fill="#D8D6CE"/>
<path d="M8.21613 17.6567L6.41016 38.2612L40.149 38.8358L39.246 18.6418L8.21613 17.6567Z" fill="#E9E7DC"/>
<path d="M5.17969 19.9553L42.12 21.1046L39.2469 23.4852L7.80655 22.6643L5.17969 19.9553Z" fill="#CCCBC6"/>
<path d="M8.17156 17.7258L8.16016 18.054L39.1714 19.1315L39.1828 18.8033L8.17156 17.7258Z" fill="#D08C87"/>
<path d="M5.46543 20.1105L5.45508 20.4387L41.8026 21.5854L41.8129 21.2572L5.46543 20.1105Z" fill="#D08C87"/>
<path d="M16.6719 17.903C16.6719 17.903 17.9853 11.5821 19.4629 9.94027C20.9405 8.29848 23.1569 7.06714 24.142 7.06714C25.045 7.06714 26.6868 7.06714 28.3286 10.1045C29.9704 13.1418 31.0375 18.4776 31.0375 18.4776L16.6719 17.903Z" fill="#E9E7DC"/>
<path d="M30.6273 17.2463C30.5452 17.2463 25.784 15.3582 23.3214 15.194C20.8587 15.1119 16.59 17 16.59 17.0821L16.3438 16.7537C16.5079 16.6716 20.6945 14.7015 23.2393 14.8657C25.7841 15.0299 30.4632 16.8358 30.7094 16.9179L30.6273 17.2463Z" fill="#D08C87"/>
<path d="M15.5218 22.9104L31.9397 23.2388V38.8358L15.1113 38.4253L15.5218 22.9104Z" fill="#CCCBC6"/>
<path d="M21.1055 29.7239H26.3592L25.7846 31.6119H21.598L21.1055 29.7239Z" fill="#C0AAAF"/>
<path d="M24.2249 4.60449C24.2249 4.60449 23.8145 5.01494 23.8145 5.42539C23.8145 5.75375 23.8145 6.0821 23.8145 6.0821L24.4712 6.16419C24.4712 6.16419 24.5533 5.67166 24.4712 5.3433C24.3891 5.01494 24.2249 4.60449 24.2249 4.60449Z" fill="#E9E7DC"/>
<path d="M23.4863 7.14917C23.4863 7.14917 23.6505 6.41036 24.143 6.49245C24.6356 6.57454 24.7998 7.14917 24.7998 7.14917H23.4863Z" fill="#D08C87"/>
<path d="M23.6504 6.32842C23.6504 6.16424 23.6504 5.91797 24.0608 5.91797C24.4713 5.91797 24.5534 5.91797 24.5534 6.16424C24.5534 6.41051 24.5534 6.57469 24.225 6.4926C23.8146 6.57469 23.6504 6.32842 23.6504 6.32842Z" fill="#D08C87"/>
<path d="M19.9555 23.0747V23.4852L19.3809 38.5075L21.1868 38.5896L21.5973 23.0747H19.9555Z" fill="#C0AAAF"/>
<path d="M25.7832 23.1567V38.6717L27.6713 38.7538V23.2388L25.7832 23.1567Z" fill="#C0AAAF"/>
<path d="M19.3804 25.7837H17.2461V28.821H19.3804V25.7837Z" fill="#5E5D5A"/>
<path d="M19.0523 36.7836H16.918L17.2463 33.5H19.0523" fill="#5E5D5A"/>
<path d="M21.5977 31.6121H25.1275V38.7539L21.5977 38.5897V31.6121Z" fill="#5E5D5A"/>
<path d="M25.1273 25.7837H21.9258V28.821H25.1273V25.7837Z" fill="#5E5D5A"/>
<path d="M30.0521 26.1941H28.1641V29.2314H30.0521V26.1941Z" fill="#5E5D5A"/>
<path d="M30.0521 33.8284H28.1641V36.7836H30.0521V33.8284Z" fill="#5E5D5A"/>
<path d="M39.4232 24.3653L39.4102 24.6934L43.5934 24.8601L43.6064 24.532L39.4232 24.3653Z" fill="#D08C87"/>
<path d="M7.64188 23.6492H3.12695V23.9775H7.64188V23.6492Z" fill="#D08C87"/>
</g>
</svg>
