<svg width="3703" height="708" viewBox="0 0 3703 708" fill="none" xmlns="http://www.w3.org/2000/svg">
<path opacity="0.3" d="M47.5004 340C59.0002 330 24.0004 296 59.0004 287C94.0004 278 106.5 377 66.5004 345C26.5004 313 286.282 272.041 486 282.302C570.982 286.668 551.5 308 602 302C652.5 296 615.691 224.102 667.5 207C719.309 189.898 769 210.5 796.5 234C812.022 247.264 874.5 305.802 1043 268.302C1211.5 230.802 1285 240.802 1493 282.302C1701 323.802 1728.5 353 1866.5 361.5C2004.5 370 1958 268.302 2091 268.302C2224 268.302 2244.5 401 2321 401C2452 401 2428.98 219.5 2519.5 219.5C2680.5 219.5 2751.05 335.057 2914.5 344.5C3165.5 359 3168.5 423.302 3277.5 421.302C3364.7 419.702 3467.17 364.969 3507.5 337.802C3532 317.535 3605.2 278.5 3702 284.5" stroke="#403F3C" stroke-width="3"/>
<path d="M247 49H220.225V528H196" stroke="#D9D7CB" stroke-width="2"/>
<path d="M1079 216V474H1055" stroke="#D9D7CB" stroke-width="2"/>
<path d="M1200 198V518H1176" stroke="#D9D7CB" stroke-width="2"/>
<path d="M1282 93V396.5" stroke="#D9D7CB" stroke-width="2"/>
<path d="M647 99.5V478" stroke="#D9D7CB" stroke-width="2"/>
<path d="M1421 28V509M1421 584V509M1421 509H1393" stroke="#D9D7CB" stroke-width="2"/>
<path d="M752 161V549.5" stroke="#D9D7CB" stroke-width="2"/>
<path d="M247 291L247 580" stroke="#D9D7CB" stroke-width="2"/>
<line x1="49" y1="339" x2="49" y2="446" stroke="#D9D7CB" stroke-width="2"/>
<path d="M362 283L362 378.5" stroke="#D9D7CB" stroke-width="2"/>
<path d="M156 230L156 301" stroke="#D9D7CB" stroke-width="2"/>
<path d="M319 256L319 283.5" stroke="#D9D7CB" stroke-width="2"/>
<path d="M199 300L199 337L199 374" stroke="#D9D7CB" stroke-width="2"/>
<path d="M406 102L406 279" stroke="#D9D7CB" stroke-width="2"/>
<path d="M468 209L468 278.5" stroke="#D9D7CB" stroke-width="2"/>
<path d="M505.5 65L505.5 513.5" stroke="#D9D7CB" stroke-width="2"/>
<path d="M433 279L433 326.5" stroke="#D9D7CB" stroke-width="2"/>
<path d="M579.5 301.995L579.5 357.5" stroke="#D9D7CB" stroke-width="2"/>
<path d="M935.5 279.995L935.5 330.5" stroke="#D9D7CB" stroke-width="2"/>
<path d="M804.072 240L804.072 344.995" stroke="#D9D7CB" stroke-width="2"/>
<path d="M1341 219L1341 252" stroke="#D9D7CB" stroke-width="2"/>
<line x1="865" y1="232.999" x2="865.02" y2="266.999" stroke="#D9D7CB" stroke-width="2"/>
<path d="M1004.52 101L1004.52 272.999" stroke="#D9D7CB" stroke-width="2"/>
<path d="M1200.5 393.994L1170 393.994" stroke="#D9D7CB" stroke-width="2"/>
<path d="M1617 65V406.5M1617 506.5V406.5M1617 406.5H1589" stroke="#D9D7CB" stroke-width="2"/>
<path d="M2943 97V491.631M2943 567V491.631M2943 491.631H2915" stroke="#D9D7CB" stroke-width="2"/>
<path d="M1904 63.5V125.5M1904 431H1876M1904 431V567M1904 431V144M1904 125.5H1876M1904 125.5V144M1904 144H1933.5" stroke="#D9D7CB" stroke-width="2"/>
<path d="M2306.24 42.5V267M2306.24 458.724H2278M2306.24 458.724V107.831M2306.24 458.724V513M2306.24 566V513M2306.24 267H2333M2306.24 267L2306.24 107.831M2306.24 107.831H2336M2306.24 513H2333" stroke="#D9D7CB" stroke-width="2"/>
<path d="M3104.24 32.5V138.5M3104.24 429.5H3076M3104.24 429.5V299M3104.24 429.5V471.5M3104.24 552V471.5M3104.24 138.5H3076M3104.24 138.5V299M3104.24 299H3134M3104.24 471.5H3127.5" stroke="#D9D7CB" stroke-width="2"/>
<path d="M2673.74 0L2673.74 40.5M2673.74 517.5H2645.5M2673.74 517.5L2673.74 589.5L2673.74 603M2673.74 517.5L2673.74 444M2673.74 62H2645.5M2673.74 62V40.5M2673.74 62L2673.74 84.7531V131.437M2673.74 131.437H2758.5M2673.74 131.437V163.969M2673.74 297H2540M2673.74 297V369.5M2673.74 297V196.5M2673.74 369.5H2772M2673.74 369.5V444M2673.74 444H2566M2673.74 444H2707M2673.74 196.5H2805M2673.74 196.5V163.969M2673.74 163.969H2626M2673.74 40.5H2703.5" stroke="#D9D7CB" stroke-width="2"/>
<path d="M3377.74 33V90.5M3377.74 481.5H3349.5M3377.74 481.5V562M3377.74 481.5V509.533V427.881V372M3377.74 115.8H3349.5M3377.74 115.8V90.5M3377.74 115.8V166.966M3377.74 166.966H3421.5M3377.74 166.966V213.274M3377.74 372H3330M3377.74 372V213.274M3377.74 213.274H3330M3377.74 90.5H3407.5" stroke="#D9D7CB" stroke-width="2"/>
<path d="M3630.01 591.5L3630.01 528.874M3630 112H3654.5M3630 112V78M3630 112L3630.01 148.146V227.101M3674 488.5H3630.01V528.874M3630 448.5H3582M3630 448.5L3630.01 379M3630 448.5L3630.01 528.874M3630.01 286L3630.01 227.101M3630.01 286L3630.01 379M3630.01 286H3592.5M3630.01 227.101H3674M3630.01 379H3674M3630.01 528.874H3582" stroke="#D9D7CB" stroke-width="2"/>
<path d="M2040 330.147H2074M2040 330.147V452M2040 330.147V73" stroke="#D9D7CB" stroke-width="2"/>
<path d="M2176 563.5L2176 219" stroke="#D9D7CB" stroke-width="2"/>
<line x1="1802" y1="316.999" x2="1802.02" y2="350.999" stroke="#D9D7CB" stroke-width="2"/>
<line x1="1502" y1="272" x2="1502" y2="281" stroke="#D9D7CB" stroke-width="2"/>
<path d="M12.0977 678.726V688H10.5679V680.542L8.30176 681.31V680.046L11.9136 678.726H12.0977ZM16.541 686.794H16.668C17.252 686.794 17.7386 686.718 18.1279 686.565C18.5215 686.409 18.8346 686.193 19.0674 685.918C19.3001 685.643 19.4673 685.319 19.5688 684.947C19.6704 684.574 19.7212 684.17 19.7212 683.734V682.141C19.7212 681.764 19.681 681.434 19.6006 681.151C19.5244 680.863 19.4144 680.624 19.2705 680.434C19.1309 680.239 18.9679 680.093 18.7817 679.996C18.5998 679.898 18.403 679.85 18.1914 679.85C17.9587 679.85 17.7492 679.903 17.563 680.008C17.381 680.11 17.2266 680.252 17.0996 680.434C16.9769 680.611 16.8817 680.821 16.814 681.062C16.7505 681.299 16.7188 681.553 16.7188 681.824C16.7188 682.078 16.7484 682.323 16.8076 682.56C16.8711 682.793 16.9642 683 17.0869 683.182C17.2096 683.364 17.3641 683.508 17.5503 683.614C17.7365 683.72 17.9544 683.772 18.2041 683.772C18.4411 683.772 18.659 683.728 18.8579 683.639C19.0568 683.546 19.2303 683.421 19.3784 683.265C19.5265 683.108 19.6429 682.932 19.7275 682.738C19.8122 682.543 19.8587 682.344 19.8672 682.141L20.4512 682.319C20.4512 682.64 20.3835 682.958 20.248 683.271C20.1169 683.58 19.9328 683.863 19.6958 684.122C19.4631 684.375 19.1901 684.579 18.877 684.731C18.568 684.883 18.2316 684.959 17.8677 684.959C17.4276 684.959 17.0382 684.877 16.6997 684.712C16.3654 684.543 16.0861 684.314 15.8618 684.026C15.6418 683.739 15.4767 683.409 15.3667 683.036C15.2567 682.664 15.2017 682.272 15.2017 681.862C15.2017 681.417 15.2694 681.001 15.4048 680.611C15.5402 680.222 15.737 679.879 15.9951 679.583C16.2533 679.283 16.5664 679.05 16.9346 678.885C17.307 678.715 17.728 678.631 18.1978 678.631C18.6971 678.631 19.1351 678.728 19.5117 678.923C19.8883 679.118 20.2057 679.386 20.4639 679.729C20.722 680.072 20.9167 680.47 21.0479 680.922C21.179 681.375 21.2446 681.862 21.2446 682.382V682.922C21.2446 683.468 21.196 683.995 21.0986 684.502C21.0013 685.006 20.8426 685.474 20.6226 685.905C20.4067 686.333 20.1211 686.709 19.7656 687.035C19.4144 687.357 18.9827 687.609 18.4707 687.791C17.9629 687.968 17.3662 688.057 16.6807 688.057H16.541V686.794ZM27.3193 678.701H27.5098V679.951H27.4019C26.856 679.951 26.3841 680.036 25.9863 680.205C25.5928 680.374 25.269 680.607 25.0151 680.903C24.7612 681.2 24.5708 681.547 24.4438 681.944C24.3211 682.338 24.2598 682.757 24.2598 683.201V684.655C24.2598 685.023 24.3 685.349 24.3804 685.632C24.4608 685.912 24.5729 686.146 24.7168 686.337C24.8649 686.523 25.0342 686.665 25.2246 686.762C25.415 686.86 25.6203 686.908 25.8403 686.908C26.0688 686.908 26.2762 686.862 26.4624 686.769C26.6486 686.671 26.8073 686.538 26.9385 686.369C27.0697 686.199 27.1691 685.998 27.2368 685.766C27.3045 685.533 27.3384 685.279 27.3384 685.004C27.3384 684.742 27.3045 684.496 27.2368 684.268C27.1733 684.035 27.0781 683.832 26.9512 683.658C26.8242 683.48 26.6655 683.343 26.4751 683.246C26.2889 683.144 26.0731 683.093 25.8276 683.093C25.5229 683.093 25.2458 683.165 24.9961 683.309C24.7507 683.453 24.5518 683.641 24.3994 683.874C24.2513 684.103 24.1709 684.346 24.1582 684.604L23.5742 684.414C23.6081 684.02 23.6948 683.667 23.8345 683.354C23.9784 683.04 24.1667 682.774 24.3994 682.554C24.6322 682.334 24.9009 682.167 25.2056 682.052C25.5145 681.934 25.853 681.875 26.2212 681.875C26.6698 681.875 27.0591 681.959 27.3892 682.128C27.7192 682.298 27.9922 682.528 28.208 682.82C28.4281 683.108 28.591 683.438 28.6968 683.811C28.8068 684.179 28.8618 684.564 28.8618 684.966C28.8618 685.41 28.7941 685.825 28.6587 686.21C28.5233 686.591 28.3244 686.925 28.062 687.213C27.8039 687.501 27.4886 687.725 27.1162 687.886C26.748 688.047 26.3291 688.127 25.8594 688.127C25.3643 688.127 24.922 688.032 24.5327 687.841C24.1476 687.651 23.8197 687.389 23.5488 687.054C23.2822 686.72 23.0791 686.335 22.9395 685.899C22.7998 685.463 22.73 685.002 22.73 684.515V683.88C22.73 683.178 22.8188 682.516 22.9966 681.894C23.1743 681.267 23.4473 680.715 23.8154 680.237C24.1878 679.759 24.6639 679.384 25.2437 679.113C25.8234 678.838 26.5153 678.701 27.3193 678.701ZM36.1108 682.604V684.115C36.1108 684.839 36.0389 685.457 35.895 685.969C35.7554 686.477 35.5522 686.889 35.2856 687.207C35.019 687.524 34.6995 687.757 34.3271 687.905C33.959 688.053 33.5464 688.127 33.0894 688.127C32.7254 688.127 32.3869 688.08 32.0737 687.987C31.7648 687.894 31.4855 687.748 31.2358 687.549C30.9862 687.35 30.7725 687.094 30.5947 686.781C30.4212 686.464 30.2858 686.085 30.1885 685.645C30.0954 685.205 30.0488 684.695 30.0488 684.115V682.604C30.0488 681.877 30.1208 681.263 30.2646 680.764C30.4085 680.26 30.6138 679.852 30.8804 679.539C31.147 679.221 31.4644 678.991 31.8325 678.847C32.2049 678.703 32.6196 678.631 33.0767 678.631C33.4448 678.631 33.7834 678.677 34.0923 678.771C34.4054 678.859 34.6847 679.001 34.9302 679.196C35.1799 679.39 35.3914 679.644 35.5649 679.958C35.7427 680.266 35.8781 680.641 35.9712 681.081C36.0643 681.517 36.1108 682.025 36.1108 682.604ZM34.5811 684.331V682.376C34.5811 682.008 34.5599 681.684 34.5176 681.405C34.4753 681.121 34.4118 680.882 34.3271 680.688C34.2467 680.489 34.1452 680.328 34.0225 680.205C33.8997 680.078 33.7601 679.987 33.6035 679.932C33.4469 679.873 33.2713 679.843 33.0767 679.843C32.8397 679.843 32.6281 679.89 32.4419 679.983C32.2557 680.072 32.0991 680.216 31.9722 680.415C31.8452 680.613 31.7479 680.876 31.6802 681.202C31.6167 681.523 31.585 681.915 31.585 682.376V684.331C31.585 684.703 31.6061 685.031 31.6484 685.315C31.6908 685.598 31.7542 685.842 31.8389 686.045C31.9235 686.244 32.0251 686.409 32.1436 686.54C32.2663 686.667 32.4059 686.76 32.5625 686.819C32.7233 686.879 32.8989 686.908 33.0894 686.908C33.3306 686.908 33.5443 686.862 33.7305 686.769C33.9167 686.675 34.0732 686.527 34.2002 686.324C34.3271 686.117 34.4224 685.848 34.4858 685.518C34.5493 685.188 34.5811 684.792 34.5811 684.331Z" fill="#3A3A3A"/>
<path d="M79.0977 678.726V688H77.5679V680.542L75.3018 681.31V680.046L78.9136 678.726H79.0977ZM83.541 686.794H83.668C84.252 686.794 84.7386 686.718 85.1279 686.565C85.5215 686.409 85.8346 686.193 86.0674 685.918C86.3001 685.643 86.4673 685.319 86.5688 684.947C86.6704 684.574 86.7212 684.17 86.7212 683.734V682.141C86.7212 681.764 86.681 681.434 86.6006 681.151C86.5244 680.863 86.4144 680.624 86.2705 680.434C86.1309 680.239 85.9679 680.093 85.7817 679.996C85.5998 679.898 85.403 679.85 85.1914 679.85C84.9587 679.85 84.7492 679.903 84.563 680.008C84.381 680.11 84.2266 680.252 84.0996 680.434C83.9769 680.611 83.8817 680.821 83.814 681.062C83.7505 681.299 83.7188 681.553 83.7188 681.824C83.7188 682.078 83.7484 682.323 83.8076 682.56C83.8711 682.793 83.9642 683 84.0869 683.182C84.2096 683.364 84.3641 683.508 84.5503 683.614C84.7365 683.72 84.9544 683.772 85.2041 683.772C85.4411 683.772 85.659 683.728 85.8579 683.639C86.0568 683.546 86.2303 683.421 86.3784 683.265C86.5265 683.108 86.6429 682.932 86.7275 682.738C86.8122 682.543 86.8587 682.344 86.8672 682.141L87.4512 682.319C87.4512 682.64 87.3835 682.958 87.248 683.271C87.1169 683.58 86.9328 683.863 86.6958 684.122C86.4631 684.375 86.1901 684.579 85.877 684.731C85.568 684.883 85.2316 684.959 84.8677 684.959C84.4276 684.959 84.0382 684.877 83.6997 684.712C83.3654 684.543 83.0861 684.314 82.8618 684.026C82.6418 683.739 82.4767 683.409 82.3667 683.036C82.2567 682.664 82.2017 682.272 82.2017 681.862C82.2017 681.417 82.2694 681.001 82.4048 680.611C82.5402 680.222 82.737 679.879 82.9951 679.583C83.2533 679.283 83.5664 679.05 83.9346 678.885C84.307 678.715 84.728 678.631 85.1978 678.631C85.6971 678.631 86.1351 678.728 86.5117 678.923C86.8883 679.118 87.2057 679.386 87.4639 679.729C87.722 680.072 87.9167 680.47 88.0479 680.922C88.179 681.375 88.2446 681.862 88.2446 682.382V682.922C88.2446 683.468 88.196 683.995 88.0986 684.502C88.0013 685.006 87.8426 685.474 87.6226 685.905C87.4067 686.333 87.1211 686.709 86.7656 687.035C86.4144 687.357 85.9827 687.609 85.4707 687.791C84.9629 687.968 84.3662 688.057 83.6807 688.057H83.541V686.794ZM95.8364 678.758V679.596L92.1421 688H90.5298L94.2178 679.977H89.4316V678.758H95.8364ZM103.111 682.604V684.115C103.111 684.839 103.039 685.457 102.895 685.969C102.755 686.477 102.552 686.889 102.286 687.207C102.019 687.524 101.7 687.757 101.327 687.905C100.959 688.053 100.546 688.127 100.089 688.127C99.7254 688.127 99.3869 688.08 99.0737 687.987C98.7648 687.894 98.4855 687.748 98.2358 687.549C97.9862 687.35 97.7725 687.094 97.5947 686.781C97.4212 686.464 97.2858 686.085 97.1885 685.645C97.0954 685.205 97.0488 684.695 97.0488 684.115V682.604C97.0488 681.877 97.1208 681.263 97.2646 680.764C97.4085 680.26 97.6138 679.852 97.8804 679.539C98.147 679.221 98.4644 678.991 98.8325 678.847C99.2049 678.703 99.6196 678.631 100.077 678.631C100.445 678.631 100.783 678.677 101.092 678.771C101.405 678.859 101.685 679.001 101.93 679.196C102.18 679.39 102.391 679.644 102.565 679.958C102.743 680.266 102.878 680.641 102.971 681.081C103.064 681.517 103.111 682.025 103.111 682.604ZM101.581 684.331V682.376C101.581 682.008 101.56 681.684 101.518 681.405C101.475 681.121 101.412 680.882 101.327 680.688C101.247 680.489 101.145 680.328 101.022 680.205C100.9 680.078 100.76 679.987 100.604 679.932C100.447 679.873 100.271 679.843 100.077 679.843C99.8397 679.843 99.6281 679.89 99.4419 679.983C99.2557 680.072 99.0991 680.216 98.9722 680.415C98.8452 680.613 98.7479 680.876 98.6802 681.202C98.6167 681.523 98.585 681.915 98.585 682.376V684.331C98.585 684.703 98.6061 685.031 98.6484 685.315C98.6908 685.598 98.7542 685.842 98.8389 686.045C98.9235 686.244 99.0251 686.409 99.1436 686.54C99.2663 686.667 99.4059 686.76 99.5625 686.819C99.7233 686.879 99.8989 686.908 100.089 686.908C100.331 686.908 100.544 686.862 100.73 686.769C100.917 686.675 101.073 686.527 101.2 686.324C101.327 686.117 101.422 685.848 101.486 685.518C101.549 685.188 101.581 684.792 101.581 684.331Z" fill="#3A3A3A"/>
<path d="M151.098 678.726V688H149.568V680.542L147.302 681.31V680.046L150.914 678.726H151.098ZM155.541 686.794H155.668C156.252 686.794 156.739 686.718 157.128 686.565C157.521 686.409 157.835 686.193 158.067 685.918C158.3 685.643 158.467 685.319 158.569 684.947C158.67 684.574 158.721 684.17 158.721 683.734V682.141C158.721 681.764 158.681 681.434 158.601 681.151C158.524 680.863 158.414 680.624 158.271 680.434C158.131 680.239 157.968 680.093 157.782 679.996C157.6 679.898 157.403 679.85 157.191 679.85C156.959 679.85 156.749 679.903 156.563 680.008C156.381 680.11 156.227 680.252 156.1 680.434C155.977 680.611 155.882 680.821 155.814 681.062C155.75 681.299 155.719 681.553 155.719 681.824C155.719 682.078 155.748 682.323 155.808 682.56C155.871 682.793 155.964 683 156.087 683.182C156.21 683.364 156.364 683.508 156.55 683.614C156.736 683.72 156.954 683.772 157.204 683.772C157.441 683.772 157.659 683.728 157.858 683.639C158.057 683.546 158.23 683.421 158.378 683.265C158.527 683.108 158.643 682.932 158.728 682.738C158.812 682.543 158.859 682.344 158.867 682.141L159.451 682.319C159.451 682.64 159.383 682.958 159.248 683.271C159.117 683.58 158.933 683.863 158.696 684.122C158.463 684.375 158.19 684.579 157.877 684.731C157.568 684.883 157.232 684.959 156.868 684.959C156.428 684.959 156.038 684.877 155.7 684.712C155.365 684.543 155.086 684.314 154.862 684.026C154.642 683.739 154.477 683.409 154.367 683.036C154.257 682.664 154.202 682.272 154.202 681.862C154.202 681.417 154.269 681.001 154.405 680.611C154.54 680.222 154.737 679.879 154.995 679.583C155.253 679.283 155.566 679.05 155.935 678.885C156.307 678.715 156.728 678.631 157.198 678.631C157.697 678.631 158.135 678.728 158.512 678.923C158.888 679.118 159.206 679.386 159.464 679.729C159.722 680.072 159.917 680.47 160.048 680.922C160.179 681.375 160.245 681.862 160.245 682.382V682.922C160.245 683.468 160.196 683.995 160.099 684.502C160.001 685.006 159.843 685.474 159.623 685.905C159.407 686.333 159.121 686.709 158.766 687.035C158.414 687.357 157.983 687.609 157.471 687.791C156.963 687.968 156.366 688.057 155.681 688.057H155.541V686.794ZM167.741 685.48C167.741 686.056 167.608 686.54 167.341 686.934C167.075 687.327 166.711 687.625 166.25 687.829C165.792 688.028 165.276 688.127 164.701 688.127C164.125 688.127 163.607 688.028 163.146 687.829C162.684 687.625 162.32 687.327 162.054 686.934C161.787 686.54 161.654 686.056 161.654 685.48C161.654 685.099 161.728 684.754 161.876 684.445C162.024 684.132 162.234 683.863 162.504 683.639C162.779 683.411 163.101 683.235 163.469 683.112C163.842 682.99 164.248 682.928 164.688 682.928C165.272 682.928 165.795 683.036 166.256 683.252C166.717 683.468 167.079 683.766 167.341 684.147C167.608 684.528 167.741 684.972 167.741 685.48ZM166.205 685.404C166.205 685.095 166.142 684.824 166.015 684.591C165.888 684.359 165.71 684.179 165.481 684.052C165.253 683.925 164.988 683.861 164.688 683.861C164.383 683.861 164.119 683.925 163.895 684.052C163.67 684.179 163.495 684.359 163.368 684.591C163.245 684.824 163.184 685.095 163.184 685.404C163.184 685.717 163.245 685.988 163.368 686.216C163.49 686.441 163.666 686.612 163.895 686.73C164.123 686.849 164.392 686.908 164.701 686.908C165.01 686.908 165.276 686.849 165.5 686.73C165.725 686.612 165.898 686.441 166.021 686.216C166.144 685.988 166.205 685.717 166.205 685.404ZM167.532 681.189C167.532 681.65 167.409 682.061 167.164 682.42C166.922 682.78 166.588 683.064 166.161 683.271C165.733 683.474 165.247 683.576 164.701 683.576C164.151 683.576 163.66 683.474 163.228 683.271C162.801 683.064 162.464 682.78 162.219 682.42C161.978 682.061 161.857 681.65 161.857 681.189C161.857 680.639 161.978 680.175 162.219 679.799C162.464 679.418 162.801 679.128 163.228 678.929C163.655 678.73 164.144 678.631 164.694 678.631C165.244 678.631 165.733 678.73 166.161 678.929C166.588 679.128 166.922 679.418 167.164 679.799C167.409 680.175 167.532 680.639 167.532 681.189ZM166.002 681.24C166.002 680.965 165.947 680.723 165.837 680.516C165.731 680.305 165.581 680.139 165.386 680.021C165.192 679.903 164.961 679.843 164.694 679.843C164.428 679.843 164.197 679.9 164.002 680.015C163.808 680.129 163.658 680.29 163.552 680.497C163.446 680.704 163.393 680.952 163.393 681.24C163.393 681.523 163.446 681.771 163.552 681.982C163.658 682.19 163.808 682.353 164.002 682.471C164.201 682.59 164.434 682.649 164.701 682.649C164.967 682.649 165.198 682.59 165.393 682.471C165.587 682.353 165.737 682.19 165.843 681.982C165.949 681.771 166.002 681.523 166.002 681.24ZM175.111 682.604V684.115C175.111 684.839 175.039 685.457 174.895 685.969C174.755 686.477 174.552 686.889 174.286 687.207C174.019 687.524 173.7 687.757 173.327 687.905C172.959 688.053 172.546 688.127 172.089 688.127C171.725 688.127 171.387 688.08 171.074 687.987C170.765 687.894 170.486 687.748 170.236 687.549C169.986 687.35 169.772 687.094 169.595 686.781C169.421 686.464 169.286 686.085 169.188 685.645C169.095 685.205 169.049 684.695 169.049 684.115V682.604C169.049 681.877 169.121 681.263 169.265 680.764C169.409 680.26 169.614 679.852 169.88 679.539C170.147 679.221 170.464 678.991 170.833 678.847C171.205 678.703 171.62 678.631 172.077 678.631C172.445 678.631 172.783 678.677 173.092 678.771C173.405 678.859 173.685 679.001 173.93 679.196C174.18 679.39 174.391 679.644 174.565 679.958C174.743 680.266 174.878 680.641 174.971 681.081C175.064 681.517 175.111 682.025 175.111 682.604ZM173.581 684.331V682.376C173.581 682.008 173.56 681.684 173.518 681.405C173.475 681.121 173.412 680.882 173.327 680.688C173.247 680.489 173.145 680.328 173.022 680.205C172.9 680.078 172.76 679.987 172.604 679.932C172.447 679.873 172.271 679.843 172.077 679.843C171.84 679.843 171.628 679.89 171.442 679.983C171.256 680.072 171.099 680.216 170.972 680.415C170.845 680.613 170.748 680.876 170.68 681.202C170.617 681.523 170.585 681.915 170.585 682.376V684.331C170.585 684.703 170.606 685.031 170.648 685.315C170.691 685.598 170.754 685.842 170.839 686.045C170.924 686.244 171.025 686.409 171.144 686.54C171.266 686.667 171.406 686.76 171.562 686.819C171.723 686.879 171.899 686.908 172.089 686.908C172.331 686.908 172.544 686.862 172.73 686.769C172.917 686.675 173.073 686.527 173.2 686.324C173.327 686.117 173.422 685.848 173.486 685.518C173.549 685.188 173.581 684.792 173.581 684.331Z" fill="#3A3A3A"/>
<path d="M395.098 678.726V688H393.568V680.542L391.302 681.31V680.046L394.914 678.726H395.098ZM399.541 686.794H399.668C400.252 686.794 400.739 686.718 401.128 686.565C401.521 686.409 401.835 686.193 402.067 685.918C402.3 685.643 402.467 685.319 402.569 684.947C402.67 684.574 402.721 684.17 402.721 683.734V682.141C402.721 681.764 402.681 681.434 402.601 681.151C402.524 680.863 402.414 680.624 402.271 680.434C402.131 680.239 401.968 680.093 401.782 679.996C401.6 679.898 401.403 679.85 401.191 679.85C400.959 679.85 400.749 679.903 400.563 680.008C400.381 680.11 400.227 680.252 400.1 680.434C399.977 680.611 399.882 680.821 399.814 681.062C399.75 681.299 399.719 681.553 399.719 681.824C399.719 682.078 399.748 682.323 399.808 682.56C399.871 682.793 399.964 683 400.087 683.182C400.21 683.364 400.364 683.508 400.55 683.614C400.736 683.72 400.954 683.772 401.204 683.772C401.441 683.772 401.659 683.728 401.858 683.639C402.057 683.546 402.23 683.421 402.378 683.265C402.527 683.108 402.643 682.932 402.728 682.738C402.812 682.543 402.859 682.344 402.867 682.141L403.451 682.319C403.451 682.64 403.383 682.958 403.248 683.271C403.117 683.58 402.933 683.863 402.696 684.122C402.463 684.375 402.19 684.579 401.877 684.731C401.568 684.883 401.232 684.959 400.868 684.959C400.428 684.959 400.038 684.877 399.7 684.712C399.365 684.543 399.086 684.314 398.862 684.026C398.642 683.739 398.477 683.409 398.367 683.036C398.257 682.664 398.202 682.272 398.202 681.862C398.202 681.417 398.269 681.001 398.405 680.611C398.54 680.222 398.737 679.879 398.995 679.583C399.253 679.283 399.566 679.05 399.935 678.885C400.307 678.715 400.728 678.631 401.198 678.631C401.697 678.631 402.135 678.728 402.512 678.923C402.888 679.118 403.206 679.386 403.464 679.729C403.722 680.072 403.917 680.47 404.048 680.922C404.179 681.375 404.245 681.862 404.245 682.382V682.922C404.245 683.468 404.196 683.995 404.099 684.502C404.001 685.006 403.843 685.474 403.623 685.905C403.407 686.333 403.121 686.709 402.766 687.035C402.414 687.357 401.983 687.609 401.471 687.791C400.963 687.968 400.366 688.057 399.681 688.057H399.541V686.794ZM406.93 686.794H407.057C407.641 686.794 408.127 686.718 408.517 686.565C408.91 686.409 409.223 686.193 409.456 685.918C409.689 685.643 409.856 685.319 409.958 684.947C410.059 684.574 410.11 684.17 410.11 683.734V682.141C410.11 681.764 410.07 681.434 409.989 681.151C409.913 680.863 409.803 680.624 409.659 680.434C409.52 680.239 409.357 680.093 409.17 679.996C408.988 679.898 408.792 679.85 408.58 679.85C408.347 679.85 408.138 679.903 407.952 680.008C407.77 680.11 407.615 680.252 407.488 680.434C407.366 680.611 407.27 680.821 407.203 681.062C407.139 681.299 407.107 681.553 407.107 681.824C407.107 682.078 407.137 682.323 407.196 682.56C407.26 682.793 407.353 683 407.476 683.182C407.598 683.364 407.753 683.508 407.939 683.614C408.125 683.72 408.343 683.772 408.593 683.772C408.83 683.772 409.048 683.728 409.247 683.639C409.445 683.546 409.619 683.421 409.767 683.265C409.915 683.108 410.032 682.932 410.116 682.738C410.201 682.543 410.247 682.344 410.256 682.141L410.84 682.319C410.84 682.64 410.772 682.958 410.637 683.271C410.506 683.58 410.321 683.863 410.084 684.122C409.852 684.375 409.579 684.579 409.266 684.731C408.957 684.883 408.62 684.959 408.256 684.959C407.816 684.959 407.427 684.877 407.088 684.712C406.754 684.543 406.475 684.314 406.25 684.026C406.03 683.739 405.865 683.409 405.755 683.036C405.645 682.664 405.59 682.272 405.59 681.862C405.59 681.417 405.658 681.001 405.793 680.611C405.929 680.222 406.126 679.879 406.384 679.583C406.642 679.283 406.955 679.05 407.323 678.885C407.696 678.715 408.117 678.631 408.586 678.631C409.086 678.631 409.524 678.728 409.9 678.923C410.277 679.118 410.594 679.386 410.853 679.729C411.111 680.072 411.305 680.47 411.437 680.922C411.568 681.375 411.633 681.862 411.633 682.382V682.922C411.633 683.468 411.585 683.995 411.487 684.502C411.39 685.006 411.231 685.474 411.011 685.905C410.795 686.333 410.51 686.709 410.154 687.035C409.803 687.357 409.371 687.609 408.859 687.791C408.352 687.968 407.755 688.057 407.069 688.057H406.93V686.794ZM419.111 682.604V684.115C419.111 684.839 419.039 685.457 418.895 685.969C418.755 686.477 418.552 686.889 418.286 687.207C418.019 687.524 417.7 687.757 417.327 687.905C416.959 688.053 416.546 688.127 416.089 688.127C415.725 688.127 415.387 688.08 415.074 687.987C414.765 687.894 414.486 687.748 414.236 687.549C413.986 687.35 413.772 687.094 413.595 686.781C413.421 686.464 413.286 686.085 413.188 685.645C413.095 685.205 413.049 684.695 413.049 684.115V682.604C413.049 681.877 413.121 681.263 413.265 680.764C413.409 680.26 413.614 679.852 413.88 679.539C414.147 679.221 414.464 678.991 414.833 678.847C415.205 678.703 415.62 678.631 416.077 678.631C416.445 678.631 416.783 678.677 417.092 678.771C417.405 678.859 417.685 679.001 417.93 679.196C418.18 679.39 418.391 679.644 418.565 679.958C418.743 680.266 418.878 680.641 418.971 681.081C419.064 681.517 419.111 682.025 419.111 682.604ZM417.581 684.331V682.376C417.581 682.008 417.56 681.684 417.518 681.405C417.475 681.121 417.412 680.882 417.327 680.688C417.247 680.489 417.145 680.328 417.022 680.205C416.9 680.078 416.76 679.987 416.604 679.932C416.447 679.873 416.271 679.843 416.077 679.843C415.84 679.843 415.628 679.89 415.442 679.983C415.256 680.072 415.099 680.216 414.972 680.415C414.845 680.613 414.748 680.876 414.68 681.202C414.617 681.523 414.585 681.915 414.585 682.376V684.331C414.585 684.703 414.606 685.031 414.648 685.315C414.691 685.598 414.754 685.842 414.839 686.045C414.924 686.244 415.025 686.409 415.144 686.54C415.266 686.667 415.406 686.76 415.562 686.819C415.723 686.879 415.899 686.908 416.089 686.908C416.331 686.908 416.544 686.862 416.73 686.769C416.917 686.675 417.073 686.527 417.2 686.324C417.327 686.117 417.422 685.848 417.486 685.518C417.549 685.188 417.581 684.792 417.581 684.331Z" fill="#3A3A3A"/>
<path d="M796.116 686.781V688H789.921V686.953L792.93 683.671C793.26 683.299 793.52 682.977 793.71 682.706C793.901 682.435 794.034 682.192 794.11 681.976C794.191 681.756 794.231 681.542 794.231 681.335C794.231 681.043 794.176 680.787 794.066 680.567C793.96 680.343 793.804 680.167 793.596 680.04C793.389 679.909 793.137 679.843 792.841 679.843C792.498 679.843 792.21 679.917 791.978 680.065C791.745 680.214 791.569 680.419 791.451 680.681C791.332 680.939 791.273 681.236 791.273 681.57H789.743C789.743 681.032 789.866 680.542 790.111 680.097C790.357 679.649 790.712 679.293 791.178 679.031C791.643 678.764 792.204 678.631 792.86 678.631C793.478 678.631 794.002 678.735 794.434 678.942C794.866 679.149 795.194 679.443 795.418 679.824C795.646 680.205 795.761 680.656 795.761 681.176C795.761 681.464 795.714 681.75 795.621 682.033C795.528 682.317 795.395 682.6 795.221 682.884C795.052 683.163 794.851 683.444 794.618 683.728C794.385 684.007 794.129 684.291 793.85 684.579L791.851 686.781H796.116ZM803.333 682.604V684.115C803.333 684.839 803.262 685.457 803.118 685.969C802.978 686.477 802.775 686.889 802.508 687.207C802.242 687.524 801.922 687.757 801.55 687.905C801.182 688.053 800.769 688.127 800.312 688.127C799.948 688.127 799.61 688.08 799.296 687.987C798.987 687.894 798.708 687.748 798.458 687.549C798.209 687.35 797.995 687.094 797.817 686.781C797.644 686.464 797.508 686.085 797.411 685.645C797.318 685.205 797.271 684.695 797.271 684.115V682.604C797.271 681.877 797.343 681.263 797.487 680.764C797.631 680.26 797.836 679.852 798.103 679.539C798.37 679.221 798.687 678.991 799.055 678.847C799.428 678.703 799.842 678.631 800.299 678.631C800.667 678.631 801.006 678.677 801.315 678.771C801.628 678.859 801.907 679.001 802.153 679.196C802.403 679.39 802.614 679.644 802.788 679.958C802.965 680.266 803.101 680.641 803.194 681.081C803.287 681.517 803.333 682.025 803.333 682.604ZM801.804 684.331V682.376C801.804 682.008 801.783 681.684 801.74 681.405C801.698 681.121 801.634 680.882 801.55 680.688C801.469 680.489 801.368 680.328 801.245 680.205C801.122 680.078 800.983 679.987 800.826 679.932C800.67 679.873 800.494 679.843 800.299 679.843C800.062 679.843 799.851 679.89 799.665 679.983C799.478 680.072 799.322 680.216 799.195 680.415C799.068 680.613 798.971 680.876 798.903 681.202C798.839 681.523 798.808 681.915 798.808 682.376V684.331C798.808 684.703 798.829 685.031 798.871 685.315C798.913 685.598 798.977 685.842 799.062 686.045C799.146 686.244 799.248 686.409 799.366 686.54C799.489 686.667 799.629 686.76 799.785 686.819C799.946 686.879 800.122 686.908 800.312 686.908C800.553 686.908 800.767 686.862 800.953 686.769C801.139 686.675 801.296 686.527 801.423 686.324C801.55 686.117 801.645 685.848 801.708 685.518C801.772 685.188 801.804 684.792 801.804 684.331ZM810.722 682.604V684.115C810.722 684.839 810.65 685.457 810.506 685.969C810.367 686.477 810.164 686.889 809.897 687.207C809.63 687.524 809.311 687.757 808.938 687.905C808.57 688.053 808.158 688.127 807.701 688.127C807.337 688.127 806.998 688.08 806.685 687.987C806.376 687.894 806.097 687.748 805.847 687.549C805.597 687.35 805.384 687.094 805.206 686.781C805.033 686.464 804.897 686.085 804.8 685.645C804.707 685.205 804.66 684.695 804.66 684.115V682.604C804.66 681.877 804.732 681.263 804.876 680.764C805.02 680.26 805.225 679.852 805.492 679.539C805.758 679.221 806.076 678.991 806.444 678.847C806.816 678.703 807.231 678.631 807.688 678.631C808.056 678.631 808.395 678.677 808.704 678.771C809.017 678.859 809.296 679.001 809.542 679.196C809.791 679.39 810.003 679.644 810.176 679.958C810.354 680.266 810.489 680.641 810.583 681.081C810.676 681.517 810.722 682.025 810.722 682.604ZM809.192 684.331V682.376C809.192 682.008 809.171 681.684 809.129 681.405C809.087 681.121 809.023 680.882 808.938 680.688C808.858 680.489 808.757 680.328 808.634 680.205C808.511 680.078 808.371 679.987 808.215 679.932C808.058 679.873 807.883 679.843 807.688 679.843C807.451 679.843 807.239 679.89 807.053 679.983C806.867 680.072 806.71 680.216 806.583 680.415C806.457 680.613 806.359 680.876 806.292 681.202C806.228 681.523 806.196 681.915 806.196 682.376V684.331C806.196 684.703 806.217 685.031 806.26 685.315C806.302 685.598 806.366 685.842 806.45 686.045C806.535 686.244 806.636 686.409 806.755 686.54C806.878 686.667 807.017 686.76 807.174 686.819C807.335 686.879 807.51 686.908 807.701 686.908C807.942 686.908 808.156 686.862 808.342 686.769C808.528 686.675 808.685 686.527 808.812 686.324C808.938 686.117 809.034 685.848 809.097 685.518C809.161 685.188 809.192 684.792 809.192 684.331ZM818.111 682.604V684.115C818.111 684.839 818.039 685.457 817.895 685.969C817.755 686.477 817.552 686.889 817.286 687.207C817.019 687.524 816.7 687.757 816.327 687.905C815.959 688.053 815.546 688.127 815.089 688.127C814.725 688.127 814.387 688.08 814.074 687.987C813.765 687.894 813.486 687.748 813.236 687.549C812.986 687.35 812.772 687.094 812.595 686.781C812.421 686.464 812.286 686.085 812.188 685.645C812.095 685.205 812.049 684.695 812.049 684.115V682.604C812.049 681.877 812.121 681.263 812.265 680.764C812.409 680.26 812.614 679.852 812.88 679.539C813.147 679.221 813.464 678.991 813.833 678.847C814.205 678.703 814.62 678.631 815.077 678.631C815.445 678.631 815.783 678.677 816.092 678.771C816.405 678.859 816.685 679.001 816.93 679.196C817.18 679.39 817.391 679.644 817.565 679.958C817.743 680.266 817.878 680.641 817.971 681.081C818.064 681.517 818.111 682.025 818.111 682.604ZM816.581 684.331V682.376C816.581 682.008 816.56 681.684 816.518 681.405C816.475 681.121 816.412 680.882 816.327 680.688C816.247 680.489 816.145 680.328 816.022 680.205C815.9 680.078 815.76 679.987 815.604 679.932C815.447 679.873 815.271 679.843 815.077 679.843C814.84 679.843 814.628 679.89 814.442 679.983C814.256 680.072 814.099 680.216 813.972 680.415C813.845 680.613 813.748 680.876 813.68 681.202C813.617 681.523 813.585 681.915 813.585 682.376V684.331C813.585 684.703 813.606 685.031 813.648 685.315C813.691 685.598 813.754 685.842 813.839 686.045C813.924 686.244 814.025 686.409 814.144 686.54C814.266 686.667 814.406 686.76 814.562 686.819C814.723 686.879 814.899 686.908 815.089 686.908C815.331 686.908 815.544 686.862 815.73 686.769C815.917 686.675 816.073 686.527 816.2 686.324C816.327 686.117 816.422 685.848 816.486 685.518C816.549 685.188 816.581 684.792 816.581 684.331Z" fill="#3A3A3A"/>
<path d="M1494.12 686.781V688H1487.92V686.953L1490.93 683.671C1491.26 683.299 1491.52 682.977 1491.71 682.706C1491.9 682.435 1492.03 682.192 1492.11 681.976C1492.19 681.756 1492.23 681.542 1492.23 681.335C1492.23 681.043 1492.18 680.787 1492.07 680.567C1491.96 680.343 1491.8 680.167 1491.6 680.04C1491.39 679.909 1491.14 679.843 1490.84 679.843C1490.5 679.843 1490.21 679.917 1489.98 680.065C1489.74 680.214 1489.57 680.419 1489.45 680.681C1489.33 680.939 1489.27 681.236 1489.27 681.57H1487.74C1487.74 681.032 1487.87 680.542 1488.11 680.097C1488.36 679.649 1488.71 679.293 1489.18 679.031C1489.64 678.764 1490.2 678.631 1490.86 678.631C1491.48 678.631 1492 678.735 1492.43 678.942C1492.87 679.149 1493.19 679.443 1493.42 679.824C1493.65 680.205 1493.76 680.656 1493.76 681.176C1493.76 681.464 1493.71 681.75 1493.62 682.033C1493.53 682.317 1493.39 682.6 1493.22 682.884C1493.05 683.163 1492.85 683.444 1492.62 683.728C1492.39 684.007 1492.13 684.291 1491.85 684.579L1489.85 686.781H1494.12ZM1501.33 682.604V684.115C1501.33 684.839 1501.26 685.457 1501.12 685.969C1500.98 686.477 1500.77 686.889 1500.51 687.207C1500.24 687.524 1499.92 687.757 1499.55 687.905C1499.18 688.053 1498.77 688.127 1498.31 688.127C1497.95 688.127 1497.61 688.08 1497.3 687.987C1496.99 687.894 1496.71 687.748 1496.46 687.549C1496.21 687.35 1496 687.094 1495.82 686.781C1495.64 686.464 1495.51 686.085 1495.41 685.645C1495.32 685.205 1495.27 684.695 1495.27 684.115V682.604C1495.27 681.877 1495.34 681.263 1495.49 680.764C1495.63 680.26 1495.84 679.852 1496.1 679.539C1496.37 679.221 1496.69 678.991 1497.06 678.847C1497.43 678.703 1497.84 678.631 1498.3 678.631C1498.67 678.631 1499.01 678.677 1499.31 678.771C1499.63 678.859 1499.91 679.001 1500.15 679.196C1500.4 679.39 1500.61 679.644 1500.79 679.958C1500.97 680.266 1501.1 680.641 1501.19 681.081C1501.29 681.517 1501.33 682.025 1501.33 682.604ZM1499.8 684.331V682.376C1499.8 682.008 1499.78 681.684 1499.74 681.405C1499.7 681.121 1499.63 680.882 1499.55 680.688C1499.47 680.489 1499.37 680.328 1499.25 680.205C1499.12 680.078 1498.98 679.987 1498.83 679.932C1498.67 679.873 1498.49 679.843 1498.3 679.843C1498.06 679.843 1497.85 679.89 1497.66 679.983C1497.48 680.072 1497.32 680.216 1497.19 680.415C1497.07 680.613 1496.97 680.876 1496.9 681.202C1496.84 681.523 1496.81 681.915 1496.81 682.376V684.331C1496.81 684.703 1496.83 685.031 1496.87 685.315C1496.91 685.598 1496.98 685.842 1497.06 686.045C1497.15 686.244 1497.25 686.409 1497.37 686.54C1497.49 686.667 1497.63 686.76 1497.79 686.819C1497.95 686.879 1498.12 686.908 1498.31 686.908C1498.55 686.908 1498.77 686.862 1498.95 686.769C1499.14 686.675 1499.3 686.527 1499.42 686.324C1499.55 686.117 1499.65 685.848 1499.71 685.518C1499.77 685.188 1499.8 684.792 1499.8 684.331ZM1506.88 678.726V688H1505.35V680.542L1503.08 681.31V680.046L1506.69 678.726H1506.88ZM1516.11 682.604V684.115C1516.11 684.839 1516.04 685.457 1515.9 685.969C1515.76 686.477 1515.55 686.889 1515.29 687.207C1515.02 687.524 1514.7 687.757 1514.33 687.905C1513.96 688.053 1513.55 688.127 1513.09 688.127C1512.73 688.127 1512.39 688.08 1512.07 687.987C1511.76 687.894 1511.49 687.748 1511.24 687.549C1510.99 687.35 1510.77 687.094 1510.59 686.781C1510.42 686.464 1510.29 686.085 1510.19 685.645C1510.1 685.205 1510.05 684.695 1510.05 684.115V682.604C1510.05 681.877 1510.12 681.263 1510.26 680.764C1510.41 680.26 1510.61 679.852 1510.88 679.539C1511.15 679.221 1511.46 678.991 1511.83 678.847C1512.2 678.703 1512.62 678.631 1513.08 678.631C1513.44 678.631 1513.78 678.677 1514.09 678.771C1514.41 678.859 1514.68 679.001 1514.93 679.196C1515.18 679.39 1515.39 679.644 1515.56 679.958C1515.74 680.266 1515.88 680.641 1515.97 681.081C1516.06 681.517 1516.11 682.025 1516.11 682.604ZM1514.58 684.331V682.376C1514.58 682.008 1514.56 681.684 1514.52 681.405C1514.48 681.121 1514.41 680.882 1514.33 680.688C1514.25 680.489 1514.15 680.328 1514.02 680.205C1513.9 680.078 1513.76 679.987 1513.6 679.932C1513.45 679.873 1513.27 679.843 1513.08 679.843C1512.84 679.843 1512.63 679.89 1512.44 679.983C1512.26 680.072 1512.1 680.216 1511.97 680.415C1511.85 680.613 1511.75 680.876 1511.68 681.202C1511.62 681.523 1511.58 681.915 1511.58 682.376V684.331C1511.58 684.703 1511.61 685.031 1511.65 685.315C1511.69 685.598 1511.75 685.842 1511.84 686.045C1511.92 686.244 1512.03 686.409 1512.14 686.54C1512.27 686.667 1512.41 686.76 1512.56 686.819C1512.72 686.879 1512.9 686.908 1513.09 686.908C1513.33 686.908 1513.54 686.862 1513.73 686.769C1513.92 686.675 1514.07 686.527 1514.2 686.324C1514.33 686.117 1514.42 685.848 1514.49 685.518C1514.55 685.188 1514.58 684.792 1514.58 684.331Z" fill="#3A3A3A"/>
<path d="M3097.12 686.781V688H3090.92V686.953L3093.93 683.671C3094.26 683.299 3094.52 682.977 3094.71 682.706C3094.9 682.435 3095.03 682.192 3095.11 681.976C3095.19 681.756 3095.23 681.542 3095.23 681.335C3095.23 681.043 3095.18 680.787 3095.07 680.567C3094.96 680.343 3094.8 680.167 3094.6 680.04C3094.39 679.909 3094.14 679.843 3093.84 679.843C3093.5 679.843 3093.21 679.917 3092.98 680.065C3092.74 680.214 3092.57 680.419 3092.45 680.681C3092.33 680.939 3092.27 681.236 3092.27 681.57H3090.74C3090.74 681.032 3090.87 680.542 3091.11 680.097C3091.36 679.649 3091.71 679.293 3092.18 679.031C3092.64 678.764 3093.2 678.631 3093.86 678.631C3094.48 678.631 3095 678.735 3095.43 678.942C3095.87 679.149 3096.19 679.443 3096.42 679.824C3096.65 680.205 3096.76 680.656 3096.76 681.176C3096.76 681.464 3096.71 681.75 3096.62 682.033C3096.53 682.317 3096.39 682.6 3096.22 682.884C3096.05 683.163 3095.85 683.444 3095.62 683.728C3095.39 684.007 3095.13 684.291 3094.85 684.579L3092.85 686.781H3097.12ZM3104.33 682.604V684.115C3104.33 684.839 3104.26 685.457 3104.12 685.969C3103.98 686.477 3103.77 686.889 3103.51 687.207C3103.24 687.524 3102.92 687.757 3102.55 687.905C3102.18 688.053 3101.77 688.127 3101.31 688.127C3100.95 688.127 3100.61 688.08 3100.3 687.987C3099.99 687.894 3099.71 687.748 3099.46 687.549C3099.21 687.35 3099 687.094 3098.82 686.781C3098.64 686.464 3098.51 686.085 3098.41 685.645C3098.32 685.205 3098.27 684.695 3098.27 684.115V682.604C3098.27 681.877 3098.34 681.263 3098.49 680.764C3098.63 680.26 3098.84 679.852 3099.1 679.539C3099.37 679.221 3099.69 678.991 3100.06 678.847C3100.43 678.703 3100.84 678.631 3101.3 678.631C3101.67 678.631 3102.01 678.677 3102.31 678.771C3102.63 678.859 3102.91 679.001 3103.15 679.196C3103.4 679.39 3103.61 679.644 3103.79 679.958C3103.97 680.266 3104.1 680.641 3104.19 681.081C3104.29 681.517 3104.33 682.025 3104.33 682.604ZM3102.8 684.331V682.376C3102.8 682.008 3102.78 681.684 3102.74 681.405C3102.7 681.121 3102.63 680.882 3102.55 680.688C3102.47 680.489 3102.37 680.328 3102.25 680.205C3102.12 680.078 3101.98 679.987 3101.83 679.932C3101.67 679.873 3101.49 679.843 3101.3 679.843C3101.06 679.843 3100.85 679.89 3100.66 679.983C3100.48 680.072 3100.32 680.216 3100.19 680.415C3100.07 680.613 3099.97 680.876 3099.9 681.202C3099.84 681.523 3099.81 681.915 3099.81 682.376V684.331C3099.81 684.703 3099.83 685.031 3099.87 685.315C3099.91 685.598 3099.98 685.842 3100.06 686.045C3100.15 686.244 3100.25 686.409 3100.37 686.54C3100.49 686.667 3100.63 686.76 3100.79 686.819C3100.95 686.879 3101.12 686.908 3101.31 686.908C3101.55 686.908 3101.77 686.862 3101.95 686.769C3102.14 686.675 3102.3 686.527 3102.42 686.324C3102.55 686.117 3102.65 685.848 3102.71 685.518C3102.77 685.188 3102.8 684.792 3102.8 684.331ZM3111.89 686.781V688H3105.7V686.953L3108.71 683.671C3109.04 683.299 3109.3 682.977 3109.49 682.706C3109.68 682.435 3109.81 682.192 3109.89 681.976C3109.97 681.756 3110.01 681.542 3110.01 681.335C3110.01 681.043 3109.95 680.787 3109.84 680.567C3109.74 680.343 3109.58 680.167 3109.37 680.04C3109.17 679.909 3108.91 679.843 3108.62 679.843C3108.28 679.843 3107.99 679.917 3107.75 680.065C3107.52 680.214 3107.35 680.419 3107.23 680.681C3107.11 680.939 3107.05 681.236 3107.05 681.57H3105.52C3105.52 681.032 3105.64 680.542 3105.89 680.097C3106.13 679.649 3106.49 679.293 3106.96 679.031C3107.42 678.764 3107.98 678.631 3108.64 678.631C3109.26 678.631 3109.78 678.735 3110.21 678.942C3110.64 679.149 3110.97 679.443 3111.2 679.824C3111.42 680.205 3111.54 680.656 3111.54 681.176C3111.54 681.464 3111.49 681.75 3111.4 682.033C3111.31 682.317 3111.17 682.6 3111 682.884C3110.83 683.163 3110.63 683.444 3110.4 683.728C3110.16 684.007 3109.91 684.291 3109.63 684.579L3107.63 686.781H3111.89ZM3119.11 682.604V684.115C3119.11 684.839 3119.04 685.457 3118.9 685.969C3118.76 686.477 3118.55 686.889 3118.29 687.207C3118.02 687.524 3117.7 687.757 3117.33 687.905C3116.96 688.053 3116.55 688.127 3116.09 688.127C3115.73 688.127 3115.39 688.08 3115.07 687.987C3114.76 687.894 3114.49 687.748 3114.24 687.549C3113.99 687.35 3113.77 687.094 3113.59 686.781C3113.42 686.464 3113.29 686.085 3113.19 685.645C3113.1 685.205 3113.05 684.695 3113.05 684.115V682.604C3113.05 681.877 3113.12 681.263 3113.26 680.764C3113.41 680.26 3113.61 679.852 3113.88 679.539C3114.15 679.221 3114.46 678.991 3114.83 678.847C3115.2 678.703 3115.62 678.631 3116.08 678.631C3116.44 678.631 3116.78 678.677 3117.09 678.771C3117.41 678.859 3117.68 679.001 3117.93 679.196C3118.18 679.39 3118.39 679.644 3118.56 679.958C3118.74 680.266 3118.88 680.641 3118.97 681.081C3119.06 681.517 3119.11 682.025 3119.11 682.604ZM3117.58 684.331V682.376C3117.58 682.008 3117.56 681.684 3117.52 681.405C3117.48 681.121 3117.41 680.882 3117.33 680.688C3117.25 680.489 3117.15 680.328 3117.02 680.205C3116.9 680.078 3116.76 679.987 3116.6 679.932C3116.45 679.873 3116.27 679.843 3116.08 679.843C3115.84 679.843 3115.63 679.89 3115.44 679.983C3115.26 680.072 3115.1 680.216 3114.97 680.415C3114.85 680.613 3114.75 680.876 3114.68 681.202C3114.62 681.523 3114.58 681.915 3114.58 682.376V684.331C3114.58 684.703 3114.61 685.031 3114.65 685.315C3114.69 685.598 3114.75 685.842 3114.84 686.045C3114.92 686.244 3115.03 686.409 3115.14 686.54C3115.27 686.667 3115.41 686.76 3115.56 686.819C3115.72 686.879 3115.9 686.908 3116.09 686.908C3116.33 686.908 3116.54 686.862 3116.73 686.769C3116.92 686.675 3117.07 686.527 3117.2 686.324C3117.33 686.117 3117.42 685.848 3117.49 685.518C3117.55 685.188 3117.58 684.792 3117.58 684.331Z" fill="#3A3A3A"/>
<line x1="21" y1="672" x2="21" y2="4.00445e-08" stroke="#F7B289" stroke-width="2" stroke-dasharray="2 2"/>
<line x1="84" y1="672" x2="84" y2="4.00445e-08" stroke="#F7B289" stroke-width="2" stroke-dasharray="2 2"/>
<line x1="165" y1="672" x2="165" y2="4.00445e-08" stroke="#F7B289" stroke-width="2" stroke-dasharray="2 2"/>
<line x1="405" y1="672" x2="405" y2="4.00445e-08" stroke="#F7B289" stroke-width="2" stroke-dasharray="2 2"/>
<line x1="804" y1="672" x2="804" y2="4.00445e-08" stroke="#F7B289" stroke-width="2" stroke-dasharray="2 2"/>
<line x1="1501" y1="672" x2="1501" y2="4.00445e-08" stroke="#F7B289" stroke-width="2" stroke-dasharray="2 2"/>
<line x1="3104" y1="672" x2="3104" y2="4.00445e-08" stroke="#F7B289" stroke-width="2" stroke-dasharray="2 2"/>
<path d="M52.9428 339.989C52.9428 342.189 51.0946 344.3 48.8857 343.965C47.6235 343.77 45 342.295 45 340.095C45 337.896 46.6499 335.882 48.8857 336.005C53.7993 336.288 52.9428 339.088 52.9428 339.989Z" fill="#F7B289"/>
<path d="M159.943 301.989C159.943 304.189 158.095 306.3 155.886 305.965C154.624 305.77 152 304.295 152 302.095C152 299.896 153.65 297.882 155.886 298.005C160.799 298.288 159.943 301.088 159.943 301.989Z" fill="#F67C87"/>
<path d="M322.943 283.989C322.943 286.189 321.095 288.3 318.886 287.965C317.624 287.77 315 286.295 315 284.095C315 281.896 316.65 279.882 318.886 280.005C323.799 280.288 322.943 283.088 322.943 283.989Z" fill="#F67C87"/>
<path d="M756.943 208.989C756.943 211.189 755.095 213.3 752.886 212.965C751.624 212.77 749 211.295 749 209.095C749 206.896 750.65 204.882 752.886 205.005C757.799 205.288 756.943 208.088 756.943 208.989Z" fill="#F67C87"/>
<path d="M650.943 221.989C650.943 224.189 649.095 226.3 646.886 225.965C645.624 225.77 643 224.295 643 222.095C643 219.896 644.65 217.882 646.886 218.005C651.799 218.288 650.943 221.088 650.943 221.989Z" fill="#F67C87"/>
<path d="M939.943 278.989C939.943 281.189 938.095 283.3 935.886 282.965C934.624 282.77 932 281.295 932 279.095C932 276.896 933.65 274.882 935.886 275.005C940.799 275.288 939.943 278.088 939.943 278.989Z" fill="#F67C87"/>
<path d="M808.943 239.989C808.943 242.189 807.095 244.3 804.886 243.965C803.624 243.77 801 242.295 801 240.095C801 237.896 802.65 235.882 804.886 236.005C809.799 236.288 808.943 239.088 808.943 239.989Z" fill="#F67C87"/>
<path d="M868.943 269.989C868.943 272.189 867.095 274.3 864.886 273.965C863.624 273.77 861 272.295 861 270.095C861 267.896 862.65 265.882 864.886 266.005C869.799 266.288 868.943 269.088 868.943 269.989Z" fill="#F67C87"/>
<path d="M1008.94 275.989C1008.94 278.189 1007.09 280.3 1004.89 279.965C1003.62 279.77 1001 278.295 1001 276.095C1001 273.896 1002.65 271.882 1004.89 272.005C1009.8 272.288 1008.94 275.088 1008.94 275.989Z" fill="#F67C87"/>
<path d="M1083.94 259.989C1083.94 262.189 1082.09 264.3 1079.89 263.965C1078.62 263.77 1076 262.295 1076 260.095C1076 257.896 1077.65 255.882 1079.89 256.005C1084.8 256.288 1083.94 259.088 1083.94 259.989Z" fill="#F67C87"/>
<path d="M1286.94 247.989C1286.94 250.189 1285.09 252.3 1282.89 251.965C1281.62 251.77 1279 250.295 1279 248.095C1279 245.896 1280.65 243.882 1282.89 244.005C1287.8 244.288 1286.94 247.088 1286.94 247.989Z" fill="#F67C87"/>
<path d="M1424.94 267.989C1424.94 270.189 1423.09 272.3 1420.89 271.965C1419.62 271.77 1417 270.295 1417 268.095C1417 265.896 1418.65 263.882 1420.89 264.005C1425.8 264.288 1424.94 267.088 1424.94 267.989Z" fill="#F67C87"/>
<path d="M202.943 294.989C202.943 297.189 201.095 299.3 198.886 298.965C197.624 298.77 195 297.295 195 295.095C195 292.896 196.65 290.882 198.886 291.005C203.799 291.288 202.943 294.088 202.943 294.989Z" fill="#F67C87"/>
<path d="M513.878 285.478C513.878 290.152 509.951 294.638 505.257 293.925C502.575 293.512 497 290.377 497 285.703C497 281.029 500.506 276.749 505.257 277.012C514.539 277.545 514.131 282.307 513.926 284.703C513.901 285.002 513.878 285.265 513.878 285.478Z" fill="#F67C87"/>
<path d="M513.878 285.478C513.878 290.152 509.951 294.638 505.257 293.925C502.575 293.512 497 290.377 497 285.703C497 281.029 500.506 276.749 505.257 277.012C514.539 277.545 514.131 282.307 513.926 284.703C513.901 285.002 513.878 285.265 513.878 285.478Z" stroke="#3A3A3A"/>
<path d="M229.878 292.478C229.878 297.152 225.951 301.638 221.257 300.925C218.575 300.512 213 297.377 213 292.703C213 288.029 216.506 283.749 221.257 284.012C230.539 284.545 230.131 289.307 229.926 291.703C229.901 292.002 229.878 292.265 229.878 292.478Z" fill="#F7B289"/>
<path d="M229.878 292.478C229.878 297.152 225.951 301.638 221.257 300.925C218.575 300.512 213 297.377 213 292.703C213 288.029 216.506 283.749 221.257 284.012C230.539 284.545 230.131 289.307 229.926 291.703C229.901 292.002 229.878 292.265 229.878 292.478Z" stroke="#3A3A3A"/>
<path d="M369.878 280.478C369.878 285.152 365.951 289.638 361.257 288.925C358.575 288.512 353 285.377 353 280.703C353 276.029 356.506 271.749 361.257 272.012C370.539 272.545 370.131 277.307 369.926 279.703C369.901 280.002 369.878 280.265 369.878 280.478Z" fill="#F7B289"/>
<path d="M369.878 280.478C369.878 285.152 365.951 289.638 361.257 288.925C358.575 288.512 353 285.377 353 280.703C353 276.029 356.506 271.749 361.257 272.012C370.539 272.545 370.131 277.307 369.926 279.703C369.901 280.002 369.878 280.265 369.878 280.478Z" stroke="#3A3A3A"/>
<path d="M250.943 290.989C250.943 293.189 249.095 295.3 246.886 294.965C245.624 294.77 243 293.295 243 291.095C243 288.896 244.65 286.882 246.886 287.005C251.799 287.288 250.943 290.088 250.943 290.989Z" fill="#F67C87"/>
<path d="M1345.94 254.989C1345.94 257.189 1344.09 259.3 1341.89 258.965C1340.62 258.77 1338 257.295 1338 255.095C1338 252.896 1339.65 250.882 1341.89 251.005C1346.8 251.288 1345.94 254.088 1345.94 254.989Z" fill="#F7B289"/>
<path d="M437.943 280.989C437.943 283.189 436.095 285.3 433.886 284.965C432.624 284.77 430 283.295 430 281.095C430 278.896 431.65 276.882 433.886 277.005C438.799 277.288 437.943 280.088 437.943 280.989Z" fill="#F7B289"/>
<path d="M472.943 281.989C472.943 284.189 471.095 286.3 468.886 285.965C467.624 285.77 465 284.295 465 282.095C465 279.896 466.65 277.882 468.886 278.005C473.799 278.288 472.943 281.088 472.943 281.989Z" fill="#F7B289"/>
<path d="M583.943 301.989C583.943 304.189 582.095 306.3 579.886 305.965C578.624 305.77 576 304.295 576 302.095C576 299.896 577.65 297.882 579.886 298.005C584.799 298.288 583.943 301.088 583.943 301.989Z" fill="#F7B289"/>
<path d="M407.943 280.989C407.943 283.189 406.095 285.3 403.886 284.965C402.624 284.77 400 283.295 400 281.095C400 278.896 401.65 276.882 403.886 277.005C408.799 277.288 407.943 280.088 407.943 280.989Z" fill="#F7B289"/>
<path d="M1621.94 309.989C1621.94 312.189 1620.09 314.3 1617.89 313.965C1616.62 313.77 1614 312.295 1614 310.095C1614 307.896 1615.65 305.882 1617.89 306.005C1622.8 306.288 1621.94 309.088 1621.94 309.989Z" fill="#F67C87"/>
<path d="M1805.94 353.989C1805.94 356.189 1804.09 358.3 1801.89 357.965C1800.62 357.77 1798 356.295 1798 354.095C1798 351.896 1799.65 349.882 1801.89 350.005C1806.8 350.288 1805.94 353.088 1805.94 353.989Z" fill="#F67C87"/>
<path d="M1908.94 360.989C1908.94 363.189 1907.09 365.3 1904.89 364.965C1903.62 364.77 1901 363.295 1901 361.095C1901 358.896 1902.65 356.882 1904.89 357.005C1909.8 357.288 1908.94 360.088 1908.94 360.989Z" fill="#F67C87"/>
<path d="M2044.94 274.989C2044.94 277.189 2043.09 279.3 2040.89 278.965C2039.62 278.77 2037 277.295 2037 275.095C2037 272.896 2038.65 270.882 2040.89 271.005C2045.8 271.288 2044.94 274.088 2044.94 274.989Z" fill="#F67C87"/>
<path d="M2180.94 290.989C2180.94 293.189 2179.09 295.3 2176.89 294.965C2175.62 294.77 2173 293.295 2173 291.095C2173 288.896 2174.65 286.882 2176.89 287.005C2181.8 287.288 2180.94 290.088 2180.94 290.989Z" fill="#F67C87"/>
<path d="M2310.94 399.989C2310.94 402.189 2309.09 404.3 2306.89 403.965C2305.62 403.77 2303 402.295 2303 400.095C2303 397.896 2304.65 395.882 2306.89 396.005C2311.8 396.288 2310.94 399.088 2310.94 399.989Z" fill="#F67C87"/>
<path d="M2678.94 256.989C2678.94 259.189 2677.09 261.3 2674.89 260.965C2673.62 260.77 2671 259.295 2671 257.095C2671 254.896 2672.65 252.882 2674.89 253.005C2679.8 253.288 2678.94 256.088 2678.94 256.989Z" fill="#F67C87"/>
<path d="M1505.94 283.989C1505.94 286.189 1504.09 288.3 1501.89 287.965C1500.62 287.77 1498 286.295 1498 284.095C1498 281.896 1499.65 279.882 1501.89 280.005C1506.8 280.288 1505.94 283.088 1505.94 283.989Z" fill="#F67C87"/>
<path d="M3109.94 374.989C3109.94 377.189 3108.09 379.3 3105.89 378.965C3104.62 378.77 3102 377.295 3102 375.095C3102 372.896 3103.65 370.882 3105.89 371.005C3110.8 371.288 3109.94 374.088 3109.94 374.989Z" fill="#F67C87"/>
<path d="M3382.94 399.989C3382.94 402.189 3381.09 404.3 3378.89 403.965C3377.62 403.77 3375 402.295 3375 400.095C3375 397.896 3376.65 395.882 3378.89 396.005C3383.8 396.288 3382.94 399.088 3382.94 399.989Z" fill="#F67C87"/>
<path d="M3634.94 287.989C3634.94 290.189 3633.09 292.3 3630.89 291.965C3629.62 291.77 3627 290.295 3627 288.095C3627 285.896 3628.65 283.882 3630.89 284.005C3635.8 284.288 3634.94 287.088 3634.94 287.989Z" fill="#F67C87"/>
<path d="M1208.88 243.478C1208.88 248.152 1204.95 252.638 1200.26 251.925C1197.58 251.512 1192 248.377 1192 243.703C1192 239.029 1195.51 234.749 1200.26 235.012C1209.54 235.545 1209.13 240.307 1208.93 242.703C1208.9 243.002 1208.88 243.265 1208.88 243.478Z" fill="#F67C87"/>
<path d="M1208.88 243.478C1208.88 248.152 1204.95 252.638 1200.26 251.925C1197.58 251.512 1192 248.377 1192 243.703C1192 239.029 1195.51 234.749 1200.26 235.012C1209.54 235.545 1209.13 240.307 1208.93 242.703C1208.9 243.002 1208.88 243.265 1208.88 243.478Z" stroke="#3A3A3A"/>
<path d="M2947.94 345.989C2947.94 348.189 2946.09 350.3 2943.89 349.965C2942.62 349.77 2940 348.295 2940 346.095C2940 343.896 2941.65 341.882 2943.89 342.005C2948.8 342.288 2947.94 345.088 2947.94 345.989Z" fill="#F7B289"/>
</svg>
