<svg width="45" height="41" viewBox="0 0 45 41" fill="none" xmlns="http://www.w3.org/2000/svg">
<path d="M44.284 21.213C42.8904 32.671 32.2065 40.8001 20.4388 40.8001C8.67099 40.8001 0 31.5098 0 19.8194C0 8.12905 10.2194 0 21.9871 0C33.7549 0 45.6775 9.60002 44.284 21.213Z" fill="#F3BEF1"/>
<mask id="mask0_1864_9931" style="mask-type:luminance" maskUnits="userSpaceOnUse" x="0" y="0" width="45" height="41">
<path d="M44.284 21.213C42.8904 32.671 32.2065 40.8001 20.4388 40.8001C8.67099 40.8001 0 31.5098 0 19.8194C0 8.12905 10.2194 0 21.9871 0C33.7549 0 45.6775 9.60002 44.284 21.213Z" fill="white"/>
</mask>
<g mask="url(#mask0_1864_9931)">
<path d="M10.4531 14.6325L12.3112 14.2454L17.1112 14.4776L26.6338 14.2454V15.7938H27.8725V14.7099C27.8725 14.7099 30.8919 14.1679 31.7435 14.2454C32.5951 14.3228 34.6854 15.0196 34.6854 15.0196L34.9177 17.3421H45.6016V22.6067H44.8274L44.9822 26.8647H10.4531V14.6325Z" fill="#D08C87"/>
<path d="M30.8145 14.2449H31.6661L34.608 15.0191L34.9177 17.3417L35.0725 26.8643H31.1241L30.8145 14.2449Z" fill="#E89C9A"/>
<path d="M17.1106 17.5742H28.4913L28.801 26.8646H17.0332L17.1106 17.5742Z" fill="#6B5154"/>
<path d="M-1.16016 17.2646H10.4528V26.8647L-1.16016 27.0969V17.2646Z" fill="#D08C87"/>
<path d="M7.66585 18.8906H4.64648V21.4455H7.66585V18.8906Z" fill="#6B5154"/>
<path d="M0.00195312 23.071C0.234212 23.071 3.79551 23.071 3.79551 23.071V24.542H0.00195312V23.071Z" fill="#6B5154"/>
<path d="M4.25977 23.071H8.363V23.8452L7.20171 24.542H5.26622L4.25977 23.071Z" fill="#6B5154"/>
<path d="M20.9059 17.4197H20.4414V26.8649H20.9059V17.4197Z" fill="#E89C9A"/>
<path d="M25.4116 17.5706L24.9473 17.5845L25.2249 26.8711L25.6892 26.8572L25.4116 17.5706Z" fill="#E89C9A"/>
<path d="M36.6992 18.658H39.1766V21.058H36.8541L36.6992 18.658Z" fill="#6B5154"/>
<path d="M36 22.5291H40.3355L40.2581 26.8645H38.7871L38.6323 23.6129L38.1677 23.8452V24H36.6968L36 22.5291Z" fill="#6B5154"/>
<path d="M34.6844 23.7676H33.9102V24.5418H34.6844V23.7676Z" fill="#6B5154"/>
<path d="M34.687 18.658H33.9902V18.8902H34.687V18.658Z" fill="#6B5154"/>
<path d="M10.4531 14.632L12.3112 14.2449V26.8643H10.4531V14.632Z" fill="#AF7574"/>
<path d="M10.8398 20.284L11.2269 20.1292V21.5227L10.8398 21.6775V20.284Z" fill="#6B5154"/>
<path d="M10.8398 22.0645L11.2269 21.9871V23.5355L10.8398 23.6903V22.0645Z" fill="#6B5154"/>
<path d="M11.5371 20.0516L12.0016 19.8193V21.4451L11.6145 21.6L11.5371 20.0516Z" fill="#6B5154"/>
<path d="M11.6133 22.0645L12.0004 21.9097V23.3806L11.6133 23.6129V22.0645Z" fill="#6B5154"/>
<path d="M17.1113 14.0903L26.6339 14.2452V15.7936L17.1113 16.0258V14.0903Z" fill="#E89C9A"/>
<path d="M28.4922 14.5546L30.8148 14.2449L31.1245 26.8643H28.647L28.4922 14.5546Z" fill="#AF7574"/>
<path d="M10.4506 17.2646L8.82476 19.0453L8.66992 26.8647H10.4506V17.2646Z" fill="#6B5154"/>
<path d="M20.6719 20.5161H25.1622V21.9871H20.6719V20.5161Z" fill="#E89C9A"/>
<path d="M0.46647 25.781H3.56325V26.6326H4.56971V25.781H5.03422V26.6326L6.04068 26.4004V25.781H7.51165V26.9423L0.00195312 27.0971V25.781H0.46647Z" fill="#6B5154"/>
</g>
</svg>
