<svg width="47" height="46" viewBox="0 0 47 46" fill="none" xmlns="http://www.w3.org/2000/svg">
<path d="M46.8686 24.0373C46.8686 36.2569 34.9706 45.1 22.751 45.1C10.5314 45.1 0 35.6137 0 23.3137C0 11.0137 11.4961 0 23.7157 0C35.9353 0 46.8686 11.8176 46.8686 24.0373Z" fill="#79A5AE"/>
<mask id="mask0_1898_6" style="mask-type:luminance" maskUnits="userSpaceOnUse" x="0" y="0" width="47" height="46">
<path d="M46.8686 24.0373C46.8686 36.2569 34.9706 45.1 22.751 45.1C10.5314 45.1 0 35.6137 0 23.3137C0 11.0137 11.4961 0 23.7157 0C35.9353 0 46.8686 11.8176 46.8686 24.0373Z" fill="white"/>
</mask>
<g mask="url(#mask0_1898_6)">
<path d="M-4.09961 20.0981L51.8533 20.5001V30.0668H-3.85843L-4.09961 20.0981Z" fill="#D08C87"/>
<path d="M15.4362 15.3549H18.4107V16.1588L23.8774 14.149V13.5059H24.1989V14.149L29.4244 15.7568V15.5157L32.5597 15.5961L32.6401 20.6608L15.2754 20.5804L15.4362 15.3549Z" fill="#D08C87"/>
<path d="M17.2051 18.4901L23.958 16.2391V15.2744H24.1992V16.2391L30.9521 18.4901H17.2051Z" fill="#A05F5D"/>
<path d="M17.3652 18.7314L17.7672 19.053V20.0981L30.3888 19.9373V19.053L30.7907 18.7314H17.3652Z" fill="#A05F5D"/>
<path d="M17.2051 18.6509H30.9521" stroke="#D08C87" stroke-width="9" stroke-miterlimit="10"/>
<path d="M24.1183 16.4001L18.3301 18.3296H29.8262L24.1183 16.4001Z" fill="#E09C9B"/>
<path d="M18.4905 16.5609L18.4102 16.3197L23.9572 14.2295H24.0376L29.6651 16.0785L29.5847 16.3197L23.9572 14.5511L18.4905 16.5609Z" fill="#A05F5D"/>
<path d="M32.5582 17.0432H29.6641V17.3648H32.5582V17.0432Z" fill="#A05F5D"/>
<path d="M18.2496 17.2041H15.3555V17.5257H18.2496V17.2041Z" fill="#A05F5D"/>
<path d="M20.7415 20.1786V25.2433L20.4199 25.5649H21.7062L21.3846 25.3237V20.259L21.5454 20.0982L20.6611 20.0178L20.7415 20.1786Z" fill="#E09C9B"/>
<path d="M22.8316 20.098V25.2431L22.4297 25.5647H23.716L23.3944 25.3235V20.1784L23.5552 20.0176L22.6709 19.9373L22.8316 20.098Z" fill="#E09C9B"/>
<path d="M24.8414 20.098V25.2431L24.4395 25.5647H25.7257L25.4846 25.3235L25.4042 20.1784L25.6453 20.0176L24.761 19.9373L24.8414 20.098Z" fill="#E09C9B"/>
<path d="M26.8512 20.098V25.2431L26.4492 25.5647H27.8159L27.4943 25.3235L27.4139 20.1784L27.6551 20.0176L26.7708 19.9373L26.8512 20.098Z" fill="#E09C9B"/>
<path d="M28.941 20.098V25.2431L28.5391 25.5647H29.8253L29.5038 25.3235V20.1784L29.6646 20.0176L28.7802 19.9373L28.941 20.098Z" fill="#E09C9B"/>
<path d="M18.8121 20.1786V25.3237L18.4102 25.7257H19.6964L19.4553 25.4041L19.3749 20.3394L19.616 20.0982L18.7317 20.0178L18.8121 20.1786Z" fill="#E09C9B"/>
<path d="M29.8248 19.9373L29.7445 25.3235L29.6641 25.5647H30.7896L30.468 25.3235V18.8118L29.8248 19.9373Z" fill="#E09C9B"/>
<path d="M17.7666 19.7766V25.4041L17.5254 25.5648H18.8117L18.4097 25.2433V19.7766H17.7666Z" fill="#E09C9B"/>
<path d="M16.1585 22.9118C16.1585 22.9118 16.3997 22.1882 16.882 22.1882C17.3644 22.1882 17.6056 22.9118 17.6056 22.9118V25.6451H16.0781L16.1585 22.9118Z" fill="#E09C9B"/>
<path d="M30.5491 22.9921C30.5491 22.9921 30.7903 22.2686 31.2727 22.2686C31.755 22.2686 31.9962 22.9921 31.9962 22.9921V25.7254H30.4688L30.5491 22.9921Z" fill="#E09C9B"/>
<path d="M33.5238 22.9922C33.5238 22.9922 33.6041 22.4294 34.0865 22.4294C34.5688 22.4294 34.81 22.9922 34.81 22.9922V25.8059H33.4434L33.5238 22.9922Z" fill="#F1EFE2"/>
<path d="M37.1409 22.9922C37.1409 22.9922 37.2213 22.4294 37.7037 22.4294C38.186 22.4294 38.4272 22.9922 38.4272 22.9922V25.8059H37.0605L37.1409 22.9922Z" fill="#F1EFE2"/>
<path d="M38.9105 22.9119C38.9105 22.9119 38.9909 22.3491 39.4732 22.3491C39.9556 22.3491 40.1967 22.9119 40.1967 22.9119V25.7256H38.8301L38.9105 22.9119Z" fill="#F1EFE2"/>
<path d="M40.7581 22.9119C40.7581 22.9119 40.8385 22.3491 41.3209 22.3491C41.8032 22.3491 42.0444 22.9119 42.0444 22.9119V25.7256H40.6777L40.7581 22.9119Z" fill="#F1EFE2"/>
<path d="M42.4476 22.9119C42.4476 22.9119 42.528 22.3491 43.0103 22.3491C43.4927 22.3491 43.7339 22.9119 43.7339 22.9119V25.7256H42.3672L42.4476 22.9119Z" fill="#F1EFE2"/>
<path d="M44.2952 22.9119C44.2952 22.9119 44.3756 22.3491 44.858 22.3491C45.3403 22.3491 45.5815 22.9119 45.5815 22.9119V25.7256H44.2148L44.2952 22.9119Z" fill="#F1EFE2"/>
<path d="M46.1448 22.9119C46.1448 22.9119 46.2252 22.3491 46.7076 22.3491C47.1899 22.3491 47.4311 22.9119 47.4311 22.9119V25.7256H46.0645L46.1448 22.9119Z" fill="#F1EFE2"/>
<path d="M35.2933 22.9922C35.2933 22.9922 35.4541 22.4294 35.856 22.4294C36.258 22.4294 36.4992 22.9922 36.4992 22.9922L36.5796 25.8059H35.2129L35.2933 22.9922Z" fill="#F1EFE2"/>
<path d="M0.644845 22.9119C0.644845 22.9119 0.725238 22.3491 1.20759 22.3491C1.68994 22.3491 1.93112 22.9119 1.93112 22.9119V25.7256H0.564453L0.644845 22.9119Z" fill="#F1EFE2"/>
<path d="M2.41242 22.8318C2.41242 22.8318 2.49282 22.269 2.97517 22.269C3.45752 22.269 3.6987 22.8318 3.6987 22.8318V25.5651H2.33203L2.41242 22.8318Z" fill="#F1EFE2"/>
<path d="M4.26203 22.8318C4.26203 22.8318 4.34243 22.269 4.82478 22.269C5.30713 22.269 5.54831 22.8318 5.54831 22.8318V25.5651H4.18164L4.26203 22.8318Z" fill="#F1EFE2"/>
<path d="M5.95149 22.8318C5.95149 22.8318 6.03188 22.269 6.51423 22.269C6.99658 22.269 7.23776 22.8318 7.23776 22.8318V25.5651H5.87109L5.95149 22.8318Z" fill="#F1EFE2"/>
<path d="M7.8011 22.8318C7.8011 22.8318 7.88149 22.269 8.36384 22.269C8.84619 22.269 9.08737 22.8318 9.08737 22.8318V25.5651H7.7207L7.8011 22.8318Z" fill="#F1EFE2"/>
<path d="M9.64875 22.8318C9.64875 22.8318 9.72914 22.269 10.2115 22.269C10.6938 22.269 10.935 22.8318 10.935 22.8318V25.5651H9.56836L9.64875 22.8318Z" fill="#F1EFE2"/>
<path d="M11.3382 22.8318C11.3382 22.8318 11.4186 22.269 11.901 22.269C12.3833 22.269 12.6245 22.8318 12.6245 22.8318V25.5651H11.2578L11.3382 22.8318Z" fill="#F1EFE2"/>
<path d="M13.1058 22.7512C13.1058 22.7512 13.1862 22.1885 13.6685 22.1885C14.1509 22.1885 14.3921 22.7512 14.3921 22.7512V25.5649H13.0254L13.1058 22.7512Z" fill="#F1EFE2"/>
<path d="M-1.20476 22.9119C-1.20476 22.9119 -1.04398 22.3491 -0.642019 22.3491C-0.240058 22.3491 0.0011182 22.9119 0.0011182 22.9119L0.0815105 25.7256H-1.28516L-1.20476 22.9119Z" fill="#F1EFE2"/>
<path d="M14.1484 22.9119H16.3994L16.0778 23.4746V25.7256H14.3896V23.555L14.1484 22.9119Z" fill="#A05F5D"/>
<path d="M31.5938 22.9116H33.8447L33.5232 23.4744V25.7253H31.8349V23.5548L31.5938 22.9116Z" fill="#A05F5D"/>
<path d="M34.4883 22.9116H35.6138L35.2922 23.3136V25.7253H34.6491V23.3136L34.4883 22.9116Z" fill="#A05F5D"/>
<path d="M36.2578 22.9116H37.3833L37.1421 23.3136V25.7253H36.3382V23.3136L36.2578 22.9116Z" fill="#A05F5D"/>
<path d="M38.1055 22.9116H39.231L38.9898 23.3136V25.7253H38.2663V23.3136L38.1055 22.9116Z" fill="#A05F5D"/>
<path d="M39.9551 22.9116H41.0806L40.759 23.3136L40.8394 25.7253H40.0355V23.3136L39.9551 22.9116Z" fill="#A05F5D"/>
<path d="M41.7227 22.9116H42.8481L42.607 23.3136V25.7253H41.8834V23.3136L41.7227 22.9116Z" fill="#A05F5D"/>
<path d="M43.4922 22.9116H44.6177L44.2961 23.3136L44.3765 25.7253H43.5726V23.3136L43.4922 22.9116Z" fill="#A05F5D"/>
<path d="M45.3398 22.9116H46.4653L46.1438 23.3136V25.7253H45.4202V23.3136L45.3398 22.9116Z" fill="#A05F5D"/>
<path d="M31.918 27.4138H34.1689L33.767 27.8962V29.7452H32.0788L32.1591 27.8962L31.918 27.4138Z" fill="#A05F5D"/>
<path d="M34.7324 27.4138H35.9383L35.5363 27.7354L35.6167 29.7452H34.8932V27.7354L34.7324 27.4138Z" fill="#A05F5D"/>
<path d="M36.5 27.4138H37.7059L37.3843 27.7354V29.7452H36.6608V27.7354L36.5 27.4138Z" fill="#A05F5D"/>
<path d="M38.4297 27.4138H39.5552L39.2336 27.7354V29.7452H38.5101V27.7354L38.4297 27.4138Z" fill="#A05F5D"/>
<path d="M40.1992 27.4138H41.3247L41.0835 27.7354V29.7452H40.36V27.7354L40.1992 27.4138Z" fill="#A05F5D"/>
<path d="M41.9668 27.4138H43.1727L42.8511 27.7354V29.7452H42.1276V27.7354L41.9668 27.4138Z" fill="#A05F5D"/>
<path d="M43.7344 27.4138H44.8599L44.6187 27.7354V29.7452H43.8148V27.7354L43.7344 27.4138Z" fill="#A05F5D"/>
<path d="M45.584 27.4138H46.7095L46.3879 27.7354L46.4683 29.7452H45.6644V27.7354L45.584 27.4138Z" fill="#A05F5D"/>
<path d="M16.2393 27.4138H13.9883L14.3902 27.8962V29.7452H16.0785L15.9981 27.8962L16.2393 27.4138Z" fill="#A05F5D"/>
<path d="M13.4246 27.4138H12.2188L12.6207 27.7354L12.5403 29.7452H13.2638V27.7354L13.4246 27.4138Z" fill="#A05F5D"/>
<path d="M11.6567 27.4138H10.5312L10.7724 27.7354V29.7452H11.496V27.7354L11.6567 27.4138Z" fill="#A05F5D"/>
<path d="M9.80744 27.4138H8.60156L8.92313 27.7354V29.7452H9.64666V27.7354L9.80744 27.4138Z" fill="#A05F5D"/>
<path d="M7.95947 27.4138H6.83398L7.07516 27.7354V29.7452H7.79869V27.7354L7.95947 27.4138Z" fill="#A05F5D"/>
<path d="M6.19026 27.4138H4.98438L5.30594 27.7354V29.7452H6.02947V27.7354L6.19026 27.4138Z" fill="#A05F5D"/>
<path d="M4.42041 27.4138H3.29492L3.5361 27.7354V29.7452H4.34002V27.7354L4.42041 27.4138Z" fill="#A05F5D"/>
<path d="M2.57276 27.4138H1.44727L1.76883 27.7354L1.68844 29.7452H2.49236V27.7354L2.57276 27.4138Z" fill="#A05F5D"/>
<path d="M0.883303 27.4138H-0.242188L0.0793812 27.7354L-0.00101106 29.7452H0.802911V27.7354L0.883303 27.4138Z" fill="#A05F5D"/>
<path d="M-0.160156 22.9116H0.965334L0.724157 23.3136V25.7253H0.000628104V23.3136L-0.160156 22.9116Z" fill="#A05F5D"/>
<path d="M1.68945 22.9116H2.81494L2.57377 23.3136V25.7253H1.85024V23.3136L1.68945 22.9116Z" fill="#A05F5D"/>
<path d="M3.53711 22.9116H4.6626L4.42142 23.3136V25.7253H3.6175V23.3136L3.53711 22.9116Z" fill="#A05F5D"/>
<path d="M5.30664 22.9116H6.43213L6.19095 23.3136V25.7253H5.46743V23.3136L5.30664 22.9116Z" fill="#A05F5D"/>
<path d="M7.07617 22.9116H8.20166L7.88009 23.3136L7.96049 25.7253H7.15656V23.3136L7.07617 22.9116Z" fill="#A05F5D"/>
<path d="M8.92578 22.9116H10.0513L9.7297 23.3136V25.7253H9.00617V23.3136L8.92578 22.9116Z" fill="#A05F5D"/>
<path d="M10.6133 22.9116H11.7388L11.4172 23.3136V25.7253H10.6937V23.3136L10.6133 22.9116Z" fill="#A05F5D"/>
<path d="M12.3809 22.9116H13.5063L13.1848 23.3136L13.2652 25.7253H12.4613V23.3136L12.3809 22.9116Z" fill="#A05F5D"/>
<path d="M0.884766 29.7449V27.4136C0.884766 27.4136 0.884766 26.8508 1.20633 26.8508C1.5279 26.8508 1.68869 27.4136 1.68869 27.4136V29.8253L0.884766 29.7449Z" fill="#F1EFE2"/>
<path d="M2.65234 29.7451V27.4941C2.65234 27.4941 2.65234 26.9314 2.97391 26.9314C3.29548 26.9314 3.45627 27.4137 3.45627 27.4137V29.8255L2.65234 29.7451Z" fill="#F1EFE2"/>
<path d="M4.42258 29.7452V27.4138C4.42258 27.4138 4.34219 27.0118 4.74415 26.9314C5.14611 26.8511 5.2265 27.4138 5.2265 27.4138V29.7452H4.42258Z" fill="#F1EFE2"/>
<path d="M6.27023 29.6647V27.4137C6.27023 27.4137 6.18984 26.9314 6.5918 26.9314C6.99376 26.9314 7.15455 27.4137 7.15455 27.4137V29.7451L6.27023 29.6647Z" fill="#F1EFE2"/>
<path d="M8.04102 29.745V27.494C8.04102 27.494 8.04102 26.8509 8.44298 26.9313C8.84494 26.9313 8.92533 27.494 8.92533 27.494V29.8254L8.04102 29.745Z" fill="#F1EFE2"/>
<path d="M9.80971 29.7451V27.4137C9.80971 27.4137 9.72932 26.9314 10.2117 26.9314C10.694 26.9314 10.7744 27.4941 10.7744 27.4941V29.7451H9.80971Z" fill="#F1EFE2"/>
<path d="M11.5765 29.6646L11.4961 27.494C11.4961 27.494 11.5765 26.8509 11.9784 26.9313C12.3804 27.0117 12.4608 27.494 12.4608 27.494V29.6646H11.5765Z" fill="#F1EFE2"/>
<path d="M13.2667 29.5844V27.4942C13.2667 27.4942 13.1864 26.851 13.6687 26.7706C14.1511 26.6902 14.2314 27.4138 14.2314 27.4138L14.1511 29.6648L13.2667 29.5844Z" fill="#F1EFE2"/>
<path d="M16.1591 29.5844V27.5746C16.1591 27.5746 15.7571 27.0922 16.561 26.9314C17.2846 26.7706 17.365 27.5746 17.365 27.5746L17.2846 29.7451L16.1591 29.5844Z" fill="#E09C9B"/>
<path d="M47.2707 29.7449V27.4136C47.2707 27.4136 47.2707 26.8508 46.9492 26.8508C46.6276 26.8508 46.4668 27.4136 46.4668 27.4136V29.8253L47.2707 29.7449Z" fill="#F1EFE2"/>
<path d="M45.5031 29.7451V27.4941C45.5031 27.4941 45.5031 26.9314 45.1816 26.9314C44.86 26.9314 44.6992 27.4137 44.6992 27.4137V29.8255L45.5031 29.7451Z" fill="#F1EFE2"/>
<path d="M43.7336 29.7452V27.4138C43.7336 27.4138 43.814 27.0118 43.412 26.9314C43.0101 26.8511 42.9297 27.4138 42.9297 27.4138V29.7452H43.7336Z" fill="#F1EFE2"/>
<path d="M41.8843 29.7451V27.4941C41.8843 27.4941 41.9647 27.0117 41.5627 27.0117C41.1608 27.0117 41 27.4941 41 27.4941V29.8254L41.8843 29.7451Z" fill="#F1EFE2"/>
<path d="M40.1167 29.745V27.494C40.1167 27.494 40.1167 26.8509 39.7148 26.9313C39.3128 26.9313 39.2324 27.494 39.2324 27.494V29.8254L40.1167 29.745Z" fill="#F1EFE2"/>
<path d="M38.3475 29.7451V27.4137C38.3475 27.4137 38.4279 26.9314 37.9456 26.9314C37.4632 26.9314 37.3828 27.4941 37.3828 27.4941V29.7451H38.3475Z" fill="#F1EFE2"/>
<path d="M36.5796 29.6646L36.66 27.494C36.66 27.494 36.5796 26.8509 36.1777 26.9313C35.7757 27.0117 35.6953 27.494 35.6953 27.494V29.6646H36.5796Z" fill="#F1EFE2"/>
<path d="M34.8905 29.5842V27.494C34.8905 27.494 34.9709 26.8509 34.4885 26.7705C34.0062 26.7705 33.9258 27.4136 33.9258 27.4136L34.0062 29.6646L34.8905 29.5842Z" fill="#F1EFE2"/>
<path d="M31.9969 29.5844V27.5746C31.9969 27.5746 32.3989 27.0922 31.5949 26.9314C30.8714 26.7706 30.791 27.5746 30.791 27.5746L30.8714 29.7451L31.9969 29.5844Z" fill="#E09C9B"/>
<path d="M17.2051 25.7256L17.6874 26.1275L17.607 29.906L30.711 29.7452V26.1275L30.9521 25.7256H17.2051Z" fill="#D08C87"/>
<path d="M19.5352 27.4137C19.5352 27.4137 19.5352 26.9313 20.0175 26.8509C20.4999 26.7706 20.6606 27.4137 20.6606 27.4137V29.7451H19.5352V27.4137Z" fill="#F1EFE2"/>
<path d="M21.5449 27.4137C21.5449 27.4137 21.6253 26.9313 22.0273 26.8509C22.4292 26.7706 22.6704 27.4137 22.6704 27.4137L22.7508 29.6647H21.5449V27.4137Z" fill="#F1EFE2"/>
<path d="M23.5545 29.5039V27.4941C23.5545 27.4941 23.3937 26.9314 23.9564 26.9314C24.5192 26.9314 24.68 27.4941 24.68 27.4941V29.5843L23.5545 29.5039Z" fill="#F1EFE2"/>
<path d="M25.6446 29.5844V27.4942C25.6446 27.4942 25.5642 26.851 26.1269 26.7706C26.6897 26.6902 26.8505 27.4138 26.8505 27.4138V29.5844H25.6446Z" fill="#F1EFE2"/>
<path d="M27.6543 29.5844V27.4942C27.6543 27.4942 27.6543 26.8511 28.1366 26.8511C28.619 26.8511 28.7798 27.4942 28.7798 27.4942V29.5844H27.6543Z" fill="#F1EFE2"/>
<path d="M17.3652 27.4138H19.777L19.5358 27.8962L19.6162 29.906H17.6064V27.8158L17.3652 27.4138Z" fill="#A05F5D"/>
<path d="M20.3398 27.4138H21.8673L21.7065 27.8962V29.6648H20.5006V27.8158L20.3398 27.4138Z" fill="#A05F5D"/>
<path d="M22.4297 27.4138H23.8767L23.5552 27.8158L23.6356 29.6648H22.6709L22.5905 27.8158L22.4297 27.4138Z" fill="#A05F5D"/>
<path d="M24.5195 27.4138H25.8862L25.645 27.8158V29.5844H24.6803V27.8158L24.5195 27.4138Z" fill="#A05F5D"/>
<path d="M26.4492 27.4138H27.9767L27.7355 27.8158V29.5844H26.61L26.6904 27.8158L26.4492 27.4138Z" fill="#A05F5D"/>
<path d="M28.5391 27.4138H31.1116L30.79 27.8962L30.8704 29.7452H28.7802V27.8158L28.5391 27.4138Z" fill="#A05F5D"/>
</g>
</svg>
