<svg width="47" height="45" viewBox="0 0 47 45" fill="none" xmlns="http://www.w3.org/2000/svg">
<path d="M46.7517 22.8052C46.7517 35.4195 36.1872 44.5648 23.573 44.5648C10.9587 44.5648 0 35.8137 0 23.1205C0 10.4274 9.77607 -1.95036 22.8634 0.257137C35.32 2.3858 46.7517 10.1121 46.7517 22.8052Z" fill="#D1BB80"/>
<mask id="mask0_1863_4937" style="mask-type:luminance" maskUnits="userSpaceOnUse" x="0" y="0" width="47" height="45">
<path d="M46.7517 22.8052C46.7517 35.4195 36.1872 44.5648 23.573 44.5648C10.9587 44.5648 0 35.8137 0 23.1205C0 10.4274 9.77607 -1.95036 22.8634 0.257137C35.32 2.3858 46.7517 10.1121 46.7517 22.8052Z" fill="white"/>
</mask>
<g mask="url(#mask0_1863_4937)">
<path d="M44.2306 13.4236H1.10547V34.789H44.2306V13.4236Z" fill="#F4D6C5"/>
<path d="M1.9718 14.685L1.41992 14.3696H44.072L43.6778 14.685H1.9718Z" fill="#F1EFE2"/>
<path d="M1.81641 16.104V16.2617L2.05292 16.1828V16.104H1.81641Z" fill="#F1EFE2"/>
<path d="M1.89453 16.3406H2.13105V16.2617H1.89453V16.3406Z" fill="#F1EFE2"/>
<path d="M1.97266 16.4983V16.3406H2.20917V16.4983H1.97266Z" fill="#F1EFE2"/>
<path d="M2.05078 16.6557V16.498H2.36614V16.6557H2.05078Z" fill="#F1EFE2"/>
<path d="M4.17864 16.5771H3.86328V16.7348H4.17864V16.5771Z" fill="#F1EFE2"/>
<path d="M3.78516 16.4194V16.5771H4.10051V16.4194H3.78516Z" fill="#F1EFE2"/>
<path d="M3.70703 16.1829V16.3405H4.02239V16.1829H3.70703Z" fill="#F1EFE2"/>
<path d="M3.62695 16.0251V16.1828H3.94231V16.0251H3.62695Z" fill="#F1EFE2"/>
<path d="M6.07227 16.0251V16.1828H6.46646L6.38762 16.0251H6.07227Z" fill="#F1EFE2"/>
<path d="M6.15039 16.2617V16.3405H6.22923H6.46575V16.1829L6.15039 16.2617Z" fill="#F1EFE2"/>
<path d="M6.23047 16.4983L6.54583 16.5771V16.3406H6.23047V16.4983Z" fill="#F1EFE2"/>
<path d="M6.30859 16.5769V16.7346H6.62395V16.498L6.30859 16.5769Z" fill="#F1EFE2"/>
<path d="M7.96289 16.0251V16.1828H8.19941V16.0251H7.96289Z" fill="#F1EFE2"/>
<path d="M8.35833 16.1829H8.04297V16.3405H8.35833V16.1829Z" fill="#F1EFE2"/>
<path d="M8.04297 16.5771V16.3406H8.35833V16.5771H8.04297Z" fill="#F1EFE2"/>
<path d="M8.12109 16.8137V16.5771H8.43645V16.7348L8.12109 16.8137Z" fill="#F1EFE2"/>
<path d="M9.77734 16.0251V16.2617H10.0927V16.0251H9.77734Z" fill="#F1EFE2"/>
<path d="M10.1708 16.2617H9.85547V16.4194H10.1708V16.2617Z" fill="#F1EFE2"/>
<path d="M9.85547 16.5771V16.3406H10.1708V16.5771H9.85547Z" fill="#F1EFE2"/>
<path d="M10.2509 16.5771H9.93555V16.8137H10.2509V16.5771Z" fill="#F1EFE2"/>
<path d="M11.9072 16.0251H11.5918V16.1828H11.9072V16.0251Z" fill="#F1EFE2"/>
<path d="M11.6719 16.4194V16.2617H11.9872V16.4194H11.6719Z" fill="#F1EFE2"/>
<path d="M11.6719 16.5771V16.4194H11.9872V16.5771H11.6719Z" fill="#F1EFE2"/>
<path d="M12.0654 16.5771H11.75V16.7348H12.0654V16.5771Z" fill="#F1EFE2"/>
<path d="M13.6408 16.0251H13.4043V16.1828H13.6408V16.0251Z" fill="#F1EFE2"/>
<path d="M13.7978 16.2617H13.4824V16.4194H13.7978V16.2617Z" fill="#F1EFE2"/>
<path d="M13.4824 16.5771V16.4194H13.7189V16.5771H13.4824Z" fill="#F1EFE2"/>
<path d="M13.5625 16.8925V16.5771H13.799V16.8925H13.5625Z" fill="#F1EFE2"/>
<path d="M15.2188 16.104V16.2617H15.4553V16.104H15.2188Z" fill="#F1EFE2"/>
<path d="M15.5341 16.2617H15.2188V16.4194H15.5341V16.2617Z" fill="#F1EFE2"/>
<path d="M15.2969 16.5769V16.498H15.5334V16.6557L15.2969 16.5769Z" fill="#F1EFE2"/>
<path d="M15.3757 16.8923L15.2969 16.6558H15.6122V16.8923H15.3757Z" fill="#F1EFE2"/>
<path d="M17.2676 16.2617V16.104H17.5041V16.2617H17.2676Z" fill="#F1EFE2"/>
<path d="M17.5829 16.2617H17.2676V16.4194H17.5829V16.2617Z" fill="#F1EFE2"/>
<path d="M17.5829 16.498H17.2676V16.7346H17.5829V16.498Z" fill="#F1EFE2"/>
<path d="M17.3457 16.8923V16.6558H17.6611V16.8923H17.3457Z" fill="#F1EFE2"/>
<path d="M28.5419 16.104H28.2266V16.2617H28.5419V16.104Z" fill="#F1EFE2"/>
<path d="M28.1465 16.4194V16.2617H28.4618V16.4194H28.1465Z" fill="#F1EFE2"/>
<path d="M28.1465 16.656V16.4194H28.383L28.4618 16.656H28.1465Z" fill="#F1EFE2"/>
<path d="M28.0664 16.8137V16.5771H28.3818V16.7348L28.0664 16.8137Z" fill="#F1EFE2"/>
<path d="M29.8809 16.0251V16.2617H30.1962V16.0251H29.8809Z" fill="#F1EFE2"/>
<path d="M29.8809 16.4194V16.2617H30.1962V16.4194H29.8809Z" fill="#F1EFE2"/>
<path d="M29.8809 16.656V16.4194H30.1174V16.5771L29.8809 16.656Z" fill="#F1EFE2"/>
<path d="M29.8027 16.8134V16.6558H30.1181L30.0393 16.8923L29.8027 16.8134Z" fill="#F1EFE2"/>
<path d="M32.3242 16.1828V15.9463L32.6396 16.0251L32.5607 16.1828H32.3242Z" fill="#F1EFE2"/>
<path d="M32.2461 16.4194V16.1829H32.5615V16.4194H32.2461Z" fill="#F1EFE2"/>
<path d="M32.5615 16.4194H32.2461V16.5771H32.5615V16.4194Z" fill="#F1EFE2"/>
<path d="M32.4045 16.5771H32.168V16.7348H32.4045V16.5771Z" fill="#F1EFE2"/>
<path d="M34.0605 16.1828V15.9463L34.3759 16.0251V16.1828H34.0605Z" fill="#F1EFE2"/>
<path d="M34.0605 16.3405V16.1829H34.2971V16.3405H34.0605Z" fill="#F1EFE2"/>
<path d="M33.9805 16.5771V16.3406H34.217V16.5771H33.9805Z" fill="#F1EFE2"/>
<path d="M33.9023 16.7348V16.5771H34.2177V16.8137L33.9023 16.7348Z" fill="#F1EFE2"/>
<path d="M36.1904 15.9463H35.875V16.104H36.1904V15.9463Z" fill="#F1EFE2"/>
<path d="M36.0295 16.1829H35.793V16.3405H36.0295V16.1829Z" fill="#F1EFE2"/>
<path d="M35.7148 16.5771V16.3406H36.0302V16.5771H35.7148Z" fill="#F1EFE2"/>
<path d="M35.6367 16.7346V16.498H35.9521V16.7346H35.6367Z" fill="#F1EFE2"/>
<path d="M37.6094 16.1828V15.9463H37.9247V16.1828H37.6094Z" fill="#F1EFE2"/>
<path d="M37.8447 16.1829H37.5293V16.3405H37.8447V16.1829Z" fill="#F1EFE2"/>
<path d="M37.7658 16.3406H37.5293V16.4983H37.7658V16.3406Z" fill="#F1EFE2"/>
<path d="M37.3711 16.7348V16.5771H37.6865V16.7348H37.3711Z" fill="#F1EFE2"/>
<path d="M39.7372 15.9463H39.4219V16.1828H39.7372V15.9463Z" fill="#F1EFE2"/>
<path d="M39.6591 16.1829H39.3438V16.3405H39.6591V16.1829Z" fill="#F1EFE2"/>
<path d="M39.2656 16.4983V16.3406H39.581V16.4983H39.2656Z" fill="#F1EFE2"/>
<path d="M2.83984 16.8926V18.0752H3.94359L3.86475 16.8926H2.83984Z" fill="#79A5AE"/>
<path d="M6.23108 16.9714H4.6543V18.154H6.23108V16.9714Z" fill="#79A5AE"/>
<path d="M6.94141 16.9714V18.154H8.04516V16.9714H6.94141Z" fill="#79A5AE"/>
<path d="M9.77882 17.1292H8.75391V18.1541H9.77882V17.1292Z" fill="#79A5AE"/>
<path d="M11.5913 17.1292H10.5664V18.1541H11.5913V17.1292Z" fill="#79A5AE"/>
<path d="M13.4077 17.1292H12.3828V18.1541H13.4077V17.1292Z" fill="#79A5AE"/>
<path d="M15.2197 17.1292H14.0371V18.3117H15.2197V17.1292Z" fill="#79A5AE"/>
<path d="M17.111 17.1292H15.8496V18.3117H17.111V17.1292Z" fill="#79A5AE"/>
<path d="M18.7671 17.1292H17.7422V18.3117H18.7671V17.1292Z" fill="#79A5AE"/>
<path d="M2.68359 18.5483V18.9425H3.94502L3.86618 18.5483H2.68359Z" fill="#79A5AE"/>
<path d="M6.31064 18.5483H4.57617V19.0214H6.31064V18.5483Z" fill="#79A5AE"/>
<path d="M8.04587 18.5483H6.86328V19.0214H8.04587V18.5483Z" fill="#79A5AE"/>
<path d="M8.67383 18.5483V18.9425H9.85642V18.5483H8.67383Z" fill="#79A5AE"/>
<path d="M10.5664 18.6272V18.9426H11.6702V18.6272H10.5664Z" fill="#79A5AE"/>
<path d="M12.3828 18.7058V18.9423H13.4866L13.4077 18.7058H12.3828Z" fill="#79A5AE"/>
<path d="M14.0371 18.706V18.9426H15.2197V18.6272L14.0371 18.706Z" fill="#79A5AE"/>
<path d="M15.8496 18.7058V19.1788H17.1899V18.7846L15.8496 18.7058Z" fill="#79A5AE"/>
<path d="M17.7422 18.7058V19.1788H18.8459V18.7846L17.7422 18.7058Z" fill="#79A5AE"/>
<path d="M2.76172 19.4155V20.4404H3.86547L3.78663 19.4944L2.76172 19.4155Z" fill="#79A5AE"/>
<path d="M6.15296 19.573H4.57617V20.5191H6.15296V19.573Z" fill="#79A5AE"/>
<path d="M6.86328 19.573V20.5191H8.04587L7.96703 19.573H6.86328Z" fill="#79A5AE"/>
<path d="M9.77882 19.6521H8.75391V20.5193H9.77882V19.6521Z" fill="#79A5AE"/>
<path d="M11.5151 19.6521H10.4902V20.5193H11.5151V19.6521Z" fill="#79A5AE"/>
<path d="M13.3296 19.6521H12.3047V20.5193H13.3296V19.6521Z" fill="#79A5AE"/>
<path d="M15.1416 19.6521H13.959V20.5982H15.1416V19.6521Z" fill="#79A5AE"/>
<path d="M17.113 19.6521H15.8516V20.5982H17.113V19.6521Z" fill="#79A5AE"/>
<path d="M18.689 19.6521H17.6641V20.5982H18.689V19.6521Z" fill="#79A5AE"/>
<path d="M2.60547 20.8345V21.1498H3.8669L3.78806 20.8345H2.60547Z" fill="#79A5AE"/>
<path d="M6.23251 20.8345H4.49805V21.2287H6.23251V20.8345Z" fill="#79A5AE"/>
<path d="M7.96775 20.8345H6.78516V21.2287H7.96775V20.8345Z" fill="#79A5AE"/>
<path d="M8.5957 20.8345V21.1498H9.85713L9.77829 20.8345H8.5957Z" fill="#79A5AE"/>
<path d="M10.4902 20.9133V21.1498H11.6728L11.594 20.9133H10.4902Z" fill="#79A5AE"/>
<path d="M12.3047 20.9922V21.1499H13.4084L13.3296 20.9922H12.3047Z" fill="#79A5AE"/>
<path d="M13.959 20.9922V21.1498H15.1416V20.9133L13.959 20.9922Z" fill="#79A5AE"/>
<path d="M15.8516 20.9922V21.3075H17.113V20.9922H15.8516Z" fill="#79A5AE"/>
<path d="M17.6641 20.9922V21.3075H18.7678V20.9922H17.6641Z" fill="#79A5AE"/>
<path d="M2.68359 22.0168V22.8841H3.78734L3.7085 22.0168H2.68359Z" fill="#79A5AE"/>
<path d="M6.06459 22.077L4.48828 22.1138L4.50853 22.9807L6.08484 22.9439L6.06459 22.077Z" fill="#79A5AE"/>
<path d="M6.70703 22.0168L6.78587 22.8841H7.88962L7.81078 22.0168H6.70703Z" fill="#79A5AE"/>
<path d="M9.61445 22.0835L8.58984 22.1074L8.60825 22.8956L9.63285 22.8716L9.61445 22.0835Z" fill="#79A5AE"/>
<path d="M11.4269 22.0039L10.4023 22.0278L10.4208 22.816L11.4454 22.7921L11.4269 22.0039Z" fill="#79A5AE"/>
<path d="M13.2414 22.0039L12.2168 22.0278L12.2352 22.816L13.2598 22.7921L13.2414 22.0039Z" fill="#79A5AE"/>
<path d="M14.9733 21.9243L13.791 21.9519L13.8113 22.8189L14.9935 22.7913L14.9733 21.9243Z" fill="#79A5AE"/>
<path d="M16.9446 21.9229L15.6836 21.9524L15.7038 22.8194L16.9649 22.7899L16.9446 21.9229Z" fill="#79A5AE"/>
<path d="M18.5988 21.8455L17.5742 21.8694L17.5945 22.7364L18.6191 22.7124L18.5988 21.8455Z" fill="#79A5AE"/>
<path d="M2.52734 23.2783V23.5937H3.78877L3.70993 23.2783H2.52734Z" fill="#79A5AE"/>
<path d="M6.14801 23.1775L4.41406 23.218L4.42143 23.5333L6.15537 23.4928L6.14801 23.1775Z" fill="#79A5AE"/>
<path d="M7.88536 23.1845L6.70312 23.2122L6.71049 23.5274L7.89272 23.4998L7.88536 23.1845Z" fill="#79A5AE"/>
<path d="M8.51758 23.1206V23.436H9.70017V23.1206H8.51758Z" fill="#79A5AE"/>
<path d="M10.4102 23.1206V23.436H11.5139V23.1206H10.4102Z" fill="#79A5AE"/>
<path d="M12.2266 23.1995V23.3571H13.3303L13.2515 23.1995H12.2266Z" fill="#79A5AE"/>
<path d="M13.8008 23.1206L13.8796 23.3571L15.0622 23.2783V23.0417L13.8008 23.1206Z" fill="#79A5AE"/>
<path d="M15.6934 23.1206V23.436H17.0336V23.1206H15.6934Z" fill="#79A5AE"/>
<path d="M17.5859 23.0417V23.4359L18.6897 23.3571V23.0417H17.5859Z" fill="#79A5AE"/>
<path d="M2.76172 24.3821V25.2493L3.86547 25.1705L3.78663 24.3032L2.76172 24.3821Z" fill="#79A5AE"/>
<path d="M6.14272 24.3633L4.56641 24.4001L4.58665 25.2671L6.16297 25.2303L6.14272 24.3633Z" fill="#79A5AE"/>
<path d="M6.78516 24.3821L6.864 25.2493L7.96775 25.1705L7.88891 24.3032L6.78516 24.3821Z" fill="#79A5AE"/>
<path d="M9.69062 24.3704L8.66602 24.3943L8.68442 25.1824L9.70903 25.1585L9.69062 24.3704Z" fill="#79A5AE"/>
<path d="M11.5051 24.3694L10.4805 24.3933L10.4989 25.1815L11.5235 25.1575L11.5051 24.3694Z" fill="#79A5AE"/>
<path d="M13.3176 24.2908L12.293 24.3147L12.3114 25.1029L13.336 25.0789L13.3176 24.2908Z" fill="#79A5AE"/>
<path d="M15.0533 24.29L13.8711 24.3176L13.8913 25.1846L15.0736 25.157L15.0533 24.29Z" fill="#79A5AE"/>
<path d="M17.0208 24.2098L15.7598 24.2393L15.78 25.1062L17.0411 25.0768L17.0208 24.2098Z" fill="#79A5AE"/>
<path d="M18.6789 24.2114L17.6543 24.2354L17.6745 25.1023L18.6991 25.0784L18.6789 24.2114Z" fill="#79A5AE"/>
<path d="M2.60547 25.5647V25.9589L3.8669 25.8801L3.78806 25.5647H2.60547Z" fill="#79A5AE"/>
<path d="M6.22809 25.543L4.49414 25.5835L4.5015 25.8988L6.23545 25.8583L6.22809 25.543Z" fill="#79A5AE"/>
<path d="M7.96153 25.4709L6.7793 25.4985L6.78666 25.8138L7.96889 25.7862L7.96153 25.4709Z" fill="#79A5AE"/>
<path d="M8.5957 25.4861V25.8014H9.85713L9.77829 25.4072L8.5957 25.4861Z" fill="#79A5AE"/>
<path d="M10.4902 25.4861V25.7226H11.6728L11.594 25.4072L10.4902 25.4861Z" fill="#79A5AE"/>
<path d="M12.3047 25.4861V25.7226L13.4084 25.6438L13.3296 25.4861H12.3047Z" fill="#79A5AE"/>
<path d="M13.959 25.4858V25.6435H15.1416V25.3281L13.959 25.4858Z" fill="#79A5AE"/>
<path d="M15.8516 25.4072V25.8014L17.113 25.7226V25.4072H15.8516Z" fill="#79A5AE"/>
<path d="M17.6641 25.4072V25.7226H18.7678V25.4072H17.6641Z" fill="#79A5AE"/>
<path d="M2.76172 26.5896V27.4568H3.86547L3.78663 26.5896H2.76172Z" fill="#79A5AE"/>
<path d="M6.14272 26.5713L4.56641 26.6082L4.58665 27.4751L6.16297 27.4383L6.14272 26.5713Z" fill="#79A5AE"/>
<path d="M6.86328 26.5896V27.4568H8.04587L7.96703 26.5896H6.86328Z" fill="#79A5AE"/>
<path d="M9.77265 26.656L8.74805 26.6799L8.76645 27.4681L9.79106 27.4442L9.77265 26.656Z" fill="#79A5AE"/>
<path d="M11.5832 26.5762L10.5586 26.6001L10.577 27.3883L11.6016 27.3643L11.5832 26.5762Z" fill="#79A5AE"/>
<path d="M13.3977 26.5764L12.373 26.6003L12.3915 27.3885L13.4161 27.3646L13.3977 26.5764Z" fill="#79A5AE"/>
<path d="M15.1315 26.4973L13.9492 26.5249L13.9695 27.3919L15.1517 27.3643L15.1315 26.4973Z" fill="#79A5AE"/>
<path d="M17.1009 26.4964L15.8398 26.5259L15.8601 27.3929L17.1211 27.3634L17.1009 26.4964Z" fill="#79A5AE"/>
<path d="M18.7551 26.4189L17.7305 26.4429L17.7507 27.3098L18.7753 27.2859L18.7551 26.4189Z" fill="#79A5AE"/>
<path d="M2.60547 27.8511V28.1664H3.8669L3.78806 27.8511H2.60547Z" fill="#79A5AE"/>
<path d="M6.22613 27.751L4.49219 27.7915L4.49955 28.1068L6.2335 28.0663L6.22613 27.751Z" fill="#79A5AE"/>
<path d="M7.95958 27.6792L6.77734 27.7068L6.78471 28.0221L7.96694 27.9944L7.95958 27.6792Z" fill="#79A5AE"/>
<path d="M8.5957 27.6934V28.0087H9.85713L9.77829 27.6934H8.5957Z" fill="#79A5AE"/>
<path d="M10.5684 27.6934V28.0087L11.6721 27.9299V27.6934H10.5684Z" fill="#79A5AE"/>
<path d="M12.3828 27.7722V27.9299H13.4866L13.4077 27.7722H12.3828Z" fill="#79A5AE"/>
<path d="M14.0371 27.6936V27.9301L15.2197 27.8513V27.6147L14.0371 27.6936Z" fill="#79A5AE"/>
<path d="M15.9297 27.6934V28.0087H17.1911V27.6934H15.9297Z" fill="#79A5AE"/>
<path d="M17.7422 27.6147V27.9301H18.8459V27.6147H17.7422Z" fill="#79A5AE"/>
<path d="M39.1055 16.7346V16.498H39.4208V16.7346H39.1055Z" fill="#F1EFE2"/>
<path d="M41.7871 16.1828V15.9463H42.1025V16.104L41.7871 16.1828Z" fill="#F1EFE2"/>
<path d="M41.709 16.3405V16.1829H42.0243V16.3405H41.709Z" fill="#F1EFE2"/>
<path d="M41.6289 16.4983V16.3406H41.8654L41.9443 16.4983H41.6289Z" fill="#F1EFE2"/>
<path d="M41.4707 16.7348V16.5771H41.7861V16.7348H41.4707Z" fill="#F1EFE2"/>
<path d="M43.5215 15.9463L43.6003 16.104H43.8368V15.9463H43.5215Z" fill="#F1EFE2"/>
<path d="M43.5202 16.2617L43.4414 16.104H43.8356V16.3405L43.5202 16.2617Z" fill="#F1EFE2"/>
<path d="M43.4414 16.4983V16.3406H43.7568V16.4983H43.4414Z" fill="#F1EFE2"/>
<path d="M43.2832 16.6557V16.498H43.5986V16.6557H43.2832Z" fill="#F1EFE2"/>
<path d="M18.4496 13.4234L17.9766 10.5063H27.6738L26.8854 13.4234H18.4496Z" fill="#996867"/>
<path d="M19.7914 10.1912C19.9491 9.95471 20.1068 9.40283 20.1068 9.40283L25.389 9.48167C25.389 9.48167 25.4678 10.0335 25.7043 10.2701C25.9409 10.5066 26.1774 10.5854 26.1774 10.5854H19.3184L19.7914 10.1912Z" fill="#D08C87"/>
<path d="M20.1055 8.61426V9.32381H20.1843V8.61426H20.1055Z" fill="#F1EFE2"/>
<path d="M20.4199 8.69336V9.32407H20.5776V8.69336H20.4199Z" fill="#F1EFE2"/>
<path d="M20.8159 8.69336H20.6582V9.32407H20.8159V8.69336Z" fill="#F1EFE2"/>
<path d="M20.8945 8.7722L20.9734 9.32407H21.0522V8.69336L20.8945 8.7722Z" fill="#F1EFE2"/>
<path d="M21.3667 8.77197H21.209V9.40269H21.3667V8.77197Z" fill="#F1EFE2"/>
<path d="M21.4453 8.77197V9.40269L21.603 9.32385V8.77197H21.4453Z" fill="#F1EFE2"/>
<path d="M21.7617 8.77197V9.40269H21.8406V8.77197H21.7617Z" fill="#F1EFE2"/>
<path d="M21.998 8.77197V9.40269H22.1557L22.0769 8.77197H21.998Z" fill="#F1EFE2"/>
<path d="M22.3125 8.77197V9.40269H22.3913V8.77197H22.3125Z" fill="#F1EFE2"/>
<path d="M22.5488 8.85083V9.40271H22.7065L22.6277 8.85083H22.5488Z" fill="#F1EFE2"/>
<path d="M22.8652 8.85083V9.40271H22.9441V8.85083H22.8652Z" fill="#F1EFE2"/>
<path d="M23.1016 8.85083V9.40271H23.1804V8.85083H23.1016Z" fill="#F1EFE2"/>
<path d="M23.3379 8.85081V9.40269H23.4167V8.77197L23.3379 8.85081Z" fill="#F1EFE2"/>
<path d="M23.6523 8.77197V9.40269H23.7312V8.77197H23.6523Z" fill="#F1EFE2"/>
<path d="M23.9695 8.77197H23.8906V9.40269H23.9695V8.77197Z" fill="#F1EFE2"/>
<path d="M24.127 8.77197V9.40269H24.2846L24.2058 8.77197H24.127Z" fill="#F1EFE2"/>
<path d="M24.5202 8.85083H24.4414V9.40271H24.5202V8.85083Z" fill="#F1EFE2"/>
<path d="M24.6777 8.85081V9.40269H24.7566V8.77197L24.6777 8.85081Z" fill="#F1EFE2"/>
<path d="M19.4766 27.7722V28.3241L22.4725 28.4029V27.6934L19.4766 27.7722Z" fill="#D08C87"/>
<path d="M23.1016 27.7722V28.4029L26.0975 28.3241V27.6934L23.1016 27.7722Z" fill="#D08C87"/>
<path d="M24.9961 8.77197V9.40269H25.0749V8.77197H24.9961Z" fill="#F1EFE2"/>
<path d="M25.2305 8.85083L25.3093 9.40271V8.85083H25.2305Z" fill="#F1EFE2"/>
<path d="M25.4673 8.6931V8.85078H20.1062L20.0273 8.61426L25.4673 8.6931Z" fill="#F1EFE2"/>
<path d="M19.0023 13.0293H26.5709C26.5709 13.0293 26.5709 13.187 26.6497 13.2658C26.7286 13.3447 26.9651 13.3447 26.9651 13.3447L18.5293 13.4235C18.5293 13.4235 18.8447 13.4235 18.9235 13.2658C19.0023 13.187 19.0023 13.0293 19.0023 13.0293Z" fill="#F4D6C5"/>
<path d="M18.4512 13.5022H26.9658V13.3445L18.4512 13.4233V13.5022Z" fill="#F1EFE2"/>
<path d="M18.6863 14.1329L18.6074 13.5811H26.9644L26.8067 14.2118C26.8067 14.2118 26.7279 13.8964 26.649 13.8964C26.5702 13.8964 26.4914 13.8176 26.4914 13.8176H19.0016C19.0016 13.8176 18.9228 13.8964 18.8439 13.9753C18.7651 14.0541 18.6863 14.1329 18.6863 14.1329Z" fill="#996867"/>
<path d="M18.8438 28.4029V13.6599H26.6488V28.4029H18.8438Z" fill="#D08C87"/>
<path d="M21.5242 23.7515L21.4453 24.3033H21.9972V23.7515H21.5242Z" fill="#6B6969"/>
<path d="M19.2402 27.6935V15.7099C19.2402 15.7099 19.7133 14.3696 20.7382 14.3696C21.7631 14.3696 22.5515 15.5522 22.5515 15.5522L22.6303 27.6935H19.2402Z" fill="#79A5AE"/>
<path d="M23.1799 27.6935L22.9434 15.6311C22.9434 15.6311 23.2587 14.4485 24.5201 14.4485C25.7816 14.4485 26.1758 15.6311 26.1758 15.6311V27.6147L23.1799 27.6935Z" fill="#79A5AE"/>
<path d="M22.9441 28.0086C23.4666 28.0086 23.8902 27.585 23.8902 27.0625C23.8902 26.54 23.4666 26.1165 22.9441 26.1165C22.4216 26.1165 21.998 26.54 21.998 27.0625C21.998 27.585 22.4216 28.0086 22.9441 28.0086Z" fill="#F1EFE2"/>
<path d="M18.8452 27.6933C18.9323 27.6933 19.0029 27.6227 19.0029 27.5356C19.0029 27.4485 18.9323 27.3779 18.8452 27.3779C18.7581 27.3779 18.6875 27.4485 18.6875 27.5356C18.6875 27.6227 18.7581 27.6933 18.8452 27.6933Z" fill="#F1EFE2"/>
<path d="M27.2807 27.6147C27.3678 27.6147 27.4384 27.5441 27.4384 27.457C27.4384 27.3699 27.3678 27.2993 27.2807 27.2993C27.1936 27.2993 27.123 27.3699 27.123 27.457C27.123 27.5441 27.1936 27.6147 27.2807 27.6147Z" fill="#F1EFE2"/>
<path d="M18.0547 27.457C18.0547 27.2993 18.2124 27.2205 18.2124 27.2205H19.0008V26.9051H19.7103C19.7103 26.9051 19.7892 26.5898 19.9468 26.4321C20.1833 26.2744 20.9717 26.3533 21.2083 26.1956C21.4448 26.1167 21.6025 25.9591 21.6813 25.8802C21.7601 25.8014 21.7601 25.6437 21.7601 25.6437H22.2332V25.3283L23.5734 25.2495V25.6437H24.0465C24.0465 25.6437 24.283 26.0379 24.5195 26.1956C24.756 26.3533 25.3079 26.2744 25.7021 26.3533C26.0963 26.4321 26.1751 26.9051 26.1751 26.9051H26.8847V27.2205H27.6731C27.6731 27.2205 27.8308 27.3782 27.7519 27.5359C27.6731 27.6935 27.5942 27.6935 27.5942 27.6935H27.3577V28.4819H26.6482V27.6935H26.4117L26.3328 27.2993H25.7809C25.7809 27.2993 25.8598 26.9051 25.6233 26.8263C25.3867 26.7475 24.8349 26.7475 24.5984 26.7475C24.3618 26.7475 23.8888 26.5109 23.8888 26.3533C23.81 26.1956 23.81 26.1167 23.81 26.1167H21.9967C21.9967 26.1167 21.6025 26.6686 21.3659 26.7475C21.0506 26.8263 20.7352 26.8263 20.5775 26.8263C20.341 26.8263 20.0257 26.984 20.0257 27.1417C20.0257 27.2993 20.0257 27.3782 20.0257 27.3782H19.4738V27.6935H19.0008V28.4031H18.4489V27.6935C18.4489 27.6935 18.2124 27.6935 18.1335 27.6935C18.0547 27.6147 18.0547 27.457 18.0547 27.457Z" fill="#D08C87"/>
<path d="M23.0226 25.9589C23.3274 25.9589 23.5745 25.853 23.5745 25.7224C23.5745 25.5917 23.3274 25.4858 23.0226 25.4858C22.7178 25.4858 22.4707 25.5917 22.4707 25.7224C22.4707 25.853 22.7178 25.9589 23.0226 25.9589Z" fill="#F1EFE2"/>
<path d="M22.7077 27.6932C22.7077 27.6144 22.7077 27.3779 22.7077 27.3779H22.7866C22.7866 27.3779 22.7866 27.2202 22.7866 27.1413C22.7866 27.0625 22.7866 27.0625 22.7077 26.9837C22.7077 26.9048 22.7077 26.826 22.7077 26.826C22.7077 26.826 22.6289 26.826 22.6289 26.7471C22.6289 26.6683 22.6289 26.5895 22.7077 26.5895C22.7866 26.5895 22.8654 26.6683 22.8654 26.6683C22.8654 26.6683 22.7866 26.5106 22.9443 26.5106C23.0231 26.5106 23.1019 26.4318 23.1019 26.5106C23.1019 26.5895 23.1019 26.6683 23.1019 26.6683C23.1019 26.6683 23.1808 26.5106 23.2596 26.5895C23.3385 26.5895 23.4173 26.6683 23.4173 26.7471C23.4173 26.826 23.3385 26.826 23.3385 26.826C23.3385 26.826 23.3385 26.9048 23.3385 26.9837C23.3385 27.1413 23.2596 27.1413 23.2596 27.2202C23.2596 27.299 23.2596 27.3779 23.2596 27.3779H23.3385V27.6932H22.7077Z" fill="#6B6969"/>
<path d="M26.4121 31.872L26.8063 32.9758H44.2298L42.7318 31.7144L26.4121 31.872Z" fill="#D08C87"/>
<path d="M2.68188 32.1084L19.4746 32.0295L19.2381 33.1333H1.57812L2.68188 32.1084Z" fill="#D08C87"/>
<path d="M2.05078 16.498L2.20846 32.5813H2.6815L2.36614 16.498H2.05078Z" fill="#F1EFE2"/>
<path d="M3.86328 16.7349L4.17864 32.5027H4.57283L4.17864 16.7349H3.86328Z" fill="#F1EFE2"/>
<path d="M6.30859 16.8923L6.54511 32.5025L6.93931 32.5814L6.62395 16.8923H6.30859Z" fill="#F1EFE2"/>
<path d="M8.12109 16.8137L8.43645 32.5816H8.67297L8.43645 16.7349L8.12109 16.8137Z" fill="#F1EFE2"/>
<path d="M19.2383 30.2951V34.3947H26.9645V29.9797L19.2383 30.2951Z" fill="#6B6969"/>
<path d="M19.3965 32.0295H26.5709L26.4132 31.8718H19.3965V32.0295Z" fill="#D08C87"/>
<path d="M9.93555 16.7346L10.2509 32.5025H10.4086L10.2509 16.6558L9.93555 16.7346Z" fill="#F1EFE2"/>
<path d="M18.6069 34.789H19.2376V30.374H18.4492L18.6069 34.789Z" fill="#F1EFE2"/>
<path d="M21.2096 30.374H20.5V34.789H21.2096V30.374Z" fill="#F1EFE2"/>
<path d="M22.7077 34.789L22.6289 30.374H23.4173V34.789H22.7077Z" fill="#F1EFE2"/>
<path d="M25.4672 30.374H24.9941V34.789H25.4672V30.374Z" fill="#F1EFE2"/>
<path d="M27.359 30.374H26.9648V34.789H27.359V30.374Z" fill="#F1EFE2"/>
<path d="M11.9077 32.5815L11.75 16.5771H12.0654L12.223 32.5815H11.9077Z" fill="#F1EFE2"/>
<path d="M13.7202 32.5814L13.5625 16.8923H13.799L14.0355 32.5814H13.7202Z" fill="#F1EFE2"/>
<path d="M15.4538 32.3448L15.375 16.8923H15.6115L15.6904 32.3448H15.4538Z" fill="#F1EFE2"/>
<path d="M17.5034 32.266L17.3457 16.8923H17.5822L17.7399 32.266H17.5034Z" fill="#F1EFE2"/>
<path d="M28.1452 31.8718L28.0664 16.8135H28.3818L28.4606 31.8718H28.1452Z" fill="#F1EFE2"/>
<path d="M29.8816 31.8718L29.8027 16.8135L30.0393 16.8923L30.1181 31.8718H29.8816Z" fill="#F1EFE2"/>
<path d="M27.8319 27.5356H30.1182L30.1971 27.9298L27.2012 28.0087L27.28 27.5356H27.8319Z" fill="#D08C87"/>
<path d="M26.6484 18.3115H29.9597L30.1174 18.7057H26.6484V18.3115Z" fill="#D08C87"/>
<path d="M26.6484 20.5979H30.0385L30.1174 20.9921L26.6484 21.0709V20.5979Z" fill="#D08C87"/>
<path d="M26.6484 22.9629H30.0385L30.1962 23.2782H26.6484V22.9629Z" fill="#D08C87"/>
<path d="M26.6484 25.1707H30.1174L30.1962 25.486H26.6484V25.1707Z" fill="#D08C87"/>
<path d="M28.7001 29.6643H30.0404L30.1981 30.1373H28.3848V29.6643H28.7001Z" fill="#D08C87"/>
<path d="M32.0098 16.2616L32.1674 32.0295H32.404L32.3251 15.9463L32.0098 16.2616Z" fill="#F1EFE2"/>
<path d="M34.0615 15.9463L33.7461 16.2616L33.9038 32.1872H34.2191L34.0615 15.9463Z" fill="#F1EFE2"/>
<path d="M35.6367 16.0251V32.1872H36.0309V16.0251H35.6367Z" fill="#F1EFE2"/>
<path d="M37.293 16.1829L37.3718 32.1872H37.766L37.5295 16.1829H37.293Z" fill="#F1EFE2"/>
<path d="M39.1055 16.1829V32.1872H39.4997L39.342 16.1829H39.1055Z" fill="#F1EFE2"/>
<path d="M41.4707 16.0251V32.0295H41.7861L41.7072 16.1828L41.4707 16.0251Z" fill="#F1EFE2"/>
<path d="M43.0469 16.104L43.2834 32.5814H43.5988L43.2834 16.0251L43.0469 16.104Z" fill="#F1EFE2"/>
<path d="M19.0023 18.3115H2.36719V18.4692H19.0023V18.3115Z" fill="#F1EFE2"/>
<path d="M26.8066 17.5232V18.2327H27.8316V17.602L26.8066 17.5232Z" fill="#79A5AE"/>
<path d="M29.4102 17.6809H28.543V18.2328H29.4102V17.6809Z" fill="#79A5AE"/>
<path d="M26.8066 16.656V17.2079H27.7527V16.656H26.8066Z" fill="#79A5AE"/>
<path d="M28.543 16.656V17.2079H29.4102V16.5771L28.543 16.656Z" fill="#79A5AE"/>
<path d="M27.7534 18.9424H26.7285V19.4154H27.7534V18.9424Z" fill="#79A5AE"/>
<path d="M27.8316 19.8096H26.8066V20.4403H27.8316V19.8096Z" fill="#79A5AE"/>
<path d="M29.489 19.8096H28.543V20.4403H29.489V19.8096Z" fill="#79A5AE"/>
<path d="M28.4629 19.1001V19.4943H29.4878L29.409 18.9424L28.4629 19.1001Z" fill="#79A5AE"/>
<path d="M26.8066 21.2288V21.7806H27.8316V21.3076L26.8066 21.2288Z" fill="#79A5AE"/>
<path d="M27.8316 22.0171H26.8066V22.6478H27.8316V22.0171Z" fill="#79A5AE"/>
<path d="M27.8323 23.5151H26.7285V23.9882H27.8323V23.5151Z" fill="#79A5AE"/>
<path d="M26.7285 24.1457V24.9341H27.8323V24.0669L26.7285 24.1457Z" fill="#79A5AE"/>
<path d="M28.4629 23.5151V23.9093H29.4878V23.5151H28.4629Z" fill="#79A5AE"/>
<path d="M29.4878 24.0669H28.4629V24.8553H29.4878V24.0669Z" fill="#79A5AE"/>
<path d="M28.4629 21.9382V22.6478H29.4878V21.8594L28.4629 21.9382Z" fill="#79A5AE"/>
<path d="M28.4629 21.3076V21.623H29.409V21.2288L28.4629 21.3076Z" fill="#79A5AE"/>
<path d="M23.418 16.8923V17.6807L23.9698 17.523L23.891 16.8923H23.418Z" fill="#6B6969"/>
<path d="M25.6261 21.6228H25.0742V22.3324H25.6261V21.6228Z" fill="#6B6969"/>
<path d="M20.0273 23.7515V24.3033H20.5004L20.4215 23.7515H20.0273Z" fill="#6B6969"/>
<path d="M20.0273 16.9714V17.681H20.5004L20.4215 16.9714H20.0273Z" fill="#6B6969"/>
<path d="M43.8346 15.3157H1.73438V16.0252H43.8346V15.3157Z" fill="#D08C87"/>
<path d="M44.072 13.9753H1.41992V14.2907H44.072V13.9753Z" fill="#D08C87"/>
<path d="M29.8027 19.0998L43.5208 18.9421L43.7573 19.0998L29.8816 19.3363L29.8027 19.0998Z" fill="#D08C87"/>
<path d="M29.959 21.3864L30.1167 21.6229L43.677 21.5441L43.4405 21.1499L29.959 21.3864Z" fill="#D08C87"/>
<path d="M29.8809 23.5937L30.0385 23.9879L43.8354 23.7514L43.4412 23.2783L29.8809 23.5937Z" fill="#D08C87"/>
<path d="M29.8809 25.7222L29.9597 25.9587H43.7566L43.4412 25.7222H29.8809Z" fill="#D08C87"/>
<path d="M29.959 28.0876L30.0378 28.403H43.677L43.204 28.0088L29.959 28.0876Z" fill="#D08C87"/>
<path d="M29.8809 30.374L29.9597 30.847L43.7566 30.6105L43.4412 30.1375L29.8809 30.374Z" fill="#D08C87"/>
<path d="M2.68164 16.8923L19.0802 16.9712V17.1289H2.68164V16.8923Z" fill="#D08C87"/>
<path d="M2.05026 18.9421L1.89258 19.494H18.843V19.1787L2.05026 18.9421Z" fill="#D08C87"/>
<path d="M2.05026 21.3862L1.89258 21.6227H18.843V21.2285L2.05026 21.3862Z" fill="#D08C87"/>
<path d="M2.1291 23.6726L1.89258 23.988H18.843V23.6726H2.1291Z" fill="#D08C87"/>
<path d="M1.97089 25.959L1.73438 26.2743H18.8425V25.8801L1.97089 25.959Z" fill="#D08C87"/>
<path d="M2.2067 28.2451L1.8125 28.7181L18.6053 28.6393V28.0874L2.2067 28.2451Z" fill="#D08C87"/>
<path d="M2.13086 30.8468L2.36738 30.5315H18.6871L18.8448 30.8468H2.13086Z" fill="#D08C87"/>
<path d="M2.83984 28.8759V29.4278H3.86475V28.7183L2.83984 28.8759Z" fill="#79A5AE"/>
<path d="M6.30868 28.7183H4.57422V29.4278H6.30868V28.7183Z" fill="#79A5AE"/>
<path d="M8.20088 28.7183H6.93945V29.4278H8.20088V28.7183Z" fill="#79A5AE"/>
<path d="M8.67383 28.7183L8.75267 29.5067L10.0141 29.4278V28.7971L8.67383 28.7183Z" fill="#79A5AE"/>
<path d="M10.4863 28.7183V29.5067H11.7478L11.6689 28.7183H10.4863Z" fill="#79A5AE"/>
<path d="M13.5615 28.7183H12.3789V29.4278H13.5615V28.7183Z" fill="#79A5AE"/>
<path d="M15.2183 28.7183H14.1934V29.4278H15.2183V28.7183Z" fill="#79A5AE"/>
<path d="M15.9277 28.8757V29.4276H17.268L17.1892 28.6392L15.9277 28.8757Z" fill="#79A5AE"/>
<path d="M2.76172 31.0835V31.8719H3.94431V31.0835H2.76172Z" fill="#79A5AE"/>
<path d="M6.38538 31.0835H4.80859V31.8719H6.38538V31.0835Z" fill="#79A5AE"/>
<path d="M8.27972 31.0835H6.93945V31.7142H8.27972V31.0835Z" fill="#79A5AE"/>
<path d="M10.0922 31.0835H8.75195V31.7142H10.0922V31.0835Z" fill="#79A5AE"/>
<path d="M11.749 31.0835H10.5664V31.7142H11.749V31.0835Z" fill="#79A5AE"/>
<path d="M13.5615 31.0835H12.3789V31.6354H13.5615V31.0835Z" fill="#79A5AE"/>
<path d="M15.2971 31.0835H14.1934V31.6354H15.2971V31.0835Z" fill="#79A5AE"/>
<path d="M15.9277 31.0835V31.6354H17.268V31.0835H15.9277Z" fill="#79A5AE"/>
<path d="M18.0547 31.0835V31.5565H18.6066L18.5277 31.0835H18.0547Z" fill="#79A5AE"/>
<path d="M26.9663 26.2741H27.7547L27.8335 25.801L26.8086 25.8799L26.9663 26.2741Z" fill="#79A5AE"/>
<path d="M26.9648 26.5105H27.7532V27.2201L26.9648 27.1412V26.5105Z" fill="#79A5AE"/>
<path d="M28.543 25.8796H29.489L29.4102 26.2738H28.543V25.8796Z" fill="#79A5AE"/>
<path d="M28.543 26.5105V27.1412H29.4102L29.489 26.4316L28.543 26.5105Z" fill="#79A5AE"/>
<path d="M29.41 28.4023H28.7793V29.2696H29.41V28.4023Z" fill="#79A5AE"/>
<path d="M27.8336 30.8467H27.4395V31.3986H27.8336V30.8467Z" fill="#79A5AE"/>
<path d="M29.489 30.689H28.543V31.5562H29.489V30.689Z" fill="#79A5AE"/>
<path d="M31.8541 30.8467H30.2773V31.3986H31.8541V30.8467Z" fill="#79A5AE"/>
<path d="M33.6675 30.8467H32.6426V31.5562H33.6675V30.8467Z" fill="#79A5AE"/>
<path d="M35.4019 30.8467H34.377V31.5562H35.4019V30.8467Z" fill="#79A5AE"/>
<path d="M37.2138 30.8467H36.0312V31.3986H37.2138V30.8467Z" fill="#79A5AE"/>
<path d="M38.9495 30.8467H37.8457V31.3197H38.9495V30.8467Z" fill="#79A5AE"/>
<path d="M41.1574 30.8467H39.7383V31.3986H41.1574V30.8467Z" fill="#79A5AE"/>
<path d="M41.7891 30.8467L41.8679 31.3986H43.0505V30.8467H41.7891Z" fill="#79A5AE"/>
<path d="M30.2773 26.5105V27.0624H31.6965V26.4316L30.2773 26.5105Z" fill="#79A5AE"/>
<path d="M30.2773 27.6142V27.9296H31.8541V27.5354L30.2773 27.6142Z" fill="#79A5AE"/>
<path d="M32.5645 26.5105V27.0624H33.5894V26.4316L32.5645 26.5105Z" fill="#79A5AE"/>
<path d="M33.5105 27.5354H32.5645V27.7719H33.5105V27.5354Z" fill="#79A5AE"/>
<path d="M34.2207 26.5105V27.0624H35.3245V26.4316L34.2207 26.5105Z" fill="#79A5AE"/>
<path d="M35.2456 27.5354H34.2207V27.8508H35.2456V27.5354Z" fill="#79A5AE"/>
<path d="M37.0562 26.4316H36.0312V26.9835H37.0562V26.4316Z" fill="#79A5AE"/>
<path d="M36.9773 27.5354H36.0312V27.8508H36.9773V27.5354Z" fill="#79A5AE"/>
<path d="M37.7676 26.353V27.2203H38.8713V26.353H37.7676Z" fill="#79A5AE"/>
<path d="M37.7676 27.6142V27.8508H38.7925V27.5354L37.7676 27.6142Z" fill="#79A5AE"/>
<path d="M39.502 26.5105V27.0624H41.0787V26.4316L39.502 26.5105Z" fill="#79A5AE"/>
<path d="M40.9999 27.5354H39.502V27.8508H40.9999V27.5354Z" fill="#79A5AE"/>
<path d="M41.8672 26.353V27.0626L42.8921 26.9837V26.353H41.8672Z" fill="#79A5AE"/>
<path d="M41.8672 27.5354V27.8508H42.9709L42.8921 27.5354H41.8672Z" fill="#79A5AE"/>
<path d="M41.7891 28.5603V29.191H42.814V28.4814L41.7891 28.5603Z" fill="#79A5AE"/>
<path d="M41.7891 29.8218V30.1371H42.814V29.8218H41.7891Z" fill="#79A5AE"/>
<path d="M40.9992 29.8218H39.5801V30.1371H40.9992V29.8218Z" fill="#79A5AE"/>
<path d="M39.502 28.4814V29.2698L41.0787 29.191V28.4814H39.502Z" fill="#79A5AE"/>
<path d="M37.7676 28.5603V29.2698H38.9502V28.4814L37.7676 28.5603Z" fill="#79A5AE"/>
<path d="M37.7676 29.8218V30.1371H38.9502V29.8218H37.7676Z" fill="#79A5AE"/>
<path d="M36.0312 28.5603V29.4275L37.2138 29.3487V28.5603H36.0312Z" fill="#79A5AE"/>
<path d="M36.0896 29.8326L36.0859 30.1479L37.1896 30.1608L37.1932 29.8455L36.0896 29.8326Z" fill="#79A5AE"/>
<path d="M34.2207 28.4814V29.2698H35.3245V28.4814H34.2207Z" fill="#79A5AE"/>
<path d="M34.2207 29.8218V30.1371H35.4033V29.8218H34.2207Z" fill="#79A5AE"/>
<path d="M32.4844 29.9006V30.1371H33.667V29.8218L32.4844 29.9006Z" fill="#79A5AE"/>
<path d="M32.4844 28.6391V29.3487H33.5881V28.5603L32.4844 28.6391Z" fill="#79A5AE"/>
<path d="M30.1992 28.6391V29.2699H31.6972V28.5603L30.1992 28.6391Z" fill="#79A5AE"/>
<path d="M30.1992 29.8218V30.1371H31.8548V29.8218H30.1992Z" fill="#79A5AE"/>
<path d="M32.4863 24.303V24.776H33.5112V24.2241L32.4863 24.303Z" fill="#79A5AE"/>
<path d="M33.5112 25.3279H32.4863V25.5644H33.5112V25.3279Z" fill="#79A5AE"/>
<path d="M34.2207 24.2241V24.8548H35.2456V24.2241H34.2207Z" fill="#79A5AE"/>
<path d="M35.2456 25.3279H34.2207V25.6432H35.2456V25.3279Z" fill="#79A5AE"/>
<path d="M37.137 24.1453H36.0332V24.6971H37.137V24.1453Z" fill="#79A5AE"/>
<path d="M37.0581 25.2488H36.0332V25.5641H37.0581V25.2488Z" fill="#79A5AE"/>
<path d="M37.7676 24.1453V24.9337H38.9502V24.1453H37.7676Z" fill="#79A5AE"/>
<path d="M37.7676 25.4067V25.5644H38.8713V25.3279L37.7676 25.4067Z" fill="#79A5AE"/>
<path d="M39.5801 24.2241V24.8548H41.078V24.1453L39.5801 24.2241Z" fill="#79A5AE"/>
<path d="M41.078 25.2488H39.5801V25.5641H41.078V25.2488Z" fill="#79A5AE"/>
<path d="M41.9473 24.1453V24.776H42.9722V24.1453H41.9473Z" fill="#79A5AE"/>
<path d="M41.9473 25.2488V25.5641L43.051 25.643L42.9722 25.2488H41.9473Z" fill="#79A5AE"/>
<path d="M31.776 25.3279H30.1992V25.6432H31.776V25.3279Z" fill="#79A5AE"/>
<path d="M30.1992 24.2241V24.9337H31.6972V24.2241H30.1992Z" fill="#79A5AE"/>
<path d="M32.4863 21.8591V22.411H33.5112V21.7803L32.4863 21.8591Z" fill="#79A5AE"/>
<path d="M33.5112 22.9629H32.4863V23.2782H33.5112V22.9629Z" fill="#79A5AE"/>
<path d="M34.1426 21.7803V22.4898H35.2463V21.7803H34.1426Z" fill="#79A5AE"/>
<path d="M35.1675 22.9629H34.1426V23.2782H35.1675V22.9629Z" fill="#79A5AE"/>
<path d="M37.137 21.7014H36.0332V22.3321H37.137V21.7014Z" fill="#79A5AE"/>
<path d="M37.0581 22.9629H36.0332V23.3571H37.0581V22.9629Z" fill="#79A5AE"/>
<path d="M37.7676 21.6228V22.5689H38.9502V21.7016L37.7676 21.6228Z" fill="#79A5AE"/>
<path d="M37.7676 23.0417V23.2782H38.7925V22.9629L37.7676 23.0417Z" fill="#79A5AE"/>
<path d="M39.5801 21.7803V22.4898H41.078V21.7014L39.5801 21.7803Z" fill="#79A5AE"/>
<path d="M41.078 22.9629H39.5801V23.2782H41.078V22.9629Z" fill="#79A5AE"/>
<path d="M41.9473 21.7014V22.411L42.9722 22.3321V21.7014H41.9473Z" fill="#79A5AE"/>
<path d="M41.9473 22.9629V23.2782L43.051 23.3571L42.9722 22.9629H41.9473Z" fill="#79A5AE"/>
<path d="M31.776 23.0417H30.1992V23.3571H31.776V23.0417Z" fill="#79A5AE"/>
<path d="M30.1992 21.7803V22.5686H31.6972V21.7014L30.1992 21.7803Z" fill="#79A5AE"/>
<path d="M32.4863 19.7302V20.2032H33.5112V19.6514L32.4863 19.7302Z" fill="#79A5AE"/>
<path d="M33.5112 20.7551H32.4863V20.9916H33.5112V20.7551Z" fill="#79A5AE"/>
<path d="M34.2207 19.7302V20.2821H35.2456V19.6514L34.2207 19.7302Z" fill="#79A5AE"/>
<path d="M35.2456 20.7551H34.2207V21.0705H35.2456V20.7551Z" fill="#79A5AE"/>
<path d="M37.137 19.6514H36.0332V20.2032H37.137V19.6514Z" fill="#79A5AE"/>
<path d="M37.0581 20.7551H36.0332V21.0705H37.0581V20.7551Z" fill="#79A5AE"/>
<path d="M37.7676 19.5725V20.3609H38.9502V19.5725H37.7676Z" fill="#79A5AE"/>
<path d="M37.8457 20.834V20.9916H38.8706V20.7551L37.8457 20.834Z" fill="#79A5AE"/>
<path d="M39.5801 19.7302V20.2821H41.1569V19.6514L39.5801 19.7302Z" fill="#79A5AE"/>
<path d="M41.078 20.7551H39.5801V21.0705H41.078V20.7551Z" fill="#79A5AE"/>
<path d="M41.9473 19.5725V20.2032H43.051V19.5725H41.9473Z" fill="#79A5AE"/>
<path d="M41.9473 20.7551V20.9916L43.1299 21.0705L43.051 20.7551H41.9473Z" fill="#79A5AE"/>
<path d="M31.776 20.7551H30.1992V21.0705H31.776V20.7551Z" fill="#79A5AE"/>
<path d="M30.1992 19.6514V20.3609H31.6972V19.6514H30.1992Z" fill="#79A5AE"/>
<path d="M32.4082 17.0495V17.7591H33.512V16.9707L32.4082 17.0495Z" fill="#79A5AE"/>
<path d="M33.4331 18.469H32.4082V18.8632H33.4331V18.469Z" fill="#79A5AE"/>
<path d="M34.1426 16.9707V17.8379H35.2463V16.9707H34.1426Z" fill="#79A5AE"/>
<path d="M35.1675 18.469H34.1426V18.942H35.1675V18.469Z" fill="#79A5AE"/>
<path d="M37.0588 16.8918H35.9551V17.6802H37.0588V16.8918Z" fill="#79A5AE"/>
<path d="M36.9012 18.3899H35.9551V18.8629H36.9012V18.3899Z" fill="#79A5AE"/>
<path d="M37.6895 16.8132V17.917H38.872V16.8132H37.6895Z" fill="#79A5AE"/>
<path d="M37.7676 18.5478V18.8632H38.7925V18.469L37.7676 18.5478Z" fill="#79A5AE"/>
<path d="M39.502 16.9707V17.8379H40.9999V16.8918L39.502 16.9707Z" fill="#79A5AE"/>
<path d="M40.9999 18.3899H39.502V18.7841H40.9999V18.3899Z" fill="#79A5AE"/>
<path d="M41.8691 16.8132V17.7593L42.8941 17.6805V16.8132H41.8691Z" fill="#79A5AE"/>
<path d="M41.8691 18.3899V18.8629H42.9729L42.8941 18.3899H41.8691Z" fill="#79A5AE"/>
<path d="M31.776 18.5476H30.1992V19.0206H31.776V18.5476Z" fill="#79A5AE"/>
<path d="M30.1992 16.9707V17.9168H31.6972V16.8918L30.1992 16.9707Z" fill="#79A5AE"/>
<path d="M2.75977 33.3699V34.0006H3.94236V33.3699H2.75977Z" fill="#6B6969"/>
<path d="M4.65234 33.3698V34.0006H6.15029L6.07145 33.2122L4.65234 33.3698Z" fill="#6B6969"/>
<path d="M8.35713 33.3699H7.0957V33.8429H8.35713V33.3699Z" fill="#6B6969"/>
<path d="M18.6854 33.2122H18.0547V33.8429H18.6854V33.2122Z" fill="#6B6969"/>
<path d="M9.85375 33.3699H8.75V33.8429H9.85375V33.3699Z" fill="#6B6969"/>
<path d="M10.6426 33.2122V33.9217H11.7463L11.6675 33.2122H10.6426Z" fill="#6B6969"/>
<path d="M12.3777 33.2122L12.2988 33.9217H13.4026V33.2122H12.3777Z" fill="#6B6969"/>
<path d="M14.032 33.2122L13.9531 33.9217H15.3722L15.2146 33.2122H14.032Z" fill="#6B6969"/>
<path d="M15.9265 33.2122L15.8477 33.9217H17.1879V33.2122H15.9265Z" fill="#6B6969"/>
<path d="M27.3574 33.2122V33.8429H28.54V33.2122H27.3574Z" fill="#6B6969"/>
<path d="M29.25 33.2121V33.8429H30.7479L30.6691 33.1333L29.25 33.2121Z" fill="#6B6969"/>
<path d="M32.9548 33.2122H31.6934V33.6852H32.9548V33.2122Z" fill="#6B6969"/>
<path d="M34.4514 33.2122H33.3477V33.6852H34.4514V33.2122Z" fill="#6B6969"/>
<path d="M35.2402 33.1333V33.764H36.344L36.2651 33.1333H35.2402Z" fill="#6B6969"/>
<path d="M36.9753 33.1333L36.8965 33.764H38.0002V33.1333H36.9753Z" fill="#6B6969"/>
<path d="M38.6296 33.1333L38.5508 33.764H39.9699L39.8122 33.1333H38.6296Z" fill="#6B6969"/>
<path d="M40.5242 33.1333L40.4453 33.764H41.7856V33.1333H40.5242Z" fill="#6B6969"/>
<path d="M43.2831 33.1333H42.6523V33.764H43.2831V33.1333Z" fill="#6B6969"/>
<path d="M17.2676 28.4031V30.3741H18.6867H28.7781L28.6993 28.4031H17.2676Z" fill="#F1EFE2"/>
<path d="M4.25924 33.2122H4.10156V34.3947H4.25924V33.2122Z" fill="#F1EFE2"/>
<path d="M6.86276 33.1333H6.70508V34.5524H6.86276V33.1333Z" fill="#F1EFE2"/>
<path d="M2.21041 33.1333H2.05273V34.4736H2.21041V33.1333Z" fill="#F1EFE2"/>
<path d="M8.67526 33.1333H8.51758V34.5524H8.67526V33.1333Z" fill="#F1EFE2"/>
<path d="M10.4096 33.1333H10.252V34.5524H10.4096V33.1333Z" fill="#F1EFE2"/>
<path d="M12.1907 33.1302L12.0332 33.1379L12.0989 34.4766L12.2564 34.4689L12.1907 33.1302Z" fill="#F1EFE2"/>
<path d="M13.8784 33.1333H13.7207V34.5524H13.8784V33.1333Z" fill="#F1EFE2"/>
<path d="M15.5722 33.0781L15.5391 34.418L15.6967 34.4219L15.7299 33.082L15.5722 33.0781Z" fill="#F1EFE2"/>
<path d="M17.5835 33.1333H17.4258V34.5524H17.5835V33.1333Z" fill="#F1EFE2"/>
<path d="M31.3003 32.9761H31.1426V34.1587H31.3003V32.9761Z" fill="#F1EFE2"/>
<path d="M33.3491 32.9761H33.1914V34.3952H33.3491V32.9761Z" fill="#F1EFE2"/>
<path d="M28.935 32.9761H28.7773V34.3163H28.935V32.9761Z" fill="#F1EFE2"/>
<path d="M35.1635 32.897H35.0059V34.3161H35.1635V32.897Z" fill="#F1EFE2"/>
<path d="M36.8979 32.897H36.7402V34.3161H36.8979V32.897Z" fill="#F1EFE2"/>
<path d="M38.3645 32.9742L38.207 32.9819L38.2727 34.3206L38.4302 34.3129L38.3645 32.9742Z" fill="#F1EFE2"/>
<path d="M40.3667 32.9761H40.209V34.3952H40.3667V32.9761Z" fill="#F1EFE2"/>
<path d="M42.082 32.9277L42.0488 34.2676L42.2065 34.2715L42.2396 32.9316L42.082 32.9277Z" fill="#F1EFE2"/>
<path d="M43.6344 32.9977L43.5938 34.4163L43.7514 34.4208L43.792 33.0022L43.6344 32.9977Z" fill="#F1EFE2"/>
</g>
</svg>
