<svg width="4064" height="631" viewBox="0 0 4064 631" fill="none" xmlns="http://www.w3.org/2000/svg">
<path opacity="0.3" d="M47.5004 317.866C59.0002 308.546 24.0004 276.86 59.0004 268.472C94.0004 260.085 106.5 352.348 66.5004 322.526C26.5004 292.703 286.282 254.531 486 264.094C570.982 268.163 551.5 288.043 602 282.452C652.5 276.86 615.691 209.854 667.5 193.916C719.309 177.977 769 197.177 796.5 219.078C812.022 231.44 874.5 285.995 1043 251.046C1211.5 216.098 1285 225.417 1493 264.094C1701 302.77 1728.5 329.981 1866.5 337.903C2004.5 345.824 1958 251.046 2091 251.046C2224 251.046 2244.5 374.715 2321 374.715C2452 374.715 2428.98 205.565 2519.5 205.565C2680.5 205.565 2751.05 313.259 2914.5 322.06C3165.5 335.573 3168.5 395.5 3277.5 393.636C3364.7 392.145 3467.17 341.135 3507.5 315.817C3532 296.929 3605.2 260.55 3702 266.142C3724.5 266.261 3776.2 270.4 3803 286C3888.5 335.769 3961.5 327 3977.5 325.5C3993.5 324 4039 323 4062.5 304.5" stroke="#403F3C" stroke-width="3"/>
<path d="M247 46.6653H220.225V493.073H196" stroke="#D9D7CB" stroke-width="2"/>
<path d="M1079 202.302V442.748H1055" stroke="#D9D7CB" stroke-width="2"/>
<path d="M1200 185.527V483.754H1176" stroke="#D9D7CB" stroke-width="2"/>
<path d="M1282 87.6719V370.521" stroke="#D9D7CB" stroke-width="2"/>
<path d="M647 93.7292V446.475" stroke="#D9D7CB" stroke-width="2"/>
<path d="M1421 27.0945V475.366M1421 545.263V475.366M1421 475.366H1393" stroke="#D9D7CB" stroke-width="2"/>
<path d="M752 151.045V513.111" stroke="#D9D7CB" stroke-width="2"/>
<path d="M247 272.199L247 541.535" stroke="#D9D7CB" stroke-width="2"/>
<line x1="49" y1="316.933" x2="49" y2="416.653" stroke="#D9D7CB" stroke-width="2"/>
<path d="M362 264.745L362 353.747" stroke="#D9D7CB" stroke-width="2"/>
<path d="M156 215.349L156 281.518" stroke="#D9D7CB" stroke-width="2"/>
<path d="M319 239.581L319 265.21" stroke="#D9D7CB" stroke-width="2"/>
<path d="M199 280.587L199 315.07L199 349.552" stroke="#D9D7CB" stroke-width="2"/>
<path d="M406 96.0601L406 261.016" stroke="#D9D7CB" stroke-width="2"/>
<path d="M468 195.78L468 260.551" stroke="#D9D7CB" stroke-width="2"/>
<path d="M505.5 61.5764L505.5 479.559" stroke="#D9D7CB" stroke-width="2"/>
<path d="M433 261.016L433 305.284" stroke="#D9D7CB" stroke-width="2"/>
<path d="M579.5 282.446L579.5 334.174" stroke="#D9D7CB" stroke-width="2"/>
<path d="M935.5 261.943L935.5 309.011" stroke="#D9D7CB" stroke-width="2"/>
<path d="M804.072 224.67L804.072 322.52" stroke="#D9D7CB" stroke-width="2"/>
<path d="M1341 205.099L1341 235.853" stroke="#D9D7CB" stroke-width="2"/>
<line y1="-1" x2="31.6863" y2="-1" transform="matrix(0.000644001 1 -1 0.000559343 864 218.146)" stroke="#D9D7CB" stroke-width="2"/>
<path d="M1004.52 95.1277L1004.52 255.424" stroke="#D9D7CB" stroke-width="2"/>
<path d="M1200.5 368.187L1170 368.186" stroke="#D9D7CB" stroke-width="2"/>
<path d="M1617 61.5764V379.84M1617 473.036V379.84M1617 379.84H1589" stroke="#D9D7CB" stroke-width="2"/>
<path d="M2963 94V404M2963 532.02V404M2963 404H2935" stroke="#D9D7CB" stroke-width="2"/>
<path d="M1904 60.1787V117.96M1904 402.673H1876M1904 402.673V529.419M1904 402.673V135.201M1904 117.96H1876M1904 117.96V135.201M1904 135.201H1933.5" stroke="#D9D7CB" stroke-width="2"/>
<path d="M2306.24 40.6079V249.832M2306.24 458.5H2278M2306.24 458.5V101.494M2306.24 458.5V479.094M2306.24 528.487V479.094M2306.24 249.832H2333M2306.24 249.832L2306.24 101.494M2306.24 101.494H2336M2306.24 479.094H2333" stroke="#D9D7CB" stroke-width="2"/>
<path d="M3171.24 31.2883V130.076M3171.24 378.5H3143M3171.24 378.5V255M3171.24 378.5V440.418M3171.24 515.44V440.418M3171.24 130.076H3143M3171.24 130.076V255M3171.24 255H3263M3171.24 440.418H3228.5" stroke="#D9D7CB" stroke-width="2"/>
<path d="M2668.74 0V48M2668.74 469.288H2601M2668.74 469.288L2668.74 536.389L2668.74 548.97M2668.74 469.288L2668.74 375.5M2668.74 32H2574M2668.74 32V48M2668.74 32L2668.74 65.9862V128M2668.74 128H2710M2668.74 128V139.812M2668.74 263.791H2535M2668.74 263.791V331.358M2668.74 263.791L2668.74 224M2668.74 331.358H2767M2668.74 331.358V375.5M2668.74 375.5H2561M2668.74 375.5V415H2728M2668.74 224H2842M2668.74 224L2668.74 139.812M2668.74 139.812H2593.5M2668.74 48H2767" stroke="#D9D7CB" stroke-width="2"/>
<path d="M3544.74 54.7544V108.342M3544.74 472.737H3516.5M3544.74 472.737V547.76M3544.74 472.737V498.863V422.767V370.688M3544.74 131.921H3516.5M3544.74 131.921V108.342M3544.74 131.921V179.605M3544.74 179.605H3588.5M3544.74 179.605V222.762M3544.74 370.688H3583.5M3544.74 370.688V222.762M3544.74 222.762H3497M3544.74 108.342H3574.5" stroke="#D9D7CB" stroke-width="2"/>
<path d="M3863 572.56L3863 495.382M3863 125.687H3887.49M3863 125.687V94M3863 125.687L3863 159.373V232.955M3907 476.568H3863V495.382M3863 403H3778M3863 403L3863 374.519M3863 403L3863 495.382M3863 287.847V232.955M3863 287.847L3863 374.519M3863 287.847H3778M3863 232.955H3907M3863 374.519H3974.5M3863 495.382H3815" stroke="#D9D7CB" stroke-width="2"/>
<path d="M2040 308.683H2074M2040 308.683V422.245M2040 308.683V69.0332" stroke="#D9D7CB" stroke-width="2"/>
<path d="M2176 373L2176 186" stroke="#D9D7CB" stroke-width="2"/>
<line y1="-1" x2="31.6863" y2="-1" transform="matrix(0.000644001 1 -1 0.000559344 1802 296.431)" stroke="#D9D7CB" stroke-width="2"/>
<line x1="1502" y1="254.493" x2="1502" y2="262.88" stroke="#D9D7CB" stroke-width="2"/>
<path d="M12.0977 606.515V615.789H10.5679V608.331L8.30176 609.099V607.835L11.9136 606.515H12.0977ZM16.541 614.583H16.668C17.252 614.583 17.7386 614.507 18.1279 614.354C18.5215 614.198 18.8346 613.982 19.0674 613.707C19.3001 613.432 19.4673 613.108 19.5688 612.736C19.6704 612.363 19.7212 611.959 19.7212 611.523V609.93C19.7212 609.554 19.681 609.223 19.6006 608.94C19.5244 608.652 19.4144 608.413 19.2705 608.223C19.1309 608.028 18.9679 607.882 18.7817 607.785C18.5998 607.687 18.403 607.639 18.1914 607.639C17.9587 607.639 17.7492 607.692 17.563 607.797C17.381 607.899 17.2266 608.041 17.0996 608.223C16.9769 608.4 16.8817 608.61 16.814 608.851C16.7505 609.088 16.7188 609.342 16.7188 609.613C16.7188 609.867 16.7484 610.112 16.8076 610.349C16.8711 610.582 16.9642 610.789 17.0869 610.971C17.2096 611.153 17.3641 611.297 17.5503 611.403C17.7365 611.509 17.9544 611.562 18.2041 611.562C18.4411 611.562 18.659 611.517 18.8579 611.428C19.0568 611.335 19.2303 611.21 19.3784 611.054C19.5265 610.897 19.6429 610.722 19.7275 610.527C19.8122 610.332 19.8587 610.133 19.8672 609.93L20.4512 610.108C20.4512 610.43 20.3835 610.747 20.248 611.06C20.1169 611.369 19.9328 611.653 19.6958 611.911C19.4631 612.165 19.1901 612.368 18.877 612.52C18.568 612.672 18.2316 612.749 17.8677 612.749C17.4276 612.749 17.0382 612.666 16.6997 612.501C16.3654 612.332 16.0861 612.103 15.8618 611.815C15.6418 611.528 15.4767 611.198 15.3667 610.825C15.2567 610.453 15.2017 610.061 15.2017 609.651C15.2017 609.207 15.2694 608.79 15.4048 608.4C15.5402 608.011 15.737 607.668 15.9951 607.372C16.2533 607.072 16.5664 606.839 16.9346 606.674C17.307 606.505 17.728 606.42 18.1978 606.42C18.6971 606.42 19.1351 606.517 19.5117 606.712C19.8883 606.907 20.2057 607.175 20.4639 607.518C20.722 607.861 20.9167 608.259 21.0479 608.711C21.179 609.164 21.2446 609.651 21.2446 610.171V610.711C21.2446 611.257 21.196 611.784 21.0986 612.292C21.0013 612.795 20.8426 613.263 20.6226 613.694C20.4067 614.122 20.1211 614.498 19.7656 614.824C19.4144 615.146 18.9827 615.398 18.4707 615.58C17.9629 615.757 17.3662 615.846 16.6807 615.846H16.541V614.583ZM27.3193 606.49H27.5098V607.74H27.4019C26.856 607.74 26.3841 607.825 25.9863 607.994C25.5928 608.163 25.269 608.396 25.0151 608.692C24.7612 608.989 24.5708 609.336 24.4438 609.733C24.3211 610.127 24.2598 610.546 24.2598 610.99V612.444C24.2598 612.812 24.3 613.138 24.3804 613.421C24.4608 613.701 24.5729 613.936 24.7168 614.126C24.8649 614.312 25.0342 614.454 25.2246 614.551C25.415 614.649 25.6203 614.697 25.8403 614.697C26.0688 614.697 26.2762 614.651 26.4624 614.558C26.6486 614.46 26.8073 614.327 26.9385 614.158C27.0697 613.988 27.1691 613.787 27.2368 613.555C27.3045 613.322 27.3384 613.068 27.3384 612.793C27.3384 612.531 27.3045 612.285 27.2368 612.057C27.1733 611.824 27.0781 611.621 26.9512 611.447C26.8242 611.27 26.6655 611.132 26.4751 611.035C26.2889 610.933 26.0731 610.882 25.8276 610.882C25.5229 610.882 25.2458 610.954 24.9961 611.098C24.7507 611.242 24.5518 611.43 24.3994 611.663C24.2513 611.892 24.1709 612.135 24.1582 612.393L23.5742 612.203C23.6081 611.809 23.6948 611.456 23.8345 611.143C23.9784 610.829 24.1667 610.563 24.3994 610.343C24.6322 610.123 24.9009 609.956 25.2056 609.841C25.5145 609.723 25.853 609.664 26.2212 609.664C26.6698 609.664 27.0591 609.748 27.3892 609.917C27.7192 610.087 27.9922 610.317 28.208 610.609C28.4281 610.897 28.591 611.227 28.6968 611.6C28.8068 611.968 28.8618 612.353 28.8618 612.755C28.8618 613.199 28.7941 613.614 28.6587 613.999C28.5233 614.38 28.3244 614.714 28.062 615.002C27.8039 615.29 27.4886 615.514 27.1162 615.675C26.748 615.836 26.3291 615.916 25.8594 615.916C25.3643 615.916 24.922 615.821 24.5327 615.63C24.1476 615.44 23.8197 615.178 23.5488 614.843C23.2822 614.509 23.0791 614.124 22.9395 613.688C22.7998 613.252 22.73 612.791 22.73 612.304V611.669C22.73 610.967 22.8188 610.305 22.9966 609.683C23.1743 609.056 23.4473 608.504 23.8154 608.026C24.1878 607.548 24.6639 607.173 25.2437 606.902C25.8234 606.627 26.5153 606.49 27.3193 606.49ZM36.1108 610.394V611.904C36.1108 612.628 36.0389 613.246 35.895 613.758C35.7554 614.266 35.5522 614.678 35.2856 614.996C35.019 615.313 34.6995 615.546 34.3271 615.694C33.959 615.842 33.5464 615.916 33.0894 615.916C32.7254 615.916 32.3869 615.869 32.0737 615.776C31.7648 615.683 31.4855 615.537 31.2358 615.338C30.9862 615.139 30.7725 614.883 30.5947 614.57C30.4212 614.253 30.2858 613.874 30.1885 613.434C30.0954 612.994 30.0488 612.484 30.0488 611.904V610.394C30.0488 609.666 30.1208 609.052 30.2646 608.553C30.4085 608.049 30.6138 607.641 30.8804 607.328C31.147 607.01 31.4644 606.78 31.8325 606.636C32.2049 606.492 32.6196 606.42 33.0767 606.42C33.4448 606.42 33.7834 606.466 34.0923 606.56C34.4054 606.648 34.6847 606.79 34.9302 606.985C35.1799 607.18 35.3914 607.433 35.5649 607.747C35.7427 608.056 35.8781 608.43 35.9712 608.87C36.0643 609.306 36.1108 609.814 36.1108 610.394ZM34.5811 612.12V610.165C34.5811 609.797 34.5599 609.473 34.5176 609.194C34.4753 608.91 34.4118 608.671 34.3271 608.477C34.2467 608.278 34.1452 608.117 34.0225 607.994C33.8997 607.867 33.7601 607.776 33.6035 607.721C33.4469 607.662 33.2713 607.632 33.0767 607.632C32.8397 607.632 32.6281 607.679 32.4419 607.772C32.2557 607.861 32.0991 608.005 31.9722 608.204C31.8452 608.403 31.7479 608.665 31.6802 608.991C31.6167 609.312 31.585 609.704 31.585 610.165V612.12C31.585 612.493 31.6061 612.82 31.6484 613.104C31.6908 613.388 31.7542 613.631 31.8389 613.834C31.9235 614.033 32.0251 614.198 32.1436 614.329C32.2663 614.456 32.4059 614.549 32.5625 614.608C32.7233 614.668 32.8989 614.697 33.0894 614.697C33.3306 614.697 33.5443 614.651 33.7305 614.558C33.9167 614.465 34.0732 614.316 34.2002 614.113C34.3271 613.906 34.4224 613.637 34.4858 613.307C34.5493 612.977 34.5811 612.581 34.5811 612.12Z" fill="#3A3A3A"/>
<path d="M79.0977 606.515V615.789H77.5679V608.331L75.3018 609.099V607.835L78.9136 606.515H79.0977ZM83.541 614.583H83.668C84.252 614.583 84.7386 614.507 85.1279 614.354C85.5215 614.198 85.8346 613.982 86.0674 613.707C86.3001 613.432 86.4673 613.108 86.5688 612.736C86.6704 612.363 86.7212 611.959 86.7212 611.523V609.93C86.7212 609.554 86.681 609.223 86.6006 608.94C86.5244 608.652 86.4144 608.413 86.2705 608.223C86.1309 608.028 85.9679 607.882 85.7817 607.785C85.5998 607.687 85.403 607.639 85.1914 607.639C84.9587 607.639 84.7492 607.692 84.563 607.797C84.381 607.899 84.2266 608.041 84.0996 608.223C83.9769 608.4 83.8817 608.61 83.814 608.851C83.7505 609.088 83.7188 609.342 83.7188 609.613C83.7188 609.867 83.7484 610.112 83.8076 610.349C83.8711 610.582 83.9642 610.789 84.0869 610.971C84.2096 611.153 84.3641 611.297 84.5503 611.403C84.7365 611.509 84.9544 611.562 85.2041 611.562C85.4411 611.562 85.659 611.517 85.8579 611.428C86.0568 611.335 86.2303 611.21 86.3784 611.054C86.5265 610.897 86.6429 610.722 86.7275 610.527C86.8122 610.332 86.8587 610.133 86.8672 609.93L87.4512 610.108C87.4512 610.43 87.3835 610.747 87.248 611.06C87.1169 611.369 86.9328 611.653 86.6958 611.911C86.4631 612.165 86.1901 612.368 85.877 612.52C85.568 612.672 85.2316 612.749 84.8677 612.749C84.4276 612.749 84.0382 612.666 83.6997 612.501C83.3654 612.332 83.0861 612.103 82.8618 611.815C82.6418 611.528 82.4767 611.198 82.3667 610.825C82.2567 610.453 82.2017 610.061 82.2017 609.651C82.2017 609.207 82.2694 608.79 82.4048 608.4C82.5402 608.011 82.737 607.668 82.9951 607.372C83.2533 607.072 83.5664 606.839 83.9346 606.674C84.307 606.505 84.728 606.42 85.1978 606.42C85.6971 606.42 86.1351 606.517 86.5117 606.712C86.8883 606.907 87.2057 607.175 87.4639 607.518C87.722 607.861 87.9167 608.259 88.0479 608.711C88.179 609.164 88.2446 609.651 88.2446 610.171V610.711C88.2446 611.257 88.196 611.784 88.0986 612.292C88.0013 612.795 87.8426 613.263 87.6226 613.694C87.4067 614.122 87.1211 614.498 86.7656 614.824C86.4144 615.146 85.9827 615.398 85.4707 615.58C84.9629 615.757 84.3662 615.846 83.6807 615.846H83.541V614.583ZM95.8364 606.547V607.385L92.1421 615.789H90.5298L94.2178 607.766H89.4316V606.547H95.8364ZM103.111 610.394V611.904C103.111 612.628 103.039 613.246 102.895 613.758C102.755 614.266 102.552 614.678 102.286 614.996C102.019 615.313 101.7 615.546 101.327 615.694C100.959 615.842 100.546 615.916 100.089 615.916C99.7254 615.916 99.3869 615.869 99.0737 615.776C98.7648 615.683 98.4855 615.537 98.2358 615.338C97.9862 615.139 97.7725 614.883 97.5947 614.57C97.4212 614.253 97.2858 613.874 97.1885 613.434C97.0954 612.994 97.0488 612.484 97.0488 611.904V610.394C97.0488 609.666 97.1208 609.052 97.2646 608.553C97.4085 608.049 97.6138 607.641 97.8804 607.328C98.147 607.01 98.4644 606.78 98.8325 606.636C99.2049 606.492 99.6196 606.42 100.077 606.42C100.445 606.42 100.783 606.466 101.092 606.56C101.405 606.648 101.685 606.79 101.93 606.985C102.18 607.18 102.391 607.433 102.565 607.747C102.743 608.056 102.878 608.43 102.971 608.87C103.064 609.306 103.111 609.814 103.111 610.394ZM101.581 612.12V610.165C101.581 609.797 101.56 609.473 101.518 609.194C101.475 608.91 101.412 608.671 101.327 608.477C101.247 608.278 101.145 608.117 101.022 607.994C100.9 607.867 100.76 607.776 100.604 607.721C100.447 607.662 100.271 607.632 100.077 607.632C99.8397 607.632 99.6281 607.679 99.4419 607.772C99.2557 607.861 99.0991 608.005 98.9722 608.204C98.8452 608.403 98.7479 608.665 98.6802 608.991C98.6167 609.312 98.585 609.704 98.585 610.165V612.12C98.585 612.493 98.6061 612.82 98.6484 613.104C98.6908 613.388 98.7542 613.631 98.8389 613.834C98.9235 614.033 99.0251 614.198 99.1436 614.329C99.2663 614.456 99.4059 614.549 99.5625 614.608C99.7233 614.668 99.8989 614.697 100.089 614.697C100.331 614.697 100.544 614.651 100.73 614.558C100.917 614.465 101.073 614.316 101.2 614.113C101.327 613.906 101.422 613.637 101.486 613.307C101.549 612.977 101.581 612.581 101.581 612.12Z" fill="#3A3A3A"/>
<path d="M151.098 606.515V615.789H149.568V608.331L147.302 609.099V607.835L150.914 606.515H151.098ZM155.541 614.583H155.668C156.252 614.583 156.739 614.507 157.128 614.354C157.521 614.198 157.835 613.982 158.067 613.707C158.3 613.432 158.467 613.108 158.569 612.736C158.67 612.363 158.721 611.959 158.721 611.523V609.93C158.721 609.554 158.681 609.223 158.601 608.94C158.524 608.652 158.414 608.413 158.271 608.223C158.131 608.028 157.968 607.882 157.782 607.785C157.6 607.687 157.403 607.639 157.191 607.639C156.959 607.639 156.749 607.692 156.563 607.797C156.381 607.899 156.227 608.041 156.1 608.223C155.977 608.4 155.882 608.61 155.814 608.851C155.75 609.088 155.719 609.342 155.719 609.613C155.719 609.867 155.748 610.112 155.808 610.349C155.871 610.582 155.964 610.789 156.087 610.971C156.21 611.153 156.364 611.297 156.55 611.403C156.736 611.509 156.954 611.562 157.204 611.562C157.441 611.562 157.659 611.517 157.858 611.428C158.057 611.335 158.23 611.21 158.378 611.054C158.527 610.897 158.643 610.722 158.728 610.527C158.812 610.332 158.859 610.133 158.867 609.93L159.451 610.108C159.451 610.43 159.383 610.747 159.248 611.06C159.117 611.369 158.933 611.653 158.696 611.911C158.463 612.165 158.19 612.368 157.877 612.52C157.568 612.672 157.232 612.749 156.868 612.749C156.428 612.749 156.038 612.666 155.7 612.501C155.365 612.332 155.086 612.103 154.862 611.815C154.642 611.528 154.477 611.198 154.367 610.825C154.257 610.453 154.202 610.061 154.202 609.651C154.202 609.207 154.269 608.79 154.405 608.4C154.54 608.011 154.737 607.668 154.995 607.372C155.253 607.072 155.566 606.839 155.935 606.674C156.307 606.505 156.728 606.42 157.198 606.42C157.697 606.42 158.135 606.517 158.512 606.712C158.888 606.907 159.206 607.175 159.464 607.518C159.722 607.861 159.917 608.259 160.048 608.711C160.179 609.164 160.245 609.651 160.245 610.171V610.711C160.245 611.257 160.196 611.784 160.099 612.292C160.001 612.795 159.843 613.263 159.623 613.694C159.407 614.122 159.121 614.498 158.766 614.824C158.414 615.146 157.983 615.398 157.471 615.58C156.963 615.757 156.366 615.846 155.681 615.846H155.541V614.583ZM167.741 613.269C167.741 613.845 167.608 614.329 167.341 614.723C167.075 615.116 166.711 615.415 166.25 615.618C165.792 615.817 165.276 615.916 164.701 615.916C164.125 615.916 163.607 615.817 163.146 615.618C162.684 615.415 162.32 615.116 162.054 614.723C161.787 614.329 161.654 613.845 161.654 613.269C161.654 612.888 161.728 612.543 161.876 612.234C162.024 611.921 162.234 611.653 162.504 611.428C162.779 611.2 163.101 611.024 163.469 610.901C163.842 610.779 164.248 610.717 164.688 610.717C165.272 610.717 165.795 610.825 166.256 611.041C166.717 611.257 167.079 611.555 167.341 611.936C167.608 612.317 167.741 612.761 167.741 613.269ZM166.205 613.193C166.205 612.884 166.142 612.613 166.015 612.38C165.888 612.148 165.71 611.968 165.481 611.841C165.253 611.714 164.988 611.65 164.688 611.65C164.383 611.65 164.119 611.714 163.895 611.841C163.67 611.968 163.495 612.148 163.368 612.38C163.245 612.613 163.184 612.884 163.184 613.193C163.184 613.506 163.245 613.777 163.368 614.005C163.49 614.23 163.666 614.401 163.895 614.52C164.123 614.638 164.392 614.697 164.701 614.697C165.01 614.697 165.276 614.638 165.5 614.52C165.725 614.401 165.898 614.23 166.021 614.005C166.144 613.777 166.205 613.506 166.205 613.193ZM167.532 608.978C167.532 609.439 167.409 609.85 167.164 610.209C166.922 610.569 166.588 610.853 166.161 611.06C165.733 611.263 165.247 611.365 164.701 611.365C164.151 611.365 163.66 611.263 163.228 611.06C162.801 610.853 162.464 610.569 162.219 610.209C161.978 609.85 161.857 609.439 161.857 608.978C161.857 608.428 161.978 607.965 162.219 607.588C162.464 607.207 162.801 606.917 163.228 606.718C163.655 606.519 164.144 606.42 164.694 606.42C165.244 606.42 165.733 606.519 166.161 606.718C166.588 606.917 166.922 607.207 167.164 607.588C167.409 607.965 167.532 608.428 167.532 608.978ZM166.002 609.029C166.002 608.754 165.947 608.513 165.837 608.305C165.731 608.094 165.581 607.929 165.386 607.81C165.192 607.692 164.961 607.632 164.694 607.632C164.428 607.632 164.197 607.689 164.002 607.804C163.808 607.918 163.658 608.079 163.552 608.286C163.446 608.493 163.393 608.741 163.393 609.029C163.393 609.312 163.446 609.56 163.552 609.771C163.658 609.979 163.808 610.142 164.002 610.26C164.201 610.379 164.434 610.438 164.701 610.438C164.967 610.438 165.198 610.379 165.393 610.26C165.587 610.142 165.737 609.979 165.843 609.771C165.949 609.56 166.002 609.312 166.002 609.029ZM175.111 610.394V611.904C175.111 612.628 175.039 613.246 174.895 613.758C174.755 614.266 174.552 614.678 174.286 614.996C174.019 615.313 173.7 615.546 173.327 615.694C172.959 615.842 172.546 615.916 172.089 615.916C171.725 615.916 171.387 615.869 171.074 615.776C170.765 615.683 170.486 615.537 170.236 615.338C169.986 615.139 169.772 614.883 169.595 614.57C169.421 614.253 169.286 613.874 169.188 613.434C169.095 612.994 169.049 612.484 169.049 611.904V610.394C169.049 609.666 169.121 609.052 169.265 608.553C169.409 608.049 169.614 607.641 169.88 607.328C170.147 607.01 170.464 606.78 170.833 606.636C171.205 606.492 171.62 606.42 172.077 606.42C172.445 606.42 172.783 606.466 173.092 606.56C173.405 606.648 173.685 606.79 173.93 606.985C174.18 607.18 174.391 607.433 174.565 607.747C174.743 608.056 174.878 608.43 174.971 608.87C175.064 609.306 175.111 609.814 175.111 610.394ZM173.581 612.12V610.165C173.581 609.797 173.56 609.473 173.518 609.194C173.475 608.91 173.412 608.671 173.327 608.477C173.247 608.278 173.145 608.117 173.022 607.994C172.9 607.867 172.76 607.776 172.604 607.721C172.447 607.662 172.271 607.632 172.077 607.632C171.84 607.632 171.628 607.679 171.442 607.772C171.256 607.861 171.099 608.005 170.972 608.204C170.845 608.403 170.748 608.665 170.68 608.991C170.617 609.312 170.585 609.704 170.585 610.165V612.12C170.585 612.493 170.606 612.82 170.648 613.104C170.691 613.388 170.754 613.631 170.839 613.834C170.924 614.033 171.025 614.198 171.144 614.329C171.266 614.456 171.406 614.549 171.562 614.608C171.723 614.668 171.899 614.697 172.089 614.697C172.331 614.697 172.544 614.651 172.73 614.558C172.917 614.465 173.073 614.316 173.2 614.113C173.327 613.906 173.422 613.637 173.486 613.307C173.549 612.977 173.581 612.581 173.581 612.12Z" fill="#3A3A3A"/>
<path d="M395.098 606.515V615.789H393.568V608.331L391.302 609.099V607.835L394.914 606.515H395.098ZM399.541 614.583H399.668C400.252 614.583 400.739 614.507 401.128 614.354C401.521 614.198 401.835 613.982 402.067 613.707C402.3 613.432 402.467 613.108 402.569 612.736C402.67 612.363 402.721 611.959 402.721 611.523V609.93C402.721 609.554 402.681 609.223 402.601 608.94C402.524 608.652 402.414 608.413 402.271 608.223C402.131 608.028 401.968 607.882 401.782 607.785C401.6 607.687 401.403 607.639 401.191 607.639C400.959 607.639 400.749 607.692 400.563 607.797C400.381 607.899 400.227 608.041 400.1 608.223C399.977 608.4 399.882 608.61 399.814 608.851C399.75 609.088 399.719 609.342 399.719 609.613C399.719 609.867 399.748 610.112 399.808 610.349C399.871 610.582 399.964 610.789 400.087 610.971C400.21 611.153 400.364 611.297 400.55 611.403C400.736 611.509 400.954 611.562 401.204 611.562C401.441 611.562 401.659 611.517 401.858 611.428C402.057 611.335 402.23 611.21 402.378 611.054C402.527 610.897 402.643 610.722 402.728 610.527C402.812 610.332 402.859 610.133 402.867 609.93L403.451 610.108C403.451 610.43 403.383 610.747 403.248 611.06C403.117 611.369 402.933 611.653 402.696 611.911C402.463 612.165 402.19 612.368 401.877 612.52C401.568 612.672 401.232 612.749 400.868 612.749C400.428 612.749 400.038 612.666 399.7 612.501C399.365 612.332 399.086 612.103 398.862 611.815C398.642 611.528 398.477 611.198 398.367 610.825C398.257 610.453 398.202 610.061 398.202 609.651C398.202 609.207 398.269 608.79 398.405 608.4C398.54 608.011 398.737 607.668 398.995 607.372C399.253 607.072 399.566 606.839 399.935 606.674C400.307 606.505 400.728 606.42 401.198 606.42C401.697 606.42 402.135 606.517 402.512 606.712C402.888 606.907 403.206 607.175 403.464 607.518C403.722 607.861 403.917 608.259 404.048 608.711C404.179 609.164 404.245 609.651 404.245 610.171V610.711C404.245 611.257 404.196 611.784 404.099 612.292C404.001 612.795 403.843 613.263 403.623 613.694C403.407 614.122 403.121 614.498 402.766 614.824C402.414 615.146 401.983 615.398 401.471 615.58C400.963 615.757 400.366 615.846 399.681 615.846H399.541V614.583ZM406.93 614.583H407.057C407.641 614.583 408.127 614.507 408.517 614.354C408.91 614.198 409.223 613.982 409.456 613.707C409.689 613.432 409.856 613.108 409.958 612.736C410.059 612.363 410.11 611.959 410.11 611.523V609.93C410.11 609.554 410.07 609.223 409.989 608.94C409.913 608.652 409.803 608.413 409.659 608.223C409.52 608.028 409.357 607.882 409.17 607.785C408.988 607.687 408.792 607.639 408.58 607.639C408.347 607.639 408.138 607.692 407.952 607.797C407.77 607.899 407.615 608.041 407.488 608.223C407.366 608.4 407.27 608.61 407.203 608.851C407.139 609.088 407.107 609.342 407.107 609.613C407.107 609.867 407.137 610.112 407.196 610.349C407.26 610.582 407.353 610.789 407.476 610.971C407.598 611.153 407.753 611.297 407.939 611.403C408.125 611.509 408.343 611.562 408.593 611.562C408.83 611.562 409.048 611.517 409.247 611.428C409.445 611.335 409.619 611.21 409.767 611.054C409.915 610.897 410.032 610.722 410.116 610.527C410.201 610.332 410.247 610.133 410.256 609.93L410.84 610.108C410.84 610.43 410.772 610.747 410.637 611.06C410.506 611.369 410.321 611.653 410.084 611.911C409.852 612.165 409.579 612.368 409.266 612.52C408.957 612.672 408.62 612.749 408.256 612.749C407.816 612.749 407.427 612.666 407.088 612.501C406.754 612.332 406.475 612.103 406.25 611.815C406.03 611.528 405.865 611.198 405.755 610.825C405.645 610.453 405.59 610.061 405.59 609.651C405.59 609.207 405.658 608.79 405.793 608.4C405.929 608.011 406.126 607.668 406.384 607.372C406.642 607.072 406.955 606.839 407.323 606.674C407.696 606.505 408.117 606.42 408.586 606.42C409.086 606.42 409.524 606.517 409.9 606.712C410.277 606.907 410.594 607.175 410.853 607.518C411.111 607.861 411.305 608.259 411.437 608.711C411.568 609.164 411.633 609.651 411.633 610.171V610.711C411.633 611.257 411.585 611.784 411.487 612.292C411.39 612.795 411.231 613.263 411.011 613.694C410.795 614.122 410.51 614.498 410.154 614.824C409.803 615.146 409.371 615.398 408.859 615.58C408.352 615.757 407.755 615.846 407.069 615.846H406.93V614.583ZM419.111 610.394V611.904C419.111 612.628 419.039 613.246 418.895 613.758C418.755 614.266 418.552 614.678 418.286 614.996C418.019 615.313 417.7 615.546 417.327 615.694C416.959 615.842 416.546 615.916 416.089 615.916C415.725 615.916 415.387 615.869 415.074 615.776C414.765 615.683 414.486 615.537 414.236 615.338C413.986 615.139 413.772 614.883 413.595 614.57C413.421 614.253 413.286 613.874 413.188 613.434C413.095 612.994 413.049 612.484 413.049 611.904V610.394C413.049 609.666 413.121 609.052 413.265 608.553C413.409 608.049 413.614 607.641 413.88 607.328C414.147 607.01 414.464 606.78 414.833 606.636C415.205 606.492 415.62 606.42 416.077 606.42C416.445 606.42 416.783 606.466 417.092 606.56C417.405 606.648 417.685 606.79 417.93 606.985C418.18 607.18 418.391 607.433 418.565 607.747C418.743 608.056 418.878 608.43 418.971 608.87C419.064 609.306 419.111 609.814 419.111 610.394ZM417.581 612.12V610.165C417.581 609.797 417.56 609.473 417.518 609.194C417.475 608.91 417.412 608.671 417.327 608.477C417.247 608.278 417.145 608.117 417.022 607.994C416.9 607.867 416.76 607.776 416.604 607.721C416.447 607.662 416.271 607.632 416.077 607.632C415.84 607.632 415.628 607.679 415.442 607.772C415.256 607.861 415.099 608.005 414.972 608.204C414.845 608.403 414.748 608.665 414.68 608.991C414.617 609.312 414.585 609.704 414.585 610.165V612.12C414.585 612.493 414.606 612.82 414.648 613.104C414.691 613.388 414.754 613.631 414.839 613.834C414.924 614.033 415.025 614.198 415.144 614.329C415.266 614.456 415.406 614.549 415.562 614.608C415.723 614.668 415.899 614.697 416.089 614.697C416.331 614.697 416.544 614.651 416.73 614.558C416.917 614.465 417.073 614.316 417.2 614.113C417.327 613.906 417.422 613.637 417.486 613.307C417.549 612.977 417.581 612.581 417.581 612.12Z" fill="#3A3A3A"/>
<path d="M796.116 614.57V615.789H789.921V614.742L792.93 611.46C793.26 611.088 793.52 610.766 793.71 610.495C793.901 610.224 794.034 609.981 794.11 609.765C794.191 609.545 794.231 609.331 794.231 609.124C794.231 608.832 794.176 608.576 794.066 608.356C793.96 608.132 793.804 607.956 793.596 607.829C793.389 607.698 793.137 607.632 792.841 607.632C792.498 607.632 792.21 607.706 791.978 607.854C791.745 608.003 791.569 608.208 791.451 608.47C791.332 608.728 791.273 609.025 791.273 609.359H789.743C789.743 608.821 789.866 608.331 790.111 607.886C790.357 607.438 790.712 607.082 791.178 606.82C791.643 606.553 792.204 606.42 792.86 606.42C793.478 606.42 794.002 606.524 794.434 606.731C794.866 606.938 795.194 607.232 795.418 607.613C795.646 607.994 795.761 608.445 795.761 608.965C795.761 609.253 795.714 609.539 795.621 609.822C795.528 610.106 795.395 610.389 795.221 610.673C795.052 610.952 794.851 611.234 794.618 611.517C794.385 611.796 794.129 612.08 793.85 612.368L791.851 614.57H796.116ZM803.333 610.394V611.904C803.333 612.628 803.262 613.246 803.118 613.758C802.978 614.266 802.775 614.678 802.508 614.996C802.242 615.313 801.922 615.546 801.55 615.694C801.182 615.842 800.769 615.916 800.312 615.916C799.948 615.916 799.61 615.869 799.296 615.776C798.987 615.683 798.708 615.537 798.458 615.338C798.209 615.139 797.995 614.883 797.817 614.57C797.644 614.253 797.508 613.874 797.411 613.434C797.318 612.994 797.271 612.484 797.271 611.904V610.394C797.271 609.666 797.343 609.052 797.487 608.553C797.631 608.049 797.836 607.641 798.103 607.328C798.37 607.01 798.687 606.78 799.055 606.636C799.428 606.492 799.842 606.42 800.299 606.42C800.667 606.42 801.006 606.466 801.315 606.56C801.628 606.648 801.907 606.79 802.153 606.985C802.403 607.18 802.614 607.433 802.788 607.747C802.965 608.056 803.101 608.43 803.194 608.87C803.287 609.306 803.333 609.814 803.333 610.394ZM801.804 612.12V610.165C801.804 609.797 801.783 609.473 801.74 609.194C801.698 608.91 801.634 608.671 801.55 608.477C801.469 608.278 801.368 608.117 801.245 607.994C801.122 607.867 800.983 607.776 800.826 607.721C800.67 607.662 800.494 607.632 800.299 607.632C800.062 607.632 799.851 607.679 799.665 607.772C799.478 607.861 799.322 608.005 799.195 608.204C799.068 608.403 798.971 608.665 798.903 608.991C798.839 609.312 798.808 609.704 798.808 610.165V612.12C798.808 612.493 798.829 612.82 798.871 613.104C798.913 613.388 798.977 613.631 799.062 613.834C799.146 614.033 799.248 614.198 799.366 614.329C799.489 614.456 799.629 614.549 799.785 614.608C799.946 614.668 800.122 614.697 800.312 614.697C800.553 614.697 800.767 614.651 800.953 614.558C801.139 614.465 801.296 614.316 801.423 614.113C801.55 613.906 801.645 613.637 801.708 613.307C801.772 612.977 801.804 612.581 801.804 612.12ZM810.722 610.394V611.904C810.722 612.628 810.65 613.246 810.506 613.758C810.367 614.266 810.164 614.678 809.897 614.996C809.63 615.313 809.311 615.546 808.938 615.694C808.57 615.842 808.158 615.916 807.701 615.916C807.337 615.916 806.998 615.869 806.685 615.776C806.376 615.683 806.097 615.537 805.847 615.338C805.597 615.139 805.384 614.883 805.206 614.57C805.033 614.253 804.897 613.874 804.8 613.434C804.707 612.994 804.66 612.484 804.66 611.904V610.394C804.66 609.666 804.732 609.052 804.876 608.553C805.02 608.049 805.225 607.641 805.492 607.328C805.758 607.01 806.076 606.78 806.444 606.636C806.816 606.492 807.231 606.42 807.688 606.42C808.056 606.42 808.395 606.466 808.704 606.56C809.017 606.648 809.296 606.79 809.542 606.985C809.791 607.18 810.003 607.433 810.176 607.747C810.354 608.056 810.489 608.43 810.583 608.87C810.676 609.306 810.722 609.814 810.722 610.394ZM809.192 612.12V610.165C809.192 609.797 809.171 609.473 809.129 609.194C809.087 608.91 809.023 608.671 808.938 608.477C808.858 608.278 808.757 608.117 808.634 607.994C808.511 607.867 808.371 607.776 808.215 607.721C808.058 607.662 807.883 607.632 807.688 607.632C807.451 607.632 807.239 607.679 807.053 607.772C806.867 607.861 806.71 608.005 806.583 608.204C806.457 608.403 806.359 608.665 806.292 608.991C806.228 609.312 806.196 609.704 806.196 610.165V612.12C806.196 612.493 806.217 612.82 806.26 613.104C806.302 613.388 806.366 613.631 806.45 613.834C806.535 614.033 806.636 614.198 806.755 614.329C806.878 614.456 807.017 614.549 807.174 614.608C807.335 614.668 807.51 614.697 807.701 614.697C807.942 614.697 808.156 614.651 808.342 614.558C808.528 614.465 808.685 614.316 808.812 614.113C808.938 613.906 809.034 613.637 809.097 613.307C809.161 612.977 809.192 612.581 809.192 612.12ZM818.111 610.394V611.904C818.111 612.628 818.039 613.246 817.895 613.758C817.755 614.266 817.552 614.678 817.286 614.996C817.019 615.313 816.7 615.546 816.327 615.694C815.959 615.842 815.546 615.916 815.089 615.916C814.725 615.916 814.387 615.869 814.074 615.776C813.765 615.683 813.486 615.537 813.236 615.338C812.986 615.139 812.772 614.883 812.595 614.57C812.421 614.253 812.286 613.874 812.188 613.434C812.095 612.994 812.049 612.484 812.049 611.904V610.394C812.049 609.666 812.121 609.052 812.265 608.553C812.409 608.049 812.614 607.641 812.88 607.328C813.147 607.01 813.464 606.78 813.833 606.636C814.205 606.492 814.62 606.42 815.077 606.42C815.445 606.42 815.783 606.466 816.092 606.56C816.405 606.648 816.685 606.79 816.93 606.985C817.18 607.18 817.391 607.433 817.565 607.747C817.743 608.056 817.878 608.43 817.971 608.87C818.064 609.306 818.111 609.814 818.111 610.394ZM816.581 612.12V610.165C816.581 609.797 816.56 609.473 816.518 609.194C816.475 608.91 816.412 608.671 816.327 608.477C816.247 608.278 816.145 608.117 816.022 607.994C815.9 607.867 815.76 607.776 815.604 607.721C815.447 607.662 815.271 607.632 815.077 607.632C814.84 607.632 814.628 607.679 814.442 607.772C814.256 607.861 814.099 608.005 813.972 608.204C813.845 608.403 813.748 608.665 813.68 608.991C813.617 609.312 813.585 609.704 813.585 610.165V612.12C813.585 612.493 813.606 612.82 813.648 613.104C813.691 613.388 813.754 613.631 813.839 613.834C813.924 614.033 814.025 614.198 814.144 614.329C814.266 614.456 814.406 614.549 814.562 614.608C814.723 614.668 814.899 614.697 815.089 614.697C815.331 614.697 815.544 614.651 815.73 614.558C815.917 614.465 816.073 614.316 816.2 614.113C816.327 613.906 816.422 613.637 816.486 613.307C816.549 612.977 816.581 612.581 816.581 612.12Z" fill="#3A3A3A"/>
<path d="M1494.12 614.57V615.789H1487.92V614.742L1490.93 611.46C1491.26 611.088 1491.52 610.766 1491.71 610.495C1491.9 610.224 1492.03 609.981 1492.11 609.765C1492.19 609.545 1492.23 609.331 1492.23 609.124C1492.23 608.832 1492.18 608.576 1492.07 608.356C1491.96 608.132 1491.8 607.956 1491.6 607.829C1491.39 607.698 1491.14 607.632 1490.84 607.632C1490.5 607.632 1490.21 607.706 1489.98 607.854C1489.74 608.003 1489.57 608.208 1489.45 608.47C1489.33 608.728 1489.27 609.025 1489.27 609.359H1487.74C1487.74 608.821 1487.87 608.331 1488.11 607.886C1488.36 607.438 1488.71 607.082 1489.18 606.82C1489.64 606.553 1490.2 606.42 1490.86 606.42C1491.48 606.42 1492 606.524 1492.43 606.731C1492.87 606.938 1493.19 607.232 1493.42 607.613C1493.65 607.994 1493.76 608.445 1493.76 608.965C1493.76 609.253 1493.71 609.539 1493.62 609.822C1493.53 610.106 1493.39 610.389 1493.22 610.673C1493.05 610.952 1492.85 611.234 1492.62 611.517C1492.39 611.796 1492.13 612.08 1491.85 612.368L1489.85 614.57H1494.12ZM1501.33 610.394V611.904C1501.33 612.628 1501.26 613.246 1501.12 613.758C1500.98 614.266 1500.77 614.678 1500.51 614.996C1500.24 615.313 1499.92 615.546 1499.55 615.694C1499.18 615.842 1498.77 615.916 1498.31 615.916C1497.95 615.916 1497.61 615.869 1497.3 615.776C1496.99 615.683 1496.71 615.537 1496.46 615.338C1496.21 615.139 1496 614.883 1495.82 614.57C1495.64 614.253 1495.51 613.874 1495.41 613.434C1495.32 612.994 1495.27 612.484 1495.27 611.904V610.394C1495.27 609.666 1495.34 609.052 1495.49 608.553C1495.63 608.049 1495.84 607.641 1496.1 607.328C1496.37 607.01 1496.69 606.78 1497.06 606.636C1497.43 606.492 1497.84 606.42 1498.3 606.42C1498.67 606.42 1499.01 606.466 1499.31 606.56C1499.63 606.648 1499.91 606.79 1500.15 606.985C1500.4 607.18 1500.61 607.433 1500.79 607.747C1500.97 608.056 1501.1 608.43 1501.19 608.87C1501.29 609.306 1501.33 609.814 1501.33 610.394ZM1499.8 612.12V610.165C1499.8 609.797 1499.78 609.473 1499.74 609.194C1499.7 608.91 1499.63 608.671 1499.55 608.477C1499.47 608.278 1499.37 608.117 1499.25 607.994C1499.12 607.867 1498.98 607.776 1498.83 607.721C1498.67 607.662 1498.49 607.632 1498.3 607.632C1498.06 607.632 1497.85 607.679 1497.66 607.772C1497.48 607.861 1497.32 608.005 1497.19 608.204C1497.07 608.403 1496.97 608.665 1496.9 608.991C1496.84 609.312 1496.81 609.704 1496.81 610.165V612.12C1496.81 612.493 1496.83 612.82 1496.87 613.104C1496.91 613.388 1496.98 613.631 1497.06 613.834C1497.15 614.033 1497.25 614.198 1497.37 614.329C1497.49 614.456 1497.63 614.549 1497.79 614.608C1497.95 614.668 1498.12 614.697 1498.31 614.697C1498.55 614.697 1498.77 614.651 1498.95 614.558C1499.14 614.465 1499.3 614.316 1499.42 614.113C1499.55 613.906 1499.65 613.637 1499.71 613.307C1499.77 612.977 1499.8 612.581 1499.8 612.12ZM1506.88 606.515V615.789H1505.35V608.331L1503.08 609.099V607.835L1506.69 606.515H1506.88ZM1516.11 610.394V611.904C1516.11 612.628 1516.04 613.246 1515.9 613.758C1515.76 614.266 1515.55 614.678 1515.29 614.996C1515.02 615.313 1514.7 615.546 1514.33 615.694C1513.96 615.842 1513.55 615.916 1513.09 615.916C1512.73 615.916 1512.39 615.869 1512.07 615.776C1511.76 615.683 1511.49 615.537 1511.24 615.338C1510.99 615.139 1510.77 614.883 1510.59 614.57C1510.42 614.253 1510.29 613.874 1510.19 613.434C1510.1 612.994 1510.05 612.484 1510.05 611.904V610.394C1510.05 609.666 1510.12 609.052 1510.26 608.553C1510.41 608.049 1510.61 607.641 1510.88 607.328C1511.15 607.01 1511.46 606.78 1511.83 606.636C1512.2 606.492 1512.62 606.42 1513.08 606.42C1513.44 606.42 1513.78 606.466 1514.09 606.56C1514.41 606.648 1514.68 606.79 1514.93 606.985C1515.18 607.18 1515.39 607.433 1515.56 607.747C1515.74 608.056 1515.88 608.43 1515.97 608.87C1516.06 609.306 1516.11 609.814 1516.11 610.394ZM1514.58 612.12V610.165C1514.58 609.797 1514.56 609.473 1514.52 609.194C1514.48 608.91 1514.41 608.671 1514.33 608.477C1514.25 608.278 1514.15 608.117 1514.02 607.994C1513.9 607.867 1513.76 607.776 1513.6 607.721C1513.45 607.662 1513.27 607.632 1513.08 607.632C1512.84 607.632 1512.63 607.679 1512.44 607.772C1512.26 607.861 1512.1 608.005 1511.97 608.204C1511.85 608.403 1511.75 608.665 1511.68 608.991C1511.62 609.312 1511.58 609.704 1511.58 610.165V612.12C1511.58 612.493 1511.61 612.82 1511.65 613.104C1511.69 613.388 1511.75 613.631 1511.84 613.834C1511.92 614.033 1512.03 614.198 1512.14 614.329C1512.27 614.456 1512.41 614.549 1512.56 614.608C1512.72 614.668 1512.9 614.697 1513.09 614.697C1513.33 614.697 1513.54 614.651 1513.73 614.558C1513.92 614.465 1514.07 614.316 1514.2 614.113C1514.33 613.906 1514.42 613.637 1514.49 613.307C1514.55 612.977 1514.58 612.581 1514.58 612.12Z" fill="#3A3A3A"/>
<path d="M3164.12 614.57V615.789H3157.92V614.742L3160.93 611.46C3161.26 611.088 3161.52 610.766 3161.71 610.495C3161.9 610.224 3162.03 609.981 3162.11 609.765C3162.19 609.545 3162.23 609.331 3162.23 609.124C3162.23 608.832 3162.18 608.576 3162.07 608.356C3161.96 608.132 3161.8 607.956 3161.6 607.829C3161.39 607.698 3161.14 607.632 3160.84 607.632C3160.5 607.632 3160.21 607.706 3159.98 607.854C3159.74 608.003 3159.57 608.208 3159.45 608.47C3159.33 608.728 3159.27 609.025 3159.27 609.359H3157.74C3157.74 608.821 3157.87 608.331 3158.11 607.886C3158.36 607.438 3158.71 607.082 3159.18 606.82C3159.64 606.553 3160.2 606.42 3160.86 606.42C3161.48 606.42 3162 606.524 3162.43 606.731C3162.87 606.938 3163.19 607.232 3163.42 607.613C3163.65 607.994 3163.76 608.445 3163.76 608.965C3163.76 609.253 3163.71 609.539 3163.62 609.822C3163.53 610.106 3163.39 610.389 3163.22 610.673C3163.05 610.952 3162.85 611.234 3162.62 611.517C3162.39 611.796 3162.13 612.08 3161.85 612.368L3159.85 614.57H3164.12ZM3171.33 610.394V611.904C3171.33 612.628 3171.26 613.246 3171.12 613.758C3170.98 614.266 3170.77 614.678 3170.51 614.996C3170.24 615.313 3169.92 615.546 3169.55 615.694C3169.18 615.842 3168.77 615.916 3168.31 615.916C3167.95 615.916 3167.61 615.869 3167.3 615.776C3166.99 615.683 3166.71 615.537 3166.46 615.338C3166.21 615.139 3166 614.883 3165.82 614.57C3165.64 614.253 3165.51 613.874 3165.41 613.434C3165.32 612.994 3165.27 612.484 3165.27 611.904V610.394C3165.27 609.666 3165.34 609.052 3165.49 608.553C3165.63 608.049 3165.84 607.641 3166.1 607.328C3166.37 607.01 3166.69 606.78 3167.06 606.636C3167.43 606.492 3167.84 606.42 3168.3 606.42C3168.67 606.42 3169.01 606.466 3169.31 606.56C3169.63 606.648 3169.91 606.79 3170.15 606.985C3170.4 607.18 3170.61 607.433 3170.79 607.747C3170.97 608.056 3171.1 608.43 3171.19 608.87C3171.29 609.306 3171.33 609.814 3171.33 610.394ZM3169.8 612.12V610.165C3169.8 609.797 3169.78 609.473 3169.74 609.194C3169.7 608.91 3169.63 608.671 3169.55 608.477C3169.47 608.278 3169.37 608.117 3169.25 607.994C3169.12 607.867 3168.98 607.776 3168.83 607.721C3168.67 607.662 3168.49 607.632 3168.3 607.632C3168.06 607.632 3167.85 607.679 3167.66 607.772C3167.48 607.861 3167.32 608.005 3167.19 608.204C3167.07 608.403 3166.97 608.665 3166.9 608.991C3166.84 609.312 3166.81 609.704 3166.81 610.165V612.12C3166.81 612.493 3166.83 612.82 3166.87 613.104C3166.91 613.388 3166.98 613.631 3167.06 613.834C3167.15 614.033 3167.25 614.198 3167.37 614.329C3167.49 614.456 3167.63 614.549 3167.79 614.608C3167.95 614.668 3168.12 614.697 3168.31 614.697C3168.55 614.697 3168.77 614.651 3168.95 614.558C3169.14 614.465 3169.3 614.316 3169.42 614.113C3169.55 613.906 3169.65 613.637 3169.71 613.307C3169.77 612.977 3169.8 612.581 3169.8 612.12ZM3178.89 614.57V615.789H3172.7V614.742L3175.71 611.46C3176.04 611.088 3176.3 610.766 3176.49 610.495C3176.68 610.224 3176.81 609.981 3176.89 609.765C3176.97 609.545 3177.01 609.331 3177.01 609.124C3177.01 608.832 3176.95 608.576 3176.84 608.356C3176.74 608.132 3176.58 607.956 3176.37 607.829C3176.17 607.698 3175.91 607.632 3175.62 607.632C3175.28 607.632 3174.99 607.706 3174.75 607.854C3174.52 608.003 3174.35 608.208 3174.23 608.47C3174.11 608.728 3174.05 609.025 3174.05 609.359H3172.52C3172.52 608.821 3172.64 608.331 3172.89 607.886C3173.13 607.438 3173.49 607.082 3173.96 606.82C3174.42 606.553 3174.98 606.42 3175.64 606.42C3176.26 606.42 3176.78 606.524 3177.21 606.731C3177.64 606.938 3177.97 607.232 3178.2 607.613C3178.42 607.994 3178.54 608.445 3178.54 608.965C3178.54 609.253 3178.49 609.539 3178.4 609.822C3178.31 610.106 3178.17 610.389 3178 610.673C3177.83 610.952 3177.63 611.234 3177.4 611.517C3177.16 611.796 3176.91 612.08 3176.63 612.368L3174.63 614.57H3178.89ZM3186.11 610.394V611.904C3186.11 612.628 3186.04 613.246 3185.9 613.758C3185.76 614.266 3185.55 614.678 3185.29 614.996C3185.02 615.313 3184.7 615.546 3184.33 615.694C3183.96 615.842 3183.55 615.916 3183.09 615.916C3182.73 615.916 3182.39 615.869 3182.07 615.776C3181.76 615.683 3181.49 615.537 3181.24 615.338C3180.99 615.139 3180.77 614.883 3180.59 614.57C3180.42 614.253 3180.29 613.874 3180.19 613.434C3180.1 612.994 3180.05 612.484 3180.05 611.904V610.394C3180.05 609.666 3180.12 609.052 3180.26 608.553C3180.41 608.049 3180.61 607.641 3180.88 607.328C3181.15 607.01 3181.46 606.78 3181.83 606.636C3182.2 606.492 3182.62 606.42 3183.08 606.42C3183.44 606.42 3183.78 606.466 3184.09 606.56C3184.41 606.648 3184.68 606.79 3184.93 606.985C3185.18 607.18 3185.39 607.433 3185.56 607.747C3185.74 608.056 3185.88 608.43 3185.97 608.87C3186.06 609.306 3186.11 609.814 3186.11 610.394ZM3184.58 612.12V610.165C3184.58 609.797 3184.56 609.473 3184.52 609.194C3184.48 608.91 3184.41 608.671 3184.33 608.477C3184.25 608.278 3184.15 608.117 3184.02 607.994C3183.9 607.867 3183.76 607.776 3183.6 607.721C3183.45 607.662 3183.27 607.632 3183.08 607.632C3182.84 607.632 3182.63 607.679 3182.44 607.772C3182.26 607.861 3182.1 608.005 3181.97 608.204C3181.85 608.403 3181.75 608.665 3181.68 608.991C3181.62 609.312 3181.58 609.704 3181.58 610.165V612.12C3181.58 612.493 3181.61 612.82 3181.65 613.104C3181.69 613.388 3181.75 613.631 3181.84 613.834C3181.92 614.033 3182.03 614.198 3182.14 614.329C3182.27 614.456 3182.41 614.549 3182.56 614.608C3182.72 614.668 3182.9 614.697 3183.09 614.697C3183.33 614.697 3183.54 614.651 3183.73 614.558C3183.92 614.465 3184.07 614.316 3184.2 614.113C3184.33 613.906 3184.42 613.637 3184.49 613.307C3184.55 612.977 3184.58 612.581 3184.58 612.12Z" fill="#3A3A3A"/>
<line x1="21" y1="600.385" x2="21" y2="28.9547" stroke="#F7B289" stroke-width="2" stroke-dasharray="2 2"/>
<line x1="84" y1="600.385" x2="84" y2="28.9547" stroke="#F7B289" stroke-width="2" stroke-dasharray="2 2"/>
<line x1="165" y1="600.385" x2="165" y2="28.9547" stroke="#F7B289" stroke-width="2" stroke-dasharray="2 2"/>
<line x1="405" y1="600.385" x2="405" y2="28.9547" stroke="#F7B289" stroke-width="2" stroke-dasharray="2 2"/>
<line x1="804" y1="600.385" x2="804" y2="28.9547" stroke="#F7B289" stroke-width="2" stroke-dasharray="2 2"/>
<line x1="1501" y1="600.385" x2="1501" y2="28.9547" stroke="#F7B289" stroke-width="2" stroke-dasharray="2 2"/>
<line x1="3171" y1="597.431" x2="3171" y2="26.0004" stroke="#F7B289" stroke-width="2" stroke-dasharray="2 2"/>
<path d="M52.9428 317.856C52.9428 319.906 51.0946 321.873 48.8857 321.56C47.6235 321.379 45 320.004 45 317.954C45 315.905 46.6499 314.027 48.8857 314.143C53.7993 314.406 52.9428 317.016 52.9428 317.856Z" fill="#F7B289"/>
<path d="M159.943 282.441C159.943 284.491 158.095 286.458 155.886 286.146C154.624 285.964 152 284.59 152 282.54C152 280.49 153.65 278.613 155.886 278.728C160.799 278.991 159.943 281.601 159.943 282.441Z" fill="#F67C87"/>
<path d="M322.943 265.665C322.943 267.715 321.095 269.683 318.886 269.37C317.624 269.189 315 267.814 315 265.764C315 263.714 316.65 261.837 318.886 261.952C323.799 262.216 322.943 264.826 322.943 265.665Z" fill="#F67C87"/>
<path d="M756.943 195.77C756.943 197.819 755.095 199.787 752.886 199.474C751.624 199.293 749 197.918 749 195.868C749 193.818 750.65 191.941 752.886 192.057C757.799 192.32 756.943 194.93 756.943 195.77Z" fill="#F67C87"/>
<path d="M650.943 207.885C650.943 209.934 649.095 211.902 646.886 211.589C645.624 211.408 643 210.033 643 207.983C643 205.933 644.65 204.056 646.886 204.172C651.799 204.435 650.943 207.045 650.943 207.885Z" fill="#F67C87"/>
<path d="M939.943 261.006C939.943 263.056 938.095 265.024 935.886 264.711C934.624 264.53 932 263.155 932 261.105C932 259.055 933.65 257.178 935.886 257.293C940.799 257.557 939.943 260.166 939.943 261.006Z" fill="#F67C87"/>
<path d="M808.943 224.66C808.943 226.71 807.095 228.677 804.886 228.364C803.624 228.183 801 226.808 801 224.758C801 222.708 802.65 220.831 804.886 220.947C809.799 221.21 808.943 223.82 808.943 224.66Z" fill="#F67C87"/>
<path d="M868.943 252.619C868.943 254.669 867.095 256.636 864.886 256.324C863.624 256.142 861 254.768 861 252.718C861 250.668 862.65 248.791 864.886 248.906C869.799 249.169 868.943 251.779 868.943 252.619Z" fill="#F67C87"/>
<path d="M1008.94 258.211C1008.94 260.261 1007.09 262.228 1004.89 261.915C1003.62 261.734 1001 260.359 1001 258.309C1001 256.26 1002.65 254.382 1004.89 254.498C1009.8 254.761 1008.94 257.371 1008.94 258.211Z" fill="#F67C87"/>
<path d="M1083.94 243.299C1083.94 245.349 1082.09 247.316 1079.89 247.004C1078.62 246.822 1076 245.448 1076 243.398C1076 241.348 1077.65 239.471 1079.89 239.586C1084.8 239.849 1083.94 242.459 1083.94 243.299Z" fill="#F67C87"/>
<path d="M1286.94 232.116C1286.94 234.166 1285.09 236.134 1282.89 235.821C1281.62 235.64 1279 234.265 1279 232.215C1279 230.165 1280.65 228.288 1282.89 228.403C1287.8 228.667 1286.94 231.277 1286.94 232.116Z" fill="#F67C87"/>
<path d="M1424.94 250.754C1424.94 252.804 1423.09 254.772 1420.89 254.459C1419.62 254.278 1417 252.903 1417 250.853C1417 248.803 1418.65 246.926 1420.89 247.041C1425.8 247.305 1424.94 249.914 1424.94 250.754Z" fill="#F67C87"/>
<path d="M202.943 275.917C202.943 277.967 201.095 279.935 198.886 279.622C197.624 279.441 195 278.066 195 276.016C195 273.966 196.65 272.089 198.886 272.204C203.799 272.468 202.943 275.077 202.943 275.917Z" fill="#F67C87"/>
<path d="M513.878 267.054C513.878 271.41 509.951 275.591 505.257 274.926C502.575 274.541 497 271.62 497 267.264C497 262.907 500.506 258.919 505.257 259.164C515.698 259.723 513.878 265.269 513.878 267.054Z" fill="#F67C87"/>
<path d="M229.878 273.576C229.878 277.932 225.951 282.114 221.257 281.449C218.575 281.064 213 278.142 213 273.786C213 269.43 216.506 265.441 221.257 265.686C231.698 266.246 229.878 271.792 229.878 273.576Z" fill="#F7B289"/>
<path d="M369.878 262.393C369.878 266.75 365.951 270.931 361.257 270.266C358.575 269.881 353 266.959 353 262.603C353 258.247 356.506 254.258 361.257 254.503C371.698 255.063 369.878 260.609 369.878 262.393Z" fill="#F7B289"/>
<path d="M250.943 272.189C250.943 274.239 249.095 276.207 246.886 275.894C245.624 275.713 243 274.338 243 272.288C243 270.238 244.65 268.361 246.886 268.476C251.799 268.74 250.943 271.35 250.943 272.189Z" fill="#F67C87"/>
<path d="M1345.94 238.639C1345.94 240.689 1344.09 242.656 1341.89 242.344C1340.62 242.162 1338 240.788 1338 238.738C1338 236.688 1339.65 234.811 1341.89 234.926C1346.8 235.189 1345.94 237.799 1345.94 238.639Z" fill="#F7B289"/>
<path d="M437.943 262.871C437.943 264.921 436.095 266.888 433.886 266.576C432.624 266.394 430 265.02 430 262.97C430 260.92 431.65 259.043 433.886 259.158C438.799 259.421 437.943 262.031 437.943 262.871Z" fill="#F7B289"/>
<path d="M472.943 263.802C472.943 265.852 471.095 267.82 468.886 267.507C467.624 267.326 465 265.951 465 263.901C465 261.851 466.65 259.974 468.886 260.089C473.799 260.352 472.943 262.962 472.943 263.802Z" fill="#F7B289"/>
<path d="M583.943 282.441C583.943 284.491 582.095 286.458 579.886 286.146C578.624 285.964 576 284.59 576 282.54C576 280.49 577.65 278.613 579.886 278.728C584.799 278.991 583.943 281.601 583.943 282.441Z" fill="#F7B289"/>
<path d="M407.943 262.871C407.943 264.921 406.095 266.888 403.886 266.576C402.624 266.394 400 265.02 400 262.97C400 260.92 401.65 259.043 403.886 259.158C408.799 259.421 407.943 262.031 407.943 262.871Z" fill="#F7B289"/>
<path d="M1805.94 330.903C1805.94 332.953 1804.09 334.921 1801.89 334.608C1800.62 334.427 1798 333.052 1798 331.002C1798 328.952 1799.65 327.075 1801.89 327.19C1806.8 327.454 1805.94 330.064 1805.94 330.903Z" fill="#F67C87"/>
<path d="M1908.94 337.427C1908.94 339.477 1907.09 341.445 1904.89 341.132C1903.62 340.951 1901 339.576 1901 337.526C1901 335.476 1902.65 333.599 1904.89 333.714C1909.8 333.977 1908.94 336.587 1908.94 337.427Z" fill="#F67C87"/>
<path d="M2044.94 257.278C2044.94 259.328 2043.09 261.296 2040.89 260.983C2039.62 260.802 2037 259.427 2037 257.377C2037 255.327 2038.65 253.45 2040.89 253.565C2045.8 253.829 2044.94 256.438 2044.94 257.278Z" fill="#F67C87"/>
<path d="M2180.94 272.189C2180.94 274.239 2179.09 276.207 2176.89 275.894C2175.62 275.713 2173 274.338 2173 272.288C2173 270.238 2174.65 268.361 2176.89 268.476C2181.8 268.74 2180.94 271.35 2180.94 272.189Z" fill="#F67C87"/>
<path d="M1505.94 265.665C1505.94 267.715 1504.09 269.683 1501.89 269.37C1500.62 269.189 1498 267.814 1498 265.764C1498 263.714 1499.65 261.837 1501.89 261.952C1506.8 262.216 1505.94 264.826 1505.94 265.665Z" fill="#F67C87"/>
<path d="M3549.94 294.718C3549.94 296.768 3548.09 298.736 3545.89 298.423C3544.62 298.242 3542 296.867 3542 294.817C3542 292.767 3543.65 290.89 3545.89 291.005C3550.8 291.268 3549.94 293.878 3549.94 294.718Z" fill="#F67C87"/>
<path d="M1208.88 227.911C1208.88 232.267 1204.95 236.448 1200.26 235.783C1197.58 235.398 1192 232.477 1192 228.12C1192 223.764 1195.51 219.776 1200.26 220.02C1210.7 220.58 1208.88 226.126 1208.88 227.911Z" fill="#F67C87"/>
<path d="M2966.94 324.718C2966.94 326.768 2965.09 328.736 2962.89 328.423C2961.62 328.242 2959 326.867 2959 324.817C2959 322.767 2960.65 320.89 2962.89 321.005C2967.8 321.268 2966.94 323.878 2966.94 324.718Z" fill="#F7B289"/>
<path d="M1625.88 290.901C1625.88 295.257 1621.95 299.438 1617.26 298.773C1614.58 298.388 1609 295.467 1609 291.111C1609 286.755 1612.51 282.766 1617.26 283.011C1627.7 283.571 1625.88 289.116 1625.88 290.901Z" fill="#F67C87"/>
<path d="M2676.88 240.901C2676.88 245.257 2672.95 249.438 2668.26 248.773C2665.58 248.388 2660 245.467 2660 241.111C2660 236.755 2663.51 232.766 2668.26 233.011C2678.7 233.571 2676.88 239.116 2676.88 240.901Z" fill="#F67C87"/>
<path d="M3179.88 370.901C3179.88 375.257 3175.95 379.438 3171.26 378.773C3168.58 378.388 3163 375.467 3163 371.111C3163 366.755 3166.51 362.766 3171.26 363.011C3181.7 363.571 3179.88 369.116 3179.88 370.901Z" fill="#F67C87"/>
<path d="M3872.88 315.901C3872.88 320.257 3868.95 324.438 3864.26 323.773C3861.58 323.388 3856 320.467 3856 316.111C3856 311.755 3859.51 307.766 3864.26 308.011C3874.7 308.571 3872.88 314.116 3872.88 315.901Z" fill="#F67C87"/>
<path d="M2312.88 374.901C2312.88 379.257 2308.95 383.438 2304.26 382.773C2301.58 382.388 2296 379.467 2296 375.111C2296 370.755 2299.51 366.766 2304.26 367.011C2314.7 367.571 2312.88 373.116 2312.88 374.901Z" fill="#F67C87"/>
</svg>
