<svg width="4064" height="573" viewBox="0 0 4064 573" fill="none" xmlns="http://www.w3.org/2000/svg">
<path opacity="0.3" d="M4062.5 304.5C4039 323 3993.5 324 3977.5 325.5C3961.5 327 3888.5 335.769 3803 286C3776.2 270.4 3724.5 266.261 3702 266.142C3605.2 260.55 3532 296.929 3507.5 315.817C3467.17 341.135 3364.7 392.145 3277.5 393.636C3168.5 395.5 3165.5 335.573 2914.5 322.06C2751.05 313.259 2680.5 205.565 2519.5 205.565C2428.98 205.565 2452 374.715 2321 374.715C2244.5 374.715 2224 251.046 2091 251.046C1958 251.046 2004.5 345.824 1866.5 337.903C1728.5 329.981 1701 302.77 1493 264.094C1285 225.417 1211.5 216.098 1043 251.046C874.5 285.995 812.022 231.44 796.5 219.078C769 197.177 719.309 177.977 667.5 193.916C615.691 209.854 652.5 276.86 602 282.452C551.5 288.043 570.982 268.163 486 264.094C286.282 254.531 26.5004 292.703 66.5004 322.526C106.5 352.348 94.0004 260.085 59.0004 268.472C24.0004 276.86 59.0002 308.546 47.5004 317.866C38.8336 320.972 22.6 326.254 17 322.526" stroke="#403F3C" stroke-width="3"/>
<path d="M247 46.6653H220.225V493.073H196" stroke="#D9D7CB" stroke-width="2"/>
<path d="M1079 202.302V442.748H1055" stroke="#D9D7CB" stroke-width="2"/>
<path d="M1200 185.527V483.754H1176" stroke="#D9D7CB" stroke-width="2"/>
<path d="M1282 87.6719V370.521" stroke="#D9D7CB" stroke-width="2"/>
<path d="M647 93.7292V446.475" stroke="#D9D7CB" stroke-width="2"/>
<path d="M1421 27.0945V335.5M1421 483.5V335.5M1421 335.5H1393" stroke="#D9D7CB" stroke-width="2"/>
<path d="M752 151.045V513.111" stroke="#D9D7CB" stroke-width="2"/>
<path d="M247 272.199L247 541.535" stroke="#D9D7CB" stroke-width="2"/>
<line x1="46" y1="317.795" x2="46" y2="417.515" stroke="#D9D7CB" stroke-width="2"/>
<line x1="46" y1="175" x2="46" y2="274.719" stroke="#D9D7CB" stroke-width="2"/>
<path d="M362 264.745L362 353.747" stroke="#D9D7CB" stroke-width="2"/>
<path d="M141 106L141 195.5M141 285L141 195.5M141 195.5L122 195.5" stroke="#D9D7CB" stroke-width="2"/>
<path d="M125 289L125 355.169" stroke="#D9D7CB" stroke-width="2"/>
<path d="M319 239.581L319 265.21" stroke="#D9D7CB" stroke-width="2"/>
<path d="M199 280.587L199 315.07L199 349.552" stroke="#D9D7CB" stroke-width="2"/>
<path d="M406 96.0601L406 261.016" stroke="#D9D7CB" stroke-width="2"/>
<path d="M468 195.78L468 260.551" stroke="#D9D7CB" stroke-width="2"/>
<path d="M505.5 61.5764L505.5 479.559" stroke="#D9D7CB" stroke-width="2"/>
<path d="M433 261.016L433 469.5M433 519L433 469.5M433 469.5L417.5 469.5" stroke="#D9D7CB" stroke-width="2"/>
<path d="M579.5 282.446L579.5 334.174" stroke="#D9D7CB" stroke-width="2"/>
<path d="M935.5 261.943L935.5 309.011" stroke="#D9D7CB" stroke-width="2"/>
<path d="M804.072 224.67L804.072 322.52" stroke="#D9D7CB" stroke-width="2"/>
<path d="M1341 205.099L1341 235.853" stroke="#D9D7CB" stroke-width="2"/>
<path d="M865 218.145L865 295" stroke="#D9D7CB" stroke-width="2"/>
<path d="M1004.52 95.1277L1004.52 255.424" stroke="#D9D7CB" stroke-width="2"/>
<path d="M1200.5 368.187L1170 368.186" stroke="#D9D7CB" stroke-width="2"/>
<path d="M1617 61.5764V379.84M1617 473.036V379.84M1617 379.84H1589" stroke="#D9D7CB" stroke-width="2"/>
<path d="M2963 94V404M2963 532.02V404M2963 404H2935" stroke="#D9D7CB" stroke-width="2"/>
<path d="M1904 60.1787V117.96M1904 402.673H1876M1904 402.673V529.419M1904 402.673V135.201M1904 117.96H1876M1904 117.96V135.201M1904 135.201H1933.5" stroke="#D9D7CB" stroke-width="2"/>
<path d="M2306.24 40.6079V249.832M2306.24 458.5H2278M2306.24 458.5V101.494M2306.24 458.5V479.094M2306.24 528.487V479.094M2306.24 249.832H2333M2306.24 249.832L2306.24 101.494M2306.24 101.494H2336M2306.24 479.094H2333" stroke="#D9D7CB" stroke-width="2"/>
<path d="M3171.24 31.2883V130.076M3171.24 378.5H3143M3171.24 378.5V255M3171.24 378.5V440.418M3171.24 515.44V440.418M3171.24 130.076H3143M3171.24 130.076V255M3171.24 255H3263M3171.24 440.418H3228.5" stroke="#D9D7CB" stroke-width="2"/>
<path d="M2668.74 0V48M2668.74 469.288H2601M2668.74 469.288L2668.74 536.389L2668.74 548.97M2668.74 469.288L2668.74 375.5M2668.74 32H2574M2668.74 32V48M2668.74 32L2668.74 65.9862V128M2668.74 128H2710M2668.74 128V139.812M2668.74 263.791H2535M2668.74 263.791V331.358M2668.74 263.791L2668.74 224M2668.74 331.358H2767M2668.74 331.358V375.5M2668.74 375.5H2561M2668.74 375.5V415H2728M2668.74 224H2842M2668.74 224L2668.74 139.812M2668.74 139.812H2593.5M2668.74 48H2767" stroke="#D9D7CB" stroke-width="2"/>
<path d="M3544.74 54.7544V108.342M3544.74 440H3450M3544.74 440L3544.74 547.76M3544.74 440L3544.74 498.863V422.767V370.688M3544.74 131.921H3516.5M3544.74 131.921V108.342M3544.74 131.921V179.605M3544.74 179.605H3588.5M3544.74 179.605V222.762M3544.74 370.688H3583.5M3544.74 370.688V222.762M3544.74 222.762H3497M3544.74 108.342H3574.5" stroke="#D9D7CB" stroke-width="2"/>
<path d="M3863 572.56L3863 495.382M3863 125.687H3907M3863 125.687V94M3863 125.687L3863 159.373V232.955M3907 476.568H3863V495.382M3863 403H3778M3863 403L3863 374.519M3863 403L3863 495.382M3863 287.847V232.955M3863 287.847L3863 374.519M3863 287.847H3778M3863 232.955H3907M3863 374.519H3974.5M3863 495.382H3727" stroke="#D9D7CB" stroke-width="2"/>
<path d="M2040 308.683H2074M2040 308.683V422.245M2040 308.683V69.0332" stroke="#D9D7CB" stroke-width="2"/>
<path d="M2176 373L2176 186" stroke="#D9D7CB" stroke-width="2"/>
<line y1="-1" x2="31.6863" y2="-1" transform="matrix(0.000644001 1 -1 0.000559344 1802 296.431)" stroke="#D9D7CB" stroke-width="2"/>
<line x1="1502" y1="254.493" x2="1502" y2="262.88" stroke="#D9D7CB" stroke-width="2"/>
<rect x="4" y="310" width="38" height="20" fill="#F3BEF1"/>
<path d="M11.3359 315.013V325H9.68848V316.968L7.24805 317.795V316.435L11.1377 315.013H11.3359ZM16.1211 323.701H16.2578C16.8867 323.701 17.4108 323.619 17.8301 323.455C18.2539 323.286 18.5911 323.054 18.8418 322.758C19.0924 322.462 19.2725 322.113 19.3818 321.712C19.4912 321.311 19.5459 320.876 19.5459 320.406V318.69C19.5459 318.285 19.5026 317.929 19.416 317.624C19.334 317.314 19.2155 317.057 19.0605 316.852C18.9102 316.642 18.7347 316.485 18.5342 316.38C18.3382 316.275 18.1263 316.223 17.8984 316.223C17.6478 316.223 17.4222 316.28 17.2217 316.394C17.0257 316.503 16.8594 316.656 16.7227 316.852C16.5905 317.043 16.488 317.269 16.415 317.528C16.3467 317.784 16.3125 318.057 16.3125 318.349C16.3125 318.622 16.3444 318.886 16.4082 319.142C16.4766 319.392 16.5768 319.616 16.709 319.812C16.8411 320.007 17.0075 320.162 17.208 320.276C17.4085 320.39 17.6432 320.447 17.9121 320.447C18.1673 320.447 18.402 320.399 18.6162 320.304C18.8304 320.203 19.0173 320.069 19.1768 319.9C19.3363 319.732 19.4616 319.543 19.5527 319.333C19.6439 319.123 19.694 318.909 19.7031 318.69L20.332 318.882C20.332 319.228 20.2591 319.57 20.1133 319.907C19.972 320.24 19.7738 320.545 19.5186 320.823C19.2679 321.097 18.974 321.315 18.6367 321.479C18.304 321.644 17.9417 321.726 17.5498 321.726C17.0758 321.726 16.6566 321.637 16.292 321.459C15.932 321.277 15.6312 321.031 15.3896 320.721C15.1527 320.411 14.9749 320.055 14.8564 319.654C14.738 319.253 14.6787 318.832 14.6787 318.39C14.6787 317.911 14.7516 317.462 14.8975 317.043C15.0433 316.624 15.2552 316.255 15.5332 315.936C15.8112 315.612 16.1484 315.361 16.5449 315.184C16.946 315.001 17.3994 314.91 17.9053 314.91C18.443 314.91 18.9147 315.015 19.3203 315.225C19.7259 315.434 20.0677 315.724 20.3457 316.093C20.6237 316.462 20.8333 316.89 20.9746 317.378C21.1159 317.866 21.1865 318.39 21.1865 318.95V319.531C21.1865 320.119 21.1341 320.687 21.0293 321.233C20.9245 321.776 20.7536 322.279 20.5166 322.744C20.2842 323.204 19.9766 323.61 19.5938 323.961C19.2155 324.307 18.7507 324.578 18.1992 324.774C17.6523 324.966 17.0098 325.062 16.2715 325.062H16.1211V323.701ZM27.7285 314.985H27.9336V316.332H27.8174C27.2295 316.332 26.7214 316.423 26.293 316.605C25.8691 316.788 25.5205 317.038 25.2471 317.357C24.9736 317.676 24.7686 318.05 24.6318 318.479C24.4997 318.902 24.4336 319.354 24.4336 319.832V321.397C24.4336 321.794 24.4769 322.145 24.5635 322.45C24.6501 322.751 24.7708 323.004 24.9258 323.209C25.0853 323.41 25.2676 323.562 25.4727 323.667C25.6777 323.772 25.8988 323.824 26.1357 323.824C26.3818 323.824 26.6051 323.774 26.8057 323.674C27.0062 323.569 27.1771 323.425 27.3184 323.243C27.4596 323.061 27.5667 322.844 27.6396 322.594C27.7126 322.343 27.749 322.07 27.749 321.773C27.749 321.491 27.7126 321.227 27.6396 320.98C27.5713 320.73 27.4688 320.511 27.332 320.324C27.1953 320.133 27.0244 319.985 26.8193 319.88C26.6188 319.771 26.3864 319.716 26.1221 319.716C25.7939 319.716 25.4954 319.793 25.2266 319.948C24.9622 320.103 24.748 320.306 24.584 320.557C24.4245 320.803 24.3379 321.065 24.3242 321.343L23.6953 321.138C23.7318 320.714 23.8252 320.333 23.9756 319.996C24.1305 319.659 24.3333 319.372 24.584 319.135C24.8346 318.898 25.124 318.718 25.4521 318.595C25.7848 318.467 26.1494 318.403 26.5459 318.403C27.029 318.403 27.4482 318.494 27.8037 318.677C28.1592 318.859 28.4531 319.107 28.6855 319.422C28.9225 319.732 29.098 320.087 29.2119 320.488C29.3304 320.885 29.3896 321.299 29.3896 321.732C29.3896 322.211 29.3167 322.658 29.1709 323.072C29.0251 323.482 28.8109 323.842 28.5283 324.152C28.2503 324.462 27.9108 324.704 27.5098 324.877C27.1133 325.05 26.6621 325.137 26.1562 325.137C25.623 325.137 25.1468 325.034 24.7275 324.829C24.3128 324.624 23.9596 324.341 23.668 323.981C23.3809 323.621 23.1621 323.207 23.0117 322.737C22.8613 322.268 22.7861 321.771 22.7861 321.247V320.563C22.7861 319.807 22.8818 319.094 23.0732 318.424C23.2646 317.749 23.5586 317.155 23.9551 316.64C24.3561 316.125 24.8688 315.721 25.4932 315.43C26.1175 315.133 26.8626 314.985 27.7285 314.985ZM37.1963 319.189V320.816C37.1963 321.596 37.1188 322.261 36.9639 322.812C36.8135 323.359 36.5947 323.804 36.3076 324.146C36.0205 324.487 35.6764 324.738 35.2754 324.897C34.8789 325.057 34.4346 325.137 33.9424 325.137C33.5505 325.137 33.1859 325.087 32.8486 324.986C32.516 324.886 32.2152 324.729 31.9463 324.515C31.6774 324.3 31.4473 324.025 31.2559 323.688C31.069 323.346 30.9232 322.938 30.8184 322.464C30.7181 321.99 30.668 321.441 30.668 320.816V319.189C30.668 318.406 30.7454 317.745 30.9004 317.207C31.0553 316.665 31.2764 316.225 31.5635 315.888C31.8506 315.546 32.1924 315.298 32.5889 315.143C32.9899 314.988 33.4365 314.91 33.9287 314.91C34.3252 314.91 34.6898 314.96 35.0225 315.061C35.3597 315.156 35.6605 315.309 35.9248 315.519C36.1937 315.728 36.4215 316.002 36.6084 316.339C36.7998 316.672 36.9456 317.075 37.0459 317.549C37.1462 318.018 37.1963 318.565 37.1963 319.189ZM35.5488 321.049V318.943C35.5488 318.547 35.526 318.198 35.4805 317.897C35.4349 317.592 35.3665 317.335 35.2754 317.125C35.1888 316.911 35.0794 316.738 34.9473 316.605C34.8151 316.469 34.6647 316.371 34.4961 316.312C34.3275 316.248 34.1383 316.216 33.9287 316.216C33.6735 316.216 33.4456 316.266 33.2451 316.366C33.0446 316.462 32.876 316.617 32.7393 316.831C32.6025 317.045 32.4977 317.328 32.4248 317.679C32.3564 318.025 32.3223 318.447 32.3223 318.943V321.049C32.3223 321.45 32.3451 321.803 32.3906 322.108C32.4362 322.414 32.5046 322.676 32.5957 322.895C32.6868 323.109 32.7962 323.286 32.9238 323.428C33.056 323.564 33.2064 323.665 33.375 323.729C33.5482 323.792 33.7373 323.824 33.9424 323.824C34.2021 323.824 34.4323 323.774 34.6328 323.674C34.8333 323.574 35.002 323.414 35.1387 323.195C35.2754 322.972 35.3779 322.683 35.4463 322.327C35.5146 321.972 35.5488 321.546 35.5488 321.049Z" fill="#3A3A3A"/>
<rect x="72" y="261" width="38" height="20" fill="#F3BEF1"/>
<path d="M80.3359 265.013V275H78.6885V266.968L76.248 267.795V266.435L80.1377 265.013H80.3359ZM85.1211 273.701H85.2578C85.8867 273.701 86.4108 273.619 86.8301 273.455C87.2539 273.286 87.5911 273.054 87.8418 272.758C88.0924 272.462 88.2725 272.113 88.3818 271.712C88.4912 271.311 88.5459 270.876 88.5459 270.406V268.69C88.5459 268.285 88.5026 267.929 88.416 267.624C88.334 267.314 88.2155 267.057 88.0605 266.852C87.9102 266.642 87.7347 266.485 87.5342 266.38C87.3382 266.275 87.1263 266.223 86.8984 266.223C86.6478 266.223 86.4222 266.28 86.2217 266.394C86.0257 266.503 85.8594 266.656 85.7227 266.852C85.5905 267.043 85.488 267.269 85.415 267.528C85.3467 267.784 85.3125 268.057 85.3125 268.349C85.3125 268.622 85.3444 268.886 85.4082 269.142C85.4766 269.392 85.5768 269.616 85.709 269.812C85.8411 270.007 86.0075 270.162 86.208 270.276C86.4085 270.39 86.6432 270.447 86.9121 270.447C87.1673 270.447 87.402 270.399 87.6162 270.304C87.8304 270.203 88.0173 270.069 88.1768 269.9C88.3363 269.732 88.4616 269.543 88.5527 269.333C88.6439 269.123 88.694 268.909 88.7031 268.69L89.332 268.882C89.332 269.228 89.2591 269.57 89.1133 269.907C88.972 270.24 88.7738 270.545 88.5186 270.823C88.2679 271.097 87.974 271.315 87.6367 271.479C87.304 271.644 86.9417 271.726 86.5498 271.726C86.0758 271.726 85.6566 271.637 85.292 271.459C84.932 271.277 84.6312 271.031 84.3896 270.721C84.1527 270.411 83.9749 270.055 83.8564 269.654C83.738 269.253 83.6787 268.832 83.6787 268.39C83.6787 267.911 83.7516 267.462 83.8975 267.043C84.0433 266.624 84.2552 266.255 84.5332 265.936C84.8112 265.612 85.1484 265.361 85.5449 265.184C85.946 265.001 86.3994 264.91 86.9053 264.91C87.443 264.91 87.9147 265.015 88.3203 265.225C88.7259 265.434 89.0677 265.724 89.3457 266.093C89.6237 266.462 89.8333 266.89 89.9746 267.378C90.1159 267.866 90.1865 268.39 90.1865 268.95V269.531C90.1865 270.119 90.1341 270.687 90.0293 271.233C89.9245 271.776 89.7536 272.279 89.5166 272.744C89.2842 273.204 88.9766 273.61 88.5938 273.961C88.2155 274.307 87.7507 274.578 87.1992 274.774C86.6523 274.966 86.0098 275.062 85.2715 275.062H85.1211V273.701ZM98.3623 265.047V265.949L94.3838 275H92.6475L96.6191 266.359H91.4648V265.047H98.3623ZM106.196 269.189V270.816C106.196 271.596 106.119 272.261 105.964 272.812C105.813 273.359 105.595 273.804 105.308 274.146C105.021 274.487 104.676 274.738 104.275 274.897C103.879 275.057 103.435 275.137 102.942 275.137C102.55 275.137 102.186 275.087 101.849 274.986C101.516 274.886 101.215 274.729 100.946 274.515C100.677 274.3 100.447 274.025 100.256 273.688C100.069 273.346 99.9232 272.938 99.8184 272.464C99.7181 271.99 99.668 271.441 99.668 270.816V269.189C99.668 268.406 99.7454 267.745 99.9004 267.207C100.055 266.665 100.276 266.225 100.563 265.888C100.851 265.546 101.192 265.298 101.589 265.143C101.99 264.988 102.437 264.91 102.929 264.91C103.325 264.91 103.69 264.96 104.022 265.061C104.36 265.156 104.66 265.309 104.925 265.519C105.194 265.728 105.422 266.002 105.608 266.339C105.8 266.672 105.946 267.075 106.046 267.549C106.146 268.018 106.196 268.565 106.196 269.189ZM104.549 271.049V268.943C104.549 268.547 104.526 268.198 104.48 267.897C104.435 267.592 104.367 267.335 104.275 267.125C104.189 266.911 104.079 266.738 103.947 266.605C103.815 266.469 103.665 266.371 103.496 266.312C103.327 266.248 103.138 266.216 102.929 266.216C102.674 266.216 102.446 266.266 102.245 266.366C102.045 266.462 101.876 266.617 101.739 266.831C101.603 267.045 101.498 267.328 101.425 267.679C101.356 268.025 101.322 268.447 101.322 268.943V271.049C101.322 271.45 101.345 271.803 101.391 272.108C101.436 272.414 101.505 272.676 101.596 272.895C101.687 273.109 101.796 273.286 101.924 273.428C102.056 273.564 102.206 273.665 102.375 273.729C102.548 273.792 102.737 273.824 102.942 273.824C103.202 273.824 103.432 273.774 103.633 273.674C103.833 273.574 104.002 273.414 104.139 273.195C104.275 272.972 104.378 272.683 104.446 272.327C104.515 271.972 104.549 271.546 104.549 271.049Z" fill="#3A3A3A"/>
<rect x="148" y="290" width="38" height="20" fill="#F3BEF1"/>
<path d="M156.336 295.013V305H154.688V296.968L152.248 297.795V296.435L156.138 295.013H156.336ZM161.121 303.701H161.258C161.887 303.701 162.411 303.619 162.83 303.455C163.254 303.286 163.591 303.054 163.842 302.758C164.092 302.462 164.272 302.113 164.382 301.712C164.491 301.311 164.546 300.876 164.546 300.406V298.69C164.546 298.285 164.503 297.929 164.416 297.624C164.334 297.314 164.215 297.057 164.061 296.852C163.91 296.642 163.735 296.485 163.534 296.38C163.338 296.275 163.126 296.223 162.898 296.223C162.648 296.223 162.422 296.28 162.222 296.394C162.026 296.503 161.859 296.656 161.723 296.852C161.59 297.043 161.488 297.269 161.415 297.528C161.347 297.784 161.312 298.057 161.312 298.349C161.312 298.622 161.344 298.886 161.408 299.142C161.477 299.392 161.577 299.616 161.709 299.812C161.841 300.007 162.007 300.162 162.208 300.276C162.409 300.39 162.643 300.447 162.912 300.447C163.167 300.447 163.402 300.399 163.616 300.304C163.83 300.203 164.017 300.069 164.177 299.9C164.336 299.732 164.462 299.543 164.553 299.333C164.644 299.123 164.694 298.909 164.703 298.69L165.332 298.882C165.332 299.228 165.259 299.57 165.113 299.907C164.972 300.24 164.774 300.545 164.519 300.823C164.268 301.097 163.974 301.315 163.637 301.479C163.304 301.644 162.942 301.726 162.55 301.726C162.076 301.726 161.657 301.637 161.292 301.459C160.932 301.277 160.631 301.031 160.39 300.721C160.153 300.411 159.975 300.055 159.856 299.654C159.738 299.253 159.679 298.832 159.679 298.39C159.679 297.911 159.752 297.462 159.897 297.043C160.043 296.624 160.255 296.255 160.533 295.936C160.811 295.612 161.148 295.361 161.545 295.184C161.946 295.001 162.399 294.91 162.905 294.91C163.443 294.91 163.915 295.015 164.32 295.225C164.726 295.434 165.068 295.724 165.346 296.093C165.624 296.462 165.833 296.89 165.975 297.378C166.116 297.866 166.187 298.39 166.187 298.95V299.531C166.187 300.119 166.134 300.687 166.029 301.233C165.924 301.776 165.754 302.279 165.517 302.744C165.284 303.204 164.977 303.61 164.594 303.961C164.215 304.307 163.751 304.578 163.199 304.774C162.652 304.966 162.01 305.062 161.271 305.062H161.121V303.701ZM174.26 302.286C174.26 302.906 174.116 303.428 173.829 303.852C173.542 304.275 173.15 304.597 172.653 304.815C172.161 305.03 171.605 305.137 170.985 305.137C170.366 305.137 169.807 305.03 169.311 304.815C168.814 304.597 168.422 304.275 168.135 303.852C167.848 303.428 167.704 302.906 167.704 302.286C167.704 301.876 167.784 301.505 167.943 301.172C168.103 300.835 168.328 300.545 168.62 300.304C168.916 300.058 169.263 299.868 169.659 299.736C170.06 299.604 170.498 299.538 170.972 299.538C171.601 299.538 172.163 299.654 172.66 299.887C173.157 300.119 173.547 300.44 173.829 300.851C174.116 301.261 174.26 301.739 174.26 302.286ZM172.605 302.204C172.605 301.871 172.537 301.58 172.4 301.329C172.264 301.078 172.072 300.885 171.826 300.748C171.58 300.611 171.295 300.543 170.972 300.543C170.644 300.543 170.359 300.611 170.117 300.748C169.876 300.885 169.687 301.078 169.55 301.329C169.418 301.58 169.352 301.871 169.352 302.204C169.352 302.541 169.418 302.833 169.55 303.079C169.682 303.321 169.871 303.505 170.117 303.633C170.363 303.76 170.653 303.824 170.985 303.824C171.318 303.824 171.605 303.76 171.847 303.633C172.088 303.505 172.275 303.321 172.407 303.079C172.539 302.833 172.605 302.541 172.605 302.204ZM174.034 297.665C174.034 298.162 173.902 298.604 173.638 298.991C173.378 299.379 173.018 299.684 172.558 299.907C172.097 300.126 171.573 300.235 170.985 300.235C170.393 300.235 169.864 300.126 169.399 299.907C168.939 299.684 168.577 299.379 168.312 298.991C168.053 298.604 167.923 298.162 167.923 297.665C167.923 297.073 168.053 296.574 168.312 296.168C168.577 295.758 168.939 295.446 169.399 295.231C169.86 295.017 170.386 294.91 170.979 294.91C171.571 294.91 172.097 295.017 172.558 295.231C173.018 295.446 173.378 295.758 173.638 296.168C173.902 296.574 174.034 297.073 174.034 297.665ZM172.387 297.72C172.387 297.424 172.327 297.164 172.209 296.94C172.095 296.713 171.933 296.535 171.724 296.407C171.514 296.28 171.266 296.216 170.979 296.216C170.691 296.216 170.443 296.277 170.233 296.4C170.024 296.523 169.862 296.697 169.748 296.92C169.634 297.143 169.577 297.41 169.577 297.72C169.577 298.025 169.634 298.292 169.748 298.52C169.862 298.743 170.024 298.918 170.233 299.046C170.448 299.174 170.698 299.237 170.985 299.237C171.272 299.237 171.521 299.174 171.73 299.046C171.94 298.918 172.102 298.743 172.216 298.52C172.33 298.292 172.387 298.025 172.387 297.72ZM182.196 299.189V300.816C182.196 301.596 182.119 302.261 181.964 302.812C181.813 303.359 181.595 303.804 181.308 304.146C181.021 304.487 180.676 304.738 180.275 304.897C179.879 305.057 179.435 305.137 178.942 305.137C178.55 305.137 178.186 305.087 177.849 304.986C177.516 304.886 177.215 304.729 176.946 304.515C176.677 304.3 176.447 304.025 176.256 303.688C176.069 303.346 175.923 302.938 175.818 302.464C175.718 301.99 175.668 301.441 175.668 300.816V299.189C175.668 298.406 175.745 297.745 175.9 297.207C176.055 296.665 176.276 296.225 176.563 295.888C176.851 295.546 177.192 295.298 177.589 295.143C177.99 294.988 178.437 294.91 178.929 294.91C179.325 294.91 179.69 294.96 180.022 295.061C180.36 295.156 180.66 295.309 180.925 295.519C181.194 295.728 181.422 296.002 181.608 296.339C181.8 296.672 181.946 297.075 182.046 297.549C182.146 298.018 182.196 298.565 182.196 299.189ZM180.549 301.049V298.943C180.549 298.547 180.526 298.198 180.48 297.897C180.435 297.592 180.367 297.335 180.275 297.125C180.189 296.911 180.079 296.738 179.947 296.605C179.815 296.469 179.665 296.371 179.496 296.312C179.327 296.248 179.138 296.216 178.929 296.216C178.674 296.216 178.446 296.266 178.245 296.366C178.045 296.462 177.876 296.617 177.739 296.831C177.603 297.045 177.498 297.328 177.425 297.679C177.356 298.025 177.322 298.447 177.322 298.943V301.049C177.322 301.45 177.345 301.803 177.391 302.108C177.436 302.414 177.505 302.676 177.596 302.895C177.687 303.109 177.796 303.286 177.924 303.428C178.056 303.564 178.206 303.665 178.375 303.729C178.548 303.792 178.737 303.824 178.942 303.824C179.202 303.824 179.432 303.774 179.633 303.674C179.833 303.574 180.002 303.414 180.139 303.195C180.275 302.972 180.378 302.683 180.446 302.327C180.515 301.972 180.549 301.546 180.549 301.049Z" fill="#3A3A3A"/>
<rect x="387" y="235" width="38" height="20" fill="#F3BEF1"/>
<path d="M394.336 240.013V250H392.688V241.968L390.248 242.795V241.435L394.138 240.013H394.336ZM399.121 248.701H399.258C399.887 248.701 400.411 248.619 400.83 248.455C401.254 248.286 401.591 248.054 401.842 247.758C402.092 247.462 402.272 247.113 402.382 246.712C402.491 246.311 402.546 245.876 402.546 245.406V243.69C402.546 243.285 402.503 242.929 402.416 242.624C402.334 242.314 402.215 242.057 402.061 241.852C401.91 241.642 401.735 241.485 401.534 241.38C401.338 241.275 401.126 241.223 400.898 241.223C400.648 241.223 400.422 241.28 400.222 241.394C400.026 241.503 399.859 241.656 399.723 241.852C399.59 242.043 399.488 242.269 399.415 242.528C399.347 242.784 399.312 243.057 399.312 243.349C399.312 243.622 399.344 243.886 399.408 244.142C399.477 244.392 399.577 244.616 399.709 244.812C399.841 245.007 400.007 245.162 400.208 245.276C400.409 245.39 400.643 245.447 400.912 245.447C401.167 245.447 401.402 245.399 401.616 245.304C401.83 245.203 402.017 245.069 402.177 244.9C402.336 244.732 402.462 244.543 402.553 244.333C402.644 244.123 402.694 243.909 402.703 243.69L403.332 243.882C403.332 244.228 403.259 244.57 403.113 244.907C402.972 245.24 402.774 245.545 402.519 245.823C402.268 246.097 401.974 246.315 401.637 246.479C401.304 246.644 400.942 246.726 400.55 246.726C400.076 246.726 399.657 246.637 399.292 246.459C398.932 246.277 398.631 246.031 398.39 245.721C398.153 245.411 397.975 245.055 397.856 244.654C397.738 244.253 397.679 243.832 397.679 243.39C397.679 242.911 397.752 242.462 397.897 242.043C398.043 241.624 398.255 241.255 398.533 240.936C398.811 240.612 399.148 240.361 399.545 240.184C399.946 240.001 400.399 239.91 400.905 239.91C401.443 239.91 401.915 240.015 402.32 240.225C402.726 240.434 403.068 240.724 403.346 241.093C403.624 241.462 403.833 241.89 403.975 242.378C404.116 242.866 404.187 243.39 404.187 243.95V244.531C404.187 245.119 404.134 245.687 404.029 246.233C403.924 246.776 403.754 247.279 403.517 247.744C403.284 248.204 402.977 248.61 402.594 248.961C402.215 249.307 401.751 249.578 401.199 249.774C400.652 249.966 400.01 250.062 399.271 250.062H399.121V248.701ZM407.078 248.701H407.215C407.844 248.701 408.368 248.619 408.787 248.455C409.211 248.286 409.548 248.054 409.799 247.758C410.049 247.462 410.229 247.113 410.339 246.712C410.448 246.311 410.503 245.876 410.503 245.406V243.69C410.503 243.285 410.46 242.929 410.373 242.624C410.291 242.314 410.173 242.057 410.018 241.852C409.867 241.642 409.692 241.485 409.491 241.38C409.295 241.275 409.083 241.223 408.855 241.223C408.605 241.223 408.379 241.28 408.179 241.394C407.983 241.503 407.816 241.656 407.68 241.852C407.548 242.043 407.445 242.269 407.372 242.528C407.304 242.784 407.27 243.057 407.27 243.349C407.27 243.622 407.301 243.886 407.365 244.142C407.434 244.392 407.534 244.616 407.666 244.812C407.798 245.007 407.965 245.162 408.165 245.276C408.366 245.39 408.6 245.447 408.869 245.447C409.124 245.447 409.359 245.399 409.573 245.304C409.787 245.203 409.974 245.069 410.134 244.9C410.293 244.732 410.419 244.543 410.51 244.333C410.601 244.123 410.651 243.909 410.66 243.69L411.289 243.882C411.289 244.228 411.216 244.57 411.07 244.907C410.929 245.24 410.731 245.545 410.476 245.823C410.225 246.097 409.931 246.315 409.594 246.479C409.261 246.644 408.899 246.726 408.507 246.726C408.033 246.726 407.614 246.637 407.249 246.459C406.889 246.277 406.588 246.031 406.347 245.721C406.11 245.411 405.932 245.055 405.813 244.654C405.695 244.253 405.636 243.832 405.636 243.39C405.636 242.911 405.709 242.462 405.854 242.043C406 241.624 406.212 241.255 406.49 240.936C406.768 240.612 407.105 240.361 407.502 240.184C407.903 240.001 408.356 239.91 408.862 239.91C409.4 239.91 409.872 240.015 410.277 240.225C410.683 240.434 411.025 240.724 411.303 241.093C411.581 241.462 411.79 241.89 411.932 242.378C412.073 242.866 412.144 243.39 412.144 243.95V244.531C412.144 245.119 412.091 245.687 411.986 246.233C411.882 246.776 411.711 247.279 411.474 247.744C411.241 248.204 410.934 248.61 410.551 248.961C410.173 249.307 409.708 249.578 409.156 249.774C408.609 249.966 407.967 250.062 407.229 250.062H407.078V248.701ZM420.196 244.189V245.816C420.196 246.596 420.119 247.261 419.964 247.812C419.813 248.359 419.595 248.804 419.308 249.146C419.021 249.487 418.676 249.738 418.275 249.897C417.879 250.057 417.435 250.137 416.942 250.137C416.55 250.137 416.186 250.087 415.849 249.986C415.516 249.886 415.215 249.729 414.946 249.515C414.677 249.3 414.447 249.025 414.256 248.688C414.069 248.346 413.923 247.938 413.818 247.464C413.718 246.99 413.668 246.441 413.668 245.816V244.189C413.668 243.406 413.745 242.745 413.9 242.207C414.055 241.665 414.276 241.225 414.563 240.888C414.851 240.546 415.192 240.298 415.589 240.143C415.99 239.988 416.437 239.91 416.929 239.91C417.325 239.91 417.69 239.96 418.022 240.061C418.36 240.156 418.66 240.309 418.925 240.519C419.194 240.728 419.422 241.002 419.608 241.339C419.8 241.672 419.946 242.075 420.046 242.549C420.146 243.018 420.196 243.565 420.196 244.189ZM418.549 246.049V243.943C418.549 243.547 418.526 243.198 418.48 242.897C418.435 242.592 418.367 242.335 418.275 242.125C418.189 241.911 418.079 241.738 417.947 241.605C417.815 241.469 417.665 241.371 417.496 241.312C417.327 241.248 417.138 241.216 416.929 241.216C416.674 241.216 416.446 241.266 416.245 241.366C416.045 241.462 415.876 241.617 415.739 241.831C415.603 242.045 415.498 242.328 415.425 242.679C415.356 243.025 415.322 243.447 415.322 243.943V246.049C415.322 246.45 415.345 246.803 415.391 247.108C415.436 247.414 415.505 247.676 415.596 247.895C415.687 248.109 415.796 248.286 415.924 248.428C416.056 248.564 416.206 248.665 416.375 248.729C416.548 248.792 416.737 248.824 416.942 248.824C417.202 248.824 417.432 248.774 417.633 248.674C417.833 248.574 418.002 248.414 418.139 248.195C418.275 247.972 418.378 247.683 418.446 247.327C418.515 246.972 418.549 246.546 418.549 246.049Z" fill="#3A3A3A"/>
<rect x="784" y="240" width="38" height="20" fill="#F3BEF1"/>
<path d="M794.51 253.688V255H787.838V253.872L791.078 250.338C791.434 249.937 791.714 249.59 791.919 249.299C792.124 249.007 792.268 248.745 792.35 248.513C792.436 248.276 792.479 248.046 792.479 247.822C792.479 247.508 792.42 247.232 792.302 246.995C792.188 246.754 792.019 246.564 791.796 246.428C791.573 246.286 791.301 246.216 790.982 246.216C790.613 246.216 790.303 246.296 790.053 246.455C789.802 246.615 789.613 246.836 789.485 247.118C789.358 247.396 789.294 247.715 789.294 248.075H787.646C787.646 247.496 787.779 246.968 788.043 246.489C788.307 246.006 788.69 245.623 789.191 245.341C789.693 245.054 790.297 244.91 791.003 244.91C791.668 244.91 792.233 245.022 792.698 245.245C793.163 245.468 793.516 245.785 793.758 246.195C794.004 246.605 794.127 247.091 794.127 247.651C794.127 247.961 794.077 248.269 793.977 248.574C793.876 248.88 793.733 249.185 793.546 249.49C793.364 249.791 793.147 250.094 792.896 250.399C792.646 250.7 792.37 251.006 792.069 251.315L789.916 253.688H794.51ZM802.282 249.189V250.816C802.282 251.596 802.205 252.261 802.05 252.812C801.899 253.359 801.681 253.804 801.394 254.146C801.106 254.487 800.762 254.738 800.361 254.897C799.965 255.057 799.521 255.137 799.028 255.137C798.636 255.137 798.272 255.087 797.935 254.986C797.602 254.886 797.301 254.729 797.032 254.515C796.763 254.3 796.533 254.025 796.342 253.688C796.155 253.346 796.009 252.938 795.904 252.464C795.804 251.99 795.754 251.441 795.754 250.816V249.189C795.754 248.406 795.831 247.745 795.986 247.207C796.141 246.665 796.362 246.225 796.649 245.888C796.937 245.546 797.278 245.298 797.675 245.143C798.076 244.988 798.522 244.91 799.015 244.91C799.411 244.91 799.776 244.96 800.108 245.061C800.446 245.156 800.746 245.309 801.011 245.519C801.28 245.728 801.507 246.002 801.694 246.339C801.886 246.672 802.032 247.075 802.132 247.549C802.232 248.018 802.282 248.565 802.282 249.189ZM800.635 251.049V248.943C800.635 248.547 800.612 248.198 800.566 247.897C800.521 247.592 800.452 247.335 800.361 247.125C800.275 246.911 800.165 246.738 800.033 246.605C799.901 246.469 799.751 246.371 799.582 246.312C799.413 246.248 799.224 246.216 799.015 246.216C798.759 246.216 798.532 246.266 798.331 246.366C798.131 246.462 797.962 246.617 797.825 246.831C797.688 247.045 797.584 247.328 797.511 247.679C797.442 248.025 797.408 248.447 797.408 248.943V251.049C797.408 251.45 797.431 251.803 797.477 252.108C797.522 252.414 797.59 252.676 797.682 252.895C797.773 253.109 797.882 253.286 798.01 253.428C798.142 253.564 798.292 253.665 798.461 253.729C798.634 253.792 798.823 253.824 799.028 253.824C799.288 253.824 799.518 253.774 799.719 253.674C799.919 253.574 800.088 253.414 800.225 253.195C800.361 252.972 800.464 252.683 800.532 252.327C800.601 251.972 800.635 251.546 800.635 251.049ZM810.239 249.189V250.816C810.239 251.596 810.162 252.261 810.007 252.812C809.856 253.359 809.638 253.804 809.351 254.146C809.063 254.487 808.719 254.738 808.318 254.897C807.922 255.057 807.478 255.137 806.985 255.137C806.593 255.137 806.229 255.087 805.892 254.986C805.559 254.886 805.258 254.729 804.989 254.515C804.72 254.3 804.49 254.025 804.299 253.688C804.112 253.346 803.966 252.938 803.861 252.464C803.761 251.99 803.711 251.441 803.711 250.816V249.189C803.711 248.406 803.788 247.745 803.943 247.207C804.098 246.665 804.319 246.225 804.606 245.888C804.894 245.546 805.235 245.298 805.632 245.143C806.033 244.988 806.479 244.91 806.972 244.91C807.368 244.91 807.733 244.96 808.065 245.061C808.403 245.156 808.703 245.309 808.968 245.519C809.237 245.728 809.465 246.002 809.651 246.339C809.843 246.672 809.989 247.075 810.089 247.549C810.189 248.018 810.239 248.565 810.239 249.189ZM808.592 251.049V248.943C808.592 248.547 808.569 248.198 808.523 247.897C808.478 247.592 808.41 247.335 808.318 247.125C808.232 246.911 808.122 246.738 807.99 246.605C807.858 246.469 807.708 246.371 807.539 246.312C807.37 246.248 807.181 246.216 806.972 246.216C806.716 246.216 806.489 246.266 806.288 246.366C806.088 246.462 805.919 246.617 805.782 246.831C805.646 247.045 805.541 247.328 805.468 247.679C805.399 248.025 805.365 248.447 805.365 248.943V251.049C805.365 251.45 805.388 251.803 805.434 252.108C805.479 252.414 805.548 252.676 805.639 252.895C805.73 253.109 805.839 253.286 805.967 253.428C806.099 253.564 806.249 253.665 806.418 253.729C806.591 253.792 806.78 253.824 806.985 253.824C807.245 253.824 807.475 253.774 807.676 253.674C807.876 253.574 808.045 253.414 808.182 253.195C808.318 252.972 808.421 252.683 808.489 252.327C808.558 251.972 808.592 251.546 808.592 251.049ZM818.196 249.189V250.816C818.196 251.596 818.119 252.261 817.964 252.812C817.813 253.359 817.595 253.804 817.308 254.146C817.021 254.487 816.676 254.738 816.275 254.897C815.879 255.057 815.435 255.137 814.942 255.137C814.55 255.137 814.186 255.087 813.849 254.986C813.516 254.886 813.215 254.729 812.946 254.515C812.677 254.3 812.447 254.025 812.256 253.688C812.069 253.346 811.923 252.938 811.818 252.464C811.718 251.99 811.668 251.441 811.668 250.816V249.189C811.668 248.406 811.745 247.745 811.9 247.207C812.055 246.665 812.276 246.225 812.563 245.888C812.851 245.546 813.192 245.298 813.589 245.143C813.99 244.988 814.437 244.91 814.929 244.91C815.325 244.91 815.69 244.96 816.022 245.061C816.36 245.156 816.66 245.309 816.925 245.519C817.194 245.728 817.422 246.002 817.608 246.339C817.8 246.672 817.946 247.075 818.046 247.549C818.146 248.018 818.196 248.565 818.196 249.189ZM816.549 251.049V248.943C816.549 248.547 816.526 248.198 816.48 247.897C816.435 247.592 816.367 247.335 816.275 247.125C816.189 246.911 816.079 246.738 815.947 246.605C815.815 246.469 815.665 246.371 815.496 246.312C815.327 246.248 815.138 246.216 814.929 246.216C814.674 246.216 814.446 246.266 814.245 246.366C814.045 246.462 813.876 246.617 813.739 246.831C813.603 247.045 813.498 247.328 813.425 247.679C813.356 248.025 813.322 248.447 813.322 248.943V251.049C813.322 251.45 813.345 251.803 813.391 252.108C813.436 252.414 813.505 252.676 813.596 252.895C813.687 253.109 813.796 253.286 813.924 253.428C814.056 253.564 814.206 253.665 814.375 253.729C814.548 253.792 814.737 253.824 814.942 253.824C815.202 253.824 815.432 253.774 815.633 253.674C815.833 253.574 816.002 253.414 816.139 253.195C816.275 252.972 816.378 252.683 816.446 252.327C816.515 251.972 816.549 251.546 816.549 251.049Z" fill="#3A3A3A"/>
<rect x="1483" y="281" width="38" height="20" fill="#F3BEF1"/>
<path d="M1493.51 293.688V295H1486.84V293.872L1490.08 290.338C1490.43 289.937 1490.71 289.59 1490.92 289.299C1491.12 289.007 1491.27 288.745 1491.35 288.513C1491.44 288.276 1491.48 288.046 1491.48 287.822C1491.48 287.508 1491.42 287.232 1491.3 286.995C1491.19 286.754 1491.02 286.564 1490.8 286.428C1490.57 286.286 1490.3 286.216 1489.98 286.216C1489.61 286.216 1489.3 286.296 1489.05 286.455C1488.8 286.615 1488.61 286.836 1488.49 287.118C1488.36 287.396 1488.29 287.715 1488.29 288.075H1486.65C1486.65 287.496 1486.78 286.968 1487.04 286.489C1487.31 286.006 1487.69 285.623 1488.19 285.341C1488.69 285.054 1489.3 284.91 1490 284.91C1490.67 284.91 1491.23 285.022 1491.7 285.245C1492.16 285.468 1492.52 285.785 1492.76 286.195C1493 286.605 1493.13 287.091 1493.13 287.651C1493.13 287.961 1493.08 288.269 1492.98 288.574C1492.88 288.88 1492.73 289.185 1492.55 289.49C1492.36 289.791 1492.15 290.094 1491.9 290.399C1491.65 290.7 1491.37 291.006 1491.07 291.315L1488.92 293.688H1493.51ZM1501.28 289.189V290.816C1501.28 291.596 1501.2 292.261 1501.05 292.812C1500.9 293.359 1500.68 293.804 1500.39 294.146C1500.11 294.487 1499.76 294.738 1499.36 294.897C1498.96 295.057 1498.52 295.137 1498.03 295.137C1497.64 295.137 1497.27 295.087 1496.93 294.986C1496.6 294.886 1496.3 294.729 1496.03 294.515C1495.76 294.3 1495.53 294.025 1495.34 293.688C1495.15 293.346 1495.01 292.938 1494.9 292.464C1494.8 291.99 1494.75 291.441 1494.75 290.816V289.189C1494.75 288.406 1494.83 287.745 1494.99 287.207C1495.14 286.665 1495.36 286.225 1495.65 285.888C1495.94 285.546 1496.28 285.298 1496.67 285.143C1497.08 284.988 1497.52 284.91 1498.01 284.91C1498.41 284.91 1498.78 284.96 1499.11 285.061C1499.45 285.156 1499.75 285.309 1500.01 285.519C1500.28 285.728 1500.51 286.002 1500.69 286.339C1500.89 286.672 1501.03 287.075 1501.13 287.549C1501.23 288.018 1501.28 288.565 1501.28 289.189ZM1499.63 291.049V288.943C1499.63 288.547 1499.61 288.198 1499.57 287.897C1499.52 287.592 1499.45 287.335 1499.36 287.125C1499.27 286.911 1499.17 286.738 1499.03 286.605C1498.9 286.469 1498.75 286.371 1498.58 286.312C1498.41 286.248 1498.22 286.216 1498.01 286.216C1497.76 286.216 1497.53 286.266 1497.33 286.366C1497.13 286.462 1496.96 286.617 1496.83 286.831C1496.69 287.045 1496.58 287.328 1496.51 287.679C1496.44 288.025 1496.41 288.447 1496.41 288.943V291.049C1496.41 291.45 1496.43 291.803 1496.48 292.108C1496.52 292.414 1496.59 292.676 1496.68 292.895C1496.77 293.109 1496.88 293.286 1497.01 293.428C1497.14 293.564 1497.29 293.665 1497.46 293.729C1497.63 293.792 1497.82 293.824 1498.03 293.824C1498.29 293.824 1498.52 293.774 1498.72 293.674C1498.92 293.574 1499.09 293.414 1499.22 293.195C1499.36 292.972 1499.46 292.683 1499.53 292.327C1499.6 291.972 1499.63 291.546 1499.63 291.049ZM1507.25 285.013V295H1505.6V286.968L1503.16 287.795V286.435L1507.05 285.013H1507.25ZM1517.2 289.189V290.816C1517.2 291.596 1517.12 292.261 1516.96 292.812C1516.81 293.359 1516.59 293.804 1516.31 294.146C1516.02 294.487 1515.68 294.738 1515.28 294.897C1514.88 295.057 1514.43 295.137 1513.94 295.137C1513.55 295.137 1513.19 295.087 1512.85 294.986C1512.52 294.886 1512.22 294.729 1511.95 294.515C1511.68 294.3 1511.45 294.025 1511.26 293.688C1511.07 293.346 1510.92 292.938 1510.82 292.464C1510.72 291.99 1510.67 291.441 1510.67 290.816V289.189C1510.67 288.406 1510.75 287.745 1510.9 287.207C1511.06 286.665 1511.28 286.225 1511.56 285.888C1511.85 285.546 1512.19 285.298 1512.59 285.143C1512.99 284.988 1513.44 284.91 1513.93 284.91C1514.33 284.91 1514.69 284.96 1515.02 285.061C1515.36 285.156 1515.66 285.309 1515.92 285.519C1516.19 285.728 1516.42 286.002 1516.61 286.339C1516.8 286.672 1516.95 287.075 1517.05 287.549C1517.15 288.018 1517.2 288.565 1517.2 289.189ZM1515.55 291.049V288.943C1515.55 288.547 1515.53 288.198 1515.48 287.897C1515.43 287.592 1515.37 287.335 1515.28 287.125C1515.19 286.911 1515.08 286.738 1514.95 286.605C1514.82 286.469 1514.66 286.371 1514.5 286.312C1514.33 286.248 1514.14 286.216 1513.93 286.216C1513.67 286.216 1513.45 286.266 1513.25 286.366C1513.04 286.462 1512.88 286.617 1512.74 286.831C1512.6 287.045 1512.5 287.328 1512.42 287.679C1512.36 288.025 1512.32 288.447 1512.32 288.943V291.049C1512.32 291.45 1512.35 291.803 1512.39 292.108C1512.44 292.414 1512.5 292.676 1512.6 292.895C1512.69 293.109 1512.8 293.286 1512.92 293.428C1513.06 293.564 1513.21 293.665 1513.38 293.729C1513.55 293.792 1513.74 293.824 1513.94 293.824C1514.2 293.824 1514.43 293.774 1514.63 293.674C1514.83 293.574 1515 293.414 1515.14 293.195C1515.28 292.972 1515.38 292.683 1515.45 292.327C1515.51 291.972 1515.55 291.546 1515.55 291.049Z" fill="#3A3A3A"/>
<rect x="3153" y="334" width="38" height="20" fill="#F3BEF1"/>
<path d="M3163.51 347.688V349H3156.84V347.872L3160.08 344.338C3160.43 343.937 3160.71 343.59 3160.92 343.299C3161.12 343.007 3161.27 342.745 3161.35 342.513C3161.44 342.276 3161.48 342.046 3161.48 341.822C3161.48 341.508 3161.42 341.232 3161.3 340.995C3161.19 340.754 3161.02 340.564 3160.8 340.428C3160.57 340.286 3160.3 340.216 3159.98 340.216C3159.61 340.216 3159.3 340.296 3159.05 340.455C3158.8 340.615 3158.61 340.836 3158.49 341.118C3158.36 341.396 3158.29 341.715 3158.29 342.075H3156.65C3156.65 341.496 3156.78 340.968 3157.04 340.489C3157.31 340.006 3157.69 339.623 3158.19 339.341C3158.69 339.054 3159.3 338.91 3160 338.91C3160.67 338.91 3161.23 339.022 3161.7 339.245C3162.16 339.468 3162.52 339.785 3162.76 340.195C3163 340.605 3163.13 341.091 3163.13 341.651C3163.13 341.961 3163.08 342.269 3162.98 342.574C3162.88 342.88 3162.73 343.185 3162.55 343.49C3162.36 343.791 3162.15 344.094 3161.9 344.399C3161.65 344.7 3161.37 345.006 3161.07 345.315L3158.92 347.688H3163.51ZM3171.28 343.189V344.816C3171.28 345.596 3171.2 346.261 3171.05 346.812C3170.9 347.359 3170.68 347.804 3170.39 348.146C3170.11 348.487 3169.76 348.738 3169.36 348.897C3168.96 349.057 3168.52 349.137 3168.03 349.137C3167.64 349.137 3167.27 349.087 3166.93 348.986C3166.6 348.886 3166.3 348.729 3166.03 348.515C3165.76 348.3 3165.53 348.025 3165.34 347.688C3165.15 347.346 3165.01 346.938 3164.9 346.464C3164.8 345.99 3164.75 345.441 3164.75 344.816V343.189C3164.75 342.406 3164.83 341.745 3164.99 341.207C3165.14 340.665 3165.36 340.225 3165.65 339.888C3165.94 339.546 3166.28 339.298 3166.67 339.143C3167.08 338.988 3167.52 338.91 3168.01 338.91C3168.41 338.91 3168.78 338.96 3169.11 339.061C3169.45 339.156 3169.75 339.309 3170.01 339.519C3170.28 339.728 3170.51 340.002 3170.69 340.339C3170.89 340.672 3171.03 341.075 3171.13 341.549C3171.23 342.018 3171.28 342.565 3171.28 343.189ZM3169.63 345.049V342.943C3169.63 342.547 3169.61 342.198 3169.57 341.897C3169.52 341.592 3169.45 341.335 3169.36 341.125C3169.27 340.911 3169.17 340.738 3169.03 340.605C3168.9 340.469 3168.75 340.371 3168.58 340.312C3168.41 340.248 3168.22 340.216 3168.01 340.216C3167.76 340.216 3167.53 340.266 3167.33 340.366C3167.13 340.462 3166.96 340.617 3166.83 340.831C3166.69 341.045 3166.58 341.328 3166.51 341.679C3166.44 342.025 3166.41 342.447 3166.41 342.943V345.049C3166.41 345.45 3166.43 345.803 3166.48 346.108C3166.52 346.414 3166.59 346.676 3166.68 346.895C3166.77 347.109 3166.88 347.286 3167.01 347.428C3167.14 347.564 3167.29 347.665 3167.46 347.729C3167.63 347.792 3167.82 347.824 3168.03 347.824C3168.29 347.824 3168.52 347.774 3168.72 347.674C3168.92 347.574 3169.09 347.414 3169.22 347.195C3169.36 346.972 3169.46 346.683 3169.53 346.327C3169.6 345.972 3169.63 345.546 3169.63 345.049ZM3179.42 347.688V349H3172.75V347.872L3175.99 344.338C3176.35 343.937 3176.63 343.59 3176.83 343.299C3177.04 343.007 3177.18 342.745 3177.26 342.513C3177.35 342.276 3177.39 342.046 3177.39 341.822C3177.39 341.508 3177.33 341.232 3177.22 340.995C3177.1 340.754 3176.93 340.564 3176.71 340.428C3176.49 340.286 3176.22 340.216 3175.9 340.216C3175.53 340.216 3175.22 340.296 3174.97 340.455C3174.72 340.615 3174.53 340.836 3174.4 341.118C3174.27 341.396 3174.21 341.715 3174.21 342.075H3172.56C3172.56 341.496 3172.69 340.968 3172.96 340.489C3173.22 340.006 3173.6 339.623 3174.11 339.341C3174.61 339.054 3175.21 338.91 3175.92 338.91C3176.58 338.91 3177.15 339.022 3177.61 339.245C3178.08 339.468 3178.43 339.785 3178.67 340.195C3178.92 340.605 3179.04 341.091 3179.04 341.651C3179.04 341.961 3178.99 342.269 3178.89 342.574C3178.79 342.88 3178.65 343.185 3178.46 343.49C3178.28 343.791 3178.06 344.094 3177.81 344.399C3177.56 344.7 3177.28 345.006 3176.98 345.315L3174.83 347.688H3179.42ZM3187.2 343.189V344.816C3187.2 345.596 3187.12 346.261 3186.96 346.812C3186.81 347.359 3186.59 347.804 3186.31 348.146C3186.02 348.487 3185.68 348.738 3185.28 348.897C3184.88 349.057 3184.43 349.137 3183.94 349.137C3183.55 349.137 3183.19 349.087 3182.85 348.986C3182.52 348.886 3182.22 348.729 3181.95 348.515C3181.68 348.3 3181.45 348.025 3181.26 347.688C3181.07 347.346 3180.92 346.938 3180.82 346.464C3180.72 345.99 3180.67 345.441 3180.67 344.816V343.189C3180.67 342.406 3180.75 341.745 3180.9 341.207C3181.06 340.665 3181.28 340.225 3181.56 339.888C3181.85 339.546 3182.19 339.298 3182.59 339.143C3182.99 338.988 3183.44 338.91 3183.93 338.91C3184.33 338.91 3184.69 338.96 3185.02 339.061C3185.36 339.156 3185.66 339.309 3185.92 339.519C3186.19 339.728 3186.42 340.002 3186.61 340.339C3186.8 340.672 3186.95 341.075 3187.05 341.549C3187.15 342.018 3187.2 342.565 3187.2 343.189ZM3185.55 345.049V342.943C3185.55 342.547 3185.53 342.198 3185.48 341.897C3185.43 341.592 3185.37 341.335 3185.28 341.125C3185.19 340.911 3185.08 340.738 3184.95 340.605C3184.82 340.469 3184.66 340.371 3184.5 340.312C3184.33 340.248 3184.14 340.216 3183.93 340.216C3183.67 340.216 3183.45 340.266 3183.25 340.366C3183.04 340.462 3182.88 340.617 3182.74 340.831C3182.6 341.045 3182.5 341.328 3182.42 341.679C3182.36 342.025 3182.32 342.447 3182.32 342.943V345.049C3182.32 345.45 3182.35 345.803 3182.39 346.108C3182.44 346.414 3182.5 346.676 3182.6 346.895C3182.69 347.109 3182.8 347.286 3182.92 347.428C3183.06 347.564 3183.21 347.665 3183.38 347.729C3183.55 347.792 3183.74 347.824 3183.94 347.824C3184.2 347.824 3184.43 347.774 3184.63 347.674C3184.83 347.574 3185 347.414 3185.14 347.195C3185.28 346.972 3185.38 346.683 3185.45 346.327C3185.51 345.972 3185.55 345.546 3185.55 345.049Z" fill="#3A3A3A"/>
<path d="M1625.88 290.901C1625.88 295.257 1621.95 299.438 1617.26 298.773C1614.58 298.388 1609 295.467 1609 291.111C1609 286.755 1612.51 282.766 1617.26 283.011C1627.7 283.571 1625.88 289.116 1625.88 290.901Z" fill="#F67C87"/>
<path d="M2676.88 240.901C2676.88 245.257 2672.95 249.438 2668.26 248.773C2665.58 248.388 2660 245.467 2660 241.111C2660 236.755 2663.51 232.766 2668.26 233.011C2678.7 233.571 2676.88 239.116 2676.88 240.901Z" fill="#F67C87"/>
<path d="M3179.88 370.901C3179.88 375.257 3175.95 379.438 3171.26 378.773C3168.58 378.388 3163 375.467 3163 371.111C3163 366.755 3166.51 362.766 3171.26 363.011C3181.7 363.571 3179.88 369.116 3179.88 370.901Z" fill="#F67C87"/>
<path d="M3872.88 315.901C3872.88 320.257 3868.95 324.438 3864.26 323.773C3861.58 323.388 3856 320.467 3856 316.111C3856 311.755 3859.51 307.766 3864.26 308.011C3874.7 308.571 3872.88 314.116 3872.88 315.901Z" fill="#F67C87"/>
<path d="M2312.88 374.901C2312.88 379.257 2308.95 383.438 2304.26 382.773C2301.58 382.388 2296 379.467 2296 375.111C2296 370.755 2299.51 366.766 2304.26 367.011C2314.7 367.571 2312.88 373.116 2312.88 374.901Z" fill="#F67C87"/>
<path d="M49.9428 318.718C49.9428 320.768 48.0946 322.736 45.8857 322.423C44.6235 322.242 42 320.867 42 318.817C42 316.767 43.6499 314.89 45.8857 315.005C50.7993 315.268 49.9428 317.878 49.9428 318.718Z" fill="#F7B289"/>
<path d="M144.943 285.718C144.943 287.768 143.095 289.736 140.886 289.423C139.624 289.242 137 287.867 137 285.817C137 283.767 138.65 281.89 140.886 282.005C145.799 282.268 144.943 284.878 144.943 285.718Z" fill="#F67C87"/>
<path d="M128.943 289.718C128.943 291.768 127.095 293.736 124.886 293.423C123.624 293.242 121 291.867 121 289.817C121 287.767 122.65 285.89 124.886 286.005C129.799 286.268 128.943 288.878 128.943 289.718Z" fill="#F67C87"/>
<path d="M49.9428 274.718C49.9428 276.768 48.0946 278.736 45.8857 278.423C44.6235 278.242 42 276.867 42 274.817C42 272.767 43.6499 270.89 45.8857 271.005C50.7993 271.268 49.9428 273.878 49.9428 274.718Z" fill="#F67C87"/>
<path d="M322.943 265.665C322.943 267.715 321.095 269.683 318.886 269.37C317.624 269.189 315 267.814 315 265.764C315 263.714 316.65 261.837 318.886 261.952C323.799 262.216 322.943 264.826 322.943 265.665Z" fill="#F67C87"/>
<path d="M756.943 195.77C756.943 197.819 755.095 199.787 752.886 199.474C751.624 199.293 749 197.918 749 195.868C749 193.818 750.65 191.941 752.886 192.057C757.799 192.32 756.943 194.93 756.943 195.77Z" fill="#F67C87"/>
<path d="M650.943 207.885C650.943 209.934 649.095 211.902 646.886 211.589C645.624 211.408 643 210.033 643 207.983C643 205.933 644.65 204.056 646.886 204.172C651.799 204.435 650.943 207.045 650.943 207.885Z" fill="#F67C87"/>
<path d="M436.943 261.718C436.943 263.768 435.095 265.736 432.886 265.423C431.624 265.242 429 263.867 429 261.817C429 259.767 430.65 257.89 432.886 258.005C437.799 258.268 436.943 260.878 436.943 261.718Z" fill="#F67C87"/>
<path d="M939.943 261.006C939.943 263.056 938.095 265.024 935.886 264.711C934.624 264.53 932 263.155 932 261.105C932 259.055 933.65 257.178 935.886 257.293C940.799 257.557 939.943 260.166 939.943 261.006Z" fill="#F67C87"/>
<path d="M808.943 224.66C808.943 226.71 807.095 228.677 804.886 228.364C803.624 228.183 801 226.808 801 224.758C801 222.708 802.65 220.831 804.886 220.947C809.799 221.21 808.943 223.82 808.943 224.66Z" fill="#F67C87"/>
<path d="M868.943 252.619C868.943 254.669 867.095 256.636 864.886 256.324C863.624 256.142 861 254.768 861 252.718C861 250.668 862.65 248.791 864.886 248.906C869.799 249.169 868.943 251.779 868.943 252.619Z" fill="#F67C87"/>
<path d="M1008.94 258.211C1008.94 260.261 1007.09 262.228 1004.89 261.915C1003.62 261.734 1001 260.359 1001 258.309C1001 256.26 1002.65 254.382 1004.89 254.498C1009.8 254.761 1008.94 257.371 1008.94 258.211Z" fill="#F67C87"/>
<path d="M1083.94 243.299C1083.94 245.349 1082.09 247.316 1079.89 247.004C1078.62 246.822 1076 245.448 1076 243.398C1076 241.348 1077.65 239.471 1079.89 239.586C1084.8 239.849 1083.94 242.459 1083.94 243.299Z" fill="#F67C87"/>
<path d="M1286.94 232.116C1286.94 234.166 1285.09 236.134 1282.89 235.821C1281.62 235.64 1279 234.265 1279 232.215C1279 230.165 1280.65 228.288 1282.89 228.403C1287.8 228.667 1286.94 231.277 1286.94 232.116Z" fill="#F67C87"/>
<path d="M1424.94 250.754C1424.94 252.804 1423.09 254.772 1420.89 254.459C1419.62 254.278 1417 252.903 1417 250.853C1417 248.803 1418.65 246.926 1420.89 247.041C1425.8 247.305 1424.94 249.914 1424.94 250.754Z" fill="#F67C87"/>
<path d="M202.943 275.917C202.943 277.967 201.095 279.935 198.886 279.622C197.624 279.441 195 278.066 195 276.016C195 273.966 196.65 272.089 198.886 272.204C203.799 272.468 202.943 275.077 202.943 275.917Z" fill="#F67C87"/>
<path d="M513.878 267.054C513.878 271.41 509.951 275.591 505.257 274.926C502.575 274.541 497 271.62 497 267.264C497 262.907 500.506 258.919 505.257 259.164C515.698 259.723 513.878 265.269 513.878 267.054Z" fill="#F67C87"/>
<path d="M229.878 273.576C229.878 277.932 225.951 282.114 221.257 281.449C218.575 281.064 213 278.142 213 273.786C213 269.43 216.506 265.441 221.257 265.686C231.698 266.246 229.878 271.792 229.878 273.576Z" fill="#F7B289"/>
<path d="M369.878 262.393C369.878 266.75 365.951 270.931 361.257 270.266C358.575 269.881 353 266.959 353 262.603C353 258.247 356.506 254.258 361.257 254.503C371.698 255.063 369.878 260.609 369.878 262.393Z" fill="#F7B289"/>
<path d="M250.943 272.189C250.943 274.239 249.095 276.207 246.886 275.894C245.624 275.713 243 274.338 243 272.288C243 270.238 244.65 268.361 246.886 268.476C251.799 268.74 250.943 271.35 250.943 272.189Z" fill="#F67C87"/>
<path d="M1345.94 238.639C1345.94 240.689 1344.09 242.656 1341.89 242.344C1340.62 242.162 1338 240.788 1338 238.738C1338 236.688 1339.65 234.811 1341.89 234.926C1346.8 235.189 1345.94 237.799 1345.94 238.639Z" fill="#F7B289"/>
<path d="M472.943 263.802C472.943 265.852 471.095 267.82 468.886 267.507C467.624 267.326 465 265.951 465 263.901C465 261.851 466.65 259.974 468.886 260.089C473.799 260.352 472.943 262.962 472.943 263.802Z" fill="#F7B289"/>
<path d="M583.943 282.441C583.943 284.491 582.095 286.458 579.886 286.146C578.624 285.964 576 284.59 576 282.54C576 280.49 577.65 278.613 579.886 278.728C584.799 278.991 583.943 281.601 583.943 282.441Z" fill="#F7B289"/>
<path d="M407.943 262.871C407.943 264.921 406.095 266.888 403.886 266.576C402.624 266.394 400 265.02 400 262.97C400 260.92 401.65 259.043 403.886 259.158C408.799 259.421 407.943 262.031 407.943 262.871Z" fill="#F7B289"/>
<path d="M1805.94 330.903C1805.94 332.953 1804.09 334.921 1801.89 334.608C1800.62 334.427 1798 333.052 1798 331.002C1798 328.952 1799.65 327.075 1801.89 327.19C1806.8 327.454 1805.94 330.064 1805.94 330.903Z" fill="#F67C87"/>
<path d="M1908.94 337.427C1908.94 339.477 1907.09 341.445 1904.89 341.132C1903.62 340.951 1901 339.576 1901 337.526C1901 335.476 1902.65 333.599 1904.89 333.714C1909.8 333.977 1908.94 336.587 1908.94 337.427Z" fill="#F67C87"/>
<path d="M2044.94 257.278C2044.94 259.328 2043.09 261.296 2040.89 260.983C2039.62 260.802 2037 259.427 2037 257.377C2037 255.327 2038.65 253.45 2040.89 253.565C2045.8 253.829 2044.94 256.438 2044.94 257.278Z" fill="#F67C87"/>
<path d="M2180.94 272.189C2180.94 274.239 2179.09 276.207 2176.89 275.894C2175.62 275.713 2173 274.338 2173 272.288C2173 270.238 2174.65 268.361 2176.89 268.476C2181.8 268.74 2180.94 271.35 2180.94 272.189Z" fill="#F67C87"/>
<path d="M1505.94 265.665C1505.94 267.715 1504.09 269.683 1501.89 269.37C1500.62 269.189 1498 267.814 1498 265.764C1498 263.714 1499.65 261.837 1501.89 261.952C1506.8 262.216 1505.94 264.826 1505.94 265.665Z" fill="#F67C87"/>
<path d="M3549.94 294.718C3549.94 296.768 3548.09 298.736 3545.89 298.423C3544.62 298.242 3542 296.867 3542 294.817C3542 292.767 3543.65 290.89 3545.89 291.005C3550.8 291.268 3549.94 293.878 3549.94 294.718Z" fill="#F67C87"/>
<path d="M1208.88 227.911C1208.88 232.267 1204.95 236.448 1200.26 235.783C1197.58 235.398 1192 232.477 1192 228.12C1192 223.764 1195.51 219.776 1200.26 220.02C1210.7 220.58 1208.88 226.126 1208.88 227.911Z" fill="#F67C87"/>
<path d="M2966.94 324.718C2966.94 326.768 2965.09 328.736 2962.89 328.423C2961.62 328.242 2959 326.867 2959 324.817C2959 322.767 2960.65 320.89 2962.89 321.005C2967.8 321.268 2966.94 323.878 2966.94 324.718Z" fill="#F7B289"/>
</svg>
