<svg width="46" height="45" viewBox="0 0 46 45" fill="none" xmlns="http://www.w3.org/2000/svg">
<path d="M45.792 18.6984C45.792 30.6446 32.7063 44.9864 21.2689 44.9864C9.8315 44.9864 0 33.5702 0 21.624C0 9.6778 10.3986 0 21.836 0C33.2734 0 45.792 6.7575 45.792 18.6984Z" fill="#706366"/>
<mask id="mask0_1816_2770" style="mask-type:luminance" maskUnits="userSpaceOnUse" x="0" y="0" width="46" height="45">
<path d="M45.792 18.6984C45.792 30.6446 32.7063 44.9864 21.2689 44.9864C9.8315 44.9864 0 33.5702 0 21.624C0 9.6778 10.3986 0 21.836 0C33.2734 0 45.792 6.7575 45.792 18.6984Z" fill="white"/>
</mask>
<g mask="url(#mask0_1816_2770)">
<path d="M14.2566 37.1478L14.6223 36.957L23.8867 38.2926L31.7413 36.7397V33.4219L24.1411 34.0473L24.0139 32.1393L24.2577 32.0227H23.1553L23.3355 32.2082V34.0473L14.6223 33.4219L14.6965 32.9714L13.9863 33.1145L14.0658 37.1478H14.2566Z" fill="#D08C87"/>
<path d="M34.6134 21.7142C34.6028 21.6771 34.4597 21.4015 34.4915 21.3061C34.5286 21.2107 34.624 21.1524 34.6134 20.9616C34.6028 20.7708 34.5392 20.6648 34.5498 20.4475C34.5604 20.2302 34.6134 18.8734 34.6134 18.8734C34.6134 18.8734 34.6293 18.7992 34.5498 18.7674C34.4703 18.7356 34.5498 18.7303 34.4703 18.7303C34.3855 18.7303 34.9579 18.7303 34.9579 18.7303C34.9579 18.7303 34.8254 18.9476 34.8254 19.0059C34.8254 19.0642 34.8254 19.2073 34.8254 19.2073L34.9579 19.1808V18.5607L35.366 18.513C35.366 18.513 35.4296 18.2374 35.3819 18.2003C35.3342 18.1632 35.9172 18.1685 35.9278 18.1367C35.949 18.0784 36.5585 18.0943 37.1097 18.0943C37.6609 18.0943 38.4347 18.0837 38.5884 18.0943C38.7421 18.1049 39.3145 18.2374 39.3145 18.2374C39.3145 18.2374 39.2297 18.513 39.3728 18.5607C39.5159 18.6084 39.6007 18.7144 39.4576 18.7515C39.3145 18.7886 39.2085 18.7038 39.3039 18.8363C39.3993 18.9688 39.5583 18.9688 39.5583 18.9688C39.5583 18.9688 39.6272 18.9794 39.6166 18.8363C39.606 18.6932 39.5583 18.5501 39.5583 18.5501L39.8392 18.5766V19.6525V21.2372C39.8392 21.2372 39.8233 21.534 39.8392 21.6188C39.8551 21.7036 39.9134 21.7937 39.9611 21.905C40.0088 22.0163 40.0194 22.2389 40.0194 22.2389L40.0618 22.5781L40.2579 29.8444L32.8379 30.0299C32.8379 30.0299 34.518 23.0551 34.5551 22.7212C34.5922 22.382 34.6134 21.7142 34.6134 21.7142Z" fill="#AF7271"/>
<path d="M31.9007 24.9367L31.9378 25.2653L32.2081 25.3766V28.0796L32.0544 28.2068L30.7559 28.2598L30.8301 28.8216H31.482L31.5615 29.1502H31.7417V36.7398L34.6037 37.1214L35.2821 37.1585L35.5895 37.1214L40.8471 36.2628V36.0508L41.8859 35.7964V29.4576H42.0661L41.9919 28.7315H41.6527L41.5467 26.2723L41.4407 25.2653H41.3294L41.2976 24.7777H41.1704L41.1333 24.6558L38.0381 24.677H37.7519L37.789 25.1699H37.577L37.683 28.0796L37.6459 28.493L37.3438 28.5513V29.0018L36.4852 29.0919L36.3209 28.5513H36.1778L36.0347 25.2653H36.1778L36.1619 24.9208L34.4447 24.9049L31.9007 24.9367Z" fill="#D08C87"/>
<path d="M21.6714 27.1254C21.629 27.2102 21.6714 27.3215 21.6714 27.3215V27.8568H16.9279V27.1943L16.4827 27.1625V28.6518L15.0941 28.7313V28.0476L14.6542 28.0052L14.6171 26.7597V26.394H11.9936L11.9989 27.9787C11.9989 27.9787 11.8664 28.2649 11.824 28.2808C11.7816 28.2967 11.6544 28.3497 11.6809 28.4451C11.7074 28.5405 11.6756 28.6624 11.6756 28.6624L11.6809 29.2507H11.0926L11.0502 28.6253L10.5467 28.5511V29.2507L8.87189 29.2083L8.71289 32.2452L10.817 32.1445V33.0455L13.6366 33.231L14.5058 32.8388L17.8236 33.231L22.0477 32.8282L31.7467 33.4165V29.15L28.4713 29.0811V28.0423H27.9996V28.726H24.3532V28.0741H23.8868V28.726H22.1855L22.159 27.0936L21.6714 27.1254Z" fill="#AF7271"/>
<path d="M3.9375 33.2205L4.0011 37.1213L10.3929 37.8739V33.7346L3.9375 33.2205Z" fill="#D08C87"/>
<path d="M3.87903 32.9714L3.26953 33.2205C3.26953 33.2205 3.60343 33.194 3.93733 33.2205C4.27123 33.247 10.3874 33.7346 10.3874 33.7346L10.7001 33.4378L4.49913 32.9714C4.49913 32.9714 4.30833 33.0297 4.20233 33.0191C4.09633 33.0085 3.87903 32.9714 3.87903 32.9714Z" fill="#EFD5DB"/>
<path d="M3.93802 31.0634V32.028H3.87972V32.6375H3.79492V32.9714C3.79492 32.9714 3.99632 32.929 4.13412 33.0085C4.27192 33.088 4.49982 32.9714 4.49982 32.9714V32.6163H4.42562L4.49982 31.9962H4.41502L4.42562 31.0051L3.93802 31.0634Z" fill="#AF7271"/>
<path d="M3.9377 30.9097C3.8635 30.9203 3.625 31.0051 3.625 31.0051C3.625 31.0051 3.7734 31.0051 4.0331 31.0528C4.2928 31.1005 4.7698 31.0051 4.7698 31.0051L4.4942 30.9097H3.9377Z" fill="#9E8D91"/>
<path d="M4.17628 29.4839L4.11797 29.9821C4.11797 29.9821 3.98547 30.0616 3.99607 30.1411C4.01197 30.2153 4.08618 30.3266 4.08618 30.3266V30.475L3.96957 30.5068L4.07028 30.5863L4.03318 30.6976L3.92188 30.7718L3.99607 30.846L3.93778 30.9149C3.93778 30.9149 4.19218 30.9149 4.29818 30.9149C4.40418 30.9149 4.51547 30.9149 4.51547 30.9149L4.47307 30.8354L4.53668 30.7612L4.44128 30.6976L4.39887 30.5704L4.46247 30.5227L4.36178 30.4803L4.35118 30.3107C4.35118 30.3107 4.38828 30.2683 4.38828 30.1676C4.38828 30.0669 4.26107 29.9821 4.26107 29.9821L4.17628 29.4839Z" fill="#9E8D91"/>
<path d="M4.47739 32.2083L4.42969 32.6164L10.477 33.0404L10.4399 32.6217L4.47739 32.2083Z" fill="#706366"/>
<path d="M4.49997 32.4998L10.4678 32.9079V33.422L4.38867 33.0404L4.49997 32.4998Z" fill="#EFD5DB"/>
<path d="M10.3926 32.8283V37.9269L10.7 37.9905L11.0445 37.7308L11.1134 32.7488L10.7 32.8442L10.3926 32.8283Z" fill="#AF7271"/>
<path d="M10.4666 32.542L9.53906 32.6957L12.8145 32.8388L12.5601 32.9607L13.9858 33.1144L15.1836 32.8759L14.7543 32.7487L13.9911 32.8759L13.5459 32.8282L13.5565 32.6851L10.4666 32.542Z" fill="#EFD5DB"/>
<path d="M10.5262 30.719V31.6995L10.3937 31.7313V32.2719H10.3301V32.5634L11.194 32.6217L11.3106 32.5422V31.7578L11.1145 31.7313V30.719H10.5262Z" fill="#D08C87"/>
<path d="M11.1133 31.7842L13.705 31.9432V32.4997L11.1133 32.3301V31.7842Z" fill="#706366"/>
<path d="M10.6055 32.7434L13.9657 32.9607L14.0664 37.1477L10.7539 37.0258L10.6055 32.7434Z" fill="#D08C87"/>
<path d="M11.7598 36.093C11.7598 36.093 11.8128 34.5772 12.0725 34.238C12.3322 33.8988 12.576 33.7239 12.6979 33.7398C12.8251 33.7557 13.2968 34.2486 13.4028 34.5878C13.5088 34.927 13.5618 35.5471 13.5618 35.8068C13.5618 36.0665 13.5618 36.2785 13.5618 36.2785L11.7598 36.093Z" fill="#706366"/>
<path d="M7.0546 31.8267L10.4784 31.9539V32.6588L4.5 32.309L7.044 32.0758L7.0546 31.8267Z" fill="#706366"/>
<path d="M5.41602 28.7791V32.5633L6.47072 32.5421V28.7791H5.41602Z" fill="#D08C87"/>
<path d="M8.9776 28.7314L6.4707 28.7791V32.4997L8.9405 32.0227L8.9776 28.7314Z" fill="#AF7271"/>
<path d="M5.64922 28.0264V28.3285L5.41602 28.4716V28.779H6.83642V28.0635L5.64922 28.0264Z" fill="#EFD5DB"/>
<path d="M8.68034 27.9629L6.83594 28.0636V28.7791L8.97714 28.7314V28.5777L8.74924 28.5883L8.74394 28.4028H8.68034V27.9629Z" fill="#EFD5DB"/>
<path d="M5.58594 25.8057V26.0866H6.87384L6.83674 25.8057H5.58594Z" fill="white"/>
<path d="M8.71744 25.8057H6.83594L6.87304 26.0866H8.71744V25.8057Z" fill="white"/>
<path d="M5.75586 26.2721V28.2596L8.51186 28.196V26.1926L5.75586 26.2721Z" fill="#AF7271"/>
<path d="M5.58491 26.0283L4.85352 26.1926H5.66441H6.87282H9.48572L8.71722 26.0866L6.83572 26.0283H5.58491Z" fill="#EFD5DB"/>
<path d="M5.41602 26.235V26.3092H5.49022C5.49022 26.3092 5.42662 26.3622 5.49022 26.4629C5.55382 26.5636 5.59092 26.6431 5.59092 26.6431V26.8021L5.64392 26.8498L5.59092 28.0264C5.59092 28.0264 5.61742 28.1695 5.59092 28.2119C5.56442 28.2543 5.58562 28.3709 5.58562 28.3709L5.76052 28.2596V26.4258L5.82412 26.3728L5.95132 26.3887C5.95132 26.3887 5.93542 26.4417 5.95132 26.4682C5.96722 26.4947 5.94072 26.6272 5.95132 26.6537C5.96192 26.6802 5.95132 28.3179 5.95132 28.3179C5.95132 28.3179 5.91422 28.3338 5.95132 28.3974C5.98842 28.461 6.13682 28.3974 6.13682 28.3974V28.037V26.6113L6.23752 26.5583V26.5053L6.31702 26.5424L6.39652 26.6855L6.34352 28.4027H6.56082V26.712L6.61382 26.5795C6.61382 26.5795 6.65092 26.5371 6.66682 26.4894C6.68272 26.447 6.71982 26.4735 6.75692 26.5C6.79402 26.5265 6.79932 26.6961 6.79932 26.7226C6.79932 26.7491 6.79932 28.196 6.79932 28.196V28.4027H7.05902L7.00602 26.7226C7.00602 26.7226 6.99542 26.6696 7.00602 26.6219C7.01662 26.5795 7.02192 26.6325 7.05902 26.5053C7.09612 26.3781 7.10142 26.3622 7.13852 26.3463C7.17562 26.3304 7.24452 26.3357 7.24452 26.3357L7.31872 26.5318L7.41942 26.6113V28.3126V28.4027H7.59962V26.6855C7.59962 26.6855 7.52012 26.5954 7.59962 26.5583C7.67912 26.5212 7.76922 26.4682 7.73212 26.4152C7.69502 26.3622 7.77452 26.3092 7.78512 26.2986C7.79572 26.288 7.81162 26.2721 7.84872 26.2827C7.88582 26.2933 7.92822 26.2933 7.91762 26.3569C7.90172 26.4205 7.91762 26.4735 7.91762 26.4735C7.91762 26.4735 7.96532 26.5159 7.97592 26.5477C7.98652 26.5795 7.97592 28.3762 7.97592 28.3762L8.16142 28.3338V26.6431C8.16142 26.6431 8.26212 26.5636 8.26742 26.5159C8.27802 26.4735 8.26742 26.3887 8.26742 26.3887C8.26742 26.3887 8.28332 26.3622 8.34162 26.3463C8.39462 26.3304 8.52182 26.3039 8.52182 26.3092C8.52182 26.3198 8.52182 26.4523 8.52182 26.4523L8.57482 26.5159L8.52182 28.3338L8.72852 28.3232V26.818C8.72852 26.818 8.72852 26.7756 8.72852 26.6908C8.72852 26.6113 8.68612 26.6802 8.72852 26.6113C8.77092 26.5371 8.80802 26.5742 8.80802 26.4576C8.80802 26.341 8.81862 26.2244 8.86102 26.235C8.90342 26.2456 8.92462 26.1926 8.92462 26.1926L5.41602 26.235Z" fill="#F1EFE2"/>
<path d="M5.69727 25.7847V25.4932C5.69727 25.4932 5.78207 25.5515 5.79267 25.4932C5.80327 25.4349 5.80327 25.4031 5.85627 25.3978C5.90927 25.3925 5.91987 25.3607 5.91987 25.3289C5.91987 25.2971 5.91987 24.9844 5.91987 24.9844C5.91987 24.9844 6.05767 25.0268 6.09477 25.048C6.13187 25.0639 6.25377 25.1593 6.23257 25.1858C6.21137 25.2123 6.15837 25.2123 6.18487 25.2494C6.21137 25.2865 6.25907 25.2918 6.25907 25.2918L6.97457 25.3395V25.8059L5.69727 25.7847Z" fill="#9E8D91"/>
<path d="M8.05051 25.3236C8.08231 25.3077 8.14591 25.3342 8.13531 25.26C8.12471 25.1858 8.05051 25.2441 8.11411 25.1646C8.17771 25.0851 8.18831 25.0904 8.22011 25.0692C8.25191 25.0533 8.29431 25.0162 8.33141 24.9844C8.36851 24.9526 8.36851 25.0162 8.36851 25.0639C8.36851 25.1116 8.31021 25.2812 8.36851 25.3183C8.42681 25.3607 8.53281 25.3925 8.53811 25.4137C8.54341 25.4349 8.52221 25.4402 8.53811 25.4614C8.55401 25.4826 8.59111 25.472 8.60171 25.4879C8.61231 25.5038 8.63351 25.684 8.64411 25.7211C8.65471 25.7582 8.64411 25.8642 8.64411 25.8642L6.97461 25.8218V25.3925L8.05051 25.3236Z" fill="#9E8D91"/>
<path d="M6.25781 25.2917C6.26841 25.2652 6.27371 25.2705 6.28961 25.191C6.30551 25.1115 6.27901 25.1009 6.36381 25.032C6.44331 24.9578 6.53341 25.0426 6.45921 24.8995C6.38501 24.7564 6.30551 24.4172 6.41151 24.2105C6.51221 24.0038 6.71361 23.8501 6.76661 23.7971C6.81961 23.7441 6.88321 23.7229 6.88321 23.7229L6.84611 23.6699H7.42911V23.7282C7.42911 23.7282 7.62521 23.7918 7.75241 23.9455C7.87961 24.0992 8.01741 24.396 7.96971 24.5921C7.92731 24.7882 7.83191 24.9048 7.84781 24.9472C7.86371 24.9896 7.96971 25.0214 7.97501 25.0691C7.98031 25.1115 7.99091 25.2016 8.00681 25.2281C8.02271 25.2546 8.08631 25.3182 8.08631 25.3182C8.08631 25.3182 7.68351 25.4083 7.38141 25.4242C7.07931 25.4401 6.82491 25.4136 6.61291 25.3977C6.39561 25.3818 6.25781 25.2917 6.25781 25.2917Z" fill="#C0AAAF"/>
<path d="M6.90091 23.6433C6.90091 23.6274 6.92741 23.6221 6.94331 23.5638C6.95921 23.5055 6.92741 23.479 6.92211 23.4684C6.91681 23.4578 6.92211 23.5426 6.90091 23.4684C6.87971 23.3942 6.89031 23.2935 6.90091 23.2617C6.91151 23.2299 6.97511 23.1822 6.97511 23.1822C6.97511 23.1822 6.95921 23.1663 6.97511 23.161C6.99101 23.1504 7.05991 23.1133 7.05991 23.0709C7.05991 23.0285 7.03871 22.949 7.05991 22.9225C7.08111 22.896 7.08641 22.8589 7.08641 22.8589L7.11291 21.9844L7.17121 22.8748C7.17121 22.8748 7.15531 22.9755 7.17121 23.0073C7.18711 23.0444 7.18181 23.0603 7.21891 23.108C7.25601 23.1557 7.24541 23.1504 7.33021 23.2299C7.41501 23.3094 7.48391 23.3889 7.43091 23.4313C7.37791 23.4737 7.34611 23.532 7.35671 23.5585C7.37261 23.5797 7.37791 23.6327 7.38321 23.638C7.38851 23.6433 7.38851 23.6433 7.38851 23.6433H6.90091Z" fill="#F3DF8C"/>
<path d="M14.3524 24.8518H16.5519L16.748 29.1501L14.2676 28.583L14.3524 24.8518Z" fill="#AF7271"/>
<path d="M8.9774 28.8586H10.7529V29.2667L8.9668 29.3568L8.9774 28.8586Z" fill="#EFD5DB"/>
<path d="M10.0809 29.4839H8.97852V29.8443H10.0809V29.4839Z" fill="#EFD5DB"/>
<path d="M12.4124 29.8391H13.6367V30.3267H12.3594L12.4124 29.8391Z" fill="#EFD5DB"/>
<path d="M15.6017 28.9487H13.9746V29.3621H15.6017V28.9487Z" fill="#EFD5DB"/>
<path d="M16.7324 27.4434V27.8568H21.672V27.3745L16.7324 27.4434Z" fill="#EFD5DB"/>
<path d="M14.791 28.2598V28.7315H15.8722L16.5506 28.6414V28.2598L15.8351 28.3711L14.791 28.2598Z" fill="#EFD5DB"/>
<path d="M17.3406 29.9504H15.9785V30.3956H17.3406V29.9504Z" fill="#EFD5DB"/>
<path d="M17.8242 29.9504V30.3956L21.672 30.2366V29.8391L17.8242 29.9504Z" fill="#EFD5DB"/>
<path d="M22.0469 28.4029V28.7315H23.886V28.3711L22.0469 28.4029Z" fill="#EFD5DB"/>
<path d="M24.3535 28.3709V28.7313L28.0476 28.7949L27.9999 28.2649L24.3535 28.3709Z" fill="#EFD5DB"/>
<path d="M14.6972 32.9714L14.623 33.4219L23.3362 34.0473V33.5067L14.6972 32.9714Z" fill="#EFD5DB"/>
<path d="M24.0137 33.5067V34.0473L29.6476 33.5067L29.5575 33.0403L24.0137 33.5067Z" fill="#706366"/>
<path d="M24.3535 29.8391V30.3267H25.175L25.2492 29.8391H24.3535Z" fill="#C0AAAF"/>
<path d="M26.6055 29.8391V30.3267L28.4658 30.3956V29.9504L26.6055 29.8391Z" fill="#C0AAAF"/>
<path d="M30.4527 29.9504H28.8945V30.3267H30.4527V29.9504Z" fill="#C0AAAF"/>
<path d="M31.7417 29.9504H30.8301V30.3956H31.7417V29.9504Z" fill="#C0AAAF"/>
<path d="M36.4102 29.3779V29.839H37.1098V29.2878L36.4102 29.3779Z" fill="#C0AAAF"/>
<path d="M37.4492 29.2878V29.839L38.9332 29.7171V29.2136L37.4492 29.2878Z" fill="#C0AAAF"/>
<path d="M39.5052 29.2136H39.166V29.6959H39.5052V29.2136Z" fill="#C0AAAF"/>
<path d="M11.8281 26.1927V25.8694L11.9553 25.9436V25.6362H12.2203V25.509H13.1531H14.2078H14.4569L14.6 25.7104V25.8058L14.7908 26.1927H13.1531H11.8281Z" fill="#9E8D91"/>
<path d="M11.2031 26.3145H15.3689L14.7912 26.1926H11.8285L11.2031 26.3145Z" fill="#EFD5DB"/>
<path d="M11.7497 26.3994C11.7497 26.4153 11.7497 26.5849 11.7709 26.6114C11.7921 26.6379 11.8292 26.7068 11.8292 26.7068C11.8292 26.7068 11.8133 26.781 11.8292 26.8181C11.8451 26.8552 11.8504 26.8764 11.8557 26.8923C11.861 26.9082 11.8557 28.1537 11.8557 28.1537C11.8557 28.1537 11.8398 28.212 11.8292 28.2279C11.8133 28.2438 11.8292 28.2862 11.8292 28.2862L11.9988 28.265L12.0253 26.7651C12.0253 26.7651 11.9829 26.6909 12.0253 26.6644C12.0677 26.6379 12.0942 26.4895 12.0942 26.4789C12.0942 26.4683 12.126 26.4047 12.126 26.4047C12.126 26.4047 12.1366 26.5849 12.1684 26.622C12.2002 26.6591 12.2373 26.7545 12.2373 26.7545V28.2862H12.4228V26.6803C12.4228 26.6803 12.4652 26.6114 12.4652 26.5531C12.4652 26.4948 12.4652 26.3941 12.4652 26.3941H12.5606C12.5606 26.3941 12.5659 26.5531 12.5818 26.5955C12.5977 26.6379 12.656 26.6962 12.656 26.6962V28.3074L12.8256 28.2809V26.6909C12.8256 26.6909 12.868 26.6061 12.8786 26.569C12.8892 26.5319 12.9104 26.4577 12.9104 26.4577C12.9104 26.4577 12.9263 26.3623 12.9475 26.3888C12.9687 26.4153 12.9899 26.5531 12.9899 26.5531C12.9899 26.5531 12.9846 26.5849 13.0164 26.6061C13.0482 26.6273 13.0694 26.6644 13.0694 26.6644V28.3021L13.2814 28.2809V26.6803C13.2814 26.6803 13.2814 26.6379 13.3026 26.5796C13.3238 26.5213 13.2814 26.4312 13.3238 26.4259C13.3662 26.4206 13.4616 26.4206 13.4616 26.4206C13.4616 26.4206 13.5358 26.5266 13.5358 26.5478C13.5358 26.569 13.5623 26.6644 13.5623 26.6644L13.6206 28.2809L13.7796 28.2862V26.6485C13.7796 26.6485 13.8538 26.6326 13.8538 26.5743C13.8538 26.516 13.8538 26.4471 13.8538 26.4471L13.928 26.4047C13.928 26.4047 13.9704 26.4895 13.981 26.5266C13.9916 26.5637 14.0181 26.6008 14.0234 26.622C14.034 26.6432 14.1188 26.6591 14.1188 26.6591L14.0923 28.2544H14.2566V26.6644C14.2566 26.6644 14.3573 26.5902 14.3573 26.5372C14.352 26.4842 14.3255 26.4471 14.3573 26.4418C14.3891 26.4365 14.4686 26.4153 14.4686 26.4153C14.4686 26.4153 14.4633 26.4948 14.4686 26.5531C14.4739 26.6114 14.5693 26.6538 14.5693 26.6538V28.2756L14.7283 28.3021V26.6591C14.7283 26.6591 14.776 26.6432 14.776 26.5955C14.776 26.5478 14.7972 26.4418 14.7972 26.4418V26.3252L11.6914 26.304L11.7285 26.3729L11.7497 26.3994Z" fill="#F1EFE2"/>
<path d="M12.539 25.2386C12.5602 25.2386 12.6821 25.2333 12.6715 25.175C12.6609 25.1167 12.6874 25.1008 12.6291 25.0213C12.5708 24.9471 12.4595 24.5655 12.539 24.4542C12.6185 24.3429 12.9736 24.1044 13.0372 24.0355C13.1008 23.9613 13.175 23.9613 13.122 23.8765C13.069 23.7917 13.0478 23.7387 13.0584 23.6857C13.0743 23.6327 13.1114 23.5267 13.1379 23.5267C13.1644 23.5267 13.2386 23.4366 13.2386 23.4366L13.3128 22.5886L13.3446 23.4419C13.3446 23.4419 13.387 23.4843 13.4135 23.532C13.4347 23.5744 13.4665 23.691 13.4612 23.7281C13.4559 23.7652 13.3976 23.8606 13.4082 23.9136C13.4188 23.9666 13.5036 24.0302 13.5036 24.0302C13.5036 24.0302 13.9435 24.2952 13.97 24.5178C13.9965 24.7404 14.0177 24.8941 13.97 24.9683C13.9223 25.0425 13.8481 25.0955 13.8693 25.1273C13.8905 25.1644 14.0177 25.2386 14.0389 25.3128C14.0601 25.387 14.076 25.5142 14.076 25.5142H12.4277C12.4277 25.5142 12.486 25.3817 12.5019 25.3287C12.5231 25.2704 12.539 25.2386 12.539 25.2386Z" fill="#C0AAAF"/>
<path d="M14.108 25.1327L14.0762 24.9419H14.1504V24.6822L14.2723 24.7034V24.1999C14.2723 24.1999 14.1557 24.184 14.2299 24.1045C14.3041 24.025 14.3412 24.0303 14.3412 23.9879C14.3412 23.9455 14.3518 23.8024 14.3412 23.7918C14.3306 23.7759 14.2988 23.7123 14.3147 23.6805C14.3306 23.6487 14.4313 23.601 14.4207 23.5639C14.4101 23.5268 14.4207 23.3413 14.4207 23.3413C14.4207 23.3413 14.4419 23.6063 14.4578 23.6222C14.4737 23.6381 14.5426 23.6858 14.532 23.7229C14.5161 23.7653 14.4949 23.8766 14.4949 23.8978C14.4949 23.919 14.4843 24.0197 14.5108 24.025C14.532 24.0356 14.5479 24.0038 14.5638 24.0462C14.5797 24.0886 14.585 24.2052 14.585 24.2052L14.6539 24.2105L15.1892 24.1681C15.1892 24.1681 15.1786 24.0939 15.2369 24.0462C15.2952 24.0038 15.3376 23.9561 15.3376 23.9561V23.7282C15.3376 23.7282 15.2369 23.7388 15.2528 23.6381C15.2687 23.5374 15.3217 23.5215 15.3376 23.5003C15.3535 23.4791 15.3376 23.1982 15.3376 23.1982L15.4065 23.4526C15.4065 23.4526 15.4701 23.5109 15.4542 23.5798C15.4383 23.6487 15.4966 23.654 15.4542 23.6911C15.4118 23.7282 15.4224 23.9296 15.4224 23.9296C15.4224 23.9296 15.486 23.9773 15.5019 24.0303C15.5178 24.078 15.5337 24.1681 15.5337 24.1681L16.2916 24.1999C16.2916 24.1999 16.2598 24.1257 16.2916 24.0992C16.3234 24.0674 16.3976 24.0568 16.4082 23.9985C16.4188 23.9402 16.3658 23.9349 16.387 23.8766C16.4029 23.8183 16.4082 23.7759 16.4082 23.7759C16.4082 23.7759 16.3181 23.7282 16.3711 23.6752C16.4241 23.6275 16.4453 23.5745 16.4453 23.5215C16.4453 23.4685 16.4453 23.2989 16.4453 23.2989C16.4453 23.2989 16.4718 23.601 16.5142 23.6275C16.5566 23.6593 16.599 23.7123 16.5566 23.7494C16.5142 23.7865 16.4665 23.7971 16.4877 23.8766C16.5089 23.9561 16.4453 24.0568 16.5354 24.0462C16.6255 24.0356 16.6361 24.0886 16.6361 24.0886V24.237L16.5672 24.2794L16.5937 24.5921C16.5937 24.5921 16.6414 24.608 16.6361 24.6345C16.6255 24.6557 16.7103 24.7087 16.7103 24.7087V24.926L16.7845 24.9578V25.1751L15.3111 25.0744L14.108 25.1327Z" fill="#9E8D91"/>
<path d="M13.9375 25.1698L14.1283 25.1327L15.3473 25.0691L17.3454 25.2175L17.0009 25.2652L15.342 25.1433L13.9375 25.1698Z" fill="#EFD5DB"/>
<path d="M14.0918 25.3711C14.1501 25.3552 14.2031 25.3181 14.219 25.2969C14.2349 25.2757 14.2932 25.2333 14.2932 25.2333C14.2932 25.2333 14.3674 25.3605 14.3727 25.3711C14.378 25.387 14.3939 25.4135 14.3939 25.4453C14.3939 25.4771 14.3939 25.5142 14.3939 25.5142V25.8905L14.5476 26.023L14.6218 25.9435V25.493C14.6218 25.493 14.6483 25.3234 14.6642 25.3234C14.6801 25.3234 14.7702 25.3605 14.7861 25.3817C14.802 25.4029 14.8444 25.6308 14.8391 25.652C14.8338 25.6732 14.8391 26.9558 14.8391 26.9558H14.9716L15.0246 25.5142C15.0246 25.5142 15.0193 25.5142 15.0617 25.4241C15.1041 25.334 15.1253 25.2916 15.1359 25.2969C15.1518 25.3022 15.1306 25.3711 15.1836 25.4188C15.2366 25.4665 15.2684 25.4824 15.2684 25.5407C15.2684 25.599 15.2684 26.9611 15.2684 26.9611L15.4274 26.9452C15.4274 26.9452 15.4433 25.6838 15.4698 25.6308C15.491 25.5778 15.5228 25.5407 15.5228 25.4824C15.5228 25.4241 15.4539 25.4347 15.5228 25.3976C15.5917 25.3605 15.6182 25.3552 15.6394 25.3552C15.6606 25.3605 15.6871 25.3764 15.6977 25.4559C15.7083 25.5354 15.7136 25.5831 15.7401 25.6149C15.7719 25.6467 15.756 26.9664 15.756 26.9664H15.9415V25.5884C15.9415 25.5884 15.9786 25.5513 15.9839 25.4877C15.9892 25.4188 16.0104 25.3605 16.0581 25.3605C16.1058 25.3605 16.1641 25.3393 16.1641 25.3976C16.1641 25.4559 16.1535 25.4983 16.1641 25.5301C16.1747 25.5672 16.2012 25.6255 16.2012 25.6255V27.0088H16.3549C16.3549 27.0088 16.339 25.6361 16.3549 25.6202C16.3708 25.6043 16.4238 25.5195 16.4291 25.4771C16.4344 25.4347 16.445 25.387 16.5033 25.4029C16.5616 25.4188 16.657 25.3605 16.657 25.4612C16.657 25.5619 16.6358 25.6467 16.657 25.6944C16.6782 25.7368 16.657 27.03 16.657 27.03H16.8213L16.7948 25.7315C16.7948 25.7315 16.8213 25.6838 16.8213 25.6361C16.8213 25.5937 16.7895 25.5884 16.8213 25.5248C16.8531 25.4612 16.8743 25.4188 16.8796 25.387C16.8849 25.3552 16.9273 25.281 16.9273 25.281V25.228L15.3373 25.1167L13.9646 25.1591C13.9646 25.1591 13.848 25.1273 13.9116 25.1856C13.9752 25.2439 14.0282 25.3287 14.0388 25.3499C14.0494 25.3552 14.0918 25.3711 14.0918 25.3711Z" fill="#F1EFE2"/>
<path d="M14.7921 26.5742H16.6789L16.9015 26.553C16.9015 26.553 16.7902 26.712 16.8167 26.7968C16.8432 26.8763 16.7955 27.0671 16.7955 27.0671L14.5589 27.1042L14.5059 26.5901L14.7921 26.5742Z" fill="#EFD5DB"/>
<path d="M19.34 27.3747H19.3718C19.3718 27.3747 19.3771 27.3164 19.3559 27.3005C19.3347 27.2846 19.2605 27.2581 19.3188 27.168C19.3771 27.0726 19.393 27.0302 19.4036 26.9825C19.4142 26.9401 19.4036 26.6592 19.4036 26.6592C19.4036 26.6592 19.4301 26.9242 19.446 26.9666C19.4619 27.009 19.5202 27.0037 19.5414 27.0938C19.5626 27.1892 19.5255 27.274 19.5149 27.2846C19.5043 27.3005 19.5467 27.3959 19.5467 27.3959L19.3506 27.4012L19.34 27.3747Z" fill="#C0AAAF"/>
<path d="M21.6721 27.1255C21.6721 27.1255 21.5926 27.0513 21.6721 26.9665C21.7516 26.887 21.7728 26.7598 21.7781 26.7386C21.7834 26.7174 21.7993 26.6697 21.8205 26.6591C21.8417 26.6485 21.8629 26.6432 21.8417 26.5955C21.8205 26.5478 21.8311 26.5531 21.7781 26.4842C21.7251 26.4153 21.6774 26.2404 21.741 26.1609C21.8046 26.0814 21.8152 26.0602 21.847 26.0231C21.8788 25.986 21.9212 25.4189 21.9212 25.4189L22.0219 26.0337C22.0219 26.0337 22.0908 26.1185 22.1014 26.1927C22.1173 26.2669 22.0272 26.4259 22.0272 26.4259C22.0272 26.4259 22.0166 26.5266 22.0219 26.5637C22.0272 26.6061 22.1491 26.7969 22.1544 26.8075C22.1597 26.8181 22.2763 26.9983 22.2763 27.0301C22.2763 27.0619 22.2339 27.1255 22.2339 27.1255H21.6721Z" fill="#C0AAAF"/>
<path d="M23.8379 28.0476C23.8379 28.0476 23.8803 27.8992 23.9333 27.8356C23.9863 27.772 24.0499 27.7031 24.0446 27.6872C24.0393 27.6713 24.0234 27.6925 24.0128 27.6395C24.0022 27.5865 24.0287 27.56 24.0287 27.5229C24.0287 27.4858 24.0181 27.4646 24.0181 27.4646C24.0181 27.4646 23.9333 27.3692 23.9439 27.2844C23.9545 27.1996 24.0393 27.1095 24.0711 27.0565C24.1029 27.0035 24.1612 26.5901 24.1612 26.5901C24.1612 26.5901 24.2566 27.083 24.2725 27.0936C24.2884 27.1095 24.3732 27.3268 24.3573 27.3639C24.3414 27.4063 24.2778 27.454 24.2778 27.5017C24.2778 27.5494 24.3043 27.6289 24.3149 27.6554C24.3255 27.6766 24.299 27.6978 24.299 27.7296C24.299 27.7561 24.3944 27.8674 24.405 27.8939C24.4209 27.9204 24.4474 28.0423 24.4474 28.0423H23.8379V28.0476Z" fill="white"/>
<path d="M25.7207 28.2968V28.1961C25.7207 28.1961 25.8214 28.1431 25.8214 28.1166C25.8214 28.0901 25.8055 27.9682 25.8002 27.947C25.7949 27.9258 25.7313 27.8887 25.7419 27.8198C25.7525 27.7509 25.8055 27.7191 25.8214 27.6661C25.8373 27.6184 25.8638 27.3481 25.8638 27.3481C25.8638 27.3481 25.8585 27.6131 25.9168 27.6608C25.9751 27.7085 26.0016 27.7774 25.9857 27.8463C25.9698 27.9152 25.9221 28.0265 25.9327 28.0477C25.9433 28.0689 25.9592 28.1643 25.991 28.1802C26.0228 28.1961 26.0546 28.318 26.0546 28.318H25.7207V28.2968Z" fill="#C0AAAF"/>
<path d="M26.2186 28.318C26.2186 28.318 26.2663 28.3021 26.2663 28.2597C26.2663 28.2173 26.2769 28.159 26.2663 28.1272C26.2557 28.0954 26.261 28.0848 26.2451 28.053C26.2292 28.0212 26.1868 27.9099 26.2186 27.8781C26.2504 27.8463 26.3193 27.7509 26.3299 27.7297C26.3458 27.7138 26.367 27.3269 26.367 27.3269L26.4253 27.7191C26.4253 27.7191 26.526 27.7244 26.5472 27.8251C26.5631 27.9258 26.5366 27.9629 26.5154 28.0053C26.4942 28.0477 26.4571 28.0795 26.473 28.1272C26.4889 28.1696 26.4677 28.318 26.4995 28.318C26.526 28.3074 26.2186 28.318 26.2186 28.318Z" fill="#C0AAAF"/>
<path d="M26.6582 28.2861C26.6582 28.2861 26.7483 28.1748 26.7483 28.1589C26.7483 28.143 26.7218 28.0847 26.7271 28.0264C26.7324 27.9628 26.7483 27.9416 26.7483 27.9098C26.7483 27.878 26.6476 27.8144 26.7059 27.772C26.7589 27.7296 26.796 27.7296 26.8066 27.666C26.8172 27.6024 26.8437 27.3533 26.8437 27.3533C26.8437 27.3533 26.8437 27.6024 26.8808 27.6554C26.9179 27.7084 26.9762 27.7296 26.9709 27.7985C26.9656 27.8727 26.9179 27.9098 26.902 27.9522C26.8861 27.9946 26.8702 28.0423 26.8967 28.0953C26.9232 28.1483 26.9921 28.1642 26.9974 28.2278C27.0027 28.2914 27.0027 28.2967 27.0027 28.2967L26.6582 28.2861Z" fill="#C0AAAF"/>
<path d="M27.6758 28.2597C27.6758 28.2597 27.7182 28.1855 27.75 28.1537C27.7818 28.1219 27.7977 28.0742 27.7765 28.0265C27.7553 27.9788 27.7182 27.9735 27.7023 27.8993C27.6864 27.8251 27.6864 27.7721 27.7288 27.7297C27.7712 27.6873 27.803 27.7085 27.8083 27.629C27.8136 27.5548 27.8348 27.3799 27.8348 27.3799C27.8348 27.3799 27.8348 27.5972 27.856 27.6449C27.8772 27.6873 27.9355 27.6767 27.9567 27.7774C27.9779 27.8781 27.9249 27.9205 27.9143 27.947C27.9037 27.9735 27.8613 28 27.8825 28.053C27.9037 28.106 27.9302 28.1908 27.962 28.212C27.9938 28.2332 27.9938 28.2703 27.9938 28.2703L27.6758 28.2597Z" fill="#C0AAAF"/>
<path d="M28.1052 27.9736C28.1052 27.9683 28.0999 27.963 28.0999 27.9577C28.0734 27.91 28.0469 27.8464 28.1052 27.804C28.1688 27.7616 28.1847 27.7086 28.1741 27.6715C28.1635 27.6344 28.1582 27.5814 28.1264 27.5443C28.0946 27.5072 28.0416 27.4701 28.0999 27.3853C28.1211 27.3588 28.1317 27.3111 28.1476 27.2528C28.1582 27.1998 28.2324 27.1945 28.2536 27.2422C28.2536 27.2475 28.2589 27.2528 28.2589 27.2581C28.2801 27.3005 28.3384 27.3853 28.3225 27.4754C28.3066 27.5655 28.2483 27.5708 28.2483 27.6715C28.2483 27.7722 28.2695 27.7457 28.2907 27.8676C28.296 27.91 28.3013 27.9365 28.3013 27.963C28.3013 27.9948 28.2801 28.016 28.2483 28.0213L28.1741 28.0266C28.1317 28.0213 28.1105 28.0054 28.1052 27.9736Z" fill="#C0AAAF"/>
<path d="M30.9567 28.1802C30.9567 28.1802 30.9991 28.0477 30.9567 27.9841C30.9143 27.9205 30.8401 27.8569 30.909 27.7986C30.9779 27.7403 31.0097 27.682 31.0097 27.6131C31.0097 27.5389 31.0097 27.364 31.0097 27.364C31.0097 27.364 31.0521 27.6184 31.0892 27.6608C31.1263 27.7032 31.1899 27.735 31.1899 27.841C31.1899 27.947 31.1316 27.9523 31.121 28.0424C31.1104 28.1378 31.1157 28.212 31.1157 28.212L30.9567 28.1802Z" fill="#C0AAAF"/>
<path d="M23.1919 27.1626C23.1919 27.1626 23.2237 27.1361 23.2343 27.0831C23.2502 27.0301 23.2767 27.0089 23.282 26.9824C23.2926 26.9612 23.2979 26.993 23.3032 26.887C23.3085 26.7863 23.3244 26.7492 23.3244 26.728C23.3244 26.7121 23.3244 25.9701 23.3244 25.9701C23.3244 25.9701 23.2767 25.986 23.282 25.933C23.2873 25.88 23.282 25.8217 23.282 25.8058C23.282 25.7899 23.282 25.7952 23.2555 25.7422C23.229 25.6892 23.2237 25.6733 23.2184 25.6468C23.2131 25.6203 23.1866 25.562 23.1866 25.562L23.0859 25.5249L24.6335 25.4719L25.8843 25.5302C25.8843 25.5302 25.8843 25.5355 25.8472 25.5514C25.8048 25.5673 25.7677 25.562 25.7465 25.5726C25.7306 25.5885 25.72 25.6468 25.7147 25.6733C25.7094 25.7051 25.6564 25.7475 25.6564 25.7581C25.6564 25.7687 25.6352 25.7899 25.6352 25.8376C25.6352 25.8853 25.6087 26.1397 25.614 26.1768C25.6193 26.2192 25.6193 26.7757 25.6193 26.7757C25.6193 26.7757 25.667 26.94 25.667 26.9612C25.667 26.9824 25.7412 27.1467 25.7412 27.1467H25.5345H24.5805H23.1919V27.1626Z" fill="#EFD5DB"/>
<path d="M23.495 25.7951V26.765H25.4454V25.5938H23.4473L23.495 25.7951Z" fill="#AF7271"/>
<path d="M23.3987 25.9702C23.4146 25.9278 23.4358 25.9066 23.4358 25.843C23.4358 25.7794 23.3616 25.7635 23.4358 25.7423C23.51 25.7211 23.5047 25.7264 23.563 25.6946C23.6213 25.6575 23.6584 25.6363 23.6584 25.6363V27.0355H23.8015C23.8015 27.0355 23.7856 25.8006 23.8015 25.7794C23.8174 25.7582 23.8068 25.7158 23.8439 25.6787C23.881 25.6363 23.8863 25.5992 23.8863 25.5992C23.8863 25.5992 23.9128 25.6045 23.9552 25.6575C23.9976 25.7105 24.0559 25.7847 24.0559 25.7847V27.0408H24.199L24.1778 25.8006C24.1778 25.8006 24.199 25.7741 24.2414 25.7211C24.2838 25.6681 24.2891 25.5833 24.305 25.5992C24.3209 25.6151 24.3527 25.5515 24.3898 25.5992C24.4269 25.6469 24.411 25.7105 24.4587 25.7423C24.5011 25.7741 24.5011 25.8695 24.5064 25.9066C24.5117 25.9437 24.5064 27.0408 24.5064 27.0408H24.6654C24.6654 27.0408 24.623 26.479 24.623 26.3995C24.6283 26.3253 24.6601 26.1875 24.6654 26.0815C24.6707 25.9755 24.6654 25.9543 24.6654 25.8801C24.6654 25.8059 24.6601 25.7529 24.6654 25.7264C24.6707 25.7052 24.7502 25.6257 24.7661 25.6257C24.782 25.6257 24.888 25.7052 24.888 25.7264C24.888 25.7423 24.8297 25.9967 24.8297 26.0285C24.8297 26.0603 24.8615 26.5055 24.8668 26.5691C24.8721 26.6327 24.8721 27.0408 24.8721 27.0408H24.994V25.8589C24.994 25.8589 25.047 25.8059 25.0576 25.7635C25.0682 25.7211 25.1 25.6575 25.1106 25.6522C25.1265 25.6469 25.1795 25.6363 25.1848 25.6787C25.1954 25.7211 25.2007 25.8112 25.2166 25.8271C25.2325 25.843 25.2166 27.009 25.2166 27.009L25.312 27.0037V25.8059C25.312 25.8059 25.3544 25.79 25.365 25.7317C25.3809 25.6787 25.4604 25.6575 25.4604 25.6575C25.4604 25.6575 25.5028 25.7794 25.5081 25.8059C25.5187 25.8324 25.5452 25.9596 25.5452 25.9755C25.5452 25.9914 25.5452 26.9984 25.5452 26.9984L25.6936 26.9825C25.6936 26.9825 25.6459 26.5744 25.6406 26.3677C25.6406 26.1557 25.6618 25.8377 25.6724 25.8112C25.683 25.7847 25.6512 25.5833 25.6512 25.5833L24.5912 25.5303L23.3139 25.5886C23.3139 25.5886 23.2662 25.8854 23.3086 25.949C23.351 26.0126 23.351 25.9861 23.351 25.9861L23.3404 26.7864H23.4411L23.3987 25.9702Z" fill="#F1EFE2"/>
<path d="M23.5215 26.6379L25.5885 26.6803V27.1043L23.4473 27.0778L23.5374 26.8022L23.5215 26.6379Z" fill="#EFD5DB"/>
<path d="M23.2715 25.4454L23.298 25.3129H23.3616L23.3404 25.0479L23.4464 25.0267V24.9365L23.4782 24.6504L24.5647 24.6292L25.4763 24.6769L25.4445 25.0373L25.4975 25.0797V25.138L25.5558 25.1062V25.3394H25.6194V25.509H23.2715V25.4454Z" fill="#9E8D91"/>
<path d="M23.8646 24.6291C23.8752 24.6079 23.8752 24.645 23.8381 24.5655C23.801 24.486 23.7268 24.5125 23.748 24.4383C23.7692 24.3641 23.8275 24.3429 23.8063 24.327C23.7851 24.3111 23.8222 24.2952 23.8063 24.2316C23.7904 24.168 23.589 23.7281 23.7109 23.3942C23.8381 23.0656 24.0501 22.8642 24.1561 22.8165C24.2621 22.7741 24.5642 22.7423 24.7603 22.8165C24.9564 22.8907 25.1949 23.1769 25.2267 23.479C25.2585 23.7811 25.1419 24.0885 25.1154 24.168C25.0889 24.2475 25.0518 24.2952 25.0889 24.3111C25.126 24.327 25.1631 24.3005 25.1684 24.327C25.1737 24.3482 25.126 24.3906 25.1207 24.4065C25.1154 24.4224 25.0995 24.4489 25.1048 24.4754C25.1101 24.5019 25.1101 24.5125 25.0942 24.539C25.0783 24.5655 25.0677 24.5761 25.0677 24.5973C25.0677 24.6185 25.0677 24.6556 25.0677 24.6556L23.8646 24.6291Z" fill="#C0AAAF"/>
<path d="M23.7122 24.6503C23.7122 24.5602 23.6698 24.5496 23.6486 24.5231C23.6274 24.5019 23.5956 24.5072 23.5956 24.433C23.5956 24.3588 23.6486 24.3906 23.6698 24.3429C23.691 24.3005 23.6539 24.2634 23.6062 24.1786C23.5638 24.0938 23.5638 23.8765 23.5638 23.8765L23.5373 24.1786C23.5373 24.1786 23.4949 24.1415 23.4843 24.2687C23.479 24.3694 23.5267 24.4012 23.5214 24.4383C23.5108 24.4754 23.5108 24.5072 23.5002 24.5178C23.4843 24.5337 23.3942 24.5072 23.4101 24.5602C23.426 24.6132 23.4578 24.6556 23.4578 24.6556L23.7122 24.6503Z" fill="#F3DF8C"/>
<path d="M25.3384 23.9189V24.1627C25.3384 24.1627 25.2642 24.2104 25.2642 24.2422C25.2642 24.274 25.3066 24.3164 25.3013 24.3482C25.296 24.3853 25.3119 24.4224 25.3013 24.4489C25.2907 24.4807 25.2642 24.5284 25.2642 24.5443C25.2642 24.5602 25.1953 24.5867 25.1953 24.5867V24.6556L25.4656 24.6715V24.5761C25.4656 24.5761 25.3914 24.5655 25.3808 24.5019C25.3702 24.433 25.3596 24.3641 25.3808 24.3429C25.402 24.3217 25.4338 24.3641 25.4232 24.2952C25.4126 24.2263 25.3914 24.1786 25.3808 24.1733C25.3702 24.168 25.3384 23.9189 25.3384 23.9189Z" fill="#F3DF8C"/>
<path d="M24.3164 22.6524C24.3482 22.6365 24.3482 22.5888 24.3429 22.5305C24.3376 22.4722 24.3217 22.4669 24.2952 22.4192C24.2687 22.3715 24.2316 22.3238 24.2952 22.2602C24.3588 22.1913 24.3959 22.1754 24.4012 22.1012C24.4065 22.027 24.38 22.0482 24.4012 21.9952C24.4224 21.9422 24.4542 21.8998 24.4542 21.8998V21.4546L24.4807 21.921C24.4807 21.921 24.5178 21.9581 24.5231 22.0164C24.5284 22.0747 24.5337 22.1012 24.5231 22.1171C24.5125 22.133 24.6026 22.186 24.6238 22.2602C24.645 22.3344 24.6609 22.4669 24.6238 22.5146C24.5867 22.5623 24.5231 22.5888 24.5814 22.6365C24.6397 22.6842 24.6662 22.7849 24.6662 22.7849L24.2581 22.8061C24.2581 22.8061 24.2528 22.7213 24.2846 22.7054C24.3164 22.6736 24.3164 22.6524 24.3164 22.6524Z" fill="#F3DF8C"/>
<path d="M23.1914 27.1626L23.1543 28.3816H25.7937L25.7407 27.1626H23.1914Z" fill="#C0AAAF"/>
<path d="M18.0242 33.0402L21.9568 32.5632L28.8945 33.1144L28.4652 33.3529L23.5574 33.9253L17.7168 33.5066L18.0242 33.0402Z" fill="#706366"/>
<path d="M31.7417 33.4219L31.4926 32.9714L29.9397 32.929L29.2401 33.2682L27.7985 33.5968L24.3535 33.9254L24.4436 34.3335L31.7417 33.4219Z" fill="#EFD5DB"/>
<path d="M31.0371 25.4824H37.1109L36.1781 25.2651H34.5139H31.9381L31.0371 25.4824Z" fill="#EFD5DB"/>
<path d="M8.91473 29.9504L8.23633 30.1942L12.047 30.3267V30.173L8.91473 29.9504Z" fill="#EFD5DB"/>
<path d="M32.1013 24.465L32.0801 24.9367L36.018 24.9208V24.465L34.4598 24.3855L32.1013 24.465Z" fill="#D08C87"/>
<path d="M32.3515 23.8341V24.3058L32.166 24.5443H34.4609L35.9661 24.6609L35.9237 24.1998C35.9237 24.1998 35.6216 24.1574 35.6534 24.1203C35.6852 24.0832 35.6958 23.85 35.6799 23.8394C35.664 23.8288 35.4573 23.9666 35.4573 23.9666C35.4573 23.9666 35.4149 24.1309 35.4043 24.1574C35.3937 24.1839 35.3354 24.2422 35.3089 24.221C35.2824 24.1998 35.3036 24.1097 35.2665 24.0249C35.2241 23.9401 35.1499 23.9454 35.1181 23.8659C35.0863 23.7917 35.0492 23.7387 35.0439 23.7228C35.0386 23.7069 35.0333 23.6221 35.0333 23.6221C35.0333 23.6221 35.3036 23.3783 35.2135 22.9331C35.1234 22.4879 34.8319 22.1699 34.6623 22.0639C34.4927 21.9632 34.3602 21.9102 34.3549 21.8784C34.3496 21.8466 33.6977 21.9049 33.6977 21.9049L33.6765 22.0215C33.6765 22.0215 33.1942 22.1805 33.067 22.5038C32.9398 22.8271 32.9239 23.1716 32.9928 23.3624C33.0617 23.5532 33.1306 23.6062 33.0458 23.7334C32.961 23.8606 32.9239 23.9189 32.908 23.9825C32.8921 24.0461 32.8921 24.1203 32.8338 24.1521C32.7808 24.1839 32.7702 24.1839 32.7702 24.1256C32.7702 24.0673 32.7543 23.9772 32.7278 23.9401C32.7013 23.903 32.7013 23.8977 32.6165 23.8659C32.5317 23.8341 32.4098 23.8023 32.4098 23.8023L32.3515 23.8341Z" fill="#C0AAAF"/>
<path d="M34.0616 19.7161L34.1305 21.0994C34.1305 21.0994 34.3849 21.2584 34.3902 21.4227C34.3955 21.587 34.3213 21.64 34.3213 21.7354C34.3213 21.8308 34.369 21.905 34.369 21.905H33.7012C33.7012 21.905 33.892 21.8467 33.8549 21.7407C33.8178 21.6347 33.6588 21.4969 33.7383 21.3962C33.8178 21.2955 33.9874 21.1789 33.9874 21.0676C33.998 20.9563 34.0616 19.7161 34.0616 19.7161Z" fill="#F3DF8C"/>
<path d="M37.2052 9.30688L37.3271 11.6972C37.3377 11.6495 37.7776 11.8509 37.7776 12.2537C37.7776 12.5823 37.661 12.6247 37.661 12.7943C37.661 12.9639 37.7458 13.0911 37.7458 13.0911L36.5957 13.0858C36.5957 13.0858 36.9296 12.9904 36.866 12.8049C36.8024 12.6194 36.6328 12.3067 36.7176 12.1C36.8872 11.6601 37.0992 11.8403 37.0992 11.6495C37.0939 11.4481 37.2052 9.30688 37.2052 9.30688Z" fill="#F3DF8C"/>
<path d="M34.7151 17.7234L34.7469 18.3647C34.7522 18.3541 34.8688 18.4071 34.8688 18.5131C34.8688 18.6032 34.837 18.6138 34.837 18.6562C34.837 18.7039 34.8582 18.7357 34.8582 18.7357H34.5508C34.5508 18.7357 34.6409 18.7092 34.625 18.6615C34.6091 18.6138 34.5614 18.529 34.5826 18.4707C34.6303 18.3541 34.6833 18.4018 34.6833 18.3488C34.6833 18.2958 34.7151 17.7234 34.7151 17.7234Z" fill="#C0AAAF"/>
<path d="M39.6955 17.5061L39.7273 18.1474C39.7326 18.1368 39.8492 18.1898 39.8492 18.2958C39.8492 18.3859 39.8174 18.3965 39.8174 18.4389C39.8174 18.4866 39.8386 18.5184 39.8386 18.5184H39.5312C39.5312 18.5184 39.6213 18.4919 39.6054 18.4442C39.5895 18.3965 39.5418 18.3117 39.563 18.2534C39.6107 18.1368 39.6637 18.1845 39.6637 18.1315C39.6637 18.0785 39.6955 17.5061 39.6955 17.5061Z" fill="#C0AAAF"/>
<path d="M38.0951 24.0886V24.4861L37.9414 24.6875H39.8971L41.1744 24.7829L41.1426 24.3907C41.1426 24.3907 40.8829 24.3536 40.9094 24.3218C40.9359 24.29 40.9412 24.0886 40.9306 24.0833C40.92 24.078 40.7398 24.1893 40.7398 24.1893C40.7398 24.1893 40.7027 24.3324 40.6921 24.3536C40.6868 24.3748 40.6338 24.4278 40.6126 24.4066C40.5914 24.3854 40.6073 24.3112 40.5755 24.237C40.5437 24.1628 40.4748 24.1681 40.4483 24.1045C40.4218 24.0409 40.39 23.9932 40.3847 23.9826C40.3794 23.972 40.3794 23.8925 40.3794 23.8925C40.3794 23.8925 40.6073 23.6805 40.5331 23.3042C40.4589 22.9279 40.2098 22.6523 40.0667 22.5675C39.9236 22.4774 39.807 22.4403 39.8017 22.4138C39.7964 22.3873 39.2399 22.435 39.2399 22.435L39.2187 22.5357C39.2187 22.5357 38.8053 22.6735 38.6993 22.9491C38.5933 23.2247 38.5774 23.5162 38.6357 23.6805C38.694 23.8448 38.7523 23.8925 38.6834 23.9985C38.6092 24.1045 38.5827 24.1575 38.5668 24.2105C38.5509 24.2635 38.5509 24.3271 38.5085 24.3536C38.4608 24.3801 38.4555 24.3801 38.4555 24.3324C38.4555 24.2847 38.4396 24.2052 38.4184 24.1787C38.3972 24.1522 38.3972 24.1469 38.323 24.1204C38.2488 24.0939 38.1481 24.0674 38.1481 24.0674L38.0951 24.0886Z" fill="#C0AAAF"/>
<path d="M39.5541 20.5801L39.6124 21.7567C39.6124 21.7567 39.8297 21.8892 39.835 22.0323C39.8403 22.1754 39.7767 22.2125 39.7767 22.2973C39.7767 22.3821 39.8191 22.4404 39.8191 22.4404H39.252C39.252 22.4404 39.4163 22.3927 39.3845 22.3026C39.3527 22.2125 39.2149 22.0959 39.2838 22.0111C39.3527 21.921 39.4958 21.8309 39.4958 21.7355C39.4958 21.6401 39.5541 20.5801 39.5541 20.5801Z" fill="#F3DF8C"/>
<path d="M35.1224 19.6153C35.1224 19.6153 34.02 19.9916 33.967 20.0711C33.914 20.1506 34.0836 20.2036 34.2108 20.1877C34.338 20.1718 34.3168 20.1241 34.3963 20.193C34.4758 20.2619 34.3804 20.1718 34.4705 20.2619C34.5606 20.352 34.5977 20.405 34.5977 20.405L34.6083 19.8962C34.6083 19.8962 36.4686 19.7425 36.9986 19.716C37.5286 19.6895 38.3236 19.7054 39.0391 19.716C39.7546 19.7266 39.8447 19.7531 39.8447 19.7531V20.2725C39.8447 20.2725 39.9083 20.1188 40.009 20.087C40.1097 20.0499 40.3111 19.9863 40.3959 19.9439C40.4754 19.9015 40.5549 19.8803 40.5549 19.8803C40.5549 19.8803 40.1521 19.7001 39.6804 19.6206C39.2087 19.5411 38.1487 19.4404 37.1735 19.4616C36.1983 19.4828 35.1224 19.6153 35.1224 19.6153Z" fill="#EFD5DB"/>
<path d="M35.239 18.2056C35.239 18.2056 34.9157 17.453 34.9422 17.294C34.9687 17.135 34.9422 16.9548 34.9422 16.9548H34.8256V16.5414L34.6719 16.499L34.8892 16.4195C34.8892 16.4195 34.9952 16.3665 34.9581 16.3029C34.9157 16.2393 34.9422 16.1757 34.9581 16.1174C34.974 16.0591 35.0429 15.8312 35.0429 15.8312C35.0429 15.8312 35.1065 16.0644 35.1436 16.1068C35.1807 16.1492 35.1807 16.2128 35.1807 16.2128C35.1807 16.2128 35.4934 15.7305 35.7266 15.5344C35.9598 15.3383 36.1665 15.2376 36.1718 15.1581C36.1824 15.0786 36.0923 15.0786 36.0923 14.9779C36.0923 14.8772 36.4156 14.7076 36.458 14.6758C36.5004 14.6387 36.3838 14.5062 36.458 14.379C36.5322 14.2518 36.511 14.0663 36.511 14.0663C36.511 14.0663 36.3308 14.1034 36.3414 14.0133C36.352 13.9232 36.5481 13.8331 36.5481 13.8331C36.5481 13.8331 36.5534 13.5045 36.5481 13.3879C36.5428 13.2713 36.5481 13.1706 36.5481 13.1706L36.6064 13.637L36.7071 13.1706L36.8396 13.6794L37.0887 13.0911L37.2212 13.6264L37.518 13.0911L37.6452 13.637L37.8042 13.1812L37.8572 13.7695C37.8572 13.7695 38.0003 13.7589 38.0427 13.849C38.0851 13.9391 37.9685 14.0186 37.9685 14.0186C37.9685 14.0186 37.942 14.2677 37.9685 14.432C37.995 14.591 37.995 14.7023 37.995 14.7023C37.995 14.7023 38.2123 14.6493 38.2706 14.7659C38.3342 14.8825 38.2812 14.962 38.2706 14.9991C38.26 15.0362 38.2229 15.0892 38.3024 15.1263C38.3819 15.1634 39.0868 15.7888 39.0868 15.7888C39.0868 15.7888 39.1663 15.7994 39.1769 15.7146C39.1875 15.6351 39.1769 15.5715 39.1769 15.5715C39.1769 15.5715 39.1928 15.7305 39.2564 15.8312C39.32 15.9319 39.3359 16.0538 39.3359 16.0538L39.3889 15.8948C39.3889 15.8948 39.3624 15.969 39.4419 16.0644C39.5214 16.1651 39.5055 16.2711 39.5055 16.2711L39.5479 16.4672L39.6804 16.4778C39.6804 16.4778 39.5214 16.5149 39.5214 16.658C39.5214 16.8011 39.4843 16.9972 39.4843 16.9972C39.4843 16.9972 39.3412 17.6491 39.2988 17.8028C39.2564 17.9565 39.3624 17.93 39.3253 18.0254C39.2882 18.1261 39.3041 18.2533 39.3041 18.2533L35.239 18.2056Z" fill="#C0AAAF"/>
<path d="M31.6719 25.5992C31.6719 25.5992 31.7991 25.843 31.815 25.9225C31.8309 26.002 31.8044 26.2511 31.8574 26.3253C31.9104 26.3995 31.9581 26.4525 31.9581 26.4525L31.9051 28.5566L32.1701 28.4983L32.2125 26.0974C32.2125 26.0974 32.3821 25.9172 32.4086 25.8218C32.4351 25.7264 32.4987 25.6045 32.4987 25.6045C32.4987 25.6045 32.5146 25.6204 32.5517 25.7476C32.5888 25.8748 32.6577 26.0232 32.6577 26.0232V28.5566H32.9598V26.0338C32.9598 26.0338 33.1294 25.8483 33.1135 25.7741C33.0976 25.6999 33.2142 25.6946 33.2407 25.6946C33.2672 25.6946 33.3308 25.6204 33.3732 25.7741C33.4156 25.9278 33.5004 26.1133 33.5004 26.1133L33.5428 26.3995V28.5566H33.7919V26.2299C33.7919 26.2299 33.8449 26.0974 33.882 25.9967C33.9191 25.896 33.9085 25.7211 33.9562 25.6999C33.9986 25.684 34.1099 25.5833 34.1629 25.6734C34.2159 25.7635 34.3166 26.0232 34.3166 26.0232V28.5566H34.677V26.0338C34.677 26.0338 34.6929 26.0073 34.7406 25.9278C34.783 25.8483 34.8201 25.7052 34.8201 25.7052C34.8201 25.7052 34.8201 25.9543 34.8625 25.9808C34.9049 26.0073 34.9526 28.5566 34.9526 28.5566H35.1858C35.1858 28.5566 35.1434 26.3306 35.1434 26.2935C35.1434 26.2564 35.1275 26.0603 35.154 26.0444C35.1805 26.0285 35.313 26.002 35.3077 25.8748C35.3024 25.7476 35.2441 25.6946 35.3077 25.6946C35.3713 25.6946 35.4879 25.684 35.4932 25.7476C35.4985 25.8112 35.4932 28.5566 35.4932 28.5566H35.7635V26.0868C35.7635 26.0868 35.7211 26.0444 35.7635 25.9702C35.8059 25.896 35.843 25.7105 35.843 25.7105C35.843 25.7105 35.9861 25.9278 35.9755 25.9808C35.9649 26.0338 35.9755 28.5566 35.9755 28.5566H36.2776C36.2776 28.5566 36.2352 26.1186 36.2352 26.055C36.2352 25.9914 36.3094 26.055 36.3359 25.8854C36.3624 25.7158 36.3995 25.7317 36.426 25.6522C36.4525 25.5727 36.426 25.4932 36.426 25.4932H31.6825V25.5992H31.6719Z" fill="#F1EFE2"/>
<path d="M36.5488 31.2807L40.068 30.9839L40.8312 31.1906L37.047 31.5298L36.5488 31.2807Z" fill="#EFD5DB"/>
<path d="M35.033 31.2967C35.033 31.2967 34.9588 30.6342 35.033 30.4752C35.1072 30.3162 35.2821 30.0618 35.3086 29.9823C35.3351 29.9028 35.4093 29.8498 35.3987 29.7862C35.3881 29.7226 35.3669 29.7491 35.3987 29.659C35.4358 29.5689 35.4358 29.5848 35.4358 29.4523C35.4358 29.3198 35.4888 29.2085 35.4888 29.2085C35.4888 29.2085 35.5789 29.5848 35.5895 29.6219C35.6001 29.659 35.5789 29.7279 35.5895 29.7756C35.6001 29.818 35.4941 29.9293 35.5895 29.9452C35.6849 29.9611 35.987 30.2208 36.0506 30.3904C36.1142 30.56 36.2043 30.7614 36.1831 30.8833C36.1672 31.0052 36.2573 31.1748 36.2573 31.1748L35.8174 31.249L35.033 31.2967Z" fill="#C0AAAF"/>
<path d="M40.5597 30.8885C40.5597 30.8885 40.4166 30.1942 40.5597 30.0246C40.7028 29.855 40.7293 29.7702 40.7664 29.696C40.8035 29.6218 40.8194 29.643 40.83 29.5635C40.8406 29.484 40.8724 29.5529 40.8936 29.4575C40.9095 29.3568 40.8936 29.0918 40.8936 29.0918C40.8936 29.0918 40.9572 29.537 40.9837 29.5317C41.0102 29.5264 41.0632 29.5741 41.0632 29.6377C41.0632 29.7013 41.4395 29.9981 41.4766 30.173C41.5137 30.3532 41.5826 30.7825 41.5826 30.7825L41.1003 30.8938H40.5597V30.8885Z" fill="#C0AAAF"/>
<path d="M35.0332 31.2966L35.0968 33.2894C35.0968 33.2894 35.33 33.0456 35.33 32.9767C35.33 32.9078 35.2664 32.4202 35.33 32.3619C35.3936 32.2983 35.4625 32.1817 35.5738 32.1181C35.6798 32.0545 35.7593 31.922 35.7593 31.922V31.6994L35.9766 31.6888L35.913 33.0562C35.913 33.0562 36.0296 32.7541 36.0296 32.6534C36.0296 32.5527 36.1091 32.2665 36.1303 32.1976C36.1462 32.1234 36.0773 32.1234 36.1939 32.0174C36.3105 31.9114 36.3741 31.8743 36.3741 31.7895C36.3741 31.7047 36.4536 31.5669 36.4748 31.5298C36.4907 31.4927 36.6762 31.339 36.6762 31.339L36.8299 31.2595L36.6868 31.1853H36.2734L35.0332 31.2966Z" fill="#EFD5DB"/>
<path d="M40.5605 30.8885V32.5845C40.5605 32.5845 40.6665 32.717 40.693 32.5845C40.7195 32.452 40.7725 32.1393 40.7725 32.0121C40.7725 31.8849 40.6824 31.7683 40.8255 31.71C40.9686 31.6464 41.1011 31.5563 41.1223 31.5298C41.1382 31.5033 41.1223 31.3231 41.1223 31.3231L41.2813 31.2966L41.2177 32.5739C41.2177 32.5739 41.3184 32.3884 41.3237 32.2877C41.329 32.187 41.4138 31.9114 41.4138 31.8213C41.4138 31.7312 41.4668 31.6358 41.5145 31.5987C41.5622 31.5616 41.6682 31.4715 41.6682 31.4715V31.2542C41.6682 31.2542 41.7954 31.0793 41.8378 31.0422C41.8802 31.0051 42.0604 30.9786 42.0604 30.9786L42.018 30.7825L40.5605 30.8885Z" fill="#EFD5DB"/>
<path d="M38.2813 32.3726C38.2813 32.3726 38.8802 32.5157 39.2194 33.3584C39.5586 34.2011 39.5586 35.5579 39.5586 35.5579L37.0199 36.0614C37.0199 36.0614 36.7602 34.5403 37.1524 33.7188C37.64 32.7012 38.2813 32.3726 38.2813 32.3726Z" fill="#706366"/>
<path d="M36.3574 29.8391L39.919 29.6536V30.9998L36.3574 31.2966V29.8391Z" fill="#F1EFE2"/>
<path d="M36.8301 25.7528L37.5403 25.6097L40.1267 25.5408L41.3775 25.5991L42.3156 25.7528H36.8301Z" fill="#EFD5DB"/>
<path d="M37.9363 28.0531V26.2458C37.9363 26.2458 37.9469 26.2723 37.9999 26.1398C38.0529 26.0073 38.1854 25.9172 38.1854 25.9172C38.1854 25.9172 38.2384 25.9172 38.2755 26.0179C38.3126 26.1186 38.3179 26.2617 38.3285 26.3412C38.3391 26.4207 38.4027 26.6009 38.4027 26.6009L38.3603 28.4771H38.567L38.6306 26.3465C38.6306 26.3465 38.7578 26.1875 38.7737 26.0603C38.7896 25.9331 38.8161 25.8536 38.8744 25.9172C38.9274 25.9808 39.0599 26.1398 39.0599 26.1398C39.0599 26.1398 39.1341 26.1822 39.1659 26.3571C39.1977 26.532 39.1659 28.4771 39.1659 28.4771H39.3355V26.3571C39.3355 26.3571 39.4892 26.267 39.5051 26.1875C39.521 26.108 39.4945 26.0709 39.574 26.0179C39.6482 25.9649 39.7012 25.8748 39.7383 25.896C39.7754 25.9172 39.8708 26.1504 39.8708 26.1504C39.8708 26.1504 39.8814 26.3041 39.9132 26.3995C39.9503 26.5002 39.9556 26.6751 39.9556 26.6751L39.9132 28.4718H40.2153L40.1888 26.6645C40.1888 26.6645 40.2683 26.4843 40.2524 26.3783C40.2365 26.2723 40.2153 26.2723 40.2524 26.1557C40.2948 26.0391 40.3107 25.949 40.3107 25.949C40.3107 25.949 40.2312 26.1186 40.3107 26.2193C40.3902 26.32 40.3478 26.6645 40.3637 26.7281C40.3796 26.7917 40.3637 28.4718 40.3637 28.4718H40.6234C40.6234 28.4718 40.6499 26.797 40.6234 26.7122C40.5969 26.6221 40.6287 26.5055 40.634 26.4101C40.6393 26.3094 40.6022 26.2935 40.687 26.1928C40.7665 26.0921 40.7877 26.0126 40.7771 25.9861C40.7665 25.9596 40.6764 26.1557 40.7771 26.3465C40.8778 26.5373 40.8566 28.4771 40.8566 28.4771H41.1163V26.8023C41.1163 26.8023 41.0739 26.4419 41.0739 26.3995C41.0739 26.3571 41.1693 26.267 41.164 26.2034C41.1587 26.1398 41.0951 25.9331 41.164 25.9967C41.2329 26.0603 41.2488 26.3571 41.2488 26.3571L41.2912 28.4771H41.5138L41.4714 26.2511C41.4714 26.2511 41.5615 26.161 41.5721 26.0285C41.5827 25.896 41.6357 25.896 41.6357 25.896L41.7099 25.7582L41.6781 25.6575L37.3321 25.7158C37.3321 25.7158 37.3162 25.7688 37.3745 25.843C37.4381 25.9172 37.5017 26.0232 37.5282 26.0762C37.5547 26.1292 37.6024 26.4684 37.6077 26.5055C37.6183 26.5426 37.6236 26.7652 37.6236 26.8076C37.6236 26.85 37.6342 28.5036 37.6342 28.5036L37.878 28.4612L37.8674 28.069L37.9363 28.0531Z" fill="#F1EFE2"/>
<path d="M15.0677 22.0321C14.9458 22.0904 14.6596 22.2706 14.649 22.4508C14.6384 22.631 14.543 23.1186 14.5748 23.2988C14.6119 23.479 14.7073 23.7281 14.6808 23.7864C14.6543 23.8447 14.6225 23.9984 14.6331 24.0461C14.6437 24.0938 14.6066 24.115 14.649 24.2051C14.6914 24.2952 14.6437 24.4277 14.6437 24.4277L16.1807 24.3694C16.1807 24.3694 16.1065 24.1256 16.1807 24.0461C16.2549 23.9666 16.2072 23.8447 16.1807 23.7493C16.1542 23.6539 16.2178 23.6274 16.2867 23.4631C16.3609 23.2935 16.4086 22.7158 16.2867 22.5833C16.1648 22.4508 15.8309 22.0533 15.7726 22.0321C15.7302 22.0162 15.3963 22.0215 15.2002 22.0268C15.126 22.0321 15.0677 22.0321 15.0677 22.0321Z" fill="#C0AAAF"/>
<path d="M15.2679 21.7831C15.305 21.6612 15.3739 21.5923 15.2679 21.534C15.1619 21.4757 15.2096 21.5075 15.2679 21.3909C15.3262 21.269 15.3527 21.2001 15.3686 21.1259C15.3845 21.0517 15.4322 20.5747 15.4322 20.5747C15.4322 20.5747 15.4428 21.0411 15.4693 21.0888C15.4958 21.1365 15.6548 21.2107 15.6442 21.3538C15.6283 21.4969 15.411 21.5817 15.4693 21.6665C15.5329 21.7513 15.6336 21.8785 15.6442 21.9527C15.6548 22.0269 15.6548 22.0269 15.6548 22.0269L15.2149 22.0322L15.2679 21.7831Z" fill="#F3DF8C"/>
<path d="M5.27304 33.9253C5.27304 33.9253 4.93914 34.3334 4.92854 34.4394C4.91794 34.5454 4.92854 35.1549 4.92854 35.1549L5.57514 35.2132C5.57514 35.2132 5.62284 34.6779 5.57514 34.4712C5.52744 34.2645 5.27304 33.9253 5.27304 33.9253Z" fill="#706366"/>
<path d="M6.37031 34.0474C6.37031 34.0474 6.03641 34.4767 6.05761 34.5721C6.08411 34.6675 6.05761 35.3724 6.05761 35.3724L6.63001 35.4678C6.63001 35.4678 6.66711 34.9908 6.63001 34.7046C6.59821 34.4131 6.37031 34.0474 6.37031 34.0474Z" fill="#706366"/>
<path d="M7.48744 34.1746C7.43444 34.2223 7.15884 34.4396 7.16414 34.7523C7.16944 35.0703 7.16414 35.5473 7.16414 35.5473L7.84254 35.6321C7.84254 35.6321 7.85844 34.8901 7.78954 34.6887C7.72064 34.4873 7.48744 34.1746 7.48744 34.1746Z" fill="#706366"/>
<path d="M8.71727 34.2593C8.71727 34.2593 8.51057 34.4766 8.46287 34.6674C8.41517 34.8582 8.38867 35.6797 8.38867 35.6797L9.06177 35.8016C9.06177 35.8016 9.08297 35.2345 9.05647 34.943C9.02997 34.6515 8.71727 34.2593 8.71727 34.2593Z" fill="#706366"/>
<path d="M9.96393 34.3811C9.96393 34.3811 9.64062 34.7415 9.64062 34.9323C9.64062 35.1231 9.64062 35.7909 9.64062 35.7909L10.2713 35.8969C10.2713 35.8969 10.3455 35.1867 10.3031 34.9482C10.266 34.7044 9.96393 34.3811 9.96393 34.3811Z" fill="#706366"/>
<path d="M20.494 35.3669C20.5311 35.4252 20.8067 35.5683 20.8756 35.8916C20.9498 36.2149 20.8756 36.8933 20.8756 36.8933L20.0859 36.8456C20.0859 36.8456 20.0859 36.2838 20.1442 36.0241C20.2078 35.7644 20.494 35.3669 20.494 35.3669Z" fill="#706366"/>
<path d="M22.1166 35.4783C21.9258 35.5737 21.5813 36.0984 21.6025 36.3263C21.629 36.5542 21.6025 37.1531 21.6025 37.1531L22.583 37.328C22.583 37.328 22.7526 36.6814 22.6678 36.4058C22.583 36.1249 22.583 36.0189 22.4505 35.8016C22.318 35.5843 22.1166 35.4783 22.1166 35.4783Z" fill="#706366"/>
<path d="M18.5487 35.261C18.5487 35.261 18.3208 35.367 18.236 35.6214C18.1512 35.8705 18.1406 36.6019 18.1406 36.6019L18.9727 36.7556C18.9727 36.7556 18.9568 36.1249 18.9727 35.8228C18.9886 35.526 18.7607 35.3193 18.7607 35.3193L18.5487 35.261Z" fill="#706366"/>
<path d="M16.6564 35.0012C16.6564 35.0012 16.4338 35.0701 16.3172 35.4252C16.1953 35.7856 16.1953 36.2679 16.1953 36.2679L16.8737 36.3951C16.8737 36.3951 16.9214 36.0029 16.932 35.6955C16.9426 35.3881 16.9797 35.2609 16.8737 35.1496C16.773 35.0489 16.6564 35.0012 16.6564 35.0012Z" fill="#706366"/>
<path d="M14.6226 33.7346C14.5696 33.7929 14.0078 34.0473 14.0078 34.0473L22.3924 34.678C22.3924 34.678 22.6256 34.8688 22.9701 34.8794C23.3146 34.89 24.0407 34.9642 24.3587 34.8794C24.6767 34.7946 24.8781 34.6515 24.8781 34.6515L32.2769 33.7346L31.6674 33.4272L24.0672 34.4236C24.0672 34.4236 24.1361 34.4819 23.834 34.5561C23.5319 34.6303 23.2669 34.4819 23.2669 34.4819L14.6226 33.7346Z" fill="#EFD5DB"/>
<path d="M11.882 30.4538C11.7389 30.4803 11.0234 30.6128 11.0234 30.6128L17.5212 30.9255L22.4714 30.6658L21.793 30.4485L17.5212 30.7135L11.882 30.4538Z" fill="#EFD5DB"/>
<path d="M13.7056 30.9255C13.6791 30.9679 13.7056 32.4943 13.7056 32.4943H13.5042L13.5466 32.8229L13.9918 32.8653L14.7497 32.7381L14.6172 32.489L14.5006 32.3777V31.9378L14.3628 31.8159L14.3893 30.9149L14.5059 30.7983H14.0077H13.4512L13.7056 30.9255Z" fill="#D08C87"/>
<path d="M13.6372 30.6129C13.616 30.6182 13.5895 30.6288 13.563 30.6394C13.4252 30.6977 13.2344 30.809 13.2344 30.809H14.7502L14.5011 30.6553C14.5011 30.6553 14.4428 30.438 14.4216 30.3903C14.3951 30.3426 14.2202 30.2472 14.2202 30.2472C14.2202 30.2472 14.1619 30.0935 14.1725 29.9981C14.1831 29.9027 14.3527 29.8285 14.305 29.6589C14.2573 29.484 14.2679 29.5476 14.199 29.4151C14.1248 29.2826 14.0771 28.7314 14.0771 28.7314C14.0771 28.7314 14.093 29.2031 13.9764 29.3568C13.8598 29.5105 13.6955 29.4416 13.7803 29.6589C13.8651 29.8815 13.9499 30.0405 13.9393 30.1147C13.9234 30.1889 13.9552 30.3585 13.8916 30.3903C13.828 30.4327 13.6372 30.6129 13.6372 30.6129Z" fill="#C0AAAF"/>
<path d="M10.477 30.279C10.4876 30.3161 10.477 30.5546 10.477 30.5546L10.0742 30.6765H11.5953L11.2031 30.5546V30.279C11.2031 30.279 10.9858 30.226 10.9752 30.12C10.9646 30.014 10.9169 30.1518 11.0123 29.908C11.1077 29.6642 11.3197 29.749 11.0388 29.484C10.7579 29.2137 10.8374 28.7791 10.8374 28.7791C10.8374 28.7791 10.7632 29.325 10.7049 29.431C10.6466 29.537 10.5618 29.6165 10.6572 29.7755C10.7526 29.9345 10.7632 29.9769 10.7049 30.12C10.6413 30.2631 10.477 30.279 10.477 30.279Z" fill="#C0AAAF"/>
<path d="M17.2246 29.5581V30.6711L17.8235 30.7188V29.5581H17.2246Z" fill="#AF7271"/>
<path d="M7.84925 29.9504C8.01885 30.0246 7.94995 29.8232 8.08245 30.173C8.21495 30.5228 8.08245 31.9485 8.08245 31.9485L7.51005 32.0227L7.49415 30.4592C7.49415 30.4592 7.45175 30.2207 7.59485 30.0882C7.73265 29.9504 7.84925 29.9504 7.84925 29.9504Z" fill="#706366"/>
<path d="M6.06307 28.8586V29.3621C6.06307 29.3621 5.73977 29.5582 5.69737 29.6642C5.65497 29.7702 5.59667 30.0829 5.59667 30.0829L5.41647 30.1412L5.01367 30.3267C5.01367 30.3267 5.52777 30.1306 5.53837 30.3267C5.54897 30.5228 5.40057 30.7348 5.53837 30.8143C5.67617 30.8991 5.69207 30.809 5.75567 31.0051C5.81927 31.2012 5.74507 31.2913 5.75567 31.3973C5.76627 31.5033 5.85637 31.7471 5.87227 31.6676C5.88817 31.5934 5.97827 31.4132 5.94647 31.3231C5.90937 31.233 5.87227 30.8673 5.87227 30.809C5.87227 30.7507 5.79807 30.597 5.87227 30.6129C5.94647 30.6288 5.78217 30.5758 5.94647 30.6871C6.10547 30.8037 6.37047 30.8567 6.33867 30.9998C6.30687 31.1429 6.33867 31.4662 6.33867 31.4662L6.47647 31.7789V30.6129C6.47647 30.6129 6.47647 30.1571 6.47647 30.1942C6.47647 30.2313 6.63547 30.0564 6.55597 29.9451C6.47647 29.8391 6.49767 29.643 6.33867 29.4787C6.17437 29.3197 6.06307 28.8586 6.06307 28.8586Z" fill="#C0AAAF"/>
<path d="M14.7923 31.6675C14.9619 31.9113 15.0679 31.853 15.0679 32.2399C15.0679 32.6268 15.0679 32.8282 15.0679 32.8282H14.2676C14.2676 32.8282 14.2994 32.3247 14.4054 32.0226C14.5114 31.7205 14.7923 31.6675 14.7923 31.6675Z" fill="#706366"/>
<path d="M16.6569 31.6677C16.5827 31.9327 16.6039 32.3408 16.5509 32.4945C16.4979 32.6482 16.5509 32.8708 16.5509 32.8708H17.224C17.224 32.8708 17.2293 32.3991 17.1392 32.1394C17.0491 31.8797 17.1021 31.9327 16.9537 31.779C16.8 31.6306 16.6569 31.6677 16.6569 31.6677Z" fill="#706366"/>
<path d="M18.4332 31.6675C18.1629 31.8636 18.041 32.436 18.041 32.4996C18.041 32.5632 18.041 32.8759 18.041 32.8759H18.8095C18.8095 32.8759 18.7565 32.1922 18.6823 31.9484C18.6081 31.6993 18.4332 31.6675 18.4332 31.6675Z" fill="#706366"/>
<path d="M19.9698 31.4714C19.6995 31.6304 19.6094 31.8265 19.6094 32.0226C19.6094 32.2187 19.6094 32.7434 19.6094 32.7434L20.3779 32.6268C20.3779 32.6268 20.3408 32.0968 20.2242 31.8477C20.1129 31.5933 19.9698 31.4714 19.9698 31.4714Z" fill="#706366"/>
<path d="M21.5069 31.4714C21.2366 31.6145 21.1465 31.8265 21.1465 32.0226C21.1465 32.2187 21.1465 32.5632 21.1465 32.5632L21.7719 32.4996C21.7719 32.4996 21.862 32.0279 21.7719 31.8265C21.6871 31.6304 21.5069 31.4714 21.5069 31.4714Z" fill="#706366"/>
<path d="M22.9637 31.3601C22.8312 31.5403 22.6298 31.7788 22.6881 31.9431C22.7464 32.1074 22.6881 32.542 22.6881 32.542L23.4513 32.6215C23.4513 32.6215 23.5308 32.0597 23.4513 31.8265C23.3665 31.5933 22.9637 31.3601 22.9637 31.3601Z" fill="#706366"/>
<path d="M24.4739 31.7842L23.8379 32.2082C23.8379 32.2082 24.7972 32.2135 24.8714 32.2718C24.9456 32.3301 25.4756 31.8478 25.4756 31.8478L24.4739 31.7842Z" fill="#EFD5DB"/>
<path d="M27.0024 31.8267L26.377 32.3461L27.6755 32.4998L28.0465 32.1076L27.0024 31.8267Z" fill="#EFD5DB"/>
<path d="M29.0064 32.1074L28.752 32.2717L29.9445 32.3618L30.1512 32.2081L29.0064 32.1074Z" fill="#EFD5DB"/>
<path d="M28.3652 27.8198V28.0954V29.3462L31.7996 29.2879L31.577 28.4929L30.8297 28.265L30.4534 28.3816V27.8569L28.3652 27.8198Z" fill="#D08C87"/>
<path d="M23.335 32.2082V34.5137C23.335 34.5137 23.4251 34.6356 23.706 34.5773C23.9869 34.5137 24.077 34.4289 24.077 34.4289L23.9445 32.2082L24.2572 31.9485H22.9746L23.335 32.2082Z" fill="#AF7271"/>
<path d="M23.61 30.5758C23.4881 30.65 23.4245 30.7507 23.451 30.8885C23.4775 31.0263 23.5252 31.1694 23.5252 31.1694C23.5252 31.1694 23.5517 31.18 23.5252 31.2754C23.4987 31.3708 23.4616 31.4291 23.3927 31.4768C23.3185 31.5245 23.3132 31.4291 23.2708 31.5987C23.2284 31.7683 23.2708 31.8372 23.2708 31.8372L22.8203 31.9432H24.4421L24.0711 31.8372C24.0711 31.8372 24.0234 31.7418 24.0128 31.6358C24.0022 31.5298 23.8379 31.4662 23.8379 31.4662C23.8379 31.4662 23.8803 31.4556 23.8379 31.3337C23.7955 31.2118 23.8432 31.1641 23.8379 31.0846C23.8326 30.9998 23.9068 31.0581 23.8856 30.8885C23.8697 30.7189 23.7743 30.6341 23.7372 30.5758C23.7001 30.5175 23.6312 29.908 23.6312 29.908L23.61 30.5758Z" fill="#C0AAAF"/>
</g>
</svg>
