<svg width="49" height="45" viewBox="0 0 49 45" fill="none" xmlns="http://www.w3.org/2000/svg">
<path d="M48.2 22.2C48.2 35.1 36.4 44.3 23.5 44.3C10.6 44.3 0 33.9 0 20.9C0 7.9 6.7 0 23.7 0C36.6 0 48.2 9.3 48.2 22.2Z" fill="#BED6F3"/>
<mask id="mask0_1814_2231" style="mask-type:luminance" maskUnits="userSpaceOnUse" x="0" y="0" width="49" height="45">
<path d="M48.2 22.2C48.2 35.1 36.4 44.3 23.5 44.3C10.6 44.3 0 33.9 0 20.9C0 7.9 6.7 0 23.7 0C36.6 0 48.2 9.3 48.2 22.2Z" fill="white"/>
</mask>
<g mask="url(#mask0_1814_2231)">
<path d="M2.19922 22.3H46.1992V33.7001L2.19922 32.8V22.3Z" fill="#BA6860"/>
<path d="M17.9004 34.6002V26.1002H20.0004V25.7002H25.4004L25.2004 26.4002L27.4004 26.3002L27.7004 35.1002L17.9004 34.6002Z" fill="#843E3A"/>
<path d="M19.0004 29.5C19.0004 29.5 21.1004 28.1 22.4004 28.1C23.7004 28.1 25.7004 29.5 25.7004 29.5H27.4004V28.8H25.9004C25.9004 28.8 23.5004 27.5 22.4004 27.5C21.3004 27.5 19.0004 28.9 19.0004 28.9L17.9004 29V29.6H19.0004V29.5Z" fill="#EDECDD"/>
<path d="M19.7988 34.8003V31.7003C19.7988 31.7003 20.4988 29.7003 22.1988 29.6003C23.8988 29.5003 25.0988 31.5003 25.0988 31.5003V34.8003H19.7988Z" fill="#514241"/>
<path d="M25.2992 35.0002H19.6992V31.7002C19.6992 31.6002 20.3992 29.6002 22.2992 29.5002C24.0992 29.4002 25.2992 31.4002 25.2992 31.5002V35.0002ZM19.9992 34.7002H24.9992V31.6002C24.7992 31.3002 23.7992 29.7002 22.2992 29.8002C20.7992 29.9002 20.0992 31.5002 19.9992 31.7002V34.7002Z" fill="#EDECDD"/>
<path d="M46.1988 22.4V20.9L45.7988 20.3L45.4988 20.8L45.1988 20.3L44.9988 20.9L44.5988 20.3L44.2988 21L43.9988 20.3L43.6988 21L43.3988 20.4L43.1988 20.8L42.7988 20.3L42.3988 20.9L42.0988 20.3L41.7988 20.9V22.2L46.1988 22.4Z" fill="#843E3A"/>
<path d="M46.2988 22.4001L41.7988 22.2001V20.9001L42.0988 20.1001L42.3988 20.8001L42.7988 20.2001L43.1988 20.8001L43.4988 20.4001L43.7988 20.9001L44.0988 20.2001L44.3988 20.9001L44.6988 20.2001L44.9988 20.8001L45.1988 20.2001L45.4988 20.7001L45.7988 20.2001L46.2988 21.0001V22.4001ZM41.8988 22.1001L46.1988 22.3001V20.9001L45.7988 20.3001L45.4988 20.8001L45.1988 20.3001L44.9988 21.0001L44.5988 20.4001L44.1988 21.1001L43.8988 20.4001L43.5988 21.1001L43.2988 20.6001L43.0988 21.0001L42.6988 20.4001L42.2988 21.1001L41.9988 20.5001L41.7988 21.0001L41.8988 22.1001Z" fill="#EDECDD"/>
<path d="M41.7988 22.5001V21.1001L41.3988 20.4001L41.0988 20.9001L40.7988 20.4001L40.4988 21.1001L40.1988 20.4001L39.7988 21.1001L39.4988 20.4001L39.2988 21.1001L38.9988 20.6001L38.6988 21.0001L38.2988 20.4001L37.8988 21.1001L37.5988 20.4001L37.2988 21.0001L37.3988 22.3001L41.7988 22.5001Z" fill="#843E3A"/>
<path d="M41.7988 22.6L37.2988 22.4V21.1L37.5988 20.3L37.8988 21L38.2988 20.4L38.6988 21L38.9988 20.6L39.2988 21.1L39.5988 20.4L39.8988 21.1L40.1988 20.4L40.4988 21L40.6988 20.4L40.9988 20.9L41.2988 20.4L41.7988 21.2V22.6ZM37.3988 22.2L41.6988 22.4V21L41.2988 20.4L40.9988 20.9L40.6988 20.4L40.4988 21.1L40.0988 20.4L39.6988 21.1L39.3988 20.4L39.0988 21.1L38.9988 20.7L38.7988 21.1L38.3988 20.5L37.9988 21.2L37.5988 20.5L37.3988 21V22.2Z" fill="#EDECDD"/>
<path d="M37.3004 22.4V20.9L36.9004 20.3L36.7004 20.8L36.3004 20.3L36.1004 20.9L35.8004 20.3L35.4004 21L35.1004 20.3L34.8004 21L34.5004 20.4L34.3004 20.8L33.9004 20.3L33.5004 20.9L33.2004 20.3L32.9004 20.9V22.2L37.3004 22.4Z" fill="#843E3A"/>
<path d="M37.4004 22.4001L32.9004 22.2001V20.9001L33.2004 20.1001L33.5004 20.8001L33.9004 20.2001L34.3004 20.8001L34.6004 20.4001L34.9004 20.9001L35.2004 20.2001L35.5004 20.9001L35.8004 20.2001L36.1004 20.8001L36.3004 20.2001L36.6004 20.7001L36.9004 20.2001L37.4004 21.0001V22.4001ZM33.0004 22.1001L37.3004 22.3001V20.9001L36.9004 20.3001L36.6004 20.8001L36.3004 20.3001L36.1004 21.0001L35.7004 20.3001L35.3004 21.0001L35.0004 20.3001L34.7004 21.0001L34.4004 20.5001L34.2004 20.9001L33.8004 20.3001L33.4004 21.0001L33.1004 20.4001L32.9004 20.9001L33.0004 22.1001Z" fill="#EDECDD"/>
<path d="M32.7988 22.5001V21.1001L32.3988 20.4001L32.0988 20.9001L31.7988 20.4001L31.4988 21.1001L31.1988 20.4001L30.7988 21.1001L30.4988 20.4001L30.1988 21.1001L29.9988 20.6001L29.6988 21.0001L29.2988 20.4001L28.8988 21.1001L28.5988 20.4001L28.2988 21.0001L28.3988 22.3001L32.7988 22.5001Z" fill="#843E3A"/>
<path d="M32.7988 22.6L28.2988 22.4V21.1L28.5988 20.3L28.8988 21L29.2988 20.4L29.6988 21L29.9988 20.6L30.2988 21.1L30.5988 20.4L30.8988 21.1L31.1988 20.4L31.4988 21L31.6988 20.4L31.9988 20.9L32.2988 20.4L32.7988 21.2V22.6ZM28.3988 22.2L32.6988 22.4V21L32.2988 20.4L31.9988 20.9L31.6988 20.4L31.4988 21.1L31.0988 20.4L30.6988 21.1L30.3988 20.4L30.0988 21.1L29.9988 20.7L29.7988 21.1L29.3988 20.5L28.9988 21.2L28.5988 20.5L28.3988 21V22.2Z" fill="#EDECDD"/>
<path d="M19 22.4V20.9L18.6 20.3L18.3 20.8L18 20.3L17.7 20.9L17.4 20.3L17 21L16.7 20.3L16.4 21L16.2 20.4L15.9 20.8L15.5 20.3L15.1 20.9L14.8 20.3L14.5 20.9L14.6 22.2L19 22.4Z" fill="#843E3A"/>
<path d="M19 22.4001L14.5 22.2001V20.9001L14.8 20.1001L15.1 20.8001L15.5 20.2001L15.9 20.8001L16.2 20.4001L16.5 20.9001L16.8 20.2001L17.1 20.9001L17.4 20.2001L17.7 20.8001L17.9 20.2001L18.2 20.7001L18.5 20.2001L19 21.0001V22.4001ZM14.6 22.1001L18.9 22.3001V20.9001L18.6 20.4001L18.3 20.9001L18 20.4001L17.8 21.1001L17.4 20.4001L17 21.1001L16.7 20.4001L16.4 21.1001L16.1 20.6001L15.9 21.0001L15.5 20.4001L15.1 21.1001L14.8 20.5001L14.6 20.9001V22.1001Z" fill="#EDECDD"/>
<path d="M23.0992 21.7001L23.1992 20.2001L22.6992 19.6001L22.4992 20.1001L22.1992 19.6001L21.8992 20.2001L21.5992 19.6001L21.1992 20.3001L20.8992 19.6001L20.5992 20.3001L20.2992 19.7001L20.0992 20.1001L19.6992 19.6001L19.2992 20.2001L18.9992 19.6001L18.6992 20.2001V21.5001L23.0992 21.7001Z" fill="#843E3A"/>
<path d="M23.1992 21.7001L18.6992 21.5001V20.2001L18.9992 19.4001L19.2992 20.1001L19.6992 19.5001L20.0992 20.1001L20.3992 19.7001L20.6992 20.2001L20.9992 19.5001L21.2992 20.2001L21.5992 19.5001L21.8992 20.1001L22.0992 19.5001L22.3992 20.0001L22.6992 19.5001L23.1992 20.3001V21.7001ZM18.7992 21.4001L23.0992 21.6001V20.2001L22.6992 19.7001L22.3992 20.2001L22.1992 19.7001L21.9992 20.4001L21.5992 19.7001L21.1992 20.4001L20.8992 19.7001L20.5992 20.4001L20.2992 19.9001L20.0992 20.3001L19.6992 19.7001L19.2992 20.4001L18.9992 19.7001L18.7992 20.2001V21.4001Z" fill="#EDECDD"/>
<path d="M28.5 21.8002V20.3002L28.1 19.7002L27.8 20.2002L27.5 19.7002L27.2 20.3002L26.9 19.7002L26.5 20.4002L26.2 19.7002L25.9 20.4002L25.7 19.8002L25.4 20.2002L25 19.7002L24.6 20.3002L24.3 19.7002L24 20.3002L24.1 21.6002L28.5 21.8002Z" fill="#843E3A"/>
<path d="M28.5 21.8002L24 21.6002V20.3002L24.3 19.5002L24.6 20.2002L25 19.6002L25.4 20.2002L25.7 19.8002L26 20.3002L26.3 19.6002L26.6 20.3002L26.9 19.6002L27.2 20.2002L27.4 19.6002L27.7 20.1002L28 19.6002L28.5 20.4002V21.8002ZM24.1 21.5002L28.4 21.7002V20.3002L28 19.7002L27.7 20.2002L27.4 19.7002L27.2 20.4002L26.8 19.7002L26.4 20.4002L26.1 19.7002L25.8 20.4002L25.5 19.9002L25.3 20.3002L24.9 19.7002L24.6 20.4002L24.3 19.8002L24.1 20.3002V21.5002Z" fill="#EDECDD"/>
<path d="M14.4996 22.3002V20.8002L14.0996 20.2002L13.7996 20.7002L13.4996 20.2002L13.2996 20.8002L12.8996 20.2002L12.5996 20.9002L12.2996 20.2002L11.9996 20.9002L11.6996 20.3002L11.4996 20.7002L11.0996 20.2002L10.6996 20.8002L10.3996 20.2002L10.0996 20.8002V22.3002H14.4996Z" fill="#843E3A"/>
<path d="M14.5996 22.3002H10.0996V20.8002L10.3996 20.0002L10.6996 20.7002L11.0996 20.1002L11.4996 20.7002L11.7996 20.3002L12.0996 20.8002L12.3996 20.1002L12.5996 20.7002L12.8996 20.0002L13.1996 20.6002L13.3996 20.0002L13.6996 20.5002L13.9996 20.0002L14.4996 20.8002L14.5996 22.3002ZM10.1996 22.2002H14.4996V20.8002L14.0996 20.2002L13.7996 20.7002L13.4996 20.2002L13.2996 20.9002L12.8996 20.2002L12.5996 21.0002L12.2996 20.3002L11.9996 21.0002L11.6996 20.5002L11.4996 20.9002L11.0996 20.3002L10.6996 21.0002L10.3996 20.4002L10.1996 20.9002V22.2002Z" fill="#EDECDD"/>
<path d="M9.9 22.3003V21.0003L9.5 20.3003L9.2 20.8003L8.9 20.3003L8.7 21.0003L8.3 20.3003L8 21.0003L7.7 20.3003L7.4 21.0003L7.1 20.5003L6.9 20.9003L6.5 20.3003L6.1 21.0003L5.8 20.3003L5.5 20.9003V22.2003L9.9 22.3003Z" fill="#843E3A"/>
<path d="M10 22.3002H5.5V21.0002L5.8 20.2002L6.1 20.9002L6.5 20.3002L6.9 20.9002L7.2 20.5002L7.5 21.0002L7.8 20.3002L8.1 21.0002L8.4 20.3002L8.7 20.9002L8.9 20.3002L9.2 20.8002L9.5 20.3002L10 21.1002V22.3002ZM5.6 22.2002H9.9V21.0002L9.5 20.4002L9.2 20.9002L8.9 20.4002L8.7 21.1002L8.3 20.4002L7.9 21.1002L7.6 20.4002L7.3 21.1002L7 20.6002L6.8 21.0002L6.4 20.4002L6 21.1002L5.7 20.5002L5.5 21.0002L5.6 22.2002Z" fill="#EDECDD"/>
<path d="M2.19922 20.8003V22.2003L5.49922 22.3003V20.9003L5.09922 20.3003L4.79922 20.8003L4.49922 20.3003L4.19922 20.9003L3.89922 20.3003L3.49922 21.0003L3.19922 20.3003L2.99922 21.0003L2.69922 20.4003L2.39922 20.8003H2.19922Z" fill="#843E3A"/>
<path d="M5.49961 22.3002H2.19961V20.8002H2.39961L2.69961 20.4002L2.99961 20.9002L3.29961 20.2002L3.59961 20.9002L3.89961 20.2002L4.19961 20.8002L4.39961 20.2002L4.69961 20.7002L4.99961 20.2002L5.49961 21.0002V22.3002ZM2.29961 22.2002H5.39961V20.9002L4.99961 20.3002L4.69961 20.8002L4.39961 20.3002L4.19961 21.0002L3.79961 20.3002L3.39961 21.0002L3.09961 20.3002L2.79961 21.0002L2.49961 20.5002L2.29961 20.8002H2.09961L2.29961 22.2002Z" fill="#EDECDD"/>
<path d="M9.69922 20.3001L10.0992 18.6001L10.2992 20.3001V22.4001H9.69922V20.3001Z" fill="#EDECDD"/>
<path d="M5.19922 20.1001L5.59922 18.4001L5.79922 20.1001V22.1001H5.19922V20.1001Z" fill="#EDECDD"/>
<path d="M19.4004 17.9001H20.6004V17.4001L21.4004 17.2001L21.3004 10.9001H25.5004V17.2001H26.0004V21.4001H28.6004V22.8001L18.6004 23.0001L18.4004 21.4001H19.4004V17.9001Z" fill="#BA6860"/>
<path d="M2.19922 19.5001L2.59922 17.4001L2.89922 19.5001V22.0001H2.19922V19.5001Z" fill="#EDECDD"/>
<path d="M14 19.7002L14.3 17.7002L14.5 19.7002V22.2002H14V19.7002Z" fill="#EDECDD"/>
<path d="M18.5 18.7002L18.8 16.7002L19 18.7002V21.2002H18.5V18.7002Z" fill="#EDECDD"/>
<path d="M28.2988 18.8002L28.6988 16.7002L28.7988 18.8002V21.4002H28.2988V18.8002Z" fill="#EDECDD"/>
<path d="M32.6992 19.6L32.9992 17.5L33.0992 19.6V22.2H32.6992V19.6Z" fill="#EDECDD"/>
<path d="M37 20.1L37.3 18.5L37.5 20.1V22.2H37V20.1Z" fill="#EDECDD"/>
<path d="M41.5 20.1L41.8 18.5L41.9 20.1V22.2H41.5V20.1Z" fill="#EDECDD"/>
<path d="M45.5996 19.2L45.9996 17L46.1996 19.2V22H45.5996V19.2Z" fill="#EDECDD"/>
<path d="M21.1992 8.80005L20.6992 11.7V18C20.6992 18 20.8992 18.1 21.0992 18.1C21.2992 18.1 21.4992 18.1 21.4992 18.1V11.8L21.1992 8.80005Z" fill="#EDECDD"/>
<path d="M25.9004 8.6001L25.4004 11.1001V17.2001C25.4004 17.2001 25.8004 17.5001 25.9004 17.5001C26.0004 17.6001 26.3004 17.5001 26.3004 17.5001V11.1001L25.9004 8.6001Z" fill="#EDECDD"/>
<path d="M22.7996 4.6001L22.9996 5.9001H23.8996L24.0996 4.6001V5.9001L25.5996 10.9001L21.0996 11.1001L22.6996 6.0001L22.7996 4.6001Z" fill="#EDECDD"/>
<path d="M22.0992 11.3001L21.1992 13.1001V13.7001H21.9992L21.8992 15.4001H24.9992V13.6001H25.6992V12.2001L24.6992 10.9001H22.1992L22.0992 11.3001Z" fill="#EDECDD"/>
<path d="M23.4004 17.4001C23.4004 17.4001 22.8004 17.9001 22.7004 18.2001C22.6004 18.5001 22.4004 19.0001 22.4004 19.0001C22.4004 19.0001 23.1004 19.2001 23.5004 19.2001C23.9004 19.2001 24.3004 19.0001 24.3004 19.0001C24.3004 19.0001 24.2004 18.5001 24.0004 18.2001C23.9004 17.8001 23.4004 17.4001 23.4004 17.4001Z" fill="#EDECDD"/>
<path d="M21.7988 15.5H25.1988L24.9988 15.6V16.5H25.1988L25.0988 16.6V17.2H21.8988V16.6L21.7988 16.5L21.8988 16.4L21.7988 15.5Z" fill="#EDECDD"/>
<path d="M19.8 25.7002H25.5L25.3 26.1002V26.3002H27V27.6002H18V26.1002H19.8V25.7002Z" fill="#BA6860"/>
<path d="M23.3989 13.7002C23.6989 13.7002 24.0989 13.8002 23.9989 14.2002C23.8989 14.5002 23.7989 14.8002 23.3989 14.7002C23.0989 14.6002 22.6989 14.4002 22.7989 14.2002C22.9989 14.0002 23.3989 13.7002 23.3989 13.7002Z" fill="#BA6860"/>
<path d="M19.7 25.7002L18.5 26.1002L27.1 26.4002L27.6 26.1002L27 26.0002L26.5 26.3002L19.2 26.1002L19.8 25.9002L19.7 25.7002Z" fill="#514241"/>
<path d="M23.3987 23.5C23.8987 23.5 24.4987 23.8 24.5987 24.4C24.6987 25 24.5987 25.6 24.5987 25.6H22.1987C22.1987 25.6 22.0987 24.9 22.1987 24.6C22.2987 24.3 22.3987 23.9 22.7987 23.7C22.9987 23.6 23.3987 23.5 23.3987 23.5Z" fill="#514241"/>
<path d="M28.7988 24.8001V27.0001H30.5988L30.4988 25.0001C30.4988 25.0001 30.2988 24.4001 29.6988 24.4001C29.1988 24.4001 28.7988 24.8001 28.7988 24.8001Z" fill="#514241"/>
<path d="M31.599 24.5002C31.999 24.5002 32.699 24.8002 32.699 24.9002C32.799 25.1002 32.699 27.0002 32.699 27.0002H30.999C30.999 27.0002 30.799 25.1002 30.999 24.9002C31.099 24.7002 31.599 24.5002 31.599 24.5002Z" fill="#514241"/>
<path d="M33.1992 24.8001V27.0001H34.8992L34.7992 25.0001C34.7992 25.0001 34.5992 24.4001 33.9992 24.4001C33.4992 24.4001 33.1992 24.8001 33.1992 24.8001Z" fill="#514241"/>
<path d="M35.8979 24.4001C36.2979 24.4001 36.9979 24.7001 36.9979 24.8001C37.0979 25.0001 36.9979 26.9001 36.9979 26.9001H35.2979C35.2979 26.9001 35.0979 25.0001 35.2979 24.8001C35.4979 24.6001 35.8979 24.4001 35.8979 24.4001Z" fill="#514241"/>
<path d="M37.5996 24.8001V27.0001H39.2996L39.1996 25.0001C39.1996 25.0001 38.9996 24.4001 38.3996 24.4001C37.8996 24.4001 37.5996 24.8001 37.5996 24.8001Z" fill="#514241"/>
<path d="M40.2983 24.4001C40.6983 24.4001 41.3983 24.7001 41.3983 24.8001C41.4983 25.0001 41.3983 26.9001 41.3983 26.9001H39.6983C39.6983 26.9001 39.4983 25.0001 39.6983 24.8001C39.8983 24.6001 40.2983 24.4001 40.2983 24.4001Z" fill="#514241"/>
<path d="M42.0996 24.8001V27.0001H43.7996L43.6996 25.0001C43.6996 25.0001 43.4996 24.4001 42.8996 24.4001C42.4996 24.4001 42.0996 24.8001 42.0996 24.8001Z" fill="#514241"/>
<path d="M44.8979 24.4001C45.2979 24.4001 45.9979 24.7001 45.9979 24.8001C46.0979 25.0001 45.9979 26.9001 45.9979 26.9001H44.2979C44.2979 26.9001 44.0979 25.0001 44.2979 24.8001C44.4979 24.6001 44.8979 24.4001 44.8979 24.4001Z" fill="#514241"/>
<path d="M24.9988 26.1001H20.2988V27.2001H24.9988V26.1001Z" fill="#EDECDD"/>
<path d="M2.90039 24.5001V26.7001H4.60039L4.50039 24.7001C4.50039 24.7001 4.30039 24.1001 3.70039 24.1001C3.20039 24.1001 2.90039 24.5001 2.90039 24.5001Z" fill="#514241"/>
<path d="M5.601 24.1001C6.001 24.1001 6.701 24.4001 6.701 24.5001C6.801 24.7001 6.701 26.6001 6.701 26.6001H5.001C5.001 26.6001 4.801 24.7001 5.001 24.5001C5.201 24.3001 5.601 24.1001 5.601 24.1001Z" fill="#514241"/>
<path d="M7.20117 24.5001V26.7001H8.90117L8.80117 24.7001C8.80117 24.7001 8.60117 24.1001 8.00117 24.1001C7.50117 24.0001 7.20117 24.5001 7.20117 24.5001Z" fill="#514241"/>
<path d="M9.89982 24.1001C10.2998 24.1001 10.9998 24.4001 10.9998 24.5001C11.0998 24.7001 10.9998 26.6001 10.9998 26.6001H9.29983C9.29983 26.6001 9.09983 24.7001 9.29983 24.5001C9.49983 24.3001 9.89982 24.1001 9.89982 24.1001Z" fill="#514241"/>
<path d="M11.5996 24.5001V26.7001H13.2996L13.1996 24.7001C13.1996 24.7001 12.9996 24.1001 12.3996 24.1001C11.7996 24.1001 11.5996 24.5001 11.5996 24.5001Z" fill="#514241"/>
<path d="M14.3002 24.1001C14.7002 24.1001 15.4002 24.4001 15.4002 24.5001C15.5002 24.7001 15.4002 26.6001 15.4002 26.6001H13.7002C13.7002 26.6001 13.5002 24.7001 13.7002 24.5001C13.9002 24.3001 14.3002 24.1001 14.3002 24.1001Z" fill="#514241"/>
<path d="M16.2012 24.5001V26.7001H17.9012L17.8012 24.7001C17.8012 24.7001 17.6012 24.1001 17.0012 24.1001C16.5012 24.0001 16.2012 24.5001 16.2012 24.5001Z" fill="#514241"/>
<path d="M30.3982 29.6001C31.2982 29.6001 32.0982 30.3001 32.1982 30.7001C32.2982 31.1001 32.2982 32.9001 32.2982 32.9001H29.0982C29.0982 32.9001 28.7982 31.4001 29.0982 30.8001C29.3982 30.4001 30.3982 29.6001 30.3982 29.6001Z" fill="#514241"/>
<path d="M32.4986 33.1H28.9986V33C28.9986 32.9 28.6986 31.4 28.9986 30.8C29.2986 30.2 30.2986 29.5 30.2986 29.5C31.2986 29.5 32.1986 30.2 32.2986 30.8C32.3986 31.2 32.3986 33 32.3986 33.1H32.4986ZM29.1986 32.9H32.0986C32.0986 32.3 32.0986 31.2 31.9986 30.9C31.8986 30.6 31.1986 29.9 30.3986 29.9C30.1986 30 29.3986 30.6 29.1986 31.1C29.0986 31.4 29.1986 32.4 29.1986 32.9Z" fill="#EDECDD"/>
<path d="M15.8982 29.4001C16.7982 29.4001 17.5982 30.1001 17.6982 30.5001C17.7982 30.9001 17.7982 32.7001 17.7982 32.7001H14.5982C14.5982 32.7001 14.2982 31.2001 14.5982 30.6001C14.8982 30.2001 15.8982 29.4001 15.8982 29.4001Z" fill="#514241"/>
<path d="M17.9986 32.9001H14.4986V32.8C14.4986 32.7 14.1986 31.2001 14.4986 30.6001C14.7986 30.0001 15.7986 29.3 15.7986 29.3C16.7986 29.3 17.6986 30.0001 17.7986 30.6001C17.8986 31.0001 17.8986 32.8001 17.8986 32.9001H17.9986ZM14.6986 32.6001H17.5986C17.5986 32.0001 17.5986 30.9001 17.4986 30.6001C17.3986 30.3001 16.6986 29.6001 15.8986 29.6001C15.6986 29.7001 14.8986 30.3 14.6986 30.8C14.5986 31.2 14.6986 32.2001 14.6986 32.6001Z" fill="#EDECDD"/>
<path d="M11.699 29.1001C12.599 29.1001 13.399 29.8001 13.499 30.2001C13.599 30.6001 13.599 32.4001 13.599 32.4001H10.399C10.399 32.4001 10.099 30.9001 10.399 30.3001C10.699 29.8001 11.699 29.1001 11.699 29.1001Z" fill="#514241"/>
<path d="M13.7993 32.6H10.2993V32.5C10.2993 32.4 9.99935 30.9 10.2993 30.3C10.5993 29.7 11.5993 29 11.5993 29C12.5993 29 13.4993 29.7 13.5993 30.3C13.6993 30.7 13.6993 32.5 13.6993 32.6H13.7993ZM10.5993 32.3H13.4993C13.4993 31.7 13.4993 30.6 13.3993 30.3C13.2993 30 12.5993 29.3 11.7993 29.3C11.5993 29.4 10.7993 30 10.5993 30.5C10.3993 30.8 10.4993 31.8 10.5993 32.3Z" fill="#EDECDD"/>
<path d="M7.79857 29.1001C8.69857 29.1001 9.49857 29.8001 9.59857 30.2001C9.69857 30.6001 9.69857 32.4001 9.69857 32.4001H6.49857C6.49857 32.4001 6.19857 30.9001 6.49857 30.3001C6.79857 29.8001 7.79857 29.1001 7.79857 29.1001Z" fill="#514241"/>
<path d="M9.89896 32.6H6.39896V32.5C6.39896 32.4 6.09896 30.9 6.39896 30.3C6.69896 29.7 7.69896 29 7.69896 29C8.69896 29 9.59896 29.7 9.69896 30.3C9.79896 30.7 9.79896 32.5 9.79896 32.6H9.89896ZM6.69896 32.3H9.59896C9.59896 31.7 9.59896 30.6 9.49896 30.3C9.39896 30 8.69896 29.3 7.89896 29.3C7.69896 29.4 6.89896 30 6.69896 30.5C6.49896 30.8 6.59896 31.8 6.69896 32.3Z" fill="#EDECDD"/>
<path d="M3.79857 28.7002C4.69857 28.7002 5.49857 29.4002 5.59857 29.8002C5.69857 30.2002 5.69857 32.0002 5.69857 32.0002H2.49857C2.49857 32.0002 2.19857 30.5002 2.49857 29.9002C2.69857 29.4002 3.79857 28.7002 3.79857 28.7002Z" fill="#514241"/>
<path d="M5.79935 32.2001H2.29935V32.1001C2.29935 32.0001 1.99935 30.5001 2.29935 29.9001C2.59935 29.3001 3.59935 28.6001 3.59935 28.6001C4.59935 28.6001 5.49935 29.3001 5.59935 29.9001C5.69935 30.3001 5.69935 32.1001 5.69935 32.2001H5.79935ZM2.59935 31.9001H5.49935C5.49935 31.3001 5.49935 30.2001 5.39935 29.9001C5.29935 29.6001 4.59935 28.9001 3.79935 28.9001C3.59935 29.0001 2.79935 29.6001 2.59935 30.1001C2.39935 30.4001 2.49935 31.4001 2.59935 31.9001Z" fill="#EDECDD"/>
<path d="M33.498 31.2V33.2H36.798V31C36.798 31 36.498 29.8 35.198 29.9C33.998 30 33.498 31.2 33.498 31.2Z" fill="#514241"/>
<path d="M36.8988 33.3001H33.2988V31.2001C33.2988 31.1001 33.7988 29.9001 35.0988 29.8001C36.4988 29.6001 36.7988 31.0001 36.7988 31.0001V33.3001H36.8988ZM33.5988 33.0001H36.5988V31.0001C36.5988 30.9001 36.1988 29.9001 35.1988 30.0001C34.0988 30.1001 33.6988 31.1001 33.5988 31.2001V33.0001Z" fill="#EDECDD"/>
<path d="M39.2986 29.7002C40.1986 29.7002 40.9986 30.4002 41.0986 30.8002C41.1986 31.2002 41.1986 33.0002 41.1986 33.0002H37.9986C37.9986 33.0002 37.6986 31.5002 37.9986 30.9002C38.2986 30.5002 39.2986 29.7002 39.2986 29.7002Z" fill="#514241"/>
<path d="M41.399 33.2001H37.899V33.1001C37.899 33.0001 37.599 31.5001 37.899 30.9001C38.199 30.3001 39.199 29.6001 39.199 29.6001C40.199 29.6001 41.099 30.3001 41.199 30.9001C41.299 31.3001 41.299 33.1001 41.299 33.2001H41.399ZM38.099 33.0001H40.999C40.999 32.4001 40.999 31.3001 40.899 31.0001C40.799 30.7001 40.099 30.0001 39.299 30.0001C39.099 30.1001 38.299 30.7001 38.099 31.2001C37.999 31.5001 38.099 32.5001 38.099 33.0001Z" fill="#EDECDD"/>
<path d="M42.3984 31.3001V33.3001H45.6984V31.1001C45.6984 31.1001 45.3984 29.9001 44.0984 30.0001C42.8984 30.1001 42.3984 31.3001 42.3984 31.3001Z" fill="#514241"/>
<path d="M45.7992 33.4002H42.1992V31.3002C42.1992 31.2002 42.6992 30.0002 43.9992 29.9002C45.3992 29.7002 45.6992 31.1002 45.6992 31.1002V33.4002H45.7992ZM42.5992 33.1002H45.5992V31.1002C45.5992 31.0002 45.1992 30.0002 44.1992 30.1002C43.0992 30.2002 42.6992 31.2002 42.5992 31.3002V33.1002Z" fill="#EDECDD"/>
<path d="M29.8988 23.4001C29.8988 23.5001 29.7988 23.7001 29.5988 23.7001C29.3988 23.7001 29.2988 23.5001 29.2988 23.4001C29.2988 23.3001 29.4988 23.1001 29.5988 23.1001C29.6988 23.1001 29.8988 23.2001 29.8988 23.4001Z" fill="#514241"/>
<path d="M29.5988 23.8001C29.3988 23.8001 29.2988 23.6001 29.2988 23.4001C29.2988 23.2001 29.4988 23.1001 29.6988 23.1001C29.8988 23.1001 29.9988 23.2001 29.9988 23.4001C29.9988 23.6001 29.7988 23.8001 29.5988 23.8001ZM29.5988 23.2001C29.4988 23.2001 29.2988 23.3001 29.2988 23.4001C29.2988 23.5001 29.3988 23.7001 29.4988 23.7001C29.5988 23.7001 29.6988 23.5001 29.6988 23.4001C29.7988 23.3001 29.7988 23.2001 29.5988 23.2001Z" fill="#EDECDD"/>
<path d="M32.098 23.4001C32.098 23.5001 31.998 23.7001 31.798 23.7001C31.598 23.7001 31.498 23.5001 31.498 23.4001C31.498 23.3001 31.698 23.1001 31.798 23.1001C31.898 23.1001 32.098 23.2001 32.098 23.4001Z" fill="#514241"/>
<path d="M31.798 23.8001C31.598 23.8001 31.498 23.6001 31.498 23.4001C31.498 23.2001 31.698 23.1001 31.898 23.1001C32.098 23.1001 32.198 23.2001 32.198 23.4001C32.198 23.6001 31.998 23.8001 31.798 23.8001ZM31.898 23.2001C31.798 23.2001 31.598 23.3001 31.598 23.4001C31.598 23.5001 31.698 23.7001 31.798 23.7001C31.898 23.7001 31.998 23.5001 31.998 23.4001C32.098 23.3001 31.998 23.2001 31.898 23.2001Z" fill="#EDECDD"/>
<path d="M34.3988 23.4001C34.3988 23.5001 34.2988 23.7001 34.0988 23.7001C33.9988 23.7001 33.7988 23.5001 33.7988 23.4001C33.7988 23.3001 33.9988 23.1001 34.0988 23.1001C34.2988 23.1001 34.3988 23.2001 34.3988 23.4001Z" fill="#514241"/>
<path d="M34.0988 23.8001C33.8988 23.8001 33.7988 23.6001 33.7988 23.4001C33.7988 23.2001 33.9988 23.1001 34.1988 23.1001C34.3988 23.1001 34.4988 23.2001 34.4988 23.4001C34.4988 23.6001 34.2988 23.8001 34.0988 23.8001ZM34.0988 23.2001C33.9988 23.2001 33.7988 23.3001 33.7988 23.4001C33.7988 23.5001 33.8988 23.7001 33.9988 23.7001C34.0988 23.7001 34.1988 23.5001 34.1988 23.4001C34.2988 23.3001 34.1988 23.2001 34.0988 23.2001Z" fill="#EDECDD"/>
<path d="M36.598 23.4001C36.598 23.5001 36.498 23.7001 36.298 23.7001C36.198 23.7001 35.998 23.5001 35.998 23.4001C35.998 23.3001 36.198 23.1001 36.298 23.1001C36.498 23.1001 36.598 23.2001 36.598 23.4001Z" fill="#514241"/>
<path d="M36.298 23.8001C36.098 23.8001 35.998 23.6001 35.998 23.4001C35.998 23.2001 36.198 23.1001 36.398 23.1001C36.598 23.1001 36.698 23.2001 36.698 23.4001C36.598 23.6001 36.498 23.8001 36.298 23.8001ZM36.298 23.2001C36.198 23.2001 35.998 23.3001 35.998 23.4001C35.998 23.5001 36.098 23.7001 36.198 23.7001C36.298 23.7001 36.398 23.5001 36.398 23.4001C36.498 23.3001 36.398 23.2001 36.298 23.2001Z" fill="#EDECDD"/>
<path d="M38.7992 23.4001C38.7992 23.5001 38.6992 23.7001 38.4992 23.7001C38.3992 23.7001 38.1992 23.5001 38.1992 23.4001C38.1992 23.3001 38.3992 23.1001 38.4992 23.1001C38.5992 23.1001 38.7992 23.2001 38.7992 23.4001Z" fill="#514241"/>
<path d="M38.4992 23.8001C38.2992 23.8001 38.1992 23.6001 38.1992 23.4001C38.1992 23.2001 38.3992 23.1001 38.5992 23.1001C38.7992 23.1001 38.8992 23.2001 38.8992 23.4001C38.8992 23.6001 38.6992 23.8001 38.4992 23.8001ZM38.5992 23.2001C38.4992 23.2001 38.2992 23.3001 38.2992 23.4001C38.2992 23.5001 38.3992 23.7001 38.4992 23.7001C38.5992 23.7001 38.6992 23.5001 38.6992 23.4001C38.7992 23.3001 38.6992 23.2001 38.5992 23.2001Z" fill="#EDECDD"/>
<path d="M40.9984 23.4001C40.9984 23.5001 40.8984 23.7001 40.6984 23.7001C40.5984 23.7001 40.3984 23.5001 40.3984 23.4001C40.3984 23.3001 40.5984 23.1001 40.6984 23.1001C40.7984 23.1001 40.9984 23.2001 40.9984 23.4001Z" fill="#514241"/>
<path d="M40.6984 23.8001C40.4984 23.8001 40.3984 23.6001 40.3984 23.4001C40.3984 23.2001 40.5984 23.1001 40.7984 23.1001C40.9984 23.1001 41.0984 23.2001 41.0984 23.4001C41.0984 23.6001 40.8984 23.8001 40.6984 23.8001ZM40.7984 23.2001C40.6984 23.2001 40.4984 23.3001 40.4984 23.4001C40.4984 23.5001 40.5984 23.7001 40.6984 23.7001C40.7984 23.7001 40.8984 23.5001 40.8984 23.4001C40.9984 23.3001 40.8984 23.2001 40.7984 23.2001Z" fill="#EDECDD"/>
<path d="M43.2992 23.4001C43.2992 23.5001 43.1992 23.7001 42.9992 23.7001C42.7992 23.7001 42.6992 23.5001 42.6992 23.4001C42.6992 23.3001 42.8992 23.1001 42.9992 23.1001C43.0992 23.1001 43.2992 23.2001 43.2992 23.4001Z" fill="#514241"/>
<path d="M42.9992 23.8001C42.7992 23.8001 42.6992 23.6001 42.6992 23.4001C42.6992 23.2001 42.8992 23.1001 43.0992 23.1001C43.2992 23.1001 43.3992 23.2001 43.3992 23.4001C43.2992 23.6001 43.1992 23.8001 42.9992 23.8001ZM42.9992 23.2001C42.8992 23.2001 42.6992 23.3001 42.6992 23.4001C42.6992 23.5001 42.7992 23.7001 42.8992 23.7001C42.9992 23.7001 43.0992 23.5001 43.0992 23.4001C43.1992 23.3001 43.0992 23.2001 42.9992 23.2001Z" fill="#EDECDD"/>
<path d="M45.4984 23.4001C45.4984 23.5001 45.3984 23.7001 45.1984 23.7001C44.9984 23.7001 44.8984 23.5001 44.8984 23.4001C44.8984 23.3001 45.0984 23.1001 45.1984 23.1001C45.2984 23.1001 45.4984 23.2001 45.4984 23.4001Z" fill="#514241"/>
<path d="M45.1984 23.8001C44.9984 23.8001 44.8984 23.6001 44.8984 23.4001C44.8984 23.2001 45.0984 23.1001 45.2984 23.1001C45.4984 23.1001 45.5984 23.2001 45.5984 23.4001C45.5984 23.6001 45.3984 23.8001 45.1984 23.8001ZM45.1984 23.2001C45.0984 23.2001 44.8984 23.3001 44.8984 23.4001C44.8984 23.5001 44.9984 23.7001 45.0984 23.7001C45.1984 23.7001 45.2984 23.5001 45.2984 23.4001C45.3984 23.3001 45.2984 23.2001 45.1984 23.2001Z" fill="#EDECDD"/>
<path d="M3.1 23.4001C3.1 23.5001 3 23.7001 2.8 23.7001C2.7 23.7001 2.5 23.5001 2.5 23.4001C2.5 23.3001 2.7 23.1001 2.8 23.1001C3 23.1001 3.1 23.2001 3.1 23.4001Z" fill="#514241"/>
<path d="M2.8 23.8001C2.6 23.8001 2.5 23.6001 2.5 23.4001C2.5 23.2001 2.7 23.1001 2.9 23.1001C3.1 23.1001 3.2 23.2001 3.2 23.4001C3.2 23.6001 3 23.8001 2.8 23.8001ZM2.9 23.2001C2.8 23.2001 2.6 23.3001 2.6 23.4001C2.6 23.5001 2.7 23.7001 2.8 23.7001C2.9 23.7001 3 23.5001 3 23.4001C3.1 23.3001 3 23.2001 2.9 23.2001Z" fill="#EDECDD"/>
<path d="M5.40078 23.4001C5.40078 23.5001 5.30078 23.7001 5.10078 23.7001C5.00078 23.7001 4.80078 23.5001 4.80078 23.4001C4.80078 23.3001 5.00078 23.1001 5.10078 23.1001C5.20078 23.1001 5.40078 23.2001 5.40078 23.4001Z" fill="#514241"/>
<path d="M5.10078 23.8001C4.90078 23.8001 4.80078 23.6001 4.80078 23.4001C4.80078 23.2001 5.00078 23.1001 5.20078 23.1001C5.40078 23.1001 5.50078 23.2001 5.50078 23.4001C5.40078 23.6001 5.20078 23.8001 5.10078 23.8001ZM5.10078 23.2001C5.00078 23.2001 4.80078 23.3001 4.80078 23.4001C4.80078 23.5001 4.90078 23.7001 5.00078 23.7001C5.10078 23.7001 5.20078 23.5001 5.20078 23.4001C5.30078 23.3001 5.20078 23.2001 5.10078 23.2001Z" fill="#EDECDD"/>
<path d="M7.6 23.4001C7.6 23.5001 7.5 23.7001 7.3 23.7001C7.2 23.7001 7 23.5001 7 23.4001C7 23.3001 7.2 23.1001 7.3 23.1001C7.4 23.1001 7.6 23.2001 7.6 23.4001Z" fill="#514241"/>
<path d="M7.3 23.8001C7.1 23.8001 7 23.6001 7 23.4001C7 23.2001 7.2 23.1001 7.4 23.1001C7.6 23.1001 7.7 23.2001 7.7 23.4001C7.7 23.6001 7.5 23.8001 7.3 23.8001ZM7.4 23.2001C7.3 23.2001 7.1 23.3001 7.1 23.4001C7.1 23.5001 7.2 23.7001 7.3 23.7001C7.4 23.7001 7.5 23.5001 7.5 23.4001C7.6 23.3001 7.5 23.2001 7.4 23.2001Z" fill="#EDECDD"/>
<path d="M9.79922 23.4001C9.79922 23.5001 9.69922 23.7001 9.49922 23.7001C9.39922 23.7001 9.19922 23.5001 9.19922 23.4001C9.19922 23.3001 9.39922 23.1001 9.49922 23.1001C9.69922 23.1001 9.79922 23.2001 9.79922 23.4001Z" fill="#514241"/>
<path d="M9.49922 23.8001C9.29922 23.8001 9.19922 23.6001 9.19922 23.4001C9.19922 23.2001 9.39922 23.1001 9.59922 23.1001C9.79922 23.1001 9.89922 23.2001 9.89922 23.4001C9.89922 23.6001 9.69922 23.8001 9.49922 23.8001ZM9.49922 23.2001C9.39922 23.2001 9.19922 23.3001 9.19922 23.4001C9.19922 23.5001 9.29922 23.7001 9.39922 23.7001C9.49922 23.7001 9.59922 23.5001 9.59922 23.4001C9.69922 23.3001 9.59922 23.2001 9.49922 23.2001Z" fill="#EDECDD"/>
<path d="M12.1 23.4001C12.1 23.5001 12 23.7001 11.8 23.7001C11.6 23.7001 11.5 23.5001 11.5 23.4001C11.5 23.3001 11.7 23.1001 11.8 23.1001C11.9 23.1001 12.1 23.2001 12.1 23.4001Z" fill="#514241"/>
<path d="M11.8 23.8001C11.6 23.8001 11.5 23.6001 11.5 23.4001C11.5 23.2001 11.7 23.1001 11.9 23.1001C12.1 23.1001 12.2 23.2001 12.2 23.4001C12.1 23.6001 11.9 23.8001 11.8 23.8001ZM11.8 23.2001C11.7 23.2001 11.5 23.3001 11.5 23.4001C11.5 23.5001 11.6 23.7001 11.7 23.7001C11.8 23.7001 11.9 23.5001 11.9 23.4001C12 23.3001 11.9 23.2001 11.8 23.2001Z" fill="#EDECDD"/>
<path d="M14.2992 23.4001C14.2992 23.5001 14.1992 23.7001 13.9992 23.7001C13.7992 23.7001 13.6992 23.5001 13.6992 23.4001C13.6992 23.3001 13.8992 23.1001 13.9992 23.1001C14.0992 23.1001 14.2992 23.2001 14.2992 23.4001Z" fill="#514241"/>
<path d="M13.9992 23.8001C13.7992 23.8001 13.6992 23.6001 13.6992 23.4001C13.6992 23.2001 13.8992 23.1001 14.0992 23.1001C14.2992 23.1001 14.3992 23.2001 14.3992 23.4001C14.2992 23.6001 14.1992 23.8001 13.9992 23.8001ZM13.9992 23.2001C13.8992 23.2001 13.6992 23.3001 13.6992 23.4001C13.6992 23.5001 13.7992 23.7001 13.8992 23.7001C13.9992 23.7001 14.0992 23.5001 14.0992 23.4001C14.1992 23.3001 14.0992 23.2001 13.9992 23.2001Z" fill="#EDECDD"/>
<path d="M16.5004 23.4001C16.5004 23.5001 16.4004 23.7001 16.2004 23.7001C16.1004 23.7001 15.9004 23.5001 15.9004 23.4001C15.9004 23.3001 16.1004 23.1001 16.2004 23.1001C16.4004 23.1001 16.5004 23.2001 16.5004 23.4001Z" fill="#514241"/>
<path d="M16.2004 23.8001C16.0004 23.8001 15.9004 23.6001 15.9004 23.4001C15.9004 23.2001 16.1004 23.1001 16.3004 23.1001C16.5004 23.1001 16.6004 23.2001 16.6004 23.4001C16.6004 23.6001 16.4004 23.8001 16.2004 23.8001ZM16.2004 23.2001C16.1004 23.2001 15.9004 23.3001 15.9004 23.4001C15.9004 23.5001 16.0004 23.7001 16.1004 23.7001C16.2004 23.7001 16.3004 23.5001 16.3004 23.4001C16.4004 23.3001 16.4004 23.2001 16.2004 23.2001Z" fill="#EDECDD"/>
</g>
</svg>
