<svg width="44" height="44" viewBox="0 0 44 44" fill="none" xmlns="http://www.w3.org/2000/svg">
<path d="M43.4474 21.7258C43.4474 33.5999 33.8216 43.2258 21.9474 43.2258C10.0733 43.2258 -2.55156 37.2258 0.447436 21.7258C3.05944 8.22583 10.0733 0.225768 21.9474 0.225768C39.9474 -1.77424 43.4474 9.85164 43.4474 21.7258Z" fill="#D08C87"/>
<mask id="mask0_1710_198" style="mask-type:alpha" maskUnits="userSpaceOnUse" x="0" y="0" width="44" height="44">
<path d="M43.4474 21.7258C43.4474 33.5999 33.8216 43.2258 21.9474 43.2258C10.0733 43.2258 -2.55156 37.2258 0.447436 21.7258C3.05944 8.22583 10.0733 0.225768 21.9474 0.225768C39.9474 -1.77424 43.4474 9.85164 43.4474 21.7258Z" fill="#D08C87"/>
</mask>
<g mask="url(#mask0_1710_198)">
<path d="M-4.01562 16.2161L47.4401 15.0774L47.8677 25.626L-0.234841 25.7931L-4.01562 25.8067V16.2161Z" fill="#9C9080"/>
<path d="M1.69692 18.7493C1.69692 18.7493 2.34903 18.78 2.488 18.814C2.87998 18.9095 3.13298 18.9845 3.13298 18.9845V19.6084H1.69336L1.69692 18.7493Z" fill="#F1EFE2"/>
<path d="M7.4834 18.8174V20.4437H8.59162V18.8174C8.59162 18.8174 8.30655 18.5481 8.03573 18.6094C7.76847 18.6708 7.4834 18.8174 7.4834 18.8174Z" fill="#F1EFE2"/>
<path d="M10.9043 18.8175V20.4438H12.3938V18.8175C12.3938 18.8175 11.9804 18.3982 11.6491 18.4289C11.3177 18.4561 10.9043 18.8175 10.9043 18.8175Z" fill="#F1EFE2"/>
<path d="M15.5186 19.2949C15.5186 19.2949 16.2669 18.4834 16.8049 18.4255C17.343 18.3675 18.2517 19.0323 18.2517 19.0323V19.2949H15.5186Z" fill="#F1EFE2"/>
<path d="M19.3604 19.0732L19.4031 19.2948L22.1149 19.1823C22.1149 19.1823 21.5127 18.272 20.8356 18.3231C20.1586 18.3743 19.3604 19.0732 19.3604 19.0732Z" fill="#F1EFE2"/>
<path d="M22.9199 19.1857C22.9199 19.1857 23.5756 18.2652 24.2491 18.255C24.9261 18.2447 25.8633 19.1857 25.8633 19.1857H22.9199Z" fill="#F1EFE2"/>
<path d="M26.6582 19.1038C26.6582 19.1038 27.1214 18.2753 27.9874 18.2037C28.8533 18.1321 29.5588 19.1038 29.5588 19.1038H26.6582Z" fill="#F1EFE2"/>
<path d="M30.5312 19.1039C30.5312 19.1039 31.0693 18.1629 31.8925 18.1458C32.7156 18.1254 33.4461 19.0357 33.4461 19.0357L30.5312 19.1039Z" fill="#F1EFE2"/>
<path d="M34.4082 19.0117V18.8617C34.4082 18.8617 35.0959 18.0026 35.6661 18.0537C36.2362 18.1049 37.0166 18.7117 37.0166 18.7117V19.0152L34.4082 19.0117Z" fill="#F1EFE2"/>
<path d="M38.4285 18.9437L38.3857 18.6267C38.3857 18.6267 38.8597 17.9243 39.5474 18.0061C40.2352 18.088 40.6022 18.5346 40.6022 18.5346V18.9437H38.4285Z" fill="#F1EFE2"/>
<path d="M42.4082 18.3777V18.8823H43.4309V17.9413C43.4309 17.9413 43.071 17.9072 42.8501 18.0504C42.6327 18.1936 42.4082 18.3777 42.4082 18.3777Z" fill="#F1EFE2"/>
<path d="M-2.62207 19.7074L3.04732 19.6085L3.41079 19.6562V18.3879L3.70299 18.7664L3.63885 25.7795L3.42148 25.8068C3.42148 25.8068 3.45355 22.0803 3.34309 21.5178C3.23262 20.9552 3.09721 20.3517 3.09721 20.3517L-2.50091 20.4881L-2.62207 19.7074Z" fill="#EDE4D6"/>
<path d="M2.87988 20.4439C2.94402 20.8018 3.10081 22.6804 3.13288 23.2668C3.16496 23.8532 3.13288 25.783 3.13288 25.783L3.42152 25.8068C3.42152 25.8068 3.42865 21.9815 3.35382 21.5894C3.27898 21.1973 3.09725 20.3518 3.09725 20.3518L2.87988 20.3586V20.4439Z" fill="#9C9080"/>
<path d="M3.15039 18.3469V19.6084L3.41408 19.6595V18.3878L3.15039 18.3469Z" fill="#9C9080"/>
<path d="M0.649331 22.9326H0.364258V23.4372H0.649331V22.9326Z" fill="#EDE4D6"/>
<path d="M1.69629 23.4986V24.0441L2.24862 24.0509V23.4373L1.69629 23.4986Z" fill="#EDE4D6"/>
<path d="M0.0820312 23.9758L0.117665 25.5032H0.880236V23.9997L0.0820312 23.9758Z" fill="#EDE4D6"/>
<path d="M1.47849 22.8304H1.40723V22.2337L3.05352 22.1724L3.05709 22.2406L1.47849 22.2985V22.8304Z" fill="#EDE4D6"/>
<path d="M3.10376 22.7986L-2.27344 22.8489L-2.27274 22.9171L3.10445 22.8668L3.10376 22.7986Z" fill="#EDE4D6"/>
<path d="M3.1355 23.4035L-2.23047 23.4636L-2.22963 23.5318L3.13633 23.4716L3.1355 23.4035Z" fill="#EDE4D6"/>
<path d="M3.14673 24.0125L-2.23047 24.0627L-2.22977 24.1309L3.14742 24.0807L3.14673 24.0125Z" fill="#EDE4D6"/>
<path d="M3.13471 24.6083L0.979492 24.6597L0.981266 24.7278L3.13649 24.6765L3.13471 24.6083Z" fill="#EDE4D6"/>
<path d="M3.13634 25.2305H0.980469V25.2987H3.13634V25.2305Z" fill="#EDE4D6"/>
<path d="M1.01548 25.7897H0.944212V25.6328H0.181641V24.0952H0.252909V25.5647H0.944212V24.0952H1.01548V25.7897Z" fill="#EDE4D6"/>
<path d="M1.81879 21.6177L1.74805 21.626L1.82276 22.2114L1.8935 22.2032L1.81879 21.6177Z" fill="#EDE4D6"/>
<path d="M2.28416 22.2371H2.21289V22.8303H2.28416V22.2371Z" fill="#EDE4D6"/>
<path d="M0.160136 22.8608H0.0888672V23.4984H0.160136V22.8608Z" fill="#EDE4D6"/>
<path d="M1.85349 22.8608H1.78223V23.4541H1.85349V22.8608Z" fill="#EDE4D6"/>
<path d="M2.70506 22.8813H2.63379V23.4541H2.70506V22.8813Z" fill="#EDE4D6"/>
<path d="M1.89256 24.0952H1.82129V24.6407H1.89256V24.0952Z" fill="#EDE4D6"/>
<path d="M2.70506 24.0439H2.63379V24.6406H2.70506V24.0439Z" fill="#EDE4D6"/>
<path d="M2.39842 24.6577H2.32715V25.2646H2.39842V24.6577Z" fill="#EDE4D6"/>
<path d="M1.62889 24.6919H1.55762V25.2647H1.62889V24.6919Z" fill="#EDE4D6"/>
<path d="M47.0125 15.4865L-3.66641 16.5298L-0.879819 19.6596L-2.62233 19.7074C-2.62233 19.7074 -2.43347 20.4438 -2.33726 20.7199C-2.24104 20.9995 -2.1377 25.3806 -2.1377 25.3806L-4.01562 25.8067V16.2161L47.4401 15.0808L47.8677 25.6261H47.5613L47.0125 15.4865Z" fill="#EDE4D6"/>
<path d="M4.85352 18.323L4.93191 25.6396L7.67218 25.2646L7.48332 18.8174L6.45349 19.7754C6.45349 19.7754 6.04013 19.3493 5.85127 19.0015C5.66241 18.6538 5.43792 18.2003 5.43792 18.2003C5.43792 18.2003 5.42366 18.0776 5.13859 18.2003C4.85352 18.323 4.85352 18.323 4.85352 18.323Z" fill="#A8DCC6"/>
<path d="M8.49512 18.1458L8.76594 18.2549C8.76594 18.2549 8.84433 18.2173 9.01894 18.2003C9.19355 18.1833 9.19355 18.1833 9.19355 18.1833L9.92048 19.7891L10.904 18.8174V25.5475L8.49512 25.6396V18.1458Z" fill="#F3DF8C"/>
<path d="M12.2979 18.0198V25.7523L13.5344 25.3841L13.6448 20.3518L12.9001 18.1459C12.9001 18.1459 12.8039 18.1971 12.6471 18.1459C12.4867 18.0948 12.2979 18.0198 12.2979 18.0198Z" fill="#F67C87"/>
<path d="M14.04 19.2949L46.4422 18.8108V19.6597L14.2788 20.3518L14.04 19.2949Z" fill="#EDE4D6"/>
<path d="M22.2607 20.3517L22.4033 21.6234H25.8669V20.2153L22.2607 20.3517Z" fill="#756C60"/>
<path d="M42.4082 21.7598L42.5472 23.9725H46.7912L46.6344 21.5654L42.4082 21.7598Z" fill="#756C60"/>
<path d="M42.4082 19.9733V21.3541L46.2531 21.2143V19.8506L42.4082 19.9733Z" fill="#756C60"/>
<path d="M41.8523 20.0928H38.3887V21.3542H41.8523V20.0928Z" fill="#756C60"/>
<path d="M37.8258 20.0928H34.5332V21.3542H37.8258V20.0928Z" fill="#756C60"/>
<path d="M30.5319 20.2462L30.5283 21.3542H33.8387V20.0928L30.5319 20.2462Z" fill="#756C60"/>
<path d="M30.5312 22.0018L30.6382 24.119L34.0911 23.9724L33.9628 21.845L30.5312 22.0018Z" fill="#756C60"/>
<path d="M34.5332 22.0018V24.1191H38.1287V21.7598L34.5332 22.0018Z" fill="#756C60"/>
<path d="M38.5566 22.0019V23.9725H42.1664V21.678L38.5566 22.0019Z" fill="#756C60"/>
<path d="M26.4268 20.2153C26.4268 20.3074 26.4268 21.5654 26.4268 21.5654H29.8904V20.2153H26.4268Z" fill="#756C60"/>
<path d="M18.666 20.4438V21.6234L21.9265 21.5654V20.2153L18.666 20.4438Z" fill="#756C60"/>
<path d="M14.7529 20.4439V21.6235H18.0954V20.27L14.7529 20.4439Z" fill="#756C60"/>
<path d="M14.7529 22.3224L14.8955 24.3203H17.9351L18.0954 22.002L14.7529 22.3224Z" fill="#756C60"/>
<path d="M18.666 22.1248V24.3204L21.9265 24.1192L22.119 22.1248H18.666Z" fill="#756C60"/>
<path d="M22.4033 22.3224L22.5922 24.1192H25.867V22.002L22.4033 22.3224Z" fill="#756C60"/>
<path d="M26.4268 22.0019V24.1191H29.8904V21.8826L26.4268 22.0019Z" fill="#756C60"/>
<path d="M16.7845 22.5303H15.9043V23.1815H16.7845V22.5303Z" fill="#EDE4D6"/>
<path d="M19.7705 22.5303V23.1338H20.7041V22.4519L19.7705 22.5303Z" fill="#EDE4D6"/>
<path d="M23.7432 22.4519C23.7574 22.4655 23.7432 23.0417 23.7432 23.0417H24.6126V22.4519H23.7432Z" fill="#EDE4D6"/>
<path d="M27.6699 22.452V23.0452H28.5572V22.394L27.6699 22.452Z" fill="#EDE4D6"/>
<path d="M32.7698 22.3325H31.8896V22.953H32.7698V22.3325Z" fill="#EDE4D6"/>
<path d="M35.8125 22.3325V22.953H36.7604V22.2268L35.8125 22.3325Z" fill="#EDE4D6"/>
<path d="M39.7539 22.3325V22.953L40.8158 22.878V22.2268L39.7539 22.3325Z" fill="#EDE4D6"/>
<path d="M13.9121 24.6715L46.635 24.3203V25.367L13.9121 25.6397V24.6715Z" fill="#756C60"/>
<path d="M14.5481 18.0454L14.2988 18.0552L14.6302 25.8121L14.8795 25.8024L14.5481 18.0454Z" fill="#EDE4D6"/>
<path d="M22.2425 17.9361L21.9932 17.9443L22.2782 25.8119L22.5275 25.8036L22.2425 17.9361Z" fill="#EDE4D6"/>
<path d="M46.6313 21.2349L14.4209 21.7725L14.4252 22.0111L46.6356 21.4735L46.6313 21.2349Z" fill="#EDE4D6"/>
<path d="M18.3764 17.9377H18.127V25.7487H18.3764V17.9377Z" fill="#EDE4D6"/>
<path d="M26.2338 17.7163H25.9844V25.8068H26.2338V17.7163Z" fill="#EDE4D6"/>
<path d="M30.2706 17.9332L30.0215 17.9443L30.4064 25.8148L30.6556 25.8036L30.2706 17.9332Z" fill="#EDE4D6"/>
<path d="M34.219 17.7113L33.9697 17.7205L34.2869 25.6451L34.5362 25.636L34.219 17.7113Z" fill="#EDE4D6"/>
<path d="M38.2552 17.7144L38.0059 17.7219L38.266 25.6448L38.5153 25.6373L38.2552 17.7144Z" fill="#EDE4D6"/>
<path d="M42.2913 17.4861L42.042 17.4929L42.2843 25.6483L42.5336 25.6415L42.2913 17.4861Z" fill="#EDE4D6"/>
<path d="M47.4784 24.0082L13.583 24.3928L13.586 24.6315L47.4813 24.2469L47.4784 24.0082Z" fill="#EDE4D6"/>
<path d="M0.809291 21.6404V22.2643H0.125115V21.6404H-1.66016V21.1562L2.24891 21.0676L2.13844 20.3755H2.41639L2.59456 21.6915L0.809291 21.6404Z" fill="#EDE4D6"/>
</g>
</svg>
