<?xml version="1.0" encoding="utf-8"?>
<!-- Generator: Adobe Illustrator 25.3.0, SVG Export Plug-In . SVG Version: 6.00 Build 0)  -->
<svg version="1.1" xmlns="http://www.w3.org/2000/svg" xmlns:xlink="http://www.w3.org/1999/xlink" x="0px" y="0px"
	 viewBox="0 0 1000 1000" style="enable-background:new 0 0 1000 1000;" xml:space="preserve">
<style type="text/css">
	.st0{fill:#D08C87;}
	.st1{fill:#A5706F;}
	.st2{fill:#F4D6C5;}
	.st3{fill:#937F74;}
	.st4{fill:#CADEAD;}
	.st5{fill:#F1EFE2;stroke:#D08C87;stroke-width:0.5;stroke-miterlimit:10;}
	.st6{fill:#D08C87;stroke:#F1EFE2;stroke-width:0.5;stroke-miterlimit:10;}
	.st7{fill:#F1EFE2;}
	.st8{fill:none;stroke:#D08C87;stroke-width:0.5;stroke-miterlimit:10;}
	.st9{fill:#FFFFFF;}
	.st10{fill:#457545;}
	.st11{fill:#F49519;}
	.st12{fill:#2A2AD1;}
	.st13{fill:#FCE9E0;}
</style>
<g id="Layer_1">
</g>
<g id="Layer_2">
	<g>
		<polygon class="st3" points="487.9,168.7 487.4,191.6 493.2,191 491.1,168.7 489.1,166.3 		"/>
		<path class="st1" d="M464.8,193.8c5.6-3.1,21.3-5.7,30-4.7s15.5,4.5,18,5.7c2.5,1.2,0.8,4.4,0,6.9c-0.8,2.5-0.9,3.9,0.7,6.3
			c1.6,2.5,2,7.2,2,7.2l-54.5-1.8c0,0-3.5-1.5,0-5.4c3.5-3.9,6.1-2.9,3.8-6.6C462.5,197.8,464.8,193.8,464.8,193.8z"/>
		<path class="st2" d="M370.5,339.1c0,0,6.6-62.5,32.9-88.9s43.6-43.1,82.4-42.2c38.7,0.9,73.3,22,90.6,52.8s37.9,87.8,37.9,87.8
			L370.5,339.1z"/>
		<path class="st0" d="M364.3,364.2c0,0-3.9-12.5,2.1-20.7c6-8.1,47.6-22.4,96.8-23.1c49.2-0.7,76.6-1.3,99.4,2.6
			c22.9,4,47.6,13.4,51.1,20.2c3.5,6.8,2.9,18.9,2.9,18.9l1.4,104c0,0-123.7-27.7-159.8-22.4c-36,5.3-94.3,25.1-94.3,25.1
			L364.3,364.2z"/>
		<path class="st1" d="M365.5,403.4c0,0-27.4-4.8-31.3-11.2s-1-13.2,8.2-17.6s45.3-17.6,73.1-21.8c27.8-4.2,109.9-5.1,131.8-3.1
			c21.8,2,65.9,10.8,78.4,16.1c12.6,5.3,23.1,5.5,20.6,13.6c-2.5,8.1-30.3,20.5-30.3,20.5l-0.6-20.2c0,0-16.1-11.7-49.8-14.1
			c-33.8-2.4-106.4-4.6-132-1.3c-25.5,3.3-65.1,8.6-69.4,16.3C360,388.2,365.5,403.4,365.5,403.4z"/>
		<path class="st2" d="M361,382l2,51.5l254.9,8.6l-0.8-71c0,0-83.2-14.3-109.1-14.1c-25.9,0.2-95.5,4.4-115.5,9.9
			C372.5,372.3,361,382,361,382z"/>
		<polygon class="st3" points="366.6,383.3 366.6,423.8 378.7,419.2 378.7,379.8 		"/>
		<polygon class="st3" points="391.1,376 391.1,419.4 410.2,416.8 410.2,370.6 		"/>
		<polygon class="st3" points="426.5,368.6 426.5,414.6 455.7,413 455.7,365.7 		"/>
		<rect x="473.8" y="364.6" class="st3" width="33.6" height="48.6"/>
		<polygon class="st3" points="525.7,365.7 525.7,411.9 555.8,415.9 555.8,365.7 		"/>
		<polygon class="st2" points="361,462.3 359,558.6 626.7,558.6 617.7,447.9 		"/>
		<polygon class="st3" points="570.8,368.6 570.8,415.9 593.5,421.6 593.5,370.6 		"/>
		<polygon class="st3" points="603.5,378.1 603.5,423.8 614.3,426.9 613.2,382.5 		"/>
		<path class="st0" d="M361,425.6c0,0,42.6-14.3,55.6-15.6c13-1.3,71.9-3.7,93.9-3.3s65.3,4.4,78.2,6.6c13,2.2,28.6,10.6,28.6,10.6
			l0.6,49.7c0,0-72.9-11.2-113.2-10.3s-75.4,3.5-97.2,5.7c-21.8,2.2-45.5,5.7-45.5,5.7L361,425.6z"/>
		<path class="st3" d="M352,443.4c2-2,2.2-13.5,3.1-13.5c0.9,0,1.9,13.3,1.9,13.3s5,0.6,5.3,7.1c0.3,5.8-14.2,2.6-14.2,2.6
			s-0.5-2.5,0.1-6S351.2,444.2,352,443.4z"/>
		<path class="st3" d="M623.7,441.7c2-2,2.2-13.5,3.1-13.5s1.9,13.3,1.9,13.3s5,0.6,5.3,7.1c0.3,5.8-14.2,2.6-14.2,2.6
			s-0.5-2.5,0.1-6C620.4,441.6,622.9,442.4,623.7,441.7z"/>
		<path class="st2" d="M329.1,488c0,0,3.7-27.3,12.4-32.8c1.9-1.2,4.2-2.3,6.6-3.1c8.5-2.9,19-2.9,23.6,4.5c6,9.5,9.3,37.8,9.3,37.8
			l-51.9,1.8V488z"/>
		<polygon class="st1" points="308.9,488.9 394.4,488.9 398.5,503.2 312.4,503.2 		"/>
		<polygon class="st0" points="329.1,497.5 329.1,551.1 343.9,550 345,497.5 		"/>
		<polygon class="st0" points="364.9,497.5 364.9,551.8 381,551.1 381,497.5 		"/>
		<path class="st2" d="M602.1,485.2c0,0,1.3-22.6,8.4-29.3c7.1-6.6,10.3-9.5,17.7-7.3c7.4,2.2,16.1,6.2,20.2,16.7
			c4.1,10.6,7.8,22.2,7.8,22.2L602.1,485.2z"/>
		<polygon class="st1" points="590,487.6 582.1,501.2 665.7,499.7 673.5,485.2 		"/>
		<rect x="603.5" y="494.8" class="st0" width="14.4" height="51.5"/>
		<polygon class="st3" points="484.4,510.4 484.4,555.3 500.3,551.8 498.7,510.4 		"/>
		<polygon class="st0" points="638.3,496.1 639.8,546.3 655,546.3 655,493.2 638.3,493.2 		"/>
		<polygon class="st0" points="324.9,546.3 324.9,601 660.4,597.2 660.4,543.2 		"/>
		<rect x="492.6" y="479.6" class="st7" width="4.7" height="117.6"/>
		<path class="st9" d="M495,510.4c0,0,12.2-2.5,19.1-1.4c7,1.1,19.6,0.1,27.2,1.4c7.5,1.3,10.7,2.7,10.7,2.7l-1.6-12.5
			c0,0-8.5-4.4-13.1-5.3c-4.6-0.9-27.6-3.5-33.6-3c-6,0.5-8.7,1-8.7,1V510.4z"/>
		<path class="st10" d="M495,520.5c0,0,15.4-2.7,22.1-1.4c6.7,1.4,23.9,3.2,27.9,3.6c4,0.5,8.7,1.7,8.7,1.7s-1.6-3.6-1.7-6.9
			c-0.1-3.3,0-4.5,0-4.5s-4.6-4-11.1-4.6c-6.5-0.6-13.8-3-23.2-2.9c-9.4,0.2-22.7,2.6-22.7,2.6V520.5z"/>
		<path class="st11" d="M495,481.3c0,0,11.9,3.2,18.9,3.9c7,0.7,18.4,3.8,24.2,3.7c5.8,0,12.4,0.4,12.4,0.4v11.2
			c0,0-6.7-1.8-15.7-3.3c-9-1.5-25.2-2.4-30.9-2.3c-5.7,0.2-8.9,0-8.9,0V481.3z"/>
		<path class="st12" d="M524,496.5c-2.3,1.9-3.4,2.5-2.8,6.1c0.6,3.4,6.3,4.6,8.1,2.6c2.4-2.6,2.2-4.6,0.7-7.1
			C528.1,494.8,524,496.5,524,496.5z"/>
		<g>
			<g>
				<polygon class="st9" points="521.9,500.2 526.1,501.1 521.9,499.1 				"/>
			</g>
			<g>
				<polygon class="st9" points="521.9,502.2 526.1,501.1 521.5,501.2 				"/>
			</g>
			<g>
				<polygon class="st9" points="522.9,504 526.1,501.1 522,503.3 				"/>
			</g>
			<g>
				<polygon class="st9" points="524.5,505.2 526.1,501.1 523.4,504.9 				"/>
			</g>
			<g>
				<polygon class="st9" points="526.5,505.4 526.1,501.1 525.5,505.7 				"/>
			</g>
			<g>
				<polygon class="st9" points="528.4,504.8 526.1,501.1 527.6,505.5 				"/>
			</g>
			<g>
				<polygon class="st9" points="529.8,503.3 526.1,501.1 529.4,504.3 				"/>
			</g>
			<g>
				<polygon class="st9" points="530.4,501.4 526.1,501.1 530.5,502.5 				"/>
			</g>
			<g>
				<polygon class="st9" points="530,499.4 526.1,501.1 530.6,500.3 				"/>
			</g>
			<g>
				<polygon class="st9" points="528.8,497.8 526.1,501.1 529.8,498.3 				"/>
			</g>
			<g>
				<polygon class="st9" points="527,496.9 526.1,501.1 528.1,497 				"/>
			</g>
			<g>
				<polygon class="st9" points="525,496.9 526.1,501.1 526,496.5 				"/>
			</g>
			<g>
				<polygon class="st9" points="523.2,497.9 526.1,501.1 523.9,497 				"/>
			</g>
		</g>
		<polygon class="st2" points="81.8,601 923.1,590.7 923.1,832.8 81.8,846.2 		"/>
		<rect x="89.7" y="619.9" class="st0" width="820.9" height="14.6"/>
		<g>
			<polygon class="st13" points="76.4,649.4 932,647.1 929.8,627.2 76.4,627.2 			"/>
			<polygon class="st13" points="127.6,651.7 127.6,797.2 143.8,797.2 143.8,644.9 			"/>
			<polygon class="st13" points="208.3,641.7 208.3,793.1 227.1,790.8 227.1,638.3 			"/>
			<polygon class="st13" points="280.4,640.3 280.4,799.5 300.5,795.4 298.4,633.9 			"/>
			<rect x="353.7" y="638.3" class="st13" width="16.8" height="151.6"/>
			<polygon class="st13" points="450.8,638.3 452.5,793.1 470.9,793.1 468.3,638.3 			"/>
			<polygon class="st13" points="523.5,638.3 522.7,799.5 540,799.5 537.9,638.3 			"/>
			<polygon class="st13" points="596.4,642.6 596.4,804.5 616.4,804.5 613.9,642.6 			"/>
			<polygon class="st13" points="695.4,638.3 695.4,807.2 715.9,799.5 710.2,635.7 			"/>
			<polygon class="st13" points="752.4,635.7 752.4,807.2 776.3,804.5 776.3,633.9 			"/>
			<polygon class="st13" points="845.7,635.7 845.7,797.2 828.6,793.1 828.6,638.3 			"/>
		</g>
		<g>
			<polygon class="st3" points="171.1,722.9 171.1,778.5 211.3,778.5 211.3,720.1 			"/>
			<polygon class="st3" points="241.2,720.1 280.4,720.1 280.4,785.8 242.9,785.8 			"/>
			<polygon class="st3" points="313.3,722.4 313.3,785.8 350.5,785.8 350.5,720.1 			"/>
			<polygon class="st3" points="402.5,716.7 404.3,797.2 441.4,793.1 441.4,718.9 			"/>
			<polygon class="st3" points="476,714.1 476,787.2 515.7,787.2 513.5,714.1 			"/>
			<polygon class="st3" points="546,718.4 546,789.9 584.4,789.9 584.4,718.9 			"/>
			<polygon class="st3" points="638.3,721.5 640.8,789.9 676.6,787.2 673.5,718.4 			"/>
			<polygon class="st3" points="708.7,718.9 710.4,789.9 745,789.9 745,720.1 			"/>
			<polygon class="st3" points="781.7,720.1 781.7,787.2 812.8,787.2 812.8,718.4 			"/>
			<polygon class="st3" points="784.2,683.6 784.2,705.1 808.1,703.2 808.1,682.3 			"/>
			<polygon class="st3" points="711.8,682.3 712.6,705.1 739.8,705.1 739.8,682.3 			"/>
			<rect x="641.6" y="682.3" class="st3" width="31.9" height="26.5"/>
			<polygon class="st3" points="482,676.8 484.4,695.5 504.2,695.5 504.2,674.5 			"/>
			<rect x="315.4" y="682.3" class="st3" width="24.3" height="22.8"/>
			<polygon class="st3" points="245.9,682.3 245.9,703.2 269.8,703.2 269.8,679.5 			"/>
			<polygon class="st3" points="175.4,682.3 173.7,705.1 201.9,705.1 201.9,679.5 			"/>
		</g>
		<polygon class="st1" points="77.5,768.3 924.1,768.3 924.1,833 77.5,846.1 		"/>
	</g>
</g>
</svg>
