<svg width="46" height="48" viewBox="0 0 46 48" fill="none" xmlns="http://www.w3.org/2000/svg">
<path d="M45.6709 23.2536C45.6709 36.0746 35.0437 48.3808 22.343 46.4242C15.0854 45.2914 0 36.6925 0 23.8715C0 11.0504 9.48669 -0.689304 22.343 0.0315581C47.4578 1.49624 46.3556 14.5569 45.801 21.1292C45.7317 21.9504 45.6709 22.6703 45.6709 23.2536Z" fill="#CADEAD"/>
<path d="M45.6709 23.2536C45.6709 36.0746 35.0437 48.3808 22.343 46.4242C15.0854 45.2914 0 36.6925 0 23.8715C0 11.0504 9.48669 -0.689304 22.343 0.0315581C47.4578 1.49624 46.3556 14.5569 45.801 21.1292C45.7317 21.9504 45.6709 22.6703 45.6709 23.2536Z" stroke="#3A3A3A"/>
<mask id="mask0_1431_17272" style="mask-type:alpha" maskUnits="userSpaceOnUse" x="0" y="0" width="46" height="48">
<path d="M45.6709 23.8837C45.6709 36.7048 35.0437 49.0109 22.343 47.0543C15.0854 45.9215 0 37.3226 0 24.5016C0 11.6806 9.48669 -0.0591767 22.343 0.661685C47.4578 2.12637 46.3556 15.187 45.801 21.7594C45.7317 22.5805 45.6709 23.3004 45.6709 23.8837Z" fill="#F67C87"/>
<path d="M45.6709 23.8837C45.6709 36.7048 35.0437 49.0109 22.343 47.0543C15.0854 45.9215 0 37.3226 0 24.5016C0 11.6806 9.48669 -0.0591767 22.343 0.661685C47.4578 2.12637 46.3556 15.187 45.801 21.7594C45.7317 22.5805 45.6709 23.3004 45.6709 23.8837Z" stroke="#3A3A3A"/>
</mask>
<g mask="url(#mask0_1431_17272)">
<path d="M22.6346 1.38124L22.6094 2.53565L22.9018 2.5054L22.7959 1.38124L22.6951 1.26025L22.6346 1.38124Z" fill="#937F74"/>
<path d="M21.4692 2.64658C21.7515 2.4903 22.543 2.35923 22.9815 2.40965C23.4151 2.46006 23.7629 2.63649 23.8889 2.69699C24.015 2.75748 23.9293 2.9188 23.8889 3.04482C23.8486 3.17085 23.8436 3.24143 23.9242 3.36241C24.0049 3.4834 24.025 3.72537 24.025 3.72537L21.2776 3.63463C21.2776 3.63463 21.1012 3.55901 21.2776 3.36241C21.4541 3.16581 21.5851 3.21622 21.4692 3.0297C21.3533 2.84822 21.4692 2.64658 21.4692 2.64658Z" fill="#A5706F"/>
<path d="M16.7168 9.97122C16.7168 9.97122 17.0495 6.82053 18.3753 5.48968C19.7011 4.15884 20.5732 3.31697 22.5292 3.36234C24.4801 3.40771 26.2243 4.47138 27.0964 6.02404C27.9685 7.5767 29.007 10.4501 29.007 10.4501L16.7168 9.97122Z" fill="#F4D6C5"/>
<path d="M16.4046 11.2366C16.4046 11.2366 16.208 10.6064 16.5105 10.1931C16.8129 9.78473 18.91 9.06385 21.3903 9.02856C23.8705 8.99327 25.2517 8.96303 26.4011 9.15963C27.5555 9.36127 28.8007 9.83514 28.9771 10.1779C29.1535 10.5207 29.1233 11.1307 29.1233 11.1307L29.1939 16.3734C29.1939 16.3734 22.958 14.9771 21.1382 15.2442C19.3234 15.5114 16.3844 16.5095 16.3844 16.5095L16.4046 11.2366Z" fill="#D08C87"/>
<path d="M16.4638 13.2128C16.4638 13.2128 15.0826 12.9708 14.886 12.6482C14.6894 12.3255 14.8355 11.9827 15.2993 11.7609C15.7631 11.5391 17.5829 10.8737 18.9844 10.662C20.3858 10.4502 24.5245 10.4049 25.6285 10.5057C26.7325 10.6065 28.9506 11.0501 29.5807 11.3173C30.2159 11.5845 30.7452 11.5946 30.6192 12.0029C30.4932 12.4112 29.0918 13.0363 29.0918 13.0363L29.0615 12.018C29.0615 12.018 28.2499 11.4282 26.551 11.3072C24.8522 11.1862 21.1873 11.0753 19.8968 11.2417C18.6113 11.4081 16.615 11.6752 16.3983 12.0634C16.1866 12.4465 16.4638 13.2128 16.4638 13.2128Z" fill="#A5706F"/>
<path d="M16.2363 12.1339L16.3372 14.7301L29.1869 15.1636L29.1466 11.5844C29.1466 11.5844 24.9524 10.8636 23.6467 10.8736C22.3411 10.8837 18.8325 11.0954 17.8243 11.3727C16.8161 11.6449 16.2363 12.1339 16.2363 12.1339Z" fill="#F4D6C5"/>
<path d="M16.5195 12.1994V14.241L17.1295 14.0091V12.0229L16.5195 12.1994Z" fill="#937F74"/>
<path d="M17.7539 11.8315V14.0194L18.7168 13.8883V11.5593L17.7539 11.8315Z" fill="#937F74"/>
<path d="M19.5391 11.4584V13.7774L21.0111 13.6967V11.3123L19.5391 11.4584Z" fill="#937F74"/>
<path d="M23.6176 11.2568H21.9238V13.7068H23.6176V11.2568Z" fill="#937F74"/>
<path d="M24.541 11.3123V13.6412L26.0584 13.8429V11.3123H24.541Z" fill="#937F74"/>
<path d="M16.2375 16.182L16.1367 21.0365H29.6317L29.178 15.4561L16.2375 16.182Z" fill="#F4D6C5"/>
<path d="M26.8125 11.4585V13.8429L27.9568 14.1303V11.5593L26.8125 11.4585Z" fill="#937F74"/>
<path d="M28.4629 11.9373V14.241L29.0073 14.3973L28.9519 12.1591L28.4629 11.9373Z" fill="#937F74"/>
<path d="M16.2363 14.332C16.2363 14.332 18.3838 13.6111 19.0392 13.5455C19.6945 13.48 22.6637 13.359 23.7728 13.3792C24.8818 13.3994 27.0646 13.601 27.7149 13.7119C28.3702 13.8228 29.1567 14.2463 29.1567 14.2463L29.1869 16.7517C29.1869 16.7517 25.5119 16.1871 23.4804 16.2325C21.4438 16.2778 19.6794 16.4089 18.5804 16.5198C17.4815 16.6307 16.2867 16.8071 16.2867 16.8071L16.2363 14.332Z" fill="#D08C87"/>
<path d="M15.7846 15.2291C15.8854 15.1283 15.8955 14.5486 15.9408 14.5486C15.9862 14.5486 16.0366 15.219 16.0366 15.219C16.0366 15.219 16.2887 15.2493 16.3038 15.577C16.3189 15.8694 15.588 15.708 15.588 15.708C15.588 15.708 15.5628 15.582 15.593 15.4056C15.6182 15.2291 15.7442 15.2695 15.7846 15.2291Z" fill="#937F74"/>
<path d="M29.4799 15.1434C29.5807 15.0426 29.5908 14.4629 29.6362 14.4629C29.6815 14.4629 29.7319 15.1334 29.7319 15.1334C29.7319 15.1334 29.984 15.1636 29.9991 15.4913C30.0142 15.7837 29.2833 15.6223 29.2833 15.6223C29.2833 15.6223 29.2581 15.4963 29.2883 15.3199C29.3135 15.1384 29.4396 15.1787 29.4799 15.1434Z" fill="#937F74"/>
<path d="M14.6289 17.4776C14.6289 17.4776 14.8154 16.1013 15.254 15.8241C15.3498 15.7636 15.4657 15.7081 15.5867 15.6678C16.0152 15.5216 16.5445 15.5216 16.7764 15.8947C17.0789 16.3736 17.2452 17.8002 17.2452 17.8002L14.6289 17.8909V17.4776Z" fill="#F4D6C5"/>
<path d="M13.6113 17.5229H17.9215L18.1281 18.2438H13.7878L13.6113 17.5229Z" fill="#A5706F"/>
<path d="M14.6289 17.9565V20.6586L15.375 20.6031L15.4304 17.9565H14.6289Z" fill="#D08C87"/>
<path d="M16.4336 17.9565V20.6939L17.2452 20.6586V17.9565H16.4336Z" fill="#D08C87"/>
<path d="M28.3906 17.3364C28.3906 17.3364 28.4562 16.1971 28.8141 15.8593C29.172 15.5216 29.3333 15.3804 29.7064 15.4913C30.0794 15.6022 30.518 15.8039 30.7247 16.3332C30.9313 16.8675 31.1179 17.4523 31.1179 17.4523L28.3906 17.3364Z" fill="#F4D6C5"/>
<path d="M27.7811 17.4574L27.3828 18.143L31.5972 18.0674L31.9904 17.3364L27.7811 17.4574Z" fill="#A5706F"/>
<path d="M29.1888 17.8203H28.4629V20.4165H29.1888V17.8203Z" fill="#D08C87"/>
<path d="M22.457 18.6067V20.8651L23.2586 20.6937L23.1779 18.6067H22.457Z" fill="#937F74"/>
<path d="M30.2168 17.8859L30.2924 20.4166H31.0587V17.7397H30.2168V17.8859Z" fill="#D08C87"/>
<path d="M14.418 20.4165V23.174L31.3308 22.9824V20.2603L14.418 20.4165Z" fill="#D08C87"/>
<path d="M23.108 17.054H22.8711V22.9823H23.108V17.054Z" fill="#F1EFE2"/>
<path d="M22.9922 18.6068C22.9922 18.6068 23.6072 18.4808 23.955 18.5362C24.3079 18.5917 24.9431 18.5413 25.3262 18.6068C25.7043 18.6723 25.8656 18.7429 25.8656 18.7429L25.785 18.1128C25.785 18.1128 25.3565 17.891 25.1246 17.8456C24.8927 17.8002 23.7332 17.6691 23.4308 17.6944C23.1283 17.7196 22.9922 17.7448 22.9922 17.7448V18.6068Z" fill="white"/>
<path d="M22.9922 19.1159C22.9922 19.1159 23.7685 18.9798 24.1063 19.0454C24.444 19.1109 25.3111 19.2067 25.5127 19.2268C25.7144 19.252 25.9513 19.3125 25.9513 19.3125C25.9513 19.3125 25.8707 19.1311 25.8656 18.9647C25.8606 18.7983 25.8656 18.7379 25.8656 18.7379C25.8656 18.7379 25.6337 18.5362 25.3061 18.506C24.9784 18.4757 24.6104 18.3547 24.1365 18.3598C23.6627 18.3699 22.9922 18.4908 22.9922 18.4908V19.1159Z" fill="#457545"/>
<path d="M22.9922 17.1396C22.9922 17.1396 23.5921 17.301 23.945 17.3363C24.2978 17.3715 24.8725 17.5278 25.1649 17.5228C25.4573 17.5177 25.79 17.5429 25.79 17.5429V18.1075C25.79 18.1075 25.4522 18.0168 24.9985 17.9412C24.5448 17.8656 23.7282 17.8202 23.4408 17.8252C23.1535 17.8353 22.9922 17.8252 22.9922 17.8252V17.1396Z" fill="#F49519"/>
<path d="M24.454 17.9059C24.338 18.0016 24.2826 18.0319 24.3128 18.2134C24.3431 18.3848 24.6304 18.4453 24.7212 18.3444C24.8422 18.2134 24.8321 18.1125 24.7565 17.9865C24.6607 17.8202 24.454 17.9059 24.454 17.9059Z" fill="#2A2AD1"/>
<path d="M24.3496 18.0926L24.5613 18.1379L24.3496 18.0371V18.0926Z" fill="white"/>
<path d="M24.3502 18.1931L24.562 18.1377L24.3301 18.1427L24.3502 18.1931Z" fill="white"/>
<path d="M24.4008 18.2839L24.5622 18.1377L24.3555 18.2486L24.4008 18.2839Z" fill="white"/>
<path d="M24.4812 18.3446L24.5619 18.1379L24.4258 18.3295L24.4812 18.3446Z" fill="white"/>
<path d="M24.5817 18.3547L24.5615 18.1379L24.5312 18.3698L24.5817 18.3547Z" fill="white"/>
<path d="M24.6784 18.3245L24.5625 18.1379L24.6381 18.3597L24.6784 18.3245Z" fill="white"/>
<path d="M24.749 18.2488L24.5625 18.1379L24.7289 18.2993L24.749 18.2488Z" fill="white"/>
<path d="M24.7793 18.1531L24.5625 18.1379L24.7843 18.2085L24.7793 18.1531Z" fill="white"/>
<path d="M24.7591 18.0522L24.5625 18.1379L24.7893 18.0976L24.7591 18.0522Z" fill="white"/>
<path d="M24.6986 17.9717L24.5625 18.138L24.749 17.9969L24.6986 17.9717Z" fill="white"/>
<path d="M24.6079 17.9263L24.5625 18.138L24.6633 17.9313L24.6079 17.9263Z" fill="white"/>
<path d="M24.5059 17.9262L24.5613 18.1379L24.5563 17.906L24.5059 17.9262Z" fill="white"/>
<path d="M24.416 17.9765L24.5622 18.1378L24.4513 17.9312L24.416 17.9765Z" fill="white"/>
<path d="M2.16211 23.1738L44.5728 22.6545V34.859L2.16211 35.5295V23.1738Z" fill="#F4D6C5"/>
<path d="M43.9429 24.1267H2.56055V24.8627H43.9429V24.1267Z" fill="#D08C87"/>
<path d="M1.89062 25.6137L45.0222 25.4978L44.9113 24.4946H1.89062V25.6137Z" fill="#FCE9E0"/>
<path d="M4.4707 25.7298V33.0646H5.28736V25.387L4.4707 25.7298Z" fill="#FCE9E0"/>
<path d="M8.53906 25.2256V32.8578L9.48679 32.7419V25.0542L8.53906 25.2256Z" fill="#FCE9E0"/>
<path d="M12.1738 25.1552V33.1806L13.1871 32.9739L13.0812 24.8325L12.1738 25.1552Z" fill="#FCE9E0"/>
<path d="M16.716 25.0542H15.8691V32.6965H16.716V25.0542Z" fill="#FCE9E0"/>
<path d="M20.7637 25.0542L20.8494 32.8578H21.7769L21.6459 25.0542H20.7637Z" fill="#FCE9E0"/>
<path d="M24.429 25.0542L24.3887 33.1804H25.2608L25.1549 25.0542H24.429Z" fill="#FCE9E0"/>
<path d="M28.1035 25.271V33.4325H29.1117L28.9857 25.271H28.1035Z" fill="#FCE9E0"/>
<path d="M33.0938 25.0542V33.5686L34.1272 33.1804L33.8398 24.9231L33.0938 25.0542Z" fill="#FCE9E0"/>
<path d="M35.9688 24.9233V33.5687L37.1736 33.4326V24.8325L35.9688 24.9233Z" fill="#FCE9E0"/>
<path d="M40.6706 24.9231V33.0645L39.8086 32.8578V25.0542L40.6706 24.9231Z" fill="#FCE9E0"/>
<path d="M6.66406 29.3191V32.122H8.69058V29.178L6.66406 29.3191Z" fill="#937F74"/>
<path d="M10.1973 29.178H12.1734V32.49H10.283L10.1973 29.178Z" fill="#937F74"/>
<path d="M13.832 29.2939V32.49H15.7073V29.178L13.832 29.2939Z" fill="#937F74"/>
<path d="M18.3281 29.0066L18.4138 33.0647L20.2891 32.858V29.1175L18.3281 29.0066Z" fill="#937F74"/>
<path d="M22.0332 28.8755V32.5605H24.0345L23.9236 28.8755H22.0332Z" fill="#937F74"/>
<path d="M25.5625 29.0923V32.6967H27.4983V29.1175L25.5625 29.0923Z" fill="#937F74"/>
<path d="M30.2168 29.2486L30.3428 32.6967L32.1475 32.5606L31.9913 29.0923L30.2168 29.2486Z" fill="#937F74"/>
<path d="M33.7656 29.1174L33.8513 32.6966H35.5955V29.1779L33.7656 29.1174Z" fill="#937F74"/>
<path d="M37.4453 29.178V32.5606H39.0131V29.0923L37.4453 29.178Z" fill="#937F74"/>
<path d="M37.5703 27.338V28.4218L38.7751 28.3261V27.2725L37.5703 27.338Z" fill="#937F74"/>
<path d="M33.9219 27.2725L33.9622 28.4218H35.3334V27.2725H33.9219Z" fill="#937F74"/>
<path d="M31.9909 27.2725H30.3828V28.6084H31.9909V27.2725Z" fill="#937F74"/>
<path d="M22.3359 26.9951L22.4569 27.9378H23.4551V26.8792L22.3359 26.9951Z" fill="#937F74"/>
<path d="M15.1625 27.2725H13.9375V28.4218H15.1625V27.2725Z" fill="#937F74"/>
<path d="M10.4355 27.2723V28.3258H11.6404V27.1311L10.4355 27.2723Z" fill="#937F74"/>
<path d="M6.88062 27.2723L6.79492 28.4216H8.21651V27.1311L6.88062 27.2723Z" fill="#937F74"/>
<path d="M1.94531 31.6077H44.6232V34.8693L1.94531 35.5296V31.6077Z" fill="#A5706F"/>
</g>
</svg>
