<svg width="50" height="46" viewBox="0 0 50 46" fill="none" xmlns="http://www.w3.org/2000/svg">
<path d="M49.1752 23.5292C49.1752 37.1257 38.1841 46 24.5876 46C10.9912 46 0 37.1257 0 23.5292C0 9.93274 9.6885 0 23.285 0C36.8814 0 49.1752 9.93274 49.1752 23.5292Z" fill="#CADEAD"/>
<mask id="mask0_1898_413" style="mask-type:luminance" maskUnits="userSpaceOnUse" x="0" y="0" width="50" height="46">
<path d="M49.1752 23.5292C49.1752 37.1257 38.1841 46 24.5876 46C10.9912 46 0 37.1257 0 23.5292C0 9.93274 9.6885 0 23.285 0C36.8814 0 49.1752 9.93274 49.1752 23.5292Z" fill="white"/>
</mask>
<g mask="url(#mask0_1898_413)">
<path d="M2.11754 10.8279L8.14232 17.5854L6.43258 33.6243H-0.162109L2.11754 10.8279Z" fill="#C0AAAF"/>
<path d="M34.5201 14.8989L33.2988 19.4582H37.2068L34.5201 14.8989Z" fill="#D08C87"/>
<path d="M7.49109 12.6191L14.7371 13.1076V34.0315H5.53711L7.49109 12.6191Z" fill="#C0AAAF"/>
<path d="M31.8324 15.1431L26.9475 20.4351L27.1917 26.3785L26.459 27.6811V34.0316H39.4041L38.5085 27.844L37.613 27.1112L36.636 19.7838L31.8324 15.1431Z" fill="#C0AAAF"/>
<path d="M26.4618 18.8879L38.7556 19.2136L39.9768 33.6242L26.0547 34.0313V30.2048L26.8688 28.5764L26.4618 18.8879Z" fill="#C0AAAF"/>
<path d="M26.4617 18.8879L38.7555 19.2136L38.5112 21.0862L26.2988 20.5977L26.4617 18.8879Z" fill="#DDD7D9"/>
<path d="M38.6739 23.3662H42.4191L43.3961 23.9361L43.8846 24.1804H38.4297L38.5111 23.7733L38.6739 23.3662Z" fill="#D08C87"/>
<path d="M43.153 21.1677L41.6875 23.0403H46.6539L44.2114 21.1677H43.153Z" fill="#D08C87"/>
<path d="M44.2089 29.0652L45.1045 29.8794V33.4617H38.9168L38.5098 23.7732H43.1505L44.2089 29.0652Z" fill="#96878B"/>
<path d="M42.8262 22.6333V22.8775L42.989 33.6245H47.6297L46.6527 23.0404L42.8262 22.6333Z" fill="#C0AAAF"/>
<path d="M12.1308 9.19971L9.28125 13.3519H14.329L12.6193 9.19971H12.1308Z" fill="#D08C87"/>
<path d="M22.8763 20.2725H21.4922V22.5521H22.8763V20.2725Z" fill="#DDD7D9"/>
<path d="M14.3282 13.0264L16.1194 16.2016L15.7123 33.7874L14.084 34.0317L14.3282 13.0264Z" fill="#96878B"/>
<path d="M3.99023 12.2935H6.43271L6.83979 13.0262L6.3513 15.6315L4.23448 14.4103L3.99023 12.2935Z" fill="#DDD7D9"/>
<path d="M26.0534 19.8652L24.5879 23.3661V33.6245H27.1118L26.8675 19.7024L26.0534 19.8652Z" fill="#6D6769"/>
<path d="M15.0625 22.8777H25.4023L25.0767 34.0317L15.3067 33.6246L15.0625 22.8777Z" fill="#96878B"/>
<path d="M15.8763 25.4014L15.7949 28.5766L23.2852 28.4138L22.7967 25.4828L15.8763 25.4014Z" fill="#6D6769"/>
<path d="M8.14402 29.9607L7.81836 34.0315H10.6679L11.2378 29.4722C11.2378 29.4722 10.4237 28.0881 9.77234 28.0881C9.0396 28.1696 8.14402 29.9607 8.14402 29.9607Z" fill="#6D6769"/>
<path d="M13.2716 24.0987H7.40962L2.6875 21.412L3.01316 20.842L7.57246 23.4474H13.2716V24.0987Z" fill="#DDD7D9"/>
<path d="M15.3086 22.2263H25.8927L26.2997 23.3661L15.3086 23.529V22.2263Z" fill="#D08C87"/>
<path d="M12.9454 26.0529L6.51354 25.8087L2.36133 23.6104L2.68699 23.0405L6.67637 25.1573L13.0268 25.4016L12.9454 26.0529Z" fill="#DDD7D9"/>
<path d="M15.3168 24.9564L15.2969 25.6074L23.2716 25.852L23.2916 25.201L15.3168 24.9564Z" fill="#D08C87"/>
<path d="M26.4323 26.0995L26.4219 26.7507L38.633 26.946L38.6435 26.2948L26.4323 26.0995Z" fill="#DDD7D9"/>
<path d="M46.6524 28.7397H39.1621V29.3911H46.6524V28.7397Z" fill="#DDD7D9"/>
<path d="M29.7169 28.4141L29.4727 27.8442H29.9612V27.6H30.6125V27.1929H31.1824V27.5185L31.7523 27.4371V27.8442H32.2408V28.4141H29.7169Z" fill="white"/>
<path d="M33.2992 27.4371V27.1929H34.1133V27.4371H34.6018V27.8442H35.0089V28.5769H32.8921L32.5664 28.0884L32.8921 27.9256L32.5664 27.4371H33.2992Z" fill="white"/>
<path d="M27.2922 24.5702L27.2793 25.2214L37.1287 25.4165L37.1416 24.7653L27.2922 24.5702Z" fill="#DDD7D9"/>
<path d="M36.6273 22.2535L27.1055 22.5222L27.1238 23.1733L36.6457 22.9045L36.6273 22.2535Z" fill="#DDD7D9"/>
<path d="M31.8335 20.2725L29.9609 21.8194H33.7875L31.8335 20.2725Z" fill="#DDD7D9"/>
<path d="M30.8574 18.8882V20.2723H32.8928V18.644C32.8928 18.644 32.4857 18.3183 32.2415 18.3183C31.9972 18.3183 31.8344 18.644 31.8344 18.644C31.8344 18.644 31.6716 18.4812 31.4273 18.3183C31.1831 18.2369 30.8574 18.8882 30.8574 18.8882Z" fill="#DDD7D9"/>
<path d="M27.357 20.5163L30.8579 17.1783V17.9924L32.8933 17.8296V16.7712L36.3128 20.5163L36.8013 26.4597H37.534L37.2083 20.0278L31.8349 15.1429V13.9216H31.1836L31.3464 15.6314L26.8685 19.7022L26.7871 26.134H27.6013L27.357 20.5163Z" fill="#DDD7D9"/>
<path d="M42.5002 22.6333L46.6524 22.7147L46.7338 24.1802H43.8843L42.0117 23.366L42.5002 22.6333Z" fill="#DDD7D9"/>
<path d="M7.48973 12.6191L14.3287 12.8634V15.143H8.14105V17.1784L7.16406 16.4457L7.48973 12.6191Z" fill="#DDD7D9"/>
<path d="M14.8197 14.2473L14.7383 16.2013L16.0409 17.504L16.1224 16.2013L14.8197 14.2473Z" fill="#DDD7D9"/>
<path d="M10.7485 21.2494H10.0158V21.0865C9.85293 20.2724 9.52726 19.2954 9.36443 19.0511C9.2016 19.2954 8.79452 20.2724 8.55027 21.0865L8.22461 21.0051C8.22461 21.0051 8.38744 20.5166 8.55027 19.9467C8.87594 18.9697 9.12019 18.7255 9.2016 18.7255C9.28302 18.7255 9.36443 18.7255 9.44585 18.7255C9.60868 18.8069 9.77151 18.9697 10.0158 19.9467C10.0972 20.2724 10.1786 20.6794 10.26 20.8423H10.5857C10.6671 20.6794 10.8299 20.2724 10.9928 19.8653C11.3998 18.8883 11.6441 18.644 11.8069 18.644C11.9697 18.644 12.214 18.8069 12.5397 19.7024C12.6211 20.1095 12.7839 20.4352 12.7839 20.598L13.3538 20.7609L13.2724 21.0865L12.4582 21.0051V20.9237C12.4582 20.9237 12.3768 20.5166 12.214 20.0281C11.9697 19.3768 11.8883 19.1325 11.8069 19.1325C11.7255 19.214 11.5627 19.3768 11.237 20.1909C10.9928 20.6794 10.8299 21.1679 10.8299 21.1679V21.2494H10.7485Z" fill="#DDD7D9"/>
<path d="M10.177 16.6085C10.0142 17.4226 10.177 17.9926 10.7469 17.8297C11.3169 17.6669 12.2938 17.6669 11.8054 16.8527C11.3169 16.0386 10.177 16.6085 10.177 16.6085Z" fill="white"/>
<path d="M30.3672 22.0633V25.0757H34.0309V21.8191L30.3672 22.0633Z" fill="#6D6769"/>
<path d="M34.1945 25.2386H30.2051V21.9005L34.1945 21.6562V25.2386ZM30.5307 24.9129H33.8688V21.9819L30.5307 22.2262V24.9129Z" fill="#79A5AE"/>
<path d="M29.96 28.8208C29.8786 29.4721 29.96 31.1004 29.96 31.1004H31.914L31.8326 28.8208H29.96Z" fill="#6D6769"/>
<path d="M32.0775 31.2633H29.7979V31.1004C29.7979 31.019 29.7165 29.4721 29.7979 28.8208V28.658H31.9961L32.0775 31.2633ZM30.1236 30.8562H31.7519L31.6705 28.9022H30.1236C30.1236 29.5535 30.1236 30.5305 30.1236 30.8562Z" fill="#79A5AE"/>
<path d="M32.8945 29.0652L33.0574 31.1006H34.7671L34.6043 29.0652H32.8945Z" fill="#6D6769"/>
<path d="M34.93 31.2634H32.8132L32.6504 28.9023H34.7672L34.93 31.2634ZM33.2203 30.8563H34.6044L34.4415 29.1466H33.0575L33.2203 30.8563Z" fill="#79A5AE"/>
<path d="M40.2207 25.5643V27.844H42.1747L41.849 25.3201L40.2207 25.5643Z" fill="#6D6769"/>
<path d="M42.4183 28.0069H40.1387V25.4016L42.0112 25.0759L42.4183 28.0069ZM40.3829 27.6812H41.9298L41.6042 25.483L40.3015 25.6458V27.6812H40.3829Z" fill="#79A5AE"/>
<path d="M44.3711 26.2156V27.8439H45.918L45.5923 25.9713C45.5923 25.9713 45.5923 25.5643 45.4295 25.5643C45.2667 25.4828 45.1038 26.4598 45.1038 26.4598C45.1038 26.4598 44.941 25.6457 44.7782 25.5643C44.6153 25.4014 44.3711 26.2156 44.3711 26.2156Z" fill="#6D6769"/>
<path d="M46.0835 28.0067H44.2109V26.2155C44.4552 25.4828 44.618 25.4014 44.6994 25.4014C44.7809 25.4014 44.8623 25.4014 44.9437 25.4828C45.0251 25.5642 45.1065 25.6456 45.1065 25.8084C45.1879 25.6456 45.1879 25.5642 45.2693 25.4828C45.3508 25.4828 45.4322 25.4014 45.4322 25.4828C45.7578 25.5642 45.7578 25.9713 45.7578 26.0527L46.0835 28.0067ZM44.5366 27.681H45.6764L45.4322 26.0527C45.4322 25.9713 45.4322 25.8899 45.4322 25.8899C45.3508 26.0527 45.3508 26.2969 45.2693 26.5412L45.1879 27.5182L44.9437 26.5412C44.8623 26.2969 44.7809 25.9713 44.6994 25.8084C44.618 25.8899 44.5366 26.1341 44.5366 26.2969V27.681Z" fill="#79A5AE"/>
<path d="M41.8496 30.4492C42.0939 30.4492 42.9894 30.4492 42.9894 30.4492V31.9961H42.0124L41.8496 30.4492Z" fill="#6D6769"/>
<path d="M43.1524 32.1589H41.8497L41.6055 30.2864H43.071V32.1589H43.1524ZM42.1754 31.8333H42.8267V30.612H42.0125L42.1754 31.8333Z" fill="#79A5AE"/>
<path d="M41.1144 30.4492H39.9746V31.9961H41.1144V30.4492Z" fill="#6D6769"/>
<path d="M41.278 32.1589H39.8125V30.2864H41.278V32.1589ZM40.1382 31.8333H40.9523V30.612H40.1382V31.8333Z" fill="#79A5AE"/>
<path d="M15.7949 28.5767C16.4462 28.6582 16.4462 28.9838 16.4462 28.9838C16.4462 28.9838 16.3648 28.4953 16.7719 28.5767C17.179 28.6582 17.179 28.821 17.179 28.821C17.179 28.821 17.8303 28.4953 18.0746 28.5767C18.3188 28.6582 18.4816 28.9838 18.4816 28.9838C18.4816 28.9838 18.6445 28.3325 19.0516 28.5767C19.4586 28.821 19.2958 28.9838 19.2958 28.9838C19.2958 28.9838 19.6215 28.821 19.9471 28.7396C20.2728 28.6582 20.517 28.9838 20.517 28.9838C20.517 28.9838 20.3542 28.9024 20.7613 28.7396C21.2498 28.5767 21.4126 28.9838 21.4126 28.9838C21.4126 28.9838 21.4126 29.1466 21.7383 28.9838C22.0639 28.821 22.0639 29.0652 22.0639 29.0652V28.0882L15.7949 27.844V28.5767Z" fill="#79A5AE"/>
<path d="M26.2994 28.4951C26.1366 28.5765 23.5312 29.065 23.5312 29.065V30.042L26.2994 29.5535V28.4951Z" fill="#79A5AE"/>
<path d="M26.4613 26.9483L25.81 27.8439L25.24 27.1926L24.9144 27.8439L24.1816 28.4138V27.1926L24.5887 26.6227L26.0542 26.5413L26.4613 26.9483Z" fill="#79A5AE"/>
<path d="M16.1211 29.9607L23.5299 30.0421V33.9501L16.1211 33.6244V29.9607Z" fill="#6D6769"/>
</g>
</svg>
