<svg version="1.0" xmlns="http://www.w3.org/2000/svg" viewBox="0 0 5580 6980" preserveAspectRatio="xMidYMid meet">
    <g >
     <path  d="M2796 6803 c-38 -32 -78 -65 -91 -73 -12 -8 -29 -22 -37 -30 -28 -27 -82 -74 -168 -145 -109 -90 -134 -111 -190 -160 -25 -23 -70 -61 -100 -85 -120 -97 -210 -181 -210 -195 0 -7 21 -30 46 -51 25 -22 88 -75 138 -119 51 -44 119 -102 151 -130 32 -27 94 -81 138 -120 44 -38 96 -83 116 -100 20 -16 50 -42 66 -57 17 -16 36 -28 43 -28 13 0 57 35 191 154 36 32 100 86 141 120 41 33 77 63 80 67 3 3 34 30 70 60 35 29 72 60 80 69 9 8 54 47 100 85 116 97 194 166 202 180 4 7 -12 30 -40 56 -51 48 -274 246 -333 294 -134 112 -214 180 -217 187 -4 8 -97 78 -104 78 -2 0 -35 -26 -72 -57z"></path>
     <path  d="M3690 5755 c0 -223 3 -405 8 -405 4 0 25 -17 47 -37 22 -20 65 -57 95 -81 30 -25 60 -50 65 -56 6 -6 35 -31 65 -56 30 -25 57 -48 60 -52 3 -3 22 -20 43 -36 20 -17 63 -52 95 -80 31 -27 113 -98 182 -157 69 -59 145 -125 169 -146 25 -21 46 -37 48 -35 2 2 4 185 4 406 l0 402 -26 24 c-15 14 -95 81 -178 150 -84 69 -165 138 -182 153 -16 15 -52 44 -80 66 -27 22 -73 60 -101 85 -28 25 -86 74 -129 110 -44 36 -100 84 -126 108 -25 23 -49 42 -53 42 -3 0 -6 -182 -6 -405z"></path>
     <path  d="M1839 5997 c-15 -12 -37 -31 -50 -42 -13 -11 -49 -40 -80 -65 -56 -45 -217 -179 -274 -227 -16 -15 -66 -56 -110 -92 -44 -36 -82 -69 -85 -72 -3 -4 -52 -44 -110 -91 -58 -46 -115 -92 -127 -103 l-23 -19 0 -1497 c0 -1436 -1 -1497 -18 -1512 -17 -15 -57 -17 -369 -17 -346 0 -351 0 -346 -20 3 -11 9 -20 14 -20 8 0 205 -154 224 -176 6 -6 42 -36 80 -66 39 -31 80 -64 91 -74 12 -11 41 -35 65 -54 42 -35 163 -135 186 -155 7 -5 18 -15 25 -20 66 -52 189 -156 214 -182 17 -18 35 -33 40 -33 5 0 29 -19 54 -41 25 -22 65 -57 90 -77 25 -20 50 -41 55 -47 6 -6 46 -40 90 -75 44 -36 100 -83 126 -105 25 -22 65 -56 89 -75 24 -19 68 -56 98 -83 30 -26 59 -47 64 -47 4 0 8 118 8 263 0 191 3 266 12 275 9 9 117 12 425 12 l412 0 21 22 21 23 -48 45 c-26 25 -77 70 -112 100 -35 30 -72 62 -81 70 -8 8 -38 33 -65 55 -28 22 -73 60 -101 85 -84 75 -116 103 -179 154 -33 27 -72 62 -87 77 -14 15 -33 31 -41 36 -18 10 -120 98 -153 132 l-24 24 0 1244 c0 794 4 1251 10 1263 5 10 47 49 92 86 45 38 90 76 99 84 33 31 134 116 188 161 31 25 74 61 95 80 22 18 67 58 100 88 34 29 78 65 99 79 40 27 49 58 19 70 -10 4 -52 37 -93 73 -77 70 -161 143 -220 193 -40 34 -176 154 -199 176 -24 22 -129 112 -148 127 -23 17 -33 16 -63 -10z"></path>
     <path  d="M3048 5637 c-25 -23 -58 -51 -72 -62 -15 -11 -43 -36 -64 -55 -20 -19 -52 -48 -72 -63 -38 -31 -88 -74 -239 -207 -54 -47 -121 -105 -151 -130 -29 -25 -72 -61 -94 -81 -114 -101 -157 -138 -212 -184 -32 -27 -76 -66 -96 -86 l-38 -37 0 -1165 c0 -641 -3 -1172 -6 -1180 -6 -16 44 -71 140 -152 33 -27 71 -61 85 -74 14 -13 55 -49 90 -80 36 -31 72 -63 81 -71 8 -8 40 -35 70 -60 30 -25 66 -55 80 -68 14 -13 67 -60 119 -105 51 -45 119 -106 150 -134 101 -94 91 -236 91 1271 l0 1324 72 64 c39 34 99 88 132 118 34 30 102 89 151 130 48 41 112 95 140 120 28 25 77 68 110 95 32 28 68 59 79 71 31 31 66 48 78 36 13 -13 12 98 10 -1374 l-2 -1307 -36 -33 c-19 -18 -59 -55 -87 -82 -29 -26 -71 -62 -94 -79 -24 -17 -43 -34 -43 -37 0 -4 -20 -23 -45 -42 -24 -19 -69 -57 -98 -84 -30 -27 -114 -101 -187 -164 -73 -63 -158 -140 -189 -170 -31 -30 -85 -80 -121 -110 -35 -30 -87 -75 -116 -100 -28 -25 -69 -60 -90 -79 -22 -18 -87 -75 -146 -127 -59 -52 -109 -94 -111 -94 -3 0 -22 -17 -44 -38 -21 -20 -70 -64 -108 -97 -89 -77 -105 -93 -105 -104 0 -5 43 -45 96 -88 53 -43 128 -104 167 -136 78 -63 127 -104 190 -158 103 -87 286 -229 295 -229 6 0 19 8 29 18 10 10 72 65 138 123 65 57 127 111 136 119 9 8 31 28 50 44 19 16 72 63 119 105 47 42 103 92 125 110 22 18 69 59 104 90 103 91 183 162 252 222 35 32 91 81 124 110 34 30 87 77 119 104 33 28 69 59 81 70 13 11 36 32 53 46 16 15 54 49 84 75 30 27 94 83 142 124 49 41 115 100 147 131 l59 55 0 1364 0 1363 -44 41 c-24 23 -84 76 -133 118 -99 86 -106 92 -193 168 -192 167 -253 220 -311 270 -35 30 -93 82 -130 115 -36 33 -92 83 -124 110 -105 90 -139 120 -160 140 -12 11 -45 40 -75 65 -30 25 -62 52 -70 60 -87 81 -208 180 -221 180 -8 0 -35 -20 -61 -43z"></path>
     </g>
</svg>